M48
;GenerationSoftware,Autodesk,EAGLE,9.6.1*%
;CreationDate,2025-01-20T00:39:11Z*%
FMAT,2
ICI,OFF
METRIC,TZ,000.000
T9C0.610
T8C0.813
T7C0.914
T6C1.016
T5C1.100
T4C1.143
T3C1.200
T2C1.300
T1C3.962
%
G90
M71
T1
X55880Y59690
T2
X20400Y64850
X25360Y64850
X10120Y64850
X10160Y69850
X12660Y64850
X15160Y64850
X25400Y69850
X7660Y64850
X27900Y64850
X30400Y64850
X5160Y64850
X22900Y64850
T3
X30400Y69850
X30400Y72350
X20400Y72350
X20400Y69850
X15160Y69850
X15160Y72350
X5160Y72350
X5160Y69850
T4
X86360Y38100
X71120Y38100
T5
X73740Y38100
X83740Y38100
T6
X58420Y5080
X60960Y5080
X63500Y5080
X50800Y7620
X53340Y7620
X55880Y7620
X60960Y7620
X63500Y7620
X73660Y66040
X91440Y16510
X58420Y7620
X50800Y5080
X48260Y7620
X48260Y5080
X45720Y7620
X43180Y7620
X40640Y7620
X38100Y7620
X35560Y7620
X33020Y7620
X45720Y5080
X43180Y5080
X40640Y5080
X38100Y5080
X35560Y5080
X33020Y5080
X30480Y7620
X30480Y5080
X27940Y7620
X25400Y7620
X20320Y7620
X27940Y5080
X25400Y5080
X22860Y5080
X20320Y5080
X48260Y69850
X45720Y69850
X43180Y69850
X22860Y7620
X53340Y5080
X55880Y5080
X81280Y38100
X76200Y38100
T7
X35560Y69850
X38100Y69850
X21590Y13970
X21590Y16510
X24130Y13970
X24130Y16510
T8
X17780Y27940
X20320Y31750
X17780Y31750
X43205Y63500
X48235Y63500
X45720Y66040
X68580Y60960
X66040Y60960
X77470Y59690
X80010Y59690
X80010Y67310
X77470Y67310
X82550Y59690
X85090Y59690
X82550Y67310
X85090Y67310
X80010Y69850
X77470Y69850
X73660Y63500
X73660Y60960
X83820Y69850
X86360Y69850
X88900Y59690
X88900Y67310
X88900Y57150
X88900Y54610
X82550Y20320
X82550Y12700
X86360Y7620
X83820Y7620
X76200Y17780
X76200Y15240
X86360Y16510
X88900Y16510
X63500Y33020
X63500Y25400
X58420Y26670
X55880Y26670
X53340Y38100
X53340Y35560
X2540Y46990
X60960Y38100
X53340Y33020
X53340Y30480
X60960Y33020
X60960Y30480
X57150Y48260
X57150Y45720
X54610Y41910
X54610Y49530
X60960Y45720
X60960Y48260
X60960Y41910
X58420Y41910
X38100Y29210
X30480Y29210
X43180Y29210
X43180Y26670
X22860Y57150
X20320Y57150
X53340Y53340
X60960Y53340
X82550Y55880
X85090Y55880
X13970Y21590
X13970Y19050
X60960Y35560
X29210Y34290
X35560Y21590
X35560Y19050
X6350Y17780
X6350Y20320
X16510Y34290
X19050Y34290
X21590Y34290
X24130Y34290
X26670Y34290
X31750Y34290
X34290Y34290
X36830Y34290
X39370Y34290
X41910Y34290
X44450Y34290
X46990Y34290
X49530Y34290
X49530Y49530
X46990Y49530
X44450Y49530
X41910Y49530
X39370Y49530
X36830Y49530
X34290Y49530
X12700Y11430
X2540Y11430
X31750Y49530
X29210Y49530
X26670Y49530
X38100Y13970
X40640Y13970
X43180Y13970
X45720Y13970
X48260Y13970
X50800Y13970
X53340Y13970
X55880Y13970
X58420Y13970
X60960Y13970
X63500Y13970
X66040Y13970
X66040Y21590
X63500Y21590
X60960Y21590
X58420Y21590
X55880Y21590
X53340Y21590
X50800Y21590
X48260Y21590
X45720Y21590
X43180Y21590
X40640Y21590
X38100Y21590
X77445Y6350
X72415Y6350
X74930Y3810
X24130Y49530
X21590Y49530
X19050Y49530
X16510Y49530
X8763Y41910
X3937Y41910
X68580Y67310
X68580Y69850
X69850Y21590
X69850Y13970
X68580Y55880
X66675Y54610
X68580Y53340
X63500Y57150
X63500Y49530
X8890Y46990
X11430Y46990
X5080Y46990
X20320Y27940
X55880Y67310
X55880Y69850
T9
X30480Y36830
X26670Y38100
X60325Y55880
X35560Y10795
X64135Y54610
X57150Y6350
X44450Y12065
X38100Y31115
X46990Y23495
X31115Y26670
M30