G04 EAGLE Gerber RS-274X export*
G75*
%MOMM*%
%FSLAX34Y34*%
%LPD*%
%INBoard Outline*%
%IPPOS*%
%AMOC8*
5,1,8,0,0,1.08239X$1,22.5*%
G01*
%ADD10C,0.000000*%
%ADD11C,0.254000*%


D10*
X32766Y-139700D02*
X1768856Y-139700D01*
X1768856Y-63500D01*
X2039620Y-63500D01*
X2039620Y-139700D01*
X2819400Y-139700D01*
X2819400Y-63500D01*
X2984500Y-63500D01*
X2984500Y1498600D01*
X2921000Y1574800D01*
X0Y1574800D01*
X-63500Y1511300D01*
X-63500Y-63500D01*
X32766Y-63500D01*
X32766Y-139700D01*
X-15875Y0D02*
X-15870Y390D01*
X-15856Y779D01*
X-15832Y1168D01*
X-15799Y1556D01*
X-15756Y1943D01*
X-15703Y2329D01*
X-15641Y2714D01*
X-15570Y3097D01*
X-15489Y3478D01*
X-15399Y3857D01*
X-15300Y4234D01*
X-15191Y4608D01*
X-15074Y4980D01*
X-14947Y5348D01*
X-14811Y5713D01*
X-14667Y6075D01*
X-14513Y6433D01*
X-14351Y6787D01*
X-14180Y7138D01*
X-14001Y7483D01*
X-13813Y7825D01*
X-13616Y8161D01*
X-13412Y8493D01*
X-13200Y8820D01*
X-12979Y9141D01*
X-12751Y9457D01*
X-12515Y9767D01*
X-12272Y10071D01*
X-12021Y10369D01*
X-11763Y10661D01*
X-11497Y10946D01*
X-11225Y11225D01*
X-10946Y11497D01*
X-10661Y11763D01*
X-10369Y12021D01*
X-10071Y12272D01*
X-9767Y12515D01*
X-9457Y12751D01*
X-9141Y12979D01*
X-8820Y13200D01*
X-8493Y13412D01*
X-8161Y13616D01*
X-7825Y13813D01*
X-7483Y14001D01*
X-7138Y14180D01*
X-6787Y14351D01*
X-6433Y14513D01*
X-6075Y14667D01*
X-5713Y14811D01*
X-5348Y14947D01*
X-4980Y15074D01*
X-4608Y15191D01*
X-4234Y15300D01*
X-3857Y15399D01*
X-3478Y15489D01*
X-3097Y15570D01*
X-2714Y15641D01*
X-2329Y15703D01*
X-1943Y15756D01*
X-1556Y15799D01*
X-1168Y15832D01*
X-779Y15856D01*
X-390Y15870D01*
X0Y15875D01*
X390Y15870D01*
X779Y15856D01*
X1168Y15832D01*
X1556Y15799D01*
X1943Y15756D01*
X2329Y15703D01*
X2714Y15641D01*
X3097Y15570D01*
X3478Y15489D01*
X3857Y15399D01*
X4234Y15300D01*
X4608Y15191D01*
X4980Y15074D01*
X5348Y14947D01*
X5713Y14811D01*
X6075Y14667D01*
X6433Y14513D01*
X6787Y14351D01*
X7138Y14180D01*
X7483Y14001D01*
X7825Y13813D01*
X8161Y13616D01*
X8493Y13412D01*
X8820Y13200D01*
X9141Y12979D01*
X9457Y12751D01*
X9767Y12515D01*
X10071Y12272D01*
X10369Y12021D01*
X10661Y11763D01*
X10946Y11497D01*
X11225Y11225D01*
X11497Y10946D01*
X11763Y10661D01*
X12021Y10369D01*
X12272Y10071D01*
X12515Y9767D01*
X12751Y9457D01*
X12979Y9141D01*
X13200Y8820D01*
X13412Y8493D01*
X13616Y8161D01*
X13813Y7825D01*
X14001Y7483D01*
X14180Y7138D01*
X14351Y6787D01*
X14513Y6433D01*
X14667Y6075D01*
X14811Y5713D01*
X14947Y5348D01*
X15074Y4980D01*
X15191Y4608D01*
X15300Y4234D01*
X15399Y3857D01*
X15489Y3478D01*
X15570Y3097D01*
X15641Y2714D01*
X15703Y2329D01*
X15756Y1943D01*
X15799Y1556D01*
X15832Y1168D01*
X15856Y779D01*
X15870Y390D01*
X15875Y0D01*
X15870Y-390D01*
X15856Y-779D01*
X15832Y-1168D01*
X15799Y-1556D01*
X15756Y-1943D01*
X15703Y-2329D01*
X15641Y-2714D01*
X15570Y-3097D01*
X15489Y-3478D01*
X15399Y-3857D01*
X15300Y-4234D01*
X15191Y-4608D01*
X15074Y-4980D01*
X14947Y-5348D01*
X14811Y-5713D01*
X14667Y-6075D01*
X14513Y-6433D01*
X14351Y-6787D01*
X14180Y-7138D01*
X14001Y-7483D01*
X13813Y-7825D01*
X13616Y-8161D01*
X13412Y-8493D01*
X13200Y-8820D01*
X12979Y-9141D01*
X12751Y-9457D01*
X12515Y-9767D01*
X12272Y-10071D01*
X12021Y-10369D01*
X11763Y-10661D01*
X11497Y-10946D01*
X11225Y-11225D01*
X10946Y-11497D01*
X10661Y-11763D01*
X10369Y-12021D01*
X10071Y-12272D01*
X9767Y-12515D01*
X9457Y-12751D01*
X9141Y-12979D01*
X8820Y-13200D01*
X8493Y-13412D01*
X8161Y-13616D01*
X7825Y-13813D01*
X7483Y-14001D01*
X7138Y-14180D01*
X6787Y-14351D01*
X6433Y-14513D01*
X6075Y-14667D01*
X5713Y-14811D01*
X5348Y-14947D01*
X4980Y-15074D01*
X4608Y-15191D01*
X4234Y-15300D01*
X3857Y-15399D01*
X3478Y-15489D01*
X3097Y-15570D01*
X2714Y-15641D01*
X2329Y-15703D01*
X1943Y-15756D01*
X1556Y-15799D01*
X1168Y-15832D01*
X779Y-15856D01*
X390Y-15870D01*
X0Y-15875D01*
X-390Y-15870D01*
X-779Y-15856D01*
X-1168Y-15832D01*
X-1556Y-15799D01*
X-1943Y-15756D01*
X-2329Y-15703D01*
X-2714Y-15641D01*
X-3097Y-15570D01*
X-3478Y-15489D01*
X-3857Y-15399D01*
X-4234Y-15300D01*
X-4608Y-15191D01*
X-4980Y-15074D01*
X-5348Y-14947D01*
X-5713Y-14811D01*
X-6075Y-14667D01*
X-6433Y-14513D01*
X-6787Y-14351D01*
X-7138Y-14180D01*
X-7483Y-14001D01*
X-7825Y-13813D01*
X-8161Y-13616D01*
X-8493Y-13412D01*
X-8820Y-13200D01*
X-9141Y-12979D01*
X-9457Y-12751D01*
X-9767Y-12515D01*
X-10071Y-12272D01*
X-10369Y-12021D01*
X-10661Y-11763D01*
X-10946Y-11497D01*
X-11225Y-11225D01*
X-11497Y-10946D01*
X-11763Y-10661D01*
X-12021Y-10369D01*
X-12272Y-10071D01*
X-12515Y-9767D01*
X-12751Y-9457D01*
X-12979Y-9141D01*
X-13200Y-8820D01*
X-13412Y-8493D01*
X-13616Y-8161D01*
X-13813Y-7825D01*
X-14001Y-7483D01*
X-14180Y-7138D01*
X-14351Y-6787D01*
X-14513Y-6433D01*
X-14667Y-6075D01*
X-14811Y-5713D01*
X-14947Y-5348D01*
X-15074Y-4980D01*
X-15191Y-4608D01*
X-15300Y-4234D01*
X-15399Y-3857D01*
X-15489Y-3478D01*
X-15570Y-3097D01*
X-15641Y-2714D01*
X-15703Y-2329D01*
X-15756Y-1943D01*
X-15799Y-1556D01*
X-15832Y-1168D01*
X-15856Y-779D01*
X-15870Y-390D01*
X-15875Y0D01*
X2905125Y0D02*
X2905130Y390D01*
X2905144Y779D01*
X2905168Y1168D01*
X2905201Y1556D01*
X2905244Y1943D01*
X2905297Y2329D01*
X2905359Y2714D01*
X2905430Y3097D01*
X2905511Y3478D01*
X2905601Y3857D01*
X2905700Y4234D01*
X2905809Y4608D01*
X2905926Y4980D01*
X2906053Y5348D01*
X2906189Y5713D01*
X2906333Y6075D01*
X2906487Y6433D01*
X2906649Y6787D01*
X2906820Y7138D01*
X2906999Y7483D01*
X2907187Y7825D01*
X2907384Y8161D01*
X2907588Y8493D01*
X2907800Y8820D01*
X2908021Y9141D01*
X2908249Y9457D01*
X2908485Y9767D01*
X2908728Y10071D01*
X2908979Y10369D01*
X2909237Y10661D01*
X2909503Y10946D01*
X2909775Y11225D01*
X2910054Y11497D01*
X2910339Y11763D01*
X2910631Y12021D01*
X2910929Y12272D01*
X2911233Y12515D01*
X2911543Y12751D01*
X2911859Y12979D01*
X2912180Y13200D01*
X2912507Y13412D01*
X2912839Y13616D01*
X2913175Y13813D01*
X2913517Y14001D01*
X2913862Y14180D01*
X2914213Y14351D01*
X2914567Y14513D01*
X2914925Y14667D01*
X2915287Y14811D01*
X2915652Y14947D01*
X2916020Y15074D01*
X2916392Y15191D01*
X2916766Y15300D01*
X2917143Y15399D01*
X2917522Y15489D01*
X2917903Y15570D01*
X2918286Y15641D01*
X2918671Y15703D01*
X2919057Y15756D01*
X2919444Y15799D01*
X2919832Y15832D01*
X2920221Y15856D01*
X2920610Y15870D01*
X2921000Y15875D01*
X2921390Y15870D01*
X2921779Y15856D01*
X2922168Y15832D01*
X2922556Y15799D01*
X2922943Y15756D01*
X2923329Y15703D01*
X2923714Y15641D01*
X2924097Y15570D01*
X2924478Y15489D01*
X2924857Y15399D01*
X2925234Y15300D01*
X2925608Y15191D01*
X2925980Y15074D01*
X2926348Y14947D01*
X2926713Y14811D01*
X2927075Y14667D01*
X2927433Y14513D01*
X2927787Y14351D01*
X2928138Y14180D01*
X2928483Y14001D01*
X2928825Y13813D01*
X2929161Y13616D01*
X2929493Y13412D01*
X2929820Y13200D01*
X2930141Y12979D01*
X2930457Y12751D01*
X2930767Y12515D01*
X2931071Y12272D01*
X2931369Y12021D01*
X2931661Y11763D01*
X2931946Y11497D01*
X2932225Y11225D01*
X2932497Y10946D01*
X2932763Y10661D01*
X2933021Y10369D01*
X2933272Y10071D01*
X2933515Y9767D01*
X2933751Y9457D01*
X2933979Y9141D01*
X2934200Y8820D01*
X2934412Y8493D01*
X2934616Y8161D01*
X2934813Y7825D01*
X2935001Y7483D01*
X2935180Y7138D01*
X2935351Y6787D01*
X2935513Y6433D01*
X2935667Y6075D01*
X2935811Y5713D01*
X2935947Y5348D01*
X2936074Y4980D01*
X2936191Y4608D01*
X2936300Y4234D01*
X2936399Y3857D01*
X2936489Y3478D01*
X2936570Y3097D01*
X2936641Y2714D01*
X2936703Y2329D01*
X2936756Y1943D01*
X2936799Y1556D01*
X2936832Y1168D01*
X2936856Y779D01*
X2936870Y390D01*
X2936875Y0D01*
X2936870Y-390D01*
X2936856Y-779D01*
X2936832Y-1168D01*
X2936799Y-1556D01*
X2936756Y-1943D01*
X2936703Y-2329D01*
X2936641Y-2714D01*
X2936570Y-3097D01*
X2936489Y-3478D01*
X2936399Y-3857D01*
X2936300Y-4234D01*
X2936191Y-4608D01*
X2936074Y-4980D01*
X2935947Y-5348D01*
X2935811Y-5713D01*
X2935667Y-6075D01*
X2935513Y-6433D01*
X2935351Y-6787D01*
X2935180Y-7138D01*
X2935001Y-7483D01*
X2934813Y-7825D01*
X2934616Y-8161D01*
X2934412Y-8493D01*
X2934200Y-8820D01*
X2933979Y-9141D01*
X2933751Y-9457D01*
X2933515Y-9767D01*
X2933272Y-10071D01*
X2933021Y-10369D01*
X2932763Y-10661D01*
X2932497Y-10946D01*
X2932225Y-11225D01*
X2931946Y-11497D01*
X2931661Y-11763D01*
X2931369Y-12021D01*
X2931071Y-12272D01*
X2930767Y-12515D01*
X2930457Y-12751D01*
X2930141Y-12979D01*
X2929820Y-13200D01*
X2929493Y-13412D01*
X2929161Y-13616D01*
X2928825Y-13813D01*
X2928483Y-14001D01*
X2928138Y-14180D01*
X2927787Y-14351D01*
X2927433Y-14513D01*
X2927075Y-14667D01*
X2926713Y-14811D01*
X2926348Y-14947D01*
X2925980Y-15074D01*
X2925608Y-15191D01*
X2925234Y-15300D01*
X2924857Y-15399D01*
X2924478Y-15489D01*
X2924097Y-15570D01*
X2923714Y-15641D01*
X2923329Y-15703D01*
X2922943Y-15756D01*
X2922556Y-15799D01*
X2922168Y-15832D01*
X2921779Y-15856D01*
X2921390Y-15870D01*
X2921000Y-15875D01*
X2920610Y-15870D01*
X2920221Y-15856D01*
X2919832Y-15832D01*
X2919444Y-15799D01*
X2919057Y-15756D01*
X2918671Y-15703D01*
X2918286Y-15641D01*
X2917903Y-15570D01*
X2917522Y-15489D01*
X2917143Y-15399D01*
X2916766Y-15300D01*
X2916392Y-15191D01*
X2916020Y-15074D01*
X2915652Y-14947D01*
X2915287Y-14811D01*
X2914925Y-14667D01*
X2914567Y-14513D01*
X2914213Y-14351D01*
X2913862Y-14180D01*
X2913517Y-14001D01*
X2913175Y-13813D01*
X2912839Y-13616D01*
X2912507Y-13412D01*
X2912180Y-13200D01*
X2911859Y-12979D01*
X2911543Y-12751D01*
X2911233Y-12515D01*
X2910929Y-12272D01*
X2910631Y-12021D01*
X2910339Y-11763D01*
X2910054Y-11497D01*
X2909775Y-11225D01*
X2909503Y-10946D01*
X2909237Y-10661D01*
X2908979Y-10369D01*
X2908728Y-10071D01*
X2908485Y-9767D01*
X2908249Y-9457D01*
X2908021Y-9141D01*
X2907800Y-8820D01*
X2907588Y-8493D01*
X2907384Y-8161D01*
X2907187Y-7825D01*
X2906999Y-7483D01*
X2906820Y-7138D01*
X2906649Y-6787D01*
X2906487Y-6433D01*
X2906333Y-6075D01*
X2906189Y-5713D01*
X2906053Y-5348D01*
X2905926Y-4980D01*
X2905809Y-4608D01*
X2905700Y-4234D01*
X2905601Y-3857D01*
X2905511Y-3478D01*
X2905430Y-3097D01*
X2905359Y-2714D01*
X2905297Y-2329D01*
X2905244Y-1943D01*
X2905201Y-1556D01*
X2905168Y-1168D01*
X2905144Y-779D01*
X2905130Y-390D01*
X2905125Y0D01*
X-15875Y1511300D02*
X-15870Y1511690D01*
X-15856Y1512079D01*
X-15832Y1512468D01*
X-15799Y1512856D01*
X-15756Y1513243D01*
X-15703Y1513629D01*
X-15641Y1514014D01*
X-15570Y1514397D01*
X-15489Y1514778D01*
X-15399Y1515157D01*
X-15300Y1515534D01*
X-15191Y1515908D01*
X-15074Y1516280D01*
X-14947Y1516648D01*
X-14811Y1517013D01*
X-14667Y1517375D01*
X-14513Y1517733D01*
X-14351Y1518087D01*
X-14180Y1518438D01*
X-14001Y1518783D01*
X-13813Y1519125D01*
X-13616Y1519461D01*
X-13412Y1519793D01*
X-13200Y1520120D01*
X-12979Y1520441D01*
X-12751Y1520757D01*
X-12515Y1521067D01*
X-12272Y1521371D01*
X-12021Y1521669D01*
X-11763Y1521961D01*
X-11497Y1522246D01*
X-11225Y1522525D01*
X-10946Y1522797D01*
X-10661Y1523063D01*
X-10369Y1523321D01*
X-10071Y1523572D01*
X-9767Y1523815D01*
X-9457Y1524051D01*
X-9141Y1524279D01*
X-8820Y1524500D01*
X-8493Y1524712D01*
X-8161Y1524916D01*
X-7825Y1525113D01*
X-7483Y1525301D01*
X-7138Y1525480D01*
X-6787Y1525651D01*
X-6433Y1525813D01*
X-6075Y1525967D01*
X-5713Y1526111D01*
X-5348Y1526247D01*
X-4980Y1526374D01*
X-4608Y1526491D01*
X-4234Y1526600D01*
X-3857Y1526699D01*
X-3478Y1526789D01*
X-3097Y1526870D01*
X-2714Y1526941D01*
X-2329Y1527003D01*
X-1943Y1527056D01*
X-1556Y1527099D01*
X-1168Y1527132D01*
X-779Y1527156D01*
X-390Y1527170D01*
X0Y1527175D01*
X390Y1527170D01*
X779Y1527156D01*
X1168Y1527132D01*
X1556Y1527099D01*
X1943Y1527056D01*
X2329Y1527003D01*
X2714Y1526941D01*
X3097Y1526870D01*
X3478Y1526789D01*
X3857Y1526699D01*
X4234Y1526600D01*
X4608Y1526491D01*
X4980Y1526374D01*
X5348Y1526247D01*
X5713Y1526111D01*
X6075Y1525967D01*
X6433Y1525813D01*
X6787Y1525651D01*
X7138Y1525480D01*
X7483Y1525301D01*
X7825Y1525113D01*
X8161Y1524916D01*
X8493Y1524712D01*
X8820Y1524500D01*
X9141Y1524279D01*
X9457Y1524051D01*
X9767Y1523815D01*
X10071Y1523572D01*
X10369Y1523321D01*
X10661Y1523063D01*
X10946Y1522797D01*
X11225Y1522525D01*
X11497Y1522246D01*
X11763Y1521961D01*
X12021Y1521669D01*
X12272Y1521371D01*
X12515Y1521067D01*
X12751Y1520757D01*
X12979Y1520441D01*
X13200Y1520120D01*
X13412Y1519793D01*
X13616Y1519461D01*
X13813Y1519125D01*
X14001Y1518783D01*
X14180Y1518438D01*
X14351Y1518087D01*
X14513Y1517733D01*
X14667Y1517375D01*
X14811Y1517013D01*
X14947Y1516648D01*
X15074Y1516280D01*
X15191Y1515908D01*
X15300Y1515534D01*
X15399Y1515157D01*
X15489Y1514778D01*
X15570Y1514397D01*
X15641Y1514014D01*
X15703Y1513629D01*
X15756Y1513243D01*
X15799Y1512856D01*
X15832Y1512468D01*
X15856Y1512079D01*
X15870Y1511690D01*
X15875Y1511300D01*
X15870Y1510910D01*
X15856Y1510521D01*
X15832Y1510132D01*
X15799Y1509744D01*
X15756Y1509357D01*
X15703Y1508971D01*
X15641Y1508586D01*
X15570Y1508203D01*
X15489Y1507822D01*
X15399Y1507443D01*
X15300Y1507066D01*
X15191Y1506692D01*
X15074Y1506320D01*
X14947Y1505952D01*
X14811Y1505587D01*
X14667Y1505225D01*
X14513Y1504867D01*
X14351Y1504513D01*
X14180Y1504162D01*
X14001Y1503817D01*
X13813Y1503475D01*
X13616Y1503139D01*
X13412Y1502807D01*
X13200Y1502480D01*
X12979Y1502159D01*
X12751Y1501843D01*
X12515Y1501533D01*
X12272Y1501229D01*
X12021Y1500931D01*
X11763Y1500639D01*
X11497Y1500354D01*
X11225Y1500075D01*
X10946Y1499803D01*
X10661Y1499537D01*
X10369Y1499279D01*
X10071Y1499028D01*
X9767Y1498785D01*
X9457Y1498549D01*
X9141Y1498321D01*
X8820Y1498100D01*
X8493Y1497888D01*
X8161Y1497684D01*
X7825Y1497487D01*
X7483Y1497299D01*
X7138Y1497120D01*
X6787Y1496949D01*
X6433Y1496787D01*
X6075Y1496633D01*
X5713Y1496489D01*
X5348Y1496353D01*
X4980Y1496226D01*
X4608Y1496109D01*
X4234Y1496000D01*
X3857Y1495901D01*
X3478Y1495811D01*
X3097Y1495730D01*
X2714Y1495659D01*
X2329Y1495597D01*
X1943Y1495544D01*
X1556Y1495501D01*
X1168Y1495468D01*
X779Y1495444D01*
X390Y1495430D01*
X0Y1495425D01*
X-390Y1495430D01*
X-779Y1495444D01*
X-1168Y1495468D01*
X-1556Y1495501D01*
X-1943Y1495544D01*
X-2329Y1495597D01*
X-2714Y1495659D01*
X-3097Y1495730D01*
X-3478Y1495811D01*
X-3857Y1495901D01*
X-4234Y1496000D01*
X-4608Y1496109D01*
X-4980Y1496226D01*
X-5348Y1496353D01*
X-5713Y1496489D01*
X-6075Y1496633D01*
X-6433Y1496787D01*
X-6787Y1496949D01*
X-7138Y1497120D01*
X-7483Y1497299D01*
X-7825Y1497487D01*
X-8161Y1497684D01*
X-8493Y1497888D01*
X-8820Y1498100D01*
X-9141Y1498321D01*
X-9457Y1498549D01*
X-9767Y1498785D01*
X-10071Y1499028D01*
X-10369Y1499279D01*
X-10661Y1499537D01*
X-10946Y1499803D01*
X-11225Y1500075D01*
X-11497Y1500354D01*
X-11763Y1500639D01*
X-12021Y1500931D01*
X-12272Y1501229D01*
X-12515Y1501533D01*
X-12751Y1501843D01*
X-12979Y1502159D01*
X-13200Y1502480D01*
X-13412Y1502807D01*
X-13616Y1503139D01*
X-13813Y1503475D01*
X-14001Y1503817D01*
X-14180Y1504162D01*
X-14351Y1504513D01*
X-14513Y1504867D01*
X-14667Y1505225D01*
X-14811Y1505587D01*
X-14947Y1505952D01*
X-15074Y1506320D01*
X-15191Y1506692D01*
X-15300Y1507066D01*
X-15399Y1507443D01*
X-15489Y1507822D01*
X-15570Y1508203D01*
X-15641Y1508586D01*
X-15703Y1508971D01*
X-15756Y1509357D01*
X-15799Y1509744D01*
X-15832Y1510132D01*
X-15856Y1510521D01*
X-15870Y1510910D01*
X-15875Y1511300D01*
X2905125Y1511300D02*
X2905130Y1511690D01*
X2905144Y1512079D01*
X2905168Y1512468D01*
X2905201Y1512856D01*
X2905244Y1513243D01*
X2905297Y1513629D01*
X2905359Y1514014D01*
X2905430Y1514397D01*
X2905511Y1514778D01*
X2905601Y1515157D01*
X2905700Y1515534D01*
X2905809Y1515908D01*
X2905926Y1516280D01*
X2906053Y1516648D01*
X2906189Y1517013D01*
X2906333Y1517375D01*
X2906487Y1517733D01*
X2906649Y1518087D01*
X2906820Y1518438D01*
X2906999Y1518783D01*
X2907187Y1519125D01*
X2907384Y1519461D01*
X2907588Y1519793D01*
X2907800Y1520120D01*
X2908021Y1520441D01*
X2908249Y1520757D01*
X2908485Y1521067D01*
X2908728Y1521371D01*
X2908979Y1521669D01*
X2909237Y1521961D01*
X2909503Y1522246D01*
X2909775Y1522525D01*
X2910054Y1522797D01*
X2910339Y1523063D01*
X2910631Y1523321D01*
X2910929Y1523572D01*
X2911233Y1523815D01*
X2911543Y1524051D01*
X2911859Y1524279D01*
X2912180Y1524500D01*
X2912507Y1524712D01*
X2912839Y1524916D01*
X2913175Y1525113D01*
X2913517Y1525301D01*
X2913862Y1525480D01*
X2914213Y1525651D01*
X2914567Y1525813D01*
X2914925Y1525967D01*
X2915287Y1526111D01*
X2915652Y1526247D01*
X2916020Y1526374D01*
X2916392Y1526491D01*
X2916766Y1526600D01*
X2917143Y1526699D01*
X2917522Y1526789D01*
X2917903Y1526870D01*
X2918286Y1526941D01*
X2918671Y1527003D01*
X2919057Y1527056D01*
X2919444Y1527099D01*
X2919832Y1527132D01*
X2920221Y1527156D01*
X2920610Y1527170D01*
X2921000Y1527175D01*
X2921390Y1527170D01*
X2921779Y1527156D01*
X2922168Y1527132D01*
X2922556Y1527099D01*
X2922943Y1527056D01*
X2923329Y1527003D01*
X2923714Y1526941D01*
X2924097Y1526870D01*
X2924478Y1526789D01*
X2924857Y1526699D01*
X2925234Y1526600D01*
X2925608Y1526491D01*
X2925980Y1526374D01*
X2926348Y1526247D01*
X2926713Y1526111D01*
X2927075Y1525967D01*
X2927433Y1525813D01*
X2927787Y1525651D01*
X2928138Y1525480D01*
X2928483Y1525301D01*
X2928825Y1525113D01*
X2929161Y1524916D01*
X2929493Y1524712D01*
X2929820Y1524500D01*
X2930141Y1524279D01*
X2930457Y1524051D01*
X2930767Y1523815D01*
X2931071Y1523572D01*
X2931369Y1523321D01*
X2931661Y1523063D01*
X2931946Y1522797D01*
X2932225Y1522525D01*
X2932497Y1522246D01*
X2932763Y1521961D01*
X2933021Y1521669D01*
X2933272Y1521371D01*
X2933515Y1521067D01*
X2933751Y1520757D01*
X2933979Y1520441D01*
X2934200Y1520120D01*
X2934412Y1519793D01*
X2934616Y1519461D01*
X2934813Y1519125D01*
X2935001Y1518783D01*
X2935180Y1518438D01*
X2935351Y1518087D01*
X2935513Y1517733D01*
X2935667Y1517375D01*
X2935811Y1517013D01*
X2935947Y1516648D01*
X2936074Y1516280D01*
X2936191Y1515908D01*
X2936300Y1515534D01*
X2936399Y1515157D01*
X2936489Y1514778D01*
X2936570Y1514397D01*
X2936641Y1514014D01*
X2936703Y1513629D01*
X2936756Y1513243D01*
X2936799Y1512856D01*
X2936832Y1512468D01*
X2936856Y1512079D01*
X2936870Y1511690D01*
X2936875Y1511300D01*
X2936870Y1510910D01*
X2936856Y1510521D01*
X2936832Y1510132D01*
X2936799Y1509744D01*
X2936756Y1509357D01*
X2936703Y1508971D01*
X2936641Y1508586D01*
X2936570Y1508203D01*
X2936489Y1507822D01*
X2936399Y1507443D01*
X2936300Y1507066D01*
X2936191Y1506692D01*
X2936074Y1506320D01*
X2935947Y1505952D01*
X2935811Y1505587D01*
X2935667Y1505225D01*
X2935513Y1504867D01*
X2935351Y1504513D01*
X2935180Y1504162D01*
X2935001Y1503817D01*
X2934813Y1503475D01*
X2934616Y1503139D01*
X2934412Y1502807D01*
X2934200Y1502480D01*
X2933979Y1502159D01*
X2933751Y1501843D01*
X2933515Y1501533D01*
X2933272Y1501229D01*
X2933021Y1500931D01*
X2932763Y1500639D01*
X2932497Y1500354D01*
X2932225Y1500075D01*
X2931946Y1499803D01*
X2931661Y1499537D01*
X2931369Y1499279D01*
X2931071Y1499028D01*
X2930767Y1498785D01*
X2930457Y1498549D01*
X2930141Y1498321D01*
X2929820Y1498100D01*
X2929493Y1497888D01*
X2929161Y1497684D01*
X2928825Y1497487D01*
X2928483Y1497299D01*
X2928138Y1497120D01*
X2927787Y1496949D01*
X2927433Y1496787D01*
X2927075Y1496633D01*
X2926713Y1496489D01*
X2926348Y1496353D01*
X2925980Y1496226D01*
X2925608Y1496109D01*
X2925234Y1496000D01*
X2924857Y1495901D01*
X2924478Y1495811D01*
X2924097Y1495730D01*
X2923714Y1495659D01*
X2923329Y1495597D01*
X2922943Y1495544D01*
X2922556Y1495501D01*
X2922168Y1495468D01*
X2921779Y1495444D01*
X2921390Y1495430D01*
X2921000Y1495425D01*
X2920610Y1495430D01*
X2920221Y1495444D01*
X2919832Y1495468D01*
X2919444Y1495501D01*
X2919057Y1495544D01*
X2918671Y1495597D01*
X2918286Y1495659D01*
X2917903Y1495730D01*
X2917522Y1495811D01*
X2917143Y1495901D01*
X2916766Y1496000D01*
X2916392Y1496109D01*
X2916020Y1496226D01*
X2915652Y1496353D01*
X2915287Y1496489D01*
X2914925Y1496633D01*
X2914567Y1496787D01*
X2914213Y1496949D01*
X2913862Y1497120D01*
X2913517Y1497299D01*
X2913175Y1497487D01*
X2912839Y1497684D01*
X2912507Y1497888D01*
X2912180Y1498100D01*
X2911859Y1498321D01*
X2911543Y1498549D01*
X2911233Y1498785D01*
X2910929Y1499028D01*
X2910631Y1499279D01*
X2910339Y1499537D01*
X2910054Y1499803D01*
X2909775Y1500075D01*
X2909503Y1500354D01*
X2909237Y1500639D01*
X2908979Y1500931D01*
X2908728Y1501229D01*
X2908485Y1501533D01*
X2908249Y1501843D01*
X2908021Y1502159D01*
X2907800Y1502480D01*
X2907588Y1502807D01*
X2907384Y1503139D01*
X2907187Y1503475D01*
X2906999Y1503817D01*
X2906820Y1504162D01*
X2906649Y1504513D01*
X2906487Y1504867D01*
X2906333Y1505225D01*
X2906189Y1505587D01*
X2906053Y1505952D01*
X2905926Y1506320D01*
X2905809Y1506692D01*
X2905700Y1507066D01*
X2905601Y1507443D01*
X2905511Y1507822D01*
X2905430Y1508203D01*
X2905359Y1508586D01*
X2905297Y1508971D01*
X2905244Y1509357D01*
X2905201Y1509744D01*
X2905168Y1510132D01*
X2905144Y1510521D01*
X2905130Y1510910D01*
X2905125Y1511300D01*
X1863725Y1092200D02*
X1863730Y1092590D01*
X1863744Y1092979D01*
X1863768Y1093368D01*
X1863801Y1093756D01*
X1863844Y1094143D01*
X1863897Y1094529D01*
X1863959Y1094914D01*
X1864030Y1095297D01*
X1864111Y1095678D01*
X1864201Y1096057D01*
X1864300Y1096434D01*
X1864409Y1096808D01*
X1864526Y1097180D01*
X1864653Y1097548D01*
X1864789Y1097913D01*
X1864933Y1098275D01*
X1865087Y1098633D01*
X1865249Y1098987D01*
X1865420Y1099338D01*
X1865599Y1099683D01*
X1865787Y1100025D01*
X1865984Y1100361D01*
X1866188Y1100693D01*
X1866400Y1101020D01*
X1866621Y1101341D01*
X1866849Y1101657D01*
X1867085Y1101967D01*
X1867328Y1102271D01*
X1867579Y1102569D01*
X1867837Y1102861D01*
X1868103Y1103146D01*
X1868375Y1103425D01*
X1868654Y1103697D01*
X1868939Y1103963D01*
X1869231Y1104221D01*
X1869529Y1104472D01*
X1869833Y1104715D01*
X1870143Y1104951D01*
X1870459Y1105179D01*
X1870780Y1105400D01*
X1871107Y1105612D01*
X1871439Y1105816D01*
X1871775Y1106013D01*
X1872117Y1106201D01*
X1872462Y1106380D01*
X1872813Y1106551D01*
X1873167Y1106713D01*
X1873525Y1106867D01*
X1873887Y1107011D01*
X1874252Y1107147D01*
X1874620Y1107274D01*
X1874992Y1107391D01*
X1875366Y1107500D01*
X1875743Y1107599D01*
X1876122Y1107689D01*
X1876503Y1107770D01*
X1876886Y1107841D01*
X1877271Y1107903D01*
X1877657Y1107956D01*
X1878044Y1107999D01*
X1878432Y1108032D01*
X1878821Y1108056D01*
X1879210Y1108070D01*
X1879600Y1108075D01*
X1879990Y1108070D01*
X1880379Y1108056D01*
X1880768Y1108032D01*
X1881156Y1107999D01*
X1881543Y1107956D01*
X1881929Y1107903D01*
X1882314Y1107841D01*
X1882697Y1107770D01*
X1883078Y1107689D01*
X1883457Y1107599D01*
X1883834Y1107500D01*
X1884208Y1107391D01*
X1884580Y1107274D01*
X1884948Y1107147D01*
X1885313Y1107011D01*
X1885675Y1106867D01*
X1886033Y1106713D01*
X1886387Y1106551D01*
X1886738Y1106380D01*
X1887083Y1106201D01*
X1887425Y1106013D01*
X1887761Y1105816D01*
X1888093Y1105612D01*
X1888420Y1105400D01*
X1888741Y1105179D01*
X1889057Y1104951D01*
X1889367Y1104715D01*
X1889671Y1104472D01*
X1889969Y1104221D01*
X1890261Y1103963D01*
X1890546Y1103697D01*
X1890825Y1103425D01*
X1891097Y1103146D01*
X1891363Y1102861D01*
X1891621Y1102569D01*
X1891872Y1102271D01*
X1892115Y1101967D01*
X1892351Y1101657D01*
X1892579Y1101341D01*
X1892800Y1101020D01*
X1893012Y1100693D01*
X1893216Y1100361D01*
X1893413Y1100025D01*
X1893601Y1099683D01*
X1893780Y1099338D01*
X1893951Y1098987D01*
X1894113Y1098633D01*
X1894267Y1098275D01*
X1894411Y1097913D01*
X1894547Y1097548D01*
X1894674Y1097180D01*
X1894791Y1096808D01*
X1894900Y1096434D01*
X1894999Y1096057D01*
X1895089Y1095678D01*
X1895170Y1095297D01*
X1895241Y1094914D01*
X1895303Y1094529D01*
X1895356Y1094143D01*
X1895399Y1093756D01*
X1895432Y1093368D01*
X1895456Y1092979D01*
X1895470Y1092590D01*
X1895475Y1092200D01*
X1895470Y1091810D01*
X1895456Y1091421D01*
X1895432Y1091032D01*
X1895399Y1090644D01*
X1895356Y1090257D01*
X1895303Y1089871D01*
X1895241Y1089486D01*
X1895170Y1089103D01*
X1895089Y1088722D01*
X1894999Y1088343D01*
X1894900Y1087966D01*
X1894791Y1087592D01*
X1894674Y1087220D01*
X1894547Y1086852D01*
X1894411Y1086487D01*
X1894267Y1086125D01*
X1894113Y1085767D01*
X1893951Y1085413D01*
X1893780Y1085062D01*
X1893601Y1084717D01*
X1893413Y1084375D01*
X1893216Y1084039D01*
X1893012Y1083707D01*
X1892800Y1083380D01*
X1892579Y1083059D01*
X1892351Y1082743D01*
X1892115Y1082433D01*
X1891872Y1082129D01*
X1891621Y1081831D01*
X1891363Y1081539D01*
X1891097Y1081254D01*
X1890825Y1080975D01*
X1890546Y1080703D01*
X1890261Y1080437D01*
X1889969Y1080179D01*
X1889671Y1079928D01*
X1889367Y1079685D01*
X1889057Y1079449D01*
X1888741Y1079221D01*
X1888420Y1079000D01*
X1888093Y1078788D01*
X1887761Y1078584D01*
X1887425Y1078387D01*
X1887083Y1078199D01*
X1886738Y1078020D01*
X1886387Y1077849D01*
X1886033Y1077687D01*
X1885675Y1077533D01*
X1885313Y1077389D01*
X1884948Y1077253D01*
X1884580Y1077126D01*
X1884208Y1077009D01*
X1883834Y1076900D01*
X1883457Y1076801D01*
X1883078Y1076711D01*
X1882697Y1076630D01*
X1882314Y1076559D01*
X1881929Y1076497D01*
X1881543Y1076444D01*
X1881156Y1076401D01*
X1880768Y1076368D01*
X1880379Y1076344D01*
X1879990Y1076330D01*
X1879600Y1076325D01*
X1879210Y1076330D01*
X1878821Y1076344D01*
X1878432Y1076368D01*
X1878044Y1076401D01*
X1877657Y1076444D01*
X1877271Y1076497D01*
X1876886Y1076559D01*
X1876503Y1076630D01*
X1876122Y1076711D01*
X1875743Y1076801D01*
X1875366Y1076900D01*
X1874992Y1077009D01*
X1874620Y1077126D01*
X1874252Y1077253D01*
X1873887Y1077389D01*
X1873525Y1077533D01*
X1873167Y1077687D01*
X1872813Y1077849D01*
X1872462Y1078020D01*
X1872117Y1078199D01*
X1871775Y1078387D01*
X1871439Y1078584D01*
X1871107Y1078788D01*
X1870780Y1079000D01*
X1870459Y1079221D01*
X1870143Y1079449D01*
X1869833Y1079685D01*
X1869529Y1079928D01*
X1869231Y1080179D01*
X1868939Y1080437D01*
X1868654Y1080703D01*
X1868375Y1080975D01*
X1868103Y1081254D01*
X1867837Y1081539D01*
X1867579Y1081831D01*
X1867328Y1082129D01*
X1867085Y1082433D01*
X1866849Y1082743D01*
X1866621Y1083059D01*
X1866400Y1083380D01*
X1866188Y1083707D01*
X1865984Y1084039D01*
X1865787Y1084375D01*
X1865599Y1084717D01*
X1865420Y1085062D01*
X1865249Y1085413D01*
X1865087Y1085767D01*
X1864933Y1086125D01*
X1864789Y1086487D01*
X1864653Y1086852D01*
X1864526Y1087220D01*
X1864409Y1087592D01*
X1864300Y1087966D01*
X1864201Y1088343D01*
X1864111Y1088722D01*
X1864030Y1089103D01*
X1863959Y1089486D01*
X1863897Y1089871D01*
X1863844Y1090257D01*
X1863801Y1090644D01*
X1863768Y1091032D01*
X1863744Y1091421D01*
X1863730Y1091810D01*
X1863725Y1092200D01*
X2494788Y1422400D02*
X2494794Y1422886D01*
X2494812Y1423372D01*
X2494842Y1423857D01*
X2494883Y1424342D01*
X2494937Y1424825D01*
X2495002Y1425307D01*
X2495080Y1425787D01*
X2495169Y1426265D01*
X2495269Y1426741D01*
X2495382Y1427214D01*
X2495506Y1427684D01*
X2495641Y1428151D01*
X2495788Y1428615D01*
X2495946Y1429074D01*
X2496116Y1429530D01*
X2496296Y1429982D01*
X2496488Y1430429D01*
X2496690Y1430871D01*
X2496903Y1431308D01*
X2497127Y1431739D01*
X2497362Y1432165D01*
X2497607Y1432585D01*
X2497862Y1432999D01*
X2498127Y1433407D01*
X2498402Y1433808D01*
X2498687Y1434202D01*
X2498981Y1434589D01*
X2499285Y1434969D01*
X2499598Y1435341D01*
X2499920Y1435705D01*
X2500251Y1436061D01*
X2500591Y1436409D01*
X2500939Y1436749D01*
X2501295Y1437080D01*
X2501659Y1437402D01*
X2502031Y1437715D01*
X2502411Y1438019D01*
X2502798Y1438313D01*
X2503192Y1438598D01*
X2503593Y1438873D01*
X2504001Y1439138D01*
X2504415Y1439393D01*
X2504835Y1439638D01*
X2505261Y1439873D01*
X2505692Y1440097D01*
X2506129Y1440310D01*
X2506571Y1440512D01*
X2507018Y1440704D01*
X2507470Y1440884D01*
X2507926Y1441054D01*
X2508385Y1441212D01*
X2508849Y1441359D01*
X2509316Y1441494D01*
X2509786Y1441618D01*
X2510259Y1441731D01*
X2510735Y1441831D01*
X2511213Y1441920D01*
X2511693Y1441998D01*
X2512175Y1442063D01*
X2512658Y1442117D01*
X2513143Y1442158D01*
X2513628Y1442188D01*
X2514114Y1442206D01*
X2514600Y1442212D01*
X2515086Y1442206D01*
X2515572Y1442188D01*
X2516057Y1442158D01*
X2516542Y1442117D01*
X2517025Y1442063D01*
X2517507Y1441998D01*
X2517987Y1441920D01*
X2518465Y1441831D01*
X2518941Y1441731D01*
X2519414Y1441618D01*
X2519884Y1441494D01*
X2520351Y1441359D01*
X2520815Y1441212D01*
X2521274Y1441054D01*
X2521730Y1440884D01*
X2522182Y1440704D01*
X2522629Y1440512D01*
X2523071Y1440310D01*
X2523508Y1440097D01*
X2523939Y1439873D01*
X2524365Y1439638D01*
X2524785Y1439393D01*
X2525199Y1439138D01*
X2525607Y1438873D01*
X2526008Y1438598D01*
X2526402Y1438313D01*
X2526789Y1438019D01*
X2527169Y1437715D01*
X2527541Y1437402D01*
X2527905Y1437080D01*
X2528261Y1436749D01*
X2528609Y1436409D01*
X2528949Y1436061D01*
X2529280Y1435705D01*
X2529602Y1435341D01*
X2529915Y1434969D01*
X2530219Y1434589D01*
X2530513Y1434202D01*
X2530798Y1433808D01*
X2531073Y1433407D01*
X2531338Y1432999D01*
X2531593Y1432585D01*
X2531838Y1432165D01*
X2532073Y1431739D01*
X2532297Y1431308D01*
X2532510Y1430871D01*
X2532712Y1430429D01*
X2532904Y1429982D01*
X2533084Y1429530D01*
X2533254Y1429074D01*
X2533412Y1428615D01*
X2533559Y1428151D01*
X2533694Y1427684D01*
X2533818Y1427214D01*
X2533931Y1426741D01*
X2534031Y1426265D01*
X2534120Y1425787D01*
X2534198Y1425307D01*
X2534263Y1424825D01*
X2534317Y1424342D01*
X2534358Y1423857D01*
X2534388Y1423372D01*
X2534406Y1422886D01*
X2534412Y1422400D01*
X2534406Y1421914D01*
X2534388Y1421428D01*
X2534358Y1420943D01*
X2534317Y1420458D01*
X2534263Y1419975D01*
X2534198Y1419493D01*
X2534120Y1419013D01*
X2534031Y1418535D01*
X2533931Y1418059D01*
X2533818Y1417586D01*
X2533694Y1417116D01*
X2533559Y1416649D01*
X2533412Y1416185D01*
X2533254Y1415726D01*
X2533084Y1415270D01*
X2532904Y1414818D01*
X2532712Y1414371D01*
X2532510Y1413929D01*
X2532297Y1413492D01*
X2532073Y1413061D01*
X2531838Y1412635D01*
X2531593Y1412215D01*
X2531338Y1411801D01*
X2531073Y1411393D01*
X2530798Y1410992D01*
X2530513Y1410598D01*
X2530219Y1410211D01*
X2529915Y1409831D01*
X2529602Y1409459D01*
X2529280Y1409095D01*
X2528949Y1408739D01*
X2528609Y1408391D01*
X2528261Y1408051D01*
X2527905Y1407720D01*
X2527541Y1407398D01*
X2527169Y1407085D01*
X2526789Y1406781D01*
X2526402Y1406487D01*
X2526008Y1406202D01*
X2525607Y1405927D01*
X2525199Y1405662D01*
X2524785Y1405407D01*
X2524365Y1405162D01*
X2523939Y1404927D01*
X2523508Y1404703D01*
X2523071Y1404490D01*
X2522629Y1404288D01*
X2522182Y1404096D01*
X2521730Y1403916D01*
X2521274Y1403746D01*
X2520815Y1403588D01*
X2520351Y1403441D01*
X2519884Y1403306D01*
X2519414Y1403182D01*
X2518941Y1403069D01*
X2518465Y1402969D01*
X2517987Y1402880D01*
X2517507Y1402802D01*
X2517025Y1402737D01*
X2516542Y1402683D01*
X2516057Y1402642D01*
X2515572Y1402612D01*
X2515086Y1402594D01*
X2514600Y1402588D01*
X2514114Y1402594D01*
X2513628Y1402612D01*
X2513143Y1402642D01*
X2512658Y1402683D01*
X2512175Y1402737D01*
X2511693Y1402802D01*
X2511213Y1402880D01*
X2510735Y1402969D01*
X2510259Y1403069D01*
X2509786Y1403182D01*
X2509316Y1403306D01*
X2508849Y1403441D01*
X2508385Y1403588D01*
X2507926Y1403746D01*
X2507470Y1403916D01*
X2507018Y1404096D01*
X2506571Y1404288D01*
X2506129Y1404490D01*
X2505692Y1404703D01*
X2505261Y1404927D01*
X2504835Y1405162D01*
X2504415Y1405407D01*
X2504001Y1405662D01*
X2503593Y1405927D01*
X2503192Y1406202D01*
X2502798Y1406487D01*
X2502411Y1406781D01*
X2502031Y1407085D01*
X2501659Y1407398D01*
X2501295Y1407720D01*
X2500939Y1408051D01*
X2500591Y1408391D01*
X2500251Y1408739D01*
X2499920Y1409095D01*
X2499598Y1409459D01*
X2499285Y1409831D01*
X2498981Y1410211D01*
X2498687Y1410598D01*
X2498402Y1410992D01*
X2498127Y1411393D01*
X2497862Y1411801D01*
X2497607Y1412215D01*
X2497362Y1412635D01*
X2497127Y1413061D01*
X2496903Y1413492D01*
X2496690Y1413929D01*
X2496488Y1414371D01*
X2496296Y1414818D01*
X2496116Y1415270D01*
X2495946Y1415726D01*
X2495788Y1416185D01*
X2495641Y1416649D01*
X2495506Y1417116D01*
X2495382Y1417586D01*
X2495269Y1418059D01*
X2495169Y1418535D01*
X2495080Y1419013D01*
X2495002Y1419493D01*
X2494937Y1419975D01*
X2494883Y1420458D01*
X2494842Y1420943D01*
X2494812Y1421428D01*
X2494794Y1421914D01*
X2494788Y1422400D01*
X1529588Y1422400D02*
X1529594Y1422886D01*
X1529612Y1423372D01*
X1529642Y1423857D01*
X1529683Y1424342D01*
X1529737Y1424825D01*
X1529802Y1425307D01*
X1529880Y1425787D01*
X1529969Y1426265D01*
X1530069Y1426741D01*
X1530182Y1427214D01*
X1530306Y1427684D01*
X1530441Y1428151D01*
X1530588Y1428615D01*
X1530746Y1429074D01*
X1530916Y1429530D01*
X1531096Y1429982D01*
X1531288Y1430429D01*
X1531490Y1430871D01*
X1531703Y1431308D01*
X1531927Y1431739D01*
X1532162Y1432165D01*
X1532407Y1432585D01*
X1532662Y1432999D01*
X1532927Y1433407D01*
X1533202Y1433808D01*
X1533487Y1434202D01*
X1533781Y1434589D01*
X1534085Y1434969D01*
X1534398Y1435341D01*
X1534720Y1435705D01*
X1535051Y1436061D01*
X1535391Y1436409D01*
X1535739Y1436749D01*
X1536095Y1437080D01*
X1536459Y1437402D01*
X1536831Y1437715D01*
X1537211Y1438019D01*
X1537598Y1438313D01*
X1537992Y1438598D01*
X1538393Y1438873D01*
X1538801Y1439138D01*
X1539215Y1439393D01*
X1539635Y1439638D01*
X1540061Y1439873D01*
X1540492Y1440097D01*
X1540929Y1440310D01*
X1541371Y1440512D01*
X1541818Y1440704D01*
X1542270Y1440884D01*
X1542726Y1441054D01*
X1543185Y1441212D01*
X1543649Y1441359D01*
X1544116Y1441494D01*
X1544586Y1441618D01*
X1545059Y1441731D01*
X1545535Y1441831D01*
X1546013Y1441920D01*
X1546493Y1441998D01*
X1546975Y1442063D01*
X1547458Y1442117D01*
X1547943Y1442158D01*
X1548428Y1442188D01*
X1548914Y1442206D01*
X1549400Y1442212D01*
X1549886Y1442206D01*
X1550372Y1442188D01*
X1550857Y1442158D01*
X1551342Y1442117D01*
X1551825Y1442063D01*
X1552307Y1441998D01*
X1552787Y1441920D01*
X1553265Y1441831D01*
X1553741Y1441731D01*
X1554214Y1441618D01*
X1554684Y1441494D01*
X1555151Y1441359D01*
X1555615Y1441212D01*
X1556074Y1441054D01*
X1556530Y1440884D01*
X1556982Y1440704D01*
X1557429Y1440512D01*
X1557871Y1440310D01*
X1558308Y1440097D01*
X1558739Y1439873D01*
X1559165Y1439638D01*
X1559585Y1439393D01*
X1559999Y1439138D01*
X1560407Y1438873D01*
X1560808Y1438598D01*
X1561202Y1438313D01*
X1561589Y1438019D01*
X1561969Y1437715D01*
X1562341Y1437402D01*
X1562705Y1437080D01*
X1563061Y1436749D01*
X1563409Y1436409D01*
X1563749Y1436061D01*
X1564080Y1435705D01*
X1564402Y1435341D01*
X1564715Y1434969D01*
X1565019Y1434589D01*
X1565313Y1434202D01*
X1565598Y1433808D01*
X1565873Y1433407D01*
X1566138Y1432999D01*
X1566393Y1432585D01*
X1566638Y1432165D01*
X1566873Y1431739D01*
X1567097Y1431308D01*
X1567310Y1430871D01*
X1567512Y1430429D01*
X1567704Y1429982D01*
X1567884Y1429530D01*
X1568054Y1429074D01*
X1568212Y1428615D01*
X1568359Y1428151D01*
X1568494Y1427684D01*
X1568618Y1427214D01*
X1568731Y1426741D01*
X1568831Y1426265D01*
X1568920Y1425787D01*
X1568998Y1425307D01*
X1569063Y1424825D01*
X1569117Y1424342D01*
X1569158Y1423857D01*
X1569188Y1423372D01*
X1569206Y1422886D01*
X1569212Y1422400D01*
X1569206Y1421914D01*
X1569188Y1421428D01*
X1569158Y1420943D01*
X1569117Y1420458D01*
X1569063Y1419975D01*
X1568998Y1419493D01*
X1568920Y1419013D01*
X1568831Y1418535D01*
X1568731Y1418059D01*
X1568618Y1417586D01*
X1568494Y1417116D01*
X1568359Y1416649D01*
X1568212Y1416185D01*
X1568054Y1415726D01*
X1567884Y1415270D01*
X1567704Y1414818D01*
X1567512Y1414371D01*
X1567310Y1413929D01*
X1567097Y1413492D01*
X1566873Y1413061D01*
X1566638Y1412635D01*
X1566393Y1412215D01*
X1566138Y1411801D01*
X1565873Y1411393D01*
X1565598Y1410992D01*
X1565313Y1410598D01*
X1565019Y1410211D01*
X1564715Y1409831D01*
X1564402Y1409459D01*
X1564080Y1409095D01*
X1563749Y1408739D01*
X1563409Y1408391D01*
X1563061Y1408051D01*
X1562705Y1407720D01*
X1562341Y1407398D01*
X1561969Y1407085D01*
X1561589Y1406781D01*
X1561202Y1406487D01*
X1560808Y1406202D01*
X1560407Y1405927D01*
X1559999Y1405662D01*
X1559585Y1405407D01*
X1559165Y1405162D01*
X1558739Y1404927D01*
X1558308Y1404703D01*
X1557871Y1404490D01*
X1557429Y1404288D01*
X1556982Y1404096D01*
X1556530Y1403916D01*
X1556074Y1403746D01*
X1555615Y1403588D01*
X1555151Y1403441D01*
X1554684Y1403306D01*
X1554214Y1403182D01*
X1553741Y1403069D01*
X1553265Y1402969D01*
X1552787Y1402880D01*
X1552307Y1402802D01*
X1551825Y1402737D01*
X1551342Y1402683D01*
X1550857Y1402642D01*
X1550372Y1402612D01*
X1549886Y1402594D01*
X1549400Y1402588D01*
X1548914Y1402594D01*
X1548428Y1402612D01*
X1547943Y1402642D01*
X1547458Y1402683D01*
X1546975Y1402737D01*
X1546493Y1402802D01*
X1546013Y1402880D01*
X1545535Y1402969D01*
X1545059Y1403069D01*
X1544586Y1403182D01*
X1544116Y1403306D01*
X1543649Y1403441D01*
X1543185Y1403588D01*
X1542726Y1403746D01*
X1542270Y1403916D01*
X1541818Y1404096D01*
X1541371Y1404288D01*
X1540929Y1404490D01*
X1540492Y1404703D01*
X1540061Y1404927D01*
X1539635Y1405162D01*
X1539215Y1405407D01*
X1538801Y1405662D01*
X1538393Y1405927D01*
X1537992Y1406202D01*
X1537598Y1406487D01*
X1537211Y1406781D01*
X1536831Y1407085D01*
X1536459Y1407398D01*
X1536095Y1407720D01*
X1535739Y1408051D01*
X1535391Y1408391D01*
X1535051Y1408739D01*
X1534720Y1409095D01*
X1534398Y1409459D01*
X1534085Y1409831D01*
X1533781Y1410211D01*
X1533487Y1410598D01*
X1533202Y1410992D01*
X1532927Y1411393D01*
X1532662Y1411801D01*
X1532407Y1412215D01*
X1532162Y1412635D01*
X1531927Y1413061D01*
X1531703Y1413492D01*
X1531490Y1413929D01*
X1531288Y1414371D01*
X1531096Y1414818D01*
X1530916Y1415270D01*
X1530746Y1415726D01*
X1530588Y1416185D01*
X1530441Y1416649D01*
X1530306Y1417116D01*
X1530182Y1417586D01*
X1530069Y1418059D01*
X1529969Y1418535D01*
X1529880Y1419013D01*
X1529802Y1419493D01*
X1529737Y1419975D01*
X1529683Y1420458D01*
X1529642Y1420943D01*
X1529612Y1421428D01*
X1529594Y1421914D01*
X1529588Y1422400D01*
X2824988Y1092200D02*
X2824994Y1092686D01*
X2825012Y1093172D01*
X2825042Y1093657D01*
X2825083Y1094142D01*
X2825137Y1094625D01*
X2825202Y1095107D01*
X2825280Y1095587D01*
X2825369Y1096065D01*
X2825469Y1096541D01*
X2825582Y1097014D01*
X2825706Y1097484D01*
X2825841Y1097951D01*
X2825988Y1098415D01*
X2826146Y1098874D01*
X2826316Y1099330D01*
X2826496Y1099782D01*
X2826688Y1100229D01*
X2826890Y1100671D01*
X2827103Y1101108D01*
X2827327Y1101539D01*
X2827562Y1101965D01*
X2827807Y1102385D01*
X2828062Y1102799D01*
X2828327Y1103207D01*
X2828602Y1103608D01*
X2828887Y1104002D01*
X2829181Y1104389D01*
X2829485Y1104769D01*
X2829798Y1105141D01*
X2830120Y1105505D01*
X2830451Y1105861D01*
X2830791Y1106209D01*
X2831139Y1106549D01*
X2831495Y1106880D01*
X2831859Y1107202D01*
X2832231Y1107515D01*
X2832611Y1107819D01*
X2832998Y1108113D01*
X2833392Y1108398D01*
X2833793Y1108673D01*
X2834201Y1108938D01*
X2834615Y1109193D01*
X2835035Y1109438D01*
X2835461Y1109673D01*
X2835892Y1109897D01*
X2836329Y1110110D01*
X2836771Y1110312D01*
X2837218Y1110504D01*
X2837670Y1110684D01*
X2838126Y1110854D01*
X2838585Y1111012D01*
X2839049Y1111159D01*
X2839516Y1111294D01*
X2839986Y1111418D01*
X2840459Y1111531D01*
X2840935Y1111631D01*
X2841413Y1111720D01*
X2841893Y1111798D01*
X2842375Y1111863D01*
X2842858Y1111917D01*
X2843343Y1111958D01*
X2843828Y1111988D01*
X2844314Y1112006D01*
X2844800Y1112012D01*
X2845286Y1112006D01*
X2845772Y1111988D01*
X2846257Y1111958D01*
X2846742Y1111917D01*
X2847225Y1111863D01*
X2847707Y1111798D01*
X2848187Y1111720D01*
X2848665Y1111631D01*
X2849141Y1111531D01*
X2849614Y1111418D01*
X2850084Y1111294D01*
X2850551Y1111159D01*
X2851015Y1111012D01*
X2851474Y1110854D01*
X2851930Y1110684D01*
X2852382Y1110504D01*
X2852829Y1110312D01*
X2853271Y1110110D01*
X2853708Y1109897D01*
X2854139Y1109673D01*
X2854565Y1109438D01*
X2854985Y1109193D01*
X2855399Y1108938D01*
X2855807Y1108673D01*
X2856208Y1108398D01*
X2856602Y1108113D01*
X2856989Y1107819D01*
X2857369Y1107515D01*
X2857741Y1107202D01*
X2858105Y1106880D01*
X2858461Y1106549D01*
X2858809Y1106209D01*
X2859149Y1105861D01*
X2859480Y1105505D01*
X2859802Y1105141D01*
X2860115Y1104769D01*
X2860419Y1104389D01*
X2860713Y1104002D01*
X2860998Y1103608D01*
X2861273Y1103207D01*
X2861538Y1102799D01*
X2861793Y1102385D01*
X2862038Y1101965D01*
X2862273Y1101539D01*
X2862497Y1101108D01*
X2862710Y1100671D01*
X2862912Y1100229D01*
X2863104Y1099782D01*
X2863284Y1099330D01*
X2863454Y1098874D01*
X2863612Y1098415D01*
X2863759Y1097951D01*
X2863894Y1097484D01*
X2864018Y1097014D01*
X2864131Y1096541D01*
X2864231Y1096065D01*
X2864320Y1095587D01*
X2864398Y1095107D01*
X2864463Y1094625D01*
X2864517Y1094142D01*
X2864558Y1093657D01*
X2864588Y1093172D01*
X2864606Y1092686D01*
X2864612Y1092200D01*
X2864606Y1091714D01*
X2864588Y1091228D01*
X2864558Y1090743D01*
X2864517Y1090258D01*
X2864463Y1089775D01*
X2864398Y1089293D01*
X2864320Y1088813D01*
X2864231Y1088335D01*
X2864131Y1087859D01*
X2864018Y1087386D01*
X2863894Y1086916D01*
X2863759Y1086449D01*
X2863612Y1085985D01*
X2863454Y1085526D01*
X2863284Y1085070D01*
X2863104Y1084618D01*
X2862912Y1084171D01*
X2862710Y1083729D01*
X2862497Y1083292D01*
X2862273Y1082861D01*
X2862038Y1082435D01*
X2861793Y1082015D01*
X2861538Y1081601D01*
X2861273Y1081193D01*
X2860998Y1080792D01*
X2860713Y1080398D01*
X2860419Y1080011D01*
X2860115Y1079631D01*
X2859802Y1079259D01*
X2859480Y1078895D01*
X2859149Y1078539D01*
X2858809Y1078191D01*
X2858461Y1077851D01*
X2858105Y1077520D01*
X2857741Y1077198D01*
X2857369Y1076885D01*
X2856989Y1076581D01*
X2856602Y1076287D01*
X2856208Y1076002D01*
X2855807Y1075727D01*
X2855399Y1075462D01*
X2854985Y1075207D01*
X2854565Y1074962D01*
X2854139Y1074727D01*
X2853708Y1074503D01*
X2853271Y1074290D01*
X2852829Y1074088D01*
X2852382Y1073896D01*
X2851930Y1073716D01*
X2851474Y1073546D01*
X2851015Y1073388D01*
X2850551Y1073241D01*
X2850084Y1073106D01*
X2849614Y1072982D01*
X2849141Y1072869D01*
X2848665Y1072769D01*
X2848187Y1072680D01*
X2847707Y1072602D01*
X2847225Y1072537D01*
X2846742Y1072483D01*
X2846257Y1072442D01*
X2845772Y1072412D01*
X2845286Y1072394D01*
X2844800Y1072388D01*
X2844314Y1072394D01*
X2843828Y1072412D01*
X2843343Y1072442D01*
X2842858Y1072483D01*
X2842375Y1072537D01*
X2841893Y1072602D01*
X2841413Y1072680D01*
X2840935Y1072769D01*
X2840459Y1072869D01*
X2839986Y1072982D01*
X2839516Y1073106D01*
X2839049Y1073241D01*
X2838585Y1073388D01*
X2838126Y1073546D01*
X2837670Y1073716D01*
X2837218Y1073896D01*
X2836771Y1074088D01*
X2836329Y1074290D01*
X2835892Y1074503D01*
X2835461Y1074727D01*
X2835035Y1074962D01*
X2834615Y1075207D01*
X2834201Y1075462D01*
X2833793Y1075727D01*
X2833392Y1076002D01*
X2832998Y1076287D01*
X2832611Y1076581D01*
X2832231Y1076885D01*
X2831859Y1077198D01*
X2831495Y1077520D01*
X2831139Y1077851D01*
X2830791Y1078191D01*
X2830451Y1078539D01*
X2830120Y1078895D01*
X2829798Y1079259D01*
X2829485Y1079631D01*
X2829181Y1080011D01*
X2828887Y1080398D01*
X2828602Y1080792D01*
X2828327Y1081193D01*
X2828062Y1081601D01*
X2827807Y1082015D01*
X2827562Y1082435D01*
X2827327Y1082861D01*
X2827103Y1083292D01*
X2826890Y1083729D01*
X2826688Y1084171D01*
X2826496Y1084618D01*
X2826316Y1085070D01*
X2826146Y1085526D01*
X2825988Y1085985D01*
X2825841Y1086449D01*
X2825706Y1086916D01*
X2825582Y1087386D01*
X2825469Y1087859D01*
X2825369Y1088335D01*
X2825280Y1088813D01*
X2825202Y1089293D01*
X2825137Y1089775D01*
X2825083Y1090258D01*
X2825042Y1090743D01*
X2825012Y1091228D01*
X2824994Y1091714D01*
X2824988Y1092200D01*
X564388Y1422400D02*
X564394Y1422886D01*
X564412Y1423372D01*
X564442Y1423857D01*
X564483Y1424342D01*
X564537Y1424825D01*
X564602Y1425307D01*
X564680Y1425787D01*
X564769Y1426265D01*
X564869Y1426741D01*
X564982Y1427214D01*
X565106Y1427684D01*
X565241Y1428151D01*
X565388Y1428615D01*
X565546Y1429074D01*
X565716Y1429530D01*
X565896Y1429982D01*
X566088Y1430429D01*
X566290Y1430871D01*
X566503Y1431308D01*
X566727Y1431739D01*
X566962Y1432165D01*
X567207Y1432585D01*
X567462Y1432999D01*
X567727Y1433407D01*
X568002Y1433808D01*
X568287Y1434202D01*
X568581Y1434589D01*
X568885Y1434969D01*
X569198Y1435341D01*
X569520Y1435705D01*
X569851Y1436061D01*
X570191Y1436409D01*
X570539Y1436749D01*
X570895Y1437080D01*
X571259Y1437402D01*
X571631Y1437715D01*
X572011Y1438019D01*
X572398Y1438313D01*
X572792Y1438598D01*
X573193Y1438873D01*
X573601Y1439138D01*
X574015Y1439393D01*
X574435Y1439638D01*
X574861Y1439873D01*
X575292Y1440097D01*
X575729Y1440310D01*
X576171Y1440512D01*
X576618Y1440704D01*
X577070Y1440884D01*
X577526Y1441054D01*
X577985Y1441212D01*
X578449Y1441359D01*
X578916Y1441494D01*
X579386Y1441618D01*
X579859Y1441731D01*
X580335Y1441831D01*
X580813Y1441920D01*
X581293Y1441998D01*
X581775Y1442063D01*
X582258Y1442117D01*
X582743Y1442158D01*
X583228Y1442188D01*
X583714Y1442206D01*
X584200Y1442212D01*
X584686Y1442206D01*
X585172Y1442188D01*
X585657Y1442158D01*
X586142Y1442117D01*
X586625Y1442063D01*
X587107Y1441998D01*
X587587Y1441920D01*
X588065Y1441831D01*
X588541Y1441731D01*
X589014Y1441618D01*
X589484Y1441494D01*
X589951Y1441359D01*
X590415Y1441212D01*
X590874Y1441054D01*
X591330Y1440884D01*
X591782Y1440704D01*
X592229Y1440512D01*
X592671Y1440310D01*
X593108Y1440097D01*
X593539Y1439873D01*
X593965Y1439638D01*
X594385Y1439393D01*
X594799Y1439138D01*
X595207Y1438873D01*
X595608Y1438598D01*
X596002Y1438313D01*
X596389Y1438019D01*
X596769Y1437715D01*
X597141Y1437402D01*
X597505Y1437080D01*
X597861Y1436749D01*
X598209Y1436409D01*
X598549Y1436061D01*
X598880Y1435705D01*
X599202Y1435341D01*
X599515Y1434969D01*
X599819Y1434589D01*
X600113Y1434202D01*
X600398Y1433808D01*
X600673Y1433407D01*
X600938Y1432999D01*
X601193Y1432585D01*
X601438Y1432165D01*
X601673Y1431739D01*
X601897Y1431308D01*
X602110Y1430871D01*
X602312Y1430429D01*
X602504Y1429982D01*
X602684Y1429530D01*
X602854Y1429074D01*
X603012Y1428615D01*
X603159Y1428151D01*
X603294Y1427684D01*
X603418Y1427214D01*
X603531Y1426741D01*
X603631Y1426265D01*
X603720Y1425787D01*
X603798Y1425307D01*
X603863Y1424825D01*
X603917Y1424342D01*
X603958Y1423857D01*
X603988Y1423372D01*
X604006Y1422886D01*
X604012Y1422400D01*
X604006Y1421914D01*
X603988Y1421428D01*
X603958Y1420943D01*
X603917Y1420458D01*
X603863Y1419975D01*
X603798Y1419493D01*
X603720Y1419013D01*
X603631Y1418535D01*
X603531Y1418059D01*
X603418Y1417586D01*
X603294Y1417116D01*
X603159Y1416649D01*
X603012Y1416185D01*
X602854Y1415726D01*
X602684Y1415270D01*
X602504Y1414818D01*
X602312Y1414371D01*
X602110Y1413929D01*
X601897Y1413492D01*
X601673Y1413061D01*
X601438Y1412635D01*
X601193Y1412215D01*
X600938Y1411801D01*
X600673Y1411393D01*
X600398Y1410992D01*
X600113Y1410598D01*
X599819Y1410211D01*
X599515Y1409831D01*
X599202Y1409459D01*
X598880Y1409095D01*
X598549Y1408739D01*
X598209Y1408391D01*
X597861Y1408051D01*
X597505Y1407720D01*
X597141Y1407398D01*
X596769Y1407085D01*
X596389Y1406781D01*
X596002Y1406487D01*
X595608Y1406202D01*
X595207Y1405927D01*
X594799Y1405662D01*
X594385Y1405407D01*
X593965Y1405162D01*
X593539Y1404927D01*
X593108Y1404703D01*
X592671Y1404490D01*
X592229Y1404288D01*
X591782Y1404096D01*
X591330Y1403916D01*
X590874Y1403746D01*
X590415Y1403588D01*
X589951Y1403441D01*
X589484Y1403306D01*
X589014Y1403182D01*
X588541Y1403069D01*
X588065Y1402969D01*
X587587Y1402880D01*
X587107Y1402802D01*
X586625Y1402737D01*
X586142Y1402683D01*
X585657Y1402642D01*
X585172Y1402612D01*
X584686Y1402594D01*
X584200Y1402588D01*
X583714Y1402594D01*
X583228Y1402612D01*
X582743Y1402642D01*
X582258Y1402683D01*
X581775Y1402737D01*
X581293Y1402802D01*
X580813Y1402880D01*
X580335Y1402969D01*
X579859Y1403069D01*
X579386Y1403182D01*
X578916Y1403306D01*
X578449Y1403441D01*
X577985Y1403588D01*
X577526Y1403746D01*
X577070Y1403916D01*
X576618Y1404096D01*
X576171Y1404288D01*
X575729Y1404490D01*
X575292Y1404703D01*
X574861Y1404927D01*
X574435Y1405162D01*
X574015Y1405407D01*
X573601Y1405662D01*
X573193Y1405927D01*
X572792Y1406202D01*
X572398Y1406487D01*
X572011Y1406781D01*
X571631Y1407085D01*
X571259Y1407398D01*
X570895Y1407720D01*
X570539Y1408051D01*
X570191Y1408391D01*
X569851Y1408739D01*
X569520Y1409095D01*
X569198Y1409459D01*
X568885Y1409831D01*
X568581Y1410211D01*
X568287Y1410598D01*
X568002Y1410992D01*
X567727Y1411393D01*
X567462Y1411801D01*
X567207Y1412215D01*
X566962Y1412635D01*
X566727Y1413061D01*
X566503Y1413492D01*
X566290Y1413929D01*
X566088Y1414371D01*
X565896Y1414818D01*
X565716Y1415270D01*
X565546Y1415726D01*
X565388Y1416185D01*
X565241Y1416649D01*
X565106Y1417116D01*
X564982Y1417586D01*
X564869Y1418059D01*
X564769Y1418535D01*
X564680Y1419013D01*
X564602Y1419493D01*
X564537Y1419975D01*
X564483Y1420458D01*
X564442Y1420943D01*
X564412Y1421428D01*
X564394Y1421914D01*
X564388Y1422400D01*
X36830Y711200D02*
X36835Y711605D01*
X36850Y712010D01*
X36875Y712415D01*
X36910Y712818D01*
X36954Y713221D01*
X37009Y713623D01*
X37073Y714023D01*
X37147Y714421D01*
X37231Y714817D01*
X37325Y715212D01*
X37428Y715603D01*
X37541Y715993D01*
X37663Y716379D01*
X37795Y716762D01*
X37936Y717142D01*
X38087Y717518D01*
X38246Y717891D01*
X38415Y718259D01*
X38593Y718623D01*
X38779Y718983D01*
X38975Y719338D01*
X39179Y719688D01*
X39391Y720033D01*
X39612Y720372D01*
X39842Y720707D01*
X40079Y721035D01*
X40324Y721357D01*
X40578Y721674D01*
X40838Y721984D01*
X41107Y722287D01*
X41383Y722584D01*
X41666Y722874D01*
X41956Y723157D01*
X42253Y723433D01*
X42556Y723702D01*
X42866Y723962D01*
X43183Y724216D01*
X43505Y724461D01*
X43833Y724698D01*
X44168Y724928D01*
X44507Y725149D01*
X44852Y725361D01*
X45202Y725565D01*
X45557Y725761D01*
X45917Y725947D01*
X46281Y726125D01*
X46649Y726294D01*
X47022Y726453D01*
X47398Y726604D01*
X47778Y726745D01*
X48161Y726877D01*
X48547Y726999D01*
X48937Y727112D01*
X49328Y727215D01*
X49723Y727309D01*
X50119Y727393D01*
X50517Y727467D01*
X50917Y727531D01*
X51319Y727586D01*
X51722Y727630D01*
X52125Y727665D01*
X52530Y727690D01*
X52935Y727705D01*
X53340Y727710D01*
X53745Y727705D01*
X54150Y727690D01*
X54555Y727665D01*
X54958Y727630D01*
X55361Y727586D01*
X55763Y727531D01*
X56163Y727467D01*
X56561Y727393D01*
X56957Y727309D01*
X57352Y727215D01*
X57743Y727112D01*
X58133Y726999D01*
X58519Y726877D01*
X58902Y726745D01*
X59282Y726604D01*
X59658Y726453D01*
X60031Y726294D01*
X60399Y726125D01*
X60763Y725947D01*
X61123Y725761D01*
X61478Y725565D01*
X61828Y725361D01*
X62173Y725149D01*
X62512Y724928D01*
X62847Y724698D01*
X63175Y724461D01*
X63497Y724216D01*
X63814Y723962D01*
X64124Y723702D01*
X64427Y723433D01*
X64724Y723157D01*
X65014Y722874D01*
X65297Y722584D01*
X65573Y722287D01*
X65842Y721984D01*
X66102Y721674D01*
X66356Y721357D01*
X66601Y721035D01*
X66838Y720707D01*
X67068Y720372D01*
X67289Y720033D01*
X67501Y719688D01*
X67705Y719338D01*
X67901Y718983D01*
X68087Y718623D01*
X68265Y718259D01*
X68434Y717891D01*
X68593Y717518D01*
X68744Y717142D01*
X68885Y716762D01*
X69017Y716379D01*
X69139Y715993D01*
X69252Y715603D01*
X69355Y715212D01*
X69449Y714817D01*
X69533Y714421D01*
X69607Y714023D01*
X69671Y713623D01*
X69726Y713221D01*
X69770Y712818D01*
X69805Y712415D01*
X69830Y712010D01*
X69845Y711605D01*
X69850Y711200D01*
X69845Y710795D01*
X69830Y710390D01*
X69805Y709985D01*
X69770Y709582D01*
X69726Y709179D01*
X69671Y708777D01*
X69607Y708377D01*
X69533Y707979D01*
X69449Y707583D01*
X69355Y707188D01*
X69252Y706797D01*
X69139Y706407D01*
X69017Y706021D01*
X68885Y705638D01*
X68744Y705258D01*
X68593Y704882D01*
X68434Y704509D01*
X68265Y704141D01*
X68087Y703777D01*
X67901Y703417D01*
X67705Y703062D01*
X67501Y702712D01*
X67289Y702367D01*
X67068Y702028D01*
X66838Y701693D01*
X66601Y701365D01*
X66356Y701043D01*
X66102Y700726D01*
X65842Y700416D01*
X65573Y700113D01*
X65297Y699816D01*
X65014Y699526D01*
X64724Y699243D01*
X64427Y698967D01*
X64124Y698698D01*
X63814Y698438D01*
X63497Y698184D01*
X63175Y697939D01*
X62847Y697702D01*
X62512Y697472D01*
X62173Y697251D01*
X61828Y697039D01*
X61478Y696835D01*
X61123Y696639D01*
X60763Y696453D01*
X60399Y696275D01*
X60031Y696106D01*
X59658Y695947D01*
X59282Y695796D01*
X58902Y695655D01*
X58519Y695523D01*
X58133Y695401D01*
X57743Y695288D01*
X57352Y695185D01*
X56957Y695091D01*
X56561Y695007D01*
X56163Y694933D01*
X55763Y694869D01*
X55361Y694814D01*
X54958Y694770D01*
X54555Y694735D01*
X54150Y694710D01*
X53745Y694695D01*
X53340Y694690D01*
X52935Y694695D01*
X52530Y694710D01*
X52125Y694735D01*
X51722Y694770D01*
X51319Y694814D01*
X50917Y694869D01*
X50517Y694933D01*
X50119Y695007D01*
X49723Y695091D01*
X49328Y695185D01*
X48937Y695288D01*
X48547Y695401D01*
X48161Y695523D01*
X47778Y695655D01*
X47398Y695796D01*
X47022Y695947D01*
X46649Y696106D01*
X46281Y696275D01*
X45917Y696453D01*
X45557Y696639D01*
X45202Y696835D01*
X44852Y697039D01*
X44507Y697251D01*
X44168Y697472D01*
X43833Y697702D01*
X43505Y697939D01*
X43183Y698184D01*
X42866Y698438D01*
X42556Y698698D01*
X42253Y698967D01*
X41956Y699243D01*
X41666Y699526D01*
X41383Y699816D01*
X41107Y700113D01*
X40838Y700416D01*
X40578Y700726D01*
X40324Y701043D01*
X40079Y701365D01*
X39842Y701693D01*
X39612Y702028D01*
X39391Y702367D01*
X39179Y702712D01*
X38975Y703062D01*
X38779Y703417D01*
X38593Y703777D01*
X38415Y704141D01*
X38246Y704509D01*
X38087Y704882D01*
X37936Y705258D01*
X37795Y705638D01*
X37663Y706021D01*
X37541Y706407D01*
X37428Y706797D01*
X37325Y707188D01*
X37231Y707583D01*
X37147Y707979D01*
X37073Y708377D01*
X37009Y708777D01*
X36954Y709179D01*
X36910Y709582D01*
X36875Y709985D01*
X36850Y710390D01*
X36835Y710795D01*
X36830Y711200D01*
D11*
X-63500Y-63500D02*
X32766Y-63500D01*
X32766Y-139700D01*
X1768856Y-139700D01*
X1768856Y-63500D01*
X2039620Y-63500D01*
X2039620Y-139700D01*
X2819400Y-139700D01*
X2819400Y-63500D01*
X2984500Y-63500D01*
X2984500Y1498600D01*
X2921000Y1574800D01*
X0Y1574800D01*
X-63500Y1511300D01*
X-63500Y-63500D01*
X15875Y-520D02*
X15807Y-1557D01*
X15671Y-2587D01*
X15469Y-3607D01*
X15200Y-4611D01*
X14865Y-5595D01*
X14468Y-6555D01*
X14008Y-7487D01*
X13488Y-8388D01*
X12911Y-9252D01*
X12278Y-10076D01*
X11593Y-10858D01*
X10858Y-11593D01*
X10076Y-12278D01*
X9252Y-12911D01*
X8388Y-13488D01*
X7487Y-14008D01*
X6555Y-14468D01*
X5595Y-14865D01*
X4611Y-15200D01*
X3607Y-15469D01*
X2587Y-15671D01*
X1557Y-15807D01*
X520Y-15875D01*
X-520Y-15875D01*
X-1557Y-15807D01*
X-2587Y-15671D01*
X-3607Y-15469D01*
X-4611Y-15200D01*
X-5595Y-14865D01*
X-6555Y-14468D01*
X-7487Y-14008D01*
X-8388Y-13488D01*
X-9252Y-12911D01*
X-10076Y-12278D01*
X-10858Y-11593D01*
X-11593Y-10858D01*
X-12278Y-10076D01*
X-12911Y-9252D01*
X-13488Y-8388D01*
X-14008Y-7487D01*
X-14468Y-6555D01*
X-14865Y-5595D01*
X-15200Y-4611D01*
X-15469Y-3607D01*
X-15671Y-2587D01*
X-15807Y-1557D01*
X-15875Y-520D01*
X-15875Y520D01*
X-15807Y1557D01*
X-15671Y2587D01*
X-15469Y3607D01*
X-15200Y4611D01*
X-14865Y5595D01*
X-14468Y6555D01*
X-14008Y7487D01*
X-13488Y8388D01*
X-12911Y9252D01*
X-12278Y10076D01*
X-11593Y10858D01*
X-10858Y11593D01*
X-10076Y12278D01*
X-9252Y12911D01*
X-8388Y13488D01*
X-7487Y14008D01*
X-6555Y14468D01*
X-5595Y14865D01*
X-4611Y15200D01*
X-3607Y15469D01*
X-2587Y15671D01*
X-1557Y15807D01*
X-520Y15875D01*
X520Y15875D01*
X1557Y15807D01*
X2587Y15671D01*
X3607Y15469D01*
X4611Y15200D01*
X5595Y14865D01*
X6555Y14468D01*
X7487Y14008D01*
X8388Y13488D01*
X9252Y12911D01*
X10076Y12278D01*
X10858Y11593D01*
X11593Y10858D01*
X12278Y10076D01*
X12911Y9252D01*
X13488Y8388D01*
X14008Y7487D01*
X14468Y6555D01*
X14865Y5595D01*
X15200Y4611D01*
X15469Y3607D01*
X15671Y2587D01*
X15807Y1557D01*
X15875Y520D01*
X15875Y-520D01*
X2936875Y-520D02*
X2936807Y-1557D01*
X2936671Y-2587D01*
X2936469Y-3607D01*
X2936200Y-4611D01*
X2935865Y-5595D01*
X2935468Y-6555D01*
X2935008Y-7487D01*
X2934488Y-8388D01*
X2933911Y-9252D01*
X2933278Y-10076D01*
X2932593Y-10858D01*
X2931858Y-11593D01*
X2931076Y-12278D01*
X2930252Y-12911D01*
X2929388Y-13488D01*
X2928487Y-14008D01*
X2927555Y-14468D01*
X2926595Y-14865D01*
X2925611Y-15200D01*
X2924607Y-15469D01*
X2923587Y-15671D01*
X2922557Y-15807D01*
X2921520Y-15875D01*
X2920480Y-15875D01*
X2919443Y-15807D01*
X2918413Y-15671D01*
X2917393Y-15469D01*
X2916389Y-15200D01*
X2915405Y-14865D01*
X2914445Y-14468D01*
X2913513Y-14008D01*
X2912612Y-13488D01*
X2911748Y-12911D01*
X2910924Y-12278D01*
X2910142Y-11593D01*
X2909407Y-10858D01*
X2908722Y-10076D01*
X2908089Y-9252D01*
X2907512Y-8388D01*
X2906992Y-7487D01*
X2906532Y-6555D01*
X2906135Y-5595D01*
X2905800Y-4611D01*
X2905531Y-3607D01*
X2905329Y-2587D01*
X2905193Y-1557D01*
X2905125Y-520D01*
X2905125Y520D01*
X2905193Y1557D01*
X2905329Y2587D01*
X2905531Y3607D01*
X2905800Y4611D01*
X2906135Y5595D01*
X2906532Y6555D01*
X2906992Y7487D01*
X2907512Y8388D01*
X2908089Y9252D01*
X2908722Y10076D01*
X2909407Y10858D01*
X2910142Y11593D01*
X2910924Y12278D01*
X2911748Y12911D01*
X2912612Y13488D01*
X2913513Y14008D01*
X2914445Y14468D01*
X2915405Y14865D01*
X2916389Y15200D01*
X2917393Y15469D01*
X2918413Y15671D01*
X2919443Y15807D01*
X2920480Y15875D01*
X2921520Y15875D01*
X2922557Y15807D01*
X2923587Y15671D01*
X2924607Y15469D01*
X2925611Y15200D01*
X2926595Y14865D01*
X2927555Y14468D01*
X2928487Y14008D01*
X2929388Y13488D01*
X2930252Y12911D01*
X2931076Y12278D01*
X2931858Y11593D01*
X2932593Y10858D01*
X2933278Y10076D01*
X2933911Y9252D01*
X2934488Y8388D01*
X2935008Y7487D01*
X2935468Y6555D01*
X2935865Y5595D01*
X2936200Y4611D01*
X2936469Y3607D01*
X2936671Y2587D01*
X2936807Y1557D01*
X2936875Y520D01*
X2936875Y-520D01*
X15875Y1510780D02*
X15807Y1509743D01*
X15671Y1508713D01*
X15469Y1507693D01*
X15200Y1506689D01*
X14865Y1505705D01*
X14468Y1504745D01*
X14008Y1503813D01*
X13488Y1502912D01*
X12911Y1502048D01*
X12278Y1501224D01*
X11593Y1500442D01*
X10858Y1499707D01*
X10076Y1499022D01*
X9252Y1498389D01*
X8388Y1497812D01*
X7487Y1497292D01*
X6555Y1496832D01*
X5595Y1496435D01*
X4611Y1496100D01*
X3607Y1495831D01*
X2587Y1495629D01*
X1557Y1495493D01*
X520Y1495425D01*
X-520Y1495425D01*
X-1557Y1495493D01*
X-2587Y1495629D01*
X-3607Y1495831D01*
X-4611Y1496100D01*
X-5595Y1496435D01*
X-6555Y1496832D01*
X-7487Y1497292D01*
X-8388Y1497812D01*
X-9252Y1498389D01*
X-10076Y1499022D01*
X-10858Y1499707D01*
X-11593Y1500442D01*
X-12278Y1501224D01*
X-12911Y1502048D01*
X-13488Y1502912D01*
X-14008Y1503813D01*
X-14468Y1504745D01*
X-14865Y1505705D01*
X-15200Y1506689D01*
X-15469Y1507693D01*
X-15671Y1508713D01*
X-15807Y1509743D01*
X-15875Y1510780D01*
X-15875Y1511820D01*
X-15807Y1512857D01*
X-15671Y1513887D01*
X-15469Y1514907D01*
X-15200Y1515911D01*
X-14865Y1516895D01*
X-14468Y1517855D01*
X-14008Y1518787D01*
X-13488Y1519688D01*
X-12911Y1520552D01*
X-12278Y1521376D01*
X-11593Y1522158D01*
X-10858Y1522893D01*
X-10076Y1523578D01*
X-9252Y1524211D01*
X-8388Y1524788D01*
X-7487Y1525308D01*
X-6555Y1525768D01*
X-5595Y1526165D01*
X-4611Y1526500D01*
X-3607Y1526769D01*
X-2587Y1526971D01*
X-1557Y1527107D01*
X-520Y1527175D01*
X520Y1527175D01*
X1557Y1527107D01*
X2587Y1526971D01*
X3607Y1526769D01*
X4611Y1526500D01*
X5595Y1526165D01*
X6555Y1525768D01*
X7487Y1525308D01*
X8388Y1524788D01*
X9252Y1524211D01*
X10076Y1523578D01*
X10858Y1522893D01*
X11593Y1522158D01*
X12278Y1521376D01*
X12911Y1520552D01*
X13488Y1519688D01*
X14008Y1518787D01*
X14468Y1517855D01*
X14865Y1516895D01*
X15200Y1515911D01*
X15469Y1514907D01*
X15671Y1513887D01*
X15807Y1512857D01*
X15875Y1511820D01*
X15875Y1510780D01*
X2936875Y1510780D02*
X2936807Y1509743D01*
X2936671Y1508713D01*
X2936469Y1507693D01*
X2936200Y1506689D01*
X2935865Y1505705D01*
X2935468Y1504745D01*
X2935008Y1503813D01*
X2934488Y1502912D01*
X2933911Y1502048D01*
X2933278Y1501224D01*
X2932593Y1500442D01*
X2931858Y1499707D01*
X2931076Y1499022D01*
X2930252Y1498389D01*
X2929388Y1497812D01*
X2928487Y1497292D01*
X2927555Y1496832D01*
X2926595Y1496435D01*
X2925611Y1496100D01*
X2924607Y1495831D01*
X2923587Y1495629D01*
X2922557Y1495493D01*
X2921520Y1495425D01*
X2920480Y1495425D01*
X2919443Y1495493D01*
X2918413Y1495629D01*
X2917393Y1495831D01*
X2916389Y1496100D01*
X2915405Y1496435D01*
X2914445Y1496832D01*
X2913513Y1497292D01*
X2912612Y1497812D01*
X2911748Y1498389D01*
X2910924Y1499022D01*
X2910142Y1499707D01*
X2909407Y1500442D01*
X2908722Y1501224D01*
X2908089Y1502048D01*
X2907512Y1502912D01*
X2906992Y1503813D01*
X2906532Y1504745D01*
X2906135Y1505705D01*
X2905800Y1506689D01*
X2905531Y1507693D01*
X2905329Y1508713D01*
X2905193Y1509743D01*
X2905125Y1510780D01*
X2905125Y1511820D01*
X2905193Y1512857D01*
X2905329Y1513887D01*
X2905531Y1514907D01*
X2905800Y1515911D01*
X2906135Y1516895D01*
X2906532Y1517855D01*
X2906992Y1518787D01*
X2907512Y1519688D01*
X2908089Y1520552D01*
X2908722Y1521376D01*
X2909407Y1522158D01*
X2910142Y1522893D01*
X2910924Y1523578D01*
X2911748Y1524211D01*
X2912612Y1524788D01*
X2913513Y1525308D01*
X2914445Y1525768D01*
X2915405Y1526165D01*
X2916389Y1526500D01*
X2917393Y1526769D01*
X2918413Y1526971D01*
X2919443Y1527107D01*
X2920480Y1527175D01*
X2921520Y1527175D01*
X2922557Y1527107D01*
X2923587Y1526971D01*
X2924607Y1526769D01*
X2925611Y1526500D01*
X2926595Y1526165D01*
X2927555Y1525768D01*
X2928487Y1525308D01*
X2929388Y1524788D01*
X2930252Y1524211D01*
X2931076Y1523578D01*
X2931858Y1522893D01*
X2932593Y1522158D01*
X2933278Y1521376D01*
X2933911Y1520552D01*
X2934488Y1519688D01*
X2935008Y1518787D01*
X2935468Y1517855D01*
X2935865Y1516895D01*
X2936200Y1515911D01*
X2936469Y1514907D01*
X2936671Y1513887D01*
X2936807Y1512857D01*
X2936875Y1511820D01*
X2936875Y1510780D01*
X1895475Y1091680D02*
X1895407Y1090643D01*
X1895271Y1089613D01*
X1895069Y1088593D01*
X1894800Y1087589D01*
X1894465Y1086605D01*
X1894068Y1085645D01*
X1893608Y1084713D01*
X1893088Y1083812D01*
X1892511Y1082948D01*
X1891878Y1082124D01*
X1891193Y1081342D01*
X1890458Y1080607D01*
X1889676Y1079922D01*
X1888852Y1079289D01*
X1887988Y1078712D01*
X1887087Y1078192D01*
X1886155Y1077732D01*
X1885195Y1077335D01*
X1884211Y1077000D01*
X1883207Y1076731D01*
X1882187Y1076529D01*
X1881157Y1076393D01*
X1880120Y1076325D01*
X1879080Y1076325D01*
X1878043Y1076393D01*
X1877013Y1076529D01*
X1875993Y1076731D01*
X1874989Y1077000D01*
X1874005Y1077335D01*
X1873045Y1077732D01*
X1872113Y1078192D01*
X1871212Y1078712D01*
X1870348Y1079289D01*
X1869524Y1079922D01*
X1868742Y1080607D01*
X1868007Y1081342D01*
X1867322Y1082124D01*
X1866689Y1082948D01*
X1866112Y1083812D01*
X1865592Y1084713D01*
X1865132Y1085645D01*
X1864735Y1086605D01*
X1864400Y1087589D01*
X1864131Y1088593D01*
X1863929Y1089613D01*
X1863793Y1090643D01*
X1863725Y1091680D01*
X1863725Y1092720D01*
X1863793Y1093757D01*
X1863929Y1094787D01*
X1864131Y1095807D01*
X1864400Y1096811D01*
X1864735Y1097795D01*
X1865132Y1098755D01*
X1865592Y1099687D01*
X1866112Y1100588D01*
X1866689Y1101452D01*
X1867322Y1102276D01*
X1868007Y1103058D01*
X1868742Y1103793D01*
X1869524Y1104478D01*
X1870348Y1105111D01*
X1871212Y1105688D01*
X1872113Y1106208D01*
X1873045Y1106668D01*
X1874005Y1107065D01*
X1874989Y1107400D01*
X1875993Y1107669D01*
X1877013Y1107871D01*
X1878043Y1108007D01*
X1879080Y1108075D01*
X1880120Y1108075D01*
X1881157Y1108007D01*
X1882187Y1107871D01*
X1883207Y1107669D01*
X1884211Y1107400D01*
X1885195Y1107065D01*
X1886155Y1106668D01*
X1887087Y1106208D01*
X1887988Y1105688D01*
X1888852Y1105111D01*
X1889676Y1104478D01*
X1890458Y1103793D01*
X1891193Y1103058D01*
X1891878Y1102276D01*
X1892511Y1101452D01*
X1893088Y1100588D01*
X1893608Y1099687D01*
X1894068Y1098755D01*
X1894465Y1097795D01*
X1894800Y1096811D01*
X1895069Y1095807D01*
X1895271Y1094787D01*
X1895407Y1093757D01*
X1895475Y1092720D01*
X1895475Y1091680D01*
X2534412Y1421801D02*
X2534340Y1420606D01*
X2534195Y1419418D01*
X2533980Y1418240D01*
X2533693Y1417077D01*
X2533337Y1415934D01*
X2532912Y1414815D01*
X2532421Y1413723D01*
X2531864Y1412663D01*
X2531245Y1411638D01*
X2530565Y1410653D01*
X2529826Y1409710D01*
X2529033Y1408814D01*
X2528186Y1407968D01*
X2527290Y1407174D01*
X2526347Y1406435D01*
X2525362Y1405755D01*
X2524337Y1405136D01*
X2523277Y1404579D01*
X2522185Y1404088D01*
X2521066Y1403663D01*
X2519923Y1403307D01*
X2518760Y1403020D01*
X2517582Y1402805D01*
X2516394Y1402660D01*
X2515199Y1402588D01*
X2514001Y1402588D01*
X2512806Y1402660D01*
X2511618Y1402805D01*
X2510440Y1403020D01*
X2509277Y1403307D01*
X2508134Y1403663D01*
X2507015Y1404088D01*
X2505923Y1404579D01*
X2504863Y1405136D01*
X2503838Y1405755D01*
X2502853Y1406435D01*
X2501910Y1407174D01*
X2501014Y1407968D01*
X2500168Y1408814D01*
X2499374Y1409710D01*
X2498635Y1410653D01*
X2497955Y1411638D01*
X2497336Y1412663D01*
X2496779Y1413723D01*
X2496288Y1414815D01*
X2495863Y1415934D01*
X2495507Y1417077D01*
X2495220Y1418240D01*
X2495005Y1419418D01*
X2494860Y1420606D01*
X2494788Y1421801D01*
X2494788Y1422999D01*
X2494860Y1424194D01*
X2495005Y1425382D01*
X2495220Y1426560D01*
X2495507Y1427723D01*
X2495863Y1428866D01*
X2496288Y1429985D01*
X2496779Y1431077D01*
X2497336Y1432137D01*
X2497955Y1433162D01*
X2498635Y1434147D01*
X2499374Y1435090D01*
X2500168Y1435986D01*
X2501014Y1436833D01*
X2501910Y1437626D01*
X2502853Y1438365D01*
X2503838Y1439045D01*
X2504863Y1439664D01*
X2505923Y1440221D01*
X2507015Y1440712D01*
X2508134Y1441137D01*
X2509277Y1441493D01*
X2510440Y1441780D01*
X2511618Y1441995D01*
X2512806Y1442140D01*
X2514001Y1442212D01*
X2515199Y1442212D01*
X2516394Y1442140D01*
X2517582Y1441995D01*
X2518760Y1441780D01*
X2519923Y1441493D01*
X2521066Y1441137D01*
X2522185Y1440712D01*
X2523277Y1440221D01*
X2524337Y1439664D01*
X2525362Y1439045D01*
X2526347Y1438365D01*
X2527290Y1437626D01*
X2528186Y1436833D01*
X2529033Y1435986D01*
X2529826Y1435090D01*
X2530565Y1434147D01*
X2531245Y1433162D01*
X2531864Y1432137D01*
X2532421Y1431077D01*
X2532912Y1429985D01*
X2533337Y1428866D01*
X2533693Y1427723D01*
X2533980Y1426560D01*
X2534195Y1425382D01*
X2534340Y1424194D01*
X2534412Y1422999D01*
X2534412Y1421801D01*
X1569212Y1421801D02*
X1569140Y1420606D01*
X1568995Y1419418D01*
X1568780Y1418240D01*
X1568493Y1417077D01*
X1568137Y1415934D01*
X1567712Y1414815D01*
X1567221Y1413723D01*
X1566664Y1412663D01*
X1566045Y1411638D01*
X1565365Y1410653D01*
X1564626Y1409710D01*
X1563833Y1408814D01*
X1562986Y1407968D01*
X1562090Y1407174D01*
X1561147Y1406435D01*
X1560162Y1405755D01*
X1559137Y1405136D01*
X1558077Y1404579D01*
X1556985Y1404088D01*
X1555866Y1403663D01*
X1554723Y1403307D01*
X1553560Y1403020D01*
X1552382Y1402805D01*
X1551194Y1402660D01*
X1549999Y1402588D01*
X1548801Y1402588D01*
X1547606Y1402660D01*
X1546418Y1402805D01*
X1545240Y1403020D01*
X1544077Y1403307D01*
X1542934Y1403663D01*
X1541815Y1404088D01*
X1540723Y1404579D01*
X1539663Y1405136D01*
X1538638Y1405755D01*
X1537653Y1406435D01*
X1536710Y1407174D01*
X1535814Y1407968D01*
X1534968Y1408814D01*
X1534174Y1409710D01*
X1533435Y1410653D01*
X1532755Y1411638D01*
X1532136Y1412663D01*
X1531579Y1413723D01*
X1531088Y1414815D01*
X1530663Y1415934D01*
X1530307Y1417077D01*
X1530020Y1418240D01*
X1529805Y1419418D01*
X1529660Y1420606D01*
X1529588Y1421801D01*
X1529588Y1422999D01*
X1529660Y1424194D01*
X1529805Y1425382D01*
X1530020Y1426560D01*
X1530307Y1427723D01*
X1530663Y1428866D01*
X1531088Y1429985D01*
X1531579Y1431077D01*
X1532136Y1432137D01*
X1532755Y1433162D01*
X1533435Y1434147D01*
X1534174Y1435090D01*
X1534968Y1435986D01*
X1535814Y1436833D01*
X1536710Y1437626D01*
X1537653Y1438365D01*
X1538638Y1439045D01*
X1539663Y1439664D01*
X1540723Y1440221D01*
X1541815Y1440712D01*
X1542934Y1441137D01*
X1544077Y1441493D01*
X1545240Y1441780D01*
X1546418Y1441995D01*
X1547606Y1442140D01*
X1548801Y1442212D01*
X1549999Y1442212D01*
X1551194Y1442140D01*
X1552382Y1441995D01*
X1553560Y1441780D01*
X1554723Y1441493D01*
X1555866Y1441137D01*
X1556985Y1440712D01*
X1558077Y1440221D01*
X1559137Y1439664D01*
X1560162Y1439045D01*
X1561147Y1438365D01*
X1562090Y1437626D01*
X1562986Y1436833D01*
X1563833Y1435986D01*
X1564626Y1435090D01*
X1565365Y1434147D01*
X1566045Y1433162D01*
X1566664Y1432137D01*
X1567221Y1431077D01*
X1567712Y1429985D01*
X1568137Y1428866D01*
X1568493Y1427723D01*
X1568780Y1426560D01*
X1568995Y1425382D01*
X1569140Y1424194D01*
X1569212Y1422999D01*
X1569212Y1421801D01*
X2864612Y1091601D02*
X2864540Y1090406D01*
X2864395Y1089218D01*
X2864180Y1088040D01*
X2863893Y1086877D01*
X2863537Y1085734D01*
X2863112Y1084615D01*
X2862621Y1083523D01*
X2862064Y1082463D01*
X2861445Y1081438D01*
X2860765Y1080453D01*
X2860026Y1079510D01*
X2859233Y1078614D01*
X2858386Y1077768D01*
X2857490Y1076974D01*
X2856547Y1076235D01*
X2855562Y1075555D01*
X2854537Y1074936D01*
X2853477Y1074379D01*
X2852385Y1073888D01*
X2851266Y1073463D01*
X2850123Y1073107D01*
X2848960Y1072820D01*
X2847782Y1072605D01*
X2846594Y1072460D01*
X2845399Y1072388D01*
X2844201Y1072388D01*
X2843006Y1072460D01*
X2841818Y1072605D01*
X2840640Y1072820D01*
X2839477Y1073107D01*
X2838334Y1073463D01*
X2837215Y1073888D01*
X2836123Y1074379D01*
X2835063Y1074936D01*
X2834038Y1075555D01*
X2833053Y1076235D01*
X2832110Y1076974D01*
X2831214Y1077768D01*
X2830368Y1078614D01*
X2829574Y1079510D01*
X2828835Y1080453D01*
X2828155Y1081438D01*
X2827536Y1082463D01*
X2826979Y1083523D01*
X2826488Y1084615D01*
X2826063Y1085734D01*
X2825707Y1086877D01*
X2825420Y1088040D01*
X2825205Y1089218D01*
X2825060Y1090406D01*
X2824988Y1091601D01*
X2824988Y1092799D01*
X2825060Y1093994D01*
X2825205Y1095182D01*
X2825420Y1096360D01*
X2825707Y1097523D01*
X2826063Y1098666D01*
X2826488Y1099785D01*
X2826979Y1100877D01*
X2827536Y1101937D01*
X2828155Y1102962D01*
X2828835Y1103947D01*
X2829574Y1104890D01*
X2830368Y1105786D01*
X2831214Y1106633D01*
X2832110Y1107426D01*
X2833053Y1108165D01*
X2834038Y1108845D01*
X2835063Y1109464D01*
X2836123Y1110021D01*
X2837215Y1110512D01*
X2838334Y1110937D01*
X2839477Y1111293D01*
X2840640Y1111580D01*
X2841818Y1111795D01*
X2843006Y1111940D01*
X2844201Y1112012D01*
X2845399Y1112012D01*
X2846594Y1111940D01*
X2847782Y1111795D01*
X2848960Y1111580D01*
X2850123Y1111293D01*
X2851266Y1110937D01*
X2852385Y1110512D01*
X2853477Y1110021D01*
X2854537Y1109464D01*
X2855562Y1108845D01*
X2856547Y1108165D01*
X2857490Y1107426D01*
X2858386Y1106633D01*
X2859233Y1105786D01*
X2860026Y1104890D01*
X2860765Y1103947D01*
X2861445Y1102962D01*
X2862064Y1101937D01*
X2862621Y1100877D01*
X2863112Y1099785D01*
X2863537Y1098666D01*
X2863893Y1097523D01*
X2864180Y1096360D01*
X2864395Y1095182D01*
X2864540Y1093994D01*
X2864612Y1092799D01*
X2864612Y1091601D01*
X604012Y1421801D02*
X603940Y1420606D01*
X603795Y1419418D01*
X603580Y1418240D01*
X603293Y1417077D01*
X602937Y1415934D01*
X602512Y1414815D01*
X602021Y1413723D01*
X601464Y1412663D01*
X600845Y1411638D01*
X600165Y1410653D01*
X599426Y1409710D01*
X598633Y1408814D01*
X597786Y1407968D01*
X596890Y1407174D01*
X595947Y1406435D01*
X594962Y1405755D01*
X593937Y1405136D01*
X592877Y1404579D01*
X591785Y1404088D01*
X590666Y1403663D01*
X589523Y1403307D01*
X588360Y1403020D01*
X587182Y1402805D01*
X585994Y1402660D01*
X584799Y1402588D01*
X583601Y1402588D01*
X582406Y1402660D01*
X581218Y1402805D01*
X580040Y1403020D01*
X578877Y1403307D01*
X577734Y1403663D01*
X576615Y1404088D01*
X575523Y1404579D01*
X574463Y1405136D01*
X573438Y1405755D01*
X572453Y1406435D01*
X571510Y1407174D01*
X570614Y1407968D01*
X569768Y1408814D01*
X568974Y1409710D01*
X568235Y1410653D01*
X567555Y1411638D01*
X566936Y1412663D01*
X566379Y1413723D01*
X565888Y1414815D01*
X565463Y1415934D01*
X565107Y1417077D01*
X564820Y1418240D01*
X564605Y1419418D01*
X564460Y1420606D01*
X564388Y1421801D01*
X564388Y1422999D01*
X564460Y1424194D01*
X564605Y1425382D01*
X564820Y1426560D01*
X565107Y1427723D01*
X565463Y1428866D01*
X565888Y1429985D01*
X566379Y1431077D01*
X566936Y1432137D01*
X567555Y1433162D01*
X568235Y1434147D01*
X568974Y1435090D01*
X569768Y1435986D01*
X570614Y1436833D01*
X571510Y1437626D01*
X572453Y1438365D01*
X573438Y1439045D01*
X574463Y1439664D01*
X575523Y1440221D01*
X576615Y1440712D01*
X577734Y1441137D01*
X578877Y1441493D01*
X580040Y1441780D01*
X581218Y1441995D01*
X582406Y1442140D01*
X583601Y1442212D01*
X584799Y1442212D01*
X585994Y1442140D01*
X587182Y1441995D01*
X588360Y1441780D01*
X589523Y1441493D01*
X590666Y1441137D01*
X591785Y1440712D01*
X592877Y1440221D01*
X593937Y1439664D01*
X594962Y1439045D01*
X595947Y1438365D01*
X596890Y1437626D01*
X597786Y1436833D01*
X598633Y1435986D01*
X599426Y1435090D01*
X600165Y1434147D01*
X600845Y1433162D01*
X601464Y1432137D01*
X602021Y1431077D01*
X602512Y1429985D01*
X602937Y1428866D01*
X603293Y1427723D01*
X603580Y1426560D01*
X603795Y1425382D01*
X603940Y1424194D01*
X604012Y1422999D01*
X604012Y1421801D01*
X53880Y727710D02*
X54959Y727639D01*
X56031Y727498D01*
X57091Y727287D01*
X58135Y727008D01*
X59159Y726660D01*
X60157Y726246D01*
X61127Y725768D01*
X62063Y725228D01*
X62962Y724627D01*
X63819Y723969D01*
X64632Y723257D01*
X65397Y722492D01*
X66109Y721679D01*
X66767Y720822D01*
X67368Y719923D01*
X67908Y718987D01*
X68386Y718017D01*
X68800Y717019D01*
X69148Y715995D01*
X69427Y714951D01*
X69638Y713891D01*
X69779Y712819D01*
X69850Y711740D01*
X69850Y710660D01*
X69779Y709581D01*
X69638Y708509D01*
X69427Y707449D01*
X69148Y706405D01*
X68800Y705381D01*
X68386Y704383D01*
X67908Y703413D01*
X67368Y702477D01*
X66767Y701578D01*
X66109Y700721D01*
X65397Y699908D01*
X64632Y699144D01*
X63819Y698431D01*
X62962Y697773D01*
X62063Y697172D01*
X61127Y696632D01*
X60157Y696154D01*
X59159Y695740D01*
X58135Y695392D01*
X57091Y695113D01*
X56031Y694902D01*
X54959Y694761D01*
X53880Y694690D01*
X52800Y694690D01*
X51721Y694761D01*
X50649Y694902D01*
X49589Y695113D01*
X48545Y695392D01*
X47521Y695740D01*
X46523Y696154D01*
X45553Y696632D01*
X44617Y697172D01*
X43718Y697773D01*
X42861Y698431D01*
X42048Y699144D01*
X41284Y699908D01*
X40571Y700721D01*
X39913Y701578D01*
X39312Y702477D01*
X38772Y703413D01*
X38294Y704383D01*
X37880Y705381D01*
X37532Y706405D01*
X37253Y707449D01*
X37042Y708509D01*
X36901Y709581D01*
X36830Y710660D01*
X36830Y711740D01*
X36901Y712819D01*
X37042Y713891D01*
X37253Y714951D01*
X37532Y715995D01*
X37880Y717019D01*
X38294Y718017D01*
X38772Y718987D01*
X39312Y719923D01*
X39913Y720822D01*
X40571Y721679D01*
X41284Y722492D01*
X42048Y723257D01*
X42861Y723969D01*
X43718Y724627D01*
X44617Y725228D01*
X45553Y725768D01*
X46523Y726246D01*
X47521Y726660D01*
X48545Y727008D01*
X49589Y727287D01*
X50649Y727498D01*
X51721Y727639D01*
X52800Y727710D01*
X53880Y727710D01*
M02*
