M48
;GenerationSoftware,Autodesk,EAGLE,9.6.1*%
;CreationDate,2024-12-09T07:18:44Z*%
FMAT,2
ICI,OFF
METRIC,TZ,000.000
T5C0.610
T4C0.813
T3C0.914
T2C1.016
T1C3.962
%
G90
M71
T1
X55880Y58420
T2
X63500Y3810
X50800Y6350
X53340Y6350
X55880Y6350
X58420Y6350
X60960Y6350
X63500Y6350
X53340Y3810
X55880Y3810
X58420Y3810
X60960Y3810
X20320Y3810
X22860Y3810
X25400Y3810
X27940Y3810
X20320Y6350
X22860Y6350
X25400Y6350
X27940Y6350
X30480Y3810
X30480Y6350
X33020Y3810
X35560Y3810
X40640Y3810
X43180Y3810
X45720Y3810
X33020Y6350
X35560Y6350
X38100Y6350
X40640Y6350
X43180Y6350
X38100Y3810
X45720Y6350
X48260Y3810
X48260Y6350
X50800Y3810
T3
X54610Y13970
X5080Y22860
X5080Y25400
X57150Y13970
T4
X19050Y13970
X45720Y48260
X43180Y48260
X68580Y48260
X66040Y48260
X81280Y48260
X78740Y48260
X71120Y66040
X36830Y35560
X44450Y27940
X44450Y30480
X90170Y31750
X90170Y34290
X44450Y13970
X44450Y16510
X41910Y21590
X39370Y21590
X36830Y21590
X34290Y21590
X31750Y21590
X29210Y21590
X26670Y21590
X24130Y21590
X21590Y21590
X19050Y21590
X21590Y13970
X24130Y13970
X26670Y13970
X29210Y13970
X31750Y13970
X34290Y13970
X36830Y13970
X39370Y13970
X41910Y13970
X87630Y39370
X85090Y39370
X72390Y39370
X69850Y39370
X82550Y39370
X80010Y39370
X74930Y39370
X77470Y39370
X67310Y39370
X64770Y39370
X64770Y31750
X67310Y31750
X69850Y31750
X72390Y31750
X74930Y31750
X77470Y31750
X80010Y31750
X82550Y31750
X85090Y31750
X87630Y31750
X41910Y35560
X39370Y35560
X26670Y35560
X24130Y35560
X34290Y35560
X29210Y35560
X31750Y35560
X21590Y35560
X19050Y35560
X19050Y27940
X21590Y27940
X24130Y27940
X26670Y27940
X29210Y27940
X31750Y27940
X34290Y27940
X36830Y27940
X39370Y27940
X41910Y27940
X90170Y26670
X87630Y26670
X85090Y26670
X82550Y26670
X80010Y26670
X77470Y26670
X74930Y26670
X72390Y26670
X69850Y26670
X87630Y21590
X85090Y21590
X72390Y21590
X69850Y21590
X82550Y21590
X80010Y21590
X74930Y21590
X22860Y68580
X69850Y13970
X72390Y13970
X74930Y13970
X77470Y13970
X80010Y13970
X82550Y13970
X85090Y13970
X87630Y13970
X77470Y21590
X2540Y68580
X2540Y66040
X2540Y63500
X2540Y60960
X2540Y58420
X2540Y53340
X10160Y53340
X10160Y58420
X10160Y63500
X10160Y66040
X10160Y68580
X15240Y68580
X15240Y66040
X15240Y63500
X15240Y60960
X15240Y58420
X15240Y53340
X22860Y53340
X22860Y58420
X22860Y63500
X22860Y66040
X27940Y68580
X27940Y66040
X27940Y63500
X27940Y60960
X27940Y58420
X27940Y53340
X35560Y53340
X35560Y58420
X35560Y63500
X35560Y66040
X35560Y68580
X40640Y68580
X40640Y66040
X40640Y63500
X40640Y60960
X40640Y58420
X40640Y53340
X48260Y53340
X48260Y58420
X48260Y63500
X48260Y66040
X48260Y68580
X63500Y68580
X63500Y66040
X63500Y63500
X63500Y60960
X63500Y58420
X63500Y53340
X71120Y53340
X71120Y58420
X71120Y63500
X71120Y68580
X76200Y68580
X76200Y66040
X76200Y63500
X76200Y60960
X76200Y58420
X76200Y53340
X83820Y53340
X83820Y58420
X83820Y63500
X83820Y66040
X83820Y68580
X7620Y33020
X5080Y33020
X7620Y15240
X5080Y15240
X7620Y48260
X5080Y48260
X20320Y48260
X17780Y48260
X33020Y48260
X30480Y48260
T5
X55880Y19685
X51435Y24130
X62230Y15875
X29210Y11430
X89535Y13970
X19050Y59690
X38735Y55245
X35560Y17780
X13970Y28575
X17780Y59055
X21590Y16510
X52070Y25400
X24130Y25400
X86995Y53340
X52070Y19685
X47625Y15240
X54610Y27940
X45085Y12065
X71120Y41910
X50165Y44450
X66675Y66675
X48895Y20955
X24130Y70485
X59690Y10160
X27940Y10795
X27940Y8890
X67310Y59690
X24130Y56515
X30480Y33655
X12065Y33655
X40640Y38100
X33655Y59690
X45085Y60960
X15240Y32385
X33655Y67310
X15875Y33655
X23495Y43180
X67945Y34925
X21590Y49530
X46990Y44450
X38100Y45720
X10795Y48895
X59690Y54610
X59055Y18415
X39370Y33020
X13970Y22225
X35560Y29845
M30