G04 EAGLE Gerber RS-274X export*
G75*
%MOMM*%
%FSLAX34Y34*%
%LPD*%
%INSilkscreen Bottom*%
%IPPOS*%
%AMOC8*
5,1,8,0,0,1.08239X$1,22.5*%
G01*
%ADD10C,0.127000*%
%ADD11C,0.101600*%
%ADD12C,0.152400*%


D10*
X2057400Y1269300D02*
X2057400Y1294700D01*
X2057400Y1320100D01*
X2066925Y1320100D01*
X2073275Y1320100D01*
X2082800Y1320100D01*
X2565400Y1320100D01*
X2565400Y1269300D01*
X2057400Y1269300D01*
X2057400Y1294700D02*
X2082800Y1294700D01*
X2082800Y1320100D01*
X2066925Y1320100D02*
X2066925Y1323275D01*
X2073275Y1323275D01*
X2073275Y1320100D01*
D11*
X2075772Y1332424D02*
X2072722Y1335475D01*
X2072722Y1326323D01*
X2075772Y1326323D02*
X2069671Y1326323D01*
D10*
X1986400Y1259700D02*
X1986400Y1559700D01*
X2636400Y1559700D01*
X2636400Y1259700D01*
X1986400Y1259700D01*
D12*
X505460Y648970D02*
X505460Y621030D01*
X487680Y618490D02*
X487580Y618492D01*
X487481Y618498D01*
X487381Y618508D01*
X487283Y618521D01*
X487184Y618539D01*
X487087Y618560D01*
X486991Y618585D01*
X486895Y618614D01*
X486801Y618647D01*
X486708Y618683D01*
X486617Y618723D01*
X486527Y618767D01*
X486439Y618814D01*
X486353Y618864D01*
X486269Y618918D01*
X486187Y618975D01*
X486108Y619035D01*
X486030Y619099D01*
X485956Y619165D01*
X485884Y619234D01*
X485815Y619306D01*
X485749Y619380D01*
X485685Y619458D01*
X485625Y619537D01*
X485568Y619619D01*
X485514Y619703D01*
X485464Y619789D01*
X485417Y619877D01*
X485373Y619967D01*
X485333Y620058D01*
X485297Y620151D01*
X485264Y620245D01*
X485235Y620341D01*
X485210Y620437D01*
X485189Y620534D01*
X485171Y620633D01*
X485158Y620731D01*
X485148Y620831D01*
X485142Y620930D01*
X485140Y621030D01*
X485140Y648970D02*
X485142Y649070D01*
X485148Y649169D01*
X485158Y649269D01*
X485171Y649367D01*
X485189Y649466D01*
X485210Y649563D01*
X485235Y649659D01*
X485264Y649755D01*
X485297Y649849D01*
X485333Y649942D01*
X485373Y650033D01*
X485417Y650123D01*
X485464Y650211D01*
X485514Y650297D01*
X485568Y650381D01*
X485625Y650463D01*
X485685Y650542D01*
X485749Y650620D01*
X485815Y650694D01*
X485884Y650766D01*
X485956Y650835D01*
X486030Y650901D01*
X486108Y650965D01*
X486187Y651025D01*
X486269Y651082D01*
X486353Y651136D01*
X486439Y651186D01*
X486527Y651233D01*
X486617Y651277D01*
X486708Y651317D01*
X486801Y651353D01*
X486895Y651386D01*
X486991Y651415D01*
X487087Y651440D01*
X487184Y651461D01*
X487283Y651479D01*
X487381Y651492D01*
X487481Y651502D01*
X487580Y651508D01*
X487680Y651510D01*
X502920Y651510D02*
X503020Y651508D01*
X503119Y651502D01*
X503219Y651492D01*
X503317Y651479D01*
X503416Y651461D01*
X503513Y651440D01*
X503609Y651415D01*
X503705Y651386D01*
X503799Y651353D01*
X503892Y651317D01*
X503983Y651277D01*
X504073Y651233D01*
X504161Y651186D01*
X504247Y651136D01*
X504331Y651082D01*
X504413Y651025D01*
X504492Y650965D01*
X504570Y650901D01*
X504644Y650835D01*
X504716Y650766D01*
X504785Y650694D01*
X504851Y650620D01*
X504915Y650542D01*
X504975Y650463D01*
X505032Y650381D01*
X505086Y650297D01*
X505136Y650211D01*
X505183Y650123D01*
X505227Y650033D01*
X505267Y649942D01*
X505303Y649849D01*
X505336Y649755D01*
X505365Y649659D01*
X505390Y649563D01*
X505411Y649466D01*
X505429Y649367D01*
X505442Y649269D01*
X505452Y649169D01*
X505458Y649070D01*
X505460Y648970D01*
X505460Y621030D02*
X505458Y620930D01*
X505452Y620831D01*
X505442Y620731D01*
X505429Y620633D01*
X505411Y620534D01*
X505390Y620437D01*
X505365Y620341D01*
X505336Y620245D01*
X505303Y620151D01*
X505267Y620058D01*
X505227Y619967D01*
X505183Y619877D01*
X505136Y619789D01*
X505086Y619703D01*
X505032Y619619D01*
X504975Y619537D01*
X504915Y619458D01*
X504851Y619380D01*
X504785Y619306D01*
X504716Y619234D01*
X504644Y619165D01*
X504570Y619099D01*
X504492Y619035D01*
X504413Y618975D01*
X504331Y618918D01*
X504247Y618864D01*
X504161Y618814D01*
X504073Y618767D01*
X503983Y618723D01*
X503892Y618683D01*
X503799Y618647D01*
X503705Y618614D01*
X503609Y618585D01*
X503513Y618560D01*
X503416Y618539D01*
X503317Y618521D01*
X503219Y618508D01*
X503119Y618498D01*
X503020Y618492D01*
X502920Y618490D01*
X487680Y618490D01*
X487680Y651510D02*
X502920Y651510D01*
X485140Y648970D02*
X485140Y621030D01*
D10*
X481338Y612996D02*
X483245Y611089D01*
X483245Y607276D01*
X481338Y605369D01*
X479432Y605369D01*
X477525Y607276D01*
X477525Y611089D01*
X475618Y612996D01*
X473712Y612996D01*
X471805Y611089D01*
X471805Y607276D01*
X473712Y605369D01*
X473712Y617063D02*
X471805Y618970D01*
X471805Y620876D01*
X473712Y622783D01*
X483245Y622783D01*
X483245Y620876D02*
X483245Y624690D01*
X471805Y628757D02*
X471805Y636383D01*
X471805Y628757D02*
X479432Y636383D01*
X481338Y636383D01*
X483245Y634477D01*
X483245Y630664D01*
X481338Y628757D01*
X481338Y640451D02*
X473712Y640451D01*
X481338Y640451D02*
X483245Y642358D01*
X483245Y646171D01*
X481338Y648077D01*
X473712Y648077D01*
X471805Y646171D01*
X471805Y642358D01*
X473712Y640451D01*
X481338Y648077D01*
D12*
X2416810Y454660D02*
X2459990Y454660D01*
X2462530Y436880D02*
X2462528Y436780D01*
X2462522Y436681D01*
X2462512Y436581D01*
X2462499Y436483D01*
X2462481Y436384D01*
X2462460Y436287D01*
X2462435Y436191D01*
X2462406Y436095D01*
X2462373Y436001D01*
X2462337Y435908D01*
X2462297Y435817D01*
X2462253Y435727D01*
X2462206Y435639D01*
X2462156Y435553D01*
X2462102Y435469D01*
X2462045Y435387D01*
X2461985Y435308D01*
X2461921Y435230D01*
X2461855Y435156D01*
X2461786Y435084D01*
X2461714Y435015D01*
X2461640Y434949D01*
X2461562Y434885D01*
X2461483Y434825D01*
X2461401Y434768D01*
X2461317Y434714D01*
X2461231Y434664D01*
X2461143Y434617D01*
X2461053Y434573D01*
X2460962Y434533D01*
X2460869Y434497D01*
X2460775Y434464D01*
X2460679Y434435D01*
X2460583Y434410D01*
X2460486Y434389D01*
X2460387Y434371D01*
X2460289Y434358D01*
X2460189Y434348D01*
X2460090Y434342D01*
X2459990Y434340D01*
X2416810Y434340D02*
X2416710Y434342D01*
X2416611Y434348D01*
X2416511Y434358D01*
X2416413Y434371D01*
X2416314Y434389D01*
X2416217Y434410D01*
X2416121Y434435D01*
X2416025Y434464D01*
X2415931Y434497D01*
X2415838Y434533D01*
X2415747Y434573D01*
X2415657Y434617D01*
X2415569Y434664D01*
X2415483Y434714D01*
X2415399Y434768D01*
X2415317Y434825D01*
X2415238Y434885D01*
X2415160Y434949D01*
X2415086Y435015D01*
X2415014Y435084D01*
X2414945Y435156D01*
X2414879Y435230D01*
X2414815Y435308D01*
X2414755Y435387D01*
X2414698Y435469D01*
X2414644Y435553D01*
X2414594Y435639D01*
X2414547Y435727D01*
X2414503Y435817D01*
X2414463Y435908D01*
X2414427Y436001D01*
X2414394Y436095D01*
X2414365Y436191D01*
X2414340Y436287D01*
X2414319Y436384D01*
X2414301Y436483D01*
X2414288Y436581D01*
X2414278Y436681D01*
X2414272Y436780D01*
X2414270Y436880D01*
X2414270Y452120D02*
X2414272Y452220D01*
X2414278Y452319D01*
X2414288Y452419D01*
X2414301Y452517D01*
X2414319Y452616D01*
X2414340Y452713D01*
X2414365Y452809D01*
X2414394Y452905D01*
X2414427Y452999D01*
X2414463Y453092D01*
X2414503Y453183D01*
X2414547Y453273D01*
X2414594Y453361D01*
X2414644Y453447D01*
X2414698Y453531D01*
X2414755Y453613D01*
X2414815Y453692D01*
X2414879Y453770D01*
X2414945Y453844D01*
X2415014Y453916D01*
X2415086Y453985D01*
X2415160Y454051D01*
X2415238Y454115D01*
X2415317Y454175D01*
X2415399Y454232D01*
X2415483Y454286D01*
X2415569Y454336D01*
X2415657Y454383D01*
X2415747Y454427D01*
X2415838Y454467D01*
X2415931Y454503D01*
X2416025Y454536D01*
X2416121Y454565D01*
X2416217Y454590D01*
X2416314Y454611D01*
X2416413Y454629D01*
X2416511Y454642D01*
X2416611Y454652D01*
X2416710Y454658D01*
X2416810Y454660D01*
X2459990Y454660D02*
X2460090Y454658D01*
X2460189Y454652D01*
X2460289Y454642D01*
X2460387Y454629D01*
X2460486Y454611D01*
X2460583Y454590D01*
X2460679Y454565D01*
X2460775Y454536D01*
X2460869Y454503D01*
X2460962Y454467D01*
X2461053Y454427D01*
X2461143Y454383D01*
X2461231Y454336D01*
X2461317Y454286D01*
X2461401Y454232D01*
X2461483Y454175D01*
X2461562Y454115D01*
X2461640Y454051D01*
X2461714Y453985D01*
X2461786Y453916D01*
X2461855Y453844D01*
X2461921Y453770D01*
X2461985Y453692D01*
X2462045Y453613D01*
X2462102Y453531D01*
X2462156Y453447D01*
X2462206Y453361D01*
X2462253Y453273D01*
X2462297Y453183D01*
X2462337Y453092D01*
X2462373Y452999D01*
X2462406Y452905D01*
X2462435Y452809D01*
X2462460Y452713D01*
X2462481Y452616D01*
X2462499Y452517D01*
X2462512Y452419D01*
X2462522Y452319D01*
X2462528Y452220D01*
X2462530Y452120D01*
X2462530Y436880D01*
X2414270Y436880D02*
X2414270Y452120D01*
X2416810Y434340D02*
X2459990Y434340D01*
D10*
X2442997Y431175D02*
X2441090Y429268D01*
X2442997Y431175D02*
X2446810Y431175D01*
X2448717Y429268D01*
X2448717Y427362D01*
X2446810Y425455D01*
X2442997Y425455D01*
X2441090Y423548D01*
X2441090Y421642D01*
X2442997Y419735D01*
X2446810Y419735D01*
X2448717Y421642D01*
X2437023Y421642D02*
X2435116Y419735D01*
X2433210Y419735D01*
X2431303Y421642D01*
X2431303Y431175D01*
X2429397Y431175D02*
X2433210Y431175D01*
X2425329Y427362D02*
X2421516Y431175D01*
X2421516Y419735D01*
X2425329Y419735D02*
X2417703Y419735D01*
D12*
X2385060Y773430D02*
X2385060Y801370D01*
X2364740Y773430D02*
X2364742Y773330D01*
X2364748Y773231D01*
X2364758Y773131D01*
X2364771Y773033D01*
X2364789Y772934D01*
X2364810Y772837D01*
X2364835Y772741D01*
X2364864Y772645D01*
X2364897Y772551D01*
X2364933Y772458D01*
X2364973Y772367D01*
X2365017Y772277D01*
X2365064Y772189D01*
X2365114Y772103D01*
X2365168Y772019D01*
X2365225Y771937D01*
X2365285Y771858D01*
X2365349Y771780D01*
X2365415Y771706D01*
X2365484Y771634D01*
X2365556Y771565D01*
X2365630Y771499D01*
X2365708Y771435D01*
X2365787Y771375D01*
X2365869Y771318D01*
X2365953Y771264D01*
X2366039Y771214D01*
X2366127Y771167D01*
X2366217Y771123D01*
X2366308Y771083D01*
X2366401Y771047D01*
X2366495Y771014D01*
X2366591Y770985D01*
X2366687Y770960D01*
X2366784Y770939D01*
X2366883Y770921D01*
X2366981Y770908D01*
X2367081Y770898D01*
X2367180Y770892D01*
X2367280Y770890D01*
X2364740Y801370D02*
X2364742Y801470D01*
X2364748Y801569D01*
X2364758Y801669D01*
X2364771Y801767D01*
X2364789Y801866D01*
X2364810Y801963D01*
X2364835Y802059D01*
X2364864Y802155D01*
X2364897Y802249D01*
X2364933Y802342D01*
X2364973Y802433D01*
X2365017Y802523D01*
X2365064Y802611D01*
X2365114Y802697D01*
X2365168Y802781D01*
X2365225Y802863D01*
X2365285Y802942D01*
X2365349Y803020D01*
X2365415Y803094D01*
X2365484Y803166D01*
X2365556Y803235D01*
X2365630Y803301D01*
X2365708Y803365D01*
X2365787Y803425D01*
X2365869Y803482D01*
X2365953Y803536D01*
X2366039Y803586D01*
X2366127Y803633D01*
X2366217Y803677D01*
X2366308Y803717D01*
X2366401Y803753D01*
X2366495Y803786D01*
X2366591Y803815D01*
X2366687Y803840D01*
X2366784Y803861D01*
X2366883Y803879D01*
X2366981Y803892D01*
X2367081Y803902D01*
X2367180Y803908D01*
X2367280Y803910D01*
X2382520Y803910D02*
X2382620Y803908D01*
X2382719Y803902D01*
X2382819Y803892D01*
X2382917Y803879D01*
X2383016Y803861D01*
X2383113Y803840D01*
X2383209Y803815D01*
X2383305Y803786D01*
X2383399Y803753D01*
X2383492Y803717D01*
X2383583Y803677D01*
X2383673Y803633D01*
X2383761Y803586D01*
X2383847Y803536D01*
X2383931Y803482D01*
X2384013Y803425D01*
X2384092Y803365D01*
X2384170Y803301D01*
X2384244Y803235D01*
X2384316Y803166D01*
X2384385Y803094D01*
X2384451Y803020D01*
X2384515Y802942D01*
X2384575Y802863D01*
X2384632Y802781D01*
X2384686Y802697D01*
X2384736Y802611D01*
X2384783Y802523D01*
X2384827Y802433D01*
X2384867Y802342D01*
X2384903Y802249D01*
X2384936Y802155D01*
X2384965Y802059D01*
X2384990Y801963D01*
X2385011Y801866D01*
X2385029Y801767D01*
X2385042Y801669D01*
X2385052Y801569D01*
X2385058Y801470D01*
X2385060Y801370D01*
X2385060Y773430D02*
X2385058Y773330D01*
X2385052Y773231D01*
X2385042Y773131D01*
X2385029Y773033D01*
X2385011Y772934D01*
X2384990Y772837D01*
X2384965Y772741D01*
X2384936Y772645D01*
X2384903Y772551D01*
X2384867Y772458D01*
X2384827Y772367D01*
X2384783Y772277D01*
X2384736Y772189D01*
X2384686Y772103D01*
X2384632Y772019D01*
X2384575Y771937D01*
X2384515Y771858D01*
X2384451Y771780D01*
X2384385Y771706D01*
X2384316Y771634D01*
X2384244Y771565D01*
X2384170Y771499D01*
X2384092Y771435D01*
X2384013Y771375D01*
X2383931Y771318D01*
X2383847Y771264D01*
X2383761Y771214D01*
X2383673Y771167D01*
X2383583Y771123D01*
X2383492Y771083D01*
X2383399Y771047D01*
X2383305Y771014D01*
X2383209Y770985D01*
X2383113Y770960D01*
X2383016Y770939D01*
X2382917Y770921D01*
X2382819Y770908D01*
X2382719Y770898D01*
X2382620Y770892D01*
X2382520Y770890D01*
X2367280Y770890D01*
X2367280Y803910D02*
X2382520Y803910D01*
X2364740Y801370D02*
X2364740Y773430D01*
D10*
X2375545Y813283D02*
X2373638Y815190D01*
X2375545Y813283D02*
X2375545Y809470D01*
X2373638Y807563D01*
X2371732Y807563D01*
X2369825Y809470D01*
X2369825Y813283D01*
X2367918Y815190D01*
X2366012Y815190D01*
X2364105Y813283D01*
X2364105Y809470D01*
X2366012Y807563D01*
X2366012Y819257D02*
X2364105Y821164D01*
X2364105Y823070D01*
X2366012Y824977D01*
X2375545Y824977D01*
X2375545Y823070D02*
X2375545Y826884D01*
X2373638Y830951D02*
X2375545Y832858D01*
X2375545Y836671D01*
X2373638Y838577D01*
X2371732Y838577D01*
X2369825Y836671D01*
X2367918Y838577D01*
X2366012Y838577D01*
X2364105Y836671D01*
X2364105Y832858D01*
X2366012Y830951D01*
X2367918Y830951D01*
X2369825Y832858D01*
X2371732Y830951D01*
X2373638Y830951D01*
X2369825Y832858D02*
X2369825Y836671D01*
D12*
X2410460Y801370D02*
X2410460Y773430D01*
X2392680Y770890D02*
X2392580Y770892D01*
X2392481Y770898D01*
X2392381Y770908D01*
X2392283Y770921D01*
X2392184Y770939D01*
X2392087Y770960D01*
X2391991Y770985D01*
X2391895Y771014D01*
X2391801Y771047D01*
X2391708Y771083D01*
X2391617Y771123D01*
X2391527Y771167D01*
X2391439Y771214D01*
X2391353Y771264D01*
X2391269Y771318D01*
X2391187Y771375D01*
X2391108Y771435D01*
X2391030Y771499D01*
X2390956Y771565D01*
X2390884Y771634D01*
X2390815Y771706D01*
X2390749Y771780D01*
X2390685Y771858D01*
X2390625Y771937D01*
X2390568Y772019D01*
X2390514Y772103D01*
X2390464Y772189D01*
X2390417Y772277D01*
X2390373Y772367D01*
X2390333Y772458D01*
X2390297Y772551D01*
X2390264Y772645D01*
X2390235Y772741D01*
X2390210Y772837D01*
X2390189Y772934D01*
X2390171Y773033D01*
X2390158Y773131D01*
X2390148Y773231D01*
X2390142Y773330D01*
X2390140Y773430D01*
X2390140Y801370D02*
X2390142Y801470D01*
X2390148Y801569D01*
X2390158Y801669D01*
X2390171Y801767D01*
X2390189Y801866D01*
X2390210Y801963D01*
X2390235Y802059D01*
X2390264Y802155D01*
X2390297Y802249D01*
X2390333Y802342D01*
X2390373Y802433D01*
X2390417Y802523D01*
X2390464Y802611D01*
X2390514Y802697D01*
X2390568Y802781D01*
X2390625Y802863D01*
X2390685Y802942D01*
X2390749Y803020D01*
X2390815Y803094D01*
X2390884Y803166D01*
X2390956Y803235D01*
X2391030Y803301D01*
X2391108Y803365D01*
X2391187Y803425D01*
X2391269Y803482D01*
X2391353Y803536D01*
X2391439Y803586D01*
X2391527Y803633D01*
X2391617Y803677D01*
X2391708Y803717D01*
X2391801Y803753D01*
X2391895Y803786D01*
X2391991Y803815D01*
X2392087Y803840D01*
X2392184Y803861D01*
X2392283Y803879D01*
X2392381Y803892D01*
X2392481Y803902D01*
X2392580Y803908D01*
X2392680Y803910D01*
X2407920Y803910D02*
X2408020Y803908D01*
X2408119Y803902D01*
X2408219Y803892D01*
X2408317Y803879D01*
X2408416Y803861D01*
X2408513Y803840D01*
X2408609Y803815D01*
X2408705Y803786D01*
X2408799Y803753D01*
X2408892Y803717D01*
X2408983Y803677D01*
X2409073Y803633D01*
X2409161Y803586D01*
X2409247Y803536D01*
X2409331Y803482D01*
X2409413Y803425D01*
X2409492Y803365D01*
X2409570Y803301D01*
X2409644Y803235D01*
X2409716Y803166D01*
X2409785Y803094D01*
X2409851Y803020D01*
X2409915Y802942D01*
X2409975Y802863D01*
X2410032Y802781D01*
X2410086Y802697D01*
X2410136Y802611D01*
X2410183Y802523D01*
X2410227Y802433D01*
X2410267Y802342D01*
X2410303Y802249D01*
X2410336Y802155D01*
X2410365Y802059D01*
X2410390Y801963D01*
X2410411Y801866D01*
X2410429Y801767D01*
X2410442Y801669D01*
X2410452Y801569D01*
X2410458Y801470D01*
X2410460Y801370D01*
X2410460Y773430D02*
X2410458Y773330D01*
X2410452Y773231D01*
X2410442Y773131D01*
X2410429Y773033D01*
X2410411Y772934D01*
X2410390Y772837D01*
X2410365Y772741D01*
X2410336Y772645D01*
X2410303Y772551D01*
X2410267Y772458D01*
X2410227Y772367D01*
X2410183Y772277D01*
X2410136Y772189D01*
X2410086Y772103D01*
X2410032Y772019D01*
X2409975Y771937D01*
X2409915Y771858D01*
X2409851Y771780D01*
X2409785Y771706D01*
X2409716Y771634D01*
X2409644Y771565D01*
X2409570Y771499D01*
X2409492Y771435D01*
X2409413Y771375D01*
X2409331Y771318D01*
X2409247Y771264D01*
X2409161Y771214D01*
X2409073Y771167D01*
X2408983Y771123D01*
X2408892Y771083D01*
X2408799Y771047D01*
X2408705Y771014D01*
X2408609Y770985D01*
X2408513Y770960D01*
X2408416Y770939D01*
X2408317Y770921D01*
X2408219Y770908D01*
X2408119Y770898D01*
X2408020Y770892D01*
X2407920Y770890D01*
X2392680Y770890D01*
X2392680Y803910D02*
X2407920Y803910D01*
X2390140Y801370D02*
X2390140Y773430D01*
D10*
X2400945Y813283D02*
X2399038Y815190D01*
X2400945Y813283D02*
X2400945Y809470D01*
X2399038Y807563D01*
X2397132Y807563D01*
X2395225Y809470D01*
X2395225Y813283D01*
X2393318Y815190D01*
X2391412Y815190D01*
X2389505Y813283D01*
X2389505Y809470D01*
X2391412Y807563D01*
X2391412Y819257D02*
X2389505Y821164D01*
X2389505Y823070D01*
X2391412Y824977D01*
X2400945Y824977D01*
X2400945Y823070D02*
X2400945Y826884D01*
X2391412Y830951D02*
X2389505Y832858D01*
X2389505Y836671D01*
X2391412Y838577D01*
X2399038Y838577D01*
X2400945Y836671D01*
X2400945Y832858D01*
X2399038Y830951D01*
X2397132Y830951D01*
X2395225Y832858D01*
X2395225Y838577D01*
M02*
