G04 EAGLE Gerber RS-274X export*
G75*
%MOMM*%
%FSLAX34Y34*%
%LPD*%
%INSoldermask Bottom*%
%IPPOS*%
%AMOC8*
5,1,8,0,0,1.08239X$1,22.5*%
G01*
%ADD10C,3.378200*%
%ADD11R,2.565400X7.823200*%
%ADD12C,1.524000*%
%ADD13P,1.649562X8X292.500000*%
%ADD14P,1.649562X8X22.500000*%
%ADD15R,1.727200X1.727200*%
%ADD16R,2.298700X2.298700*%
%ADD17C,1.625600*%
%ADD18P,1.649562X8X202.500000*%
%ADD19C,4.165600*%
%ADD20P,1.869504X8X202.500000*%
%ADD21P,1.869504X8X22.500000*%
%ADD22P,1.649562X8X112.500000*%
%ADD23P,1.951982X8X112.500000*%
%ADD24C,1.803400*%
%ADD25C,3.213100*%
%ADD26C,5.203200*%
%ADD27P,1.951982X8X22.500000*%
%ADD28C,2.082800*%
%ADD29C,1.879600*%
%ADD30C,3.505200*%
%ADD31C,1.411200*%
%ADD32P,1.951982X8X202.500000*%
%ADD33C,1.727200*%
%ADD34P,1.635708X8X22.500000*%
%ADD35P,1.759533X8X22.500000*%


D10*
X0Y0D03*
X2921000Y0D03*
X0Y1511300D03*
X2921000Y1511300D03*
X-12700Y939800D03*
X2908300Y939800D03*
X444500Y1524000D03*
X2489200Y1524000D03*
X444500Y1130300D03*
X2844800Y1130300D03*
D11*
X941324Y-95250D03*
X901700Y-95250D03*
X980948Y-95250D03*
X1020572Y-95250D03*
X1060196Y-95250D03*
X1099820Y-95250D03*
X1139444Y-95250D03*
X1179068Y-95250D03*
X1218692Y-95250D03*
X1258316Y-95250D03*
X1297940Y-95250D03*
X1337564Y-95250D03*
X1377188Y-95250D03*
X1416812Y-95250D03*
X1456436Y-95250D03*
X1496060Y-95250D03*
X1535684Y-95250D03*
X1575308Y-95250D03*
X1614932Y-95250D03*
X1654556Y-95250D03*
X1694180Y-95250D03*
X1733804Y-95250D03*
X69596Y-95250D03*
X109220Y-95250D03*
X148844Y-95250D03*
X188468Y-95250D03*
X228092Y-95250D03*
X267716Y-95250D03*
X307340Y-95250D03*
X346964Y-95250D03*
X386588Y-95250D03*
X426212Y-95250D03*
X465836Y-95250D03*
X505460Y-95250D03*
X545084Y-95250D03*
X584708Y-95250D03*
X624332Y-95250D03*
X663956Y-95250D03*
X703580Y-95250D03*
X743204Y-95250D03*
X782828Y-95250D03*
X822452Y-95250D03*
X862076Y-95250D03*
D12*
X1016000Y31496D02*
X1016000Y44704D01*
X1041400Y44704D02*
X1041400Y31496D01*
X1168400Y31496D02*
X1168400Y44704D01*
X1193800Y44704D02*
X1193800Y31496D01*
X1066800Y31496D02*
X1066800Y44704D01*
X1092200Y44704D02*
X1092200Y31496D01*
X1143000Y31496D02*
X1143000Y44704D01*
X1117600Y44704D02*
X1117600Y31496D01*
X1219200Y31496D02*
X1219200Y44704D01*
X1244600Y44704D02*
X1244600Y31496D01*
X1244600Y107696D02*
X1244600Y120904D01*
X1219200Y120904D02*
X1219200Y107696D01*
X1193800Y107696D02*
X1193800Y120904D01*
X1168400Y120904D02*
X1168400Y107696D01*
X1143000Y107696D02*
X1143000Y120904D01*
X1117600Y120904D02*
X1117600Y107696D01*
X1092200Y107696D02*
X1092200Y120904D01*
X1066800Y120904D02*
X1066800Y107696D01*
X1041400Y107696D02*
X1041400Y120904D01*
X1016000Y120904D02*
X1016000Y107696D01*
X1320800Y44704D02*
X1320800Y31496D01*
X1346200Y31496D02*
X1346200Y44704D01*
X1473200Y44704D02*
X1473200Y31496D01*
X1498600Y31496D02*
X1498600Y44704D01*
X1371600Y44704D02*
X1371600Y31496D01*
X1397000Y31496D02*
X1397000Y44704D01*
X1447800Y44704D02*
X1447800Y31496D01*
X1422400Y31496D02*
X1422400Y44704D01*
X1524000Y44704D02*
X1524000Y31496D01*
X1549400Y31496D02*
X1549400Y44704D01*
X1549400Y107696D02*
X1549400Y120904D01*
X1524000Y120904D02*
X1524000Y107696D01*
X1498600Y107696D02*
X1498600Y120904D01*
X1473200Y120904D02*
X1473200Y107696D01*
X1447800Y107696D02*
X1447800Y120904D01*
X1422400Y120904D02*
X1422400Y107696D01*
X1397000Y107696D02*
X1397000Y120904D01*
X1371600Y120904D02*
X1371600Y107696D01*
X1346200Y107696D02*
X1346200Y120904D01*
X1320800Y120904D02*
X1320800Y107696D01*
X1625600Y44704D02*
X1625600Y31496D01*
X1651000Y31496D02*
X1651000Y44704D01*
X1676400Y44704D02*
X1676400Y31496D01*
X1701800Y31496D02*
X1701800Y44704D01*
X1727200Y44704D02*
X1727200Y31496D01*
X1752600Y31496D02*
X1752600Y44704D01*
X1778000Y44704D02*
X1778000Y31496D01*
X1803400Y31496D02*
X1803400Y44704D01*
X1828800Y44704D02*
X1828800Y31496D01*
X1854200Y31496D02*
X1854200Y44704D01*
X1879600Y44704D02*
X1879600Y31496D01*
X1905000Y31496D02*
X1905000Y44704D01*
X1905000Y107696D02*
X1905000Y120904D01*
X1879600Y120904D02*
X1879600Y107696D01*
X1854200Y107696D02*
X1854200Y120904D01*
X1828800Y120904D02*
X1828800Y107696D01*
X1803400Y107696D02*
X1803400Y120904D01*
X1778000Y120904D02*
X1778000Y107696D01*
X1752600Y107696D02*
X1752600Y120904D01*
X1727200Y120904D02*
X1727200Y107696D01*
X1701800Y107696D02*
X1701800Y120904D01*
X1676400Y120904D02*
X1676400Y107696D01*
X1651000Y107696D02*
X1651000Y120904D01*
X1625600Y120904D02*
X1625600Y107696D01*
X749300Y44704D02*
X749300Y31496D01*
X774700Y31496D02*
X774700Y44704D01*
X901700Y44704D02*
X901700Y31496D01*
X927100Y31496D02*
X927100Y44704D01*
X800100Y44704D02*
X800100Y31496D01*
X825500Y31496D02*
X825500Y44704D01*
X876300Y44704D02*
X876300Y31496D01*
X850900Y31496D02*
X850900Y44704D01*
X927100Y107696D02*
X927100Y120904D01*
X901700Y120904D02*
X901700Y107696D01*
X876300Y107696D02*
X876300Y120904D01*
X850900Y120904D02*
X850900Y107696D01*
X825500Y107696D02*
X825500Y120904D01*
X800100Y120904D02*
X800100Y107696D01*
X774700Y107696D02*
X774700Y120904D01*
X749300Y120904D02*
X749300Y107696D01*
D13*
X749300Y990600D03*
X749300Y965200D03*
X495300Y114300D03*
X495300Y88900D03*
D14*
X1612900Y1073150D03*
X1638300Y1073150D03*
D13*
X1663700Y990600D03*
X1663700Y965200D03*
D14*
X1847850Y1073150D03*
X1873250Y1073150D03*
D13*
X1968500Y990600D03*
X1968500Y965200D03*
X2273300Y990600D03*
X2273300Y965200D03*
X723900Y114300D03*
X723900Y88900D03*
D14*
X1365250Y1073150D03*
X1390650Y1073150D03*
X882650Y1073150D03*
X908050Y1073150D03*
D13*
X990600Y114300D03*
X990600Y88900D03*
D14*
X641350Y1072515D03*
X666750Y1072515D03*
X1123950Y1073150D03*
X1149350Y1073150D03*
D13*
X1295400Y114300D03*
X1295400Y88900D03*
D14*
X2089150Y1073150D03*
X2114550Y1073150D03*
D13*
X1600200Y114300D03*
X1600200Y88900D03*
D15*
X2600579Y1523746D03*
X2555621Y1523746D03*
D16*
X2613152Y1498854D03*
X2543048Y1498854D03*
D17*
X2692400Y1505712D02*
X2692400Y1491488D01*
X2667000Y1491488D02*
X2667000Y1505712D01*
D14*
X2641600Y1447800D03*
X2717800Y1447800D03*
D18*
X2781300Y1498600D03*
X2755900Y1498600D03*
D17*
X304800Y1504188D02*
X304800Y1518412D01*
X330200Y1518412D02*
X330200Y1504188D01*
X355600Y1504188D02*
X355600Y1518412D01*
D19*
X2514600Y749300D03*
X1549400Y749300D03*
X2844800Y419100D03*
D20*
X1625600Y228600D03*
X1600200Y228600D03*
X1574800Y228600D03*
X1549400Y228600D03*
X1524000Y228600D03*
X1498600Y228600D03*
X1625600Y203200D03*
X1600200Y203200D03*
X1574800Y203200D03*
X1549400Y203200D03*
X1524000Y203200D03*
X1498600Y203200D03*
X1473200Y228600D03*
X1473200Y203200D03*
X1447800Y228600D03*
X1422400Y228600D03*
X1397000Y228600D03*
X1371600Y228600D03*
X1346200Y228600D03*
X1320800Y228600D03*
X1447800Y203200D03*
X1422400Y203200D03*
X1397000Y203200D03*
X1371600Y203200D03*
X1346200Y203200D03*
X1320800Y203200D03*
X1295400Y228600D03*
X1295400Y203200D03*
X1270000Y228600D03*
X1244600Y228600D03*
X1219200Y228600D03*
X1193800Y228600D03*
X1270000Y203200D03*
X1244600Y203200D03*
X1219200Y203200D03*
X1193800Y203200D03*
D19*
X584200Y749300D03*
D20*
X660400Y228600D03*
X635000Y228600D03*
X609600Y228600D03*
X584200Y228600D03*
X558800Y228600D03*
X533400Y228600D03*
X660400Y203200D03*
X635000Y203200D03*
X609600Y203200D03*
X584200Y203200D03*
X558800Y203200D03*
X533400Y203200D03*
X508000Y228600D03*
X508000Y203200D03*
X482600Y228600D03*
X457200Y228600D03*
X431800Y228600D03*
X406400Y228600D03*
X381000Y228600D03*
X355600Y228600D03*
X482600Y203200D03*
X457200Y203200D03*
X431800Y203200D03*
X406400Y203200D03*
X381000Y203200D03*
X355600Y203200D03*
X330200Y228600D03*
X330200Y203200D03*
X304800Y228600D03*
X279400Y228600D03*
X254000Y228600D03*
X228600Y228600D03*
X304800Y203200D03*
X279400Y203200D03*
X254000Y203200D03*
X228600Y203200D03*
D21*
X1485900Y292100D03*
X1511300Y292100D03*
X1282700Y292100D03*
X1308100Y292100D03*
X304800Y292100D03*
X330200Y292100D03*
X508000Y292100D03*
X533400Y292100D03*
D13*
X1054100Y990600D03*
X1054100Y965200D03*
X1358900Y990600D03*
X1358900Y965200D03*
D18*
X2330450Y1073150D03*
X2305050Y1073150D03*
D22*
X101600Y203200D03*
X101600Y228600D03*
D23*
X1981200Y88900D03*
D24*
X1981200Y63500D03*
D13*
X2578100Y990600D03*
X2578100Y965200D03*
D14*
X2489200Y1117600D03*
X2540000Y1117600D03*
D22*
X2044700Y50800D03*
X2044700Y101600D03*
D13*
X444500Y990600D03*
X444500Y965200D03*
D12*
X520700Y44704D02*
X520700Y31496D01*
X546100Y31496D02*
X546100Y44704D01*
X673100Y44704D02*
X673100Y31496D01*
X673100Y107696D02*
X673100Y120904D01*
X571500Y44704D02*
X571500Y31496D01*
X596900Y31496D02*
X596900Y44704D01*
X647700Y44704D02*
X647700Y31496D01*
X622300Y31496D02*
X622300Y44704D01*
X647700Y107696D02*
X647700Y120904D01*
X622300Y120904D02*
X622300Y107696D01*
X596900Y107696D02*
X596900Y120904D01*
X571500Y120904D02*
X571500Y107696D01*
X546100Y107696D02*
X546100Y120904D01*
X520700Y120904D02*
X520700Y107696D01*
D17*
X426212Y63500D02*
X411988Y63500D01*
X411988Y88900D02*
X426212Y88900D01*
X426212Y114300D02*
X411988Y114300D01*
D13*
X1219200Y1308100D03*
X1219200Y1231900D03*
D12*
X1009650Y1105154D02*
X1009650Y1091946D01*
X1035050Y1091946D02*
X1035050Y1105154D01*
X1162050Y1105154D02*
X1162050Y1091946D01*
X1187450Y1091946D02*
X1187450Y1105154D01*
X1060450Y1105154D02*
X1060450Y1091946D01*
X1085850Y1091946D02*
X1085850Y1105154D01*
X1136650Y1105154D02*
X1136650Y1091946D01*
X1111250Y1091946D02*
X1111250Y1105154D01*
X1187450Y1168146D02*
X1187450Y1181354D01*
X1162050Y1181354D02*
X1162050Y1168146D01*
X1136650Y1168146D02*
X1136650Y1181354D01*
X1111250Y1181354D02*
X1111250Y1168146D01*
X1085850Y1168146D02*
X1085850Y1181354D01*
X1060450Y1181354D02*
X1060450Y1168146D01*
X1035050Y1168146D02*
X1035050Y1181354D01*
X1009650Y1181354D02*
X1009650Y1168146D01*
D13*
X1460500Y1308100D03*
X1460500Y1231900D03*
X736600Y1308100D03*
X736600Y1231900D03*
X977900Y1308100D03*
X977900Y1231900D03*
D12*
X1250950Y1105154D02*
X1250950Y1091946D01*
X1276350Y1091946D02*
X1276350Y1105154D01*
X1403350Y1105154D02*
X1403350Y1091946D01*
X1428750Y1091946D02*
X1428750Y1105154D01*
X1301750Y1105154D02*
X1301750Y1091946D01*
X1327150Y1091946D02*
X1327150Y1105154D01*
X1377950Y1105154D02*
X1377950Y1091946D01*
X1352550Y1091946D02*
X1352550Y1105154D01*
X1428750Y1168146D02*
X1428750Y1181354D01*
X1403350Y1181354D02*
X1403350Y1168146D01*
X1377950Y1168146D02*
X1377950Y1181354D01*
X1352550Y1181354D02*
X1352550Y1168146D01*
X1327150Y1168146D02*
X1327150Y1181354D01*
X1301750Y1181354D02*
X1301750Y1168146D01*
X1276350Y1168146D02*
X1276350Y1181354D01*
X1250950Y1181354D02*
X1250950Y1168146D01*
X527050Y1105154D02*
X527050Y1091946D01*
X552450Y1091946D02*
X552450Y1105154D01*
X679450Y1105154D02*
X679450Y1091946D01*
X704850Y1091946D02*
X704850Y1105154D01*
X577850Y1105154D02*
X577850Y1091946D01*
X603250Y1091946D02*
X603250Y1105154D01*
X654050Y1105154D02*
X654050Y1091946D01*
X628650Y1091946D02*
X628650Y1105154D01*
X704850Y1168146D02*
X704850Y1181354D01*
X679450Y1181354D02*
X679450Y1168146D01*
X654050Y1168146D02*
X654050Y1181354D01*
X628650Y1181354D02*
X628650Y1168146D01*
X603250Y1168146D02*
X603250Y1181354D01*
X577850Y1181354D02*
X577850Y1168146D01*
X552450Y1168146D02*
X552450Y1181354D01*
X527050Y1181354D02*
X527050Y1168146D01*
X768350Y1105154D02*
X768350Y1091946D01*
X793750Y1091946D02*
X793750Y1105154D01*
X920750Y1105154D02*
X920750Y1091946D01*
X946150Y1091946D02*
X946150Y1105154D01*
X819150Y1105154D02*
X819150Y1091946D01*
X844550Y1091946D02*
X844550Y1105154D01*
X895350Y1105154D02*
X895350Y1091946D01*
X869950Y1091946D02*
X869950Y1105154D01*
X946150Y1168146D02*
X946150Y1181354D01*
X920750Y1181354D02*
X920750Y1168146D01*
X895350Y1168146D02*
X895350Y1181354D01*
X869950Y1181354D02*
X869950Y1168146D01*
X844550Y1168146D02*
X844550Y1181354D01*
X819150Y1181354D02*
X819150Y1168146D01*
X793750Y1168146D02*
X793750Y1181354D01*
X768350Y1181354D02*
X768350Y1168146D01*
D25*
X1098550Y1467950D03*
X1156050Y1377950D03*
X1156050Y1422950D03*
X1098550Y1287950D03*
X1156050Y1332950D03*
X1138550Y1297950D03*
X1138550Y1457950D03*
X1058550Y1457950D03*
X1041050Y1422950D03*
X1041050Y1377950D03*
X1041050Y1332950D03*
X1058550Y1297950D03*
D26*
X1098550Y1377950D03*
D25*
X1339850Y1467950D03*
X1397350Y1377950D03*
X1397350Y1422950D03*
X1339850Y1287950D03*
X1397350Y1332950D03*
X1379850Y1297950D03*
X1379850Y1457950D03*
X1299850Y1457950D03*
X1282350Y1422950D03*
X1282350Y1377950D03*
X1282350Y1332950D03*
X1299850Y1297950D03*
D26*
X1339850Y1377950D03*
D25*
X615950Y1467950D03*
X673450Y1377950D03*
X673450Y1422950D03*
X615950Y1287950D03*
X673450Y1332950D03*
X655950Y1297950D03*
X655950Y1457950D03*
X575950Y1457950D03*
X558450Y1422950D03*
X558450Y1377950D03*
X558450Y1332950D03*
X575950Y1297950D03*
D26*
X615950Y1377950D03*
D25*
X857250Y1467950D03*
X914750Y1377950D03*
X914750Y1422950D03*
X857250Y1287950D03*
X914750Y1332950D03*
X897250Y1297950D03*
X897250Y1457950D03*
X817250Y1457950D03*
X799750Y1422950D03*
X799750Y1377950D03*
X799750Y1332950D03*
X817250Y1297950D03*
D26*
X857250Y1377950D03*
D13*
X2184400Y1308100D03*
X2184400Y1231900D03*
D12*
X1974850Y1105154D02*
X1974850Y1091946D01*
X2000250Y1091946D02*
X2000250Y1105154D01*
X2127250Y1105154D02*
X2127250Y1091946D01*
X2152650Y1091946D02*
X2152650Y1105154D01*
X2025650Y1105154D02*
X2025650Y1091946D01*
X2051050Y1091946D02*
X2051050Y1105154D01*
X2101850Y1105154D02*
X2101850Y1091946D01*
X2076450Y1091946D02*
X2076450Y1105154D01*
X2152650Y1168146D02*
X2152650Y1181354D01*
X2127250Y1181354D02*
X2127250Y1168146D01*
X2101850Y1168146D02*
X2101850Y1181354D01*
X2076450Y1181354D02*
X2076450Y1168146D01*
X2051050Y1168146D02*
X2051050Y1181354D01*
X2025650Y1181354D02*
X2025650Y1168146D01*
X2000250Y1168146D02*
X2000250Y1181354D01*
X1974850Y1181354D02*
X1974850Y1168146D01*
D13*
X2425700Y1308100D03*
X2425700Y1231900D03*
X1701800Y1308100D03*
X1701800Y1231900D03*
X1943100Y1308100D03*
X1943100Y1231900D03*
D12*
X2216150Y1105154D02*
X2216150Y1091946D01*
X2241550Y1091946D02*
X2241550Y1105154D01*
X2368550Y1105154D02*
X2368550Y1091946D01*
X2393950Y1091946D02*
X2393950Y1105154D01*
X2266950Y1105154D02*
X2266950Y1091946D01*
X2292350Y1091946D02*
X2292350Y1105154D01*
X2343150Y1105154D02*
X2343150Y1091946D01*
X2317750Y1091946D02*
X2317750Y1105154D01*
X2393950Y1168146D02*
X2393950Y1181354D01*
X2368550Y1181354D02*
X2368550Y1168146D01*
X2343150Y1168146D02*
X2343150Y1181354D01*
X2317750Y1181354D02*
X2317750Y1168146D01*
X2292350Y1168146D02*
X2292350Y1181354D01*
X2266950Y1181354D02*
X2266950Y1168146D01*
X2241550Y1168146D02*
X2241550Y1181354D01*
X2216150Y1181354D02*
X2216150Y1168146D01*
X1492250Y1105154D02*
X1492250Y1091946D01*
X1517650Y1091946D02*
X1517650Y1105154D01*
X1644650Y1105154D02*
X1644650Y1091946D01*
X1670050Y1091946D02*
X1670050Y1105154D01*
X1543050Y1105154D02*
X1543050Y1091946D01*
X1568450Y1091946D02*
X1568450Y1105154D01*
X1619250Y1105154D02*
X1619250Y1091946D01*
X1593850Y1091946D02*
X1593850Y1105154D01*
X1670050Y1168146D02*
X1670050Y1181354D01*
X1644650Y1181354D02*
X1644650Y1168146D01*
X1619250Y1168146D02*
X1619250Y1181354D01*
X1593850Y1181354D02*
X1593850Y1168146D01*
X1568450Y1168146D02*
X1568450Y1181354D01*
X1543050Y1181354D02*
X1543050Y1168146D01*
X1517650Y1168146D02*
X1517650Y1181354D01*
X1492250Y1181354D02*
X1492250Y1168146D01*
X1733550Y1105154D02*
X1733550Y1091946D01*
X1758950Y1091946D02*
X1758950Y1105154D01*
X1885950Y1105154D02*
X1885950Y1091946D01*
X1911350Y1091946D02*
X1911350Y1105154D01*
X1784350Y1105154D02*
X1784350Y1091946D01*
X1809750Y1091946D02*
X1809750Y1105154D01*
X1860550Y1105154D02*
X1860550Y1091946D01*
X1835150Y1091946D02*
X1835150Y1105154D01*
X1911350Y1168146D02*
X1911350Y1181354D01*
X1885950Y1181354D02*
X1885950Y1168146D01*
X1860550Y1168146D02*
X1860550Y1181354D01*
X1835150Y1181354D02*
X1835150Y1168146D01*
X1809750Y1168146D02*
X1809750Y1181354D01*
X1784350Y1181354D02*
X1784350Y1168146D01*
X1758950Y1168146D02*
X1758950Y1181354D01*
X1733550Y1181354D02*
X1733550Y1168146D01*
D25*
X2063750Y1467950D03*
X2121250Y1377950D03*
X2121250Y1422950D03*
X2063750Y1287950D03*
X2121250Y1332950D03*
X2103750Y1297950D03*
X2103750Y1457950D03*
X2023750Y1457950D03*
X2006250Y1422950D03*
X2006250Y1377950D03*
X2006250Y1332950D03*
X2023750Y1297950D03*
D26*
X2063750Y1377950D03*
D25*
X2305050Y1467950D03*
X2362550Y1377950D03*
X2362550Y1422950D03*
X2305050Y1287950D03*
X2362550Y1332950D03*
X2345050Y1297950D03*
X2345050Y1457950D03*
X2265050Y1457950D03*
X2247550Y1422950D03*
X2247550Y1377950D03*
X2247550Y1332950D03*
X2265050Y1297950D03*
D26*
X2305050Y1377950D03*
D25*
X1581150Y1467950D03*
X1638650Y1377950D03*
X1638650Y1422950D03*
X1581150Y1287950D03*
X1638650Y1332950D03*
X1621150Y1297950D03*
X1621150Y1457950D03*
X1541150Y1457950D03*
X1523650Y1422950D03*
X1523650Y1377950D03*
X1523650Y1332950D03*
X1541150Y1297950D03*
D26*
X1581150Y1377950D03*
D25*
X1822450Y1467950D03*
X1879950Y1377950D03*
X1879950Y1422950D03*
X1822450Y1287950D03*
X1879950Y1332950D03*
X1862450Y1297950D03*
X1862450Y1457950D03*
X1782450Y1457950D03*
X1764950Y1422950D03*
X1764950Y1377950D03*
X1764950Y1332950D03*
X1782450Y1297950D03*
D26*
X1822450Y1377950D03*
D12*
X50800Y1251204D02*
X50800Y1237996D01*
X76200Y1237996D02*
X76200Y1251204D01*
X203200Y1251204D02*
X203200Y1237996D01*
X228600Y1237996D02*
X228600Y1251204D01*
X101600Y1251204D02*
X101600Y1237996D01*
X127000Y1237996D02*
X127000Y1251204D01*
X177800Y1251204D02*
X177800Y1237996D01*
X152400Y1237996D02*
X152400Y1251204D01*
X228600Y1314196D02*
X228600Y1327404D01*
X203200Y1327404D02*
X203200Y1314196D01*
X177800Y1314196D02*
X177800Y1327404D01*
X152400Y1327404D02*
X152400Y1314196D01*
X127000Y1314196D02*
X127000Y1327404D01*
X101600Y1327404D02*
X101600Y1314196D01*
X76200Y1314196D02*
X76200Y1327404D01*
X50800Y1327404D02*
X50800Y1314196D01*
D18*
X76200Y1130300D03*
X0Y1130300D03*
X178054Y1485900D03*
X228346Y1485900D03*
X203200Y1511300D03*
D27*
X177800Y1181100D03*
D24*
X152400Y1181100D03*
D13*
X0Y1320800D03*
X0Y1244600D03*
D14*
X50800Y1206500D03*
X127000Y1206500D03*
D18*
X279400Y1193800D03*
X203200Y1193800D03*
D14*
X165100Y965200D03*
X241300Y965200D03*
D12*
X348996Y965200D02*
X362204Y965200D01*
X286004Y965200D02*
X272796Y965200D01*
D28*
X304800Y1066800D03*
X285750Y1054100D03*
X304800Y1041400D03*
D13*
X355600Y1066800D03*
X355600Y990600D03*
D29*
X249682Y1028700D02*
X232918Y1028700D01*
X232918Y1054100D02*
X249682Y1054100D01*
X249682Y1079500D02*
X232918Y1079500D01*
D30*
X66040Y1054100D03*
D31*
X330600Y1149660D02*
X330600Y1161740D01*
X380600Y1161740D02*
X380600Y1149660D01*
D29*
X287782Y1257300D02*
X271018Y1257300D01*
X398018Y1257300D02*
X414782Y1257300D01*
D32*
X312420Y1346200D03*
D24*
X347980Y1346200D03*
D22*
X266700Y1371600D03*
X266700Y1447800D03*
D27*
X215900Y1371600D03*
D24*
X190500Y1371600D03*
D32*
X127000Y1371600D03*
D24*
X152400Y1371600D03*
D33*
X50800Y1176020D02*
X50800Y1160780D01*
X76200Y1160780D02*
X76200Y1176020D01*
X101600Y1176020D02*
X101600Y1160780D01*
D12*
X469900Y921004D02*
X469900Y907796D01*
X495300Y907796D02*
X495300Y921004D01*
X622300Y921004D02*
X622300Y907796D01*
X647700Y907796D02*
X647700Y921004D01*
X520700Y921004D02*
X520700Y907796D01*
X546100Y907796D02*
X546100Y921004D01*
X596900Y921004D02*
X596900Y907796D01*
X571500Y907796D02*
X571500Y921004D01*
X673100Y921004D02*
X673100Y907796D01*
X698500Y907796D02*
X698500Y921004D01*
X698500Y983996D02*
X698500Y997204D01*
X673100Y997204D02*
X673100Y983996D01*
X647700Y983996D02*
X647700Y997204D01*
X622300Y997204D02*
X622300Y983996D01*
X596900Y983996D02*
X596900Y997204D01*
X571500Y997204D02*
X571500Y983996D01*
X546100Y983996D02*
X546100Y997204D01*
X520700Y997204D02*
X520700Y983996D01*
X495300Y983996D02*
X495300Y997204D01*
X469900Y997204D02*
X469900Y983996D01*
X774700Y921004D02*
X774700Y907796D01*
X800100Y907796D02*
X800100Y921004D01*
X927100Y921004D02*
X927100Y907796D01*
X952500Y907796D02*
X952500Y921004D01*
X825500Y921004D02*
X825500Y907796D01*
X850900Y907796D02*
X850900Y921004D01*
X901700Y921004D02*
X901700Y907796D01*
X876300Y907796D02*
X876300Y921004D01*
X977900Y921004D02*
X977900Y907796D01*
X1003300Y907796D02*
X1003300Y921004D01*
X1003300Y983996D02*
X1003300Y997204D01*
X977900Y997204D02*
X977900Y983996D01*
X952500Y983996D02*
X952500Y997204D01*
X927100Y997204D02*
X927100Y983996D01*
X901700Y983996D02*
X901700Y997204D01*
X876300Y997204D02*
X876300Y983996D01*
X850900Y983996D02*
X850900Y997204D01*
X825500Y997204D02*
X825500Y983996D01*
X800100Y983996D02*
X800100Y997204D01*
X774700Y997204D02*
X774700Y983996D01*
X1079500Y921004D02*
X1079500Y907796D01*
X1104900Y907796D02*
X1104900Y921004D01*
X1231900Y921004D02*
X1231900Y907796D01*
X1257300Y907796D02*
X1257300Y921004D01*
X1130300Y921004D02*
X1130300Y907796D01*
X1155700Y907796D02*
X1155700Y921004D01*
X1206500Y921004D02*
X1206500Y907796D01*
X1181100Y907796D02*
X1181100Y921004D01*
X1282700Y921004D02*
X1282700Y907796D01*
X1308100Y907796D02*
X1308100Y921004D01*
X1308100Y983996D02*
X1308100Y997204D01*
X1282700Y997204D02*
X1282700Y983996D01*
X1257300Y983996D02*
X1257300Y997204D01*
X1231900Y997204D02*
X1231900Y983996D01*
X1206500Y983996D02*
X1206500Y997204D01*
X1181100Y997204D02*
X1181100Y983996D01*
X1155700Y983996D02*
X1155700Y997204D01*
X1130300Y997204D02*
X1130300Y983996D01*
X1104900Y983996D02*
X1104900Y997204D01*
X1079500Y997204D02*
X1079500Y983996D01*
X1384300Y921004D02*
X1384300Y907796D01*
X1409700Y907796D02*
X1409700Y921004D01*
X1536700Y921004D02*
X1536700Y907796D01*
X1562100Y907796D02*
X1562100Y921004D01*
X1435100Y921004D02*
X1435100Y907796D01*
X1460500Y907796D02*
X1460500Y921004D01*
X1511300Y921004D02*
X1511300Y907796D01*
X1485900Y907796D02*
X1485900Y921004D01*
X1587500Y921004D02*
X1587500Y907796D01*
X1612900Y907796D02*
X1612900Y921004D01*
X1612900Y983996D02*
X1612900Y997204D01*
X1587500Y997204D02*
X1587500Y983996D01*
X1562100Y983996D02*
X1562100Y997204D01*
X1536700Y997204D02*
X1536700Y983996D01*
X1511300Y983996D02*
X1511300Y997204D01*
X1485900Y997204D02*
X1485900Y983996D01*
X1460500Y983996D02*
X1460500Y997204D01*
X1435100Y997204D02*
X1435100Y983996D01*
X1409700Y983996D02*
X1409700Y997204D01*
X1384300Y997204D02*
X1384300Y983996D01*
X1689100Y921004D02*
X1689100Y907796D01*
X1714500Y907796D02*
X1714500Y921004D01*
X1841500Y921004D02*
X1841500Y907796D01*
X1866900Y907796D02*
X1866900Y921004D01*
X1739900Y921004D02*
X1739900Y907796D01*
X1765300Y907796D02*
X1765300Y921004D01*
X1816100Y921004D02*
X1816100Y907796D01*
X1790700Y907796D02*
X1790700Y921004D01*
X1892300Y921004D02*
X1892300Y907796D01*
X1917700Y907796D02*
X1917700Y921004D01*
X1917700Y983996D02*
X1917700Y997204D01*
X1892300Y997204D02*
X1892300Y983996D01*
X1866900Y983996D02*
X1866900Y997204D01*
X1841500Y997204D02*
X1841500Y983996D01*
X1816100Y983996D02*
X1816100Y997204D01*
X1790700Y997204D02*
X1790700Y983996D01*
X1765300Y983996D02*
X1765300Y997204D01*
X1739900Y997204D02*
X1739900Y983996D01*
X1714500Y983996D02*
X1714500Y997204D01*
X1689100Y997204D02*
X1689100Y983996D01*
X1993900Y921004D02*
X1993900Y907796D01*
X2019300Y907796D02*
X2019300Y921004D01*
X2146300Y921004D02*
X2146300Y907796D01*
X2171700Y907796D02*
X2171700Y921004D01*
X2044700Y921004D02*
X2044700Y907796D01*
X2070100Y907796D02*
X2070100Y921004D01*
X2120900Y921004D02*
X2120900Y907796D01*
X2095500Y907796D02*
X2095500Y921004D01*
X2197100Y921004D02*
X2197100Y907796D01*
X2222500Y907796D02*
X2222500Y921004D01*
X2222500Y983996D02*
X2222500Y997204D01*
X2197100Y997204D02*
X2197100Y983996D01*
X2171700Y983996D02*
X2171700Y997204D01*
X2146300Y997204D02*
X2146300Y983996D01*
X2120900Y983996D02*
X2120900Y997204D01*
X2095500Y997204D02*
X2095500Y983996D01*
X2070100Y983996D02*
X2070100Y997204D01*
X2044700Y997204D02*
X2044700Y983996D01*
X2019300Y983996D02*
X2019300Y997204D01*
X1993900Y997204D02*
X1993900Y983996D01*
X2298700Y921004D02*
X2298700Y907796D01*
X2324100Y907796D02*
X2324100Y921004D01*
X2451100Y921004D02*
X2451100Y907796D01*
X2476500Y907796D02*
X2476500Y921004D01*
X2349500Y921004D02*
X2349500Y907796D01*
X2374900Y907796D02*
X2374900Y921004D01*
X2425700Y921004D02*
X2425700Y907796D01*
X2400300Y907796D02*
X2400300Y921004D01*
X2501900Y921004D02*
X2501900Y907796D01*
X2527300Y907796D02*
X2527300Y921004D01*
X2527300Y983996D02*
X2527300Y997204D01*
X2501900Y997204D02*
X2501900Y983996D01*
X2476500Y983996D02*
X2476500Y997204D01*
X2451100Y997204D02*
X2451100Y983996D01*
X2425700Y983996D02*
X2425700Y997204D01*
X2400300Y997204D02*
X2400300Y983996D01*
X2374900Y983996D02*
X2374900Y997204D01*
X2349500Y997204D02*
X2349500Y983996D01*
X2324100Y983996D02*
X2324100Y997204D01*
X2298700Y997204D02*
X2298700Y983996D01*
X2603500Y921004D02*
X2603500Y907796D01*
X2628900Y907796D02*
X2628900Y921004D01*
X2755900Y921004D02*
X2755900Y907796D01*
X2781300Y907796D02*
X2781300Y921004D01*
X2654300Y921004D02*
X2654300Y907796D01*
X2679700Y907796D02*
X2679700Y921004D01*
X2730500Y921004D02*
X2730500Y907796D01*
X2705100Y907796D02*
X2705100Y921004D01*
X2806700Y921004D02*
X2806700Y907796D01*
X2832100Y907796D02*
X2832100Y921004D01*
X2832100Y983996D02*
X2832100Y997204D01*
X2806700Y997204D02*
X2806700Y983996D01*
X2781300Y983996D02*
X2781300Y997204D01*
X2755900Y997204D02*
X2755900Y983996D01*
X2730500Y983996D02*
X2730500Y997204D01*
X2705100Y997204D02*
X2705100Y983996D01*
X2679700Y983996D02*
X2679700Y997204D01*
X2654300Y997204D02*
X2654300Y983996D01*
X2628900Y983996D02*
X2628900Y997204D01*
X2603500Y997204D02*
X2603500Y983996D01*
D28*
X2514600Y1397000D03*
X2527300Y1416050D03*
X2540000Y1397000D03*
D14*
X2489200Y1358900D03*
X2565400Y1358900D03*
D28*
X2616200Y1397000D03*
X2628900Y1416050D03*
X2641600Y1397000D03*
D14*
X2590800Y1358900D03*
X2667000Y1358900D03*
D28*
X2717800Y1397000D03*
X2730500Y1416050D03*
X2743200Y1397000D03*
D14*
X2692400Y1358900D03*
X2768600Y1358900D03*
D28*
X2819400Y1397000D03*
X2832100Y1416050D03*
X2844800Y1397000D03*
D14*
X2794000Y1358900D03*
X2870200Y1358900D03*
D28*
X2514600Y1257300D03*
X2527300Y1276350D03*
X2540000Y1257300D03*
D14*
X2489200Y1219200D03*
X2565400Y1219200D03*
D28*
X2616200Y1257300D03*
X2628900Y1276350D03*
X2641600Y1257300D03*
D14*
X2590800Y1219200D03*
X2667000Y1219200D03*
D28*
X2717800Y1257300D03*
X2730500Y1276350D03*
X2743200Y1257300D03*
D14*
X2692400Y1219200D03*
X2768600Y1219200D03*
D28*
X2819400Y1257300D03*
X2832100Y1276350D03*
X2844800Y1257300D03*
D14*
X2794000Y1219200D03*
X2870200Y1219200D03*
D29*
X135382Y101600D02*
X118618Y101600D01*
X8382Y101600D02*
X-8382Y101600D01*
X194818Y63500D02*
X211582Y63500D01*
X321818Y63500D02*
X338582Y63500D01*
D34*
X2552700Y838200D03*
X1663700Y317500D03*
X850900Y279400D03*
D12*
X2222500Y44704D02*
X2222500Y31496D01*
X2247900Y31496D02*
X2247900Y44704D01*
X2374900Y44704D02*
X2374900Y31496D01*
X2400300Y31496D02*
X2400300Y44704D01*
X2273300Y44704D02*
X2273300Y31496D01*
X2298700Y31496D02*
X2298700Y44704D01*
X2349500Y44704D02*
X2349500Y31496D01*
X2324100Y31496D02*
X2324100Y44704D01*
X2425700Y44704D02*
X2425700Y31496D01*
X2451100Y31496D02*
X2451100Y44704D01*
X2451100Y107696D02*
X2451100Y120904D01*
X2425700Y120904D02*
X2425700Y107696D01*
X2400300Y107696D02*
X2400300Y120904D01*
X2374900Y120904D02*
X2374900Y107696D01*
X2349500Y107696D02*
X2349500Y120904D01*
X2324100Y120904D02*
X2324100Y107696D01*
X2298700Y107696D02*
X2298700Y120904D01*
X2273300Y120904D02*
X2273300Y107696D01*
X2247900Y107696D02*
X2247900Y120904D01*
X2222500Y120904D02*
X2222500Y107696D01*
X2552700Y44704D02*
X2552700Y31496D01*
X2578100Y31496D02*
X2578100Y44704D01*
X2603500Y44704D02*
X2603500Y31496D01*
X2628900Y31496D02*
X2628900Y44704D01*
X2654300Y44704D02*
X2654300Y31496D01*
X2679700Y31496D02*
X2679700Y44704D01*
X2705100Y44704D02*
X2705100Y31496D01*
X2730500Y31496D02*
X2730500Y44704D01*
X2755900Y44704D02*
X2755900Y31496D01*
X2781300Y31496D02*
X2781300Y44704D01*
X2806700Y44704D02*
X2806700Y31496D01*
X2832100Y31496D02*
X2832100Y44704D01*
X2832100Y107696D02*
X2832100Y120904D01*
X2806700Y120904D02*
X2806700Y107696D01*
X2781300Y107696D02*
X2781300Y120904D01*
X2755900Y120904D02*
X2755900Y107696D01*
X2730500Y107696D02*
X2730500Y120904D01*
X2705100Y120904D02*
X2705100Y107696D01*
X2679700Y107696D02*
X2679700Y120904D01*
X2654300Y120904D02*
X2654300Y107696D01*
X2628900Y107696D02*
X2628900Y120904D01*
X2603500Y120904D02*
X2603500Y107696D01*
X2578100Y107696D02*
X2578100Y120904D01*
X2552700Y120904D02*
X2552700Y107696D01*
D13*
X2197100Y114300D03*
X2197100Y88900D03*
X2527300Y114300D03*
X2527300Y88900D03*
D35*
X2108200Y76200D03*
X2108200Y101600D03*
X2133600Y76200D03*
X2133600Y101600D03*
D18*
X2171700Y12700D03*
X2095500Y12700D03*
D21*
X482600Y292100D03*
X1460500Y292100D03*
D29*
X186182Y457200D02*
X169418Y457200D01*
X169418Y482600D02*
X186182Y482600D01*
X186182Y508000D02*
X169418Y508000D01*
D30*
X27940Y482600D03*
D22*
X228600Y419100D03*
X228600Y469900D03*
D17*
X127000Y350012D02*
X127000Y335788D01*
X152400Y335788D02*
X152400Y350012D01*
D13*
X228600Y533400D03*
X228600Y508000D03*
D34*
X1752600Y152400D03*
X1727200Y152400D03*
D19*
X1549400Y1041400D03*
D20*
X1625600Y520700D03*
X1600200Y520700D03*
X1574800Y520700D03*
X1549400Y520700D03*
X1524000Y520700D03*
X1498600Y520700D03*
X1625600Y495300D03*
X1600200Y495300D03*
X1574800Y495300D03*
X1549400Y495300D03*
X1524000Y495300D03*
X1498600Y495300D03*
X1473200Y520700D03*
X1473200Y495300D03*
X1447800Y520700D03*
X1422400Y520700D03*
X1397000Y520700D03*
X1371600Y520700D03*
X1346200Y520700D03*
X1320800Y520700D03*
X1447800Y495300D03*
X1422400Y495300D03*
X1397000Y495300D03*
X1371600Y495300D03*
X1346200Y495300D03*
X1320800Y495300D03*
X1295400Y520700D03*
X1295400Y495300D03*
X1270000Y520700D03*
X1244600Y520700D03*
X1219200Y520700D03*
X1193800Y520700D03*
X1270000Y495300D03*
X1244600Y495300D03*
X1219200Y495300D03*
X1193800Y495300D03*
D21*
X1473200Y431800D03*
X1498600Y431800D03*
X1270000Y431800D03*
X1295400Y431800D03*
X1447800Y431800D03*
D34*
X406400Y1346200D03*
M02*
