G04 EAGLE Gerber RS-274X export*
G75*
%MOMM*%
%FSLAX34Y34*%
%LPD*%
%INBoard Outline*%
%IPPOS*%
%AMOC8*
5,1,8,0,0,1.08239X$1,22.5*%
G01*
%ADD10C,0.000000*%
%ADD11C,0.254000*%


D10*
X32766Y-139700D02*
X1768856Y-139700D01*
X1768856Y-63500D01*
X2039620Y-63500D01*
X2039620Y-139700D01*
X2819400Y-139700D01*
X2819400Y-63500D01*
X2984500Y-63500D01*
X2984500Y1498600D01*
X2921000Y1574800D01*
X0Y1574800D01*
X-63500Y1511300D01*
X-63500Y-63500D01*
X32766Y-63500D01*
X32766Y-139700D01*
X-15875Y0D02*
X-15870Y390D01*
X-15856Y779D01*
X-15832Y1168D01*
X-15799Y1556D01*
X-15756Y1943D01*
X-15703Y2329D01*
X-15641Y2714D01*
X-15570Y3097D01*
X-15489Y3478D01*
X-15399Y3857D01*
X-15300Y4234D01*
X-15191Y4608D01*
X-15074Y4980D01*
X-14947Y5348D01*
X-14811Y5713D01*
X-14667Y6075D01*
X-14513Y6433D01*
X-14351Y6787D01*
X-14180Y7138D01*
X-14001Y7483D01*
X-13813Y7825D01*
X-13616Y8161D01*
X-13412Y8493D01*
X-13200Y8820D01*
X-12979Y9141D01*
X-12751Y9457D01*
X-12515Y9767D01*
X-12272Y10071D01*
X-12021Y10369D01*
X-11763Y10661D01*
X-11497Y10946D01*
X-11225Y11225D01*
X-10946Y11497D01*
X-10661Y11763D01*
X-10369Y12021D01*
X-10071Y12272D01*
X-9767Y12515D01*
X-9457Y12751D01*
X-9141Y12979D01*
X-8820Y13200D01*
X-8493Y13412D01*
X-8161Y13616D01*
X-7825Y13813D01*
X-7483Y14001D01*
X-7138Y14180D01*
X-6787Y14351D01*
X-6433Y14513D01*
X-6075Y14667D01*
X-5713Y14811D01*
X-5348Y14947D01*
X-4980Y15074D01*
X-4608Y15191D01*
X-4234Y15300D01*
X-3857Y15399D01*
X-3478Y15489D01*
X-3097Y15570D01*
X-2714Y15641D01*
X-2329Y15703D01*
X-1943Y15756D01*
X-1556Y15799D01*
X-1168Y15832D01*
X-779Y15856D01*
X-390Y15870D01*
X0Y15875D01*
X390Y15870D01*
X779Y15856D01*
X1168Y15832D01*
X1556Y15799D01*
X1943Y15756D01*
X2329Y15703D01*
X2714Y15641D01*
X3097Y15570D01*
X3478Y15489D01*
X3857Y15399D01*
X4234Y15300D01*
X4608Y15191D01*
X4980Y15074D01*
X5348Y14947D01*
X5713Y14811D01*
X6075Y14667D01*
X6433Y14513D01*
X6787Y14351D01*
X7138Y14180D01*
X7483Y14001D01*
X7825Y13813D01*
X8161Y13616D01*
X8493Y13412D01*
X8820Y13200D01*
X9141Y12979D01*
X9457Y12751D01*
X9767Y12515D01*
X10071Y12272D01*
X10369Y12021D01*
X10661Y11763D01*
X10946Y11497D01*
X11225Y11225D01*
X11497Y10946D01*
X11763Y10661D01*
X12021Y10369D01*
X12272Y10071D01*
X12515Y9767D01*
X12751Y9457D01*
X12979Y9141D01*
X13200Y8820D01*
X13412Y8493D01*
X13616Y8161D01*
X13813Y7825D01*
X14001Y7483D01*
X14180Y7138D01*
X14351Y6787D01*
X14513Y6433D01*
X14667Y6075D01*
X14811Y5713D01*
X14947Y5348D01*
X15074Y4980D01*
X15191Y4608D01*
X15300Y4234D01*
X15399Y3857D01*
X15489Y3478D01*
X15570Y3097D01*
X15641Y2714D01*
X15703Y2329D01*
X15756Y1943D01*
X15799Y1556D01*
X15832Y1168D01*
X15856Y779D01*
X15870Y390D01*
X15875Y0D01*
X15870Y-390D01*
X15856Y-779D01*
X15832Y-1168D01*
X15799Y-1556D01*
X15756Y-1943D01*
X15703Y-2329D01*
X15641Y-2714D01*
X15570Y-3097D01*
X15489Y-3478D01*
X15399Y-3857D01*
X15300Y-4234D01*
X15191Y-4608D01*
X15074Y-4980D01*
X14947Y-5348D01*
X14811Y-5713D01*
X14667Y-6075D01*
X14513Y-6433D01*
X14351Y-6787D01*
X14180Y-7138D01*
X14001Y-7483D01*
X13813Y-7825D01*
X13616Y-8161D01*
X13412Y-8493D01*
X13200Y-8820D01*
X12979Y-9141D01*
X12751Y-9457D01*
X12515Y-9767D01*
X12272Y-10071D01*
X12021Y-10369D01*
X11763Y-10661D01*
X11497Y-10946D01*
X11225Y-11225D01*
X10946Y-11497D01*
X10661Y-11763D01*
X10369Y-12021D01*
X10071Y-12272D01*
X9767Y-12515D01*
X9457Y-12751D01*
X9141Y-12979D01*
X8820Y-13200D01*
X8493Y-13412D01*
X8161Y-13616D01*
X7825Y-13813D01*
X7483Y-14001D01*
X7138Y-14180D01*
X6787Y-14351D01*
X6433Y-14513D01*
X6075Y-14667D01*
X5713Y-14811D01*
X5348Y-14947D01*
X4980Y-15074D01*
X4608Y-15191D01*
X4234Y-15300D01*
X3857Y-15399D01*
X3478Y-15489D01*
X3097Y-15570D01*
X2714Y-15641D01*
X2329Y-15703D01*
X1943Y-15756D01*
X1556Y-15799D01*
X1168Y-15832D01*
X779Y-15856D01*
X390Y-15870D01*
X0Y-15875D01*
X-390Y-15870D01*
X-779Y-15856D01*
X-1168Y-15832D01*
X-1556Y-15799D01*
X-1943Y-15756D01*
X-2329Y-15703D01*
X-2714Y-15641D01*
X-3097Y-15570D01*
X-3478Y-15489D01*
X-3857Y-15399D01*
X-4234Y-15300D01*
X-4608Y-15191D01*
X-4980Y-15074D01*
X-5348Y-14947D01*
X-5713Y-14811D01*
X-6075Y-14667D01*
X-6433Y-14513D01*
X-6787Y-14351D01*
X-7138Y-14180D01*
X-7483Y-14001D01*
X-7825Y-13813D01*
X-8161Y-13616D01*
X-8493Y-13412D01*
X-8820Y-13200D01*
X-9141Y-12979D01*
X-9457Y-12751D01*
X-9767Y-12515D01*
X-10071Y-12272D01*
X-10369Y-12021D01*
X-10661Y-11763D01*
X-10946Y-11497D01*
X-11225Y-11225D01*
X-11497Y-10946D01*
X-11763Y-10661D01*
X-12021Y-10369D01*
X-12272Y-10071D01*
X-12515Y-9767D01*
X-12751Y-9457D01*
X-12979Y-9141D01*
X-13200Y-8820D01*
X-13412Y-8493D01*
X-13616Y-8161D01*
X-13813Y-7825D01*
X-14001Y-7483D01*
X-14180Y-7138D01*
X-14351Y-6787D01*
X-14513Y-6433D01*
X-14667Y-6075D01*
X-14811Y-5713D01*
X-14947Y-5348D01*
X-15074Y-4980D01*
X-15191Y-4608D01*
X-15300Y-4234D01*
X-15399Y-3857D01*
X-15489Y-3478D01*
X-15570Y-3097D01*
X-15641Y-2714D01*
X-15703Y-2329D01*
X-15756Y-1943D01*
X-15799Y-1556D01*
X-15832Y-1168D01*
X-15856Y-779D01*
X-15870Y-390D01*
X-15875Y0D01*
X2905125Y0D02*
X2905130Y390D01*
X2905144Y779D01*
X2905168Y1168D01*
X2905201Y1556D01*
X2905244Y1943D01*
X2905297Y2329D01*
X2905359Y2714D01*
X2905430Y3097D01*
X2905511Y3478D01*
X2905601Y3857D01*
X2905700Y4234D01*
X2905809Y4608D01*
X2905926Y4980D01*
X2906053Y5348D01*
X2906189Y5713D01*
X2906333Y6075D01*
X2906487Y6433D01*
X2906649Y6787D01*
X2906820Y7138D01*
X2906999Y7483D01*
X2907187Y7825D01*
X2907384Y8161D01*
X2907588Y8493D01*
X2907800Y8820D01*
X2908021Y9141D01*
X2908249Y9457D01*
X2908485Y9767D01*
X2908728Y10071D01*
X2908979Y10369D01*
X2909237Y10661D01*
X2909503Y10946D01*
X2909775Y11225D01*
X2910054Y11497D01*
X2910339Y11763D01*
X2910631Y12021D01*
X2910929Y12272D01*
X2911233Y12515D01*
X2911543Y12751D01*
X2911859Y12979D01*
X2912180Y13200D01*
X2912507Y13412D01*
X2912839Y13616D01*
X2913175Y13813D01*
X2913517Y14001D01*
X2913862Y14180D01*
X2914213Y14351D01*
X2914567Y14513D01*
X2914925Y14667D01*
X2915287Y14811D01*
X2915652Y14947D01*
X2916020Y15074D01*
X2916392Y15191D01*
X2916766Y15300D01*
X2917143Y15399D01*
X2917522Y15489D01*
X2917903Y15570D01*
X2918286Y15641D01*
X2918671Y15703D01*
X2919057Y15756D01*
X2919444Y15799D01*
X2919832Y15832D01*
X2920221Y15856D01*
X2920610Y15870D01*
X2921000Y15875D01*
X2921390Y15870D01*
X2921779Y15856D01*
X2922168Y15832D01*
X2922556Y15799D01*
X2922943Y15756D01*
X2923329Y15703D01*
X2923714Y15641D01*
X2924097Y15570D01*
X2924478Y15489D01*
X2924857Y15399D01*
X2925234Y15300D01*
X2925608Y15191D01*
X2925980Y15074D01*
X2926348Y14947D01*
X2926713Y14811D01*
X2927075Y14667D01*
X2927433Y14513D01*
X2927787Y14351D01*
X2928138Y14180D01*
X2928483Y14001D01*
X2928825Y13813D01*
X2929161Y13616D01*
X2929493Y13412D01*
X2929820Y13200D01*
X2930141Y12979D01*
X2930457Y12751D01*
X2930767Y12515D01*
X2931071Y12272D01*
X2931369Y12021D01*
X2931661Y11763D01*
X2931946Y11497D01*
X2932225Y11225D01*
X2932497Y10946D01*
X2932763Y10661D01*
X2933021Y10369D01*
X2933272Y10071D01*
X2933515Y9767D01*
X2933751Y9457D01*
X2933979Y9141D01*
X2934200Y8820D01*
X2934412Y8493D01*
X2934616Y8161D01*
X2934813Y7825D01*
X2935001Y7483D01*
X2935180Y7138D01*
X2935351Y6787D01*
X2935513Y6433D01*
X2935667Y6075D01*
X2935811Y5713D01*
X2935947Y5348D01*
X2936074Y4980D01*
X2936191Y4608D01*
X2936300Y4234D01*
X2936399Y3857D01*
X2936489Y3478D01*
X2936570Y3097D01*
X2936641Y2714D01*
X2936703Y2329D01*
X2936756Y1943D01*
X2936799Y1556D01*
X2936832Y1168D01*
X2936856Y779D01*
X2936870Y390D01*
X2936875Y0D01*
X2936870Y-390D01*
X2936856Y-779D01*
X2936832Y-1168D01*
X2936799Y-1556D01*
X2936756Y-1943D01*
X2936703Y-2329D01*
X2936641Y-2714D01*
X2936570Y-3097D01*
X2936489Y-3478D01*
X2936399Y-3857D01*
X2936300Y-4234D01*
X2936191Y-4608D01*
X2936074Y-4980D01*
X2935947Y-5348D01*
X2935811Y-5713D01*
X2935667Y-6075D01*
X2935513Y-6433D01*
X2935351Y-6787D01*
X2935180Y-7138D01*
X2935001Y-7483D01*
X2934813Y-7825D01*
X2934616Y-8161D01*
X2934412Y-8493D01*
X2934200Y-8820D01*
X2933979Y-9141D01*
X2933751Y-9457D01*
X2933515Y-9767D01*
X2933272Y-10071D01*
X2933021Y-10369D01*
X2932763Y-10661D01*
X2932497Y-10946D01*
X2932225Y-11225D01*
X2931946Y-11497D01*
X2931661Y-11763D01*
X2931369Y-12021D01*
X2931071Y-12272D01*
X2930767Y-12515D01*
X2930457Y-12751D01*
X2930141Y-12979D01*
X2929820Y-13200D01*
X2929493Y-13412D01*
X2929161Y-13616D01*
X2928825Y-13813D01*
X2928483Y-14001D01*
X2928138Y-14180D01*
X2927787Y-14351D01*
X2927433Y-14513D01*
X2927075Y-14667D01*
X2926713Y-14811D01*
X2926348Y-14947D01*
X2925980Y-15074D01*
X2925608Y-15191D01*
X2925234Y-15300D01*
X2924857Y-15399D01*
X2924478Y-15489D01*
X2924097Y-15570D01*
X2923714Y-15641D01*
X2923329Y-15703D01*
X2922943Y-15756D01*
X2922556Y-15799D01*
X2922168Y-15832D01*
X2921779Y-15856D01*
X2921390Y-15870D01*
X2921000Y-15875D01*
X2920610Y-15870D01*
X2920221Y-15856D01*
X2919832Y-15832D01*
X2919444Y-15799D01*
X2919057Y-15756D01*
X2918671Y-15703D01*
X2918286Y-15641D01*
X2917903Y-15570D01*
X2917522Y-15489D01*
X2917143Y-15399D01*
X2916766Y-15300D01*
X2916392Y-15191D01*
X2916020Y-15074D01*
X2915652Y-14947D01*
X2915287Y-14811D01*
X2914925Y-14667D01*
X2914567Y-14513D01*
X2914213Y-14351D01*
X2913862Y-14180D01*
X2913517Y-14001D01*
X2913175Y-13813D01*
X2912839Y-13616D01*
X2912507Y-13412D01*
X2912180Y-13200D01*
X2911859Y-12979D01*
X2911543Y-12751D01*
X2911233Y-12515D01*
X2910929Y-12272D01*
X2910631Y-12021D01*
X2910339Y-11763D01*
X2910054Y-11497D01*
X2909775Y-11225D01*
X2909503Y-10946D01*
X2909237Y-10661D01*
X2908979Y-10369D01*
X2908728Y-10071D01*
X2908485Y-9767D01*
X2908249Y-9457D01*
X2908021Y-9141D01*
X2907800Y-8820D01*
X2907588Y-8493D01*
X2907384Y-8161D01*
X2907187Y-7825D01*
X2906999Y-7483D01*
X2906820Y-7138D01*
X2906649Y-6787D01*
X2906487Y-6433D01*
X2906333Y-6075D01*
X2906189Y-5713D01*
X2906053Y-5348D01*
X2905926Y-4980D01*
X2905809Y-4608D01*
X2905700Y-4234D01*
X2905601Y-3857D01*
X2905511Y-3478D01*
X2905430Y-3097D01*
X2905359Y-2714D01*
X2905297Y-2329D01*
X2905244Y-1943D01*
X2905201Y-1556D01*
X2905168Y-1168D01*
X2905144Y-779D01*
X2905130Y-390D01*
X2905125Y0D01*
X-15875Y1511300D02*
X-15870Y1511690D01*
X-15856Y1512079D01*
X-15832Y1512468D01*
X-15799Y1512856D01*
X-15756Y1513243D01*
X-15703Y1513629D01*
X-15641Y1514014D01*
X-15570Y1514397D01*
X-15489Y1514778D01*
X-15399Y1515157D01*
X-15300Y1515534D01*
X-15191Y1515908D01*
X-15074Y1516280D01*
X-14947Y1516648D01*
X-14811Y1517013D01*
X-14667Y1517375D01*
X-14513Y1517733D01*
X-14351Y1518087D01*
X-14180Y1518438D01*
X-14001Y1518783D01*
X-13813Y1519125D01*
X-13616Y1519461D01*
X-13412Y1519793D01*
X-13200Y1520120D01*
X-12979Y1520441D01*
X-12751Y1520757D01*
X-12515Y1521067D01*
X-12272Y1521371D01*
X-12021Y1521669D01*
X-11763Y1521961D01*
X-11497Y1522246D01*
X-11225Y1522525D01*
X-10946Y1522797D01*
X-10661Y1523063D01*
X-10369Y1523321D01*
X-10071Y1523572D01*
X-9767Y1523815D01*
X-9457Y1524051D01*
X-9141Y1524279D01*
X-8820Y1524500D01*
X-8493Y1524712D01*
X-8161Y1524916D01*
X-7825Y1525113D01*
X-7483Y1525301D01*
X-7138Y1525480D01*
X-6787Y1525651D01*
X-6433Y1525813D01*
X-6075Y1525967D01*
X-5713Y1526111D01*
X-5348Y1526247D01*
X-4980Y1526374D01*
X-4608Y1526491D01*
X-4234Y1526600D01*
X-3857Y1526699D01*
X-3478Y1526789D01*
X-3097Y1526870D01*
X-2714Y1526941D01*
X-2329Y1527003D01*
X-1943Y1527056D01*
X-1556Y1527099D01*
X-1168Y1527132D01*
X-779Y1527156D01*
X-390Y1527170D01*
X0Y1527175D01*
X390Y1527170D01*
X779Y1527156D01*
X1168Y1527132D01*
X1556Y1527099D01*
X1943Y1527056D01*
X2329Y1527003D01*
X2714Y1526941D01*
X3097Y1526870D01*
X3478Y1526789D01*
X3857Y1526699D01*
X4234Y1526600D01*
X4608Y1526491D01*
X4980Y1526374D01*
X5348Y1526247D01*
X5713Y1526111D01*
X6075Y1525967D01*
X6433Y1525813D01*
X6787Y1525651D01*
X7138Y1525480D01*
X7483Y1525301D01*
X7825Y1525113D01*
X8161Y1524916D01*
X8493Y1524712D01*
X8820Y1524500D01*
X9141Y1524279D01*
X9457Y1524051D01*
X9767Y1523815D01*
X10071Y1523572D01*
X10369Y1523321D01*
X10661Y1523063D01*
X10946Y1522797D01*
X11225Y1522525D01*
X11497Y1522246D01*
X11763Y1521961D01*
X12021Y1521669D01*
X12272Y1521371D01*
X12515Y1521067D01*
X12751Y1520757D01*
X12979Y1520441D01*
X13200Y1520120D01*
X13412Y1519793D01*
X13616Y1519461D01*
X13813Y1519125D01*
X14001Y1518783D01*
X14180Y1518438D01*
X14351Y1518087D01*
X14513Y1517733D01*
X14667Y1517375D01*
X14811Y1517013D01*
X14947Y1516648D01*
X15074Y1516280D01*
X15191Y1515908D01*
X15300Y1515534D01*
X15399Y1515157D01*
X15489Y1514778D01*
X15570Y1514397D01*
X15641Y1514014D01*
X15703Y1513629D01*
X15756Y1513243D01*
X15799Y1512856D01*
X15832Y1512468D01*
X15856Y1512079D01*
X15870Y1511690D01*
X15875Y1511300D01*
X15870Y1510910D01*
X15856Y1510521D01*
X15832Y1510132D01*
X15799Y1509744D01*
X15756Y1509357D01*
X15703Y1508971D01*
X15641Y1508586D01*
X15570Y1508203D01*
X15489Y1507822D01*
X15399Y1507443D01*
X15300Y1507066D01*
X15191Y1506692D01*
X15074Y1506320D01*
X14947Y1505952D01*
X14811Y1505587D01*
X14667Y1505225D01*
X14513Y1504867D01*
X14351Y1504513D01*
X14180Y1504162D01*
X14001Y1503817D01*
X13813Y1503475D01*
X13616Y1503139D01*
X13412Y1502807D01*
X13200Y1502480D01*
X12979Y1502159D01*
X12751Y1501843D01*
X12515Y1501533D01*
X12272Y1501229D01*
X12021Y1500931D01*
X11763Y1500639D01*
X11497Y1500354D01*
X11225Y1500075D01*
X10946Y1499803D01*
X10661Y1499537D01*
X10369Y1499279D01*
X10071Y1499028D01*
X9767Y1498785D01*
X9457Y1498549D01*
X9141Y1498321D01*
X8820Y1498100D01*
X8493Y1497888D01*
X8161Y1497684D01*
X7825Y1497487D01*
X7483Y1497299D01*
X7138Y1497120D01*
X6787Y1496949D01*
X6433Y1496787D01*
X6075Y1496633D01*
X5713Y1496489D01*
X5348Y1496353D01*
X4980Y1496226D01*
X4608Y1496109D01*
X4234Y1496000D01*
X3857Y1495901D01*
X3478Y1495811D01*
X3097Y1495730D01*
X2714Y1495659D01*
X2329Y1495597D01*
X1943Y1495544D01*
X1556Y1495501D01*
X1168Y1495468D01*
X779Y1495444D01*
X390Y1495430D01*
X0Y1495425D01*
X-390Y1495430D01*
X-779Y1495444D01*
X-1168Y1495468D01*
X-1556Y1495501D01*
X-1943Y1495544D01*
X-2329Y1495597D01*
X-2714Y1495659D01*
X-3097Y1495730D01*
X-3478Y1495811D01*
X-3857Y1495901D01*
X-4234Y1496000D01*
X-4608Y1496109D01*
X-4980Y1496226D01*
X-5348Y1496353D01*
X-5713Y1496489D01*
X-6075Y1496633D01*
X-6433Y1496787D01*
X-6787Y1496949D01*
X-7138Y1497120D01*
X-7483Y1497299D01*
X-7825Y1497487D01*
X-8161Y1497684D01*
X-8493Y1497888D01*
X-8820Y1498100D01*
X-9141Y1498321D01*
X-9457Y1498549D01*
X-9767Y1498785D01*
X-10071Y1499028D01*
X-10369Y1499279D01*
X-10661Y1499537D01*
X-10946Y1499803D01*
X-11225Y1500075D01*
X-11497Y1500354D01*
X-11763Y1500639D01*
X-12021Y1500931D01*
X-12272Y1501229D01*
X-12515Y1501533D01*
X-12751Y1501843D01*
X-12979Y1502159D01*
X-13200Y1502480D01*
X-13412Y1502807D01*
X-13616Y1503139D01*
X-13813Y1503475D01*
X-14001Y1503817D01*
X-14180Y1504162D01*
X-14351Y1504513D01*
X-14513Y1504867D01*
X-14667Y1505225D01*
X-14811Y1505587D01*
X-14947Y1505952D01*
X-15074Y1506320D01*
X-15191Y1506692D01*
X-15300Y1507066D01*
X-15399Y1507443D01*
X-15489Y1507822D01*
X-15570Y1508203D01*
X-15641Y1508586D01*
X-15703Y1508971D01*
X-15756Y1509357D01*
X-15799Y1509744D01*
X-15832Y1510132D01*
X-15856Y1510521D01*
X-15870Y1510910D01*
X-15875Y1511300D01*
X2905125Y1511300D02*
X2905130Y1511690D01*
X2905144Y1512079D01*
X2905168Y1512468D01*
X2905201Y1512856D01*
X2905244Y1513243D01*
X2905297Y1513629D01*
X2905359Y1514014D01*
X2905430Y1514397D01*
X2905511Y1514778D01*
X2905601Y1515157D01*
X2905700Y1515534D01*
X2905809Y1515908D01*
X2905926Y1516280D01*
X2906053Y1516648D01*
X2906189Y1517013D01*
X2906333Y1517375D01*
X2906487Y1517733D01*
X2906649Y1518087D01*
X2906820Y1518438D01*
X2906999Y1518783D01*
X2907187Y1519125D01*
X2907384Y1519461D01*
X2907588Y1519793D01*
X2907800Y1520120D01*
X2908021Y1520441D01*
X2908249Y1520757D01*
X2908485Y1521067D01*
X2908728Y1521371D01*
X2908979Y1521669D01*
X2909237Y1521961D01*
X2909503Y1522246D01*
X2909775Y1522525D01*
X2910054Y1522797D01*
X2910339Y1523063D01*
X2910631Y1523321D01*
X2910929Y1523572D01*
X2911233Y1523815D01*
X2911543Y1524051D01*
X2911859Y1524279D01*
X2912180Y1524500D01*
X2912507Y1524712D01*
X2912839Y1524916D01*
X2913175Y1525113D01*
X2913517Y1525301D01*
X2913862Y1525480D01*
X2914213Y1525651D01*
X2914567Y1525813D01*
X2914925Y1525967D01*
X2915287Y1526111D01*
X2915652Y1526247D01*
X2916020Y1526374D01*
X2916392Y1526491D01*
X2916766Y1526600D01*
X2917143Y1526699D01*
X2917522Y1526789D01*
X2917903Y1526870D01*
X2918286Y1526941D01*
X2918671Y1527003D01*
X2919057Y1527056D01*
X2919444Y1527099D01*
X2919832Y1527132D01*
X2920221Y1527156D01*
X2920610Y1527170D01*
X2921000Y1527175D01*
X2921390Y1527170D01*
X2921779Y1527156D01*
X2922168Y1527132D01*
X2922556Y1527099D01*
X2922943Y1527056D01*
X2923329Y1527003D01*
X2923714Y1526941D01*
X2924097Y1526870D01*
X2924478Y1526789D01*
X2924857Y1526699D01*
X2925234Y1526600D01*
X2925608Y1526491D01*
X2925980Y1526374D01*
X2926348Y1526247D01*
X2926713Y1526111D01*
X2927075Y1525967D01*
X2927433Y1525813D01*
X2927787Y1525651D01*
X2928138Y1525480D01*
X2928483Y1525301D01*
X2928825Y1525113D01*
X2929161Y1524916D01*
X2929493Y1524712D01*
X2929820Y1524500D01*
X2930141Y1524279D01*
X2930457Y1524051D01*
X2930767Y1523815D01*
X2931071Y1523572D01*
X2931369Y1523321D01*
X2931661Y1523063D01*
X2931946Y1522797D01*
X2932225Y1522525D01*
X2932497Y1522246D01*
X2932763Y1521961D01*
X2933021Y1521669D01*
X2933272Y1521371D01*
X2933515Y1521067D01*
X2933751Y1520757D01*
X2933979Y1520441D01*
X2934200Y1520120D01*
X2934412Y1519793D01*
X2934616Y1519461D01*
X2934813Y1519125D01*
X2935001Y1518783D01*
X2935180Y1518438D01*
X2935351Y1518087D01*
X2935513Y1517733D01*
X2935667Y1517375D01*
X2935811Y1517013D01*
X2935947Y1516648D01*
X2936074Y1516280D01*
X2936191Y1515908D01*
X2936300Y1515534D01*
X2936399Y1515157D01*
X2936489Y1514778D01*
X2936570Y1514397D01*
X2936641Y1514014D01*
X2936703Y1513629D01*
X2936756Y1513243D01*
X2936799Y1512856D01*
X2936832Y1512468D01*
X2936856Y1512079D01*
X2936870Y1511690D01*
X2936875Y1511300D01*
X2936870Y1510910D01*
X2936856Y1510521D01*
X2936832Y1510132D01*
X2936799Y1509744D01*
X2936756Y1509357D01*
X2936703Y1508971D01*
X2936641Y1508586D01*
X2936570Y1508203D01*
X2936489Y1507822D01*
X2936399Y1507443D01*
X2936300Y1507066D01*
X2936191Y1506692D01*
X2936074Y1506320D01*
X2935947Y1505952D01*
X2935811Y1505587D01*
X2935667Y1505225D01*
X2935513Y1504867D01*
X2935351Y1504513D01*
X2935180Y1504162D01*
X2935001Y1503817D01*
X2934813Y1503475D01*
X2934616Y1503139D01*
X2934412Y1502807D01*
X2934200Y1502480D01*
X2933979Y1502159D01*
X2933751Y1501843D01*
X2933515Y1501533D01*
X2933272Y1501229D01*
X2933021Y1500931D01*
X2932763Y1500639D01*
X2932497Y1500354D01*
X2932225Y1500075D01*
X2931946Y1499803D01*
X2931661Y1499537D01*
X2931369Y1499279D01*
X2931071Y1499028D01*
X2930767Y1498785D01*
X2930457Y1498549D01*
X2930141Y1498321D01*
X2929820Y1498100D01*
X2929493Y1497888D01*
X2929161Y1497684D01*
X2928825Y1497487D01*
X2928483Y1497299D01*
X2928138Y1497120D01*
X2927787Y1496949D01*
X2927433Y1496787D01*
X2927075Y1496633D01*
X2926713Y1496489D01*
X2926348Y1496353D01*
X2925980Y1496226D01*
X2925608Y1496109D01*
X2925234Y1496000D01*
X2924857Y1495901D01*
X2924478Y1495811D01*
X2924097Y1495730D01*
X2923714Y1495659D01*
X2923329Y1495597D01*
X2922943Y1495544D01*
X2922556Y1495501D01*
X2922168Y1495468D01*
X2921779Y1495444D01*
X2921390Y1495430D01*
X2921000Y1495425D01*
X2920610Y1495430D01*
X2920221Y1495444D01*
X2919832Y1495468D01*
X2919444Y1495501D01*
X2919057Y1495544D01*
X2918671Y1495597D01*
X2918286Y1495659D01*
X2917903Y1495730D01*
X2917522Y1495811D01*
X2917143Y1495901D01*
X2916766Y1496000D01*
X2916392Y1496109D01*
X2916020Y1496226D01*
X2915652Y1496353D01*
X2915287Y1496489D01*
X2914925Y1496633D01*
X2914567Y1496787D01*
X2914213Y1496949D01*
X2913862Y1497120D01*
X2913517Y1497299D01*
X2913175Y1497487D01*
X2912839Y1497684D01*
X2912507Y1497888D01*
X2912180Y1498100D01*
X2911859Y1498321D01*
X2911543Y1498549D01*
X2911233Y1498785D01*
X2910929Y1499028D01*
X2910631Y1499279D01*
X2910339Y1499537D01*
X2910054Y1499803D01*
X2909775Y1500075D01*
X2909503Y1500354D01*
X2909237Y1500639D01*
X2908979Y1500931D01*
X2908728Y1501229D01*
X2908485Y1501533D01*
X2908249Y1501843D01*
X2908021Y1502159D01*
X2907800Y1502480D01*
X2907588Y1502807D01*
X2907384Y1503139D01*
X2907187Y1503475D01*
X2906999Y1503817D01*
X2906820Y1504162D01*
X2906649Y1504513D01*
X2906487Y1504867D01*
X2906333Y1505225D01*
X2906189Y1505587D01*
X2906053Y1505952D01*
X2905926Y1506320D01*
X2905809Y1506692D01*
X2905700Y1507066D01*
X2905601Y1507443D01*
X2905511Y1507822D01*
X2905430Y1508203D01*
X2905359Y1508586D01*
X2905297Y1508971D01*
X2905244Y1509357D01*
X2905201Y1509744D01*
X2905168Y1510132D01*
X2905144Y1510521D01*
X2905130Y1510910D01*
X2905125Y1511300D01*
X-28575Y939800D02*
X-28570Y940190D01*
X-28556Y940579D01*
X-28532Y940968D01*
X-28499Y941356D01*
X-28456Y941743D01*
X-28403Y942129D01*
X-28341Y942514D01*
X-28270Y942897D01*
X-28189Y943278D01*
X-28099Y943657D01*
X-28000Y944034D01*
X-27891Y944408D01*
X-27774Y944780D01*
X-27647Y945148D01*
X-27511Y945513D01*
X-27367Y945875D01*
X-27213Y946233D01*
X-27051Y946587D01*
X-26880Y946938D01*
X-26701Y947283D01*
X-26513Y947625D01*
X-26316Y947961D01*
X-26112Y948293D01*
X-25900Y948620D01*
X-25679Y948941D01*
X-25451Y949257D01*
X-25215Y949567D01*
X-24972Y949871D01*
X-24721Y950169D01*
X-24463Y950461D01*
X-24197Y950746D01*
X-23925Y951025D01*
X-23646Y951297D01*
X-23361Y951563D01*
X-23069Y951821D01*
X-22771Y952072D01*
X-22467Y952315D01*
X-22157Y952551D01*
X-21841Y952779D01*
X-21520Y953000D01*
X-21193Y953212D01*
X-20861Y953416D01*
X-20525Y953613D01*
X-20183Y953801D01*
X-19838Y953980D01*
X-19487Y954151D01*
X-19133Y954313D01*
X-18775Y954467D01*
X-18413Y954611D01*
X-18048Y954747D01*
X-17680Y954874D01*
X-17308Y954991D01*
X-16934Y955100D01*
X-16557Y955199D01*
X-16178Y955289D01*
X-15797Y955370D01*
X-15414Y955441D01*
X-15029Y955503D01*
X-14643Y955556D01*
X-14256Y955599D01*
X-13868Y955632D01*
X-13479Y955656D01*
X-13090Y955670D01*
X-12700Y955675D01*
X-12310Y955670D01*
X-11921Y955656D01*
X-11532Y955632D01*
X-11144Y955599D01*
X-10757Y955556D01*
X-10371Y955503D01*
X-9986Y955441D01*
X-9603Y955370D01*
X-9222Y955289D01*
X-8843Y955199D01*
X-8466Y955100D01*
X-8092Y954991D01*
X-7720Y954874D01*
X-7352Y954747D01*
X-6987Y954611D01*
X-6625Y954467D01*
X-6267Y954313D01*
X-5913Y954151D01*
X-5562Y953980D01*
X-5217Y953801D01*
X-4875Y953613D01*
X-4539Y953416D01*
X-4207Y953212D01*
X-3880Y953000D01*
X-3559Y952779D01*
X-3243Y952551D01*
X-2933Y952315D01*
X-2629Y952072D01*
X-2331Y951821D01*
X-2039Y951563D01*
X-1754Y951297D01*
X-1475Y951025D01*
X-1203Y950746D01*
X-937Y950461D01*
X-679Y950169D01*
X-428Y949871D01*
X-185Y949567D01*
X51Y949257D01*
X279Y948941D01*
X500Y948620D01*
X712Y948293D01*
X916Y947961D01*
X1113Y947625D01*
X1301Y947283D01*
X1480Y946938D01*
X1651Y946587D01*
X1813Y946233D01*
X1967Y945875D01*
X2111Y945513D01*
X2247Y945148D01*
X2374Y944780D01*
X2491Y944408D01*
X2600Y944034D01*
X2699Y943657D01*
X2789Y943278D01*
X2870Y942897D01*
X2941Y942514D01*
X3003Y942129D01*
X3056Y941743D01*
X3099Y941356D01*
X3132Y940968D01*
X3156Y940579D01*
X3170Y940190D01*
X3175Y939800D01*
X3170Y939410D01*
X3156Y939021D01*
X3132Y938632D01*
X3099Y938244D01*
X3056Y937857D01*
X3003Y937471D01*
X2941Y937086D01*
X2870Y936703D01*
X2789Y936322D01*
X2699Y935943D01*
X2600Y935566D01*
X2491Y935192D01*
X2374Y934820D01*
X2247Y934452D01*
X2111Y934087D01*
X1967Y933725D01*
X1813Y933367D01*
X1651Y933013D01*
X1480Y932662D01*
X1301Y932317D01*
X1113Y931975D01*
X916Y931639D01*
X712Y931307D01*
X500Y930980D01*
X279Y930659D01*
X51Y930343D01*
X-185Y930033D01*
X-428Y929729D01*
X-679Y929431D01*
X-937Y929139D01*
X-1203Y928854D01*
X-1475Y928575D01*
X-1754Y928303D01*
X-2039Y928037D01*
X-2331Y927779D01*
X-2629Y927528D01*
X-2933Y927285D01*
X-3243Y927049D01*
X-3559Y926821D01*
X-3880Y926600D01*
X-4207Y926388D01*
X-4539Y926184D01*
X-4875Y925987D01*
X-5217Y925799D01*
X-5562Y925620D01*
X-5913Y925449D01*
X-6267Y925287D01*
X-6625Y925133D01*
X-6987Y924989D01*
X-7352Y924853D01*
X-7720Y924726D01*
X-8092Y924609D01*
X-8466Y924500D01*
X-8843Y924401D01*
X-9222Y924311D01*
X-9603Y924230D01*
X-9986Y924159D01*
X-10371Y924097D01*
X-10757Y924044D01*
X-11144Y924001D01*
X-11532Y923968D01*
X-11921Y923944D01*
X-12310Y923930D01*
X-12700Y923925D01*
X-13090Y923930D01*
X-13479Y923944D01*
X-13868Y923968D01*
X-14256Y924001D01*
X-14643Y924044D01*
X-15029Y924097D01*
X-15414Y924159D01*
X-15797Y924230D01*
X-16178Y924311D01*
X-16557Y924401D01*
X-16934Y924500D01*
X-17308Y924609D01*
X-17680Y924726D01*
X-18048Y924853D01*
X-18413Y924989D01*
X-18775Y925133D01*
X-19133Y925287D01*
X-19487Y925449D01*
X-19838Y925620D01*
X-20183Y925799D01*
X-20525Y925987D01*
X-20861Y926184D01*
X-21193Y926388D01*
X-21520Y926600D01*
X-21841Y926821D01*
X-22157Y927049D01*
X-22467Y927285D01*
X-22771Y927528D01*
X-23069Y927779D01*
X-23361Y928037D01*
X-23646Y928303D01*
X-23925Y928575D01*
X-24197Y928854D01*
X-24463Y929139D01*
X-24721Y929431D01*
X-24972Y929729D01*
X-25215Y930033D01*
X-25451Y930343D01*
X-25679Y930659D01*
X-25900Y930980D01*
X-26112Y931307D01*
X-26316Y931639D01*
X-26513Y931975D01*
X-26701Y932317D01*
X-26880Y932662D01*
X-27051Y933013D01*
X-27213Y933367D01*
X-27367Y933725D01*
X-27511Y934087D01*
X-27647Y934452D01*
X-27774Y934820D01*
X-27891Y935192D01*
X-28000Y935566D01*
X-28099Y935943D01*
X-28189Y936322D01*
X-28270Y936703D01*
X-28341Y937086D01*
X-28403Y937471D01*
X-28456Y937857D01*
X-28499Y938244D01*
X-28532Y938632D01*
X-28556Y939021D01*
X-28570Y939410D01*
X-28575Y939800D01*
X2892425Y939800D02*
X2892430Y940190D01*
X2892444Y940579D01*
X2892468Y940968D01*
X2892501Y941356D01*
X2892544Y941743D01*
X2892597Y942129D01*
X2892659Y942514D01*
X2892730Y942897D01*
X2892811Y943278D01*
X2892901Y943657D01*
X2893000Y944034D01*
X2893109Y944408D01*
X2893226Y944780D01*
X2893353Y945148D01*
X2893489Y945513D01*
X2893633Y945875D01*
X2893787Y946233D01*
X2893949Y946587D01*
X2894120Y946938D01*
X2894299Y947283D01*
X2894487Y947625D01*
X2894684Y947961D01*
X2894888Y948293D01*
X2895100Y948620D01*
X2895321Y948941D01*
X2895549Y949257D01*
X2895785Y949567D01*
X2896028Y949871D01*
X2896279Y950169D01*
X2896537Y950461D01*
X2896803Y950746D01*
X2897075Y951025D01*
X2897354Y951297D01*
X2897639Y951563D01*
X2897931Y951821D01*
X2898229Y952072D01*
X2898533Y952315D01*
X2898843Y952551D01*
X2899159Y952779D01*
X2899480Y953000D01*
X2899807Y953212D01*
X2900139Y953416D01*
X2900475Y953613D01*
X2900817Y953801D01*
X2901162Y953980D01*
X2901513Y954151D01*
X2901867Y954313D01*
X2902225Y954467D01*
X2902587Y954611D01*
X2902952Y954747D01*
X2903320Y954874D01*
X2903692Y954991D01*
X2904066Y955100D01*
X2904443Y955199D01*
X2904822Y955289D01*
X2905203Y955370D01*
X2905586Y955441D01*
X2905971Y955503D01*
X2906357Y955556D01*
X2906744Y955599D01*
X2907132Y955632D01*
X2907521Y955656D01*
X2907910Y955670D01*
X2908300Y955675D01*
X2908690Y955670D01*
X2909079Y955656D01*
X2909468Y955632D01*
X2909856Y955599D01*
X2910243Y955556D01*
X2910629Y955503D01*
X2911014Y955441D01*
X2911397Y955370D01*
X2911778Y955289D01*
X2912157Y955199D01*
X2912534Y955100D01*
X2912908Y954991D01*
X2913280Y954874D01*
X2913648Y954747D01*
X2914013Y954611D01*
X2914375Y954467D01*
X2914733Y954313D01*
X2915087Y954151D01*
X2915438Y953980D01*
X2915783Y953801D01*
X2916125Y953613D01*
X2916461Y953416D01*
X2916793Y953212D01*
X2917120Y953000D01*
X2917441Y952779D01*
X2917757Y952551D01*
X2918067Y952315D01*
X2918371Y952072D01*
X2918669Y951821D01*
X2918961Y951563D01*
X2919246Y951297D01*
X2919525Y951025D01*
X2919797Y950746D01*
X2920063Y950461D01*
X2920321Y950169D01*
X2920572Y949871D01*
X2920815Y949567D01*
X2921051Y949257D01*
X2921279Y948941D01*
X2921500Y948620D01*
X2921712Y948293D01*
X2921916Y947961D01*
X2922113Y947625D01*
X2922301Y947283D01*
X2922480Y946938D01*
X2922651Y946587D01*
X2922813Y946233D01*
X2922967Y945875D01*
X2923111Y945513D01*
X2923247Y945148D01*
X2923374Y944780D01*
X2923491Y944408D01*
X2923600Y944034D01*
X2923699Y943657D01*
X2923789Y943278D01*
X2923870Y942897D01*
X2923941Y942514D01*
X2924003Y942129D01*
X2924056Y941743D01*
X2924099Y941356D01*
X2924132Y940968D01*
X2924156Y940579D01*
X2924170Y940190D01*
X2924175Y939800D01*
X2924170Y939410D01*
X2924156Y939021D01*
X2924132Y938632D01*
X2924099Y938244D01*
X2924056Y937857D01*
X2924003Y937471D01*
X2923941Y937086D01*
X2923870Y936703D01*
X2923789Y936322D01*
X2923699Y935943D01*
X2923600Y935566D01*
X2923491Y935192D01*
X2923374Y934820D01*
X2923247Y934452D01*
X2923111Y934087D01*
X2922967Y933725D01*
X2922813Y933367D01*
X2922651Y933013D01*
X2922480Y932662D01*
X2922301Y932317D01*
X2922113Y931975D01*
X2921916Y931639D01*
X2921712Y931307D01*
X2921500Y930980D01*
X2921279Y930659D01*
X2921051Y930343D01*
X2920815Y930033D01*
X2920572Y929729D01*
X2920321Y929431D01*
X2920063Y929139D01*
X2919797Y928854D01*
X2919525Y928575D01*
X2919246Y928303D01*
X2918961Y928037D01*
X2918669Y927779D01*
X2918371Y927528D01*
X2918067Y927285D01*
X2917757Y927049D01*
X2917441Y926821D01*
X2917120Y926600D01*
X2916793Y926388D01*
X2916461Y926184D01*
X2916125Y925987D01*
X2915783Y925799D01*
X2915438Y925620D01*
X2915087Y925449D01*
X2914733Y925287D01*
X2914375Y925133D01*
X2914013Y924989D01*
X2913648Y924853D01*
X2913280Y924726D01*
X2912908Y924609D01*
X2912534Y924500D01*
X2912157Y924401D01*
X2911778Y924311D01*
X2911397Y924230D01*
X2911014Y924159D01*
X2910629Y924097D01*
X2910243Y924044D01*
X2909856Y924001D01*
X2909468Y923968D01*
X2909079Y923944D01*
X2908690Y923930D01*
X2908300Y923925D01*
X2907910Y923930D01*
X2907521Y923944D01*
X2907132Y923968D01*
X2906744Y924001D01*
X2906357Y924044D01*
X2905971Y924097D01*
X2905586Y924159D01*
X2905203Y924230D01*
X2904822Y924311D01*
X2904443Y924401D01*
X2904066Y924500D01*
X2903692Y924609D01*
X2903320Y924726D01*
X2902952Y924853D01*
X2902587Y924989D01*
X2902225Y925133D01*
X2901867Y925287D01*
X2901513Y925449D01*
X2901162Y925620D01*
X2900817Y925799D01*
X2900475Y925987D01*
X2900139Y926184D01*
X2899807Y926388D01*
X2899480Y926600D01*
X2899159Y926821D01*
X2898843Y927049D01*
X2898533Y927285D01*
X2898229Y927528D01*
X2897931Y927779D01*
X2897639Y928037D01*
X2897354Y928303D01*
X2897075Y928575D01*
X2896803Y928854D01*
X2896537Y929139D01*
X2896279Y929431D01*
X2896028Y929729D01*
X2895785Y930033D01*
X2895549Y930343D01*
X2895321Y930659D01*
X2895100Y930980D01*
X2894888Y931307D01*
X2894684Y931639D01*
X2894487Y931975D01*
X2894299Y932317D01*
X2894120Y932662D01*
X2893949Y933013D01*
X2893787Y933367D01*
X2893633Y933725D01*
X2893489Y934087D01*
X2893353Y934452D01*
X2893226Y934820D01*
X2893109Y935192D01*
X2893000Y935566D01*
X2892901Y935943D01*
X2892811Y936322D01*
X2892730Y936703D01*
X2892659Y937086D01*
X2892597Y937471D01*
X2892544Y937857D01*
X2892501Y938244D01*
X2892468Y938632D01*
X2892444Y939021D01*
X2892430Y939410D01*
X2892425Y939800D01*
X428625Y1524000D02*
X428630Y1524390D01*
X428644Y1524779D01*
X428668Y1525168D01*
X428701Y1525556D01*
X428744Y1525943D01*
X428797Y1526329D01*
X428859Y1526714D01*
X428930Y1527097D01*
X429011Y1527478D01*
X429101Y1527857D01*
X429200Y1528234D01*
X429309Y1528608D01*
X429426Y1528980D01*
X429553Y1529348D01*
X429689Y1529713D01*
X429833Y1530075D01*
X429987Y1530433D01*
X430149Y1530787D01*
X430320Y1531138D01*
X430499Y1531483D01*
X430687Y1531825D01*
X430884Y1532161D01*
X431088Y1532493D01*
X431300Y1532820D01*
X431521Y1533141D01*
X431749Y1533457D01*
X431985Y1533767D01*
X432228Y1534071D01*
X432479Y1534369D01*
X432737Y1534661D01*
X433003Y1534946D01*
X433275Y1535225D01*
X433554Y1535497D01*
X433839Y1535763D01*
X434131Y1536021D01*
X434429Y1536272D01*
X434733Y1536515D01*
X435043Y1536751D01*
X435359Y1536979D01*
X435680Y1537200D01*
X436007Y1537412D01*
X436339Y1537616D01*
X436675Y1537813D01*
X437017Y1538001D01*
X437362Y1538180D01*
X437713Y1538351D01*
X438067Y1538513D01*
X438425Y1538667D01*
X438787Y1538811D01*
X439152Y1538947D01*
X439520Y1539074D01*
X439892Y1539191D01*
X440266Y1539300D01*
X440643Y1539399D01*
X441022Y1539489D01*
X441403Y1539570D01*
X441786Y1539641D01*
X442171Y1539703D01*
X442557Y1539756D01*
X442944Y1539799D01*
X443332Y1539832D01*
X443721Y1539856D01*
X444110Y1539870D01*
X444500Y1539875D01*
X444890Y1539870D01*
X445279Y1539856D01*
X445668Y1539832D01*
X446056Y1539799D01*
X446443Y1539756D01*
X446829Y1539703D01*
X447214Y1539641D01*
X447597Y1539570D01*
X447978Y1539489D01*
X448357Y1539399D01*
X448734Y1539300D01*
X449108Y1539191D01*
X449480Y1539074D01*
X449848Y1538947D01*
X450213Y1538811D01*
X450575Y1538667D01*
X450933Y1538513D01*
X451287Y1538351D01*
X451638Y1538180D01*
X451983Y1538001D01*
X452325Y1537813D01*
X452661Y1537616D01*
X452993Y1537412D01*
X453320Y1537200D01*
X453641Y1536979D01*
X453957Y1536751D01*
X454267Y1536515D01*
X454571Y1536272D01*
X454869Y1536021D01*
X455161Y1535763D01*
X455446Y1535497D01*
X455725Y1535225D01*
X455997Y1534946D01*
X456263Y1534661D01*
X456521Y1534369D01*
X456772Y1534071D01*
X457015Y1533767D01*
X457251Y1533457D01*
X457479Y1533141D01*
X457700Y1532820D01*
X457912Y1532493D01*
X458116Y1532161D01*
X458313Y1531825D01*
X458501Y1531483D01*
X458680Y1531138D01*
X458851Y1530787D01*
X459013Y1530433D01*
X459167Y1530075D01*
X459311Y1529713D01*
X459447Y1529348D01*
X459574Y1528980D01*
X459691Y1528608D01*
X459800Y1528234D01*
X459899Y1527857D01*
X459989Y1527478D01*
X460070Y1527097D01*
X460141Y1526714D01*
X460203Y1526329D01*
X460256Y1525943D01*
X460299Y1525556D01*
X460332Y1525168D01*
X460356Y1524779D01*
X460370Y1524390D01*
X460375Y1524000D01*
X460370Y1523610D01*
X460356Y1523221D01*
X460332Y1522832D01*
X460299Y1522444D01*
X460256Y1522057D01*
X460203Y1521671D01*
X460141Y1521286D01*
X460070Y1520903D01*
X459989Y1520522D01*
X459899Y1520143D01*
X459800Y1519766D01*
X459691Y1519392D01*
X459574Y1519020D01*
X459447Y1518652D01*
X459311Y1518287D01*
X459167Y1517925D01*
X459013Y1517567D01*
X458851Y1517213D01*
X458680Y1516862D01*
X458501Y1516517D01*
X458313Y1516175D01*
X458116Y1515839D01*
X457912Y1515507D01*
X457700Y1515180D01*
X457479Y1514859D01*
X457251Y1514543D01*
X457015Y1514233D01*
X456772Y1513929D01*
X456521Y1513631D01*
X456263Y1513339D01*
X455997Y1513054D01*
X455725Y1512775D01*
X455446Y1512503D01*
X455161Y1512237D01*
X454869Y1511979D01*
X454571Y1511728D01*
X454267Y1511485D01*
X453957Y1511249D01*
X453641Y1511021D01*
X453320Y1510800D01*
X452993Y1510588D01*
X452661Y1510384D01*
X452325Y1510187D01*
X451983Y1509999D01*
X451638Y1509820D01*
X451287Y1509649D01*
X450933Y1509487D01*
X450575Y1509333D01*
X450213Y1509189D01*
X449848Y1509053D01*
X449480Y1508926D01*
X449108Y1508809D01*
X448734Y1508700D01*
X448357Y1508601D01*
X447978Y1508511D01*
X447597Y1508430D01*
X447214Y1508359D01*
X446829Y1508297D01*
X446443Y1508244D01*
X446056Y1508201D01*
X445668Y1508168D01*
X445279Y1508144D01*
X444890Y1508130D01*
X444500Y1508125D01*
X444110Y1508130D01*
X443721Y1508144D01*
X443332Y1508168D01*
X442944Y1508201D01*
X442557Y1508244D01*
X442171Y1508297D01*
X441786Y1508359D01*
X441403Y1508430D01*
X441022Y1508511D01*
X440643Y1508601D01*
X440266Y1508700D01*
X439892Y1508809D01*
X439520Y1508926D01*
X439152Y1509053D01*
X438787Y1509189D01*
X438425Y1509333D01*
X438067Y1509487D01*
X437713Y1509649D01*
X437362Y1509820D01*
X437017Y1509999D01*
X436675Y1510187D01*
X436339Y1510384D01*
X436007Y1510588D01*
X435680Y1510800D01*
X435359Y1511021D01*
X435043Y1511249D01*
X434733Y1511485D01*
X434429Y1511728D01*
X434131Y1511979D01*
X433839Y1512237D01*
X433554Y1512503D01*
X433275Y1512775D01*
X433003Y1513054D01*
X432737Y1513339D01*
X432479Y1513631D01*
X432228Y1513929D01*
X431985Y1514233D01*
X431749Y1514543D01*
X431521Y1514859D01*
X431300Y1515180D01*
X431088Y1515507D01*
X430884Y1515839D01*
X430687Y1516175D01*
X430499Y1516517D01*
X430320Y1516862D01*
X430149Y1517213D01*
X429987Y1517567D01*
X429833Y1517925D01*
X429689Y1518287D01*
X429553Y1518652D01*
X429426Y1519020D01*
X429309Y1519392D01*
X429200Y1519766D01*
X429101Y1520143D01*
X429011Y1520522D01*
X428930Y1520903D01*
X428859Y1521286D01*
X428797Y1521671D01*
X428744Y1522057D01*
X428701Y1522444D01*
X428668Y1522832D01*
X428644Y1523221D01*
X428630Y1523610D01*
X428625Y1524000D01*
X2473325Y1524000D02*
X2473330Y1524390D01*
X2473344Y1524779D01*
X2473368Y1525168D01*
X2473401Y1525556D01*
X2473444Y1525943D01*
X2473497Y1526329D01*
X2473559Y1526714D01*
X2473630Y1527097D01*
X2473711Y1527478D01*
X2473801Y1527857D01*
X2473900Y1528234D01*
X2474009Y1528608D01*
X2474126Y1528980D01*
X2474253Y1529348D01*
X2474389Y1529713D01*
X2474533Y1530075D01*
X2474687Y1530433D01*
X2474849Y1530787D01*
X2475020Y1531138D01*
X2475199Y1531483D01*
X2475387Y1531825D01*
X2475584Y1532161D01*
X2475788Y1532493D01*
X2476000Y1532820D01*
X2476221Y1533141D01*
X2476449Y1533457D01*
X2476685Y1533767D01*
X2476928Y1534071D01*
X2477179Y1534369D01*
X2477437Y1534661D01*
X2477703Y1534946D01*
X2477975Y1535225D01*
X2478254Y1535497D01*
X2478539Y1535763D01*
X2478831Y1536021D01*
X2479129Y1536272D01*
X2479433Y1536515D01*
X2479743Y1536751D01*
X2480059Y1536979D01*
X2480380Y1537200D01*
X2480707Y1537412D01*
X2481039Y1537616D01*
X2481375Y1537813D01*
X2481717Y1538001D01*
X2482062Y1538180D01*
X2482413Y1538351D01*
X2482767Y1538513D01*
X2483125Y1538667D01*
X2483487Y1538811D01*
X2483852Y1538947D01*
X2484220Y1539074D01*
X2484592Y1539191D01*
X2484966Y1539300D01*
X2485343Y1539399D01*
X2485722Y1539489D01*
X2486103Y1539570D01*
X2486486Y1539641D01*
X2486871Y1539703D01*
X2487257Y1539756D01*
X2487644Y1539799D01*
X2488032Y1539832D01*
X2488421Y1539856D01*
X2488810Y1539870D01*
X2489200Y1539875D01*
X2489590Y1539870D01*
X2489979Y1539856D01*
X2490368Y1539832D01*
X2490756Y1539799D01*
X2491143Y1539756D01*
X2491529Y1539703D01*
X2491914Y1539641D01*
X2492297Y1539570D01*
X2492678Y1539489D01*
X2493057Y1539399D01*
X2493434Y1539300D01*
X2493808Y1539191D01*
X2494180Y1539074D01*
X2494548Y1538947D01*
X2494913Y1538811D01*
X2495275Y1538667D01*
X2495633Y1538513D01*
X2495987Y1538351D01*
X2496338Y1538180D01*
X2496683Y1538001D01*
X2497025Y1537813D01*
X2497361Y1537616D01*
X2497693Y1537412D01*
X2498020Y1537200D01*
X2498341Y1536979D01*
X2498657Y1536751D01*
X2498967Y1536515D01*
X2499271Y1536272D01*
X2499569Y1536021D01*
X2499861Y1535763D01*
X2500146Y1535497D01*
X2500425Y1535225D01*
X2500697Y1534946D01*
X2500963Y1534661D01*
X2501221Y1534369D01*
X2501472Y1534071D01*
X2501715Y1533767D01*
X2501951Y1533457D01*
X2502179Y1533141D01*
X2502400Y1532820D01*
X2502612Y1532493D01*
X2502816Y1532161D01*
X2503013Y1531825D01*
X2503201Y1531483D01*
X2503380Y1531138D01*
X2503551Y1530787D01*
X2503713Y1530433D01*
X2503867Y1530075D01*
X2504011Y1529713D01*
X2504147Y1529348D01*
X2504274Y1528980D01*
X2504391Y1528608D01*
X2504500Y1528234D01*
X2504599Y1527857D01*
X2504689Y1527478D01*
X2504770Y1527097D01*
X2504841Y1526714D01*
X2504903Y1526329D01*
X2504956Y1525943D01*
X2504999Y1525556D01*
X2505032Y1525168D01*
X2505056Y1524779D01*
X2505070Y1524390D01*
X2505075Y1524000D01*
X2505070Y1523610D01*
X2505056Y1523221D01*
X2505032Y1522832D01*
X2504999Y1522444D01*
X2504956Y1522057D01*
X2504903Y1521671D01*
X2504841Y1521286D01*
X2504770Y1520903D01*
X2504689Y1520522D01*
X2504599Y1520143D01*
X2504500Y1519766D01*
X2504391Y1519392D01*
X2504274Y1519020D01*
X2504147Y1518652D01*
X2504011Y1518287D01*
X2503867Y1517925D01*
X2503713Y1517567D01*
X2503551Y1517213D01*
X2503380Y1516862D01*
X2503201Y1516517D01*
X2503013Y1516175D01*
X2502816Y1515839D01*
X2502612Y1515507D01*
X2502400Y1515180D01*
X2502179Y1514859D01*
X2501951Y1514543D01*
X2501715Y1514233D01*
X2501472Y1513929D01*
X2501221Y1513631D01*
X2500963Y1513339D01*
X2500697Y1513054D01*
X2500425Y1512775D01*
X2500146Y1512503D01*
X2499861Y1512237D01*
X2499569Y1511979D01*
X2499271Y1511728D01*
X2498967Y1511485D01*
X2498657Y1511249D01*
X2498341Y1511021D01*
X2498020Y1510800D01*
X2497693Y1510588D01*
X2497361Y1510384D01*
X2497025Y1510187D01*
X2496683Y1509999D01*
X2496338Y1509820D01*
X2495987Y1509649D01*
X2495633Y1509487D01*
X2495275Y1509333D01*
X2494913Y1509189D01*
X2494548Y1509053D01*
X2494180Y1508926D01*
X2493808Y1508809D01*
X2493434Y1508700D01*
X2493057Y1508601D01*
X2492678Y1508511D01*
X2492297Y1508430D01*
X2491914Y1508359D01*
X2491529Y1508297D01*
X2491143Y1508244D01*
X2490756Y1508201D01*
X2490368Y1508168D01*
X2489979Y1508144D01*
X2489590Y1508130D01*
X2489200Y1508125D01*
X2488810Y1508130D01*
X2488421Y1508144D01*
X2488032Y1508168D01*
X2487644Y1508201D01*
X2487257Y1508244D01*
X2486871Y1508297D01*
X2486486Y1508359D01*
X2486103Y1508430D01*
X2485722Y1508511D01*
X2485343Y1508601D01*
X2484966Y1508700D01*
X2484592Y1508809D01*
X2484220Y1508926D01*
X2483852Y1509053D01*
X2483487Y1509189D01*
X2483125Y1509333D01*
X2482767Y1509487D01*
X2482413Y1509649D01*
X2482062Y1509820D01*
X2481717Y1509999D01*
X2481375Y1510187D01*
X2481039Y1510384D01*
X2480707Y1510588D01*
X2480380Y1510800D01*
X2480059Y1511021D01*
X2479743Y1511249D01*
X2479433Y1511485D01*
X2479129Y1511728D01*
X2478831Y1511979D01*
X2478539Y1512237D01*
X2478254Y1512503D01*
X2477975Y1512775D01*
X2477703Y1513054D01*
X2477437Y1513339D01*
X2477179Y1513631D01*
X2476928Y1513929D01*
X2476685Y1514233D01*
X2476449Y1514543D01*
X2476221Y1514859D01*
X2476000Y1515180D01*
X2475788Y1515507D01*
X2475584Y1515839D01*
X2475387Y1516175D01*
X2475199Y1516517D01*
X2475020Y1516862D01*
X2474849Y1517213D01*
X2474687Y1517567D01*
X2474533Y1517925D01*
X2474389Y1518287D01*
X2474253Y1518652D01*
X2474126Y1519020D01*
X2474009Y1519392D01*
X2473900Y1519766D01*
X2473801Y1520143D01*
X2473711Y1520522D01*
X2473630Y1520903D01*
X2473559Y1521286D01*
X2473497Y1521671D01*
X2473444Y1522057D01*
X2473401Y1522444D01*
X2473368Y1522832D01*
X2473344Y1523221D01*
X2473330Y1523610D01*
X2473325Y1524000D01*
X428625Y1130300D02*
X428630Y1130690D01*
X428644Y1131079D01*
X428668Y1131468D01*
X428701Y1131856D01*
X428744Y1132243D01*
X428797Y1132629D01*
X428859Y1133014D01*
X428930Y1133397D01*
X429011Y1133778D01*
X429101Y1134157D01*
X429200Y1134534D01*
X429309Y1134908D01*
X429426Y1135280D01*
X429553Y1135648D01*
X429689Y1136013D01*
X429833Y1136375D01*
X429987Y1136733D01*
X430149Y1137087D01*
X430320Y1137438D01*
X430499Y1137783D01*
X430687Y1138125D01*
X430884Y1138461D01*
X431088Y1138793D01*
X431300Y1139120D01*
X431521Y1139441D01*
X431749Y1139757D01*
X431985Y1140067D01*
X432228Y1140371D01*
X432479Y1140669D01*
X432737Y1140961D01*
X433003Y1141246D01*
X433275Y1141525D01*
X433554Y1141797D01*
X433839Y1142063D01*
X434131Y1142321D01*
X434429Y1142572D01*
X434733Y1142815D01*
X435043Y1143051D01*
X435359Y1143279D01*
X435680Y1143500D01*
X436007Y1143712D01*
X436339Y1143916D01*
X436675Y1144113D01*
X437017Y1144301D01*
X437362Y1144480D01*
X437713Y1144651D01*
X438067Y1144813D01*
X438425Y1144967D01*
X438787Y1145111D01*
X439152Y1145247D01*
X439520Y1145374D01*
X439892Y1145491D01*
X440266Y1145600D01*
X440643Y1145699D01*
X441022Y1145789D01*
X441403Y1145870D01*
X441786Y1145941D01*
X442171Y1146003D01*
X442557Y1146056D01*
X442944Y1146099D01*
X443332Y1146132D01*
X443721Y1146156D01*
X444110Y1146170D01*
X444500Y1146175D01*
X444890Y1146170D01*
X445279Y1146156D01*
X445668Y1146132D01*
X446056Y1146099D01*
X446443Y1146056D01*
X446829Y1146003D01*
X447214Y1145941D01*
X447597Y1145870D01*
X447978Y1145789D01*
X448357Y1145699D01*
X448734Y1145600D01*
X449108Y1145491D01*
X449480Y1145374D01*
X449848Y1145247D01*
X450213Y1145111D01*
X450575Y1144967D01*
X450933Y1144813D01*
X451287Y1144651D01*
X451638Y1144480D01*
X451983Y1144301D01*
X452325Y1144113D01*
X452661Y1143916D01*
X452993Y1143712D01*
X453320Y1143500D01*
X453641Y1143279D01*
X453957Y1143051D01*
X454267Y1142815D01*
X454571Y1142572D01*
X454869Y1142321D01*
X455161Y1142063D01*
X455446Y1141797D01*
X455725Y1141525D01*
X455997Y1141246D01*
X456263Y1140961D01*
X456521Y1140669D01*
X456772Y1140371D01*
X457015Y1140067D01*
X457251Y1139757D01*
X457479Y1139441D01*
X457700Y1139120D01*
X457912Y1138793D01*
X458116Y1138461D01*
X458313Y1138125D01*
X458501Y1137783D01*
X458680Y1137438D01*
X458851Y1137087D01*
X459013Y1136733D01*
X459167Y1136375D01*
X459311Y1136013D01*
X459447Y1135648D01*
X459574Y1135280D01*
X459691Y1134908D01*
X459800Y1134534D01*
X459899Y1134157D01*
X459989Y1133778D01*
X460070Y1133397D01*
X460141Y1133014D01*
X460203Y1132629D01*
X460256Y1132243D01*
X460299Y1131856D01*
X460332Y1131468D01*
X460356Y1131079D01*
X460370Y1130690D01*
X460375Y1130300D01*
X460370Y1129910D01*
X460356Y1129521D01*
X460332Y1129132D01*
X460299Y1128744D01*
X460256Y1128357D01*
X460203Y1127971D01*
X460141Y1127586D01*
X460070Y1127203D01*
X459989Y1126822D01*
X459899Y1126443D01*
X459800Y1126066D01*
X459691Y1125692D01*
X459574Y1125320D01*
X459447Y1124952D01*
X459311Y1124587D01*
X459167Y1124225D01*
X459013Y1123867D01*
X458851Y1123513D01*
X458680Y1123162D01*
X458501Y1122817D01*
X458313Y1122475D01*
X458116Y1122139D01*
X457912Y1121807D01*
X457700Y1121480D01*
X457479Y1121159D01*
X457251Y1120843D01*
X457015Y1120533D01*
X456772Y1120229D01*
X456521Y1119931D01*
X456263Y1119639D01*
X455997Y1119354D01*
X455725Y1119075D01*
X455446Y1118803D01*
X455161Y1118537D01*
X454869Y1118279D01*
X454571Y1118028D01*
X454267Y1117785D01*
X453957Y1117549D01*
X453641Y1117321D01*
X453320Y1117100D01*
X452993Y1116888D01*
X452661Y1116684D01*
X452325Y1116487D01*
X451983Y1116299D01*
X451638Y1116120D01*
X451287Y1115949D01*
X450933Y1115787D01*
X450575Y1115633D01*
X450213Y1115489D01*
X449848Y1115353D01*
X449480Y1115226D01*
X449108Y1115109D01*
X448734Y1115000D01*
X448357Y1114901D01*
X447978Y1114811D01*
X447597Y1114730D01*
X447214Y1114659D01*
X446829Y1114597D01*
X446443Y1114544D01*
X446056Y1114501D01*
X445668Y1114468D01*
X445279Y1114444D01*
X444890Y1114430D01*
X444500Y1114425D01*
X444110Y1114430D01*
X443721Y1114444D01*
X443332Y1114468D01*
X442944Y1114501D01*
X442557Y1114544D01*
X442171Y1114597D01*
X441786Y1114659D01*
X441403Y1114730D01*
X441022Y1114811D01*
X440643Y1114901D01*
X440266Y1115000D01*
X439892Y1115109D01*
X439520Y1115226D01*
X439152Y1115353D01*
X438787Y1115489D01*
X438425Y1115633D01*
X438067Y1115787D01*
X437713Y1115949D01*
X437362Y1116120D01*
X437017Y1116299D01*
X436675Y1116487D01*
X436339Y1116684D01*
X436007Y1116888D01*
X435680Y1117100D01*
X435359Y1117321D01*
X435043Y1117549D01*
X434733Y1117785D01*
X434429Y1118028D01*
X434131Y1118279D01*
X433839Y1118537D01*
X433554Y1118803D01*
X433275Y1119075D01*
X433003Y1119354D01*
X432737Y1119639D01*
X432479Y1119931D01*
X432228Y1120229D01*
X431985Y1120533D01*
X431749Y1120843D01*
X431521Y1121159D01*
X431300Y1121480D01*
X431088Y1121807D01*
X430884Y1122139D01*
X430687Y1122475D01*
X430499Y1122817D01*
X430320Y1123162D01*
X430149Y1123513D01*
X429987Y1123867D01*
X429833Y1124225D01*
X429689Y1124587D01*
X429553Y1124952D01*
X429426Y1125320D01*
X429309Y1125692D01*
X429200Y1126066D01*
X429101Y1126443D01*
X429011Y1126822D01*
X428930Y1127203D01*
X428859Y1127586D01*
X428797Y1127971D01*
X428744Y1128357D01*
X428701Y1128744D01*
X428668Y1129132D01*
X428644Y1129521D01*
X428630Y1129910D01*
X428625Y1130300D01*
X2828925Y1130300D02*
X2828930Y1130690D01*
X2828944Y1131079D01*
X2828968Y1131468D01*
X2829001Y1131856D01*
X2829044Y1132243D01*
X2829097Y1132629D01*
X2829159Y1133014D01*
X2829230Y1133397D01*
X2829311Y1133778D01*
X2829401Y1134157D01*
X2829500Y1134534D01*
X2829609Y1134908D01*
X2829726Y1135280D01*
X2829853Y1135648D01*
X2829989Y1136013D01*
X2830133Y1136375D01*
X2830287Y1136733D01*
X2830449Y1137087D01*
X2830620Y1137438D01*
X2830799Y1137783D01*
X2830987Y1138125D01*
X2831184Y1138461D01*
X2831388Y1138793D01*
X2831600Y1139120D01*
X2831821Y1139441D01*
X2832049Y1139757D01*
X2832285Y1140067D01*
X2832528Y1140371D01*
X2832779Y1140669D01*
X2833037Y1140961D01*
X2833303Y1141246D01*
X2833575Y1141525D01*
X2833854Y1141797D01*
X2834139Y1142063D01*
X2834431Y1142321D01*
X2834729Y1142572D01*
X2835033Y1142815D01*
X2835343Y1143051D01*
X2835659Y1143279D01*
X2835980Y1143500D01*
X2836307Y1143712D01*
X2836639Y1143916D01*
X2836975Y1144113D01*
X2837317Y1144301D01*
X2837662Y1144480D01*
X2838013Y1144651D01*
X2838367Y1144813D01*
X2838725Y1144967D01*
X2839087Y1145111D01*
X2839452Y1145247D01*
X2839820Y1145374D01*
X2840192Y1145491D01*
X2840566Y1145600D01*
X2840943Y1145699D01*
X2841322Y1145789D01*
X2841703Y1145870D01*
X2842086Y1145941D01*
X2842471Y1146003D01*
X2842857Y1146056D01*
X2843244Y1146099D01*
X2843632Y1146132D01*
X2844021Y1146156D01*
X2844410Y1146170D01*
X2844800Y1146175D01*
X2845190Y1146170D01*
X2845579Y1146156D01*
X2845968Y1146132D01*
X2846356Y1146099D01*
X2846743Y1146056D01*
X2847129Y1146003D01*
X2847514Y1145941D01*
X2847897Y1145870D01*
X2848278Y1145789D01*
X2848657Y1145699D01*
X2849034Y1145600D01*
X2849408Y1145491D01*
X2849780Y1145374D01*
X2850148Y1145247D01*
X2850513Y1145111D01*
X2850875Y1144967D01*
X2851233Y1144813D01*
X2851587Y1144651D01*
X2851938Y1144480D01*
X2852283Y1144301D01*
X2852625Y1144113D01*
X2852961Y1143916D01*
X2853293Y1143712D01*
X2853620Y1143500D01*
X2853941Y1143279D01*
X2854257Y1143051D01*
X2854567Y1142815D01*
X2854871Y1142572D01*
X2855169Y1142321D01*
X2855461Y1142063D01*
X2855746Y1141797D01*
X2856025Y1141525D01*
X2856297Y1141246D01*
X2856563Y1140961D01*
X2856821Y1140669D01*
X2857072Y1140371D01*
X2857315Y1140067D01*
X2857551Y1139757D01*
X2857779Y1139441D01*
X2858000Y1139120D01*
X2858212Y1138793D01*
X2858416Y1138461D01*
X2858613Y1138125D01*
X2858801Y1137783D01*
X2858980Y1137438D01*
X2859151Y1137087D01*
X2859313Y1136733D01*
X2859467Y1136375D01*
X2859611Y1136013D01*
X2859747Y1135648D01*
X2859874Y1135280D01*
X2859991Y1134908D01*
X2860100Y1134534D01*
X2860199Y1134157D01*
X2860289Y1133778D01*
X2860370Y1133397D01*
X2860441Y1133014D01*
X2860503Y1132629D01*
X2860556Y1132243D01*
X2860599Y1131856D01*
X2860632Y1131468D01*
X2860656Y1131079D01*
X2860670Y1130690D01*
X2860675Y1130300D01*
X2860670Y1129910D01*
X2860656Y1129521D01*
X2860632Y1129132D01*
X2860599Y1128744D01*
X2860556Y1128357D01*
X2860503Y1127971D01*
X2860441Y1127586D01*
X2860370Y1127203D01*
X2860289Y1126822D01*
X2860199Y1126443D01*
X2860100Y1126066D01*
X2859991Y1125692D01*
X2859874Y1125320D01*
X2859747Y1124952D01*
X2859611Y1124587D01*
X2859467Y1124225D01*
X2859313Y1123867D01*
X2859151Y1123513D01*
X2858980Y1123162D01*
X2858801Y1122817D01*
X2858613Y1122475D01*
X2858416Y1122139D01*
X2858212Y1121807D01*
X2858000Y1121480D01*
X2857779Y1121159D01*
X2857551Y1120843D01*
X2857315Y1120533D01*
X2857072Y1120229D01*
X2856821Y1119931D01*
X2856563Y1119639D01*
X2856297Y1119354D01*
X2856025Y1119075D01*
X2855746Y1118803D01*
X2855461Y1118537D01*
X2855169Y1118279D01*
X2854871Y1118028D01*
X2854567Y1117785D01*
X2854257Y1117549D01*
X2853941Y1117321D01*
X2853620Y1117100D01*
X2853293Y1116888D01*
X2852961Y1116684D01*
X2852625Y1116487D01*
X2852283Y1116299D01*
X2851938Y1116120D01*
X2851587Y1115949D01*
X2851233Y1115787D01*
X2850875Y1115633D01*
X2850513Y1115489D01*
X2850148Y1115353D01*
X2849780Y1115226D01*
X2849408Y1115109D01*
X2849034Y1115000D01*
X2848657Y1114901D01*
X2848278Y1114811D01*
X2847897Y1114730D01*
X2847514Y1114659D01*
X2847129Y1114597D01*
X2846743Y1114544D01*
X2846356Y1114501D01*
X2845968Y1114468D01*
X2845579Y1114444D01*
X2845190Y1114430D01*
X2844800Y1114425D01*
X2844410Y1114430D01*
X2844021Y1114444D01*
X2843632Y1114468D01*
X2843244Y1114501D01*
X2842857Y1114544D01*
X2842471Y1114597D01*
X2842086Y1114659D01*
X2841703Y1114730D01*
X2841322Y1114811D01*
X2840943Y1114901D01*
X2840566Y1115000D01*
X2840192Y1115109D01*
X2839820Y1115226D01*
X2839452Y1115353D01*
X2839087Y1115489D01*
X2838725Y1115633D01*
X2838367Y1115787D01*
X2838013Y1115949D01*
X2837662Y1116120D01*
X2837317Y1116299D01*
X2836975Y1116487D01*
X2836639Y1116684D01*
X2836307Y1116888D01*
X2835980Y1117100D01*
X2835659Y1117321D01*
X2835343Y1117549D01*
X2835033Y1117785D01*
X2834729Y1118028D01*
X2834431Y1118279D01*
X2834139Y1118537D01*
X2833854Y1118803D01*
X2833575Y1119075D01*
X2833303Y1119354D01*
X2833037Y1119639D01*
X2832779Y1119931D01*
X2832528Y1120229D01*
X2832285Y1120533D01*
X2832049Y1120843D01*
X2831821Y1121159D01*
X2831600Y1121480D01*
X2831388Y1121807D01*
X2831184Y1122139D01*
X2830987Y1122475D01*
X2830799Y1122817D01*
X2830620Y1123162D01*
X2830449Y1123513D01*
X2830287Y1123867D01*
X2830133Y1124225D01*
X2829989Y1124587D01*
X2829853Y1124952D01*
X2829726Y1125320D01*
X2829609Y1125692D01*
X2829500Y1126066D01*
X2829401Y1126443D01*
X2829311Y1126822D01*
X2829230Y1127203D01*
X2829159Y1127586D01*
X2829097Y1127971D01*
X2829044Y1128357D01*
X2829001Y1128744D01*
X2828968Y1129132D01*
X2828944Y1129521D01*
X2828930Y1129910D01*
X2828925Y1130300D01*
X2494788Y749300D02*
X2494794Y749786D01*
X2494812Y750272D01*
X2494842Y750757D01*
X2494883Y751242D01*
X2494937Y751725D01*
X2495002Y752207D01*
X2495080Y752687D01*
X2495169Y753165D01*
X2495269Y753641D01*
X2495382Y754114D01*
X2495506Y754584D01*
X2495641Y755051D01*
X2495788Y755515D01*
X2495946Y755974D01*
X2496116Y756430D01*
X2496296Y756882D01*
X2496488Y757329D01*
X2496690Y757771D01*
X2496903Y758208D01*
X2497127Y758639D01*
X2497362Y759065D01*
X2497607Y759485D01*
X2497862Y759899D01*
X2498127Y760307D01*
X2498402Y760708D01*
X2498687Y761102D01*
X2498981Y761489D01*
X2499285Y761869D01*
X2499598Y762241D01*
X2499920Y762605D01*
X2500251Y762961D01*
X2500591Y763309D01*
X2500939Y763649D01*
X2501295Y763980D01*
X2501659Y764302D01*
X2502031Y764615D01*
X2502411Y764919D01*
X2502798Y765213D01*
X2503192Y765498D01*
X2503593Y765773D01*
X2504001Y766038D01*
X2504415Y766293D01*
X2504835Y766538D01*
X2505261Y766773D01*
X2505692Y766997D01*
X2506129Y767210D01*
X2506571Y767412D01*
X2507018Y767604D01*
X2507470Y767784D01*
X2507926Y767954D01*
X2508385Y768112D01*
X2508849Y768259D01*
X2509316Y768394D01*
X2509786Y768518D01*
X2510259Y768631D01*
X2510735Y768731D01*
X2511213Y768820D01*
X2511693Y768898D01*
X2512175Y768963D01*
X2512658Y769017D01*
X2513143Y769058D01*
X2513628Y769088D01*
X2514114Y769106D01*
X2514600Y769112D01*
X2515086Y769106D01*
X2515572Y769088D01*
X2516057Y769058D01*
X2516542Y769017D01*
X2517025Y768963D01*
X2517507Y768898D01*
X2517987Y768820D01*
X2518465Y768731D01*
X2518941Y768631D01*
X2519414Y768518D01*
X2519884Y768394D01*
X2520351Y768259D01*
X2520815Y768112D01*
X2521274Y767954D01*
X2521730Y767784D01*
X2522182Y767604D01*
X2522629Y767412D01*
X2523071Y767210D01*
X2523508Y766997D01*
X2523939Y766773D01*
X2524365Y766538D01*
X2524785Y766293D01*
X2525199Y766038D01*
X2525607Y765773D01*
X2526008Y765498D01*
X2526402Y765213D01*
X2526789Y764919D01*
X2527169Y764615D01*
X2527541Y764302D01*
X2527905Y763980D01*
X2528261Y763649D01*
X2528609Y763309D01*
X2528949Y762961D01*
X2529280Y762605D01*
X2529602Y762241D01*
X2529915Y761869D01*
X2530219Y761489D01*
X2530513Y761102D01*
X2530798Y760708D01*
X2531073Y760307D01*
X2531338Y759899D01*
X2531593Y759485D01*
X2531838Y759065D01*
X2532073Y758639D01*
X2532297Y758208D01*
X2532510Y757771D01*
X2532712Y757329D01*
X2532904Y756882D01*
X2533084Y756430D01*
X2533254Y755974D01*
X2533412Y755515D01*
X2533559Y755051D01*
X2533694Y754584D01*
X2533818Y754114D01*
X2533931Y753641D01*
X2534031Y753165D01*
X2534120Y752687D01*
X2534198Y752207D01*
X2534263Y751725D01*
X2534317Y751242D01*
X2534358Y750757D01*
X2534388Y750272D01*
X2534406Y749786D01*
X2534412Y749300D01*
X2534406Y748814D01*
X2534388Y748328D01*
X2534358Y747843D01*
X2534317Y747358D01*
X2534263Y746875D01*
X2534198Y746393D01*
X2534120Y745913D01*
X2534031Y745435D01*
X2533931Y744959D01*
X2533818Y744486D01*
X2533694Y744016D01*
X2533559Y743549D01*
X2533412Y743085D01*
X2533254Y742626D01*
X2533084Y742170D01*
X2532904Y741718D01*
X2532712Y741271D01*
X2532510Y740829D01*
X2532297Y740392D01*
X2532073Y739961D01*
X2531838Y739535D01*
X2531593Y739115D01*
X2531338Y738701D01*
X2531073Y738293D01*
X2530798Y737892D01*
X2530513Y737498D01*
X2530219Y737111D01*
X2529915Y736731D01*
X2529602Y736359D01*
X2529280Y735995D01*
X2528949Y735639D01*
X2528609Y735291D01*
X2528261Y734951D01*
X2527905Y734620D01*
X2527541Y734298D01*
X2527169Y733985D01*
X2526789Y733681D01*
X2526402Y733387D01*
X2526008Y733102D01*
X2525607Y732827D01*
X2525199Y732562D01*
X2524785Y732307D01*
X2524365Y732062D01*
X2523939Y731827D01*
X2523508Y731603D01*
X2523071Y731390D01*
X2522629Y731188D01*
X2522182Y730996D01*
X2521730Y730816D01*
X2521274Y730646D01*
X2520815Y730488D01*
X2520351Y730341D01*
X2519884Y730206D01*
X2519414Y730082D01*
X2518941Y729969D01*
X2518465Y729869D01*
X2517987Y729780D01*
X2517507Y729702D01*
X2517025Y729637D01*
X2516542Y729583D01*
X2516057Y729542D01*
X2515572Y729512D01*
X2515086Y729494D01*
X2514600Y729488D01*
X2514114Y729494D01*
X2513628Y729512D01*
X2513143Y729542D01*
X2512658Y729583D01*
X2512175Y729637D01*
X2511693Y729702D01*
X2511213Y729780D01*
X2510735Y729869D01*
X2510259Y729969D01*
X2509786Y730082D01*
X2509316Y730206D01*
X2508849Y730341D01*
X2508385Y730488D01*
X2507926Y730646D01*
X2507470Y730816D01*
X2507018Y730996D01*
X2506571Y731188D01*
X2506129Y731390D01*
X2505692Y731603D01*
X2505261Y731827D01*
X2504835Y732062D01*
X2504415Y732307D01*
X2504001Y732562D01*
X2503593Y732827D01*
X2503192Y733102D01*
X2502798Y733387D01*
X2502411Y733681D01*
X2502031Y733985D01*
X2501659Y734298D01*
X2501295Y734620D01*
X2500939Y734951D01*
X2500591Y735291D01*
X2500251Y735639D01*
X2499920Y735995D01*
X2499598Y736359D01*
X2499285Y736731D01*
X2498981Y737111D01*
X2498687Y737498D01*
X2498402Y737892D01*
X2498127Y738293D01*
X2497862Y738701D01*
X2497607Y739115D01*
X2497362Y739535D01*
X2497127Y739961D01*
X2496903Y740392D01*
X2496690Y740829D01*
X2496488Y741271D01*
X2496296Y741718D01*
X2496116Y742170D01*
X2495946Y742626D01*
X2495788Y743085D01*
X2495641Y743549D01*
X2495506Y744016D01*
X2495382Y744486D01*
X2495269Y744959D01*
X2495169Y745435D01*
X2495080Y745913D01*
X2495002Y746393D01*
X2494937Y746875D01*
X2494883Y747358D01*
X2494842Y747843D01*
X2494812Y748328D01*
X2494794Y748814D01*
X2494788Y749300D01*
X1529588Y749300D02*
X1529594Y749786D01*
X1529612Y750272D01*
X1529642Y750757D01*
X1529683Y751242D01*
X1529737Y751725D01*
X1529802Y752207D01*
X1529880Y752687D01*
X1529969Y753165D01*
X1530069Y753641D01*
X1530182Y754114D01*
X1530306Y754584D01*
X1530441Y755051D01*
X1530588Y755515D01*
X1530746Y755974D01*
X1530916Y756430D01*
X1531096Y756882D01*
X1531288Y757329D01*
X1531490Y757771D01*
X1531703Y758208D01*
X1531927Y758639D01*
X1532162Y759065D01*
X1532407Y759485D01*
X1532662Y759899D01*
X1532927Y760307D01*
X1533202Y760708D01*
X1533487Y761102D01*
X1533781Y761489D01*
X1534085Y761869D01*
X1534398Y762241D01*
X1534720Y762605D01*
X1535051Y762961D01*
X1535391Y763309D01*
X1535739Y763649D01*
X1536095Y763980D01*
X1536459Y764302D01*
X1536831Y764615D01*
X1537211Y764919D01*
X1537598Y765213D01*
X1537992Y765498D01*
X1538393Y765773D01*
X1538801Y766038D01*
X1539215Y766293D01*
X1539635Y766538D01*
X1540061Y766773D01*
X1540492Y766997D01*
X1540929Y767210D01*
X1541371Y767412D01*
X1541818Y767604D01*
X1542270Y767784D01*
X1542726Y767954D01*
X1543185Y768112D01*
X1543649Y768259D01*
X1544116Y768394D01*
X1544586Y768518D01*
X1545059Y768631D01*
X1545535Y768731D01*
X1546013Y768820D01*
X1546493Y768898D01*
X1546975Y768963D01*
X1547458Y769017D01*
X1547943Y769058D01*
X1548428Y769088D01*
X1548914Y769106D01*
X1549400Y769112D01*
X1549886Y769106D01*
X1550372Y769088D01*
X1550857Y769058D01*
X1551342Y769017D01*
X1551825Y768963D01*
X1552307Y768898D01*
X1552787Y768820D01*
X1553265Y768731D01*
X1553741Y768631D01*
X1554214Y768518D01*
X1554684Y768394D01*
X1555151Y768259D01*
X1555615Y768112D01*
X1556074Y767954D01*
X1556530Y767784D01*
X1556982Y767604D01*
X1557429Y767412D01*
X1557871Y767210D01*
X1558308Y766997D01*
X1558739Y766773D01*
X1559165Y766538D01*
X1559585Y766293D01*
X1559999Y766038D01*
X1560407Y765773D01*
X1560808Y765498D01*
X1561202Y765213D01*
X1561589Y764919D01*
X1561969Y764615D01*
X1562341Y764302D01*
X1562705Y763980D01*
X1563061Y763649D01*
X1563409Y763309D01*
X1563749Y762961D01*
X1564080Y762605D01*
X1564402Y762241D01*
X1564715Y761869D01*
X1565019Y761489D01*
X1565313Y761102D01*
X1565598Y760708D01*
X1565873Y760307D01*
X1566138Y759899D01*
X1566393Y759485D01*
X1566638Y759065D01*
X1566873Y758639D01*
X1567097Y758208D01*
X1567310Y757771D01*
X1567512Y757329D01*
X1567704Y756882D01*
X1567884Y756430D01*
X1568054Y755974D01*
X1568212Y755515D01*
X1568359Y755051D01*
X1568494Y754584D01*
X1568618Y754114D01*
X1568731Y753641D01*
X1568831Y753165D01*
X1568920Y752687D01*
X1568998Y752207D01*
X1569063Y751725D01*
X1569117Y751242D01*
X1569158Y750757D01*
X1569188Y750272D01*
X1569206Y749786D01*
X1569212Y749300D01*
X1569206Y748814D01*
X1569188Y748328D01*
X1569158Y747843D01*
X1569117Y747358D01*
X1569063Y746875D01*
X1568998Y746393D01*
X1568920Y745913D01*
X1568831Y745435D01*
X1568731Y744959D01*
X1568618Y744486D01*
X1568494Y744016D01*
X1568359Y743549D01*
X1568212Y743085D01*
X1568054Y742626D01*
X1567884Y742170D01*
X1567704Y741718D01*
X1567512Y741271D01*
X1567310Y740829D01*
X1567097Y740392D01*
X1566873Y739961D01*
X1566638Y739535D01*
X1566393Y739115D01*
X1566138Y738701D01*
X1565873Y738293D01*
X1565598Y737892D01*
X1565313Y737498D01*
X1565019Y737111D01*
X1564715Y736731D01*
X1564402Y736359D01*
X1564080Y735995D01*
X1563749Y735639D01*
X1563409Y735291D01*
X1563061Y734951D01*
X1562705Y734620D01*
X1562341Y734298D01*
X1561969Y733985D01*
X1561589Y733681D01*
X1561202Y733387D01*
X1560808Y733102D01*
X1560407Y732827D01*
X1559999Y732562D01*
X1559585Y732307D01*
X1559165Y732062D01*
X1558739Y731827D01*
X1558308Y731603D01*
X1557871Y731390D01*
X1557429Y731188D01*
X1556982Y730996D01*
X1556530Y730816D01*
X1556074Y730646D01*
X1555615Y730488D01*
X1555151Y730341D01*
X1554684Y730206D01*
X1554214Y730082D01*
X1553741Y729969D01*
X1553265Y729869D01*
X1552787Y729780D01*
X1552307Y729702D01*
X1551825Y729637D01*
X1551342Y729583D01*
X1550857Y729542D01*
X1550372Y729512D01*
X1549886Y729494D01*
X1549400Y729488D01*
X1548914Y729494D01*
X1548428Y729512D01*
X1547943Y729542D01*
X1547458Y729583D01*
X1546975Y729637D01*
X1546493Y729702D01*
X1546013Y729780D01*
X1545535Y729869D01*
X1545059Y729969D01*
X1544586Y730082D01*
X1544116Y730206D01*
X1543649Y730341D01*
X1543185Y730488D01*
X1542726Y730646D01*
X1542270Y730816D01*
X1541818Y730996D01*
X1541371Y731188D01*
X1540929Y731390D01*
X1540492Y731603D01*
X1540061Y731827D01*
X1539635Y732062D01*
X1539215Y732307D01*
X1538801Y732562D01*
X1538393Y732827D01*
X1537992Y733102D01*
X1537598Y733387D01*
X1537211Y733681D01*
X1536831Y733985D01*
X1536459Y734298D01*
X1536095Y734620D01*
X1535739Y734951D01*
X1535391Y735291D01*
X1535051Y735639D01*
X1534720Y735995D01*
X1534398Y736359D01*
X1534085Y736731D01*
X1533781Y737111D01*
X1533487Y737498D01*
X1533202Y737892D01*
X1532927Y738293D01*
X1532662Y738701D01*
X1532407Y739115D01*
X1532162Y739535D01*
X1531927Y739961D01*
X1531703Y740392D01*
X1531490Y740829D01*
X1531288Y741271D01*
X1531096Y741718D01*
X1530916Y742170D01*
X1530746Y742626D01*
X1530588Y743085D01*
X1530441Y743549D01*
X1530306Y744016D01*
X1530182Y744486D01*
X1530069Y744959D01*
X1529969Y745435D01*
X1529880Y745913D01*
X1529802Y746393D01*
X1529737Y746875D01*
X1529683Y747358D01*
X1529642Y747843D01*
X1529612Y748328D01*
X1529594Y748814D01*
X1529588Y749300D01*
X2824988Y419100D02*
X2824994Y419586D01*
X2825012Y420072D01*
X2825042Y420557D01*
X2825083Y421042D01*
X2825137Y421525D01*
X2825202Y422007D01*
X2825280Y422487D01*
X2825369Y422965D01*
X2825469Y423441D01*
X2825582Y423914D01*
X2825706Y424384D01*
X2825841Y424851D01*
X2825988Y425315D01*
X2826146Y425774D01*
X2826316Y426230D01*
X2826496Y426682D01*
X2826688Y427129D01*
X2826890Y427571D01*
X2827103Y428008D01*
X2827327Y428439D01*
X2827562Y428865D01*
X2827807Y429285D01*
X2828062Y429699D01*
X2828327Y430107D01*
X2828602Y430508D01*
X2828887Y430902D01*
X2829181Y431289D01*
X2829485Y431669D01*
X2829798Y432041D01*
X2830120Y432405D01*
X2830451Y432761D01*
X2830791Y433109D01*
X2831139Y433449D01*
X2831495Y433780D01*
X2831859Y434102D01*
X2832231Y434415D01*
X2832611Y434719D01*
X2832998Y435013D01*
X2833392Y435298D01*
X2833793Y435573D01*
X2834201Y435838D01*
X2834615Y436093D01*
X2835035Y436338D01*
X2835461Y436573D01*
X2835892Y436797D01*
X2836329Y437010D01*
X2836771Y437212D01*
X2837218Y437404D01*
X2837670Y437584D01*
X2838126Y437754D01*
X2838585Y437912D01*
X2839049Y438059D01*
X2839516Y438194D01*
X2839986Y438318D01*
X2840459Y438431D01*
X2840935Y438531D01*
X2841413Y438620D01*
X2841893Y438698D01*
X2842375Y438763D01*
X2842858Y438817D01*
X2843343Y438858D01*
X2843828Y438888D01*
X2844314Y438906D01*
X2844800Y438912D01*
X2845286Y438906D01*
X2845772Y438888D01*
X2846257Y438858D01*
X2846742Y438817D01*
X2847225Y438763D01*
X2847707Y438698D01*
X2848187Y438620D01*
X2848665Y438531D01*
X2849141Y438431D01*
X2849614Y438318D01*
X2850084Y438194D01*
X2850551Y438059D01*
X2851015Y437912D01*
X2851474Y437754D01*
X2851930Y437584D01*
X2852382Y437404D01*
X2852829Y437212D01*
X2853271Y437010D01*
X2853708Y436797D01*
X2854139Y436573D01*
X2854565Y436338D01*
X2854985Y436093D01*
X2855399Y435838D01*
X2855807Y435573D01*
X2856208Y435298D01*
X2856602Y435013D01*
X2856989Y434719D01*
X2857369Y434415D01*
X2857741Y434102D01*
X2858105Y433780D01*
X2858461Y433449D01*
X2858809Y433109D01*
X2859149Y432761D01*
X2859480Y432405D01*
X2859802Y432041D01*
X2860115Y431669D01*
X2860419Y431289D01*
X2860713Y430902D01*
X2860998Y430508D01*
X2861273Y430107D01*
X2861538Y429699D01*
X2861793Y429285D01*
X2862038Y428865D01*
X2862273Y428439D01*
X2862497Y428008D01*
X2862710Y427571D01*
X2862912Y427129D01*
X2863104Y426682D01*
X2863284Y426230D01*
X2863454Y425774D01*
X2863612Y425315D01*
X2863759Y424851D01*
X2863894Y424384D01*
X2864018Y423914D01*
X2864131Y423441D01*
X2864231Y422965D01*
X2864320Y422487D01*
X2864398Y422007D01*
X2864463Y421525D01*
X2864517Y421042D01*
X2864558Y420557D01*
X2864588Y420072D01*
X2864606Y419586D01*
X2864612Y419100D01*
X2864606Y418614D01*
X2864588Y418128D01*
X2864558Y417643D01*
X2864517Y417158D01*
X2864463Y416675D01*
X2864398Y416193D01*
X2864320Y415713D01*
X2864231Y415235D01*
X2864131Y414759D01*
X2864018Y414286D01*
X2863894Y413816D01*
X2863759Y413349D01*
X2863612Y412885D01*
X2863454Y412426D01*
X2863284Y411970D01*
X2863104Y411518D01*
X2862912Y411071D01*
X2862710Y410629D01*
X2862497Y410192D01*
X2862273Y409761D01*
X2862038Y409335D01*
X2861793Y408915D01*
X2861538Y408501D01*
X2861273Y408093D01*
X2860998Y407692D01*
X2860713Y407298D01*
X2860419Y406911D01*
X2860115Y406531D01*
X2859802Y406159D01*
X2859480Y405795D01*
X2859149Y405439D01*
X2858809Y405091D01*
X2858461Y404751D01*
X2858105Y404420D01*
X2857741Y404098D01*
X2857369Y403785D01*
X2856989Y403481D01*
X2856602Y403187D01*
X2856208Y402902D01*
X2855807Y402627D01*
X2855399Y402362D01*
X2854985Y402107D01*
X2854565Y401862D01*
X2854139Y401627D01*
X2853708Y401403D01*
X2853271Y401190D01*
X2852829Y400988D01*
X2852382Y400796D01*
X2851930Y400616D01*
X2851474Y400446D01*
X2851015Y400288D01*
X2850551Y400141D01*
X2850084Y400006D01*
X2849614Y399882D01*
X2849141Y399769D01*
X2848665Y399669D01*
X2848187Y399580D01*
X2847707Y399502D01*
X2847225Y399437D01*
X2846742Y399383D01*
X2846257Y399342D01*
X2845772Y399312D01*
X2845286Y399294D01*
X2844800Y399288D01*
X2844314Y399294D01*
X2843828Y399312D01*
X2843343Y399342D01*
X2842858Y399383D01*
X2842375Y399437D01*
X2841893Y399502D01*
X2841413Y399580D01*
X2840935Y399669D01*
X2840459Y399769D01*
X2839986Y399882D01*
X2839516Y400006D01*
X2839049Y400141D01*
X2838585Y400288D01*
X2838126Y400446D01*
X2837670Y400616D01*
X2837218Y400796D01*
X2836771Y400988D01*
X2836329Y401190D01*
X2835892Y401403D01*
X2835461Y401627D01*
X2835035Y401862D01*
X2834615Y402107D01*
X2834201Y402362D01*
X2833793Y402627D01*
X2833392Y402902D01*
X2832998Y403187D01*
X2832611Y403481D01*
X2832231Y403785D01*
X2831859Y404098D01*
X2831495Y404420D01*
X2831139Y404751D01*
X2830791Y405091D01*
X2830451Y405439D01*
X2830120Y405795D01*
X2829798Y406159D01*
X2829485Y406531D01*
X2829181Y406911D01*
X2828887Y407298D01*
X2828602Y407692D01*
X2828327Y408093D01*
X2828062Y408501D01*
X2827807Y408915D01*
X2827562Y409335D01*
X2827327Y409761D01*
X2827103Y410192D01*
X2826890Y410629D01*
X2826688Y411071D01*
X2826496Y411518D01*
X2826316Y411970D01*
X2826146Y412426D01*
X2825988Y412885D01*
X2825841Y413349D01*
X2825706Y413816D01*
X2825582Y414286D01*
X2825469Y414759D01*
X2825369Y415235D01*
X2825280Y415713D01*
X2825202Y416193D01*
X2825137Y416675D01*
X2825083Y417158D01*
X2825042Y417643D01*
X2825012Y418128D01*
X2824994Y418614D01*
X2824988Y419100D01*
X564388Y749300D02*
X564394Y749786D01*
X564412Y750272D01*
X564442Y750757D01*
X564483Y751242D01*
X564537Y751725D01*
X564602Y752207D01*
X564680Y752687D01*
X564769Y753165D01*
X564869Y753641D01*
X564982Y754114D01*
X565106Y754584D01*
X565241Y755051D01*
X565388Y755515D01*
X565546Y755974D01*
X565716Y756430D01*
X565896Y756882D01*
X566088Y757329D01*
X566290Y757771D01*
X566503Y758208D01*
X566727Y758639D01*
X566962Y759065D01*
X567207Y759485D01*
X567462Y759899D01*
X567727Y760307D01*
X568002Y760708D01*
X568287Y761102D01*
X568581Y761489D01*
X568885Y761869D01*
X569198Y762241D01*
X569520Y762605D01*
X569851Y762961D01*
X570191Y763309D01*
X570539Y763649D01*
X570895Y763980D01*
X571259Y764302D01*
X571631Y764615D01*
X572011Y764919D01*
X572398Y765213D01*
X572792Y765498D01*
X573193Y765773D01*
X573601Y766038D01*
X574015Y766293D01*
X574435Y766538D01*
X574861Y766773D01*
X575292Y766997D01*
X575729Y767210D01*
X576171Y767412D01*
X576618Y767604D01*
X577070Y767784D01*
X577526Y767954D01*
X577985Y768112D01*
X578449Y768259D01*
X578916Y768394D01*
X579386Y768518D01*
X579859Y768631D01*
X580335Y768731D01*
X580813Y768820D01*
X581293Y768898D01*
X581775Y768963D01*
X582258Y769017D01*
X582743Y769058D01*
X583228Y769088D01*
X583714Y769106D01*
X584200Y769112D01*
X584686Y769106D01*
X585172Y769088D01*
X585657Y769058D01*
X586142Y769017D01*
X586625Y768963D01*
X587107Y768898D01*
X587587Y768820D01*
X588065Y768731D01*
X588541Y768631D01*
X589014Y768518D01*
X589484Y768394D01*
X589951Y768259D01*
X590415Y768112D01*
X590874Y767954D01*
X591330Y767784D01*
X591782Y767604D01*
X592229Y767412D01*
X592671Y767210D01*
X593108Y766997D01*
X593539Y766773D01*
X593965Y766538D01*
X594385Y766293D01*
X594799Y766038D01*
X595207Y765773D01*
X595608Y765498D01*
X596002Y765213D01*
X596389Y764919D01*
X596769Y764615D01*
X597141Y764302D01*
X597505Y763980D01*
X597861Y763649D01*
X598209Y763309D01*
X598549Y762961D01*
X598880Y762605D01*
X599202Y762241D01*
X599515Y761869D01*
X599819Y761489D01*
X600113Y761102D01*
X600398Y760708D01*
X600673Y760307D01*
X600938Y759899D01*
X601193Y759485D01*
X601438Y759065D01*
X601673Y758639D01*
X601897Y758208D01*
X602110Y757771D01*
X602312Y757329D01*
X602504Y756882D01*
X602684Y756430D01*
X602854Y755974D01*
X603012Y755515D01*
X603159Y755051D01*
X603294Y754584D01*
X603418Y754114D01*
X603531Y753641D01*
X603631Y753165D01*
X603720Y752687D01*
X603798Y752207D01*
X603863Y751725D01*
X603917Y751242D01*
X603958Y750757D01*
X603988Y750272D01*
X604006Y749786D01*
X604012Y749300D01*
X604006Y748814D01*
X603988Y748328D01*
X603958Y747843D01*
X603917Y747358D01*
X603863Y746875D01*
X603798Y746393D01*
X603720Y745913D01*
X603631Y745435D01*
X603531Y744959D01*
X603418Y744486D01*
X603294Y744016D01*
X603159Y743549D01*
X603012Y743085D01*
X602854Y742626D01*
X602684Y742170D01*
X602504Y741718D01*
X602312Y741271D01*
X602110Y740829D01*
X601897Y740392D01*
X601673Y739961D01*
X601438Y739535D01*
X601193Y739115D01*
X600938Y738701D01*
X600673Y738293D01*
X600398Y737892D01*
X600113Y737498D01*
X599819Y737111D01*
X599515Y736731D01*
X599202Y736359D01*
X598880Y735995D01*
X598549Y735639D01*
X598209Y735291D01*
X597861Y734951D01*
X597505Y734620D01*
X597141Y734298D01*
X596769Y733985D01*
X596389Y733681D01*
X596002Y733387D01*
X595608Y733102D01*
X595207Y732827D01*
X594799Y732562D01*
X594385Y732307D01*
X593965Y732062D01*
X593539Y731827D01*
X593108Y731603D01*
X592671Y731390D01*
X592229Y731188D01*
X591782Y730996D01*
X591330Y730816D01*
X590874Y730646D01*
X590415Y730488D01*
X589951Y730341D01*
X589484Y730206D01*
X589014Y730082D01*
X588541Y729969D01*
X588065Y729869D01*
X587587Y729780D01*
X587107Y729702D01*
X586625Y729637D01*
X586142Y729583D01*
X585657Y729542D01*
X585172Y729512D01*
X584686Y729494D01*
X584200Y729488D01*
X583714Y729494D01*
X583228Y729512D01*
X582743Y729542D01*
X582258Y729583D01*
X581775Y729637D01*
X581293Y729702D01*
X580813Y729780D01*
X580335Y729869D01*
X579859Y729969D01*
X579386Y730082D01*
X578916Y730206D01*
X578449Y730341D01*
X577985Y730488D01*
X577526Y730646D01*
X577070Y730816D01*
X576618Y730996D01*
X576171Y731188D01*
X575729Y731390D01*
X575292Y731603D01*
X574861Y731827D01*
X574435Y732062D01*
X574015Y732307D01*
X573601Y732562D01*
X573193Y732827D01*
X572792Y733102D01*
X572398Y733387D01*
X572011Y733681D01*
X571631Y733985D01*
X571259Y734298D01*
X570895Y734620D01*
X570539Y734951D01*
X570191Y735291D01*
X569851Y735639D01*
X569520Y735995D01*
X569198Y736359D01*
X568885Y736731D01*
X568581Y737111D01*
X568287Y737498D01*
X568002Y737892D01*
X567727Y738293D01*
X567462Y738701D01*
X567207Y739115D01*
X566962Y739535D01*
X566727Y739961D01*
X566503Y740392D01*
X566290Y740829D01*
X566088Y741271D01*
X565896Y741718D01*
X565716Y742170D01*
X565546Y742626D01*
X565388Y743085D01*
X565241Y743549D01*
X565106Y744016D01*
X564982Y744486D01*
X564869Y744959D01*
X564769Y745435D01*
X564680Y745913D01*
X564602Y746393D01*
X564537Y746875D01*
X564483Y747358D01*
X564442Y747843D01*
X564412Y748328D01*
X564394Y748814D01*
X564388Y749300D01*
X1073550Y1377950D02*
X1073558Y1378564D01*
X1073580Y1379177D01*
X1073618Y1379789D01*
X1073670Y1380400D01*
X1073738Y1381010D01*
X1073821Y1381618D01*
X1073918Y1382224D01*
X1074030Y1382827D01*
X1074157Y1383428D01*
X1074299Y1384025D01*
X1074456Y1384618D01*
X1074626Y1385207D01*
X1074812Y1385792D01*
X1075011Y1386372D01*
X1075225Y1386947D01*
X1075453Y1387517D01*
X1075695Y1388081D01*
X1075950Y1388639D01*
X1076219Y1389190D01*
X1076502Y1389735D01*
X1076798Y1390272D01*
X1077107Y1390803D01*
X1077429Y1391325D01*
X1077763Y1391839D01*
X1078110Y1392345D01*
X1078470Y1392842D01*
X1078841Y1393331D01*
X1079225Y1393810D01*
X1079620Y1394279D01*
X1080026Y1394739D01*
X1080444Y1395189D01*
X1080872Y1395628D01*
X1081311Y1396056D01*
X1081761Y1396474D01*
X1082221Y1396880D01*
X1082690Y1397275D01*
X1083169Y1397659D01*
X1083658Y1398030D01*
X1084155Y1398390D01*
X1084661Y1398737D01*
X1085175Y1399071D01*
X1085697Y1399393D01*
X1086228Y1399702D01*
X1086765Y1399998D01*
X1087310Y1400281D01*
X1087861Y1400550D01*
X1088419Y1400805D01*
X1088983Y1401047D01*
X1089553Y1401275D01*
X1090128Y1401489D01*
X1090708Y1401688D01*
X1091293Y1401874D01*
X1091882Y1402044D01*
X1092475Y1402201D01*
X1093072Y1402343D01*
X1093673Y1402470D01*
X1094276Y1402582D01*
X1094882Y1402679D01*
X1095490Y1402762D01*
X1096100Y1402830D01*
X1096711Y1402882D01*
X1097323Y1402920D01*
X1097936Y1402942D01*
X1098550Y1402950D01*
X1099164Y1402942D01*
X1099777Y1402920D01*
X1100389Y1402882D01*
X1101000Y1402830D01*
X1101610Y1402762D01*
X1102218Y1402679D01*
X1102824Y1402582D01*
X1103427Y1402470D01*
X1104028Y1402343D01*
X1104625Y1402201D01*
X1105218Y1402044D01*
X1105807Y1401874D01*
X1106392Y1401688D01*
X1106972Y1401489D01*
X1107547Y1401275D01*
X1108117Y1401047D01*
X1108681Y1400805D01*
X1109239Y1400550D01*
X1109790Y1400281D01*
X1110335Y1399998D01*
X1110872Y1399702D01*
X1111403Y1399393D01*
X1111925Y1399071D01*
X1112439Y1398737D01*
X1112945Y1398390D01*
X1113442Y1398030D01*
X1113931Y1397659D01*
X1114410Y1397275D01*
X1114879Y1396880D01*
X1115339Y1396474D01*
X1115789Y1396056D01*
X1116228Y1395628D01*
X1116656Y1395189D01*
X1117074Y1394739D01*
X1117480Y1394279D01*
X1117875Y1393810D01*
X1118259Y1393331D01*
X1118630Y1392842D01*
X1118990Y1392345D01*
X1119337Y1391839D01*
X1119671Y1391325D01*
X1119993Y1390803D01*
X1120302Y1390272D01*
X1120598Y1389735D01*
X1120881Y1389190D01*
X1121150Y1388639D01*
X1121405Y1388081D01*
X1121647Y1387517D01*
X1121875Y1386947D01*
X1122089Y1386372D01*
X1122288Y1385792D01*
X1122474Y1385207D01*
X1122644Y1384618D01*
X1122801Y1384025D01*
X1122943Y1383428D01*
X1123070Y1382827D01*
X1123182Y1382224D01*
X1123279Y1381618D01*
X1123362Y1381010D01*
X1123430Y1380400D01*
X1123482Y1379789D01*
X1123520Y1379177D01*
X1123542Y1378564D01*
X1123550Y1377950D01*
X1123542Y1377336D01*
X1123520Y1376723D01*
X1123482Y1376111D01*
X1123430Y1375500D01*
X1123362Y1374890D01*
X1123279Y1374282D01*
X1123182Y1373676D01*
X1123070Y1373073D01*
X1122943Y1372472D01*
X1122801Y1371875D01*
X1122644Y1371282D01*
X1122474Y1370693D01*
X1122288Y1370108D01*
X1122089Y1369528D01*
X1121875Y1368953D01*
X1121647Y1368383D01*
X1121405Y1367819D01*
X1121150Y1367261D01*
X1120881Y1366710D01*
X1120598Y1366165D01*
X1120302Y1365628D01*
X1119993Y1365097D01*
X1119671Y1364575D01*
X1119337Y1364061D01*
X1118990Y1363555D01*
X1118630Y1363058D01*
X1118259Y1362569D01*
X1117875Y1362090D01*
X1117480Y1361621D01*
X1117074Y1361161D01*
X1116656Y1360711D01*
X1116228Y1360272D01*
X1115789Y1359844D01*
X1115339Y1359426D01*
X1114879Y1359020D01*
X1114410Y1358625D01*
X1113931Y1358241D01*
X1113442Y1357870D01*
X1112945Y1357510D01*
X1112439Y1357163D01*
X1111925Y1356829D01*
X1111403Y1356507D01*
X1110872Y1356198D01*
X1110335Y1355902D01*
X1109790Y1355619D01*
X1109239Y1355350D01*
X1108681Y1355095D01*
X1108117Y1354853D01*
X1107547Y1354625D01*
X1106972Y1354411D01*
X1106392Y1354212D01*
X1105807Y1354026D01*
X1105218Y1353856D01*
X1104625Y1353699D01*
X1104028Y1353557D01*
X1103427Y1353430D01*
X1102824Y1353318D01*
X1102218Y1353221D01*
X1101610Y1353138D01*
X1101000Y1353070D01*
X1100389Y1353018D01*
X1099777Y1352980D01*
X1099164Y1352958D01*
X1098550Y1352950D01*
X1097936Y1352958D01*
X1097323Y1352980D01*
X1096711Y1353018D01*
X1096100Y1353070D01*
X1095490Y1353138D01*
X1094882Y1353221D01*
X1094276Y1353318D01*
X1093673Y1353430D01*
X1093072Y1353557D01*
X1092475Y1353699D01*
X1091882Y1353856D01*
X1091293Y1354026D01*
X1090708Y1354212D01*
X1090128Y1354411D01*
X1089553Y1354625D01*
X1088983Y1354853D01*
X1088419Y1355095D01*
X1087861Y1355350D01*
X1087310Y1355619D01*
X1086765Y1355902D01*
X1086228Y1356198D01*
X1085697Y1356507D01*
X1085175Y1356829D01*
X1084661Y1357163D01*
X1084155Y1357510D01*
X1083658Y1357870D01*
X1083169Y1358241D01*
X1082690Y1358625D01*
X1082221Y1359020D01*
X1081761Y1359426D01*
X1081311Y1359844D01*
X1080872Y1360272D01*
X1080444Y1360711D01*
X1080026Y1361161D01*
X1079620Y1361621D01*
X1079225Y1362090D01*
X1078841Y1362569D01*
X1078470Y1363058D01*
X1078110Y1363555D01*
X1077763Y1364061D01*
X1077429Y1364575D01*
X1077107Y1365097D01*
X1076798Y1365628D01*
X1076502Y1366165D01*
X1076219Y1366710D01*
X1075950Y1367261D01*
X1075695Y1367819D01*
X1075453Y1368383D01*
X1075225Y1368953D01*
X1075011Y1369528D01*
X1074812Y1370108D01*
X1074626Y1370693D01*
X1074456Y1371282D01*
X1074299Y1371875D01*
X1074157Y1372472D01*
X1074030Y1373073D01*
X1073918Y1373676D01*
X1073821Y1374282D01*
X1073738Y1374890D01*
X1073670Y1375500D01*
X1073618Y1376111D01*
X1073580Y1376723D01*
X1073558Y1377336D01*
X1073550Y1377950D01*
X1314850Y1377950D02*
X1314858Y1378564D01*
X1314880Y1379177D01*
X1314918Y1379789D01*
X1314970Y1380400D01*
X1315038Y1381010D01*
X1315121Y1381618D01*
X1315218Y1382224D01*
X1315330Y1382827D01*
X1315457Y1383428D01*
X1315599Y1384025D01*
X1315756Y1384618D01*
X1315926Y1385207D01*
X1316112Y1385792D01*
X1316311Y1386372D01*
X1316525Y1386947D01*
X1316753Y1387517D01*
X1316995Y1388081D01*
X1317250Y1388639D01*
X1317519Y1389190D01*
X1317802Y1389735D01*
X1318098Y1390272D01*
X1318407Y1390803D01*
X1318729Y1391325D01*
X1319063Y1391839D01*
X1319410Y1392345D01*
X1319770Y1392842D01*
X1320141Y1393331D01*
X1320525Y1393810D01*
X1320920Y1394279D01*
X1321326Y1394739D01*
X1321744Y1395189D01*
X1322172Y1395628D01*
X1322611Y1396056D01*
X1323061Y1396474D01*
X1323521Y1396880D01*
X1323990Y1397275D01*
X1324469Y1397659D01*
X1324958Y1398030D01*
X1325455Y1398390D01*
X1325961Y1398737D01*
X1326475Y1399071D01*
X1326997Y1399393D01*
X1327528Y1399702D01*
X1328065Y1399998D01*
X1328610Y1400281D01*
X1329161Y1400550D01*
X1329719Y1400805D01*
X1330283Y1401047D01*
X1330853Y1401275D01*
X1331428Y1401489D01*
X1332008Y1401688D01*
X1332593Y1401874D01*
X1333182Y1402044D01*
X1333775Y1402201D01*
X1334372Y1402343D01*
X1334973Y1402470D01*
X1335576Y1402582D01*
X1336182Y1402679D01*
X1336790Y1402762D01*
X1337400Y1402830D01*
X1338011Y1402882D01*
X1338623Y1402920D01*
X1339236Y1402942D01*
X1339850Y1402950D01*
X1340464Y1402942D01*
X1341077Y1402920D01*
X1341689Y1402882D01*
X1342300Y1402830D01*
X1342910Y1402762D01*
X1343518Y1402679D01*
X1344124Y1402582D01*
X1344727Y1402470D01*
X1345328Y1402343D01*
X1345925Y1402201D01*
X1346518Y1402044D01*
X1347107Y1401874D01*
X1347692Y1401688D01*
X1348272Y1401489D01*
X1348847Y1401275D01*
X1349417Y1401047D01*
X1349981Y1400805D01*
X1350539Y1400550D01*
X1351090Y1400281D01*
X1351635Y1399998D01*
X1352172Y1399702D01*
X1352703Y1399393D01*
X1353225Y1399071D01*
X1353739Y1398737D01*
X1354245Y1398390D01*
X1354742Y1398030D01*
X1355231Y1397659D01*
X1355710Y1397275D01*
X1356179Y1396880D01*
X1356639Y1396474D01*
X1357089Y1396056D01*
X1357528Y1395628D01*
X1357956Y1395189D01*
X1358374Y1394739D01*
X1358780Y1394279D01*
X1359175Y1393810D01*
X1359559Y1393331D01*
X1359930Y1392842D01*
X1360290Y1392345D01*
X1360637Y1391839D01*
X1360971Y1391325D01*
X1361293Y1390803D01*
X1361602Y1390272D01*
X1361898Y1389735D01*
X1362181Y1389190D01*
X1362450Y1388639D01*
X1362705Y1388081D01*
X1362947Y1387517D01*
X1363175Y1386947D01*
X1363389Y1386372D01*
X1363588Y1385792D01*
X1363774Y1385207D01*
X1363944Y1384618D01*
X1364101Y1384025D01*
X1364243Y1383428D01*
X1364370Y1382827D01*
X1364482Y1382224D01*
X1364579Y1381618D01*
X1364662Y1381010D01*
X1364730Y1380400D01*
X1364782Y1379789D01*
X1364820Y1379177D01*
X1364842Y1378564D01*
X1364850Y1377950D01*
X1364842Y1377336D01*
X1364820Y1376723D01*
X1364782Y1376111D01*
X1364730Y1375500D01*
X1364662Y1374890D01*
X1364579Y1374282D01*
X1364482Y1373676D01*
X1364370Y1373073D01*
X1364243Y1372472D01*
X1364101Y1371875D01*
X1363944Y1371282D01*
X1363774Y1370693D01*
X1363588Y1370108D01*
X1363389Y1369528D01*
X1363175Y1368953D01*
X1362947Y1368383D01*
X1362705Y1367819D01*
X1362450Y1367261D01*
X1362181Y1366710D01*
X1361898Y1366165D01*
X1361602Y1365628D01*
X1361293Y1365097D01*
X1360971Y1364575D01*
X1360637Y1364061D01*
X1360290Y1363555D01*
X1359930Y1363058D01*
X1359559Y1362569D01*
X1359175Y1362090D01*
X1358780Y1361621D01*
X1358374Y1361161D01*
X1357956Y1360711D01*
X1357528Y1360272D01*
X1357089Y1359844D01*
X1356639Y1359426D01*
X1356179Y1359020D01*
X1355710Y1358625D01*
X1355231Y1358241D01*
X1354742Y1357870D01*
X1354245Y1357510D01*
X1353739Y1357163D01*
X1353225Y1356829D01*
X1352703Y1356507D01*
X1352172Y1356198D01*
X1351635Y1355902D01*
X1351090Y1355619D01*
X1350539Y1355350D01*
X1349981Y1355095D01*
X1349417Y1354853D01*
X1348847Y1354625D01*
X1348272Y1354411D01*
X1347692Y1354212D01*
X1347107Y1354026D01*
X1346518Y1353856D01*
X1345925Y1353699D01*
X1345328Y1353557D01*
X1344727Y1353430D01*
X1344124Y1353318D01*
X1343518Y1353221D01*
X1342910Y1353138D01*
X1342300Y1353070D01*
X1341689Y1353018D01*
X1341077Y1352980D01*
X1340464Y1352958D01*
X1339850Y1352950D01*
X1339236Y1352958D01*
X1338623Y1352980D01*
X1338011Y1353018D01*
X1337400Y1353070D01*
X1336790Y1353138D01*
X1336182Y1353221D01*
X1335576Y1353318D01*
X1334973Y1353430D01*
X1334372Y1353557D01*
X1333775Y1353699D01*
X1333182Y1353856D01*
X1332593Y1354026D01*
X1332008Y1354212D01*
X1331428Y1354411D01*
X1330853Y1354625D01*
X1330283Y1354853D01*
X1329719Y1355095D01*
X1329161Y1355350D01*
X1328610Y1355619D01*
X1328065Y1355902D01*
X1327528Y1356198D01*
X1326997Y1356507D01*
X1326475Y1356829D01*
X1325961Y1357163D01*
X1325455Y1357510D01*
X1324958Y1357870D01*
X1324469Y1358241D01*
X1323990Y1358625D01*
X1323521Y1359020D01*
X1323061Y1359426D01*
X1322611Y1359844D01*
X1322172Y1360272D01*
X1321744Y1360711D01*
X1321326Y1361161D01*
X1320920Y1361621D01*
X1320525Y1362090D01*
X1320141Y1362569D01*
X1319770Y1363058D01*
X1319410Y1363555D01*
X1319063Y1364061D01*
X1318729Y1364575D01*
X1318407Y1365097D01*
X1318098Y1365628D01*
X1317802Y1366165D01*
X1317519Y1366710D01*
X1317250Y1367261D01*
X1316995Y1367819D01*
X1316753Y1368383D01*
X1316525Y1368953D01*
X1316311Y1369528D01*
X1316112Y1370108D01*
X1315926Y1370693D01*
X1315756Y1371282D01*
X1315599Y1371875D01*
X1315457Y1372472D01*
X1315330Y1373073D01*
X1315218Y1373676D01*
X1315121Y1374282D01*
X1315038Y1374890D01*
X1314970Y1375500D01*
X1314918Y1376111D01*
X1314880Y1376723D01*
X1314858Y1377336D01*
X1314850Y1377950D01*
X590950Y1377950D02*
X590958Y1378564D01*
X590980Y1379177D01*
X591018Y1379789D01*
X591070Y1380400D01*
X591138Y1381010D01*
X591221Y1381618D01*
X591318Y1382224D01*
X591430Y1382827D01*
X591557Y1383428D01*
X591699Y1384025D01*
X591856Y1384618D01*
X592026Y1385207D01*
X592212Y1385792D01*
X592411Y1386372D01*
X592625Y1386947D01*
X592853Y1387517D01*
X593095Y1388081D01*
X593350Y1388639D01*
X593619Y1389190D01*
X593902Y1389735D01*
X594198Y1390272D01*
X594507Y1390803D01*
X594829Y1391325D01*
X595163Y1391839D01*
X595510Y1392345D01*
X595870Y1392842D01*
X596241Y1393331D01*
X596625Y1393810D01*
X597020Y1394279D01*
X597426Y1394739D01*
X597844Y1395189D01*
X598272Y1395628D01*
X598711Y1396056D01*
X599161Y1396474D01*
X599621Y1396880D01*
X600090Y1397275D01*
X600569Y1397659D01*
X601058Y1398030D01*
X601555Y1398390D01*
X602061Y1398737D01*
X602575Y1399071D01*
X603097Y1399393D01*
X603628Y1399702D01*
X604165Y1399998D01*
X604710Y1400281D01*
X605261Y1400550D01*
X605819Y1400805D01*
X606383Y1401047D01*
X606953Y1401275D01*
X607528Y1401489D01*
X608108Y1401688D01*
X608693Y1401874D01*
X609282Y1402044D01*
X609875Y1402201D01*
X610472Y1402343D01*
X611073Y1402470D01*
X611676Y1402582D01*
X612282Y1402679D01*
X612890Y1402762D01*
X613500Y1402830D01*
X614111Y1402882D01*
X614723Y1402920D01*
X615336Y1402942D01*
X615950Y1402950D01*
X616564Y1402942D01*
X617177Y1402920D01*
X617789Y1402882D01*
X618400Y1402830D01*
X619010Y1402762D01*
X619618Y1402679D01*
X620224Y1402582D01*
X620827Y1402470D01*
X621428Y1402343D01*
X622025Y1402201D01*
X622618Y1402044D01*
X623207Y1401874D01*
X623792Y1401688D01*
X624372Y1401489D01*
X624947Y1401275D01*
X625517Y1401047D01*
X626081Y1400805D01*
X626639Y1400550D01*
X627190Y1400281D01*
X627735Y1399998D01*
X628272Y1399702D01*
X628803Y1399393D01*
X629325Y1399071D01*
X629839Y1398737D01*
X630345Y1398390D01*
X630842Y1398030D01*
X631331Y1397659D01*
X631810Y1397275D01*
X632279Y1396880D01*
X632739Y1396474D01*
X633189Y1396056D01*
X633628Y1395628D01*
X634056Y1395189D01*
X634474Y1394739D01*
X634880Y1394279D01*
X635275Y1393810D01*
X635659Y1393331D01*
X636030Y1392842D01*
X636390Y1392345D01*
X636737Y1391839D01*
X637071Y1391325D01*
X637393Y1390803D01*
X637702Y1390272D01*
X637998Y1389735D01*
X638281Y1389190D01*
X638550Y1388639D01*
X638805Y1388081D01*
X639047Y1387517D01*
X639275Y1386947D01*
X639489Y1386372D01*
X639688Y1385792D01*
X639874Y1385207D01*
X640044Y1384618D01*
X640201Y1384025D01*
X640343Y1383428D01*
X640470Y1382827D01*
X640582Y1382224D01*
X640679Y1381618D01*
X640762Y1381010D01*
X640830Y1380400D01*
X640882Y1379789D01*
X640920Y1379177D01*
X640942Y1378564D01*
X640950Y1377950D01*
X640942Y1377336D01*
X640920Y1376723D01*
X640882Y1376111D01*
X640830Y1375500D01*
X640762Y1374890D01*
X640679Y1374282D01*
X640582Y1373676D01*
X640470Y1373073D01*
X640343Y1372472D01*
X640201Y1371875D01*
X640044Y1371282D01*
X639874Y1370693D01*
X639688Y1370108D01*
X639489Y1369528D01*
X639275Y1368953D01*
X639047Y1368383D01*
X638805Y1367819D01*
X638550Y1367261D01*
X638281Y1366710D01*
X637998Y1366165D01*
X637702Y1365628D01*
X637393Y1365097D01*
X637071Y1364575D01*
X636737Y1364061D01*
X636390Y1363555D01*
X636030Y1363058D01*
X635659Y1362569D01*
X635275Y1362090D01*
X634880Y1361621D01*
X634474Y1361161D01*
X634056Y1360711D01*
X633628Y1360272D01*
X633189Y1359844D01*
X632739Y1359426D01*
X632279Y1359020D01*
X631810Y1358625D01*
X631331Y1358241D01*
X630842Y1357870D01*
X630345Y1357510D01*
X629839Y1357163D01*
X629325Y1356829D01*
X628803Y1356507D01*
X628272Y1356198D01*
X627735Y1355902D01*
X627190Y1355619D01*
X626639Y1355350D01*
X626081Y1355095D01*
X625517Y1354853D01*
X624947Y1354625D01*
X624372Y1354411D01*
X623792Y1354212D01*
X623207Y1354026D01*
X622618Y1353856D01*
X622025Y1353699D01*
X621428Y1353557D01*
X620827Y1353430D01*
X620224Y1353318D01*
X619618Y1353221D01*
X619010Y1353138D01*
X618400Y1353070D01*
X617789Y1353018D01*
X617177Y1352980D01*
X616564Y1352958D01*
X615950Y1352950D01*
X615336Y1352958D01*
X614723Y1352980D01*
X614111Y1353018D01*
X613500Y1353070D01*
X612890Y1353138D01*
X612282Y1353221D01*
X611676Y1353318D01*
X611073Y1353430D01*
X610472Y1353557D01*
X609875Y1353699D01*
X609282Y1353856D01*
X608693Y1354026D01*
X608108Y1354212D01*
X607528Y1354411D01*
X606953Y1354625D01*
X606383Y1354853D01*
X605819Y1355095D01*
X605261Y1355350D01*
X604710Y1355619D01*
X604165Y1355902D01*
X603628Y1356198D01*
X603097Y1356507D01*
X602575Y1356829D01*
X602061Y1357163D01*
X601555Y1357510D01*
X601058Y1357870D01*
X600569Y1358241D01*
X600090Y1358625D01*
X599621Y1359020D01*
X599161Y1359426D01*
X598711Y1359844D01*
X598272Y1360272D01*
X597844Y1360711D01*
X597426Y1361161D01*
X597020Y1361621D01*
X596625Y1362090D01*
X596241Y1362569D01*
X595870Y1363058D01*
X595510Y1363555D01*
X595163Y1364061D01*
X594829Y1364575D01*
X594507Y1365097D01*
X594198Y1365628D01*
X593902Y1366165D01*
X593619Y1366710D01*
X593350Y1367261D01*
X593095Y1367819D01*
X592853Y1368383D01*
X592625Y1368953D01*
X592411Y1369528D01*
X592212Y1370108D01*
X592026Y1370693D01*
X591856Y1371282D01*
X591699Y1371875D01*
X591557Y1372472D01*
X591430Y1373073D01*
X591318Y1373676D01*
X591221Y1374282D01*
X591138Y1374890D01*
X591070Y1375500D01*
X591018Y1376111D01*
X590980Y1376723D01*
X590958Y1377336D01*
X590950Y1377950D01*
X832250Y1377950D02*
X832258Y1378564D01*
X832280Y1379177D01*
X832318Y1379789D01*
X832370Y1380400D01*
X832438Y1381010D01*
X832521Y1381618D01*
X832618Y1382224D01*
X832730Y1382827D01*
X832857Y1383428D01*
X832999Y1384025D01*
X833156Y1384618D01*
X833326Y1385207D01*
X833512Y1385792D01*
X833711Y1386372D01*
X833925Y1386947D01*
X834153Y1387517D01*
X834395Y1388081D01*
X834650Y1388639D01*
X834919Y1389190D01*
X835202Y1389735D01*
X835498Y1390272D01*
X835807Y1390803D01*
X836129Y1391325D01*
X836463Y1391839D01*
X836810Y1392345D01*
X837170Y1392842D01*
X837541Y1393331D01*
X837925Y1393810D01*
X838320Y1394279D01*
X838726Y1394739D01*
X839144Y1395189D01*
X839572Y1395628D01*
X840011Y1396056D01*
X840461Y1396474D01*
X840921Y1396880D01*
X841390Y1397275D01*
X841869Y1397659D01*
X842358Y1398030D01*
X842855Y1398390D01*
X843361Y1398737D01*
X843875Y1399071D01*
X844397Y1399393D01*
X844928Y1399702D01*
X845465Y1399998D01*
X846010Y1400281D01*
X846561Y1400550D01*
X847119Y1400805D01*
X847683Y1401047D01*
X848253Y1401275D01*
X848828Y1401489D01*
X849408Y1401688D01*
X849993Y1401874D01*
X850582Y1402044D01*
X851175Y1402201D01*
X851772Y1402343D01*
X852373Y1402470D01*
X852976Y1402582D01*
X853582Y1402679D01*
X854190Y1402762D01*
X854800Y1402830D01*
X855411Y1402882D01*
X856023Y1402920D01*
X856636Y1402942D01*
X857250Y1402950D01*
X857864Y1402942D01*
X858477Y1402920D01*
X859089Y1402882D01*
X859700Y1402830D01*
X860310Y1402762D01*
X860918Y1402679D01*
X861524Y1402582D01*
X862127Y1402470D01*
X862728Y1402343D01*
X863325Y1402201D01*
X863918Y1402044D01*
X864507Y1401874D01*
X865092Y1401688D01*
X865672Y1401489D01*
X866247Y1401275D01*
X866817Y1401047D01*
X867381Y1400805D01*
X867939Y1400550D01*
X868490Y1400281D01*
X869035Y1399998D01*
X869572Y1399702D01*
X870103Y1399393D01*
X870625Y1399071D01*
X871139Y1398737D01*
X871645Y1398390D01*
X872142Y1398030D01*
X872631Y1397659D01*
X873110Y1397275D01*
X873579Y1396880D01*
X874039Y1396474D01*
X874489Y1396056D01*
X874928Y1395628D01*
X875356Y1395189D01*
X875774Y1394739D01*
X876180Y1394279D01*
X876575Y1393810D01*
X876959Y1393331D01*
X877330Y1392842D01*
X877690Y1392345D01*
X878037Y1391839D01*
X878371Y1391325D01*
X878693Y1390803D01*
X879002Y1390272D01*
X879298Y1389735D01*
X879581Y1389190D01*
X879850Y1388639D01*
X880105Y1388081D01*
X880347Y1387517D01*
X880575Y1386947D01*
X880789Y1386372D01*
X880988Y1385792D01*
X881174Y1385207D01*
X881344Y1384618D01*
X881501Y1384025D01*
X881643Y1383428D01*
X881770Y1382827D01*
X881882Y1382224D01*
X881979Y1381618D01*
X882062Y1381010D01*
X882130Y1380400D01*
X882182Y1379789D01*
X882220Y1379177D01*
X882242Y1378564D01*
X882250Y1377950D01*
X882242Y1377336D01*
X882220Y1376723D01*
X882182Y1376111D01*
X882130Y1375500D01*
X882062Y1374890D01*
X881979Y1374282D01*
X881882Y1373676D01*
X881770Y1373073D01*
X881643Y1372472D01*
X881501Y1371875D01*
X881344Y1371282D01*
X881174Y1370693D01*
X880988Y1370108D01*
X880789Y1369528D01*
X880575Y1368953D01*
X880347Y1368383D01*
X880105Y1367819D01*
X879850Y1367261D01*
X879581Y1366710D01*
X879298Y1366165D01*
X879002Y1365628D01*
X878693Y1365097D01*
X878371Y1364575D01*
X878037Y1364061D01*
X877690Y1363555D01*
X877330Y1363058D01*
X876959Y1362569D01*
X876575Y1362090D01*
X876180Y1361621D01*
X875774Y1361161D01*
X875356Y1360711D01*
X874928Y1360272D01*
X874489Y1359844D01*
X874039Y1359426D01*
X873579Y1359020D01*
X873110Y1358625D01*
X872631Y1358241D01*
X872142Y1357870D01*
X871645Y1357510D01*
X871139Y1357163D01*
X870625Y1356829D01*
X870103Y1356507D01*
X869572Y1356198D01*
X869035Y1355902D01*
X868490Y1355619D01*
X867939Y1355350D01*
X867381Y1355095D01*
X866817Y1354853D01*
X866247Y1354625D01*
X865672Y1354411D01*
X865092Y1354212D01*
X864507Y1354026D01*
X863918Y1353856D01*
X863325Y1353699D01*
X862728Y1353557D01*
X862127Y1353430D01*
X861524Y1353318D01*
X860918Y1353221D01*
X860310Y1353138D01*
X859700Y1353070D01*
X859089Y1353018D01*
X858477Y1352980D01*
X857864Y1352958D01*
X857250Y1352950D01*
X856636Y1352958D01*
X856023Y1352980D01*
X855411Y1353018D01*
X854800Y1353070D01*
X854190Y1353138D01*
X853582Y1353221D01*
X852976Y1353318D01*
X852373Y1353430D01*
X851772Y1353557D01*
X851175Y1353699D01*
X850582Y1353856D01*
X849993Y1354026D01*
X849408Y1354212D01*
X848828Y1354411D01*
X848253Y1354625D01*
X847683Y1354853D01*
X847119Y1355095D01*
X846561Y1355350D01*
X846010Y1355619D01*
X845465Y1355902D01*
X844928Y1356198D01*
X844397Y1356507D01*
X843875Y1356829D01*
X843361Y1357163D01*
X842855Y1357510D01*
X842358Y1357870D01*
X841869Y1358241D01*
X841390Y1358625D01*
X840921Y1359020D01*
X840461Y1359426D01*
X840011Y1359844D01*
X839572Y1360272D01*
X839144Y1360711D01*
X838726Y1361161D01*
X838320Y1361621D01*
X837925Y1362090D01*
X837541Y1362569D01*
X837170Y1363058D01*
X836810Y1363555D01*
X836463Y1364061D01*
X836129Y1364575D01*
X835807Y1365097D01*
X835498Y1365628D01*
X835202Y1366165D01*
X834919Y1366710D01*
X834650Y1367261D01*
X834395Y1367819D01*
X834153Y1368383D01*
X833925Y1368953D01*
X833711Y1369528D01*
X833512Y1370108D01*
X833326Y1370693D01*
X833156Y1371282D01*
X832999Y1371875D01*
X832857Y1372472D01*
X832730Y1373073D01*
X832618Y1373676D01*
X832521Y1374282D01*
X832438Y1374890D01*
X832370Y1375500D01*
X832318Y1376111D01*
X832280Y1376723D01*
X832258Y1377336D01*
X832250Y1377950D01*
X2038750Y1377950D02*
X2038758Y1378564D01*
X2038780Y1379177D01*
X2038818Y1379789D01*
X2038870Y1380400D01*
X2038938Y1381010D01*
X2039021Y1381618D01*
X2039118Y1382224D01*
X2039230Y1382827D01*
X2039357Y1383428D01*
X2039499Y1384025D01*
X2039656Y1384618D01*
X2039826Y1385207D01*
X2040012Y1385792D01*
X2040211Y1386372D01*
X2040425Y1386947D01*
X2040653Y1387517D01*
X2040895Y1388081D01*
X2041150Y1388639D01*
X2041419Y1389190D01*
X2041702Y1389735D01*
X2041998Y1390272D01*
X2042307Y1390803D01*
X2042629Y1391325D01*
X2042963Y1391839D01*
X2043310Y1392345D01*
X2043670Y1392842D01*
X2044041Y1393331D01*
X2044425Y1393810D01*
X2044820Y1394279D01*
X2045226Y1394739D01*
X2045644Y1395189D01*
X2046072Y1395628D01*
X2046511Y1396056D01*
X2046961Y1396474D01*
X2047421Y1396880D01*
X2047890Y1397275D01*
X2048369Y1397659D01*
X2048858Y1398030D01*
X2049355Y1398390D01*
X2049861Y1398737D01*
X2050375Y1399071D01*
X2050897Y1399393D01*
X2051428Y1399702D01*
X2051965Y1399998D01*
X2052510Y1400281D01*
X2053061Y1400550D01*
X2053619Y1400805D01*
X2054183Y1401047D01*
X2054753Y1401275D01*
X2055328Y1401489D01*
X2055908Y1401688D01*
X2056493Y1401874D01*
X2057082Y1402044D01*
X2057675Y1402201D01*
X2058272Y1402343D01*
X2058873Y1402470D01*
X2059476Y1402582D01*
X2060082Y1402679D01*
X2060690Y1402762D01*
X2061300Y1402830D01*
X2061911Y1402882D01*
X2062523Y1402920D01*
X2063136Y1402942D01*
X2063750Y1402950D01*
X2064364Y1402942D01*
X2064977Y1402920D01*
X2065589Y1402882D01*
X2066200Y1402830D01*
X2066810Y1402762D01*
X2067418Y1402679D01*
X2068024Y1402582D01*
X2068627Y1402470D01*
X2069228Y1402343D01*
X2069825Y1402201D01*
X2070418Y1402044D01*
X2071007Y1401874D01*
X2071592Y1401688D01*
X2072172Y1401489D01*
X2072747Y1401275D01*
X2073317Y1401047D01*
X2073881Y1400805D01*
X2074439Y1400550D01*
X2074990Y1400281D01*
X2075535Y1399998D01*
X2076072Y1399702D01*
X2076603Y1399393D01*
X2077125Y1399071D01*
X2077639Y1398737D01*
X2078145Y1398390D01*
X2078642Y1398030D01*
X2079131Y1397659D01*
X2079610Y1397275D01*
X2080079Y1396880D01*
X2080539Y1396474D01*
X2080989Y1396056D01*
X2081428Y1395628D01*
X2081856Y1395189D01*
X2082274Y1394739D01*
X2082680Y1394279D01*
X2083075Y1393810D01*
X2083459Y1393331D01*
X2083830Y1392842D01*
X2084190Y1392345D01*
X2084537Y1391839D01*
X2084871Y1391325D01*
X2085193Y1390803D01*
X2085502Y1390272D01*
X2085798Y1389735D01*
X2086081Y1389190D01*
X2086350Y1388639D01*
X2086605Y1388081D01*
X2086847Y1387517D01*
X2087075Y1386947D01*
X2087289Y1386372D01*
X2087488Y1385792D01*
X2087674Y1385207D01*
X2087844Y1384618D01*
X2088001Y1384025D01*
X2088143Y1383428D01*
X2088270Y1382827D01*
X2088382Y1382224D01*
X2088479Y1381618D01*
X2088562Y1381010D01*
X2088630Y1380400D01*
X2088682Y1379789D01*
X2088720Y1379177D01*
X2088742Y1378564D01*
X2088750Y1377950D01*
X2088742Y1377336D01*
X2088720Y1376723D01*
X2088682Y1376111D01*
X2088630Y1375500D01*
X2088562Y1374890D01*
X2088479Y1374282D01*
X2088382Y1373676D01*
X2088270Y1373073D01*
X2088143Y1372472D01*
X2088001Y1371875D01*
X2087844Y1371282D01*
X2087674Y1370693D01*
X2087488Y1370108D01*
X2087289Y1369528D01*
X2087075Y1368953D01*
X2086847Y1368383D01*
X2086605Y1367819D01*
X2086350Y1367261D01*
X2086081Y1366710D01*
X2085798Y1366165D01*
X2085502Y1365628D01*
X2085193Y1365097D01*
X2084871Y1364575D01*
X2084537Y1364061D01*
X2084190Y1363555D01*
X2083830Y1363058D01*
X2083459Y1362569D01*
X2083075Y1362090D01*
X2082680Y1361621D01*
X2082274Y1361161D01*
X2081856Y1360711D01*
X2081428Y1360272D01*
X2080989Y1359844D01*
X2080539Y1359426D01*
X2080079Y1359020D01*
X2079610Y1358625D01*
X2079131Y1358241D01*
X2078642Y1357870D01*
X2078145Y1357510D01*
X2077639Y1357163D01*
X2077125Y1356829D01*
X2076603Y1356507D01*
X2076072Y1356198D01*
X2075535Y1355902D01*
X2074990Y1355619D01*
X2074439Y1355350D01*
X2073881Y1355095D01*
X2073317Y1354853D01*
X2072747Y1354625D01*
X2072172Y1354411D01*
X2071592Y1354212D01*
X2071007Y1354026D01*
X2070418Y1353856D01*
X2069825Y1353699D01*
X2069228Y1353557D01*
X2068627Y1353430D01*
X2068024Y1353318D01*
X2067418Y1353221D01*
X2066810Y1353138D01*
X2066200Y1353070D01*
X2065589Y1353018D01*
X2064977Y1352980D01*
X2064364Y1352958D01*
X2063750Y1352950D01*
X2063136Y1352958D01*
X2062523Y1352980D01*
X2061911Y1353018D01*
X2061300Y1353070D01*
X2060690Y1353138D01*
X2060082Y1353221D01*
X2059476Y1353318D01*
X2058873Y1353430D01*
X2058272Y1353557D01*
X2057675Y1353699D01*
X2057082Y1353856D01*
X2056493Y1354026D01*
X2055908Y1354212D01*
X2055328Y1354411D01*
X2054753Y1354625D01*
X2054183Y1354853D01*
X2053619Y1355095D01*
X2053061Y1355350D01*
X2052510Y1355619D01*
X2051965Y1355902D01*
X2051428Y1356198D01*
X2050897Y1356507D01*
X2050375Y1356829D01*
X2049861Y1357163D01*
X2049355Y1357510D01*
X2048858Y1357870D01*
X2048369Y1358241D01*
X2047890Y1358625D01*
X2047421Y1359020D01*
X2046961Y1359426D01*
X2046511Y1359844D01*
X2046072Y1360272D01*
X2045644Y1360711D01*
X2045226Y1361161D01*
X2044820Y1361621D01*
X2044425Y1362090D01*
X2044041Y1362569D01*
X2043670Y1363058D01*
X2043310Y1363555D01*
X2042963Y1364061D01*
X2042629Y1364575D01*
X2042307Y1365097D01*
X2041998Y1365628D01*
X2041702Y1366165D01*
X2041419Y1366710D01*
X2041150Y1367261D01*
X2040895Y1367819D01*
X2040653Y1368383D01*
X2040425Y1368953D01*
X2040211Y1369528D01*
X2040012Y1370108D01*
X2039826Y1370693D01*
X2039656Y1371282D01*
X2039499Y1371875D01*
X2039357Y1372472D01*
X2039230Y1373073D01*
X2039118Y1373676D01*
X2039021Y1374282D01*
X2038938Y1374890D01*
X2038870Y1375500D01*
X2038818Y1376111D01*
X2038780Y1376723D01*
X2038758Y1377336D01*
X2038750Y1377950D01*
X2280050Y1377950D02*
X2280058Y1378564D01*
X2280080Y1379177D01*
X2280118Y1379789D01*
X2280170Y1380400D01*
X2280238Y1381010D01*
X2280321Y1381618D01*
X2280418Y1382224D01*
X2280530Y1382827D01*
X2280657Y1383428D01*
X2280799Y1384025D01*
X2280956Y1384618D01*
X2281126Y1385207D01*
X2281312Y1385792D01*
X2281511Y1386372D01*
X2281725Y1386947D01*
X2281953Y1387517D01*
X2282195Y1388081D01*
X2282450Y1388639D01*
X2282719Y1389190D01*
X2283002Y1389735D01*
X2283298Y1390272D01*
X2283607Y1390803D01*
X2283929Y1391325D01*
X2284263Y1391839D01*
X2284610Y1392345D01*
X2284970Y1392842D01*
X2285341Y1393331D01*
X2285725Y1393810D01*
X2286120Y1394279D01*
X2286526Y1394739D01*
X2286944Y1395189D01*
X2287372Y1395628D01*
X2287811Y1396056D01*
X2288261Y1396474D01*
X2288721Y1396880D01*
X2289190Y1397275D01*
X2289669Y1397659D01*
X2290158Y1398030D01*
X2290655Y1398390D01*
X2291161Y1398737D01*
X2291675Y1399071D01*
X2292197Y1399393D01*
X2292728Y1399702D01*
X2293265Y1399998D01*
X2293810Y1400281D01*
X2294361Y1400550D01*
X2294919Y1400805D01*
X2295483Y1401047D01*
X2296053Y1401275D01*
X2296628Y1401489D01*
X2297208Y1401688D01*
X2297793Y1401874D01*
X2298382Y1402044D01*
X2298975Y1402201D01*
X2299572Y1402343D01*
X2300173Y1402470D01*
X2300776Y1402582D01*
X2301382Y1402679D01*
X2301990Y1402762D01*
X2302600Y1402830D01*
X2303211Y1402882D01*
X2303823Y1402920D01*
X2304436Y1402942D01*
X2305050Y1402950D01*
X2305664Y1402942D01*
X2306277Y1402920D01*
X2306889Y1402882D01*
X2307500Y1402830D01*
X2308110Y1402762D01*
X2308718Y1402679D01*
X2309324Y1402582D01*
X2309927Y1402470D01*
X2310528Y1402343D01*
X2311125Y1402201D01*
X2311718Y1402044D01*
X2312307Y1401874D01*
X2312892Y1401688D01*
X2313472Y1401489D01*
X2314047Y1401275D01*
X2314617Y1401047D01*
X2315181Y1400805D01*
X2315739Y1400550D01*
X2316290Y1400281D01*
X2316835Y1399998D01*
X2317372Y1399702D01*
X2317903Y1399393D01*
X2318425Y1399071D01*
X2318939Y1398737D01*
X2319445Y1398390D01*
X2319942Y1398030D01*
X2320431Y1397659D01*
X2320910Y1397275D01*
X2321379Y1396880D01*
X2321839Y1396474D01*
X2322289Y1396056D01*
X2322728Y1395628D01*
X2323156Y1395189D01*
X2323574Y1394739D01*
X2323980Y1394279D01*
X2324375Y1393810D01*
X2324759Y1393331D01*
X2325130Y1392842D01*
X2325490Y1392345D01*
X2325837Y1391839D01*
X2326171Y1391325D01*
X2326493Y1390803D01*
X2326802Y1390272D01*
X2327098Y1389735D01*
X2327381Y1389190D01*
X2327650Y1388639D01*
X2327905Y1388081D01*
X2328147Y1387517D01*
X2328375Y1386947D01*
X2328589Y1386372D01*
X2328788Y1385792D01*
X2328974Y1385207D01*
X2329144Y1384618D01*
X2329301Y1384025D01*
X2329443Y1383428D01*
X2329570Y1382827D01*
X2329682Y1382224D01*
X2329779Y1381618D01*
X2329862Y1381010D01*
X2329930Y1380400D01*
X2329982Y1379789D01*
X2330020Y1379177D01*
X2330042Y1378564D01*
X2330050Y1377950D01*
X2330042Y1377336D01*
X2330020Y1376723D01*
X2329982Y1376111D01*
X2329930Y1375500D01*
X2329862Y1374890D01*
X2329779Y1374282D01*
X2329682Y1373676D01*
X2329570Y1373073D01*
X2329443Y1372472D01*
X2329301Y1371875D01*
X2329144Y1371282D01*
X2328974Y1370693D01*
X2328788Y1370108D01*
X2328589Y1369528D01*
X2328375Y1368953D01*
X2328147Y1368383D01*
X2327905Y1367819D01*
X2327650Y1367261D01*
X2327381Y1366710D01*
X2327098Y1366165D01*
X2326802Y1365628D01*
X2326493Y1365097D01*
X2326171Y1364575D01*
X2325837Y1364061D01*
X2325490Y1363555D01*
X2325130Y1363058D01*
X2324759Y1362569D01*
X2324375Y1362090D01*
X2323980Y1361621D01*
X2323574Y1361161D01*
X2323156Y1360711D01*
X2322728Y1360272D01*
X2322289Y1359844D01*
X2321839Y1359426D01*
X2321379Y1359020D01*
X2320910Y1358625D01*
X2320431Y1358241D01*
X2319942Y1357870D01*
X2319445Y1357510D01*
X2318939Y1357163D01*
X2318425Y1356829D01*
X2317903Y1356507D01*
X2317372Y1356198D01*
X2316835Y1355902D01*
X2316290Y1355619D01*
X2315739Y1355350D01*
X2315181Y1355095D01*
X2314617Y1354853D01*
X2314047Y1354625D01*
X2313472Y1354411D01*
X2312892Y1354212D01*
X2312307Y1354026D01*
X2311718Y1353856D01*
X2311125Y1353699D01*
X2310528Y1353557D01*
X2309927Y1353430D01*
X2309324Y1353318D01*
X2308718Y1353221D01*
X2308110Y1353138D01*
X2307500Y1353070D01*
X2306889Y1353018D01*
X2306277Y1352980D01*
X2305664Y1352958D01*
X2305050Y1352950D01*
X2304436Y1352958D01*
X2303823Y1352980D01*
X2303211Y1353018D01*
X2302600Y1353070D01*
X2301990Y1353138D01*
X2301382Y1353221D01*
X2300776Y1353318D01*
X2300173Y1353430D01*
X2299572Y1353557D01*
X2298975Y1353699D01*
X2298382Y1353856D01*
X2297793Y1354026D01*
X2297208Y1354212D01*
X2296628Y1354411D01*
X2296053Y1354625D01*
X2295483Y1354853D01*
X2294919Y1355095D01*
X2294361Y1355350D01*
X2293810Y1355619D01*
X2293265Y1355902D01*
X2292728Y1356198D01*
X2292197Y1356507D01*
X2291675Y1356829D01*
X2291161Y1357163D01*
X2290655Y1357510D01*
X2290158Y1357870D01*
X2289669Y1358241D01*
X2289190Y1358625D01*
X2288721Y1359020D01*
X2288261Y1359426D01*
X2287811Y1359844D01*
X2287372Y1360272D01*
X2286944Y1360711D01*
X2286526Y1361161D01*
X2286120Y1361621D01*
X2285725Y1362090D01*
X2285341Y1362569D01*
X2284970Y1363058D01*
X2284610Y1363555D01*
X2284263Y1364061D01*
X2283929Y1364575D01*
X2283607Y1365097D01*
X2283298Y1365628D01*
X2283002Y1366165D01*
X2282719Y1366710D01*
X2282450Y1367261D01*
X2282195Y1367819D01*
X2281953Y1368383D01*
X2281725Y1368953D01*
X2281511Y1369528D01*
X2281312Y1370108D01*
X2281126Y1370693D01*
X2280956Y1371282D01*
X2280799Y1371875D01*
X2280657Y1372472D01*
X2280530Y1373073D01*
X2280418Y1373676D01*
X2280321Y1374282D01*
X2280238Y1374890D01*
X2280170Y1375500D01*
X2280118Y1376111D01*
X2280080Y1376723D01*
X2280058Y1377336D01*
X2280050Y1377950D01*
X1556150Y1377950D02*
X1556158Y1378564D01*
X1556180Y1379177D01*
X1556218Y1379789D01*
X1556270Y1380400D01*
X1556338Y1381010D01*
X1556421Y1381618D01*
X1556518Y1382224D01*
X1556630Y1382827D01*
X1556757Y1383428D01*
X1556899Y1384025D01*
X1557056Y1384618D01*
X1557226Y1385207D01*
X1557412Y1385792D01*
X1557611Y1386372D01*
X1557825Y1386947D01*
X1558053Y1387517D01*
X1558295Y1388081D01*
X1558550Y1388639D01*
X1558819Y1389190D01*
X1559102Y1389735D01*
X1559398Y1390272D01*
X1559707Y1390803D01*
X1560029Y1391325D01*
X1560363Y1391839D01*
X1560710Y1392345D01*
X1561070Y1392842D01*
X1561441Y1393331D01*
X1561825Y1393810D01*
X1562220Y1394279D01*
X1562626Y1394739D01*
X1563044Y1395189D01*
X1563472Y1395628D01*
X1563911Y1396056D01*
X1564361Y1396474D01*
X1564821Y1396880D01*
X1565290Y1397275D01*
X1565769Y1397659D01*
X1566258Y1398030D01*
X1566755Y1398390D01*
X1567261Y1398737D01*
X1567775Y1399071D01*
X1568297Y1399393D01*
X1568828Y1399702D01*
X1569365Y1399998D01*
X1569910Y1400281D01*
X1570461Y1400550D01*
X1571019Y1400805D01*
X1571583Y1401047D01*
X1572153Y1401275D01*
X1572728Y1401489D01*
X1573308Y1401688D01*
X1573893Y1401874D01*
X1574482Y1402044D01*
X1575075Y1402201D01*
X1575672Y1402343D01*
X1576273Y1402470D01*
X1576876Y1402582D01*
X1577482Y1402679D01*
X1578090Y1402762D01*
X1578700Y1402830D01*
X1579311Y1402882D01*
X1579923Y1402920D01*
X1580536Y1402942D01*
X1581150Y1402950D01*
X1581764Y1402942D01*
X1582377Y1402920D01*
X1582989Y1402882D01*
X1583600Y1402830D01*
X1584210Y1402762D01*
X1584818Y1402679D01*
X1585424Y1402582D01*
X1586027Y1402470D01*
X1586628Y1402343D01*
X1587225Y1402201D01*
X1587818Y1402044D01*
X1588407Y1401874D01*
X1588992Y1401688D01*
X1589572Y1401489D01*
X1590147Y1401275D01*
X1590717Y1401047D01*
X1591281Y1400805D01*
X1591839Y1400550D01*
X1592390Y1400281D01*
X1592935Y1399998D01*
X1593472Y1399702D01*
X1594003Y1399393D01*
X1594525Y1399071D01*
X1595039Y1398737D01*
X1595545Y1398390D01*
X1596042Y1398030D01*
X1596531Y1397659D01*
X1597010Y1397275D01*
X1597479Y1396880D01*
X1597939Y1396474D01*
X1598389Y1396056D01*
X1598828Y1395628D01*
X1599256Y1395189D01*
X1599674Y1394739D01*
X1600080Y1394279D01*
X1600475Y1393810D01*
X1600859Y1393331D01*
X1601230Y1392842D01*
X1601590Y1392345D01*
X1601937Y1391839D01*
X1602271Y1391325D01*
X1602593Y1390803D01*
X1602902Y1390272D01*
X1603198Y1389735D01*
X1603481Y1389190D01*
X1603750Y1388639D01*
X1604005Y1388081D01*
X1604247Y1387517D01*
X1604475Y1386947D01*
X1604689Y1386372D01*
X1604888Y1385792D01*
X1605074Y1385207D01*
X1605244Y1384618D01*
X1605401Y1384025D01*
X1605543Y1383428D01*
X1605670Y1382827D01*
X1605782Y1382224D01*
X1605879Y1381618D01*
X1605962Y1381010D01*
X1606030Y1380400D01*
X1606082Y1379789D01*
X1606120Y1379177D01*
X1606142Y1378564D01*
X1606150Y1377950D01*
X1606142Y1377336D01*
X1606120Y1376723D01*
X1606082Y1376111D01*
X1606030Y1375500D01*
X1605962Y1374890D01*
X1605879Y1374282D01*
X1605782Y1373676D01*
X1605670Y1373073D01*
X1605543Y1372472D01*
X1605401Y1371875D01*
X1605244Y1371282D01*
X1605074Y1370693D01*
X1604888Y1370108D01*
X1604689Y1369528D01*
X1604475Y1368953D01*
X1604247Y1368383D01*
X1604005Y1367819D01*
X1603750Y1367261D01*
X1603481Y1366710D01*
X1603198Y1366165D01*
X1602902Y1365628D01*
X1602593Y1365097D01*
X1602271Y1364575D01*
X1601937Y1364061D01*
X1601590Y1363555D01*
X1601230Y1363058D01*
X1600859Y1362569D01*
X1600475Y1362090D01*
X1600080Y1361621D01*
X1599674Y1361161D01*
X1599256Y1360711D01*
X1598828Y1360272D01*
X1598389Y1359844D01*
X1597939Y1359426D01*
X1597479Y1359020D01*
X1597010Y1358625D01*
X1596531Y1358241D01*
X1596042Y1357870D01*
X1595545Y1357510D01*
X1595039Y1357163D01*
X1594525Y1356829D01*
X1594003Y1356507D01*
X1593472Y1356198D01*
X1592935Y1355902D01*
X1592390Y1355619D01*
X1591839Y1355350D01*
X1591281Y1355095D01*
X1590717Y1354853D01*
X1590147Y1354625D01*
X1589572Y1354411D01*
X1588992Y1354212D01*
X1588407Y1354026D01*
X1587818Y1353856D01*
X1587225Y1353699D01*
X1586628Y1353557D01*
X1586027Y1353430D01*
X1585424Y1353318D01*
X1584818Y1353221D01*
X1584210Y1353138D01*
X1583600Y1353070D01*
X1582989Y1353018D01*
X1582377Y1352980D01*
X1581764Y1352958D01*
X1581150Y1352950D01*
X1580536Y1352958D01*
X1579923Y1352980D01*
X1579311Y1353018D01*
X1578700Y1353070D01*
X1578090Y1353138D01*
X1577482Y1353221D01*
X1576876Y1353318D01*
X1576273Y1353430D01*
X1575672Y1353557D01*
X1575075Y1353699D01*
X1574482Y1353856D01*
X1573893Y1354026D01*
X1573308Y1354212D01*
X1572728Y1354411D01*
X1572153Y1354625D01*
X1571583Y1354853D01*
X1571019Y1355095D01*
X1570461Y1355350D01*
X1569910Y1355619D01*
X1569365Y1355902D01*
X1568828Y1356198D01*
X1568297Y1356507D01*
X1567775Y1356829D01*
X1567261Y1357163D01*
X1566755Y1357510D01*
X1566258Y1357870D01*
X1565769Y1358241D01*
X1565290Y1358625D01*
X1564821Y1359020D01*
X1564361Y1359426D01*
X1563911Y1359844D01*
X1563472Y1360272D01*
X1563044Y1360711D01*
X1562626Y1361161D01*
X1562220Y1361621D01*
X1561825Y1362090D01*
X1561441Y1362569D01*
X1561070Y1363058D01*
X1560710Y1363555D01*
X1560363Y1364061D01*
X1560029Y1364575D01*
X1559707Y1365097D01*
X1559398Y1365628D01*
X1559102Y1366165D01*
X1558819Y1366710D01*
X1558550Y1367261D01*
X1558295Y1367819D01*
X1558053Y1368383D01*
X1557825Y1368953D01*
X1557611Y1369528D01*
X1557412Y1370108D01*
X1557226Y1370693D01*
X1557056Y1371282D01*
X1556899Y1371875D01*
X1556757Y1372472D01*
X1556630Y1373073D01*
X1556518Y1373676D01*
X1556421Y1374282D01*
X1556338Y1374890D01*
X1556270Y1375500D01*
X1556218Y1376111D01*
X1556180Y1376723D01*
X1556158Y1377336D01*
X1556150Y1377950D01*
X1797450Y1377950D02*
X1797458Y1378564D01*
X1797480Y1379177D01*
X1797518Y1379789D01*
X1797570Y1380400D01*
X1797638Y1381010D01*
X1797721Y1381618D01*
X1797818Y1382224D01*
X1797930Y1382827D01*
X1798057Y1383428D01*
X1798199Y1384025D01*
X1798356Y1384618D01*
X1798526Y1385207D01*
X1798712Y1385792D01*
X1798911Y1386372D01*
X1799125Y1386947D01*
X1799353Y1387517D01*
X1799595Y1388081D01*
X1799850Y1388639D01*
X1800119Y1389190D01*
X1800402Y1389735D01*
X1800698Y1390272D01*
X1801007Y1390803D01*
X1801329Y1391325D01*
X1801663Y1391839D01*
X1802010Y1392345D01*
X1802370Y1392842D01*
X1802741Y1393331D01*
X1803125Y1393810D01*
X1803520Y1394279D01*
X1803926Y1394739D01*
X1804344Y1395189D01*
X1804772Y1395628D01*
X1805211Y1396056D01*
X1805661Y1396474D01*
X1806121Y1396880D01*
X1806590Y1397275D01*
X1807069Y1397659D01*
X1807558Y1398030D01*
X1808055Y1398390D01*
X1808561Y1398737D01*
X1809075Y1399071D01*
X1809597Y1399393D01*
X1810128Y1399702D01*
X1810665Y1399998D01*
X1811210Y1400281D01*
X1811761Y1400550D01*
X1812319Y1400805D01*
X1812883Y1401047D01*
X1813453Y1401275D01*
X1814028Y1401489D01*
X1814608Y1401688D01*
X1815193Y1401874D01*
X1815782Y1402044D01*
X1816375Y1402201D01*
X1816972Y1402343D01*
X1817573Y1402470D01*
X1818176Y1402582D01*
X1818782Y1402679D01*
X1819390Y1402762D01*
X1820000Y1402830D01*
X1820611Y1402882D01*
X1821223Y1402920D01*
X1821836Y1402942D01*
X1822450Y1402950D01*
X1823064Y1402942D01*
X1823677Y1402920D01*
X1824289Y1402882D01*
X1824900Y1402830D01*
X1825510Y1402762D01*
X1826118Y1402679D01*
X1826724Y1402582D01*
X1827327Y1402470D01*
X1827928Y1402343D01*
X1828525Y1402201D01*
X1829118Y1402044D01*
X1829707Y1401874D01*
X1830292Y1401688D01*
X1830872Y1401489D01*
X1831447Y1401275D01*
X1832017Y1401047D01*
X1832581Y1400805D01*
X1833139Y1400550D01*
X1833690Y1400281D01*
X1834235Y1399998D01*
X1834772Y1399702D01*
X1835303Y1399393D01*
X1835825Y1399071D01*
X1836339Y1398737D01*
X1836845Y1398390D01*
X1837342Y1398030D01*
X1837831Y1397659D01*
X1838310Y1397275D01*
X1838779Y1396880D01*
X1839239Y1396474D01*
X1839689Y1396056D01*
X1840128Y1395628D01*
X1840556Y1395189D01*
X1840974Y1394739D01*
X1841380Y1394279D01*
X1841775Y1393810D01*
X1842159Y1393331D01*
X1842530Y1392842D01*
X1842890Y1392345D01*
X1843237Y1391839D01*
X1843571Y1391325D01*
X1843893Y1390803D01*
X1844202Y1390272D01*
X1844498Y1389735D01*
X1844781Y1389190D01*
X1845050Y1388639D01*
X1845305Y1388081D01*
X1845547Y1387517D01*
X1845775Y1386947D01*
X1845989Y1386372D01*
X1846188Y1385792D01*
X1846374Y1385207D01*
X1846544Y1384618D01*
X1846701Y1384025D01*
X1846843Y1383428D01*
X1846970Y1382827D01*
X1847082Y1382224D01*
X1847179Y1381618D01*
X1847262Y1381010D01*
X1847330Y1380400D01*
X1847382Y1379789D01*
X1847420Y1379177D01*
X1847442Y1378564D01*
X1847450Y1377950D01*
X1847442Y1377336D01*
X1847420Y1376723D01*
X1847382Y1376111D01*
X1847330Y1375500D01*
X1847262Y1374890D01*
X1847179Y1374282D01*
X1847082Y1373676D01*
X1846970Y1373073D01*
X1846843Y1372472D01*
X1846701Y1371875D01*
X1846544Y1371282D01*
X1846374Y1370693D01*
X1846188Y1370108D01*
X1845989Y1369528D01*
X1845775Y1368953D01*
X1845547Y1368383D01*
X1845305Y1367819D01*
X1845050Y1367261D01*
X1844781Y1366710D01*
X1844498Y1366165D01*
X1844202Y1365628D01*
X1843893Y1365097D01*
X1843571Y1364575D01*
X1843237Y1364061D01*
X1842890Y1363555D01*
X1842530Y1363058D01*
X1842159Y1362569D01*
X1841775Y1362090D01*
X1841380Y1361621D01*
X1840974Y1361161D01*
X1840556Y1360711D01*
X1840128Y1360272D01*
X1839689Y1359844D01*
X1839239Y1359426D01*
X1838779Y1359020D01*
X1838310Y1358625D01*
X1837831Y1358241D01*
X1837342Y1357870D01*
X1836845Y1357510D01*
X1836339Y1357163D01*
X1835825Y1356829D01*
X1835303Y1356507D01*
X1834772Y1356198D01*
X1834235Y1355902D01*
X1833690Y1355619D01*
X1833139Y1355350D01*
X1832581Y1355095D01*
X1832017Y1354853D01*
X1831447Y1354625D01*
X1830872Y1354411D01*
X1830292Y1354212D01*
X1829707Y1354026D01*
X1829118Y1353856D01*
X1828525Y1353699D01*
X1827928Y1353557D01*
X1827327Y1353430D01*
X1826724Y1353318D01*
X1826118Y1353221D01*
X1825510Y1353138D01*
X1824900Y1353070D01*
X1824289Y1353018D01*
X1823677Y1352980D01*
X1823064Y1352958D01*
X1822450Y1352950D01*
X1821836Y1352958D01*
X1821223Y1352980D01*
X1820611Y1353018D01*
X1820000Y1353070D01*
X1819390Y1353138D01*
X1818782Y1353221D01*
X1818176Y1353318D01*
X1817573Y1353430D01*
X1816972Y1353557D01*
X1816375Y1353699D01*
X1815782Y1353856D01*
X1815193Y1354026D01*
X1814608Y1354212D01*
X1814028Y1354411D01*
X1813453Y1354625D01*
X1812883Y1354853D01*
X1812319Y1355095D01*
X1811761Y1355350D01*
X1811210Y1355619D01*
X1810665Y1355902D01*
X1810128Y1356198D01*
X1809597Y1356507D01*
X1809075Y1356829D01*
X1808561Y1357163D01*
X1808055Y1357510D01*
X1807558Y1357870D01*
X1807069Y1358241D01*
X1806590Y1358625D01*
X1806121Y1359020D01*
X1805661Y1359426D01*
X1805211Y1359844D01*
X1804772Y1360272D01*
X1804344Y1360711D01*
X1803926Y1361161D01*
X1803520Y1361621D01*
X1803125Y1362090D01*
X1802741Y1362569D01*
X1802370Y1363058D01*
X1802010Y1363555D01*
X1801663Y1364061D01*
X1801329Y1364575D01*
X1801007Y1365097D01*
X1800698Y1365628D01*
X1800402Y1366165D01*
X1800119Y1366710D01*
X1799850Y1367261D01*
X1799595Y1367819D01*
X1799353Y1368383D01*
X1799125Y1368953D01*
X1798911Y1369528D01*
X1798712Y1370108D01*
X1798526Y1370693D01*
X1798356Y1371282D01*
X1798199Y1371875D01*
X1798057Y1372472D01*
X1797930Y1373073D01*
X1797818Y1373676D01*
X1797721Y1374282D01*
X1797638Y1374890D01*
X1797570Y1375500D01*
X1797518Y1376111D01*
X1797480Y1376723D01*
X1797458Y1377336D01*
X1797450Y1377950D01*
X49530Y1054100D02*
X49535Y1054505D01*
X49550Y1054910D01*
X49575Y1055315D01*
X49610Y1055718D01*
X49654Y1056121D01*
X49709Y1056523D01*
X49773Y1056923D01*
X49847Y1057321D01*
X49931Y1057717D01*
X50025Y1058112D01*
X50128Y1058503D01*
X50241Y1058893D01*
X50363Y1059279D01*
X50495Y1059662D01*
X50636Y1060042D01*
X50787Y1060418D01*
X50946Y1060791D01*
X51115Y1061159D01*
X51293Y1061523D01*
X51479Y1061883D01*
X51675Y1062238D01*
X51879Y1062588D01*
X52091Y1062933D01*
X52312Y1063272D01*
X52542Y1063607D01*
X52779Y1063935D01*
X53024Y1064257D01*
X53278Y1064574D01*
X53538Y1064884D01*
X53807Y1065187D01*
X54083Y1065484D01*
X54366Y1065774D01*
X54656Y1066057D01*
X54953Y1066333D01*
X55256Y1066602D01*
X55566Y1066862D01*
X55883Y1067116D01*
X56205Y1067361D01*
X56533Y1067598D01*
X56868Y1067828D01*
X57207Y1068049D01*
X57552Y1068261D01*
X57902Y1068465D01*
X58257Y1068661D01*
X58617Y1068847D01*
X58981Y1069025D01*
X59349Y1069194D01*
X59722Y1069353D01*
X60098Y1069504D01*
X60478Y1069645D01*
X60861Y1069777D01*
X61247Y1069899D01*
X61637Y1070012D01*
X62028Y1070115D01*
X62423Y1070209D01*
X62819Y1070293D01*
X63217Y1070367D01*
X63617Y1070431D01*
X64019Y1070486D01*
X64422Y1070530D01*
X64825Y1070565D01*
X65230Y1070590D01*
X65635Y1070605D01*
X66040Y1070610D01*
X66445Y1070605D01*
X66850Y1070590D01*
X67255Y1070565D01*
X67658Y1070530D01*
X68061Y1070486D01*
X68463Y1070431D01*
X68863Y1070367D01*
X69261Y1070293D01*
X69657Y1070209D01*
X70052Y1070115D01*
X70443Y1070012D01*
X70833Y1069899D01*
X71219Y1069777D01*
X71602Y1069645D01*
X71982Y1069504D01*
X72358Y1069353D01*
X72731Y1069194D01*
X73099Y1069025D01*
X73463Y1068847D01*
X73823Y1068661D01*
X74178Y1068465D01*
X74528Y1068261D01*
X74873Y1068049D01*
X75212Y1067828D01*
X75547Y1067598D01*
X75875Y1067361D01*
X76197Y1067116D01*
X76514Y1066862D01*
X76824Y1066602D01*
X77127Y1066333D01*
X77424Y1066057D01*
X77714Y1065774D01*
X77997Y1065484D01*
X78273Y1065187D01*
X78542Y1064884D01*
X78802Y1064574D01*
X79056Y1064257D01*
X79301Y1063935D01*
X79538Y1063607D01*
X79768Y1063272D01*
X79989Y1062933D01*
X80201Y1062588D01*
X80405Y1062238D01*
X80601Y1061883D01*
X80787Y1061523D01*
X80965Y1061159D01*
X81134Y1060791D01*
X81293Y1060418D01*
X81444Y1060042D01*
X81585Y1059662D01*
X81717Y1059279D01*
X81839Y1058893D01*
X81952Y1058503D01*
X82055Y1058112D01*
X82149Y1057717D01*
X82233Y1057321D01*
X82307Y1056923D01*
X82371Y1056523D01*
X82426Y1056121D01*
X82470Y1055718D01*
X82505Y1055315D01*
X82530Y1054910D01*
X82545Y1054505D01*
X82550Y1054100D01*
X82545Y1053695D01*
X82530Y1053290D01*
X82505Y1052885D01*
X82470Y1052482D01*
X82426Y1052079D01*
X82371Y1051677D01*
X82307Y1051277D01*
X82233Y1050879D01*
X82149Y1050483D01*
X82055Y1050088D01*
X81952Y1049697D01*
X81839Y1049307D01*
X81717Y1048921D01*
X81585Y1048538D01*
X81444Y1048158D01*
X81293Y1047782D01*
X81134Y1047409D01*
X80965Y1047041D01*
X80787Y1046677D01*
X80601Y1046317D01*
X80405Y1045962D01*
X80201Y1045612D01*
X79989Y1045267D01*
X79768Y1044928D01*
X79538Y1044593D01*
X79301Y1044265D01*
X79056Y1043943D01*
X78802Y1043626D01*
X78542Y1043316D01*
X78273Y1043013D01*
X77997Y1042716D01*
X77714Y1042426D01*
X77424Y1042143D01*
X77127Y1041867D01*
X76824Y1041598D01*
X76514Y1041338D01*
X76197Y1041084D01*
X75875Y1040839D01*
X75547Y1040602D01*
X75212Y1040372D01*
X74873Y1040151D01*
X74528Y1039939D01*
X74178Y1039735D01*
X73823Y1039539D01*
X73463Y1039353D01*
X73099Y1039175D01*
X72731Y1039006D01*
X72358Y1038847D01*
X71982Y1038696D01*
X71602Y1038555D01*
X71219Y1038423D01*
X70833Y1038301D01*
X70443Y1038188D01*
X70052Y1038085D01*
X69657Y1037991D01*
X69261Y1037907D01*
X68863Y1037833D01*
X68463Y1037769D01*
X68061Y1037714D01*
X67658Y1037670D01*
X67255Y1037635D01*
X66850Y1037610D01*
X66445Y1037595D01*
X66040Y1037590D01*
X65635Y1037595D01*
X65230Y1037610D01*
X64825Y1037635D01*
X64422Y1037670D01*
X64019Y1037714D01*
X63617Y1037769D01*
X63217Y1037833D01*
X62819Y1037907D01*
X62423Y1037991D01*
X62028Y1038085D01*
X61637Y1038188D01*
X61247Y1038301D01*
X60861Y1038423D01*
X60478Y1038555D01*
X60098Y1038696D01*
X59722Y1038847D01*
X59349Y1039006D01*
X58981Y1039175D01*
X58617Y1039353D01*
X58257Y1039539D01*
X57902Y1039735D01*
X57552Y1039939D01*
X57207Y1040151D01*
X56868Y1040372D01*
X56533Y1040602D01*
X56205Y1040839D01*
X55883Y1041084D01*
X55566Y1041338D01*
X55256Y1041598D01*
X54953Y1041867D01*
X54656Y1042143D01*
X54366Y1042426D01*
X54083Y1042716D01*
X53807Y1043013D01*
X53538Y1043316D01*
X53278Y1043626D01*
X53024Y1043943D01*
X52779Y1044265D01*
X52542Y1044593D01*
X52312Y1044928D01*
X52091Y1045267D01*
X51879Y1045612D01*
X51675Y1045962D01*
X51479Y1046317D01*
X51293Y1046677D01*
X51115Y1047041D01*
X50946Y1047409D01*
X50787Y1047782D01*
X50636Y1048158D01*
X50495Y1048538D01*
X50363Y1048921D01*
X50241Y1049307D01*
X50128Y1049697D01*
X50025Y1050088D01*
X49931Y1050483D01*
X49847Y1050879D01*
X49773Y1051277D01*
X49709Y1051677D01*
X49654Y1052079D01*
X49610Y1052482D01*
X49575Y1052885D01*
X49550Y1053290D01*
X49535Y1053695D01*
X49530Y1054100D01*
X11430Y482600D02*
X11435Y483005D01*
X11450Y483410D01*
X11475Y483815D01*
X11510Y484218D01*
X11554Y484621D01*
X11609Y485023D01*
X11673Y485423D01*
X11747Y485821D01*
X11831Y486217D01*
X11925Y486612D01*
X12028Y487003D01*
X12141Y487393D01*
X12263Y487779D01*
X12395Y488162D01*
X12536Y488542D01*
X12687Y488918D01*
X12846Y489291D01*
X13015Y489659D01*
X13193Y490023D01*
X13379Y490383D01*
X13575Y490738D01*
X13779Y491088D01*
X13991Y491433D01*
X14212Y491772D01*
X14442Y492107D01*
X14679Y492435D01*
X14924Y492757D01*
X15178Y493074D01*
X15438Y493384D01*
X15707Y493687D01*
X15983Y493984D01*
X16266Y494274D01*
X16556Y494557D01*
X16853Y494833D01*
X17156Y495102D01*
X17466Y495362D01*
X17783Y495616D01*
X18105Y495861D01*
X18433Y496098D01*
X18768Y496328D01*
X19107Y496549D01*
X19452Y496761D01*
X19802Y496965D01*
X20157Y497161D01*
X20517Y497347D01*
X20881Y497525D01*
X21249Y497694D01*
X21622Y497853D01*
X21998Y498004D01*
X22378Y498145D01*
X22761Y498277D01*
X23147Y498399D01*
X23537Y498512D01*
X23928Y498615D01*
X24323Y498709D01*
X24719Y498793D01*
X25117Y498867D01*
X25517Y498931D01*
X25919Y498986D01*
X26322Y499030D01*
X26725Y499065D01*
X27130Y499090D01*
X27535Y499105D01*
X27940Y499110D01*
X28345Y499105D01*
X28750Y499090D01*
X29155Y499065D01*
X29558Y499030D01*
X29961Y498986D01*
X30363Y498931D01*
X30763Y498867D01*
X31161Y498793D01*
X31557Y498709D01*
X31952Y498615D01*
X32343Y498512D01*
X32733Y498399D01*
X33119Y498277D01*
X33502Y498145D01*
X33882Y498004D01*
X34258Y497853D01*
X34631Y497694D01*
X34999Y497525D01*
X35363Y497347D01*
X35723Y497161D01*
X36078Y496965D01*
X36428Y496761D01*
X36773Y496549D01*
X37112Y496328D01*
X37447Y496098D01*
X37775Y495861D01*
X38097Y495616D01*
X38414Y495362D01*
X38724Y495102D01*
X39027Y494833D01*
X39324Y494557D01*
X39614Y494274D01*
X39897Y493984D01*
X40173Y493687D01*
X40442Y493384D01*
X40702Y493074D01*
X40956Y492757D01*
X41201Y492435D01*
X41438Y492107D01*
X41668Y491772D01*
X41889Y491433D01*
X42101Y491088D01*
X42305Y490738D01*
X42501Y490383D01*
X42687Y490023D01*
X42865Y489659D01*
X43034Y489291D01*
X43193Y488918D01*
X43344Y488542D01*
X43485Y488162D01*
X43617Y487779D01*
X43739Y487393D01*
X43852Y487003D01*
X43955Y486612D01*
X44049Y486217D01*
X44133Y485821D01*
X44207Y485423D01*
X44271Y485023D01*
X44326Y484621D01*
X44370Y484218D01*
X44405Y483815D01*
X44430Y483410D01*
X44445Y483005D01*
X44450Y482600D01*
X44445Y482195D01*
X44430Y481790D01*
X44405Y481385D01*
X44370Y480982D01*
X44326Y480579D01*
X44271Y480177D01*
X44207Y479777D01*
X44133Y479379D01*
X44049Y478983D01*
X43955Y478588D01*
X43852Y478197D01*
X43739Y477807D01*
X43617Y477421D01*
X43485Y477038D01*
X43344Y476658D01*
X43193Y476282D01*
X43034Y475909D01*
X42865Y475541D01*
X42687Y475177D01*
X42501Y474817D01*
X42305Y474462D01*
X42101Y474112D01*
X41889Y473767D01*
X41668Y473428D01*
X41438Y473093D01*
X41201Y472765D01*
X40956Y472443D01*
X40702Y472126D01*
X40442Y471816D01*
X40173Y471513D01*
X39897Y471216D01*
X39614Y470926D01*
X39324Y470643D01*
X39027Y470367D01*
X38724Y470098D01*
X38414Y469838D01*
X38097Y469584D01*
X37775Y469339D01*
X37447Y469102D01*
X37112Y468872D01*
X36773Y468651D01*
X36428Y468439D01*
X36078Y468235D01*
X35723Y468039D01*
X35363Y467853D01*
X34999Y467675D01*
X34631Y467506D01*
X34258Y467347D01*
X33882Y467196D01*
X33502Y467055D01*
X33119Y466923D01*
X32733Y466801D01*
X32343Y466688D01*
X31952Y466585D01*
X31557Y466491D01*
X31161Y466407D01*
X30763Y466333D01*
X30363Y466269D01*
X29961Y466214D01*
X29558Y466170D01*
X29155Y466135D01*
X28750Y466110D01*
X28345Y466095D01*
X27940Y466090D01*
X27535Y466095D01*
X27130Y466110D01*
X26725Y466135D01*
X26322Y466170D01*
X25919Y466214D01*
X25517Y466269D01*
X25117Y466333D01*
X24719Y466407D01*
X24323Y466491D01*
X23928Y466585D01*
X23537Y466688D01*
X23147Y466801D01*
X22761Y466923D01*
X22378Y467055D01*
X21998Y467196D01*
X21622Y467347D01*
X21249Y467506D01*
X20881Y467675D01*
X20517Y467853D01*
X20157Y468039D01*
X19802Y468235D01*
X19452Y468439D01*
X19107Y468651D01*
X18768Y468872D01*
X18433Y469102D01*
X18105Y469339D01*
X17783Y469584D01*
X17466Y469838D01*
X17156Y470098D01*
X16853Y470367D01*
X16556Y470643D01*
X16266Y470926D01*
X15983Y471216D01*
X15707Y471513D01*
X15438Y471816D01*
X15178Y472126D01*
X14924Y472443D01*
X14679Y472765D01*
X14442Y473093D01*
X14212Y473428D01*
X13991Y473767D01*
X13779Y474112D01*
X13575Y474462D01*
X13379Y474817D01*
X13193Y475177D01*
X13015Y475541D01*
X12846Y475909D01*
X12687Y476282D01*
X12536Y476658D01*
X12395Y477038D01*
X12263Y477421D01*
X12141Y477807D01*
X12028Y478197D01*
X11925Y478588D01*
X11831Y478983D01*
X11747Y479379D01*
X11673Y479777D01*
X11609Y480177D01*
X11554Y480579D01*
X11510Y480982D01*
X11475Y481385D01*
X11450Y481790D01*
X11435Y482195D01*
X11430Y482600D01*
X1529588Y1041400D02*
X1529594Y1041886D01*
X1529612Y1042372D01*
X1529642Y1042857D01*
X1529683Y1043342D01*
X1529737Y1043825D01*
X1529802Y1044307D01*
X1529880Y1044787D01*
X1529969Y1045265D01*
X1530069Y1045741D01*
X1530182Y1046214D01*
X1530306Y1046684D01*
X1530441Y1047151D01*
X1530588Y1047615D01*
X1530746Y1048074D01*
X1530916Y1048530D01*
X1531096Y1048982D01*
X1531288Y1049429D01*
X1531490Y1049871D01*
X1531703Y1050308D01*
X1531927Y1050739D01*
X1532162Y1051165D01*
X1532407Y1051585D01*
X1532662Y1051999D01*
X1532927Y1052407D01*
X1533202Y1052808D01*
X1533487Y1053202D01*
X1533781Y1053589D01*
X1534085Y1053969D01*
X1534398Y1054341D01*
X1534720Y1054705D01*
X1535051Y1055061D01*
X1535391Y1055409D01*
X1535739Y1055749D01*
X1536095Y1056080D01*
X1536459Y1056402D01*
X1536831Y1056715D01*
X1537211Y1057019D01*
X1537598Y1057313D01*
X1537992Y1057598D01*
X1538393Y1057873D01*
X1538801Y1058138D01*
X1539215Y1058393D01*
X1539635Y1058638D01*
X1540061Y1058873D01*
X1540492Y1059097D01*
X1540929Y1059310D01*
X1541371Y1059512D01*
X1541818Y1059704D01*
X1542270Y1059884D01*
X1542726Y1060054D01*
X1543185Y1060212D01*
X1543649Y1060359D01*
X1544116Y1060494D01*
X1544586Y1060618D01*
X1545059Y1060731D01*
X1545535Y1060831D01*
X1546013Y1060920D01*
X1546493Y1060998D01*
X1546975Y1061063D01*
X1547458Y1061117D01*
X1547943Y1061158D01*
X1548428Y1061188D01*
X1548914Y1061206D01*
X1549400Y1061212D01*
X1549886Y1061206D01*
X1550372Y1061188D01*
X1550857Y1061158D01*
X1551342Y1061117D01*
X1551825Y1061063D01*
X1552307Y1060998D01*
X1552787Y1060920D01*
X1553265Y1060831D01*
X1553741Y1060731D01*
X1554214Y1060618D01*
X1554684Y1060494D01*
X1555151Y1060359D01*
X1555615Y1060212D01*
X1556074Y1060054D01*
X1556530Y1059884D01*
X1556982Y1059704D01*
X1557429Y1059512D01*
X1557871Y1059310D01*
X1558308Y1059097D01*
X1558739Y1058873D01*
X1559165Y1058638D01*
X1559585Y1058393D01*
X1559999Y1058138D01*
X1560407Y1057873D01*
X1560808Y1057598D01*
X1561202Y1057313D01*
X1561589Y1057019D01*
X1561969Y1056715D01*
X1562341Y1056402D01*
X1562705Y1056080D01*
X1563061Y1055749D01*
X1563409Y1055409D01*
X1563749Y1055061D01*
X1564080Y1054705D01*
X1564402Y1054341D01*
X1564715Y1053969D01*
X1565019Y1053589D01*
X1565313Y1053202D01*
X1565598Y1052808D01*
X1565873Y1052407D01*
X1566138Y1051999D01*
X1566393Y1051585D01*
X1566638Y1051165D01*
X1566873Y1050739D01*
X1567097Y1050308D01*
X1567310Y1049871D01*
X1567512Y1049429D01*
X1567704Y1048982D01*
X1567884Y1048530D01*
X1568054Y1048074D01*
X1568212Y1047615D01*
X1568359Y1047151D01*
X1568494Y1046684D01*
X1568618Y1046214D01*
X1568731Y1045741D01*
X1568831Y1045265D01*
X1568920Y1044787D01*
X1568998Y1044307D01*
X1569063Y1043825D01*
X1569117Y1043342D01*
X1569158Y1042857D01*
X1569188Y1042372D01*
X1569206Y1041886D01*
X1569212Y1041400D01*
X1569206Y1040914D01*
X1569188Y1040428D01*
X1569158Y1039943D01*
X1569117Y1039458D01*
X1569063Y1038975D01*
X1568998Y1038493D01*
X1568920Y1038013D01*
X1568831Y1037535D01*
X1568731Y1037059D01*
X1568618Y1036586D01*
X1568494Y1036116D01*
X1568359Y1035649D01*
X1568212Y1035185D01*
X1568054Y1034726D01*
X1567884Y1034270D01*
X1567704Y1033818D01*
X1567512Y1033371D01*
X1567310Y1032929D01*
X1567097Y1032492D01*
X1566873Y1032061D01*
X1566638Y1031635D01*
X1566393Y1031215D01*
X1566138Y1030801D01*
X1565873Y1030393D01*
X1565598Y1029992D01*
X1565313Y1029598D01*
X1565019Y1029211D01*
X1564715Y1028831D01*
X1564402Y1028459D01*
X1564080Y1028095D01*
X1563749Y1027739D01*
X1563409Y1027391D01*
X1563061Y1027051D01*
X1562705Y1026720D01*
X1562341Y1026398D01*
X1561969Y1026085D01*
X1561589Y1025781D01*
X1561202Y1025487D01*
X1560808Y1025202D01*
X1560407Y1024927D01*
X1559999Y1024662D01*
X1559585Y1024407D01*
X1559165Y1024162D01*
X1558739Y1023927D01*
X1558308Y1023703D01*
X1557871Y1023490D01*
X1557429Y1023288D01*
X1556982Y1023096D01*
X1556530Y1022916D01*
X1556074Y1022746D01*
X1555615Y1022588D01*
X1555151Y1022441D01*
X1554684Y1022306D01*
X1554214Y1022182D01*
X1553741Y1022069D01*
X1553265Y1021969D01*
X1552787Y1021880D01*
X1552307Y1021802D01*
X1551825Y1021737D01*
X1551342Y1021683D01*
X1550857Y1021642D01*
X1550372Y1021612D01*
X1549886Y1021594D01*
X1549400Y1021588D01*
X1548914Y1021594D01*
X1548428Y1021612D01*
X1547943Y1021642D01*
X1547458Y1021683D01*
X1546975Y1021737D01*
X1546493Y1021802D01*
X1546013Y1021880D01*
X1545535Y1021969D01*
X1545059Y1022069D01*
X1544586Y1022182D01*
X1544116Y1022306D01*
X1543649Y1022441D01*
X1543185Y1022588D01*
X1542726Y1022746D01*
X1542270Y1022916D01*
X1541818Y1023096D01*
X1541371Y1023288D01*
X1540929Y1023490D01*
X1540492Y1023703D01*
X1540061Y1023927D01*
X1539635Y1024162D01*
X1539215Y1024407D01*
X1538801Y1024662D01*
X1538393Y1024927D01*
X1537992Y1025202D01*
X1537598Y1025487D01*
X1537211Y1025781D01*
X1536831Y1026085D01*
X1536459Y1026398D01*
X1536095Y1026720D01*
X1535739Y1027051D01*
X1535391Y1027391D01*
X1535051Y1027739D01*
X1534720Y1028095D01*
X1534398Y1028459D01*
X1534085Y1028831D01*
X1533781Y1029211D01*
X1533487Y1029598D01*
X1533202Y1029992D01*
X1532927Y1030393D01*
X1532662Y1030801D01*
X1532407Y1031215D01*
X1532162Y1031635D01*
X1531927Y1032061D01*
X1531703Y1032492D01*
X1531490Y1032929D01*
X1531288Y1033371D01*
X1531096Y1033818D01*
X1530916Y1034270D01*
X1530746Y1034726D01*
X1530588Y1035185D01*
X1530441Y1035649D01*
X1530306Y1036116D01*
X1530182Y1036586D01*
X1530069Y1037059D01*
X1529969Y1037535D01*
X1529880Y1038013D01*
X1529802Y1038493D01*
X1529737Y1038975D01*
X1529683Y1039458D01*
X1529642Y1039943D01*
X1529612Y1040428D01*
X1529594Y1040914D01*
X1529588Y1041400D01*
D11*
X-63500Y-63500D02*
X32766Y-63500D01*
X32766Y-139700D01*
X1768856Y-139700D01*
X1768856Y-63500D01*
X2039620Y-63500D01*
X2039620Y-139700D01*
X2819400Y-139700D01*
X2819400Y-63500D01*
X2984500Y-63500D01*
X2984500Y1498600D01*
X2921000Y1574800D01*
X0Y1574800D01*
X-63500Y1511300D01*
X-63500Y-63500D01*
X15875Y-520D02*
X15807Y-1557D01*
X15671Y-2587D01*
X15469Y-3607D01*
X15200Y-4611D01*
X14865Y-5595D01*
X14468Y-6555D01*
X14008Y-7487D01*
X13488Y-8388D01*
X12911Y-9252D01*
X12278Y-10076D01*
X11593Y-10858D01*
X10858Y-11593D01*
X10076Y-12278D01*
X9252Y-12911D01*
X8388Y-13488D01*
X7487Y-14008D01*
X6555Y-14468D01*
X5595Y-14865D01*
X4611Y-15200D01*
X3607Y-15469D01*
X2587Y-15671D01*
X1557Y-15807D01*
X520Y-15875D01*
X-520Y-15875D01*
X-1557Y-15807D01*
X-2587Y-15671D01*
X-3607Y-15469D01*
X-4611Y-15200D01*
X-5595Y-14865D01*
X-6555Y-14468D01*
X-7487Y-14008D01*
X-8388Y-13488D01*
X-9252Y-12911D01*
X-10076Y-12278D01*
X-10858Y-11593D01*
X-11593Y-10858D01*
X-12278Y-10076D01*
X-12911Y-9252D01*
X-13488Y-8388D01*
X-14008Y-7487D01*
X-14468Y-6555D01*
X-14865Y-5595D01*
X-15200Y-4611D01*
X-15469Y-3607D01*
X-15671Y-2587D01*
X-15807Y-1557D01*
X-15875Y-520D01*
X-15875Y520D01*
X-15807Y1557D01*
X-15671Y2587D01*
X-15469Y3607D01*
X-15200Y4611D01*
X-14865Y5595D01*
X-14468Y6555D01*
X-14008Y7487D01*
X-13488Y8388D01*
X-12911Y9252D01*
X-12278Y10076D01*
X-11593Y10858D01*
X-10858Y11593D01*
X-10076Y12278D01*
X-9252Y12911D01*
X-8388Y13488D01*
X-7487Y14008D01*
X-6555Y14468D01*
X-5595Y14865D01*
X-4611Y15200D01*
X-3607Y15469D01*
X-2587Y15671D01*
X-1557Y15807D01*
X-520Y15875D01*
X520Y15875D01*
X1557Y15807D01*
X2587Y15671D01*
X3607Y15469D01*
X4611Y15200D01*
X5595Y14865D01*
X6555Y14468D01*
X7487Y14008D01*
X8388Y13488D01*
X9252Y12911D01*
X10076Y12278D01*
X10858Y11593D01*
X11593Y10858D01*
X12278Y10076D01*
X12911Y9252D01*
X13488Y8388D01*
X14008Y7487D01*
X14468Y6555D01*
X14865Y5595D01*
X15200Y4611D01*
X15469Y3607D01*
X15671Y2587D01*
X15807Y1557D01*
X15875Y520D01*
X15875Y-520D01*
X2936875Y-520D02*
X2936807Y-1557D01*
X2936671Y-2587D01*
X2936469Y-3607D01*
X2936200Y-4611D01*
X2935865Y-5595D01*
X2935468Y-6555D01*
X2935008Y-7487D01*
X2934488Y-8388D01*
X2933911Y-9252D01*
X2933278Y-10076D01*
X2932593Y-10858D01*
X2931858Y-11593D01*
X2931076Y-12278D01*
X2930252Y-12911D01*
X2929388Y-13488D01*
X2928487Y-14008D01*
X2927555Y-14468D01*
X2926595Y-14865D01*
X2925611Y-15200D01*
X2924607Y-15469D01*
X2923587Y-15671D01*
X2922557Y-15807D01*
X2921520Y-15875D01*
X2920480Y-15875D01*
X2919443Y-15807D01*
X2918413Y-15671D01*
X2917393Y-15469D01*
X2916389Y-15200D01*
X2915405Y-14865D01*
X2914445Y-14468D01*
X2913513Y-14008D01*
X2912612Y-13488D01*
X2911748Y-12911D01*
X2910924Y-12278D01*
X2910142Y-11593D01*
X2909407Y-10858D01*
X2908722Y-10076D01*
X2908089Y-9252D01*
X2907512Y-8388D01*
X2906992Y-7487D01*
X2906532Y-6555D01*
X2906135Y-5595D01*
X2905800Y-4611D01*
X2905531Y-3607D01*
X2905329Y-2587D01*
X2905193Y-1557D01*
X2905125Y-520D01*
X2905125Y520D01*
X2905193Y1557D01*
X2905329Y2587D01*
X2905531Y3607D01*
X2905800Y4611D01*
X2906135Y5595D01*
X2906532Y6555D01*
X2906992Y7487D01*
X2907512Y8388D01*
X2908089Y9252D01*
X2908722Y10076D01*
X2909407Y10858D01*
X2910142Y11593D01*
X2910924Y12278D01*
X2911748Y12911D01*
X2912612Y13488D01*
X2913513Y14008D01*
X2914445Y14468D01*
X2915405Y14865D01*
X2916389Y15200D01*
X2917393Y15469D01*
X2918413Y15671D01*
X2919443Y15807D01*
X2920480Y15875D01*
X2921520Y15875D01*
X2922557Y15807D01*
X2923587Y15671D01*
X2924607Y15469D01*
X2925611Y15200D01*
X2926595Y14865D01*
X2927555Y14468D01*
X2928487Y14008D01*
X2929388Y13488D01*
X2930252Y12911D01*
X2931076Y12278D01*
X2931858Y11593D01*
X2932593Y10858D01*
X2933278Y10076D01*
X2933911Y9252D01*
X2934488Y8388D01*
X2935008Y7487D01*
X2935468Y6555D01*
X2935865Y5595D01*
X2936200Y4611D01*
X2936469Y3607D01*
X2936671Y2587D01*
X2936807Y1557D01*
X2936875Y520D01*
X2936875Y-520D01*
X15875Y1510780D02*
X15807Y1509743D01*
X15671Y1508713D01*
X15469Y1507693D01*
X15200Y1506689D01*
X14865Y1505705D01*
X14468Y1504745D01*
X14008Y1503813D01*
X13488Y1502912D01*
X12911Y1502048D01*
X12278Y1501224D01*
X11593Y1500442D01*
X10858Y1499707D01*
X10076Y1499022D01*
X9252Y1498389D01*
X8388Y1497812D01*
X7487Y1497292D01*
X6555Y1496832D01*
X5595Y1496435D01*
X4611Y1496100D01*
X3607Y1495831D01*
X2587Y1495629D01*
X1557Y1495493D01*
X520Y1495425D01*
X-520Y1495425D01*
X-1557Y1495493D01*
X-2587Y1495629D01*
X-3607Y1495831D01*
X-4611Y1496100D01*
X-5595Y1496435D01*
X-6555Y1496832D01*
X-7487Y1497292D01*
X-8388Y1497812D01*
X-9252Y1498389D01*
X-10076Y1499022D01*
X-10858Y1499707D01*
X-11593Y1500442D01*
X-12278Y1501224D01*
X-12911Y1502048D01*
X-13488Y1502912D01*
X-14008Y1503813D01*
X-14468Y1504745D01*
X-14865Y1505705D01*
X-15200Y1506689D01*
X-15469Y1507693D01*
X-15671Y1508713D01*
X-15807Y1509743D01*
X-15875Y1510780D01*
X-15875Y1511820D01*
X-15807Y1512857D01*
X-15671Y1513887D01*
X-15469Y1514907D01*
X-15200Y1515911D01*
X-14865Y1516895D01*
X-14468Y1517855D01*
X-14008Y1518787D01*
X-13488Y1519688D01*
X-12911Y1520552D01*
X-12278Y1521376D01*
X-11593Y1522158D01*
X-10858Y1522893D01*
X-10076Y1523578D01*
X-9252Y1524211D01*
X-8388Y1524788D01*
X-7487Y1525308D01*
X-6555Y1525768D01*
X-5595Y1526165D01*
X-4611Y1526500D01*
X-3607Y1526769D01*
X-2587Y1526971D01*
X-1557Y1527107D01*
X-520Y1527175D01*
X520Y1527175D01*
X1557Y1527107D01*
X2587Y1526971D01*
X3607Y1526769D01*
X4611Y1526500D01*
X5595Y1526165D01*
X6555Y1525768D01*
X7487Y1525308D01*
X8388Y1524788D01*
X9252Y1524211D01*
X10076Y1523578D01*
X10858Y1522893D01*
X11593Y1522158D01*
X12278Y1521376D01*
X12911Y1520552D01*
X13488Y1519688D01*
X14008Y1518787D01*
X14468Y1517855D01*
X14865Y1516895D01*
X15200Y1515911D01*
X15469Y1514907D01*
X15671Y1513887D01*
X15807Y1512857D01*
X15875Y1511820D01*
X15875Y1510780D01*
X2936875Y1510780D02*
X2936807Y1509743D01*
X2936671Y1508713D01*
X2936469Y1507693D01*
X2936200Y1506689D01*
X2935865Y1505705D01*
X2935468Y1504745D01*
X2935008Y1503813D01*
X2934488Y1502912D01*
X2933911Y1502048D01*
X2933278Y1501224D01*
X2932593Y1500442D01*
X2931858Y1499707D01*
X2931076Y1499022D01*
X2930252Y1498389D01*
X2929388Y1497812D01*
X2928487Y1497292D01*
X2927555Y1496832D01*
X2926595Y1496435D01*
X2925611Y1496100D01*
X2924607Y1495831D01*
X2923587Y1495629D01*
X2922557Y1495493D01*
X2921520Y1495425D01*
X2920480Y1495425D01*
X2919443Y1495493D01*
X2918413Y1495629D01*
X2917393Y1495831D01*
X2916389Y1496100D01*
X2915405Y1496435D01*
X2914445Y1496832D01*
X2913513Y1497292D01*
X2912612Y1497812D01*
X2911748Y1498389D01*
X2910924Y1499022D01*
X2910142Y1499707D01*
X2909407Y1500442D01*
X2908722Y1501224D01*
X2908089Y1502048D01*
X2907512Y1502912D01*
X2906992Y1503813D01*
X2906532Y1504745D01*
X2906135Y1505705D01*
X2905800Y1506689D01*
X2905531Y1507693D01*
X2905329Y1508713D01*
X2905193Y1509743D01*
X2905125Y1510780D01*
X2905125Y1511820D01*
X2905193Y1512857D01*
X2905329Y1513887D01*
X2905531Y1514907D01*
X2905800Y1515911D01*
X2906135Y1516895D01*
X2906532Y1517855D01*
X2906992Y1518787D01*
X2907512Y1519688D01*
X2908089Y1520552D01*
X2908722Y1521376D01*
X2909407Y1522158D01*
X2910142Y1522893D01*
X2910924Y1523578D01*
X2911748Y1524211D01*
X2912612Y1524788D01*
X2913513Y1525308D01*
X2914445Y1525768D01*
X2915405Y1526165D01*
X2916389Y1526500D01*
X2917393Y1526769D01*
X2918413Y1526971D01*
X2919443Y1527107D01*
X2920480Y1527175D01*
X2921520Y1527175D01*
X2922557Y1527107D01*
X2923587Y1526971D01*
X2924607Y1526769D01*
X2925611Y1526500D01*
X2926595Y1526165D01*
X2927555Y1525768D01*
X2928487Y1525308D01*
X2929388Y1524788D01*
X2930252Y1524211D01*
X2931076Y1523578D01*
X2931858Y1522893D01*
X2932593Y1522158D01*
X2933278Y1521376D01*
X2933911Y1520552D01*
X2934488Y1519688D01*
X2935008Y1518787D01*
X2935468Y1517855D01*
X2935865Y1516895D01*
X2936200Y1515911D01*
X2936469Y1514907D01*
X2936671Y1513887D01*
X2936807Y1512857D01*
X2936875Y1511820D01*
X2936875Y1510780D01*
X3175Y939280D02*
X3107Y938243D01*
X2971Y937213D01*
X2769Y936193D01*
X2500Y935189D01*
X2165Y934205D01*
X1768Y933245D01*
X1308Y932313D01*
X788Y931412D01*
X211Y930548D01*
X-422Y929724D01*
X-1107Y928942D01*
X-1842Y928207D01*
X-2624Y927522D01*
X-3448Y926889D01*
X-4312Y926312D01*
X-5213Y925792D01*
X-6145Y925332D01*
X-7105Y924935D01*
X-8089Y924600D01*
X-9093Y924331D01*
X-10113Y924129D01*
X-11143Y923993D01*
X-12180Y923925D01*
X-13220Y923925D01*
X-14257Y923993D01*
X-15287Y924129D01*
X-16307Y924331D01*
X-17311Y924600D01*
X-18295Y924935D01*
X-19255Y925332D01*
X-20187Y925792D01*
X-21088Y926312D01*
X-21952Y926889D01*
X-22776Y927522D01*
X-23558Y928207D01*
X-24293Y928942D01*
X-24978Y929724D01*
X-25611Y930548D01*
X-26188Y931412D01*
X-26708Y932313D01*
X-27168Y933245D01*
X-27565Y934205D01*
X-27900Y935189D01*
X-28169Y936193D01*
X-28371Y937213D01*
X-28507Y938243D01*
X-28575Y939280D01*
X-28575Y940320D01*
X-28507Y941357D01*
X-28371Y942387D01*
X-28169Y943407D01*
X-27900Y944411D01*
X-27565Y945395D01*
X-27168Y946355D01*
X-26708Y947287D01*
X-26188Y948188D01*
X-25611Y949052D01*
X-24978Y949876D01*
X-24293Y950658D01*
X-23558Y951393D01*
X-22776Y952078D01*
X-21952Y952711D01*
X-21088Y953288D01*
X-20187Y953808D01*
X-19255Y954268D01*
X-18295Y954665D01*
X-17311Y955000D01*
X-16307Y955269D01*
X-15287Y955471D01*
X-14257Y955607D01*
X-13220Y955675D01*
X-12180Y955675D01*
X-11143Y955607D01*
X-10113Y955471D01*
X-9093Y955269D01*
X-8089Y955000D01*
X-7105Y954665D01*
X-6145Y954268D01*
X-5213Y953808D01*
X-4312Y953288D01*
X-3448Y952711D01*
X-2624Y952078D01*
X-1842Y951393D01*
X-1107Y950658D01*
X-422Y949876D01*
X211Y949052D01*
X788Y948188D01*
X1308Y947287D01*
X1768Y946355D01*
X2165Y945395D01*
X2500Y944411D01*
X2769Y943407D01*
X2971Y942387D01*
X3107Y941357D01*
X3175Y940320D01*
X3175Y939280D01*
X2924175Y939280D02*
X2924107Y938243D01*
X2923971Y937213D01*
X2923769Y936193D01*
X2923500Y935189D01*
X2923165Y934205D01*
X2922768Y933245D01*
X2922308Y932313D01*
X2921788Y931412D01*
X2921211Y930548D01*
X2920578Y929724D01*
X2919893Y928942D01*
X2919158Y928207D01*
X2918376Y927522D01*
X2917552Y926889D01*
X2916688Y926312D01*
X2915787Y925792D01*
X2914855Y925332D01*
X2913895Y924935D01*
X2912911Y924600D01*
X2911907Y924331D01*
X2910887Y924129D01*
X2909857Y923993D01*
X2908820Y923925D01*
X2907780Y923925D01*
X2906743Y923993D01*
X2905713Y924129D01*
X2904693Y924331D01*
X2903689Y924600D01*
X2902705Y924935D01*
X2901745Y925332D01*
X2900813Y925792D01*
X2899912Y926312D01*
X2899048Y926889D01*
X2898224Y927522D01*
X2897442Y928207D01*
X2896707Y928942D01*
X2896022Y929724D01*
X2895389Y930548D01*
X2894812Y931412D01*
X2894292Y932313D01*
X2893832Y933245D01*
X2893435Y934205D01*
X2893100Y935189D01*
X2892831Y936193D01*
X2892629Y937213D01*
X2892493Y938243D01*
X2892425Y939280D01*
X2892425Y940320D01*
X2892493Y941357D01*
X2892629Y942387D01*
X2892831Y943407D01*
X2893100Y944411D01*
X2893435Y945395D01*
X2893832Y946355D01*
X2894292Y947287D01*
X2894812Y948188D01*
X2895389Y949052D01*
X2896022Y949876D01*
X2896707Y950658D01*
X2897442Y951393D01*
X2898224Y952078D01*
X2899048Y952711D01*
X2899912Y953288D01*
X2900813Y953808D01*
X2901745Y954268D01*
X2902705Y954665D01*
X2903689Y955000D01*
X2904693Y955269D01*
X2905713Y955471D01*
X2906743Y955607D01*
X2907780Y955675D01*
X2908820Y955675D01*
X2909857Y955607D01*
X2910887Y955471D01*
X2911907Y955269D01*
X2912911Y955000D01*
X2913895Y954665D01*
X2914855Y954268D01*
X2915787Y953808D01*
X2916688Y953288D01*
X2917552Y952711D01*
X2918376Y952078D01*
X2919158Y951393D01*
X2919893Y950658D01*
X2920578Y949876D01*
X2921211Y949052D01*
X2921788Y948188D01*
X2922308Y947287D01*
X2922768Y946355D01*
X2923165Y945395D01*
X2923500Y944411D01*
X2923769Y943407D01*
X2923971Y942387D01*
X2924107Y941357D01*
X2924175Y940320D01*
X2924175Y939280D01*
X460375Y1523480D02*
X460307Y1522443D01*
X460171Y1521413D01*
X459969Y1520393D01*
X459700Y1519389D01*
X459365Y1518405D01*
X458968Y1517445D01*
X458508Y1516513D01*
X457988Y1515612D01*
X457411Y1514748D01*
X456778Y1513924D01*
X456093Y1513142D01*
X455358Y1512407D01*
X454576Y1511722D01*
X453752Y1511089D01*
X452888Y1510512D01*
X451987Y1509992D01*
X451055Y1509532D01*
X450095Y1509135D01*
X449111Y1508800D01*
X448107Y1508531D01*
X447087Y1508329D01*
X446057Y1508193D01*
X445020Y1508125D01*
X443980Y1508125D01*
X442943Y1508193D01*
X441913Y1508329D01*
X440893Y1508531D01*
X439889Y1508800D01*
X438905Y1509135D01*
X437945Y1509532D01*
X437013Y1509992D01*
X436112Y1510512D01*
X435248Y1511089D01*
X434424Y1511722D01*
X433642Y1512407D01*
X432907Y1513142D01*
X432222Y1513924D01*
X431589Y1514748D01*
X431012Y1515612D01*
X430492Y1516513D01*
X430032Y1517445D01*
X429635Y1518405D01*
X429300Y1519389D01*
X429031Y1520393D01*
X428829Y1521413D01*
X428693Y1522443D01*
X428625Y1523480D01*
X428625Y1524520D01*
X428693Y1525557D01*
X428829Y1526587D01*
X429031Y1527607D01*
X429300Y1528611D01*
X429635Y1529595D01*
X430032Y1530555D01*
X430492Y1531487D01*
X431012Y1532388D01*
X431589Y1533252D01*
X432222Y1534076D01*
X432907Y1534858D01*
X433642Y1535593D01*
X434424Y1536278D01*
X435248Y1536911D01*
X436112Y1537488D01*
X437013Y1538008D01*
X437945Y1538468D01*
X438905Y1538865D01*
X439889Y1539200D01*
X440893Y1539469D01*
X441913Y1539671D01*
X442943Y1539807D01*
X443980Y1539875D01*
X445020Y1539875D01*
X446057Y1539807D01*
X447087Y1539671D01*
X448107Y1539469D01*
X449111Y1539200D01*
X450095Y1538865D01*
X451055Y1538468D01*
X451987Y1538008D01*
X452888Y1537488D01*
X453752Y1536911D01*
X454576Y1536278D01*
X455358Y1535593D01*
X456093Y1534858D01*
X456778Y1534076D01*
X457411Y1533252D01*
X457988Y1532388D01*
X458508Y1531487D01*
X458968Y1530555D01*
X459365Y1529595D01*
X459700Y1528611D01*
X459969Y1527607D01*
X460171Y1526587D01*
X460307Y1525557D01*
X460375Y1524520D01*
X460375Y1523480D01*
X2505075Y1523480D02*
X2505007Y1522443D01*
X2504871Y1521413D01*
X2504669Y1520393D01*
X2504400Y1519389D01*
X2504065Y1518405D01*
X2503668Y1517445D01*
X2503208Y1516513D01*
X2502688Y1515612D01*
X2502111Y1514748D01*
X2501478Y1513924D01*
X2500793Y1513142D01*
X2500058Y1512407D01*
X2499276Y1511722D01*
X2498452Y1511089D01*
X2497588Y1510512D01*
X2496687Y1509992D01*
X2495755Y1509532D01*
X2494795Y1509135D01*
X2493811Y1508800D01*
X2492807Y1508531D01*
X2491787Y1508329D01*
X2490757Y1508193D01*
X2489720Y1508125D01*
X2488680Y1508125D01*
X2487643Y1508193D01*
X2486613Y1508329D01*
X2485593Y1508531D01*
X2484589Y1508800D01*
X2483605Y1509135D01*
X2482645Y1509532D01*
X2481713Y1509992D01*
X2480812Y1510512D01*
X2479948Y1511089D01*
X2479124Y1511722D01*
X2478342Y1512407D01*
X2477607Y1513142D01*
X2476922Y1513924D01*
X2476289Y1514748D01*
X2475712Y1515612D01*
X2475192Y1516513D01*
X2474732Y1517445D01*
X2474335Y1518405D01*
X2474000Y1519389D01*
X2473731Y1520393D01*
X2473529Y1521413D01*
X2473393Y1522443D01*
X2473325Y1523480D01*
X2473325Y1524520D01*
X2473393Y1525557D01*
X2473529Y1526587D01*
X2473731Y1527607D01*
X2474000Y1528611D01*
X2474335Y1529595D01*
X2474732Y1530555D01*
X2475192Y1531487D01*
X2475712Y1532388D01*
X2476289Y1533252D01*
X2476922Y1534076D01*
X2477607Y1534858D01*
X2478342Y1535593D01*
X2479124Y1536278D01*
X2479948Y1536911D01*
X2480812Y1537488D01*
X2481713Y1538008D01*
X2482645Y1538468D01*
X2483605Y1538865D01*
X2484589Y1539200D01*
X2485593Y1539469D01*
X2486613Y1539671D01*
X2487643Y1539807D01*
X2488680Y1539875D01*
X2489720Y1539875D01*
X2490757Y1539807D01*
X2491787Y1539671D01*
X2492807Y1539469D01*
X2493811Y1539200D01*
X2494795Y1538865D01*
X2495755Y1538468D01*
X2496687Y1538008D01*
X2497588Y1537488D01*
X2498452Y1536911D01*
X2499276Y1536278D01*
X2500058Y1535593D01*
X2500793Y1534858D01*
X2501478Y1534076D01*
X2502111Y1533252D01*
X2502688Y1532388D01*
X2503208Y1531487D01*
X2503668Y1530555D01*
X2504065Y1529595D01*
X2504400Y1528611D01*
X2504669Y1527607D01*
X2504871Y1526587D01*
X2505007Y1525557D01*
X2505075Y1524520D01*
X2505075Y1523480D01*
X460375Y1129780D02*
X460307Y1128743D01*
X460171Y1127713D01*
X459969Y1126693D01*
X459700Y1125689D01*
X459365Y1124705D01*
X458968Y1123745D01*
X458508Y1122813D01*
X457988Y1121912D01*
X457411Y1121048D01*
X456778Y1120224D01*
X456093Y1119442D01*
X455358Y1118707D01*
X454576Y1118022D01*
X453752Y1117389D01*
X452888Y1116812D01*
X451987Y1116292D01*
X451055Y1115832D01*
X450095Y1115435D01*
X449111Y1115100D01*
X448107Y1114831D01*
X447087Y1114629D01*
X446057Y1114493D01*
X445020Y1114425D01*
X443980Y1114425D01*
X442943Y1114493D01*
X441913Y1114629D01*
X440893Y1114831D01*
X439889Y1115100D01*
X438905Y1115435D01*
X437945Y1115832D01*
X437013Y1116292D01*
X436112Y1116812D01*
X435248Y1117389D01*
X434424Y1118022D01*
X433642Y1118707D01*
X432907Y1119442D01*
X432222Y1120224D01*
X431589Y1121048D01*
X431012Y1121912D01*
X430492Y1122813D01*
X430032Y1123745D01*
X429635Y1124705D01*
X429300Y1125689D01*
X429031Y1126693D01*
X428829Y1127713D01*
X428693Y1128743D01*
X428625Y1129780D01*
X428625Y1130820D01*
X428693Y1131857D01*
X428829Y1132887D01*
X429031Y1133907D01*
X429300Y1134911D01*
X429635Y1135895D01*
X430032Y1136855D01*
X430492Y1137787D01*
X431012Y1138688D01*
X431589Y1139552D01*
X432222Y1140376D01*
X432907Y1141158D01*
X433642Y1141893D01*
X434424Y1142578D01*
X435248Y1143211D01*
X436112Y1143788D01*
X437013Y1144308D01*
X437945Y1144768D01*
X438905Y1145165D01*
X439889Y1145500D01*
X440893Y1145769D01*
X441913Y1145971D01*
X442943Y1146107D01*
X443980Y1146175D01*
X445020Y1146175D01*
X446057Y1146107D01*
X447087Y1145971D01*
X448107Y1145769D01*
X449111Y1145500D01*
X450095Y1145165D01*
X451055Y1144768D01*
X451987Y1144308D01*
X452888Y1143788D01*
X453752Y1143211D01*
X454576Y1142578D01*
X455358Y1141893D01*
X456093Y1141158D01*
X456778Y1140376D01*
X457411Y1139552D01*
X457988Y1138688D01*
X458508Y1137787D01*
X458968Y1136855D01*
X459365Y1135895D01*
X459700Y1134911D01*
X459969Y1133907D01*
X460171Y1132887D01*
X460307Y1131857D01*
X460375Y1130820D01*
X460375Y1129780D01*
X2860675Y1129780D02*
X2860607Y1128743D01*
X2860471Y1127713D01*
X2860269Y1126693D01*
X2860000Y1125689D01*
X2859665Y1124705D01*
X2859268Y1123745D01*
X2858808Y1122813D01*
X2858288Y1121912D01*
X2857711Y1121048D01*
X2857078Y1120224D01*
X2856393Y1119442D01*
X2855658Y1118707D01*
X2854876Y1118022D01*
X2854052Y1117389D01*
X2853188Y1116812D01*
X2852287Y1116292D01*
X2851355Y1115832D01*
X2850395Y1115435D01*
X2849411Y1115100D01*
X2848407Y1114831D01*
X2847387Y1114629D01*
X2846357Y1114493D01*
X2845320Y1114425D01*
X2844280Y1114425D01*
X2843243Y1114493D01*
X2842213Y1114629D01*
X2841193Y1114831D01*
X2840189Y1115100D01*
X2839205Y1115435D01*
X2838245Y1115832D01*
X2837313Y1116292D01*
X2836412Y1116812D01*
X2835548Y1117389D01*
X2834724Y1118022D01*
X2833942Y1118707D01*
X2833207Y1119442D01*
X2832522Y1120224D01*
X2831889Y1121048D01*
X2831312Y1121912D01*
X2830792Y1122813D01*
X2830332Y1123745D01*
X2829935Y1124705D01*
X2829600Y1125689D01*
X2829331Y1126693D01*
X2829129Y1127713D01*
X2828993Y1128743D01*
X2828925Y1129780D01*
X2828925Y1130820D01*
X2828993Y1131857D01*
X2829129Y1132887D01*
X2829331Y1133907D01*
X2829600Y1134911D01*
X2829935Y1135895D01*
X2830332Y1136855D01*
X2830792Y1137787D01*
X2831312Y1138688D01*
X2831889Y1139552D01*
X2832522Y1140376D01*
X2833207Y1141158D01*
X2833942Y1141893D01*
X2834724Y1142578D01*
X2835548Y1143211D01*
X2836412Y1143788D01*
X2837313Y1144308D01*
X2838245Y1144768D01*
X2839205Y1145165D01*
X2840189Y1145500D01*
X2841193Y1145769D01*
X2842213Y1145971D01*
X2843243Y1146107D01*
X2844280Y1146175D01*
X2845320Y1146175D01*
X2846357Y1146107D01*
X2847387Y1145971D01*
X2848407Y1145769D01*
X2849411Y1145500D01*
X2850395Y1145165D01*
X2851355Y1144768D01*
X2852287Y1144308D01*
X2853188Y1143788D01*
X2854052Y1143211D01*
X2854876Y1142578D01*
X2855658Y1141893D01*
X2856393Y1141158D01*
X2857078Y1140376D01*
X2857711Y1139552D01*
X2858288Y1138688D01*
X2858808Y1137787D01*
X2859268Y1136855D01*
X2859665Y1135895D01*
X2860000Y1134911D01*
X2860269Y1133907D01*
X2860471Y1132887D01*
X2860607Y1131857D01*
X2860675Y1130820D01*
X2860675Y1129780D01*
X2534412Y748701D02*
X2534340Y747506D01*
X2534195Y746318D01*
X2533980Y745140D01*
X2533693Y743977D01*
X2533337Y742834D01*
X2532912Y741715D01*
X2532421Y740623D01*
X2531864Y739563D01*
X2531245Y738538D01*
X2530565Y737553D01*
X2529826Y736610D01*
X2529033Y735714D01*
X2528186Y734868D01*
X2527290Y734074D01*
X2526347Y733335D01*
X2525362Y732655D01*
X2524337Y732036D01*
X2523277Y731479D01*
X2522185Y730988D01*
X2521066Y730563D01*
X2519923Y730207D01*
X2518760Y729920D01*
X2517582Y729705D01*
X2516394Y729560D01*
X2515199Y729488D01*
X2514001Y729488D01*
X2512806Y729560D01*
X2511618Y729705D01*
X2510440Y729920D01*
X2509277Y730207D01*
X2508134Y730563D01*
X2507015Y730988D01*
X2505923Y731479D01*
X2504863Y732036D01*
X2503838Y732655D01*
X2502853Y733335D01*
X2501910Y734074D01*
X2501014Y734868D01*
X2500168Y735714D01*
X2499374Y736610D01*
X2498635Y737553D01*
X2497955Y738538D01*
X2497336Y739563D01*
X2496779Y740623D01*
X2496288Y741715D01*
X2495863Y742834D01*
X2495507Y743977D01*
X2495220Y745140D01*
X2495005Y746318D01*
X2494860Y747506D01*
X2494788Y748701D01*
X2494788Y749899D01*
X2494860Y751094D01*
X2495005Y752282D01*
X2495220Y753460D01*
X2495507Y754623D01*
X2495863Y755766D01*
X2496288Y756885D01*
X2496779Y757977D01*
X2497336Y759037D01*
X2497955Y760062D01*
X2498635Y761047D01*
X2499374Y761990D01*
X2500168Y762886D01*
X2501014Y763733D01*
X2501910Y764526D01*
X2502853Y765265D01*
X2503838Y765945D01*
X2504863Y766564D01*
X2505923Y767121D01*
X2507015Y767612D01*
X2508134Y768037D01*
X2509277Y768393D01*
X2510440Y768680D01*
X2511618Y768895D01*
X2512806Y769040D01*
X2514001Y769112D01*
X2515199Y769112D01*
X2516394Y769040D01*
X2517582Y768895D01*
X2518760Y768680D01*
X2519923Y768393D01*
X2521066Y768037D01*
X2522185Y767612D01*
X2523277Y767121D01*
X2524337Y766564D01*
X2525362Y765945D01*
X2526347Y765265D01*
X2527290Y764526D01*
X2528186Y763733D01*
X2529033Y762886D01*
X2529826Y761990D01*
X2530565Y761047D01*
X2531245Y760062D01*
X2531864Y759037D01*
X2532421Y757977D01*
X2532912Y756885D01*
X2533337Y755766D01*
X2533693Y754623D01*
X2533980Y753460D01*
X2534195Y752282D01*
X2534340Y751094D01*
X2534412Y749899D01*
X2534412Y748701D01*
X1569212Y748701D02*
X1569140Y747506D01*
X1568995Y746318D01*
X1568780Y745140D01*
X1568493Y743977D01*
X1568137Y742834D01*
X1567712Y741715D01*
X1567221Y740623D01*
X1566664Y739563D01*
X1566045Y738538D01*
X1565365Y737553D01*
X1564626Y736610D01*
X1563833Y735714D01*
X1562986Y734868D01*
X1562090Y734074D01*
X1561147Y733335D01*
X1560162Y732655D01*
X1559137Y732036D01*
X1558077Y731479D01*
X1556985Y730988D01*
X1555866Y730563D01*
X1554723Y730207D01*
X1553560Y729920D01*
X1552382Y729705D01*
X1551194Y729560D01*
X1549999Y729488D01*
X1548801Y729488D01*
X1547606Y729560D01*
X1546418Y729705D01*
X1545240Y729920D01*
X1544077Y730207D01*
X1542934Y730563D01*
X1541815Y730988D01*
X1540723Y731479D01*
X1539663Y732036D01*
X1538638Y732655D01*
X1537653Y733335D01*
X1536710Y734074D01*
X1535814Y734868D01*
X1534968Y735714D01*
X1534174Y736610D01*
X1533435Y737553D01*
X1532755Y738538D01*
X1532136Y739563D01*
X1531579Y740623D01*
X1531088Y741715D01*
X1530663Y742834D01*
X1530307Y743977D01*
X1530020Y745140D01*
X1529805Y746318D01*
X1529660Y747506D01*
X1529588Y748701D01*
X1529588Y749899D01*
X1529660Y751094D01*
X1529805Y752282D01*
X1530020Y753460D01*
X1530307Y754623D01*
X1530663Y755766D01*
X1531088Y756885D01*
X1531579Y757977D01*
X1532136Y759037D01*
X1532755Y760062D01*
X1533435Y761047D01*
X1534174Y761990D01*
X1534968Y762886D01*
X1535814Y763733D01*
X1536710Y764526D01*
X1537653Y765265D01*
X1538638Y765945D01*
X1539663Y766564D01*
X1540723Y767121D01*
X1541815Y767612D01*
X1542934Y768037D01*
X1544077Y768393D01*
X1545240Y768680D01*
X1546418Y768895D01*
X1547606Y769040D01*
X1548801Y769112D01*
X1549999Y769112D01*
X1551194Y769040D01*
X1552382Y768895D01*
X1553560Y768680D01*
X1554723Y768393D01*
X1555866Y768037D01*
X1556985Y767612D01*
X1558077Y767121D01*
X1559137Y766564D01*
X1560162Y765945D01*
X1561147Y765265D01*
X1562090Y764526D01*
X1562986Y763733D01*
X1563833Y762886D01*
X1564626Y761990D01*
X1565365Y761047D01*
X1566045Y760062D01*
X1566664Y759037D01*
X1567221Y757977D01*
X1567712Y756885D01*
X1568137Y755766D01*
X1568493Y754623D01*
X1568780Y753460D01*
X1568995Y752282D01*
X1569140Y751094D01*
X1569212Y749899D01*
X1569212Y748701D01*
X2864612Y418501D02*
X2864540Y417306D01*
X2864395Y416118D01*
X2864180Y414940D01*
X2863893Y413777D01*
X2863537Y412634D01*
X2863112Y411515D01*
X2862621Y410423D01*
X2862064Y409363D01*
X2861445Y408338D01*
X2860765Y407353D01*
X2860026Y406410D01*
X2859233Y405514D01*
X2858386Y404668D01*
X2857490Y403874D01*
X2856547Y403135D01*
X2855562Y402455D01*
X2854537Y401836D01*
X2853477Y401279D01*
X2852385Y400788D01*
X2851266Y400363D01*
X2850123Y400007D01*
X2848960Y399720D01*
X2847782Y399505D01*
X2846594Y399360D01*
X2845399Y399288D01*
X2844201Y399288D01*
X2843006Y399360D01*
X2841818Y399505D01*
X2840640Y399720D01*
X2839477Y400007D01*
X2838334Y400363D01*
X2837215Y400788D01*
X2836123Y401279D01*
X2835063Y401836D01*
X2834038Y402455D01*
X2833053Y403135D01*
X2832110Y403874D01*
X2831214Y404668D01*
X2830368Y405514D01*
X2829574Y406410D01*
X2828835Y407353D01*
X2828155Y408338D01*
X2827536Y409363D01*
X2826979Y410423D01*
X2826488Y411515D01*
X2826063Y412634D01*
X2825707Y413777D01*
X2825420Y414940D01*
X2825205Y416118D01*
X2825060Y417306D01*
X2824988Y418501D01*
X2824988Y419699D01*
X2825060Y420894D01*
X2825205Y422082D01*
X2825420Y423260D01*
X2825707Y424423D01*
X2826063Y425566D01*
X2826488Y426685D01*
X2826979Y427777D01*
X2827536Y428837D01*
X2828155Y429862D01*
X2828835Y430847D01*
X2829574Y431790D01*
X2830368Y432686D01*
X2831214Y433533D01*
X2832110Y434326D01*
X2833053Y435065D01*
X2834038Y435745D01*
X2835063Y436364D01*
X2836123Y436921D01*
X2837215Y437412D01*
X2838334Y437837D01*
X2839477Y438193D01*
X2840640Y438480D01*
X2841818Y438695D01*
X2843006Y438840D01*
X2844201Y438912D01*
X2845399Y438912D01*
X2846594Y438840D01*
X2847782Y438695D01*
X2848960Y438480D01*
X2850123Y438193D01*
X2851266Y437837D01*
X2852385Y437412D01*
X2853477Y436921D01*
X2854537Y436364D01*
X2855562Y435745D01*
X2856547Y435065D01*
X2857490Y434326D01*
X2858386Y433533D01*
X2859233Y432686D01*
X2860026Y431790D01*
X2860765Y430847D01*
X2861445Y429862D01*
X2862064Y428837D01*
X2862621Y427777D01*
X2863112Y426685D01*
X2863537Y425566D01*
X2863893Y424423D01*
X2864180Y423260D01*
X2864395Y422082D01*
X2864540Y420894D01*
X2864612Y419699D01*
X2864612Y418501D01*
X604012Y748701D02*
X603940Y747506D01*
X603795Y746318D01*
X603580Y745140D01*
X603293Y743977D01*
X602937Y742834D01*
X602512Y741715D01*
X602021Y740623D01*
X601464Y739563D01*
X600845Y738538D01*
X600165Y737553D01*
X599426Y736610D01*
X598633Y735714D01*
X597786Y734868D01*
X596890Y734074D01*
X595947Y733335D01*
X594962Y732655D01*
X593937Y732036D01*
X592877Y731479D01*
X591785Y730988D01*
X590666Y730563D01*
X589523Y730207D01*
X588360Y729920D01*
X587182Y729705D01*
X585994Y729560D01*
X584799Y729488D01*
X583601Y729488D01*
X582406Y729560D01*
X581218Y729705D01*
X580040Y729920D01*
X578877Y730207D01*
X577734Y730563D01*
X576615Y730988D01*
X575523Y731479D01*
X574463Y732036D01*
X573438Y732655D01*
X572453Y733335D01*
X571510Y734074D01*
X570614Y734868D01*
X569768Y735714D01*
X568974Y736610D01*
X568235Y737553D01*
X567555Y738538D01*
X566936Y739563D01*
X566379Y740623D01*
X565888Y741715D01*
X565463Y742834D01*
X565107Y743977D01*
X564820Y745140D01*
X564605Y746318D01*
X564460Y747506D01*
X564388Y748701D01*
X564388Y749899D01*
X564460Y751094D01*
X564605Y752282D01*
X564820Y753460D01*
X565107Y754623D01*
X565463Y755766D01*
X565888Y756885D01*
X566379Y757977D01*
X566936Y759037D01*
X567555Y760062D01*
X568235Y761047D01*
X568974Y761990D01*
X569768Y762886D01*
X570614Y763733D01*
X571510Y764526D01*
X572453Y765265D01*
X573438Y765945D01*
X574463Y766564D01*
X575523Y767121D01*
X576615Y767612D01*
X577734Y768037D01*
X578877Y768393D01*
X580040Y768680D01*
X581218Y768895D01*
X582406Y769040D01*
X583601Y769112D01*
X584799Y769112D01*
X585994Y769040D01*
X587182Y768895D01*
X588360Y768680D01*
X589523Y768393D01*
X590666Y768037D01*
X591785Y767612D01*
X592877Y767121D01*
X593937Y766564D01*
X594962Y765945D01*
X595947Y765265D01*
X596890Y764526D01*
X597786Y763733D01*
X598633Y762886D01*
X599426Y761990D01*
X600165Y761047D01*
X600845Y760062D01*
X601464Y759037D01*
X602021Y757977D01*
X602512Y756885D01*
X602937Y755766D01*
X603293Y754623D01*
X603580Y753460D01*
X603795Y752282D01*
X603940Y751094D01*
X604012Y749899D01*
X604012Y748701D01*
X1123550Y1377249D02*
X1123471Y1375848D01*
X1123314Y1374454D01*
X1123079Y1373071D01*
X1122767Y1371703D01*
X1122379Y1370355D01*
X1121915Y1369031D01*
X1121379Y1367735D01*
X1120770Y1366471D01*
X1120091Y1365243D01*
X1119345Y1364055D01*
X1118533Y1362911D01*
X1117658Y1361814D01*
X1116724Y1360768D01*
X1115732Y1359776D01*
X1114686Y1358842D01*
X1113589Y1357967D01*
X1112445Y1357155D01*
X1111257Y1356409D01*
X1110029Y1355730D01*
X1108765Y1355121D01*
X1107469Y1354585D01*
X1106145Y1354121D01*
X1104797Y1353733D01*
X1103429Y1353421D01*
X1102046Y1353186D01*
X1100652Y1353029D01*
X1099251Y1352950D01*
X1097849Y1352950D01*
X1096448Y1353029D01*
X1095054Y1353186D01*
X1093671Y1353421D01*
X1092303Y1353733D01*
X1090955Y1354121D01*
X1089631Y1354585D01*
X1088335Y1355121D01*
X1087071Y1355730D01*
X1085843Y1356409D01*
X1084655Y1357155D01*
X1083511Y1357967D01*
X1082414Y1358842D01*
X1081368Y1359776D01*
X1080376Y1360768D01*
X1079442Y1361814D01*
X1078567Y1362911D01*
X1077755Y1364055D01*
X1077009Y1365243D01*
X1076330Y1366471D01*
X1075721Y1367735D01*
X1075185Y1369031D01*
X1074721Y1370355D01*
X1074333Y1371703D01*
X1074021Y1373071D01*
X1073786Y1374454D01*
X1073629Y1375848D01*
X1073550Y1377249D01*
X1073550Y1378651D01*
X1073629Y1380052D01*
X1073786Y1381446D01*
X1074021Y1382829D01*
X1074333Y1384197D01*
X1074721Y1385545D01*
X1075185Y1386869D01*
X1075721Y1388165D01*
X1076330Y1389429D01*
X1077009Y1390657D01*
X1077755Y1391845D01*
X1078567Y1392989D01*
X1079442Y1394086D01*
X1080376Y1395132D01*
X1081368Y1396124D01*
X1082414Y1397058D01*
X1083511Y1397933D01*
X1084655Y1398745D01*
X1085843Y1399491D01*
X1087071Y1400170D01*
X1088335Y1400779D01*
X1089631Y1401315D01*
X1090955Y1401779D01*
X1092303Y1402167D01*
X1093671Y1402479D01*
X1095054Y1402714D01*
X1096448Y1402871D01*
X1097849Y1402950D01*
X1099251Y1402950D01*
X1100652Y1402871D01*
X1102046Y1402714D01*
X1103429Y1402479D01*
X1104797Y1402167D01*
X1106145Y1401779D01*
X1107469Y1401315D01*
X1108765Y1400779D01*
X1110029Y1400170D01*
X1111257Y1399491D01*
X1112445Y1398745D01*
X1113589Y1397933D01*
X1114686Y1397058D01*
X1115732Y1396124D01*
X1116724Y1395132D01*
X1117658Y1394086D01*
X1118533Y1392989D01*
X1119345Y1391845D01*
X1120091Y1390657D01*
X1120770Y1389429D01*
X1121379Y1388165D01*
X1121915Y1386869D01*
X1122379Y1385545D01*
X1122767Y1384197D01*
X1123079Y1382829D01*
X1123314Y1381446D01*
X1123471Y1380052D01*
X1123550Y1378651D01*
X1123550Y1377249D01*
X1364850Y1377249D02*
X1364771Y1375848D01*
X1364614Y1374454D01*
X1364379Y1373071D01*
X1364067Y1371703D01*
X1363679Y1370355D01*
X1363215Y1369031D01*
X1362679Y1367735D01*
X1362070Y1366471D01*
X1361391Y1365243D01*
X1360645Y1364055D01*
X1359833Y1362911D01*
X1358958Y1361814D01*
X1358024Y1360768D01*
X1357032Y1359776D01*
X1355986Y1358842D01*
X1354889Y1357967D01*
X1353745Y1357155D01*
X1352557Y1356409D01*
X1351329Y1355730D01*
X1350065Y1355121D01*
X1348769Y1354585D01*
X1347445Y1354121D01*
X1346097Y1353733D01*
X1344729Y1353421D01*
X1343346Y1353186D01*
X1341952Y1353029D01*
X1340551Y1352950D01*
X1339149Y1352950D01*
X1337748Y1353029D01*
X1336354Y1353186D01*
X1334971Y1353421D01*
X1333603Y1353733D01*
X1332255Y1354121D01*
X1330931Y1354585D01*
X1329635Y1355121D01*
X1328371Y1355730D01*
X1327143Y1356409D01*
X1325955Y1357155D01*
X1324811Y1357967D01*
X1323714Y1358842D01*
X1322668Y1359776D01*
X1321676Y1360768D01*
X1320742Y1361814D01*
X1319867Y1362911D01*
X1319055Y1364055D01*
X1318309Y1365243D01*
X1317630Y1366471D01*
X1317021Y1367735D01*
X1316485Y1369031D01*
X1316021Y1370355D01*
X1315633Y1371703D01*
X1315321Y1373071D01*
X1315086Y1374454D01*
X1314929Y1375848D01*
X1314850Y1377249D01*
X1314850Y1378651D01*
X1314929Y1380052D01*
X1315086Y1381446D01*
X1315321Y1382829D01*
X1315633Y1384197D01*
X1316021Y1385545D01*
X1316485Y1386869D01*
X1317021Y1388165D01*
X1317630Y1389429D01*
X1318309Y1390657D01*
X1319055Y1391845D01*
X1319867Y1392989D01*
X1320742Y1394086D01*
X1321676Y1395132D01*
X1322668Y1396124D01*
X1323714Y1397058D01*
X1324811Y1397933D01*
X1325955Y1398745D01*
X1327143Y1399491D01*
X1328371Y1400170D01*
X1329635Y1400779D01*
X1330931Y1401315D01*
X1332255Y1401779D01*
X1333603Y1402167D01*
X1334971Y1402479D01*
X1336354Y1402714D01*
X1337748Y1402871D01*
X1339149Y1402950D01*
X1340551Y1402950D01*
X1341952Y1402871D01*
X1343346Y1402714D01*
X1344729Y1402479D01*
X1346097Y1402167D01*
X1347445Y1401779D01*
X1348769Y1401315D01*
X1350065Y1400779D01*
X1351329Y1400170D01*
X1352557Y1399491D01*
X1353745Y1398745D01*
X1354889Y1397933D01*
X1355986Y1397058D01*
X1357032Y1396124D01*
X1358024Y1395132D01*
X1358958Y1394086D01*
X1359833Y1392989D01*
X1360645Y1391845D01*
X1361391Y1390657D01*
X1362070Y1389429D01*
X1362679Y1388165D01*
X1363215Y1386869D01*
X1363679Y1385545D01*
X1364067Y1384197D01*
X1364379Y1382829D01*
X1364614Y1381446D01*
X1364771Y1380052D01*
X1364850Y1378651D01*
X1364850Y1377249D01*
X640950Y1377249D02*
X640871Y1375848D01*
X640714Y1374454D01*
X640479Y1373071D01*
X640167Y1371703D01*
X639779Y1370355D01*
X639315Y1369031D01*
X638779Y1367735D01*
X638170Y1366471D01*
X637491Y1365243D01*
X636745Y1364055D01*
X635933Y1362911D01*
X635058Y1361814D01*
X634124Y1360768D01*
X633132Y1359776D01*
X632086Y1358842D01*
X630989Y1357967D01*
X629845Y1357155D01*
X628657Y1356409D01*
X627429Y1355730D01*
X626165Y1355121D01*
X624869Y1354585D01*
X623545Y1354121D01*
X622197Y1353733D01*
X620829Y1353421D01*
X619446Y1353186D01*
X618052Y1353029D01*
X616651Y1352950D01*
X615249Y1352950D01*
X613848Y1353029D01*
X612454Y1353186D01*
X611071Y1353421D01*
X609703Y1353733D01*
X608355Y1354121D01*
X607031Y1354585D01*
X605735Y1355121D01*
X604471Y1355730D01*
X603243Y1356409D01*
X602055Y1357155D01*
X600911Y1357967D01*
X599814Y1358842D01*
X598768Y1359776D01*
X597776Y1360768D01*
X596842Y1361814D01*
X595967Y1362911D01*
X595155Y1364055D01*
X594409Y1365243D01*
X593730Y1366471D01*
X593121Y1367735D01*
X592585Y1369031D01*
X592121Y1370355D01*
X591733Y1371703D01*
X591421Y1373071D01*
X591186Y1374454D01*
X591029Y1375848D01*
X590950Y1377249D01*
X590950Y1378651D01*
X591029Y1380052D01*
X591186Y1381446D01*
X591421Y1382829D01*
X591733Y1384197D01*
X592121Y1385545D01*
X592585Y1386869D01*
X593121Y1388165D01*
X593730Y1389429D01*
X594409Y1390657D01*
X595155Y1391845D01*
X595967Y1392989D01*
X596842Y1394086D01*
X597776Y1395132D01*
X598768Y1396124D01*
X599814Y1397058D01*
X600911Y1397933D01*
X602055Y1398745D01*
X603243Y1399491D01*
X604471Y1400170D01*
X605735Y1400779D01*
X607031Y1401315D01*
X608355Y1401779D01*
X609703Y1402167D01*
X611071Y1402479D01*
X612454Y1402714D01*
X613848Y1402871D01*
X615249Y1402950D01*
X616651Y1402950D01*
X618052Y1402871D01*
X619446Y1402714D01*
X620829Y1402479D01*
X622197Y1402167D01*
X623545Y1401779D01*
X624869Y1401315D01*
X626165Y1400779D01*
X627429Y1400170D01*
X628657Y1399491D01*
X629845Y1398745D01*
X630989Y1397933D01*
X632086Y1397058D01*
X633132Y1396124D01*
X634124Y1395132D01*
X635058Y1394086D01*
X635933Y1392989D01*
X636745Y1391845D01*
X637491Y1390657D01*
X638170Y1389429D01*
X638779Y1388165D01*
X639315Y1386869D01*
X639779Y1385545D01*
X640167Y1384197D01*
X640479Y1382829D01*
X640714Y1381446D01*
X640871Y1380052D01*
X640950Y1378651D01*
X640950Y1377249D01*
X882250Y1377249D02*
X882171Y1375848D01*
X882014Y1374454D01*
X881779Y1373071D01*
X881467Y1371703D01*
X881079Y1370355D01*
X880615Y1369031D01*
X880079Y1367735D01*
X879470Y1366471D01*
X878791Y1365243D01*
X878045Y1364055D01*
X877233Y1362911D01*
X876358Y1361814D01*
X875424Y1360768D01*
X874432Y1359776D01*
X873386Y1358842D01*
X872289Y1357967D01*
X871145Y1357155D01*
X869957Y1356409D01*
X868729Y1355730D01*
X867465Y1355121D01*
X866169Y1354585D01*
X864845Y1354121D01*
X863497Y1353733D01*
X862129Y1353421D01*
X860746Y1353186D01*
X859352Y1353029D01*
X857951Y1352950D01*
X856549Y1352950D01*
X855148Y1353029D01*
X853754Y1353186D01*
X852371Y1353421D01*
X851003Y1353733D01*
X849655Y1354121D01*
X848331Y1354585D01*
X847035Y1355121D01*
X845771Y1355730D01*
X844543Y1356409D01*
X843355Y1357155D01*
X842211Y1357967D01*
X841114Y1358842D01*
X840068Y1359776D01*
X839076Y1360768D01*
X838142Y1361814D01*
X837267Y1362911D01*
X836455Y1364055D01*
X835709Y1365243D01*
X835030Y1366471D01*
X834421Y1367735D01*
X833885Y1369031D01*
X833421Y1370355D01*
X833033Y1371703D01*
X832721Y1373071D01*
X832486Y1374454D01*
X832329Y1375848D01*
X832250Y1377249D01*
X832250Y1378651D01*
X832329Y1380052D01*
X832486Y1381446D01*
X832721Y1382829D01*
X833033Y1384197D01*
X833421Y1385545D01*
X833885Y1386869D01*
X834421Y1388165D01*
X835030Y1389429D01*
X835709Y1390657D01*
X836455Y1391845D01*
X837267Y1392989D01*
X838142Y1394086D01*
X839076Y1395132D01*
X840068Y1396124D01*
X841114Y1397058D01*
X842211Y1397933D01*
X843355Y1398745D01*
X844543Y1399491D01*
X845771Y1400170D01*
X847035Y1400779D01*
X848331Y1401315D01*
X849655Y1401779D01*
X851003Y1402167D01*
X852371Y1402479D01*
X853754Y1402714D01*
X855148Y1402871D01*
X856549Y1402950D01*
X857951Y1402950D01*
X859352Y1402871D01*
X860746Y1402714D01*
X862129Y1402479D01*
X863497Y1402167D01*
X864845Y1401779D01*
X866169Y1401315D01*
X867465Y1400779D01*
X868729Y1400170D01*
X869957Y1399491D01*
X871145Y1398745D01*
X872289Y1397933D01*
X873386Y1397058D01*
X874432Y1396124D01*
X875424Y1395132D01*
X876358Y1394086D01*
X877233Y1392989D01*
X878045Y1391845D01*
X878791Y1390657D01*
X879470Y1389429D01*
X880079Y1388165D01*
X880615Y1386869D01*
X881079Y1385545D01*
X881467Y1384197D01*
X881779Y1382829D01*
X882014Y1381446D01*
X882171Y1380052D01*
X882250Y1378651D01*
X882250Y1377249D01*
X2088750Y1377249D02*
X2088671Y1375848D01*
X2088514Y1374454D01*
X2088279Y1373071D01*
X2087967Y1371703D01*
X2087579Y1370355D01*
X2087115Y1369031D01*
X2086579Y1367735D01*
X2085970Y1366471D01*
X2085291Y1365243D01*
X2084545Y1364055D01*
X2083733Y1362911D01*
X2082858Y1361814D01*
X2081924Y1360768D01*
X2080932Y1359776D01*
X2079886Y1358842D01*
X2078789Y1357967D01*
X2077645Y1357155D01*
X2076457Y1356409D01*
X2075229Y1355730D01*
X2073965Y1355121D01*
X2072669Y1354585D01*
X2071345Y1354121D01*
X2069997Y1353733D01*
X2068629Y1353421D01*
X2067246Y1353186D01*
X2065852Y1353029D01*
X2064451Y1352950D01*
X2063049Y1352950D01*
X2061648Y1353029D01*
X2060254Y1353186D01*
X2058871Y1353421D01*
X2057503Y1353733D01*
X2056155Y1354121D01*
X2054831Y1354585D01*
X2053535Y1355121D01*
X2052271Y1355730D01*
X2051043Y1356409D01*
X2049855Y1357155D01*
X2048711Y1357967D01*
X2047614Y1358842D01*
X2046568Y1359776D01*
X2045576Y1360768D01*
X2044642Y1361814D01*
X2043767Y1362911D01*
X2042955Y1364055D01*
X2042209Y1365243D01*
X2041530Y1366471D01*
X2040921Y1367735D01*
X2040385Y1369031D01*
X2039921Y1370355D01*
X2039533Y1371703D01*
X2039221Y1373071D01*
X2038986Y1374454D01*
X2038829Y1375848D01*
X2038750Y1377249D01*
X2038750Y1378651D01*
X2038829Y1380052D01*
X2038986Y1381446D01*
X2039221Y1382829D01*
X2039533Y1384197D01*
X2039921Y1385545D01*
X2040385Y1386869D01*
X2040921Y1388165D01*
X2041530Y1389429D01*
X2042209Y1390657D01*
X2042955Y1391845D01*
X2043767Y1392989D01*
X2044642Y1394086D01*
X2045576Y1395132D01*
X2046568Y1396124D01*
X2047614Y1397058D01*
X2048711Y1397933D01*
X2049855Y1398745D01*
X2051043Y1399491D01*
X2052271Y1400170D01*
X2053535Y1400779D01*
X2054831Y1401315D01*
X2056155Y1401779D01*
X2057503Y1402167D01*
X2058871Y1402479D01*
X2060254Y1402714D01*
X2061648Y1402871D01*
X2063049Y1402950D01*
X2064451Y1402950D01*
X2065852Y1402871D01*
X2067246Y1402714D01*
X2068629Y1402479D01*
X2069997Y1402167D01*
X2071345Y1401779D01*
X2072669Y1401315D01*
X2073965Y1400779D01*
X2075229Y1400170D01*
X2076457Y1399491D01*
X2077645Y1398745D01*
X2078789Y1397933D01*
X2079886Y1397058D01*
X2080932Y1396124D01*
X2081924Y1395132D01*
X2082858Y1394086D01*
X2083733Y1392989D01*
X2084545Y1391845D01*
X2085291Y1390657D01*
X2085970Y1389429D01*
X2086579Y1388165D01*
X2087115Y1386869D01*
X2087579Y1385545D01*
X2087967Y1384197D01*
X2088279Y1382829D01*
X2088514Y1381446D01*
X2088671Y1380052D01*
X2088750Y1378651D01*
X2088750Y1377249D01*
X2330050Y1377249D02*
X2329971Y1375848D01*
X2329814Y1374454D01*
X2329579Y1373071D01*
X2329267Y1371703D01*
X2328879Y1370355D01*
X2328415Y1369031D01*
X2327879Y1367735D01*
X2327270Y1366471D01*
X2326591Y1365243D01*
X2325845Y1364055D01*
X2325033Y1362911D01*
X2324158Y1361814D01*
X2323224Y1360768D01*
X2322232Y1359776D01*
X2321186Y1358842D01*
X2320089Y1357967D01*
X2318945Y1357155D01*
X2317757Y1356409D01*
X2316529Y1355730D01*
X2315265Y1355121D01*
X2313969Y1354585D01*
X2312645Y1354121D01*
X2311297Y1353733D01*
X2309929Y1353421D01*
X2308546Y1353186D01*
X2307152Y1353029D01*
X2305751Y1352950D01*
X2304349Y1352950D01*
X2302948Y1353029D01*
X2301554Y1353186D01*
X2300171Y1353421D01*
X2298803Y1353733D01*
X2297455Y1354121D01*
X2296131Y1354585D01*
X2294835Y1355121D01*
X2293571Y1355730D01*
X2292343Y1356409D01*
X2291155Y1357155D01*
X2290011Y1357967D01*
X2288914Y1358842D01*
X2287868Y1359776D01*
X2286876Y1360768D01*
X2285942Y1361814D01*
X2285067Y1362911D01*
X2284255Y1364055D01*
X2283509Y1365243D01*
X2282830Y1366471D01*
X2282221Y1367735D01*
X2281685Y1369031D01*
X2281221Y1370355D01*
X2280833Y1371703D01*
X2280521Y1373071D01*
X2280286Y1374454D01*
X2280129Y1375848D01*
X2280050Y1377249D01*
X2280050Y1378651D01*
X2280129Y1380052D01*
X2280286Y1381446D01*
X2280521Y1382829D01*
X2280833Y1384197D01*
X2281221Y1385545D01*
X2281685Y1386869D01*
X2282221Y1388165D01*
X2282830Y1389429D01*
X2283509Y1390657D01*
X2284255Y1391845D01*
X2285067Y1392989D01*
X2285942Y1394086D01*
X2286876Y1395132D01*
X2287868Y1396124D01*
X2288914Y1397058D01*
X2290011Y1397933D01*
X2291155Y1398745D01*
X2292343Y1399491D01*
X2293571Y1400170D01*
X2294835Y1400779D01*
X2296131Y1401315D01*
X2297455Y1401779D01*
X2298803Y1402167D01*
X2300171Y1402479D01*
X2301554Y1402714D01*
X2302948Y1402871D01*
X2304349Y1402950D01*
X2305751Y1402950D01*
X2307152Y1402871D01*
X2308546Y1402714D01*
X2309929Y1402479D01*
X2311297Y1402167D01*
X2312645Y1401779D01*
X2313969Y1401315D01*
X2315265Y1400779D01*
X2316529Y1400170D01*
X2317757Y1399491D01*
X2318945Y1398745D01*
X2320089Y1397933D01*
X2321186Y1397058D01*
X2322232Y1396124D01*
X2323224Y1395132D01*
X2324158Y1394086D01*
X2325033Y1392989D01*
X2325845Y1391845D01*
X2326591Y1390657D01*
X2327270Y1389429D01*
X2327879Y1388165D01*
X2328415Y1386869D01*
X2328879Y1385545D01*
X2329267Y1384197D01*
X2329579Y1382829D01*
X2329814Y1381446D01*
X2329971Y1380052D01*
X2330050Y1378651D01*
X2330050Y1377249D01*
X1606150Y1377249D02*
X1606071Y1375848D01*
X1605914Y1374454D01*
X1605679Y1373071D01*
X1605367Y1371703D01*
X1604979Y1370355D01*
X1604515Y1369031D01*
X1603979Y1367735D01*
X1603370Y1366471D01*
X1602691Y1365243D01*
X1601945Y1364055D01*
X1601133Y1362911D01*
X1600258Y1361814D01*
X1599324Y1360768D01*
X1598332Y1359776D01*
X1597286Y1358842D01*
X1596189Y1357967D01*
X1595045Y1357155D01*
X1593857Y1356409D01*
X1592629Y1355730D01*
X1591365Y1355121D01*
X1590069Y1354585D01*
X1588745Y1354121D01*
X1587397Y1353733D01*
X1586029Y1353421D01*
X1584646Y1353186D01*
X1583252Y1353029D01*
X1581851Y1352950D01*
X1580449Y1352950D01*
X1579048Y1353029D01*
X1577654Y1353186D01*
X1576271Y1353421D01*
X1574903Y1353733D01*
X1573555Y1354121D01*
X1572231Y1354585D01*
X1570935Y1355121D01*
X1569671Y1355730D01*
X1568443Y1356409D01*
X1567255Y1357155D01*
X1566111Y1357967D01*
X1565014Y1358842D01*
X1563968Y1359776D01*
X1562976Y1360768D01*
X1562042Y1361814D01*
X1561167Y1362911D01*
X1560355Y1364055D01*
X1559609Y1365243D01*
X1558930Y1366471D01*
X1558321Y1367735D01*
X1557785Y1369031D01*
X1557321Y1370355D01*
X1556933Y1371703D01*
X1556621Y1373071D01*
X1556386Y1374454D01*
X1556229Y1375848D01*
X1556150Y1377249D01*
X1556150Y1378651D01*
X1556229Y1380052D01*
X1556386Y1381446D01*
X1556621Y1382829D01*
X1556933Y1384197D01*
X1557321Y1385545D01*
X1557785Y1386869D01*
X1558321Y1388165D01*
X1558930Y1389429D01*
X1559609Y1390657D01*
X1560355Y1391845D01*
X1561167Y1392989D01*
X1562042Y1394086D01*
X1562976Y1395132D01*
X1563968Y1396124D01*
X1565014Y1397058D01*
X1566111Y1397933D01*
X1567255Y1398745D01*
X1568443Y1399491D01*
X1569671Y1400170D01*
X1570935Y1400779D01*
X1572231Y1401315D01*
X1573555Y1401779D01*
X1574903Y1402167D01*
X1576271Y1402479D01*
X1577654Y1402714D01*
X1579048Y1402871D01*
X1580449Y1402950D01*
X1581851Y1402950D01*
X1583252Y1402871D01*
X1584646Y1402714D01*
X1586029Y1402479D01*
X1587397Y1402167D01*
X1588745Y1401779D01*
X1590069Y1401315D01*
X1591365Y1400779D01*
X1592629Y1400170D01*
X1593857Y1399491D01*
X1595045Y1398745D01*
X1596189Y1397933D01*
X1597286Y1397058D01*
X1598332Y1396124D01*
X1599324Y1395132D01*
X1600258Y1394086D01*
X1601133Y1392989D01*
X1601945Y1391845D01*
X1602691Y1390657D01*
X1603370Y1389429D01*
X1603979Y1388165D01*
X1604515Y1386869D01*
X1604979Y1385545D01*
X1605367Y1384197D01*
X1605679Y1382829D01*
X1605914Y1381446D01*
X1606071Y1380052D01*
X1606150Y1378651D01*
X1606150Y1377249D01*
X1847450Y1377249D02*
X1847371Y1375848D01*
X1847214Y1374454D01*
X1846979Y1373071D01*
X1846667Y1371703D01*
X1846279Y1370355D01*
X1845815Y1369031D01*
X1845279Y1367735D01*
X1844670Y1366471D01*
X1843991Y1365243D01*
X1843245Y1364055D01*
X1842433Y1362911D01*
X1841558Y1361814D01*
X1840624Y1360768D01*
X1839632Y1359776D01*
X1838586Y1358842D01*
X1837489Y1357967D01*
X1836345Y1357155D01*
X1835157Y1356409D01*
X1833929Y1355730D01*
X1832665Y1355121D01*
X1831369Y1354585D01*
X1830045Y1354121D01*
X1828697Y1353733D01*
X1827329Y1353421D01*
X1825946Y1353186D01*
X1824552Y1353029D01*
X1823151Y1352950D01*
X1821749Y1352950D01*
X1820348Y1353029D01*
X1818954Y1353186D01*
X1817571Y1353421D01*
X1816203Y1353733D01*
X1814855Y1354121D01*
X1813531Y1354585D01*
X1812235Y1355121D01*
X1810971Y1355730D01*
X1809743Y1356409D01*
X1808555Y1357155D01*
X1807411Y1357967D01*
X1806314Y1358842D01*
X1805268Y1359776D01*
X1804276Y1360768D01*
X1803342Y1361814D01*
X1802467Y1362911D01*
X1801655Y1364055D01*
X1800909Y1365243D01*
X1800230Y1366471D01*
X1799621Y1367735D01*
X1799085Y1369031D01*
X1798621Y1370355D01*
X1798233Y1371703D01*
X1797921Y1373071D01*
X1797686Y1374454D01*
X1797529Y1375848D01*
X1797450Y1377249D01*
X1797450Y1378651D01*
X1797529Y1380052D01*
X1797686Y1381446D01*
X1797921Y1382829D01*
X1798233Y1384197D01*
X1798621Y1385545D01*
X1799085Y1386869D01*
X1799621Y1388165D01*
X1800230Y1389429D01*
X1800909Y1390657D01*
X1801655Y1391845D01*
X1802467Y1392989D01*
X1803342Y1394086D01*
X1804276Y1395132D01*
X1805268Y1396124D01*
X1806314Y1397058D01*
X1807411Y1397933D01*
X1808555Y1398745D01*
X1809743Y1399491D01*
X1810971Y1400170D01*
X1812235Y1400779D01*
X1813531Y1401315D01*
X1814855Y1401779D01*
X1816203Y1402167D01*
X1817571Y1402479D01*
X1818954Y1402714D01*
X1820348Y1402871D01*
X1821749Y1402950D01*
X1823151Y1402950D01*
X1824552Y1402871D01*
X1825946Y1402714D01*
X1827329Y1402479D01*
X1828697Y1402167D01*
X1830045Y1401779D01*
X1831369Y1401315D01*
X1832665Y1400779D01*
X1833929Y1400170D01*
X1835157Y1399491D01*
X1836345Y1398745D01*
X1837489Y1397933D01*
X1838586Y1397058D01*
X1839632Y1396124D01*
X1840624Y1395132D01*
X1841558Y1394086D01*
X1842433Y1392989D01*
X1843245Y1391845D01*
X1843991Y1390657D01*
X1844670Y1389429D01*
X1845279Y1388165D01*
X1845815Y1386869D01*
X1846279Y1385545D01*
X1846667Y1384197D01*
X1846979Y1382829D01*
X1847214Y1381446D01*
X1847371Y1380052D01*
X1847450Y1378651D01*
X1847450Y1377249D01*
X66580Y1070610D02*
X67659Y1070539D01*
X68731Y1070398D01*
X69791Y1070187D01*
X70835Y1069908D01*
X71859Y1069560D01*
X72857Y1069146D01*
X73827Y1068668D01*
X74763Y1068128D01*
X75662Y1067527D01*
X76519Y1066869D01*
X77332Y1066157D01*
X78097Y1065392D01*
X78809Y1064579D01*
X79467Y1063722D01*
X80068Y1062823D01*
X80608Y1061887D01*
X81086Y1060917D01*
X81500Y1059919D01*
X81848Y1058895D01*
X82127Y1057851D01*
X82338Y1056791D01*
X82479Y1055719D01*
X82550Y1054640D01*
X82550Y1053560D01*
X82479Y1052481D01*
X82338Y1051409D01*
X82127Y1050349D01*
X81848Y1049305D01*
X81500Y1048281D01*
X81086Y1047283D01*
X80608Y1046313D01*
X80068Y1045377D01*
X79467Y1044478D01*
X78809Y1043621D01*
X78097Y1042808D01*
X77332Y1042044D01*
X76519Y1041331D01*
X75662Y1040673D01*
X74763Y1040072D01*
X73827Y1039532D01*
X72857Y1039054D01*
X71859Y1038640D01*
X70835Y1038292D01*
X69791Y1038013D01*
X68731Y1037802D01*
X67659Y1037661D01*
X66580Y1037590D01*
X65500Y1037590D01*
X64421Y1037661D01*
X63349Y1037802D01*
X62289Y1038013D01*
X61245Y1038292D01*
X60221Y1038640D01*
X59223Y1039054D01*
X58253Y1039532D01*
X57317Y1040072D01*
X56418Y1040673D01*
X55561Y1041331D01*
X54748Y1042044D01*
X53984Y1042808D01*
X53271Y1043621D01*
X52613Y1044478D01*
X52012Y1045377D01*
X51472Y1046313D01*
X50994Y1047283D01*
X50580Y1048281D01*
X50232Y1049305D01*
X49953Y1050349D01*
X49742Y1051409D01*
X49601Y1052481D01*
X49530Y1053560D01*
X49530Y1054640D01*
X49601Y1055719D01*
X49742Y1056791D01*
X49953Y1057851D01*
X50232Y1058895D01*
X50580Y1059919D01*
X50994Y1060917D01*
X51472Y1061887D01*
X52012Y1062823D01*
X52613Y1063722D01*
X53271Y1064579D01*
X53984Y1065392D01*
X54748Y1066157D01*
X55561Y1066869D01*
X56418Y1067527D01*
X57317Y1068128D01*
X58253Y1068668D01*
X59223Y1069146D01*
X60221Y1069560D01*
X61245Y1069908D01*
X62289Y1070187D01*
X63349Y1070398D01*
X64421Y1070539D01*
X65500Y1070610D01*
X66580Y1070610D01*
X28480Y499110D02*
X29559Y499039D01*
X30631Y498898D01*
X31691Y498687D01*
X32735Y498408D01*
X33759Y498060D01*
X34757Y497646D01*
X35727Y497168D01*
X36663Y496628D01*
X37562Y496027D01*
X38419Y495369D01*
X39232Y494657D01*
X39997Y493892D01*
X40709Y493079D01*
X41367Y492222D01*
X41968Y491323D01*
X42508Y490387D01*
X42986Y489417D01*
X43400Y488419D01*
X43748Y487395D01*
X44027Y486351D01*
X44238Y485291D01*
X44379Y484219D01*
X44450Y483140D01*
X44450Y482060D01*
X44379Y480981D01*
X44238Y479909D01*
X44027Y478849D01*
X43748Y477805D01*
X43400Y476781D01*
X42986Y475783D01*
X42508Y474813D01*
X41968Y473877D01*
X41367Y472978D01*
X40709Y472121D01*
X39997Y471308D01*
X39232Y470544D01*
X38419Y469831D01*
X37562Y469173D01*
X36663Y468572D01*
X35727Y468032D01*
X34757Y467554D01*
X33759Y467140D01*
X32735Y466792D01*
X31691Y466513D01*
X30631Y466302D01*
X29559Y466161D01*
X28480Y466090D01*
X27400Y466090D01*
X26321Y466161D01*
X25249Y466302D01*
X24189Y466513D01*
X23145Y466792D01*
X22121Y467140D01*
X21123Y467554D01*
X20153Y468032D01*
X19217Y468572D01*
X18318Y469173D01*
X17461Y469831D01*
X16648Y470544D01*
X15884Y471308D01*
X15171Y472121D01*
X14513Y472978D01*
X13912Y473877D01*
X13372Y474813D01*
X12894Y475783D01*
X12480Y476781D01*
X12132Y477805D01*
X11853Y478849D01*
X11642Y479909D01*
X11501Y480981D01*
X11430Y482060D01*
X11430Y483140D01*
X11501Y484219D01*
X11642Y485291D01*
X11853Y486351D01*
X12132Y487395D01*
X12480Y488419D01*
X12894Y489417D01*
X13372Y490387D01*
X13912Y491323D01*
X14513Y492222D01*
X15171Y493079D01*
X15884Y493892D01*
X16648Y494657D01*
X17461Y495369D01*
X18318Y496027D01*
X19217Y496628D01*
X20153Y497168D01*
X21123Y497646D01*
X22121Y498060D01*
X23145Y498408D01*
X24189Y498687D01*
X25249Y498898D01*
X26321Y499039D01*
X27400Y499110D01*
X28480Y499110D01*
X1569212Y1040801D02*
X1569140Y1039606D01*
X1568995Y1038418D01*
X1568780Y1037240D01*
X1568493Y1036077D01*
X1568137Y1034934D01*
X1567712Y1033815D01*
X1567221Y1032723D01*
X1566664Y1031663D01*
X1566045Y1030638D01*
X1565365Y1029653D01*
X1564626Y1028710D01*
X1563833Y1027814D01*
X1562986Y1026968D01*
X1562090Y1026174D01*
X1561147Y1025435D01*
X1560162Y1024755D01*
X1559137Y1024136D01*
X1558077Y1023579D01*
X1556985Y1023088D01*
X1555866Y1022663D01*
X1554723Y1022307D01*
X1553560Y1022020D01*
X1552382Y1021805D01*
X1551194Y1021660D01*
X1549999Y1021588D01*
X1548801Y1021588D01*
X1547606Y1021660D01*
X1546418Y1021805D01*
X1545240Y1022020D01*
X1544077Y1022307D01*
X1542934Y1022663D01*
X1541815Y1023088D01*
X1540723Y1023579D01*
X1539663Y1024136D01*
X1538638Y1024755D01*
X1537653Y1025435D01*
X1536710Y1026174D01*
X1535814Y1026968D01*
X1534968Y1027814D01*
X1534174Y1028710D01*
X1533435Y1029653D01*
X1532755Y1030638D01*
X1532136Y1031663D01*
X1531579Y1032723D01*
X1531088Y1033815D01*
X1530663Y1034934D01*
X1530307Y1036077D01*
X1530020Y1037240D01*
X1529805Y1038418D01*
X1529660Y1039606D01*
X1529588Y1040801D01*
X1529588Y1041999D01*
X1529660Y1043194D01*
X1529805Y1044382D01*
X1530020Y1045560D01*
X1530307Y1046723D01*
X1530663Y1047866D01*
X1531088Y1048985D01*
X1531579Y1050077D01*
X1532136Y1051137D01*
X1532755Y1052162D01*
X1533435Y1053147D01*
X1534174Y1054090D01*
X1534968Y1054986D01*
X1535814Y1055833D01*
X1536710Y1056626D01*
X1537653Y1057365D01*
X1538638Y1058045D01*
X1539663Y1058664D01*
X1540723Y1059221D01*
X1541815Y1059712D01*
X1542934Y1060137D01*
X1544077Y1060493D01*
X1545240Y1060780D01*
X1546418Y1060995D01*
X1547606Y1061140D01*
X1548801Y1061212D01*
X1549999Y1061212D01*
X1551194Y1061140D01*
X1552382Y1060995D01*
X1553560Y1060780D01*
X1554723Y1060493D01*
X1555866Y1060137D01*
X1556985Y1059712D01*
X1558077Y1059221D01*
X1559137Y1058664D01*
X1560162Y1058045D01*
X1561147Y1057365D01*
X1562090Y1056626D01*
X1562986Y1055833D01*
X1563833Y1054986D01*
X1564626Y1054090D01*
X1565365Y1053147D01*
X1566045Y1052162D01*
X1566664Y1051137D01*
X1567221Y1050077D01*
X1567712Y1048985D01*
X1568137Y1047866D01*
X1568493Y1046723D01*
X1568780Y1045560D01*
X1568995Y1044382D01*
X1569140Y1043194D01*
X1569212Y1041999D01*
X1569212Y1040801D01*
M02*
