G04 EAGLE Gerber RS-274X export*
G75*
%MOMM*%
%FSLAX34Y34*%
%LPD*%
%INTop Copper*%
%IPPOS*%
%AMOC8*
5,1,8,0,0,1.08239X$1,22.5*%
G01*
%ADD10P,1.429621X8X112.500000*%
%ADD11P,1.649562X8X202.500000*%
%ADD12C,1.422400*%
%ADD13C,1.320800*%
%ADD14P,1.539592X8X112.500000*%
%ADD15P,1.429621X8X22.500000*%
%ADD16P,1.429621X8X202.500000*%
%ADD17P,1.539592X8X22.500000*%
%ADD18C,1.320800*%
%ADD19P,1.732040X8X22.500000*%
%ADD20C,1.600200*%
%ADD21C,0.508000*%
%ADD22C,1.016000*%
%ADD23C,0.254000*%


D10*
X228600Y406400D03*
X228600Y431800D03*
X482600Y406400D03*
X482600Y431800D03*
X482600Y558800D03*
X482600Y584200D03*
X889000Y558800D03*
X889000Y584200D03*
X254000Y558800D03*
X254000Y584200D03*
D11*
X635000Y63500D03*
X609600Y63500D03*
X584200Y63500D03*
X558800Y63500D03*
X533400Y63500D03*
X508000Y63500D03*
X635000Y38100D03*
X609600Y38100D03*
X584200Y38100D03*
X558800Y38100D03*
X533400Y38100D03*
X508000Y38100D03*
X482600Y63500D03*
X482600Y38100D03*
X457200Y63500D03*
X431800Y63500D03*
X406400Y63500D03*
X381000Y63500D03*
X355600Y63500D03*
X330200Y63500D03*
X457200Y38100D03*
X431800Y38100D03*
X406400Y38100D03*
X381000Y38100D03*
X355600Y38100D03*
X330200Y38100D03*
X304800Y63500D03*
X304800Y38100D03*
X279400Y63500D03*
X254000Y63500D03*
X228600Y63500D03*
X203200Y63500D03*
X279400Y38100D03*
X254000Y38100D03*
X228600Y38100D03*
X203200Y38100D03*
D12*
X551688Y114300D02*
X565912Y114300D01*
X565912Y139700D02*
X551688Y139700D01*
D13*
X342900Y298196D02*
X342900Y311404D01*
X317500Y311404D02*
X317500Y298196D01*
X292100Y298196D02*
X292100Y311404D01*
X266700Y311404D02*
X266700Y298196D01*
X241300Y298196D02*
X241300Y311404D01*
X215900Y311404D02*
X215900Y298196D01*
X190500Y298196D02*
X190500Y311404D01*
X165100Y311404D02*
X165100Y298196D01*
X139700Y298196D02*
X139700Y311404D01*
X114300Y311404D02*
X114300Y298196D01*
X88900Y298196D02*
X88900Y311404D01*
X63500Y311404D02*
X63500Y298196D01*
X63500Y159004D02*
X63500Y145796D01*
X88900Y145796D02*
X88900Y159004D01*
X114300Y159004D02*
X114300Y145796D01*
X139700Y145796D02*
X139700Y159004D01*
X165100Y159004D02*
X165100Y145796D01*
X190500Y145796D02*
X190500Y159004D01*
X215900Y159004D02*
X215900Y145796D01*
X241300Y145796D02*
X241300Y159004D01*
X266700Y159004D02*
X266700Y145796D01*
X292100Y145796D02*
X292100Y159004D01*
X317500Y159004D02*
X317500Y145796D01*
X342900Y145796D02*
X342900Y159004D01*
D14*
X457200Y215900D03*
X431800Y215900D03*
X457200Y241300D03*
X431800Y241300D03*
X457200Y266700D03*
X431800Y266700D03*
X431800Y292100D03*
X457200Y292100D03*
D15*
X533400Y469900D03*
X609600Y469900D03*
X533400Y431800D03*
X609600Y431800D03*
D13*
X457200Y475996D02*
X457200Y489204D01*
X431800Y489204D02*
X431800Y475996D01*
X304800Y475996D02*
X304800Y489204D01*
X304800Y413004D02*
X304800Y399796D01*
X406400Y475996D02*
X406400Y489204D01*
X381000Y489204D02*
X381000Y475996D01*
X330200Y475996D02*
X330200Y489204D01*
X355600Y489204D02*
X355600Y475996D01*
X330200Y413004D02*
X330200Y399796D01*
X355600Y399796D02*
X355600Y413004D01*
X381000Y413004D02*
X381000Y399796D01*
X406400Y399796D02*
X406400Y413004D01*
X431800Y413004D02*
X431800Y399796D01*
X457200Y399796D02*
X457200Y413004D01*
X203200Y475996D02*
X203200Y489204D01*
X177800Y489204D02*
X177800Y475996D01*
X50800Y475996D02*
X50800Y489204D01*
X50800Y413004D02*
X50800Y399796D01*
X152400Y475996D02*
X152400Y489204D01*
X127000Y489204D02*
X127000Y475996D01*
X76200Y475996D02*
X76200Y489204D01*
X101600Y489204D02*
X101600Y475996D01*
X76200Y413004D02*
X76200Y399796D01*
X101600Y399796D02*
X101600Y413004D01*
X127000Y413004D02*
X127000Y399796D01*
X152400Y399796D02*
X152400Y413004D01*
X177800Y413004D02*
X177800Y399796D01*
X203200Y399796D02*
X203200Y413004D01*
X457200Y628396D02*
X457200Y641604D01*
X431800Y641604D02*
X431800Y628396D01*
X304800Y628396D02*
X304800Y641604D01*
X304800Y565404D02*
X304800Y552196D01*
X406400Y628396D02*
X406400Y641604D01*
X381000Y641604D02*
X381000Y628396D01*
X330200Y628396D02*
X330200Y641604D01*
X355600Y641604D02*
X355600Y628396D01*
X330200Y565404D02*
X330200Y552196D01*
X355600Y552196D02*
X355600Y565404D01*
X381000Y565404D02*
X381000Y552196D01*
X406400Y552196D02*
X406400Y565404D01*
X431800Y565404D02*
X431800Y552196D01*
X457200Y552196D02*
X457200Y565404D01*
D15*
X533400Y393700D03*
X609600Y393700D03*
D13*
X863600Y628396D02*
X863600Y641604D01*
X838200Y641604D02*
X838200Y628396D01*
X711200Y628396D02*
X711200Y641604D01*
X711200Y565404D02*
X711200Y552196D01*
X812800Y628396D02*
X812800Y641604D01*
X787400Y641604D02*
X787400Y628396D01*
X736600Y628396D02*
X736600Y641604D01*
X762000Y641604D02*
X762000Y628396D01*
X736600Y565404D02*
X736600Y552196D01*
X762000Y552196D02*
X762000Y565404D01*
X787400Y565404D02*
X787400Y552196D01*
X812800Y552196D02*
X812800Y565404D01*
X838200Y565404D02*
X838200Y552196D01*
X863600Y552196D02*
X863600Y565404D01*
X863600Y451104D02*
X863600Y437896D01*
X838200Y437896D02*
X838200Y451104D01*
X711200Y451104D02*
X711200Y437896D01*
X685800Y437896D02*
X685800Y451104D01*
X812800Y451104D02*
X812800Y437896D01*
X787400Y437896D02*
X787400Y451104D01*
X736600Y451104D02*
X736600Y437896D01*
X762000Y437896D02*
X762000Y451104D01*
X685800Y374904D02*
X685800Y361696D01*
X711200Y361696D02*
X711200Y374904D01*
X736600Y374904D02*
X736600Y361696D01*
X762000Y361696D02*
X762000Y374904D01*
X787400Y374904D02*
X787400Y361696D01*
X812800Y361696D02*
X812800Y374904D01*
X838200Y374904D02*
X838200Y361696D01*
X863600Y361696D02*
X863600Y374904D01*
D16*
X609600Y355600D03*
X533400Y355600D03*
D17*
X609600Y228600D03*
X609600Y254000D03*
X635000Y228600D03*
X635000Y254000D03*
X660400Y228600D03*
X660400Y254000D03*
D18*
X838200Y254000D03*
X762000Y254000D03*
X762000Y177800D03*
X838200Y177800D03*
D12*
X635000Y159512D02*
X635000Y145288D01*
X660400Y145288D02*
X660400Y159512D01*
D13*
X228600Y628396D02*
X228600Y641604D01*
X203200Y641604D02*
X203200Y628396D01*
X76200Y628396D02*
X76200Y641604D01*
X50800Y641604D02*
X50800Y628396D01*
X177800Y628396D02*
X177800Y641604D01*
X152400Y641604D02*
X152400Y628396D01*
X101600Y628396D02*
X101600Y641604D01*
X127000Y641604D02*
X127000Y628396D01*
X50800Y565404D02*
X50800Y552196D01*
X76200Y552196D02*
X76200Y565404D01*
X101600Y565404D02*
X101600Y552196D01*
X127000Y552196D02*
X127000Y565404D01*
X152400Y565404D02*
X152400Y552196D01*
X177800Y552196D02*
X177800Y565404D01*
X203200Y565404D02*
X203200Y552196D01*
X228600Y552196D02*
X228600Y565404D01*
D14*
X660400Y558800D03*
X635000Y558800D03*
X660400Y584200D03*
X635000Y584200D03*
X660400Y609600D03*
X635000Y609600D03*
X635000Y635000D03*
X660400Y635000D03*
D12*
X76200Y375412D02*
X76200Y361188D01*
X101600Y361188D02*
X101600Y375412D01*
X127000Y375412D02*
X127000Y361188D01*
X800100Y488188D02*
X800100Y502412D01*
X774700Y502412D02*
X774700Y488188D01*
X749300Y488188D02*
X749300Y502412D01*
X228600Y362712D02*
X228600Y348488D01*
X254000Y348488D02*
X254000Y362712D01*
D10*
X889000Y368300D03*
X889000Y393700D03*
D15*
X787400Y101600D03*
X812800Y101600D03*
X330200Y330200D03*
X355600Y330200D03*
X139700Y114300D03*
X165100Y114300D03*
D19*
X101600Y50800D03*
D20*
X76200Y50800D03*
D19*
X736600Y50800D03*
D20*
X711200Y50800D03*
D16*
X609600Y508000D03*
X533400Y508000D03*
D21*
X355600Y317500D02*
X342900Y304800D01*
X355600Y317500D02*
X355600Y330200D01*
X444500Y228600D02*
X457200Y241300D01*
X444500Y228600D02*
X444500Y139700D01*
X431800Y127000D01*
X431800Y114300D02*
X431800Y63500D01*
X431800Y114300D02*
X431800Y127000D01*
X152400Y50800D02*
X101600Y50800D01*
X152400Y50800D02*
X190500Y12700D01*
X444500Y12700D01*
X444500Y50800D01*
X431800Y63500D01*
X889000Y393700D02*
X901700Y406400D01*
X901700Y571500D01*
X889000Y584200D01*
X304800Y635000D02*
X254000Y584200D01*
X50800Y635000D02*
X38100Y622300D01*
X38100Y495300D01*
X50800Y482600D01*
X254000Y584200D02*
X304800Y533400D01*
X304800Y482600D01*
X469900Y501650D02*
X482600Y488950D01*
X482600Y431800D01*
X469900Y571500D02*
X482600Y584200D01*
X469900Y571500D02*
X469900Y501650D01*
X787400Y444500D02*
X812800Y444500D01*
X704850Y463550D02*
X685800Y444500D01*
X723900Y463550D02*
X736600Y463550D01*
X723900Y463550D02*
X704850Y463550D01*
X736600Y463550D02*
X736600Y444500D01*
X749300Y241300D02*
X736600Y228600D01*
X749300Y241300D02*
X762000Y254000D01*
X736600Y190500D02*
X736600Y50800D01*
X736600Y190500D02*
X736600Y228600D01*
X736600Y190500D02*
X609600Y63500D01*
X749300Y431800D02*
X736600Y444500D01*
X749300Y431800D02*
X749300Y241300D01*
X723900Y622300D02*
X711200Y635000D01*
X723900Y622300D02*
X723900Y463550D01*
D22*
X469900Y501650D03*
X431800Y114300D03*
D23*
X228600Y222250D02*
X222250Y228600D01*
X228600Y222250D02*
X228600Y95250D01*
X254000Y69850D01*
X254000Y63500D01*
D22*
X222250Y228600D03*
D23*
X260350Y215900D02*
X279400Y196850D01*
X279400Y63500D01*
D22*
X260350Y215900D03*
D23*
X95250Y298450D02*
X88900Y304800D01*
X95250Y298450D02*
X95250Y171450D01*
X101600Y165100D01*
X101600Y127000D01*
X133350Y95250D01*
X177800Y95250D01*
X177800Y165100D01*
X184150Y171450D01*
X203200Y171450D01*
X203200Y107950D01*
X241300Y69850D01*
X241300Y57150D01*
X247650Y50800D01*
X285750Y50800D01*
X298450Y63500D01*
X304800Y63500D01*
X330200Y190500D02*
X317500Y203200D01*
X330200Y190500D02*
X330200Y63500D01*
D22*
X317500Y203200D03*
D23*
X342900Y190500D02*
X355600Y177800D01*
X355600Y63500D01*
D22*
X342900Y190500D03*
D23*
X95250Y146050D02*
X88900Y152400D01*
X95250Y146050D02*
X95250Y120650D01*
X196850Y19050D01*
X393700Y19050D01*
X393700Y50800D01*
X381000Y63500D01*
D21*
X317500Y304800D02*
X330200Y317500D01*
X330200Y330200D01*
X228600Y406400D02*
X203200Y406400D01*
X228600Y558800D02*
X254000Y558800D01*
X196850Y412750D02*
X203200Y406400D01*
X196850Y412750D02*
X196850Y463550D01*
X190500Y469900D01*
X190500Y520700D01*
X203200Y533400D02*
X228600Y558800D01*
X203200Y533400D02*
X190500Y520700D01*
X317500Y342900D02*
X330200Y330200D01*
X317500Y387350D02*
X317500Y419100D01*
X317500Y387350D02*
X317500Y342900D01*
X317500Y419100D02*
X203200Y533400D01*
X609600Y469900D02*
X609600Y431800D01*
X609600Y469900D02*
X609600Y508000D01*
X482600Y406400D02*
X457200Y406400D01*
X609600Y393700D02*
X609600Y355600D01*
X495300Y546100D02*
X482600Y558800D01*
X495300Y546100D02*
X495300Y419100D01*
X482600Y406400D01*
X876300Y368300D02*
X889000Y368300D01*
X876300Y368300D02*
X863600Y368300D01*
X876300Y558800D02*
X889000Y558800D01*
X876300Y558800D02*
X863600Y558800D01*
X876300Y558800D02*
X876300Y368300D01*
X838200Y152400D02*
X787400Y101600D01*
X838200Y152400D02*
X838200Y177800D01*
X342900Y387350D02*
X317500Y387350D01*
X342900Y387350D02*
X342900Y495300D01*
X387350Y539750D01*
X457200Y539750D01*
X457200Y558800D01*
D23*
X457200Y292100D02*
X469900Y279400D01*
X469900Y25400D01*
D22*
X469900Y25400D03*
D23*
X304800Y203200D02*
X355600Y254000D01*
X304800Y203200D02*
X304800Y82550D01*
X317500Y69850D01*
X317500Y57150D01*
X311150Y50800D01*
X298450Y50800D01*
X285750Y38100D01*
X279400Y38100D01*
D22*
X355600Y254000D03*
D23*
X266700Y152400D02*
X266700Y76200D01*
D22*
X266700Y76200D03*
D23*
X196850Y146050D02*
X190500Y152400D01*
X196850Y146050D02*
X196850Y88900D01*
X215900Y69850D01*
X215900Y31750D01*
X222250Y25400D01*
X368300Y25400D02*
X381000Y25400D01*
X368300Y25400D02*
X222250Y25400D01*
X381000Y25400D02*
X381000Y38100D01*
X368300Y469900D02*
X355600Y482600D01*
X368300Y469900D02*
X368300Y25400D01*
X419100Y393700D02*
X431800Y406400D01*
X419100Y393700D02*
X419100Y50800D01*
X406400Y38100D01*
X584200Y323850D02*
X533400Y374650D01*
X584200Y323850D02*
X584200Y63500D01*
D22*
X533400Y374650D03*
D23*
X495300Y304800D02*
X457200Y342900D01*
X495300Y304800D02*
X495300Y165100D01*
X488950Y158750D01*
X488950Y76200D01*
X495300Y69850D01*
X495300Y50800D01*
X482600Y38100D01*
D22*
X457200Y342900D03*
D23*
X774700Y495300D02*
X774700Y69850D01*
X730250Y25400D01*
X508000Y25400D01*
X508000Y38100D01*
X546100Y101600D02*
X558800Y114300D01*
X546100Y101600D02*
X546100Y50800D01*
X558800Y38100D01*
X247650Y158750D02*
X241300Y152400D01*
X247650Y158750D02*
X247650Y285750D01*
X254000Y292100D01*
X254000Y330200D01*
X241300Y342900D01*
X241300Y444500D01*
X203200Y482600D01*
X450850Y69850D02*
X457200Y63500D01*
X450850Y69850D02*
X450850Y127000D01*
D22*
X450850Y127000D03*
D23*
X215900Y152400D02*
X209550Y158750D01*
X209550Y285750D01*
X203200Y292100D01*
X203200Y381000D01*
X190500Y393700D01*
X190500Y457200D01*
X177800Y469900D01*
X177800Y482600D01*
X406400Y406400D02*
X425450Y425450D01*
X444500Y425450D01*
X444500Y323850D01*
X482600Y285750D01*
X482600Y177800D02*
X482600Y63500D01*
X482600Y177800D02*
X482600Y285750D01*
D22*
X482600Y177800D03*
D23*
X431800Y215900D02*
X431800Y241300D01*
X514350Y450850D02*
X533400Y469900D01*
X514350Y450850D02*
X514350Y285750D01*
X520700Y279400D01*
D22*
X520700Y279400D03*
D21*
X520700Y419100D02*
X533400Y431800D01*
X520700Y419100D02*
X520700Y298450D01*
X533400Y285750D01*
X533400Y254000D01*
D22*
X533400Y254000D03*
D23*
X298450Y158750D02*
X292100Y152400D01*
X298450Y158750D02*
X298450Y285750D01*
X304800Y292100D01*
X304800Y406400D01*
X127000Y406400D02*
X101600Y406400D01*
X317500Y546100D02*
X330200Y558800D01*
X317500Y546100D02*
X317500Y431800D01*
X330200Y419100D01*
X330200Y406400D01*
X76200Y406400D02*
X31750Y450850D01*
X31750Y641350D01*
X63500Y673100D01*
X698500Y673100D01*
X698500Y571500D01*
X711200Y558800D01*
X711200Y444500D02*
X711200Y368300D01*
X609600Y228600D02*
X622300Y215900D01*
X711200Y215900D01*
X711200Y368300D01*
X685800Y368300D02*
X673100Y355600D01*
X673100Y247650D01*
X666750Y241300D01*
X635000Y241300D01*
X635000Y228600D01*
X158750Y488950D02*
X152400Y482600D01*
X158750Y488950D02*
X158750Y539750D01*
X165100Y546100D01*
X165100Y571500D01*
X203200Y609600D01*
X228600Y609600D01*
X228600Y635000D01*
X533400Y393700D02*
X546100Y406400D01*
X546100Y546100D01*
X457200Y635000D01*
X101600Y609600D02*
X76200Y635000D01*
X101600Y609600D02*
X101600Y558800D01*
X647700Y596900D02*
X660400Y584200D01*
X647700Y596900D02*
X647700Y660400D01*
X641350Y666750D01*
X69850Y666750D01*
X69850Y654050D01*
X63500Y647700D01*
X63500Y571500D01*
X76200Y558800D01*
X120650Y552450D02*
X127000Y558800D01*
X120650Y552450D02*
X120650Y501650D01*
X114300Y495300D01*
X114300Y469900D01*
X120650Y463550D01*
X165100Y463550D01*
X165100Y533400D01*
X177800Y546100D01*
X177800Y558800D01*
X635000Y558800D02*
X635000Y584200D01*
X139700Y495300D02*
X127000Y482600D01*
X139700Y495300D02*
X139700Y571500D01*
X184150Y615950D01*
X215900Y615950D01*
X215900Y647700D01*
X228600Y660400D01*
X635000Y660400D01*
X635000Y635000D01*
X635000Y609600D01*
X635000Y584200D01*
X361950Y615950D02*
X304800Y558800D01*
X361950Y615950D02*
X444500Y615950D01*
X444500Y647700D01*
X450850Y654050D01*
X622300Y654050D01*
X622300Y292100D01*
X660400Y254000D01*
X165100Y152400D02*
X158750Y158750D01*
X158750Y234950D01*
X101600Y292100D01*
X101600Y342900D01*
X88900Y355600D02*
X76200Y368300D01*
X88900Y355600D02*
X101600Y342900D01*
X88900Y469900D02*
X101600Y482600D01*
X88900Y469900D02*
X88900Y355600D01*
X146050Y31750D02*
X171450Y6350D01*
X457200Y6350D01*
X457200Y38100D01*
D22*
X146050Y31750D03*
D23*
X787400Y558800D02*
X800100Y546100D01*
X800100Y495300D01*
X508000Y165100D02*
X501650Y158750D01*
X508000Y165100D02*
X508000Y482600D01*
X533400Y508000D01*
D22*
X501650Y158750D03*
D23*
X749300Y546100D02*
X762000Y558800D01*
X749300Y546100D02*
X749300Y495300D01*
X228600Y317500D02*
X215900Y304800D01*
X228600Y317500D02*
X228600Y355600D01*
D21*
X139700Y152400D02*
X139700Y114300D01*
X101600Y76200D02*
X76200Y50800D01*
X101600Y76200D02*
X101600Y95250D01*
D22*
X101600Y95250D03*
D23*
X76200Y482600D02*
X114300Y520700D01*
X114300Y654050D01*
D22*
X114300Y654050D03*
M02*
