M48
;GenerationSoftware,Autodesk,EAGLE,9.6.1*%
;CreationDate,2024-12-09T06:45:11Z*%
FMAT,2
ICI,OFF
METRIC,TZ,000.000
T5C0.610
T4C0.813
T3C0.914
T2C1.016
T1C3.962
%
G90
M71
T1
X55880Y58420
T2
X27940Y6350
X60960Y3810
X58420Y3810
X55880Y3810
X53340Y3810
X50800Y3810
X48260Y6350
X45720Y6350
X48260Y3810
X43180Y6350
X40640Y6350
X38100Y6350
X35560Y6350
X33020Y6350
X45720Y3810
X43180Y3810
X40640Y3810
X38100Y3810
X35560Y3810
X33020Y3810
X30480Y6350
X30480Y3810
X25400Y6350
X22860Y6350
X20320Y6350
X25400Y3810
X50800Y6350
X22860Y3810
X20320Y3810
X63500Y6350
X60960Y6350
X58420Y6350
X55880Y6350
X53340Y6350
X27940Y3810
X63500Y3810
T3
X12700Y36830
X10160Y36830
X7620Y36830
X66040Y63500
X63500Y63500
X63500Y60960
X66040Y60960
X66040Y58420
X63500Y55880
X66040Y15240
X63500Y15240
X66040Y25400
X66040Y22860
X63500Y25400
X63500Y22860
X60960Y25400
X60960Y22860
X55880Y11430
X55880Y13970
X45720Y21590
X43180Y21590
X45720Y24130
X43180Y24130
X45720Y26670
X43180Y29210
X45720Y29210
X66040Y55880
X43180Y26670
X63500Y58420
X80010Y49530
X77470Y49530
X74930Y49530
X22860Y35560
X25400Y35560
T4
X48260Y58420
X88900Y55880
X88900Y58420
X25400Y55880
X25400Y58420
X34290Y30480
X31750Y30480
X29210Y30480
X26670Y30480
X24130Y30480
X21590Y30480
X19050Y30480
X16510Y30480
X13970Y30480
X11430Y30480
X8890Y30480
X6350Y30480
X6350Y15240
X8890Y15240
X11430Y15240
X13970Y15240
X16510Y15240
X19050Y15240
X21590Y15240
X24130Y15240
X26670Y15240
X29210Y15240
X31750Y15240
X34290Y15240
X53340Y46990
X60960Y46990
X53340Y43180
X60960Y43180
X45720Y48260
X43180Y48260
X30480Y48260
X30480Y40640
X40640Y48260
X38100Y48260
X33020Y48260
X35560Y48260
X33020Y40640
X35560Y40640
X38100Y40640
X40640Y40640
X43180Y40640
X45720Y40640
X20320Y48260
X17780Y48260
X5080Y48260
X5080Y40640
X15240Y48260
X12700Y48260
X7620Y48260
X10160Y48260
X7620Y40640
X10160Y40640
X12700Y40640
X15240Y40640
X17780Y40640
X20320Y40640
X45720Y63500
X43180Y63500
X30480Y63500
X30480Y55880
X40640Y63500
X38100Y63500
X33020Y63500
X35560Y63500
X33020Y55880
X35560Y55880
X38100Y55880
X40640Y55880
X43180Y55880
X45720Y55880
X53340Y39370
X60960Y39370
X86360Y63500
X83820Y63500
X71120Y63500
X71120Y55880
X81280Y63500
X78740Y63500
X73660Y63500
X76200Y63500
X73660Y55880
X76200Y55880
X78740Y55880
X81280Y55880
X83820Y55880
X86360Y55880
X86360Y44450
X83820Y44450
X71120Y44450
X68580Y44450
X81280Y44450
X78740Y44450
X73660Y44450
X76200Y44450
X68580Y36830
X71120Y36830
X73660Y36830
X76200Y36830
X78740Y36830
X81280Y36830
X83820Y36830
X86360Y36830
X60960Y35560
X83820Y25400
X76200Y25400
X76200Y17780
X83820Y17780
X22860Y63500
X20320Y63500
X7620Y63500
X5080Y63500
X17780Y63500
X15240Y63500
X10160Y63500
X12700Y63500
X5080Y55880
X7620Y55880
X10160Y55880
X12700Y55880
X15240Y55880
X17780Y55880
X20320Y55880
X22860Y55880
X53340Y35560
X22860Y40640
X22860Y43180
X48260Y40640
X48260Y43180
X48260Y55880
X88900Y36830
X88900Y39370
X78740Y10160
X81280Y10160
X33020Y33020
X35560Y33020
X13970Y11430
X16510Y11430
X10160Y5080
X7620Y5080
X73660Y5080
X71120Y5080
X60960Y50800
X53340Y50800
T5
X45085Y12700
X14605Y3175
X53340Y25400
X52070Y27940
X46990Y50165
X11430Y65405
X10160Y9525
X50165Y15875
X48260Y17780
X45720Y34290
X53340Y37465
X26670Y7620
X35560Y25400
X46990Y2540
X34290Y19050
X31750Y20320
X26035Y21590
X22225Y22860
X43180Y11430
M30