G04 EAGLE Gerber RS-274X export*
G75*
%MOMM*%
%FSLAX34Y34*%
%LPD*%
%INSilkscreen Top*%
%IPPOS*%
%AMOC8*
5,1,8,0,0,1.08239X$1,22.5*%
G01*
%ADD10C,0.101600*%
%ADD11C,0.076200*%
%ADD12C,0.152400*%
%ADD13C,0.254000*%
%ADD14C,0.127000*%
%ADD15R,2.540000X2.540000*%
%ADD16C,0.177800*%
%ADD17R,0.381000X0.508000*%
%ADD18C,0.304800*%


D10*
X267208Y689024D02*
X269157Y689024D01*
X269157Y681228D01*
X267208Y681228D02*
X271106Y681228D01*
X269157Y692922D02*
X269157Y694871D01*
X280851Y692922D02*
X282800Y690973D01*
X280851Y692922D02*
X276953Y692922D01*
X275004Y690973D01*
X275004Y689024D01*
X276953Y687075D01*
X280851Y687075D01*
X282800Y685126D01*
X282800Y683177D01*
X280851Y681228D01*
X276953Y681228D01*
X275004Y683177D01*
X286698Y681228D02*
X286698Y692922D01*
X292545Y692922D01*
X294494Y690973D01*
X294494Y689024D01*
X292545Y687075D01*
X294494Y685126D01*
X294494Y683177D01*
X292545Y681228D01*
X286698Y681228D01*
X286698Y687075D02*
X292545Y687075D01*
X298392Y692922D02*
X306188Y681228D01*
X298392Y681228D02*
X306188Y692922D01*
X310086Y687075D02*
X317882Y687075D01*
X321780Y690973D02*
X323729Y692922D01*
X327627Y692922D01*
X329576Y690973D01*
X329576Y689024D01*
X327627Y687075D01*
X325678Y687075D01*
X327627Y687075D02*
X329576Y685126D01*
X329576Y683177D01*
X327627Y681228D01*
X323729Y681228D01*
X321780Y683177D01*
X333474Y690973D02*
X335423Y692922D01*
X339321Y692922D01*
X341270Y690973D01*
X341270Y689024D01*
X339321Y687075D01*
X337372Y687075D01*
X339321Y687075D02*
X341270Y685126D01*
X341270Y683177D01*
X339321Y681228D01*
X335423Y681228D01*
X333474Y683177D01*
X345168Y689024D02*
X349066Y692922D01*
X349066Y681228D01*
X345168Y681228D02*
X352964Y681228D01*
X374403Y692922D02*
X376352Y690973D01*
X374403Y692922D02*
X370505Y692922D01*
X368556Y690973D01*
X368556Y683177D01*
X370505Y681228D01*
X374403Y681228D01*
X376352Y683177D01*
X380250Y692922D02*
X382199Y692922D01*
X382199Y681228D01*
X380250Y681228D02*
X384148Y681228D01*
X389995Y681228D02*
X393893Y681228D01*
X395842Y683177D01*
X395842Y687075D01*
X393893Y689024D01*
X389995Y689024D01*
X388046Y687075D01*
X388046Y683177D01*
X389995Y681228D01*
X399740Y681228D02*
X399740Y689024D01*
X405587Y689024D01*
X407536Y687075D01*
X407536Y681228D01*
X413383Y681228D02*
X417281Y681228D01*
X413383Y681228D02*
X411434Y683177D01*
X411434Y687075D01*
X413383Y689024D01*
X417281Y689024D01*
X419230Y687075D01*
X419230Y685126D01*
X411434Y685126D01*
X434822Y689024D02*
X438720Y681228D01*
X442618Y689024D01*
X446516Y690973D02*
X446516Y683177D01*
X446516Y690973D02*
X448464Y692922D01*
X452362Y692922D01*
X454311Y690973D01*
X454311Y683177D01*
X452362Y681228D01*
X448464Y681228D01*
X446516Y683177D01*
X454311Y690973D01*
X458209Y683177D02*
X458209Y681228D01*
X458209Y683177D02*
X460158Y683177D01*
X460158Y681228D01*
X458209Y681228D01*
X464056Y692922D02*
X471852Y692922D01*
X471852Y690973D01*
X464056Y683177D01*
X464056Y681228D01*
X487444Y687075D02*
X495240Y687075D01*
X522526Y689024D02*
X522526Y683177D01*
X524475Y681228D01*
X526424Y683177D01*
X528373Y681228D01*
X530322Y683177D01*
X530322Y689024D01*
X534220Y689024D02*
X534220Y683177D01*
X536169Y681228D01*
X538118Y683177D01*
X540067Y681228D01*
X542016Y683177D01*
X542016Y689024D01*
X545914Y689024D02*
X545914Y683177D01*
X547863Y681228D01*
X549812Y683177D01*
X551761Y681228D01*
X553710Y683177D01*
X553710Y689024D01*
X557608Y683177D02*
X557608Y681228D01*
X557608Y683177D02*
X559557Y683177D01*
X559557Y681228D01*
X557608Y681228D01*
X563455Y681228D02*
X569302Y681228D01*
X571251Y683177D01*
X569302Y685126D01*
X565404Y685126D01*
X563455Y687075D01*
X565404Y689024D01*
X571251Y689024D01*
X575149Y689024D02*
X575149Y681228D01*
X575149Y689024D02*
X577098Y689024D01*
X579047Y687075D01*
X579047Y681228D01*
X579047Y687075D02*
X580996Y689024D01*
X582945Y687075D01*
X582945Y681228D01*
X586843Y681228D02*
X586843Y692922D01*
X586843Y681228D02*
X592690Y681228D01*
X594639Y683177D01*
X594639Y687075D01*
X592690Y689024D01*
X586843Y689024D01*
X600486Y689024D02*
X604384Y689024D01*
X606333Y687075D01*
X606333Y681228D01*
X600486Y681228D01*
X598537Y683177D01*
X600486Y685126D01*
X606333Y685126D01*
X610231Y681228D02*
X610231Y692922D01*
X610231Y685126D02*
X616078Y681228D01*
X610231Y685126D02*
X616078Y689024D01*
X621925Y681228D02*
X625823Y681228D01*
X621925Y681228D02*
X619976Y683177D01*
X619976Y687075D01*
X621925Y689024D01*
X625823Y689024D01*
X627772Y687075D01*
X627772Y685126D01*
X619976Y685126D01*
X631670Y681228D02*
X631670Y689024D01*
X631670Y685126D02*
X635568Y689024D01*
X637517Y689024D01*
X641415Y683177D02*
X641415Y681228D01*
X641415Y683177D02*
X643364Y683177D01*
X643364Y681228D01*
X641415Y681228D01*
X649211Y689024D02*
X655058Y689024D01*
X649211Y689024D02*
X647262Y687075D01*
X647262Y683177D01*
X649211Y681228D01*
X655058Y681228D01*
X660905Y681228D02*
X664803Y681228D01*
X666752Y683177D01*
X666752Y687075D01*
X664803Y689024D01*
X660905Y689024D01*
X658956Y687075D01*
X658956Y683177D01*
X660905Y681228D01*
X670650Y681228D02*
X670650Y689024D01*
X672599Y689024D01*
X674548Y687075D01*
X674548Y681228D01*
X674548Y687075D02*
X676497Y689024D01*
X678446Y687075D01*
X678446Y681228D01*
D11*
X603552Y560967D02*
X597281Y560967D01*
X597281Y551561D01*
X603552Y551561D01*
X600416Y556264D02*
X597281Y556264D01*
X606636Y551561D02*
X612907Y551561D01*
X606636Y551561D02*
X612907Y557832D01*
X612907Y559399D01*
X611339Y560967D01*
X608204Y560967D01*
X606636Y559399D01*
X603552Y586367D02*
X597281Y586367D01*
X597281Y576961D01*
X603552Y576961D01*
X600416Y581664D02*
X597281Y581664D01*
X606636Y584799D02*
X608204Y586367D01*
X611339Y586367D01*
X612907Y584799D01*
X612907Y583232D01*
X611339Y581664D01*
X609772Y581664D01*
X611339Y581664D02*
X612907Y580096D01*
X612907Y578529D01*
X611339Y576961D01*
X608204Y576961D01*
X606636Y578529D01*
X603552Y611767D02*
X597281Y611767D01*
X597281Y602361D01*
X603552Y602361D01*
X600416Y607064D02*
X597281Y607064D01*
X611339Y602361D02*
X611339Y611767D01*
X606636Y607064D01*
X612907Y607064D01*
X603552Y637167D02*
X597281Y637167D01*
X597281Y627761D01*
X603552Y627761D01*
X600416Y632464D02*
X597281Y632464D01*
X606636Y637167D02*
X612907Y637167D01*
X606636Y637167D02*
X606636Y632464D01*
X609772Y634032D01*
X611339Y634032D01*
X612907Y632464D01*
X612907Y629329D01*
X611339Y627761D01*
X608204Y627761D01*
X606636Y629329D01*
X627753Y286052D02*
X627753Y279781D01*
X637159Y279781D01*
X637159Y286052D01*
X632456Y282916D02*
X632456Y279781D01*
X630888Y289136D02*
X627753Y292272D01*
X637159Y292272D01*
X637159Y295407D02*
X637159Y289136D01*
X637159Y298491D02*
X637159Y304762D01*
X637159Y298491D02*
X630888Y304762D01*
X629321Y304762D01*
X627753Y303194D01*
X627753Y300059D01*
X629321Y298491D01*
X653153Y286052D02*
X653153Y279781D01*
X662559Y279781D01*
X662559Y286052D01*
X657856Y282916D02*
X657856Y279781D01*
X656288Y289136D02*
X653153Y292272D01*
X662559Y292272D01*
X662559Y295407D02*
X662559Y289136D01*
X656288Y298491D02*
X653153Y301627D01*
X662559Y301627D01*
X662559Y304762D02*
X662559Y298491D01*
X686181Y223147D02*
X692452Y223147D01*
X686181Y223147D02*
X686181Y213741D01*
X692452Y213741D01*
X689316Y218444D02*
X686181Y218444D01*
X695536Y220012D02*
X698672Y223147D01*
X698672Y213741D01*
X701807Y213741D02*
X695536Y213741D01*
X709594Y213741D02*
X709594Y223147D01*
X704891Y218444D01*
X711162Y218444D01*
X565452Y223147D02*
X559181Y223147D01*
X559181Y213741D01*
X565452Y213741D01*
X562316Y218444D02*
X559181Y218444D01*
X568536Y220012D02*
X571672Y223147D01*
X571672Y213741D01*
X574807Y213741D02*
X568536Y213741D01*
X581027Y221579D02*
X584162Y223147D01*
X581027Y221579D02*
X577891Y218444D01*
X577891Y215309D01*
X579459Y213741D01*
X582594Y213741D01*
X584162Y215309D01*
X584162Y216876D01*
X582594Y218444D01*
X577891Y218444D01*
X501952Y220607D02*
X495681Y220607D01*
X495681Y211201D01*
X501952Y211201D01*
X498816Y215904D02*
X495681Y215904D01*
X505036Y211201D02*
X511307Y211201D01*
X505036Y211201D02*
X511307Y217472D01*
X511307Y219039D01*
X509739Y220607D01*
X506604Y220607D01*
X505036Y219039D01*
X514391Y219039D02*
X515959Y220607D01*
X519094Y220607D01*
X520662Y219039D01*
X520662Y217472D01*
X519094Y215904D01*
X517527Y215904D01*
X519094Y215904D02*
X520662Y214336D01*
X520662Y212769D01*
X519094Y211201D01*
X515959Y211201D01*
X514391Y212769D01*
X501952Y246007D02*
X495681Y246007D01*
X495681Y236601D01*
X501952Y236601D01*
X498816Y241304D02*
X495681Y241304D01*
X505036Y236601D02*
X511307Y236601D01*
X505036Y236601D02*
X511307Y242872D01*
X511307Y244439D01*
X509739Y246007D01*
X506604Y246007D01*
X505036Y244439D01*
X519094Y246007D02*
X519094Y236601D01*
X514391Y241304D02*
X519094Y246007D01*
X520662Y241304D02*
X514391Y241304D01*
X501952Y271407D02*
X495681Y271407D01*
X495681Y262001D01*
X501952Y262001D01*
X498816Y266704D02*
X495681Y266704D01*
X505036Y262001D02*
X511307Y262001D01*
X505036Y262001D02*
X511307Y268272D01*
X511307Y269839D01*
X509739Y271407D01*
X506604Y271407D01*
X505036Y269839D01*
X514391Y262001D02*
X520662Y262001D01*
X514391Y262001D02*
X520662Y268272D01*
X520662Y269839D01*
X519094Y271407D01*
X515959Y271407D01*
X514391Y269839D01*
X501952Y296807D02*
X495681Y296807D01*
X495681Y287401D01*
X501952Y287401D01*
X498816Y292104D02*
X495681Y292104D01*
X505036Y287401D02*
X511307Y287401D01*
X505036Y287401D02*
X511307Y293672D01*
X511307Y295239D01*
X509739Y296807D01*
X506604Y296807D01*
X505036Y295239D01*
X514391Y293672D02*
X517527Y296807D01*
X517527Y287401D01*
X520662Y287401D02*
X514391Y287401D01*
D12*
X215900Y397510D02*
X215900Y440690D01*
X241300Y440690D02*
X241300Y397510D01*
X238760Y443230D02*
X218440Y443230D01*
X218440Y394970D02*
X238760Y394970D01*
X215900Y440690D02*
X215902Y440790D01*
X215908Y440889D01*
X215918Y440989D01*
X215931Y441087D01*
X215949Y441186D01*
X215970Y441283D01*
X215995Y441379D01*
X216024Y441475D01*
X216057Y441569D01*
X216093Y441662D01*
X216133Y441753D01*
X216177Y441843D01*
X216224Y441931D01*
X216274Y442017D01*
X216328Y442101D01*
X216385Y442183D01*
X216445Y442262D01*
X216509Y442340D01*
X216575Y442414D01*
X216644Y442486D01*
X216716Y442555D01*
X216790Y442621D01*
X216868Y442685D01*
X216947Y442745D01*
X217029Y442802D01*
X217113Y442856D01*
X217199Y442906D01*
X217287Y442953D01*
X217377Y442997D01*
X217468Y443037D01*
X217561Y443073D01*
X217655Y443106D01*
X217751Y443135D01*
X217847Y443160D01*
X217944Y443181D01*
X218043Y443199D01*
X218141Y443212D01*
X218241Y443222D01*
X218340Y443228D01*
X218440Y443230D01*
X215900Y397510D02*
X215902Y397410D01*
X215908Y397311D01*
X215918Y397211D01*
X215931Y397113D01*
X215949Y397014D01*
X215970Y396917D01*
X215995Y396821D01*
X216024Y396725D01*
X216057Y396631D01*
X216093Y396538D01*
X216133Y396447D01*
X216177Y396357D01*
X216224Y396269D01*
X216274Y396183D01*
X216328Y396099D01*
X216385Y396017D01*
X216445Y395938D01*
X216509Y395860D01*
X216575Y395786D01*
X216644Y395714D01*
X216716Y395645D01*
X216790Y395579D01*
X216868Y395515D01*
X216947Y395455D01*
X217029Y395398D01*
X217113Y395344D01*
X217199Y395294D01*
X217287Y395247D01*
X217377Y395203D01*
X217468Y395163D01*
X217561Y395127D01*
X217655Y395094D01*
X217751Y395065D01*
X217847Y395040D01*
X217944Y395019D01*
X218043Y395001D01*
X218141Y394988D01*
X218241Y394978D01*
X218340Y394972D01*
X218440Y394970D01*
X241300Y440690D02*
X241298Y440790D01*
X241292Y440889D01*
X241282Y440989D01*
X241269Y441087D01*
X241251Y441186D01*
X241230Y441283D01*
X241205Y441379D01*
X241176Y441475D01*
X241143Y441569D01*
X241107Y441662D01*
X241067Y441753D01*
X241023Y441843D01*
X240976Y441931D01*
X240926Y442017D01*
X240872Y442101D01*
X240815Y442183D01*
X240755Y442262D01*
X240691Y442340D01*
X240625Y442414D01*
X240556Y442486D01*
X240484Y442555D01*
X240410Y442621D01*
X240332Y442685D01*
X240253Y442745D01*
X240171Y442802D01*
X240087Y442856D01*
X240001Y442906D01*
X239913Y442953D01*
X239823Y442997D01*
X239732Y443037D01*
X239639Y443073D01*
X239545Y443106D01*
X239449Y443135D01*
X239353Y443160D01*
X239256Y443181D01*
X239157Y443199D01*
X239059Y443212D01*
X238959Y443222D01*
X238860Y443228D01*
X238760Y443230D01*
X241300Y397510D02*
X241298Y397410D01*
X241292Y397311D01*
X241282Y397211D01*
X241269Y397113D01*
X241251Y397014D01*
X241230Y396917D01*
X241205Y396821D01*
X241176Y396725D01*
X241143Y396631D01*
X241107Y396538D01*
X241067Y396447D01*
X241023Y396357D01*
X240976Y396269D01*
X240926Y396183D01*
X240872Y396099D01*
X240815Y396017D01*
X240755Y395938D01*
X240691Y395860D01*
X240625Y395786D01*
X240556Y395714D01*
X240484Y395645D01*
X240410Y395579D01*
X240332Y395515D01*
X240253Y395455D01*
X240171Y395398D01*
X240087Y395344D01*
X240001Y395294D01*
X239913Y395247D01*
X239823Y395203D01*
X239732Y395163D01*
X239639Y395127D01*
X239545Y395094D01*
X239449Y395065D01*
X239353Y395040D01*
X239256Y395019D01*
X239157Y395001D01*
X239059Y394988D01*
X238959Y394978D01*
X238860Y394972D01*
X238760Y394970D01*
X228600Y421640D02*
X228600Y422910D01*
D13*
X228600Y421640D02*
X220980Y421640D01*
X228600Y421640D02*
X236220Y421640D01*
X228600Y416560D02*
X220980Y416560D01*
X228600Y416560D02*
X236220Y416560D01*
D12*
X228600Y416560D02*
X228600Y415290D01*
X469900Y397510D02*
X469900Y440690D01*
X495300Y440690D02*
X495300Y397510D01*
X492760Y443230D02*
X472440Y443230D01*
X472440Y394970D02*
X492760Y394970D01*
X469900Y440690D02*
X469902Y440790D01*
X469908Y440889D01*
X469918Y440989D01*
X469931Y441087D01*
X469949Y441186D01*
X469970Y441283D01*
X469995Y441379D01*
X470024Y441475D01*
X470057Y441569D01*
X470093Y441662D01*
X470133Y441753D01*
X470177Y441843D01*
X470224Y441931D01*
X470274Y442017D01*
X470328Y442101D01*
X470385Y442183D01*
X470445Y442262D01*
X470509Y442340D01*
X470575Y442414D01*
X470644Y442486D01*
X470716Y442555D01*
X470790Y442621D01*
X470868Y442685D01*
X470947Y442745D01*
X471029Y442802D01*
X471113Y442856D01*
X471199Y442906D01*
X471287Y442953D01*
X471377Y442997D01*
X471468Y443037D01*
X471561Y443073D01*
X471655Y443106D01*
X471751Y443135D01*
X471847Y443160D01*
X471944Y443181D01*
X472043Y443199D01*
X472141Y443212D01*
X472241Y443222D01*
X472340Y443228D01*
X472440Y443230D01*
X469900Y397510D02*
X469902Y397410D01*
X469908Y397311D01*
X469918Y397211D01*
X469931Y397113D01*
X469949Y397014D01*
X469970Y396917D01*
X469995Y396821D01*
X470024Y396725D01*
X470057Y396631D01*
X470093Y396538D01*
X470133Y396447D01*
X470177Y396357D01*
X470224Y396269D01*
X470274Y396183D01*
X470328Y396099D01*
X470385Y396017D01*
X470445Y395938D01*
X470509Y395860D01*
X470575Y395786D01*
X470644Y395714D01*
X470716Y395645D01*
X470790Y395579D01*
X470868Y395515D01*
X470947Y395455D01*
X471029Y395398D01*
X471113Y395344D01*
X471199Y395294D01*
X471287Y395247D01*
X471377Y395203D01*
X471468Y395163D01*
X471561Y395127D01*
X471655Y395094D01*
X471751Y395065D01*
X471847Y395040D01*
X471944Y395019D01*
X472043Y395001D01*
X472141Y394988D01*
X472241Y394978D01*
X472340Y394972D01*
X472440Y394970D01*
X495300Y440690D02*
X495298Y440790D01*
X495292Y440889D01*
X495282Y440989D01*
X495269Y441087D01*
X495251Y441186D01*
X495230Y441283D01*
X495205Y441379D01*
X495176Y441475D01*
X495143Y441569D01*
X495107Y441662D01*
X495067Y441753D01*
X495023Y441843D01*
X494976Y441931D01*
X494926Y442017D01*
X494872Y442101D01*
X494815Y442183D01*
X494755Y442262D01*
X494691Y442340D01*
X494625Y442414D01*
X494556Y442486D01*
X494484Y442555D01*
X494410Y442621D01*
X494332Y442685D01*
X494253Y442745D01*
X494171Y442802D01*
X494087Y442856D01*
X494001Y442906D01*
X493913Y442953D01*
X493823Y442997D01*
X493732Y443037D01*
X493639Y443073D01*
X493545Y443106D01*
X493449Y443135D01*
X493353Y443160D01*
X493256Y443181D01*
X493157Y443199D01*
X493059Y443212D01*
X492959Y443222D01*
X492860Y443228D01*
X492760Y443230D01*
X495300Y397510D02*
X495298Y397410D01*
X495292Y397311D01*
X495282Y397211D01*
X495269Y397113D01*
X495251Y397014D01*
X495230Y396917D01*
X495205Y396821D01*
X495176Y396725D01*
X495143Y396631D01*
X495107Y396538D01*
X495067Y396447D01*
X495023Y396357D01*
X494976Y396269D01*
X494926Y396183D01*
X494872Y396099D01*
X494815Y396017D01*
X494755Y395938D01*
X494691Y395860D01*
X494625Y395786D01*
X494556Y395714D01*
X494484Y395645D01*
X494410Y395579D01*
X494332Y395515D01*
X494253Y395455D01*
X494171Y395398D01*
X494087Y395344D01*
X494001Y395294D01*
X493913Y395247D01*
X493823Y395203D01*
X493732Y395163D01*
X493639Y395127D01*
X493545Y395094D01*
X493449Y395065D01*
X493353Y395040D01*
X493256Y395019D01*
X493157Y395001D01*
X493059Y394988D01*
X492959Y394978D01*
X492860Y394972D01*
X492760Y394970D01*
X482600Y421640D02*
X482600Y422910D01*
D13*
X482600Y421640D02*
X474980Y421640D01*
X482600Y421640D02*
X490220Y421640D01*
X482600Y416560D02*
X474980Y416560D01*
X482600Y416560D02*
X490220Y416560D01*
D12*
X482600Y416560D02*
X482600Y415290D01*
X469900Y549910D02*
X469900Y593090D01*
X495300Y593090D02*
X495300Y549910D01*
X492760Y595630D02*
X472440Y595630D01*
X472440Y547370D02*
X492760Y547370D01*
X469900Y593090D02*
X469902Y593190D01*
X469908Y593289D01*
X469918Y593389D01*
X469931Y593487D01*
X469949Y593586D01*
X469970Y593683D01*
X469995Y593779D01*
X470024Y593875D01*
X470057Y593969D01*
X470093Y594062D01*
X470133Y594153D01*
X470177Y594243D01*
X470224Y594331D01*
X470274Y594417D01*
X470328Y594501D01*
X470385Y594583D01*
X470445Y594662D01*
X470509Y594740D01*
X470575Y594814D01*
X470644Y594886D01*
X470716Y594955D01*
X470790Y595021D01*
X470868Y595085D01*
X470947Y595145D01*
X471029Y595202D01*
X471113Y595256D01*
X471199Y595306D01*
X471287Y595353D01*
X471377Y595397D01*
X471468Y595437D01*
X471561Y595473D01*
X471655Y595506D01*
X471751Y595535D01*
X471847Y595560D01*
X471944Y595581D01*
X472043Y595599D01*
X472141Y595612D01*
X472241Y595622D01*
X472340Y595628D01*
X472440Y595630D01*
X469900Y549910D02*
X469902Y549810D01*
X469908Y549711D01*
X469918Y549611D01*
X469931Y549513D01*
X469949Y549414D01*
X469970Y549317D01*
X469995Y549221D01*
X470024Y549125D01*
X470057Y549031D01*
X470093Y548938D01*
X470133Y548847D01*
X470177Y548757D01*
X470224Y548669D01*
X470274Y548583D01*
X470328Y548499D01*
X470385Y548417D01*
X470445Y548338D01*
X470509Y548260D01*
X470575Y548186D01*
X470644Y548114D01*
X470716Y548045D01*
X470790Y547979D01*
X470868Y547915D01*
X470947Y547855D01*
X471029Y547798D01*
X471113Y547744D01*
X471199Y547694D01*
X471287Y547647D01*
X471377Y547603D01*
X471468Y547563D01*
X471561Y547527D01*
X471655Y547494D01*
X471751Y547465D01*
X471847Y547440D01*
X471944Y547419D01*
X472043Y547401D01*
X472141Y547388D01*
X472241Y547378D01*
X472340Y547372D01*
X472440Y547370D01*
X495300Y593090D02*
X495298Y593190D01*
X495292Y593289D01*
X495282Y593389D01*
X495269Y593487D01*
X495251Y593586D01*
X495230Y593683D01*
X495205Y593779D01*
X495176Y593875D01*
X495143Y593969D01*
X495107Y594062D01*
X495067Y594153D01*
X495023Y594243D01*
X494976Y594331D01*
X494926Y594417D01*
X494872Y594501D01*
X494815Y594583D01*
X494755Y594662D01*
X494691Y594740D01*
X494625Y594814D01*
X494556Y594886D01*
X494484Y594955D01*
X494410Y595021D01*
X494332Y595085D01*
X494253Y595145D01*
X494171Y595202D01*
X494087Y595256D01*
X494001Y595306D01*
X493913Y595353D01*
X493823Y595397D01*
X493732Y595437D01*
X493639Y595473D01*
X493545Y595506D01*
X493449Y595535D01*
X493353Y595560D01*
X493256Y595581D01*
X493157Y595599D01*
X493059Y595612D01*
X492959Y595622D01*
X492860Y595628D01*
X492760Y595630D01*
X495300Y549910D02*
X495298Y549810D01*
X495292Y549711D01*
X495282Y549611D01*
X495269Y549513D01*
X495251Y549414D01*
X495230Y549317D01*
X495205Y549221D01*
X495176Y549125D01*
X495143Y549031D01*
X495107Y548938D01*
X495067Y548847D01*
X495023Y548757D01*
X494976Y548669D01*
X494926Y548583D01*
X494872Y548499D01*
X494815Y548417D01*
X494755Y548338D01*
X494691Y548260D01*
X494625Y548186D01*
X494556Y548114D01*
X494484Y548045D01*
X494410Y547979D01*
X494332Y547915D01*
X494253Y547855D01*
X494171Y547798D01*
X494087Y547744D01*
X494001Y547694D01*
X493913Y547647D01*
X493823Y547603D01*
X493732Y547563D01*
X493639Y547527D01*
X493545Y547494D01*
X493449Y547465D01*
X493353Y547440D01*
X493256Y547419D01*
X493157Y547401D01*
X493059Y547388D01*
X492959Y547378D01*
X492860Y547372D01*
X492760Y547370D01*
X482600Y574040D02*
X482600Y575310D01*
D13*
X482600Y574040D02*
X474980Y574040D01*
X482600Y574040D02*
X490220Y574040D01*
X482600Y568960D02*
X474980Y568960D01*
X482600Y568960D02*
X490220Y568960D01*
D12*
X482600Y568960D02*
X482600Y567690D01*
X876300Y549910D02*
X876300Y593090D01*
X901700Y593090D02*
X901700Y549910D01*
X899160Y595630D02*
X878840Y595630D01*
X878840Y547370D02*
X899160Y547370D01*
X876300Y593090D02*
X876302Y593190D01*
X876308Y593289D01*
X876318Y593389D01*
X876331Y593487D01*
X876349Y593586D01*
X876370Y593683D01*
X876395Y593779D01*
X876424Y593875D01*
X876457Y593969D01*
X876493Y594062D01*
X876533Y594153D01*
X876577Y594243D01*
X876624Y594331D01*
X876674Y594417D01*
X876728Y594501D01*
X876785Y594583D01*
X876845Y594662D01*
X876909Y594740D01*
X876975Y594814D01*
X877044Y594886D01*
X877116Y594955D01*
X877190Y595021D01*
X877268Y595085D01*
X877347Y595145D01*
X877429Y595202D01*
X877513Y595256D01*
X877599Y595306D01*
X877687Y595353D01*
X877777Y595397D01*
X877868Y595437D01*
X877961Y595473D01*
X878055Y595506D01*
X878151Y595535D01*
X878247Y595560D01*
X878344Y595581D01*
X878443Y595599D01*
X878541Y595612D01*
X878641Y595622D01*
X878740Y595628D01*
X878840Y595630D01*
X876300Y549910D02*
X876302Y549810D01*
X876308Y549711D01*
X876318Y549611D01*
X876331Y549513D01*
X876349Y549414D01*
X876370Y549317D01*
X876395Y549221D01*
X876424Y549125D01*
X876457Y549031D01*
X876493Y548938D01*
X876533Y548847D01*
X876577Y548757D01*
X876624Y548669D01*
X876674Y548583D01*
X876728Y548499D01*
X876785Y548417D01*
X876845Y548338D01*
X876909Y548260D01*
X876975Y548186D01*
X877044Y548114D01*
X877116Y548045D01*
X877190Y547979D01*
X877268Y547915D01*
X877347Y547855D01*
X877429Y547798D01*
X877513Y547744D01*
X877599Y547694D01*
X877687Y547647D01*
X877777Y547603D01*
X877868Y547563D01*
X877961Y547527D01*
X878055Y547494D01*
X878151Y547465D01*
X878247Y547440D01*
X878344Y547419D01*
X878443Y547401D01*
X878541Y547388D01*
X878641Y547378D01*
X878740Y547372D01*
X878840Y547370D01*
X901700Y593090D02*
X901698Y593190D01*
X901692Y593289D01*
X901682Y593389D01*
X901669Y593487D01*
X901651Y593586D01*
X901630Y593683D01*
X901605Y593779D01*
X901576Y593875D01*
X901543Y593969D01*
X901507Y594062D01*
X901467Y594153D01*
X901423Y594243D01*
X901376Y594331D01*
X901326Y594417D01*
X901272Y594501D01*
X901215Y594583D01*
X901155Y594662D01*
X901091Y594740D01*
X901025Y594814D01*
X900956Y594886D01*
X900884Y594955D01*
X900810Y595021D01*
X900732Y595085D01*
X900653Y595145D01*
X900571Y595202D01*
X900487Y595256D01*
X900401Y595306D01*
X900313Y595353D01*
X900223Y595397D01*
X900132Y595437D01*
X900039Y595473D01*
X899945Y595506D01*
X899849Y595535D01*
X899753Y595560D01*
X899656Y595581D01*
X899557Y595599D01*
X899459Y595612D01*
X899359Y595622D01*
X899260Y595628D01*
X899160Y595630D01*
X901700Y549910D02*
X901698Y549810D01*
X901692Y549711D01*
X901682Y549611D01*
X901669Y549513D01*
X901651Y549414D01*
X901630Y549317D01*
X901605Y549221D01*
X901576Y549125D01*
X901543Y549031D01*
X901507Y548938D01*
X901467Y548847D01*
X901423Y548757D01*
X901376Y548669D01*
X901326Y548583D01*
X901272Y548499D01*
X901215Y548417D01*
X901155Y548338D01*
X901091Y548260D01*
X901025Y548186D01*
X900956Y548114D01*
X900884Y548045D01*
X900810Y547979D01*
X900732Y547915D01*
X900653Y547855D01*
X900571Y547798D01*
X900487Y547744D01*
X900401Y547694D01*
X900313Y547647D01*
X900223Y547603D01*
X900132Y547563D01*
X900039Y547527D01*
X899945Y547494D01*
X899849Y547465D01*
X899753Y547440D01*
X899656Y547419D01*
X899557Y547401D01*
X899459Y547388D01*
X899359Y547378D01*
X899260Y547372D01*
X899160Y547370D01*
X889000Y574040D02*
X889000Y575310D01*
D13*
X889000Y574040D02*
X881380Y574040D01*
X889000Y574040D02*
X896620Y574040D01*
X889000Y568960D02*
X881380Y568960D01*
X889000Y568960D02*
X896620Y568960D01*
D12*
X889000Y568960D02*
X889000Y567690D01*
X241300Y549910D02*
X241300Y593090D01*
X266700Y593090D02*
X266700Y549910D01*
X264160Y595630D02*
X243840Y595630D01*
X243840Y547370D02*
X264160Y547370D01*
X241300Y593090D02*
X241302Y593190D01*
X241308Y593289D01*
X241318Y593389D01*
X241331Y593487D01*
X241349Y593586D01*
X241370Y593683D01*
X241395Y593779D01*
X241424Y593875D01*
X241457Y593969D01*
X241493Y594062D01*
X241533Y594153D01*
X241577Y594243D01*
X241624Y594331D01*
X241674Y594417D01*
X241728Y594501D01*
X241785Y594583D01*
X241845Y594662D01*
X241909Y594740D01*
X241975Y594814D01*
X242044Y594886D01*
X242116Y594955D01*
X242190Y595021D01*
X242268Y595085D01*
X242347Y595145D01*
X242429Y595202D01*
X242513Y595256D01*
X242599Y595306D01*
X242687Y595353D01*
X242777Y595397D01*
X242868Y595437D01*
X242961Y595473D01*
X243055Y595506D01*
X243151Y595535D01*
X243247Y595560D01*
X243344Y595581D01*
X243443Y595599D01*
X243541Y595612D01*
X243641Y595622D01*
X243740Y595628D01*
X243840Y595630D01*
X241300Y549910D02*
X241302Y549810D01*
X241308Y549711D01*
X241318Y549611D01*
X241331Y549513D01*
X241349Y549414D01*
X241370Y549317D01*
X241395Y549221D01*
X241424Y549125D01*
X241457Y549031D01*
X241493Y548938D01*
X241533Y548847D01*
X241577Y548757D01*
X241624Y548669D01*
X241674Y548583D01*
X241728Y548499D01*
X241785Y548417D01*
X241845Y548338D01*
X241909Y548260D01*
X241975Y548186D01*
X242044Y548114D01*
X242116Y548045D01*
X242190Y547979D01*
X242268Y547915D01*
X242347Y547855D01*
X242429Y547798D01*
X242513Y547744D01*
X242599Y547694D01*
X242687Y547647D01*
X242777Y547603D01*
X242868Y547563D01*
X242961Y547527D01*
X243055Y547494D01*
X243151Y547465D01*
X243247Y547440D01*
X243344Y547419D01*
X243443Y547401D01*
X243541Y547388D01*
X243641Y547378D01*
X243740Y547372D01*
X243840Y547370D01*
X266700Y593090D02*
X266698Y593190D01*
X266692Y593289D01*
X266682Y593389D01*
X266669Y593487D01*
X266651Y593586D01*
X266630Y593683D01*
X266605Y593779D01*
X266576Y593875D01*
X266543Y593969D01*
X266507Y594062D01*
X266467Y594153D01*
X266423Y594243D01*
X266376Y594331D01*
X266326Y594417D01*
X266272Y594501D01*
X266215Y594583D01*
X266155Y594662D01*
X266091Y594740D01*
X266025Y594814D01*
X265956Y594886D01*
X265884Y594955D01*
X265810Y595021D01*
X265732Y595085D01*
X265653Y595145D01*
X265571Y595202D01*
X265487Y595256D01*
X265401Y595306D01*
X265313Y595353D01*
X265223Y595397D01*
X265132Y595437D01*
X265039Y595473D01*
X264945Y595506D01*
X264849Y595535D01*
X264753Y595560D01*
X264656Y595581D01*
X264557Y595599D01*
X264459Y595612D01*
X264359Y595622D01*
X264260Y595628D01*
X264160Y595630D01*
X266700Y549910D02*
X266698Y549810D01*
X266692Y549711D01*
X266682Y549611D01*
X266669Y549513D01*
X266651Y549414D01*
X266630Y549317D01*
X266605Y549221D01*
X266576Y549125D01*
X266543Y549031D01*
X266507Y548938D01*
X266467Y548847D01*
X266423Y548757D01*
X266376Y548669D01*
X266326Y548583D01*
X266272Y548499D01*
X266215Y548417D01*
X266155Y548338D01*
X266091Y548260D01*
X266025Y548186D01*
X265956Y548114D01*
X265884Y548045D01*
X265810Y547979D01*
X265732Y547915D01*
X265653Y547855D01*
X265571Y547798D01*
X265487Y547744D01*
X265401Y547694D01*
X265313Y547647D01*
X265223Y547603D01*
X265132Y547563D01*
X265039Y547527D01*
X264945Y547494D01*
X264849Y547465D01*
X264753Y547440D01*
X264656Y547419D01*
X264557Y547401D01*
X264459Y547388D01*
X264359Y547378D01*
X264260Y547372D01*
X264160Y547370D01*
X254000Y574040D02*
X254000Y575310D01*
D13*
X254000Y574040D02*
X246380Y574040D01*
X254000Y574040D02*
X261620Y574040D01*
X254000Y568960D02*
X246380Y568960D01*
X254000Y568960D02*
X261620Y568960D01*
D12*
X254000Y568960D02*
X254000Y567690D01*
D14*
X0Y0D02*
X939800Y0D01*
X939800Y723900D01*
X0Y723900D01*
X0Y0D01*
D12*
X628650Y25400D02*
X641350Y25400D01*
X628650Y25400D02*
X622300Y31750D01*
X615950Y25400D01*
X603250Y25400D01*
X596900Y31750D01*
X641350Y25400D02*
X647700Y31750D01*
X596900Y31750D02*
X590550Y25400D01*
X577850Y25400D01*
X571500Y31750D01*
X565150Y25400D02*
X552450Y25400D01*
X546100Y31750D01*
X539750Y25400D01*
X527050Y25400D01*
X520700Y31750D01*
X565150Y25400D02*
X571500Y31750D01*
X520700Y31750D02*
X514350Y25400D01*
X501650Y25400D01*
X495300Y31750D01*
X622300Y69850D02*
X628650Y76200D01*
X603250Y76200D02*
X596900Y69850D01*
X603250Y76200D02*
X615950Y76200D01*
X622300Y69850D01*
X647700Y69850D02*
X647700Y31750D01*
X647700Y69850D02*
X641350Y76200D01*
X628650Y76200D01*
X577850Y76200D02*
X571500Y69850D01*
X577850Y76200D02*
X590550Y76200D01*
X596900Y69850D01*
X552450Y76200D02*
X546100Y69850D01*
X527050Y76200D02*
X520700Y69850D01*
X527050Y76200D02*
X539750Y76200D01*
X546100Y69850D01*
X565150Y76200D02*
X571500Y69850D01*
X565150Y76200D02*
X552450Y76200D01*
X501650Y76200D02*
X495300Y69850D01*
X501650Y76200D02*
X514350Y76200D01*
X520700Y69850D01*
X476250Y25400D02*
X469900Y31750D01*
X476250Y25400D02*
X488950Y25400D01*
X495300Y31750D01*
X495300Y69850D02*
X488950Y76200D01*
X476250Y76200D01*
X469900Y69850D01*
X463550Y25400D02*
X450850Y25400D01*
X444500Y31750D01*
X438150Y25400D01*
X425450Y25400D01*
X419100Y31750D01*
X463550Y25400D02*
X469900Y31750D01*
X419100Y31750D02*
X412750Y25400D01*
X400050Y25400D01*
X393700Y31750D01*
X387350Y25400D02*
X374650Y25400D01*
X368300Y31750D01*
X361950Y25400D01*
X349250Y25400D01*
X342900Y31750D01*
X387350Y25400D02*
X393700Y31750D01*
X342900Y31750D02*
X336550Y25400D01*
X323850Y25400D01*
X317500Y31750D01*
X444500Y69850D02*
X450850Y76200D01*
X425450Y76200D02*
X419100Y69850D01*
X425450Y76200D02*
X438150Y76200D01*
X444500Y69850D01*
X463550Y76200D02*
X469900Y69850D01*
X463550Y76200D02*
X450850Y76200D01*
X400050Y76200D02*
X393700Y69850D01*
X400050Y76200D02*
X412750Y76200D01*
X419100Y69850D01*
X374650Y76200D02*
X368300Y69850D01*
X349250Y76200D02*
X342900Y69850D01*
X349250Y76200D02*
X361950Y76200D01*
X368300Y69850D01*
X387350Y76200D02*
X393700Y69850D01*
X387350Y76200D02*
X374650Y76200D01*
X323850Y76200D02*
X317500Y69850D01*
X323850Y76200D02*
X336550Y76200D01*
X342900Y69850D01*
X298450Y25400D02*
X292100Y31750D01*
X298450Y25400D02*
X311150Y25400D01*
X317500Y31750D01*
X317500Y69850D02*
X311150Y76200D01*
X298450Y76200D01*
X292100Y69850D01*
X285750Y25400D02*
X273050Y25400D01*
X266700Y31750D01*
X260350Y25400D01*
X247650Y25400D01*
X241300Y31750D01*
X285750Y25400D02*
X292100Y31750D01*
X241300Y31750D02*
X234950Y25400D01*
X222250Y25400D01*
X215900Y31750D01*
X209550Y25400D02*
X196850Y25400D01*
X190500Y31750D01*
X209550Y25400D02*
X215900Y31750D01*
X266700Y69850D02*
X273050Y76200D01*
X247650Y76200D02*
X241300Y69850D01*
X247650Y76200D02*
X260350Y76200D01*
X266700Y69850D01*
X285750Y76200D02*
X292100Y69850D01*
X285750Y76200D02*
X273050Y76200D01*
X222250Y76200D02*
X215900Y69850D01*
X222250Y76200D02*
X234950Y76200D01*
X241300Y69850D01*
X196850Y76200D02*
X190500Y69850D01*
X209550Y76200D02*
X215900Y69850D01*
X209550Y76200D02*
X196850Y76200D01*
D15*
X635000Y63500D03*
D12*
X190500Y69850D02*
X190500Y31750D01*
D14*
X613253Y20965D02*
X613253Y11432D01*
X615160Y9525D01*
X618973Y9525D01*
X620880Y11432D01*
X620880Y20965D01*
X624947Y11432D02*
X626854Y9525D01*
X630667Y9525D01*
X632574Y11432D01*
X632574Y13338D01*
X630667Y15245D01*
X626854Y15245D01*
X624947Y17152D01*
X624947Y19058D01*
X626854Y20965D01*
X630667Y20965D01*
X632574Y19058D01*
X628760Y22871D02*
X628760Y7618D01*
X636641Y9525D02*
X644267Y9525D01*
X636641Y9525D02*
X644267Y17152D01*
X644267Y19058D01*
X642361Y20965D01*
X638548Y20965D01*
X636641Y19058D01*
D12*
X548640Y127000D02*
X546100Y129540D01*
X548640Y127000D02*
X546100Y124460D01*
X568960Y127000D02*
X571500Y129540D01*
X568960Y127000D02*
X571500Y124460D01*
X571500Y104140D01*
X568960Y101600D01*
X571500Y149860D02*
X568960Y152400D01*
X571500Y149860D02*
X571500Y129540D01*
X568960Y152400D02*
X548640Y152400D01*
X546100Y149860D01*
X546100Y129540D01*
X546100Y124460D02*
X546100Y104140D01*
X548640Y101600D01*
X568960Y101600D01*
D14*
X541655Y104142D02*
X539748Y102235D01*
X541655Y104142D02*
X541655Y106048D01*
X539748Y107955D01*
X530215Y107955D01*
X530215Y106048D02*
X530215Y109862D01*
X530215Y113929D02*
X541655Y113929D01*
X530215Y113929D02*
X530215Y119649D01*
X532122Y121555D01*
X535935Y121555D01*
X537842Y119649D01*
X537842Y113929D01*
X532122Y125623D02*
X530215Y127530D01*
X530215Y131343D01*
X532122Y133249D01*
X534029Y133249D01*
X535935Y131343D01*
X535935Y129436D01*
X535935Y131343D02*
X537842Y133249D01*
X539748Y133249D01*
X541655Y131343D01*
X541655Y127530D01*
X539748Y125623D01*
D10*
X578350Y102108D02*
X587502Y102108D01*
X581401Y105159D02*
X578350Y102108D01*
X581401Y105159D02*
X578350Y108209D01*
X587502Y108209D01*
X587502Y111463D02*
X578350Y111463D01*
X578350Y116039D01*
X579876Y117564D01*
X582926Y117564D01*
X584451Y116039D01*
X584451Y111463D01*
X578350Y125394D02*
X579876Y126920D01*
X578350Y125394D02*
X578350Y122344D01*
X579876Y120818D01*
X581401Y120818D01*
X582926Y122344D01*
X582926Y125394D01*
X584451Y126920D01*
X585977Y126920D01*
X587502Y125394D01*
X587502Y122344D01*
X585977Y120818D01*
X587502Y133224D02*
X578350Y133224D01*
X578350Y130174D02*
X578350Y136275D01*
D12*
X354330Y241300D02*
X354330Y294640D01*
X354330Y241300D02*
X354021Y241296D01*
X353712Y241285D01*
X353403Y241266D01*
X353095Y241240D01*
X352787Y241206D01*
X352481Y241165D01*
X352175Y241116D01*
X351871Y241060D01*
X351569Y240996D01*
X351268Y240925D01*
X350968Y240847D01*
X350671Y240762D01*
X350376Y240669D01*
X350083Y240569D01*
X349793Y240462D01*
X349506Y240348D01*
X349221Y240227D01*
X348939Y240099D01*
X348661Y239965D01*
X348386Y239823D01*
X348114Y239675D01*
X347847Y239520D01*
X347583Y239359D01*
X347323Y239192D01*
X347067Y239018D01*
X346815Y238838D01*
X346568Y238652D01*
X346326Y238460D01*
X346088Y238262D01*
X345855Y238059D01*
X345627Y237849D01*
X345405Y237635D01*
X345187Y237415D01*
X344975Y237189D01*
X344769Y236959D01*
X344568Y236724D01*
X344373Y236484D01*
X344184Y236239D01*
X344001Y235990D01*
X343824Y235736D01*
X343654Y235478D01*
X343489Y235216D01*
X343331Y234950D01*
X343180Y234680D01*
X343035Y234407D01*
X342897Y234130D01*
X342766Y233850D01*
X342642Y233567D01*
X342524Y233281D01*
X342414Y232992D01*
X342310Y232701D01*
X342214Y232407D01*
X342125Y232111D01*
X342043Y231812D01*
X341968Y231512D01*
X341901Y231210D01*
X341841Y230907D01*
X341789Y230602D01*
X341744Y230296D01*
X341706Y229989D01*
X341676Y229681D01*
X341654Y229373D01*
X341638Y229064D01*
X341631Y228755D01*
X341631Y228445D01*
X341638Y228136D01*
X341654Y227827D01*
X341676Y227519D01*
X341706Y227211D01*
X341744Y226904D01*
X341789Y226598D01*
X341841Y226293D01*
X341901Y225990D01*
X341968Y225688D01*
X342043Y225388D01*
X342125Y225089D01*
X342214Y224793D01*
X342310Y224499D01*
X342414Y224208D01*
X342524Y223919D01*
X342642Y223633D01*
X342766Y223350D01*
X342897Y223070D01*
X343035Y222793D01*
X343180Y222520D01*
X343331Y222250D01*
X343489Y221984D01*
X343654Y221722D01*
X343824Y221464D01*
X344001Y221210D01*
X344184Y220961D01*
X344373Y220716D01*
X344568Y220476D01*
X344769Y220241D01*
X344975Y220011D01*
X345187Y219785D01*
X345405Y219565D01*
X345627Y219351D01*
X345855Y219141D01*
X346088Y218938D01*
X346326Y218740D01*
X346568Y218548D01*
X346815Y218362D01*
X347067Y218182D01*
X347323Y218008D01*
X347583Y217841D01*
X347847Y217680D01*
X348114Y217525D01*
X348386Y217377D01*
X348661Y217235D01*
X348939Y217101D01*
X349221Y216973D01*
X349506Y216852D01*
X349793Y216738D01*
X350083Y216631D01*
X350376Y216531D01*
X350671Y216438D01*
X350968Y216353D01*
X351268Y216275D01*
X351569Y216204D01*
X351871Y216140D01*
X352175Y216084D01*
X352481Y216035D01*
X352787Y215994D01*
X353095Y215960D01*
X353403Y215934D01*
X353712Y215915D01*
X354021Y215904D01*
X354330Y215900D01*
X52070Y162560D02*
X52070Y294640D01*
X354330Y215900D02*
X354330Y162560D01*
X52070Y162560D01*
X52070Y294640D02*
X354330Y294640D01*
D16*
X360285Y260246D02*
X373632Y260246D01*
X376301Y262915D01*
X376301Y268254D01*
X373632Y270923D01*
X360285Y270923D01*
X360285Y276617D02*
X360285Y287295D01*
X362955Y287295D01*
X373632Y276617D01*
X376301Y276617D01*
X210138Y231276D02*
X210138Y220599D01*
X210138Y231276D02*
X215476Y236615D01*
X220815Y231276D01*
X220815Y220599D01*
X220815Y228607D02*
X210138Y228607D01*
X226509Y220599D02*
X226509Y236615D01*
X231848Y231276D01*
X237187Y236615D01*
X237187Y220599D01*
X242881Y223268D02*
X245550Y220599D01*
X250889Y220599D01*
X253558Y223268D01*
X253558Y233945D01*
X250889Y236615D01*
X245550Y236615D01*
X242881Y233945D01*
X242881Y231276D01*
X245550Y228607D01*
X253558Y228607D01*
X259253Y236615D02*
X269930Y236615D01*
X259253Y236615D02*
X259253Y228607D01*
X264591Y231276D01*
X267260Y231276D01*
X269930Y228607D01*
X269930Y223268D01*
X267260Y220599D01*
X261922Y220599D01*
X259253Y223268D01*
X275624Y231276D02*
X280963Y236615D01*
X280963Y220599D01*
X286301Y220599D02*
X275624Y220599D01*
X291996Y231276D02*
X297334Y236615D01*
X297334Y220599D01*
X291996Y220599D02*
X302673Y220599D01*
X308367Y220599D02*
X308367Y231276D01*
X313706Y236615D01*
X319044Y231276D01*
X319044Y220599D01*
X319044Y228607D02*
X308367Y228607D01*
D12*
X422910Y203200D02*
X466090Y203200D01*
X422910Y228600D02*
X419100Y224790D01*
X422910Y228600D02*
X419100Y232410D01*
X419100Y250190D01*
X422910Y254000D01*
X419100Y257810D01*
X419100Y275590D01*
X422910Y279400D01*
X466090Y279400D02*
X469900Y275590D01*
X469900Y257810D01*
X466090Y254000D01*
X469900Y250190D01*
X469900Y232410D01*
X466090Y228600D01*
X469900Y224790D01*
X466090Y304800D02*
X422910Y304800D01*
X419100Y283210D02*
X422910Y279400D01*
X419100Y283210D02*
X419100Y300990D01*
X422910Y304800D01*
X466090Y279400D02*
X469900Y283210D01*
X469900Y300990D01*
X466090Y304800D01*
X419100Y207010D02*
X422910Y203200D01*
X419100Y207010D02*
X419100Y224790D01*
X466090Y203200D02*
X469900Y207010D01*
X469900Y224790D01*
D14*
X474335Y215268D02*
X478149Y211455D01*
X474335Y215268D02*
X485775Y215268D01*
X485775Y211455D02*
X485775Y219082D01*
X485775Y236855D02*
X485775Y244482D01*
X478149Y244482D02*
X485775Y236855D01*
X478149Y244482D02*
X476242Y244482D01*
X474335Y242575D01*
X474335Y238762D01*
X476242Y236855D01*
X476242Y262255D02*
X474335Y264162D01*
X474335Y267975D01*
X476242Y269882D01*
X478149Y269882D01*
X480055Y267975D01*
X480055Y266068D01*
X480055Y267975D02*
X481962Y269882D01*
X483868Y269882D01*
X485775Y267975D01*
X485775Y264162D01*
X483868Y262255D01*
X485775Y293375D02*
X474335Y293375D01*
X480055Y287655D01*
X480055Y295282D01*
X421642Y310515D02*
X419735Y312422D01*
X421642Y310515D02*
X423548Y310515D01*
X425455Y312422D01*
X425455Y321955D01*
X423548Y321955D02*
X427362Y321955D01*
X431429Y321955D02*
X431429Y310515D01*
X431429Y321955D02*
X437149Y321955D01*
X439055Y320048D01*
X439055Y316235D01*
X437149Y314328D01*
X431429Y314328D01*
X443123Y318142D02*
X446936Y321955D01*
X446936Y310515D01*
X443123Y310515D02*
X450749Y310515D01*
D12*
X546100Y477520D02*
X546102Y477620D01*
X546108Y477719D01*
X546118Y477819D01*
X546131Y477917D01*
X546149Y478016D01*
X546170Y478113D01*
X546195Y478209D01*
X546224Y478305D01*
X546257Y478399D01*
X546293Y478492D01*
X546333Y478583D01*
X546377Y478673D01*
X546424Y478761D01*
X546474Y478847D01*
X546528Y478931D01*
X546585Y479013D01*
X546645Y479092D01*
X546709Y479170D01*
X546775Y479244D01*
X546844Y479316D01*
X546916Y479385D01*
X546990Y479451D01*
X547068Y479515D01*
X547147Y479575D01*
X547229Y479632D01*
X547313Y479686D01*
X547399Y479736D01*
X547487Y479783D01*
X547577Y479827D01*
X547668Y479867D01*
X547761Y479903D01*
X547855Y479936D01*
X547951Y479965D01*
X548047Y479990D01*
X548144Y480011D01*
X548243Y480029D01*
X548341Y480042D01*
X548441Y480052D01*
X548540Y480058D01*
X548640Y480060D01*
X546100Y462280D02*
X546102Y462180D01*
X546108Y462081D01*
X546118Y461981D01*
X546131Y461883D01*
X546149Y461784D01*
X546170Y461687D01*
X546195Y461591D01*
X546224Y461495D01*
X546257Y461401D01*
X546293Y461308D01*
X546333Y461217D01*
X546377Y461127D01*
X546424Y461039D01*
X546474Y460953D01*
X546528Y460869D01*
X546585Y460787D01*
X546645Y460708D01*
X546709Y460630D01*
X546775Y460556D01*
X546844Y460484D01*
X546916Y460415D01*
X546990Y460349D01*
X547068Y460285D01*
X547147Y460225D01*
X547229Y460168D01*
X547313Y460114D01*
X547399Y460064D01*
X547487Y460017D01*
X547577Y459973D01*
X547668Y459933D01*
X547761Y459897D01*
X547855Y459864D01*
X547951Y459835D01*
X548047Y459810D01*
X548144Y459789D01*
X548243Y459771D01*
X548341Y459758D01*
X548441Y459748D01*
X548540Y459742D01*
X548640Y459740D01*
X594360Y459740D02*
X594460Y459742D01*
X594559Y459748D01*
X594659Y459758D01*
X594757Y459771D01*
X594856Y459789D01*
X594953Y459810D01*
X595049Y459835D01*
X595145Y459864D01*
X595239Y459897D01*
X595332Y459933D01*
X595423Y459973D01*
X595513Y460017D01*
X595601Y460064D01*
X595687Y460114D01*
X595771Y460168D01*
X595853Y460225D01*
X595932Y460285D01*
X596010Y460349D01*
X596084Y460415D01*
X596156Y460484D01*
X596225Y460556D01*
X596291Y460630D01*
X596355Y460708D01*
X596415Y460787D01*
X596472Y460869D01*
X596526Y460953D01*
X596576Y461039D01*
X596623Y461127D01*
X596667Y461217D01*
X596707Y461308D01*
X596743Y461401D01*
X596776Y461495D01*
X596805Y461591D01*
X596830Y461687D01*
X596851Y461784D01*
X596869Y461883D01*
X596882Y461981D01*
X596892Y462081D01*
X596898Y462180D01*
X596900Y462280D01*
X596900Y477520D02*
X596898Y477620D01*
X596892Y477719D01*
X596882Y477819D01*
X596869Y477917D01*
X596851Y478016D01*
X596830Y478113D01*
X596805Y478209D01*
X596776Y478305D01*
X596743Y478399D01*
X596707Y478492D01*
X596667Y478583D01*
X596623Y478673D01*
X596576Y478761D01*
X596526Y478847D01*
X596472Y478931D01*
X596415Y479013D01*
X596355Y479092D01*
X596291Y479170D01*
X596225Y479244D01*
X596156Y479316D01*
X596084Y479385D01*
X596010Y479451D01*
X595932Y479515D01*
X595853Y479575D01*
X595771Y479632D01*
X595687Y479686D01*
X595601Y479736D01*
X595513Y479783D01*
X595423Y479827D01*
X595332Y479867D01*
X595239Y479903D01*
X595145Y479936D01*
X595049Y479965D01*
X594953Y479990D01*
X594856Y480011D01*
X594757Y480029D01*
X594659Y480042D01*
X594559Y480052D01*
X594460Y480058D01*
X594360Y480060D01*
X546100Y477520D02*
X546100Y462280D01*
X548640Y480060D02*
X552450Y480060D01*
X553720Y478790D01*
X552450Y459740D02*
X548640Y459740D01*
X552450Y459740D02*
X553720Y461010D01*
X589280Y478790D02*
X590550Y480060D01*
X589280Y478790D02*
X553720Y478790D01*
X589280Y461010D02*
X590550Y459740D01*
X589280Y461010D02*
X553720Y461010D01*
X590550Y480060D02*
X594360Y480060D01*
X594360Y459740D02*
X590550Y459740D01*
X596900Y462280D02*
X596900Y477520D01*
D17*
X598805Y469900D03*
X544195Y469900D03*
D11*
X582041Y472827D02*
X582041Y465455D01*
X582041Y472827D02*
X585727Y472827D01*
X586956Y471599D01*
X586956Y469141D01*
X585727Y467912D01*
X582041Y467912D01*
X584498Y467912D02*
X586956Y465455D01*
X589525Y470370D02*
X591983Y472827D01*
X591983Y465455D01*
X594440Y465455D02*
X589525Y465455D01*
X558082Y472827D02*
X555625Y470370D01*
X558082Y472827D02*
X558082Y465455D01*
X555625Y465455D02*
X560540Y465455D01*
X563109Y466684D02*
X563109Y471599D01*
X564338Y472827D01*
X566795Y472827D01*
X568024Y471599D01*
X568024Y466684D01*
X566795Y465455D01*
X564338Y465455D01*
X563109Y466684D01*
X568024Y471599D01*
X570593Y472827D02*
X570593Y465455D01*
X570593Y467912D02*
X575508Y472827D01*
X571822Y469141D02*
X575508Y465455D01*
D12*
X548640Y441960D02*
X548540Y441958D01*
X548441Y441952D01*
X548341Y441942D01*
X548243Y441929D01*
X548144Y441911D01*
X548047Y441890D01*
X547951Y441865D01*
X547855Y441836D01*
X547761Y441803D01*
X547668Y441767D01*
X547577Y441727D01*
X547487Y441683D01*
X547399Y441636D01*
X547313Y441586D01*
X547229Y441532D01*
X547147Y441475D01*
X547068Y441415D01*
X546990Y441351D01*
X546916Y441285D01*
X546844Y441216D01*
X546775Y441144D01*
X546709Y441070D01*
X546645Y440992D01*
X546585Y440913D01*
X546528Y440831D01*
X546474Y440747D01*
X546424Y440661D01*
X546377Y440573D01*
X546333Y440483D01*
X546293Y440392D01*
X546257Y440299D01*
X546224Y440205D01*
X546195Y440109D01*
X546170Y440013D01*
X546149Y439916D01*
X546131Y439817D01*
X546118Y439719D01*
X546108Y439619D01*
X546102Y439520D01*
X546100Y439420D01*
X546100Y424180D02*
X546102Y424080D01*
X546108Y423981D01*
X546118Y423881D01*
X546131Y423783D01*
X546149Y423684D01*
X546170Y423587D01*
X546195Y423491D01*
X546224Y423395D01*
X546257Y423301D01*
X546293Y423208D01*
X546333Y423117D01*
X546377Y423027D01*
X546424Y422939D01*
X546474Y422853D01*
X546528Y422769D01*
X546585Y422687D01*
X546645Y422608D01*
X546709Y422530D01*
X546775Y422456D01*
X546844Y422384D01*
X546916Y422315D01*
X546990Y422249D01*
X547068Y422185D01*
X547147Y422125D01*
X547229Y422068D01*
X547313Y422014D01*
X547399Y421964D01*
X547487Y421917D01*
X547577Y421873D01*
X547668Y421833D01*
X547761Y421797D01*
X547855Y421764D01*
X547951Y421735D01*
X548047Y421710D01*
X548144Y421689D01*
X548243Y421671D01*
X548341Y421658D01*
X548441Y421648D01*
X548540Y421642D01*
X548640Y421640D01*
X594360Y421640D02*
X594460Y421642D01*
X594559Y421648D01*
X594659Y421658D01*
X594757Y421671D01*
X594856Y421689D01*
X594953Y421710D01*
X595049Y421735D01*
X595145Y421764D01*
X595239Y421797D01*
X595332Y421833D01*
X595423Y421873D01*
X595513Y421917D01*
X595601Y421964D01*
X595687Y422014D01*
X595771Y422068D01*
X595853Y422125D01*
X595932Y422185D01*
X596010Y422249D01*
X596084Y422315D01*
X596156Y422384D01*
X596225Y422456D01*
X596291Y422530D01*
X596355Y422608D01*
X596415Y422687D01*
X596472Y422769D01*
X596526Y422853D01*
X596576Y422939D01*
X596623Y423027D01*
X596667Y423117D01*
X596707Y423208D01*
X596743Y423301D01*
X596776Y423395D01*
X596805Y423491D01*
X596830Y423587D01*
X596851Y423684D01*
X596869Y423783D01*
X596882Y423881D01*
X596892Y423981D01*
X596898Y424080D01*
X596900Y424180D01*
X596900Y439420D02*
X596898Y439520D01*
X596892Y439619D01*
X596882Y439719D01*
X596869Y439817D01*
X596851Y439916D01*
X596830Y440013D01*
X596805Y440109D01*
X596776Y440205D01*
X596743Y440299D01*
X596707Y440392D01*
X596667Y440483D01*
X596623Y440573D01*
X596576Y440661D01*
X596526Y440747D01*
X596472Y440831D01*
X596415Y440913D01*
X596355Y440992D01*
X596291Y441070D01*
X596225Y441144D01*
X596156Y441216D01*
X596084Y441285D01*
X596010Y441351D01*
X595932Y441415D01*
X595853Y441475D01*
X595771Y441532D01*
X595687Y441586D01*
X595601Y441636D01*
X595513Y441683D01*
X595423Y441727D01*
X595332Y441767D01*
X595239Y441803D01*
X595145Y441836D01*
X595049Y441865D01*
X594953Y441890D01*
X594856Y441911D01*
X594757Y441929D01*
X594659Y441942D01*
X594559Y441952D01*
X594460Y441958D01*
X594360Y441960D01*
X546100Y439420D02*
X546100Y424180D01*
X548640Y441960D02*
X552450Y441960D01*
X553720Y440690D01*
X552450Y421640D02*
X548640Y421640D01*
X552450Y421640D02*
X553720Y422910D01*
X589280Y440690D02*
X590550Y441960D01*
X589280Y440690D02*
X553720Y440690D01*
X589280Y422910D02*
X590550Y421640D01*
X589280Y422910D02*
X553720Y422910D01*
X590550Y441960D02*
X594360Y441960D01*
X594360Y421640D02*
X590550Y421640D01*
X596900Y424180D02*
X596900Y439420D01*
D17*
X598805Y431800D03*
X544195Y431800D03*
D11*
X582041Y429895D02*
X582041Y437267D01*
X585727Y437267D01*
X586956Y436039D01*
X586956Y433581D01*
X585727Y432352D01*
X582041Y432352D01*
X584498Y432352D02*
X586956Y429895D01*
X589525Y429895D02*
X594440Y429895D01*
X589525Y429895D02*
X594440Y434810D01*
X594440Y436039D01*
X593211Y437267D01*
X590754Y437267D01*
X589525Y436039D01*
X558082Y434727D02*
X555625Y432270D01*
X558082Y434727D02*
X558082Y427355D01*
X555625Y427355D02*
X560540Y427355D01*
X563109Y427355D02*
X563109Y434727D01*
X563109Y429812D02*
X568024Y434727D01*
X564338Y431041D02*
X568024Y427355D01*
D12*
X469900Y415290D02*
X292100Y415290D01*
X292100Y473710D02*
X469900Y473710D01*
X292100Y473710D02*
X292100Y415290D01*
X469900Y415290D02*
X469900Y434340D01*
X469900Y454660D02*
X469900Y473710D01*
X469900Y454660D02*
X469653Y454657D01*
X469405Y454648D01*
X469158Y454633D01*
X468912Y454612D01*
X468666Y454585D01*
X468421Y454552D01*
X468176Y454513D01*
X467933Y454468D01*
X467691Y454417D01*
X467450Y454360D01*
X467211Y454298D01*
X466973Y454229D01*
X466737Y454155D01*
X466503Y454075D01*
X466271Y453990D01*
X466041Y453898D01*
X465813Y453802D01*
X465588Y453699D01*
X465365Y453592D01*
X465145Y453478D01*
X464928Y453360D01*
X464713Y453236D01*
X464502Y453107D01*
X464294Y452973D01*
X464089Y452834D01*
X463888Y452690D01*
X463690Y452542D01*
X463496Y452388D01*
X463306Y452230D01*
X463120Y452067D01*
X462938Y451900D01*
X462760Y451728D01*
X462586Y451552D01*
X462416Y451372D01*
X462251Y451187D01*
X462091Y450999D01*
X461935Y450807D01*
X461783Y450611D01*
X461637Y450412D01*
X461495Y450209D01*
X461359Y450002D01*
X461227Y449793D01*
X461101Y449580D01*
X460980Y449364D01*
X460864Y449146D01*
X460754Y448924D01*
X460649Y448700D01*
X460549Y448474D01*
X460455Y448245D01*
X460367Y448014D01*
X460284Y447780D01*
X460207Y447545D01*
X460136Y447308D01*
X460070Y447070D01*
X460011Y446830D01*
X459957Y446588D01*
X459909Y446345D01*
X459867Y446102D01*
X459831Y445857D01*
X459801Y445611D01*
X459777Y445365D01*
X459759Y445118D01*
X459747Y444871D01*
X459741Y444624D01*
X459741Y444376D01*
X459747Y444129D01*
X459759Y443882D01*
X459777Y443635D01*
X459801Y443389D01*
X459831Y443143D01*
X459867Y442898D01*
X459909Y442655D01*
X459957Y442412D01*
X460011Y442170D01*
X460070Y441930D01*
X460136Y441692D01*
X460207Y441455D01*
X460284Y441220D01*
X460367Y440986D01*
X460455Y440755D01*
X460549Y440526D01*
X460649Y440300D01*
X460754Y440076D01*
X460864Y439854D01*
X460980Y439636D01*
X461101Y439420D01*
X461227Y439207D01*
X461359Y438998D01*
X461495Y438791D01*
X461637Y438588D01*
X461783Y438389D01*
X461935Y438193D01*
X462091Y438001D01*
X462251Y437813D01*
X462416Y437628D01*
X462586Y437448D01*
X462760Y437272D01*
X462938Y437100D01*
X463120Y436933D01*
X463306Y436770D01*
X463496Y436612D01*
X463690Y436458D01*
X463888Y436310D01*
X464089Y436166D01*
X464294Y436027D01*
X464502Y435893D01*
X464713Y435764D01*
X464928Y435640D01*
X465145Y435522D01*
X465365Y435408D01*
X465588Y435301D01*
X465813Y435198D01*
X466041Y435102D01*
X466271Y435010D01*
X466503Y434925D01*
X466737Y434845D01*
X466973Y434771D01*
X467211Y434702D01*
X467450Y434640D01*
X467691Y434583D01*
X467933Y434532D01*
X468176Y434487D01*
X468421Y434448D01*
X468666Y434415D01*
X468912Y434388D01*
X469158Y434367D01*
X469405Y434352D01*
X469653Y434343D01*
X469900Y434340D01*
D14*
X474335Y452227D02*
X483868Y452227D01*
X485775Y454134D01*
X485775Y457947D01*
X483868Y459854D01*
X474335Y459854D01*
X474335Y463921D02*
X474335Y471548D01*
X474335Y463921D02*
X480055Y463921D01*
X478149Y467734D01*
X478149Y469641D01*
X480055Y471548D01*
X483868Y471548D01*
X485775Y469641D01*
X485775Y465828D01*
X483868Y463921D01*
X374714Y450225D02*
X367087Y450225D01*
X374714Y450225D02*
X374714Y448318D01*
X367087Y440692D01*
X367087Y438785D01*
X384501Y438785D02*
X384501Y450225D01*
X378781Y444505D01*
X386408Y444505D01*
X390475Y450225D02*
X390475Y438785D01*
X398102Y438785D01*
X407889Y450225D02*
X409795Y448318D01*
X407889Y450225D02*
X404076Y450225D01*
X402169Y448318D01*
X402169Y446412D01*
X404076Y444505D01*
X407889Y444505D01*
X409795Y442598D01*
X409795Y440692D01*
X407889Y438785D01*
X404076Y438785D01*
X402169Y440692D01*
X413863Y448318D02*
X415770Y450225D01*
X419583Y450225D01*
X421489Y448318D01*
X421489Y446412D01*
X419583Y444505D01*
X417676Y444505D01*
X419583Y444505D02*
X421489Y442598D01*
X421489Y440692D01*
X419583Y438785D01*
X415770Y438785D01*
X413863Y440692D01*
X425557Y438785D02*
X433183Y438785D01*
X425557Y438785D02*
X433183Y446412D01*
X433183Y448318D01*
X431277Y450225D01*
X427464Y450225D01*
X425557Y448318D01*
X437251Y450225D02*
X437251Y438785D01*
X444877Y438785D02*
X437251Y450225D01*
X444877Y450225D02*
X444877Y438785D01*
D12*
X215900Y415290D02*
X38100Y415290D01*
X38100Y473710D02*
X215900Y473710D01*
X38100Y473710D02*
X38100Y415290D01*
X215900Y415290D02*
X215900Y434340D01*
X215900Y454660D02*
X215900Y473710D01*
X215900Y454660D02*
X215653Y454657D01*
X215405Y454648D01*
X215158Y454633D01*
X214912Y454612D01*
X214666Y454585D01*
X214421Y454552D01*
X214176Y454513D01*
X213933Y454468D01*
X213691Y454417D01*
X213450Y454360D01*
X213211Y454298D01*
X212973Y454229D01*
X212737Y454155D01*
X212503Y454075D01*
X212271Y453990D01*
X212041Y453898D01*
X211813Y453802D01*
X211588Y453699D01*
X211365Y453592D01*
X211145Y453478D01*
X210928Y453360D01*
X210713Y453236D01*
X210502Y453107D01*
X210294Y452973D01*
X210089Y452834D01*
X209888Y452690D01*
X209690Y452542D01*
X209496Y452388D01*
X209306Y452230D01*
X209120Y452067D01*
X208938Y451900D01*
X208760Y451728D01*
X208586Y451552D01*
X208416Y451372D01*
X208251Y451187D01*
X208091Y450999D01*
X207935Y450807D01*
X207783Y450611D01*
X207637Y450412D01*
X207495Y450209D01*
X207359Y450002D01*
X207227Y449793D01*
X207101Y449580D01*
X206980Y449364D01*
X206864Y449146D01*
X206754Y448924D01*
X206649Y448700D01*
X206549Y448474D01*
X206455Y448245D01*
X206367Y448014D01*
X206284Y447780D01*
X206207Y447545D01*
X206136Y447308D01*
X206070Y447070D01*
X206011Y446830D01*
X205957Y446588D01*
X205909Y446345D01*
X205867Y446102D01*
X205831Y445857D01*
X205801Y445611D01*
X205777Y445365D01*
X205759Y445118D01*
X205747Y444871D01*
X205741Y444624D01*
X205741Y444376D01*
X205747Y444129D01*
X205759Y443882D01*
X205777Y443635D01*
X205801Y443389D01*
X205831Y443143D01*
X205867Y442898D01*
X205909Y442655D01*
X205957Y442412D01*
X206011Y442170D01*
X206070Y441930D01*
X206136Y441692D01*
X206207Y441455D01*
X206284Y441220D01*
X206367Y440986D01*
X206455Y440755D01*
X206549Y440526D01*
X206649Y440300D01*
X206754Y440076D01*
X206864Y439854D01*
X206980Y439636D01*
X207101Y439420D01*
X207227Y439207D01*
X207359Y438998D01*
X207495Y438791D01*
X207637Y438588D01*
X207783Y438389D01*
X207935Y438193D01*
X208091Y438001D01*
X208251Y437813D01*
X208416Y437628D01*
X208586Y437448D01*
X208760Y437272D01*
X208938Y437100D01*
X209120Y436933D01*
X209306Y436770D01*
X209496Y436612D01*
X209690Y436458D01*
X209888Y436310D01*
X210089Y436166D01*
X210294Y436027D01*
X210502Y435893D01*
X210713Y435764D01*
X210928Y435640D01*
X211145Y435522D01*
X211365Y435408D01*
X211588Y435301D01*
X211813Y435198D01*
X212041Y435102D01*
X212271Y435010D01*
X212503Y434925D01*
X212737Y434845D01*
X212973Y434771D01*
X213211Y434702D01*
X213450Y434640D01*
X213691Y434583D01*
X213933Y434532D01*
X214176Y434487D01*
X214421Y434448D01*
X214666Y434415D01*
X214912Y434388D01*
X215158Y434367D01*
X215405Y434352D01*
X215653Y434343D01*
X215900Y434340D01*
D14*
X220335Y452227D02*
X229868Y452227D01*
X231775Y454134D01*
X231775Y457947D01*
X229868Y459854D01*
X220335Y459854D01*
X220335Y469641D02*
X231775Y469641D01*
X226055Y463921D02*
X220335Y469641D01*
X226055Y471548D02*
X226055Y463921D01*
X120714Y450225D02*
X113087Y450225D01*
X120714Y450225D02*
X120714Y448318D01*
X113087Y440692D01*
X113087Y438785D01*
X130501Y438785D02*
X130501Y450225D01*
X124781Y444505D01*
X132408Y444505D01*
X136475Y450225D02*
X136475Y438785D01*
X144102Y438785D01*
X153889Y450225D02*
X155795Y448318D01*
X153889Y450225D02*
X150076Y450225D01*
X148169Y448318D01*
X148169Y446412D01*
X150076Y444505D01*
X153889Y444505D01*
X155795Y442598D01*
X155795Y440692D01*
X153889Y438785D01*
X150076Y438785D01*
X148169Y440692D01*
X159863Y440692D02*
X159863Y448318D01*
X161770Y450225D01*
X165583Y450225D01*
X167489Y448318D01*
X167489Y440692D01*
X165583Y438785D01*
X161770Y438785D01*
X159863Y440692D01*
X167489Y448318D01*
X171557Y448318D02*
X171557Y440692D01*
X171557Y448318D02*
X173464Y450225D01*
X177277Y450225D01*
X179183Y448318D01*
X179183Y440692D01*
X177277Y438785D01*
X173464Y438785D01*
X171557Y440692D01*
X179183Y448318D01*
X183251Y450225D02*
X183251Y438785D01*
X190877Y438785D02*
X183251Y450225D01*
X190877Y450225D02*
X190877Y438785D01*
D12*
X292100Y567690D02*
X469900Y567690D01*
X469900Y626110D02*
X292100Y626110D01*
X292100Y567690D01*
X469900Y567690D02*
X469900Y586740D01*
X469900Y607060D02*
X469900Y626110D01*
X469900Y607060D02*
X469653Y607057D01*
X469405Y607048D01*
X469158Y607033D01*
X468912Y607012D01*
X468666Y606985D01*
X468421Y606952D01*
X468176Y606913D01*
X467933Y606868D01*
X467691Y606817D01*
X467450Y606760D01*
X467211Y606698D01*
X466973Y606629D01*
X466737Y606555D01*
X466503Y606475D01*
X466271Y606390D01*
X466041Y606298D01*
X465813Y606202D01*
X465588Y606099D01*
X465365Y605992D01*
X465145Y605878D01*
X464928Y605760D01*
X464713Y605636D01*
X464502Y605507D01*
X464294Y605373D01*
X464089Y605234D01*
X463888Y605090D01*
X463690Y604942D01*
X463496Y604788D01*
X463306Y604630D01*
X463120Y604467D01*
X462938Y604300D01*
X462760Y604128D01*
X462586Y603952D01*
X462416Y603772D01*
X462251Y603587D01*
X462091Y603399D01*
X461935Y603207D01*
X461783Y603011D01*
X461637Y602812D01*
X461495Y602609D01*
X461359Y602402D01*
X461227Y602193D01*
X461101Y601980D01*
X460980Y601764D01*
X460864Y601546D01*
X460754Y601324D01*
X460649Y601100D01*
X460549Y600874D01*
X460455Y600645D01*
X460367Y600414D01*
X460284Y600180D01*
X460207Y599945D01*
X460136Y599708D01*
X460070Y599470D01*
X460011Y599230D01*
X459957Y598988D01*
X459909Y598745D01*
X459867Y598502D01*
X459831Y598257D01*
X459801Y598011D01*
X459777Y597765D01*
X459759Y597518D01*
X459747Y597271D01*
X459741Y597024D01*
X459741Y596776D01*
X459747Y596529D01*
X459759Y596282D01*
X459777Y596035D01*
X459801Y595789D01*
X459831Y595543D01*
X459867Y595298D01*
X459909Y595055D01*
X459957Y594812D01*
X460011Y594570D01*
X460070Y594330D01*
X460136Y594092D01*
X460207Y593855D01*
X460284Y593620D01*
X460367Y593386D01*
X460455Y593155D01*
X460549Y592926D01*
X460649Y592700D01*
X460754Y592476D01*
X460864Y592254D01*
X460980Y592036D01*
X461101Y591820D01*
X461227Y591607D01*
X461359Y591398D01*
X461495Y591191D01*
X461637Y590988D01*
X461783Y590789D01*
X461935Y590593D01*
X462091Y590401D01*
X462251Y590213D01*
X462416Y590028D01*
X462586Y589848D01*
X462760Y589672D01*
X462938Y589500D01*
X463120Y589333D01*
X463306Y589170D01*
X463496Y589012D01*
X463690Y588858D01*
X463888Y588710D01*
X464089Y588566D01*
X464294Y588427D01*
X464502Y588293D01*
X464713Y588164D01*
X464928Y588040D01*
X465145Y587922D01*
X465365Y587808D01*
X465588Y587701D01*
X465813Y587598D01*
X466041Y587502D01*
X466271Y587410D01*
X466503Y587325D01*
X466737Y587245D01*
X466973Y587171D01*
X467211Y587102D01*
X467450Y587040D01*
X467691Y586983D01*
X467933Y586932D01*
X468176Y586887D01*
X468421Y586848D01*
X468666Y586815D01*
X468912Y586788D01*
X469158Y586767D01*
X469405Y586752D01*
X469653Y586743D01*
X469900Y586740D01*
D14*
X474335Y604627D02*
X483868Y604627D01*
X485775Y606534D01*
X485775Y610347D01*
X483868Y612254D01*
X474335Y612254D01*
X485775Y616321D02*
X485775Y623948D01*
X478149Y623948D02*
X485775Y616321D01*
X478149Y623948D02*
X476242Y623948D01*
X474335Y622041D01*
X474335Y618228D01*
X476242Y616321D01*
X350320Y602625D02*
X342693Y602625D01*
X350320Y602625D02*
X350320Y600718D01*
X342693Y593092D01*
X342693Y591185D01*
X360107Y591185D02*
X360107Y602625D01*
X354387Y596905D01*
X362014Y596905D01*
X366081Y602625D02*
X366081Y591185D01*
X373708Y591185D01*
X383495Y602625D02*
X385401Y600718D01*
X383495Y602625D02*
X379682Y602625D01*
X377775Y600718D01*
X377775Y598812D01*
X379682Y596905D01*
X383495Y596905D01*
X385401Y594998D01*
X385401Y593092D01*
X383495Y591185D01*
X379682Y591185D01*
X377775Y593092D01*
X389469Y598812D02*
X393282Y602625D01*
X393282Y591185D01*
X389469Y591185D02*
X397095Y591185D01*
X404976Y600718D02*
X408789Y602625D01*
X404976Y600718D02*
X401163Y596905D01*
X401163Y593092D01*
X403070Y591185D01*
X406883Y591185D01*
X408789Y593092D01*
X408789Y594998D01*
X406883Y596905D01*
X401163Y596905D01*
X418577Y591185D02*
X418577Y602625D01*
X412857Y596905D01*
X420483Y596905D01*
X424551Y591185D02*
X424551Y602625D01*
X432177Y591185D01*
X432177Y602625D01*
D12*
X548640Y403860D02*
X548540Y403858D01*
X548441Y403852D01*
X548341Y403842D01*
X548243Y403829D01*
X548144Y403811D01*
X548047Y403790D01*
X547951Y403765D01*
X547855Y403736D01*
X547761Y403703D01*
X547668Y403667D01*
X547577Y403627D01*
X547487Y403583D01*
X547399Y403536D01*
X547313Y403486D01*
X547229Y403432D01*
X547147Y403375D01*
X547068Y403315D01*
X546990Y403251D01*
X546916Y403185D01*
X546844Y403116D01*
X546775Y403044D01*
X546709Y402970D01*
X546645Y402892D01*
X546585Y402813D01*
X546528Y402731D01*
X546474Y402647D01*
X546424Y402561D01*
X546377Y402473D01*
X546333Y402383D01*
X546293Y402292D01*
X546257Y402199D01*
X546224Y402105D01*
X546195Y402009D01*
X546170Y401913D01*
X546149Y401816D01*
X546131Y401717D01*
X546118Y401619D01*
X546108Y401519D01*
X546102Y401420D01*
X546100Y401320D01*
X546100Y386080D02*
X546102Y385980D01*
X546108Y385881D01*
X546118Y385781D01*
X546131Y385683D01*
X546149Y385584D01*
X546170Y385487D01*
X546195Y385391D01*
X546224Y385295D01*
X546257Y385201D01*
X546293Y385108D01*
X546333Y385017D01*
X546377Y384927D01*
X546424Y384839D01*
X546474Y384753D01*
X546528Y384669D01*
X546585Y384587D01*
X546645Y384508D01*
X546709Y384430D01*
X546775Y384356D01*
X546844Y384284D01*
X546916Y384215D01*
X546990Y384149D01*
X547068Y384085D01*
X547147Y384025D01*
X547229Y383968D01*
X547313Y383914D01*
X547399Y383864D01*
X547487Y383817D01*
X547577Y383773D01*
X547668Y383733D01*
X547761Y383697D01*
X547855Y383664D01*
X547951Y383635D01*
X548047Y383610D01*
X548144Y383589D01*
X548243Y383571D01*
X548341Y383558D01*
X548441Y383548D01*
X548540Y383542D01*
X548640Y383540D01*
X594360Y383540D02*
X594460Y383542D01*
X594559Y383548D01*
X594659Y383558D01*
X594757Y383571D01*
X594856Y383589D01*
X594953Y383610D01*
X595049Y383635D01*
X595145Y383664D01*
X595239Y383697D01*
X595332Y383733D01*
X595423Y383773D01*
X595513Y383817D01*
X595601Y383864D01*
X595687Y383914D01*
X595771Y383968D01*
X595853Y384025D01*
X595932Y384085D01*
X596010Y384149D01*
X596084Y384215D01*
X596156Y384284D01*
X596225Y384356D01*
X596291Y384430D01*
X596355Y384508D01*
X596415Y384587D01*
X596472Y384669D01*
X596526Y384753D01*
X596576Y384839D01*
X596623Y384927D01*
X596667Y385017D01*
X596707Y385108D01*
X596743Y385201D01*
X596776Y385295D01*
X596805Y385391D01*
X596830Y385487D01*
X596851Y385584D01*
X596869Y385683D01*
X596882Y385781D01*
X596892Y385881D01*
X596898Y385980D01*
X596900Y386080D01*
X596900Y401320D02*
X596898Y401420D01*
X596892Y401519D01*
X596882Y401619D01*
X596869Y401717D01*
X596851Y401816D01*
X596830Y401913D01*
X596805Y402009D01*
X596776Y402105D01*
X596743Y402199D01*
X596707Y402292D01*
X596667Y402383D01*
X596623Y402473D01*
X596576Y402561D01*
X596526Y402647D01*
X596472Y402731D01*
X596415Y402813D01*
X596355Y402892D01*
X596291Y402970D01*
X596225Y403044D01*
X596156Y403116D01*
X596084Y403185D01*
X596010Y403251D01*
X595932Y403315D01*
X595853Y403375D01*
X595771Y403432D01*
X595687Y403486D01*
X595601Y403536D01*
X595513Y403583D01*
X595423Y403627D01*
X595332Y403667D01*
X595239Y403703D01*
X595145Y403736D01*
X595049Y403765D01*
X594953Y403790D01*
X594856Y403811D01*
X594757Y403829D01*
X594659Y403842D01*
X594559Y403852D01*
X594460Y403858D01*
X594360Y403860D01*
X546100Y401320D02*
X546100Y386080D01*
X548640Y403860D02*
X552450Y403860D01*
X553720Y402590D01*
X552450Y383540D02*
X548640Y383540D01*
X552450Y383540D02*
X553720Y384810D01*
X589280Y402590D02*
X590550Y403860D01*
X589280Y402590D02*
X553720Y402590D01*
X589280Y384810D02*
X590550Y383540D01*
X589280Y384810D02*
X553720Y384810D01*
X590550Y403860D02*
X594360Y403860D01*
X594360Y383540D02*
X590550Y383540D01*
X596900Y386080D02*
X596900Y401320D01*
D17*
X598805Y393700D03*
X544195Y393700D03*
D11*
X582041Y396627D02*
X582041Y389255D01*
X582041Y396627D02*
X585727Y396627D01*
X586956Y395399D01*
X586956Y392941D01*
X585727Y391712D01*
X582041Y391712D01*
X584498Y391712D02*
X586956Y389255D01*
X589525Y395399D02*
X590754Y396627D01*
X593211Y396627D01*
X594440Y395399D01*
X594440Y394170D01*
X593211Y392941D01*
X591983Y392941D01*
X593211Y392941D02*
X594440Y391712D01*
X594440Y390484D01*
X593211Y389255D01*
X590754Y389255D01*
X589525Y390484D01*
X558082Y396627D02*
X555625Y394170D01*
X558082Y396627D02*
X558082Y389255D01*
X555625Y389255D02*
X560540Y389255D01*
X563109Y389255D02*
X563109Y396627D01*
X563109Y391712D02*
X568024Y396627D01*
X564338Y392941D02*
X568024Y389255D01*
D12*
X698500Y567690D02*
X876300Y567690D01*
X876300Y626110D02*
X698500Y626110D01*
X698500Y567690D01*
X876300Y567690D02*
X876300Y586740D01*
X876300Y607060D02*
X876300Y626110D01*
X876300Y607060D02*
X876053Y607057D01*
X875805Y607048D01*
X875558Y607033D01*
X875312Y607012D01*
X875066Y606985D01*
X874821Y606952D01*
X874576Y606913D01*
X874333Y606868D01*
X874091Y606817D01*
X873850Y606760D01*
X873611Y606698D01*
X873373Y606629D01*
X873137Y606555D01*
X872903Y606475D01*
X872671Y606390D01*
X872441Y606298D01*
X872213Y606202D01*
X871988Y606099D01*
X871765Y605992D01*
X871545Y605878D01*
X871328Y605760D01*
X871113Y605636D01*
X870902Y605507D01*
X870694Y605373D01*
X870489Y605234D01*
X870288Y605090D01*
X870090Y604942D01*
X869896Y604788D01*
X869706Y604630D01*
X869520Y604467D01*
X869338Y604300D01*
X869160Y604128D01*
X868986Y603952D01*
X868816Y603772D01*
X868651Y603587D01*
X868491Y603399D01*
X868335Y603207D01*
X868183Y603011D01*
X868037Y602812D01*
X867895Y602609D01*
X867759Y602402D01*
X867627Y602193D01*
X867501Y601980D01*
X867380Y601764D01*
X867264Y601546D01*
X867154Y601324D01*
X867049Y601100D01*
X866949Y600874D01*
X866855Y600645D01*
X866767Y600414D01*
X866684Y600180D01*
X866607Y599945D01*
X866536Y599708D01*
X866470Y599470D01*
X866411Y599230D01*
X866357Y598988D01*
X866309Y598745D01*
X866267Y598502D01*
X866231Y598257D01*
X866201Y598011D01*
X866177Y597765D01*
X866159Y597518D01*
X866147Y597271D01*
X866141Y597024D01*
X866141Y596776D01*
X866147Y596529D01*
X866159Y596282D01*
X866177Y596035D01*
X866201Y595789D01*
X866231Y595543D01*
X866267Y595298D01*
X866309Y595055D01*
X866357Y594812D01*
X866411Y594570D01*
X866470Y594330D01*
X866536Y594092D01*
X866607Y593855D01*
X866684Y593620D01*
X866767Y593386D01*
X866855Y593155D01*
X866949Y592926D01*
X867049Y592700D01*
X867154Y592476D01*
X867264Y592254D01*
X867380Y592036D01*
X867501Y591820D01*
X867627Y591607D01*
X867759Y591398D01*
X867895Y591191D01*
X868037Y590988D01*
X868183Y590789D01*
X868335Y590593D01*
X868491Y590401D01*
X868651Y590213D01*
X868816Y590028D01*
X868986Y589848D01*
X869160Y589672D01*
X869338Y589500D01*
X869520Y589333D01*
X869706Y589170D01*
X869896Y589012D01*
X870090Y588858D01*
X870288Y588710D01*
X870489Y588566D01*
X870694Y588427D01*
X870902Y588293D01*
X871113Y588164D01*
X871328Y588040D01*
X871545Y587922D01*
X871765Y587808D01*
X871988Y587701D01*
X872213Y587598D01*
X872441Y587502D01*
X872671Y587410D01*
X872903Y587325D01*
X873137Y587245D01*
X873373Y587171D01*
X873611Y587102D01*
X873850Y587040D01*
X874091Y586983D01*
X874333Y586932D01*
X874576Y586887D01*
X874821Y586848D01*
X875066Y586815D01*
X875312Y586788D01*
X875558Y586767D01*
X875805Y586752D01*
X876053Y586743D01*
X876300Y586740D01*
D14*
X880735Y604627D02*
X890268Y604627D01*
X892175Y606534D01*
X892175Y610347D01*
X890268Y612254D01*
X880735Y612254D01*
X882642Y616321D02*
X880735Y618228D01*
X880735Y622041D01*
X882642Y623948D01*
X884549Y623948D01*
X886455Y622041D01*
X886455Y620134D01*
X886455Y622041D02*
X888362Y623948D01*
X890268Y623948D01*
X892175Y622041D01*
X892175Y618228D01*
X890268Y616321D01*
X781114Y602625D02*
X773487Y602625D01*
X781114Y602625D02*
X781114Y600718D01*
X773487Y593092D01*
X773487Y591185D01*
X790901Y591185D02*
X790901Y602625D01*
X785181Y596905D01*
X792808Y596905D01*
X796875Y602625D02*
X796875Y591185D01*
X804502Y591185D01*
X814289Y602625D02*
X816195Y600718D01*
X814289Y602625D02*
X810476Y602625D01*
X808569Y600718D01*
X808569Y598812D01*
X810476Y596905D01*
X814289Y596905D01*
X816195Y594998D01*
X816195Y593092D01*
X814289Y591185D01*
X810476Y591185D01*
X808569Y593092D01*
X820263Y593092D02*
X820263Y600718D01*
X822170Y602625D01*
X825983Y602625D01*
X827889Y600718D01*
X827889Y593092D01*
X825983Y591185D01*
X822170Y591185D01*
X820263Y593092D01*
X827889Y600718D01*
X837677Y602625D02*
X837677Y591185D01*
X831957Y596905D02*
X837677Y602625D01*
X839583Y596905D02*
X831957Y596905D01*
X843651Y591185D02*
X843651Y602625D01*
X851277Y591185D01*
X851277Y602625D01*
D12*
X876300Y377190D02*
X673100Y377190D01*
X673100Y435610D02*
X876300Y435610D01*
X673100Y435610D02*
X673100Y377190D01*
X876300Y377190D02*
X876300Y396240D01*
X876300Y416560D02*
X876300Y435610D01*
X876300Y416560D02*
X876053Y416557D01*
X875805Y416548D01*
X875558Y416533D01*
X875312Y416512D01*
X875066Y416485D01*
X874821Y416452D01*
X874576Y416413D01*
X874333Y416368D01*
X874091Y416317D01*
X873850Y416260D01*
X873611Y416198D01*
X873373Y416129D01*
X873137Y416055D01*
X872903Y415975D01*
X872671Y415890D01*
X872441Y415798D01*
X872213Y415702D01*
X871988Y415599D01*
X871765Y415492D01*
X871545Y415378D01*
X871328Y415260D01*
X871113Y415136D01*
X870902Y415007D01*
X870694Y414873D01*
X870489Y414734D01*
X870288Y414590D01*
X870090Y414442D01*
X869896Y414288D01*
X869706Y414130D01*
X869520Y413967D01*
X869338Y413800D01*
X869160Y413628D01*
X868986Y413452D01*
X868816Y413272D01*
X868651Y413087D01*
X868491Y412899D01*
X868335Y412707D01*
X868183Y412511D01*
X868037Y412312D01*
X867895Y412109D01*
X867759Y411902D01*
X867627Y411693D01*
X867501Y411480D01*
X867380Y411264D01*
X867264Y411046D01*
X867154Y410824D01*
X867049Y410600D01*
X866949Y410374D01*
X866855Y410145D01*
X866767Y409914D01*
X866684Y409680D01*
X866607Y409445D01*
X866536Y409208D01*
X866470Y408970D01*
X866411Y408730D01*
X866357Y408488D01*
X866309Y408245D01*
X866267Y408002D01*
X866231Y407757D01*
X866201Y407511D01*
X866177Y407265D01*
X866159Y407018D01*
X866147Y406771D01*
X866141Y406524D01*
X866141Y406276D01*
X866147Y406029D01*
X866159Y405782D01*
X866177Y405535D01*
X866201Y405289D01*
X866231Y405043D01*
X866267Y404798D01*
X866309Y404555D01*
X866357Y404312D01*
X866411Y404070D01*
X866470Y403830D01*
X866536Y403592D01*
X866607Y403355D01*
X866684Y403120D01*
X866767Y402886D01*
X866855Y402655D01*
X866949Y402426D01*
X867049Y402200D01*
X867154Y401976D01*
X867264Y401754D01*
X867380Y401536D01*
X867501Y401320D01*
X867627Y401107D01*
X867759Y400898D01*
X867895Y400691D01*
X868037Y400488D01*
X868183Y400289D01*
X868335Y400093D01*
X868491Y399901D01*
X868651Y399713D01*
X868816Y399528D01*
X868986Y399348D01*
X869160Y399172D01*
X869338Y399000D01*
X869520Y398833D01*
X869706Y398670D01*
X869896Y398512D01*
X870090Y398358D01*
X870288Y398210D01*
X870489Y398066D01*
X870694Y397927D01*
X870902Y397793D01*
X871113Y397664D01*
X871328Y397540D01*
X871545Y397422D01*
X871765Y397308D01*
X871988Y397201D01*
X872213Y397098D01*
X872441Y397002D01*
X872671Y396910D01*
X872903Y396825D01*
X873137Y396745D01*
X873373Y396671D01*
X873611Y396602D01*
X873850Y396540D01*
X874091Y396483D01*
X874333Y396432D01*
X874576Y396387D01*
X874821Y396348D01*
X875066Y396315D01*
X875312Y396288D01*
X875558Y396267D01*
X875805Y396252D01*
X876053Y396243D01*
X876300Y396240D01*
D14*
X880735Y412857D02*
X890268Y412857D01*
X892175Y414764D01*
X892175Y418577D01*
X890268Y420484D01*
X880735Y420484D01*
X882642Y428364D02*
X880735Y432178D01*
X882642Y428364D02*
X886455Y424551D01*
X890268Y424551D01*
X892175Y426458D01*
X892175Y430271D01*
X890268Y432178D01*
X888362Y432178D01*
X886455Y430271D01*
X886455Y424551D01*
X776034Y412125D02*
X768407Y412125D01*
X776034Y412125D02*
X776034Y410218D01*
X768407Y402592D01*
X768407Y400685D01*
X785821Y400685D02*
X785821Y412125D01*
X780101Y406405D01*
X787728Y406405D01*
X797515Y412125D02*
X799422Y410218D01*
X797515Y412125D02*
X793702Y412125D01*
X791795Y410218D01*
X791795Y408312D01*
X793702Y406405D01*
X797515Y406405D01*
X799422Y404498D01*
X799422Y402592D01*
X797515Y400685D01*
X793702Y400685D01*
X791795Y402592D01*
X803489Y408312D02*
X807302Y412125D01*
X807302Y400685D01*
X803489Y400685D02*
X811115Y400685D01*
X818996Y410218D02*
X822809Y412125D01*
X818996Y410218D02*
X815183Y406405D01*
X815183Y402592D01*
X817090Y400685D01*
X820903Y400685D01*
X822809Y402592D01*
X822809Y404498D01*
X820903Y406405D01*
X815183Y406405D01*
X826877Y410218D02*
X828784Y412125D01*
X832597Y412125D01*
X834503Y410218D01*
X834503Y408312D01*
X832597Y406405D01*
X830690Y406405D01*
X832597Y406405D02*
X834503Y404498D01*
X834503Y402592D01*
X832597Y400685D01*
X828784Y400685D01*
X826877Y402592D01*
X838571Y400685D02*
X838571Y412125D01*
X846197Y400685D01*
X846197Y412125D01*
D12*
X596900Y347980D02*
X596898Y347880D01*
X596892Y347781D01*
X596882Y347681D01*
X596869Y347583D01*
X596851Y347484D01*
X596830Y347387D01*
X596805Y347291D01*
X596776Y347195D01*
X596743Y347101D01*
X596707Y347008D01*
X596667Y346917D01*
X596623Y346827D01*
X596576Y346739D01*
X596526Y346653D01*
X596472Y346569D01*
X596415Y346487D01*
X596355Y346408D01*
X596291Y346330D01*
X596225Y346256D01*
X596156Y346184D01*
X596084Y346115D01*
X596010Y346049D01*
X595932Y345985D01*
X595853Y345925D01*
X595771Y345868D01*
X595687Y345814D01*
X595601Y345764D01*
X595513Y345717D01*
X595423Y345673D01*
X595332Y345633D01*
X595239Y345597D01*
X595145Y345564D01*
X595049Y345535D01*
X594953Y345510D01*
X594856Y345489D01*
X594757Y345471D01*
X594659Y345458D01*
X594559Y345448D01*
X594460Y345442D01*
X594360Y345440D01*
X596900Y363220D02*
X596898Y363320D01*
X596892Y363419D01*
X596882Y363519D01*
X596869Y363617D01*
X596851Y363716D01*
X596830Y363813D01*
X596805Y363909D01*
X596776Y364005D01*
X596743Y364099D01*
X596707Y364192D01*
X596667Y364283D01*
X596623Y364373D01*
X596576Y364461D01*
X596526Y364547D01*
X596472Y364631D01*
X596415Y364713D01*
X596355Y364792D01*
X596291Y364870D01*
X596225Y364944D01*
X596156Y365016D01*
X596084Y365085D01*
X596010Y365151D01*
X595932Y365215D01*
X595853Y365275D01*
X595771Y365332D01*
X595687Y365386D01*
X595601Y365436D01*
X595513Y365483D01*
X595423Y365527D01*
X595332Y365567D01*
X595239Y365603D01*
X595145Y365636D01*
X595049Y365665D01*
X594953Y365690D01*
X594856Y365711D01*
X594757Y365729D01*
X594659Y365742D01*
X594559Y365752D01*
X594460Y365758D01*
X594360Y365760D01*
X548640Y365760D02*
X548540Y365758D01*
X548441Y365752D01*
X548341Y365742D01*
X548243Y365729D01*
X548144Y365711D01*
X548047Y365690D01*
X547951Y365665D01*
X547855Y365636D01*
X547761Y365603D01*
X547668Y365567D01*
X547577Y365527D01*
X547487Y365483D01*
X547399Y365436D01*
X547313Y365386D01*
X547229Y365332D01*
X547147Y365275D01*
X547068Y365215D01*
X546990Y365151D01*
X546916Y365085D01*
X546844Y365016D01*
X546775Y364944D01*
X546709Y364870D01*
X546645Y364792D01*
X546585Y364713D01*
X546528Y364631D01*
X546474Y364547D01*
X546424Y364461D01*
X546377Y364373D01*
X546333Y364283D01*
X546293Y364192D01*
X546257Y364099D01*
X546224Y364005D01*
X546195Y363909D01*
X546170Y363813D01*
X546149Y363716D01*
X546131Y363617D01*
X546118Y363519D01*
X546108Y363419D01*
X546102Y363320D01*
X546100Y363220D01*
X546100Y347980D02*
X546102Y347880D01*
X546108Y347781D01*
X546118Y347681D01*
X546131Y347583D01*
X546149Y347484D01*
X546170Y347387D01*
X546195Y347291D01*
X546224Y347195D01*
X546257Y347101D01*
X546293Y347008D01*
X546333Y346917D01*
X546377Y346827D01*
X546424Y346739D01*
X546474Y346653D01*
X546528Y346569D01*
X546585Y346487D01*
X546645Y346408D01*
X546709Y346330D01*
X546775Y346256D01*
X546844Y346184D01*
X546916Y346115D01*
X546990Y346049D01*
X547068Y345985D01*
X547147Y345925D01*
X547229Y345868D01*
X547313Y345814D01*
X547399Y345764D01*
X547487Y345717D01*
X547577Y345673D01*
X547668Y345633D01*
X547761Y345597D01*
X547855Y345564D01*
X547951Y345535D01*
X548047Y345510D01*
X548144Y345489D01*
X548243Y345471D01*
X548341Y345458D01*
X548441Y345448D01*
X548540Y345442D01*
X548640Y345440D01*
X596900Y347980D02*
X596900Y363220D01*
X594360Y345440D02*
X590550Y345440D01*
X589280Y346710D01*
X590550Y365760D02*
X594360Y365760D01*
X590550Y365760D02*
X589280Y364490D01*
X553720Y346710D02*
X552450Y345440D01*
X553720Y346710D02*
X589280Y346710D01*
X553720Y364490D02*
X552450Y365760D01*
X553720Y364490D02*
X589280Y364490D01*
X552450Y345440D02*
X548640Y345440D01*
X548640Y365760D02*
X552450Y365760D01*
X546100Y363220D02*
X546100Y347980D01*
D17*
X544195Y355600D03*
X598805Y355600D03*
D11*
X584581Y356235D02*
X584581Y363607D01*
X588267Y363607D01*
X589496Y362379D01*
X589496Y359921D01*
X588267Y358692D01*
X584581Y358692D01*
X587038Y358692D02*
X589496Y356235D01*
X595751Y356235D02*
X595751Y363607D01*
X592065Y359921D01*
X596980Y359921D01*
X562926Y360051D02*
X560469Y357594D01*
X562926Y360051D02*
X562926Y352679D01*
X560469Y352679D02*
X565384Y352679D01*
X567953Y352679D02*
X567953Y360051D01*
X567953Y355136D02*
X572868Y360051D01*
X569182Y356365D02*
X572868Y352679D01*
D12*
X596900Y262890D02*
X596900Y219710D01*
X622300Y262890D02*
X618490Y266700D01*
X622300Y262890D02*
X626110Y266700D01*
X643890Y266700D01*
X647700Y262890D01*
X651510Y266700D01*
X669290Y266700D01*
X673100Y262890D01*
X673100Y219710D01*
X669290Y215900D01*
X651510Y215900D01*
X647700Y219710D01*
X643890Y215900D01*
X626110Y215900D01*
X622300Y219710D01*
X618490Y215900D01*
X596900Y262890D02*
X600710Y266700D01*
X618490Y266700D01*
X596900Y219710D02*
X600710Y215900D01*
X618490Y215900D01*
D14*
X608968Y211465D02*
X605155Y207652D01*
X608968Y211465D02*
X608968Y200025D01*
X605155Y200025D02*
X612782Y200025D01*
X630555Y200025D02*
X638182Y200025D01*
X630555Y200025D02*
X638182Y207652D01*
X638182Y209558D01*
X636275Y211465D01*
X632462Y211465D01*
X630555Y209558D01*
X655955Y209558D02*
X657862Y211465D01*
X661675Y211465D01*
X663582Y209558D01*
X663582Y207652D01*
X661675Y205745D01*
X659768Y205745D01*
X661675Y205745D02*
X663582Y203838D01*
X663582Y201932D01*
X661675Y200025D01*
X657862Y200025D01*
X655955Y201932D01*
X592455Y234952D02*
X590548Y233045D01*
X592455Y234952D02*
X592455Y236858D01*
X590548Y238765D01*
X581015Y238765D01*
X581015Y236858D02*
X581015Y240672D01*
X581015Y244739D02*
X592455Y244739D01*
X581015Y244739D02*
X581015Y250459D01*
X582922Y252365D01*
X586735Y252365D01*
X588642Y250459D01*
X588642Y244739D01*
X592455Y256433D02*
X592455Y264059D01*
X592455Y256433D02*
X584829Y264059D01*
X582922Y264059D01*
X581015Y262153D01*
X581015Y258340D01*
X582922Y256433D01*
D13*
X746760Y281940D02*
X866140Y281940D01*
X734060Y269240D02*
X734060Y162560D01*
X746760Y149860D02*
X853440Y149860D01*
X866140Y162560D02*
X866140Y281940D01*
D12*
X853440Y275590D02*
X746760Y275590D01*
X740410Y269240D02*
X740410Y162560D01*
X746760Y156210D02*
X853440Y156210D01*
X859790Y162560D02*
X859790Y269240D01*
D13*
X746760Y281940D02*
X746453Y281936D01*
X746146Y281925D01*
X745840Y281907D01*
X745534Y281881D01*
X745229Y281847D01*
X744925Y281807D01*
X744622Y281759D01*
X744320Y281703D01*
X744020Y281641D01*
X743721Y281571D01*
X743424Y281494D01*
X743128Y281410D01*
X742835Y281318D01*
X742545Y281220D01*
X742257Y281115D01*
X741971Y281002D01*
X741688Y280883D01*
X741408Y280757D01*
X741131Y280625D01*
X740858Y280485D01*
X740588Y280339D01*
X740322Y280187D01*
X740059Y280028D01*
X739800Y279863D01*
X739546Y279692D01*
X739295Y279515D01*
X739049Y279331D01*
X738807Y279142D01*
X738571Y278947D01*
X738338Y278746D01*
X738111Y278540D01*
X737889Y278328D01*
X737672Y278111D01*
X737460Y277889D01*
X737254Y277662D01*
X737053Y277429D01*
X736858Y277193D01*
X736669Y276951D01*
X736485Y276705D01*
X736308Y276454D01*
X736137Y276200D01*
X735972Y275941D01*
X735813Y275678D01*
X735661Y275412D01*
X735515Y275142D01*
X735375Y274869D01*
X735243Y274592D01*
X735117Y274312D01*
X734998Y274029D01*
X734885Y273743D01*
X734780Y273455D01*
X734682Y273165D01*
X734590Y272872D01*
X734506Y272576D01*
X734429Y272279D01*
X734359Y271980D01*
X734297Y271680D01*
X734241Y271378D01*
X734193Y271075D01*
X734153Y270771D01*
X734119Y270466D01*
X734093Y270160D01*
X734075Y269854D01*
X734064Y269547D01*
X734060Y269240D01*
D12*
X740410Y269240D02*
X740412Y269398D01*
X740418Y269557D01*
X740428Y269715D01*
X740442Y269872D01*
X740459Y270030D01*
X740481Y270186D01*
X740506Y270343D01*
X740536Y270498D01*
X740569Y270653D01*
X740606Y270807D01*
X740647Y270960D01*
X740692Y271112D01*
X740741Y271262D01*
X740793Y271412D01*
X740849Y271560D01*
X740909Y271707D01*
X740972Y271852D01*
X741039Y271995D01*
X741109Y272137D01*
X741183Y272277D01*
X741261Y272415D01*
X741342Y272551D01*
X741426Y272685D01*
X741513Y272817D01*
X741604Y272947D01*
X741698Y273074D01*
X741795Y273199D01*
X741896Y273322D01*
X741999Y273442D01*
X742105Y273559D01*
X742214Y273674D01*
X742326Y273786D01*
X742441Y273895D01*
X742558Y274001D01*
X742678Y274104D01*
X742801Y274205D01*
X742926Y274302D01*
X743053Y274396D01*
X743183Y274487D01*
X743315Y274574D01*
X743449Y274658D01*
X743585Y274739D01*
X743723Y274817D01*
X743863Y274891D01*
X744005Y274961D01*
X744148Y275028D01*
X744293Y275091D01*
X744440Y275151D01*
X744588Y275207D01*
X744738Y275259D01*
X744888Y275308D01*
X745040Y275353D01*
X745193Y275394D01*
X745347Y275431D01*
X745502Y275464D01*
X745657Y275494D01*
X745814Y275519D01*
X745970Y275541D01*
X746128Y275558D01*
X746285Y275572D01*
X746443Y275582D01*
X746602Y275588D01*
X746760Y275590D01*
X740410Y162560D02*
X740412Y162402D01*
X740418Y162243D01*
X740428Y162085D01*
X740442Y161928D01*
X740459Y161770D01*
X740481Y161614D01*
X740506Y161457D01*
X740536Y161302D01*
X740569Y161147D01*
X740606Y160993D01*
X740647Y160840D01*
X740692Y160688D01*
X740741Y160538D01*
X740793Y160388D01*
X740849Y160240D01*
X740909Y160093D01*
X740972Y159948D01*
X741039Y159805D01*
X741109Y159663D01*
X741183Y159523D01*
X741261Y159385D01*
X741342Y159249D01*
X741426Y159115D01*
X741513Y158983D01*
X741604Y158853D01*
X741698Y158726D01*
X741795Y158601D01*
X741896Y158478D01*
X741999Y158358D01*
X742105Y158241D01*
X742214Y158126D01*
X742326Y158014D01*
X742441Y157905D01*
X742558Y157799D01*
X742678Y157696D01*
X742801Y157595D01*
X742926Y157498D01*
X743053Y157404D01*
X743183Y157313D01*
X743315Y157226D01*
X743449Y157142D01*
X743585Y157061D01*
X743723Y156983D01*
X743863Y156909D01*
X744005Y156839D01*
X744148Y156772D01*
X744293Y156709D01*
X744440Y156649D01*
X744588Y156593D01*
X744738Y156541D01*
X744888Y156492D01*
X745040Y156447D01*
X745193Y156406D01*
X745347Y156369D01*
X745502Y156336D01*
X745657Y156306D01*
X745814Y156281D01*
X745970Y156259D01*
X746128Y156242D01*
X746285Y156228D01*
X746443Y156218D01*
X746602Y156212D01*
X746760Y156210D01*
D13*
X746760Y149860D02*
X746453Y149864D01*
X746146Y149875D01*
X745840Y149893D01*
X745534Y149919D01*
X745229Y149953D01*
X744925Y149993D01*
X744622Y150041D01*
X744320Y150097D01*
X744020Y150159D01*
X743721Y150229D01*
X743424Y150306D01*
X743128Y150390D01*
X742835Y150482D01*
X742545Y150580D01*
X742257Y150685D01*
X741971Y150798D01*
X741688Y150917D01*
X741408Y151043D01*
X741131Y151175D01*
X740858Y151315D01*
X740588Y151461D01*
X740322Y151613D01*
X740059Y151772D01*
X739800Y151937D01*
X739546Y152108D01*
X739295Y152285D01*
X739049Y152469D01*
X738807Y152658D01*
X738571Y152853D01*
X738338Y153054D01*
X738111Y153260D01*
X737889Y153472D01*
X737672Y153689D01*
X737460Y153911D01*
X737254Y154138D01*
X737053Y154371D01*
X736858Y154607D01*
X736669Y154849D01*
X736485Y155095D01*
X736308Y155346D01*
X736137Y155600D01*
X735972Y155859D01*
X735813Y156122D01*
X735661Y156388D01*
X735515Y156658D01*
X735375Y156931D01*
X735243Y157208D01*
X735117Y157488D01*
X734998Y157771D01*
X734885Y158057D01*
X734780Y158345D01*
X734682Y158635D01*
X734590Y158928D01*
X734506Y159224D01*
X734429Y159521D01*
X734359Y159820D01*
X734297Y160120D01*
X734241Y160422D01*
X734193Y160725D01*
X734153Y161029D01*
X734119Y161334D01*
X734093Y161640D01*
X734075Y161946D01*
X734064Y162253D01*
X734060Y162560D01*
D12*
X853440Y156210D02*
X853598Y156212D01*
X853757Y156218D01*
X853915Y156228D01*
X854072Y156242D01*
X854230Y156259D01*
X854386Y156281D01*
X854543Y156306D01*
X854698Y156336D01*
X854853Y156369D01*
X855007Y156406D01*
X855160Y156447D01*
X855312Y156492D01*
X855462Y156541D01*
X855612Y156593D01*
X855760Y156649D01*
X855907Y156709D01*
X856052Y156772D01*
X856195Y156839D01*
X856337Y156909D01*
X856477Y156983D01*
X856615Y157061D01*
X856751Y157142D01*
X856885Y157226D01*
X857017Y157313D01*
X857147Y157404D01*
X857274Y157498D01*
X857399Y157595D01*
X857522Y157696D01*
X857642Y157799D01*
X857759Y157905D01*
X857874Y158014D01*
X857986Y158126D01*
X858095Y158241D01*
X858201Y158358D01*
X858304Y158478D01*
X858405Y158601D01*
X858502Y158726D01*
X858596Y158853D01*
X858687Y158983D01*
X858774Y159115D01*
X858858Y159249D01*
X858939Y159385D01*
X859017Y159523D01*
X859091Y159663D01*
X859161Y159805D01*
X859228Y159948D01*
X859291Y160093D01*
X859351Y160240D01*
X859407Y160388D01*
X859459Y160538D01*
X859508Y160688D01*
X859553Y160840D01*
X859594Y160993D01*
X859631Y161147D01*
X859664Y161302D01*
X859694Y161457D01*
X859719Y161614D01*
X859741Y161770D01*
X859758Y161928D01*
X859772Y162085D01*
X859782Y162243D01*
X859788Y162402D01*
X859790Y162560D01*
D13*
X866140Y162560D02*
X866136Y162253D01*
X866125Y161946D01*
X866107Y161640D01*
X866081Y161334D01*
X866047Y161029D01*
X866007Y160725D01*
X865959Y160422D01*
X865903Y160120D01*
X865841Y159820D01*
X865771Y159521D01*
X865694Y159224D01*
X865610Y158928D01*
X865518Y158635D01*
X865420Y158345D01*
X865315Y158057D01*
X865202Y157771D01*
X865083Y157488D01*
X864957Y157208D01*
X864825Y156931D01*
X864685Y156658D01*
X864539Y156388D01*
X864387Y156122D01*
X864228Y155859D01*
X864063Y155600D01*
X863892Y155346D01*
X863715Y155095D01*
X863531Y154849D01*
X863342Y154607D01*
X863147Y154371D01*
X862946Y154138D01*
X862740Y153911D01*
X862528Y153689D01*
X862311Y153472D01*
X862089Y153260D01*
X861862Y153054D01*
X861629Y152853D01*
X861393Y152658D01*
X861151Y152469D01*
X860905Y152285D01*
X860654Y152108D01*
X860400Y151937D01*
X860141Y151772D01*
X859878Y151613D01*
X859612Y151461D01*
X859342Y151315D01*
X859069Y151175D01*
X858792Y151043D01*
X858512Y150917D01*
X858229Y150798D01*
X857943Y150685D01*
X857655Y150580D01*
X857365Y150482D01*
X857072Y150390D01*
X856776Y150306D01*
X856479Y150229D01*
X856180Y150159D01*
X855880Y150097D01*
X855578Y150041D01*
X855275Y149993D01*
X854971Y149953D01*
X854666Y149919D01*
X854360Y149893D01*
X854054Y149875D01*
X853747Y149864D01*
X853440Y149860D01*
D12*
X859790Y269240D02*
X859788Y269398D01*
X859782Y269557D01*
X859772Y269715D01*
X859758Y269872D01*
X859741Y270030D01*
X859719Y270186D01*
X859694Y270343D01*
X859664Y270498D01*
X859631Y270653D01*
X859594Y270807D01*
X859553Y270960D01*
X859508Y271112D01*
X859459Y271262D01*
X859407Y271412D01*
X859351Y271560D01*
X859291Y271707D01*
X859228Y271852D01*
X859161Y271995D01*
X859091Y272137D01*
X859017Y272277D01*
X858939Y272415D01*
X858858Y272551D01*
X858774Y272685D01*
X858687Y272817D01*
X858596Y272947D01*
X858502Y273074D01*
X858405Y273199D01*
X858304Y273322D01*
X858201Y273442D01*
X858095Y273559D01*
X857986Y273674D01*
X857874Y273786D01*
X857759Y273895D01*
X857642Y274001D01*
X857522Y274104D01*
X857399Y274205D01*
X857274Y274302D01*
X857147Y274396D01*
X857017Y274487D01*
X856885Y274574D01*
X856751Y274658D01*
X856615Y274739D01*
X856477Y274817D01*
X856337Y274891D01*
X856195Y274961D01*
X856052Y275028D01*
X855907Y275091D01*
X855760Y275151D01*
X855612Y275207D01*
X855462Y275259D01*
X855312Y275308D01*
X855160Y275353D01*
X855007Y275394D01*
X854853Y275431D01*
X854698Y275464D01*
X854543Y275494D01*
X854386Y275519D01*
X854230Y275541D01*
X854072Y275558D01*
X853915Y275572D01*
X853757Y275582D01*
X853598Y275588D01*
X853440Y275590D01*
D18*
X803402Y190500D02*
X803402Y165100D01*
X803402Y190500D02*
X797052Y190500D01*
X797052Y165100D01*
X803402Y165100D01*
X790702Y165100D02*
X790702Y177800D01*
X809498Y177800D02*
X809498Y165100D01*
D12*
X790702Y177800D02*
X774700Y177800D01*
D18*
X790702Y177800D02*
X790702Y190500D01*
D12*
X809498Y177800D02*
X825500Y177800D01*
D18*
X809498Y177800D02*
X809498Y190500D01*
D14*
X816981Y268612D02*
X820794Y272425D01*
X820794Y260985D01*
X816981Y260985D02*
X824608Y260985D01*
X828147Y144409D02*
X828147Y134876D01*
X830054Y132969D01*
X833867Y132969D01*
X835774Y134876D01*
X835774Y144409D01*
X839841Y142502D02*
X841748Y144409D01*
X845561Y144409D01*
X847468Y142502D01*
X847468Y140596D01*
X845561Y138689D01*
X847468Y136782D01*
X847468Y134876D01*
X845561Y132969D01*
X841748Y132969D01*
X839841Y134876D01*
X839841Y136782D01*
X841748Y138689D01*
X839841Y140596D01*
X839841Y142502D01*
X841748Y138689D02*
X845561Y138689D01*
X793065Y217050D02*
X796878Y220863D01*
X796878Y209423D01*
X793065Y209423D02*
X800692Y209423D01*
X808572Y218956D02*
X812386Y220863D01*
X808572Y218956D02*
X804759Y215143D01*
X804759Y211330D01*
X806666Y209423D01*
X810479Y209423D01*
X812386Y211330D01*
X812386Y213236D01*
X810479Y215143D01*
X804759Y215143D01*
X816453Y209423D02*
X816453Y220863D01*
X820266Y217050D01*
X824079Y220863D01*
X824079Y209423D01*
X828147Y209423D02*
X828147Y220863D01*
X828147Y215143D02*
X835773Y215143D01*
X835773Y220863D02*
X835773Y209423D01*
X839841Y217050D02*
X847467Y217050D01*
X839841Y209423D01*
X847467Y209423D01*
D12*
X650240Y165100D02*
X647700Y162560D01*
X645160Y165100D01*
X647700Y142240D02*
X650240Y139700D01*
X647700Y142240D02*
X645160Y139700D01*
X624840Y139700D01*
X622300Y142240D01*
X670560Y139700D02*
X673100Y142240D01*
X670560Y139700D02*
X650240Y139700D01*
X673100Y142240D02*
X673100Y162560D01*
X670560Y165100D01*
X650240Y165100D01*
X645160Y165100D02*
X624840Y165100D01*
X622300Y162560D01*
X622300Y142240D01*
D14*
X624842Y169545D02*
X622935Y171452D01*
X624842Y169545D02*
X626748Y169545D01*
X628655Y171452D01*
X628655Y180985D01*
X626748Y180985D02*
X630562Y180985D01*
X634629Y180985D02*
X634629Y169545D01*
X634629Y180985D02*
X640349Y180985D01*
X642255Y179078D01*
X642255Y175265D01*
X640349Y173358D01*
X634629Y173358D01*
X652043Y169545D02*
X652043Y180985D01*
X646323Y175265D01*
X653949Y175265D01*
D10*
X628909Y132850D02*
X622808Y132850D01*
X622808Y123698D01*
X628909Y123698D01*
X625859Y128274D02*
X622808Y128274D01*
X632163Y129799D02*
X635214Y132850D01*
X635214Y123698D01*
X638264Y123698D02*
X632163Y123698D01*
X641518Y125223D02*
X641518Y131325D01*
X643044Y132850D01*
X646094Y132850D01*
X647620Y131325D01*
X647620Y125223D01*
X646094Y123698D01*
X643044Y123698D01*
X641518Y125223D01*
X647620Y131325D01*
X650874Y123698D02*
X656975Y132850D01*
X660229Y132850D02*
X666330Y132850D01*
X660229Y132850D02*
X660229Y123698D01*
X666330Y123698D01*
X663279Y128274D02*
X660229Y128274D01*
X669584Y129799D02*
X672635Y132850D01*
X672635Y123698D01*
X675685Y123698D02*
X669584Y123698D01*
X683515Y123698D02*
X683515Y132850D01*
X678939Y128274D01*
X685040Y128274D01*
D12*
X241300Y567690D02*
X38100Y567690D01*
X38100Y626110D02*
X241300Y626110D01*
X38100Y626110D02*
X38100Y567690D01*
X241300Y567690D02*
X241300Y586740D01*
X241300Y607060D02*
X241300Y626110D01*
X241300Y607060D02*
X241053Y607057D01*
X240805Y607048D01*
X240558Y607033D01*
X240312Y607012D01*
X240066Y606985D01*
X239821Y606952D01*
X239576Y606913D01*
X239333Y606868D01*
X239091Y606817D01*
X238850Y606760D01*
X238611Y606698D01*
X238373Y606629D01*
X238137Y606555D01*
X237903Y606475D01*
X237671Y606390D01*
X237441Y606298D01*
X237213Y606202D01*
X236988Y606099D01*
X236765Y605992D01*
X236545Y605878D01*
X236328Y605760D01*
X236113Y605636D01*
X235902Y605507D01*
X235694Y605373D01*
X235489Y605234D01*
X235288Y605090D01*
X235090Y604942D01*
X234896Y604788D01*
X234706Y604630D01*
X234520Y604467D01*
X234338Y604300D01*
X234160Y604128D01*
X233986Y603952D01*
X233816Y603772D01*
X233651Y603587D01*
X233491Y603399D01*
X233335Y603207D01*
X233183Y603011D01*
X233037Y602812D01*
X232895Y602609D01*
X232759Y602402D01*
X232627Y602193D01*
X232501Y601980D01*
X232380Y601764D01*
X232264Y601546D01*
X232154Y601324D01*
X232049Y601100D01*
X231949Y600874D01*
X231855Y600645D01*
X231767Y600414D01*
X231684Y600180D01*
X231607Y599945D01*
X231536Y599708D01*
X231470Y599470D01*
X231411Y599230D01*
X231357Y598988D01*
X231309Y598745D01*
X231267Y598502D01*
X231231Y598257D01*
X231201Y598011D01*
X231177Y597765D01*
X231159Y597518D01*
X231147Y597271D01*
X231141Y597024D01*
X231141Y596776D01*
X231147Y596529D01*
X231159Y596282D01*
X231177Y596035D01*
X231201Y595789D01*
X231231Y595543D01*
X231267Y595298D01*
X231309Y595055D01*
X231357Y594812D01*
X231411Y594570D01*
X231470Y594330D01*
X231536Y594092D01*
X231607Y593855D01*
X231684Y593620D01*
X231767Y593386D01*
X231855Y593155D01*
X231949Y592926D01*
X232049Y592700D01*
X232154Y592476D01*
X232264Y592254D01*
X232380Y592036D01*
X232501Y591820D01*
X232627Y591607D01*
X232759Y591398D01*
X232895Y591191D01*
X233037Y590988D01*
X233183Y590789D01*
X233335Y590593D01*
X233491Y590401D01*
X233651Y590213D01*
X233816Y590028D01*
X233986Y589848D01*
X234160Y589672D01*
X234338Y589500D01*
X234520Y589333D01*
X234706Y589170D01*
X234896Y589012D01*
X235090Y588858D01*
X235288Y588710D01*
X235489Y588566D01*
X235694Y588427D01*
X235902Y588293D01*
X236113Y588164D01*
X236328Y588040D01*
X236545Y587922D01*
X236765Y587808D01*
X236988Y587701D01*
X237213Y587598D01*
X237441Y587502D01*
X237671Y587410D01*
X237903Y587325D01*
X238137Y587245D01*
X238373Y587171D01*
X238611Y587102D01*
X238850Y587040D01*
X239091Y586983D01*
X239333Y586932D01*
X239576Y586887D01*
X239821Y586848D01*
X240066Y586815D01*
X240312Y586788D01*
X240558Y586767D01*
X240805Y586752D01*
X241053Y586743D01*
X241300Y586740D01*
D14*
X245735Y603357D02*
X255268Y603357D01*
X257175Y605264D01*
X257175Y609077D01*
X255268Y610984D01*
X245735Y610984D01*
X249549Y615051D02*
X245735Y618864D01*
X257175Y618864D01*
X257175Y615051D02*
X257175Y622678D01*
X129340Y602625D02*
X121713Y602625D01*
X129340Y602625D02*
X129340Y600718D01*
X121713Y593092D01*
X121713Y591185D01*
X139127Y591185D02*
X139127Y602625D01*
X133407Y596905D01*
X141034Y596905D01*
X145101Y602625D02*
X145101Y591185D01*
X152728Y591185D01*
X162515Y602625D02*
X164421Y600718D01*
X162515Y602625D02*
X158702Y602625D01*
X156795Y600718D01*
X156795Y598812D01*
X158702Y596905D01*
X162515Y596905D01*
X164421Y594998D01*
X164421Y593092D01*
X162515Y591185D01*
X158702Y591185D01*
X156795Y593092D01*
X168489Y598812D02*
X172302Y602625D01*
X172302Y591185D01*
X168489Y591185D02*
X176115Y591185D01*
X180183Y602625D02*
X187809Y602625D01*
X187809Y600718D01*
X180183Y593092D01*
X180183Y591185D01*
X197597Y591185D02*
X197597Y602625D01*
X191877Y596905D01*
X199503Y596905D01*
X203571Y591185D02*
X203571Y602625D01*
X211197Y591185D01*
X211197Y602625D01*
D12*
X626110Y546100D02*
X669290Y546100D01*
X626110Y571500D02*
X622300Y567690D01*
X626110Y571500D02*
X622300Y575310D01*
X622300Y593090D01*
X626110Y596900D01*
X622300Y600710D01*
X622300Y618490D01*
X626110Y622300D01*
X669290Y622300D02*
X673100Y618490D01*
X673100Y600710D01*
X669290Y596900D01*
X673100Y593090D01*
X673100Y575310D01*
X669290Y571500D01*
X673100Y567690D01*
X669290Y647700D02*
X626110Y647700D01*
X622300Y626110D02*
X626110Y622300D01*
X622300Y626110D02*
X622300Y643890D01*
X626110Y647700D01*
X669290Y622300D02*
X673100Y626110D01*
X673100Y643890D01*
X669290Y647700D01*
X622300Y549910D02*
X626110Y546100D01*
X622300Y549910D02*
X622300Y567690D01*
X669290Y546100D02*
X673100Y549910D01*
X673100Y567690D01*
D14*
X677535Y558168D02*
X681349Y554355D01*
X677535Y558168D02*
X688975Y558168D01*
X688975Y554355D02*
X688975Y561982D01*
X688975Y579755D02*
X688975Y587382D01*
X681349Y587382D02*
X688975Y579755D01*
X681349Y587382D02*
X679442Y587382D01*
X677535Y585475D01*
X677535Y581662D01*
X679442Y579755D01*
X679442Y605155D02*
X677535Y607062D01*
X677535Y610875D01*
X679442Y612782D01*
X681349Y612782D01*
X683255Y610875D01*
X683255Y608968D01*
X683255Y610875D02*
X685162Y612782D01*
X687068Y612782D01*
X688975Y610875D01*
X688975Y607062D01*
X687068Y605155D01*
X688975Y636275D02*
X677535Y636275D01*
X683255Y630555D01*
X683255Y638182D01*
X625953Y530862D02*
X627860Y528955D01*
X629766Y528955D01*
X631673Y530862D01*
X631673Y540395D01*
X629766Y540395D02*
X633580Y540395D01*
X637647Y540395D02*
X637647Y528955D01*
X637647Y540395D02*
X643367Y540395D01*
X645274Y538488D01*
X645274Y534675D01*
X643367Y532768D01*
X637647Y532768D01*
X649341Y540395D02*
X656967Y540395D01*
X649341Y540395D02*
X649341Y534675D01*
X653154Y536582D01*
X655061Y536582D01*
X656967Y534675D01*
X656967Y530862D01*
X655061Y528955D01*
X651248Y528955D01*
X649341Y530862D01*
D12*
X63500Y378460D02*
X63500Y358140D01*
X116840Y381000D02*
X137160Y381000D01*
X116840Y381000D02*
X114300Y378460D01*
X116840Y355600D02*
X137160Y355600D01*
X116840Y355600D02*
X114300Y358140D01*
X137160Y355600D02*
X139700Y358140D01*
X139700Y378460D02*
X137160Y381000D01*
X139700Y378460D02*
X139700Y358140D01*
X114300Y378460D02*
X111760Y381000D01*
X91440Y381000D01*
X88900Y378460D01*
X86360Y381000D01*
X66040Y381000D02*
X63500Y378460D01*
X66040Y381000D02*
X86360Y381000D01*
X111760Y355600D02*
X114300Y358140D01*
X91440Y355600D02*
X88900Y358140D01*
X86360Y355600D01*
X66040Y355600D02*
X63500Y358140D01*
X91440Y355600D02*
X111760Y355600D01*
X86360Y355600D02*
X66040Y355600D01*
D14*
X76835Y348027D02*
X79716Y350908D01*
X79716Y342265D01*
X76835Y342265D02*
X82597Y342265D01*
X102235Y342265D02*
X107997Y342265D01*
X102235Y342265D02*
X107997Y348027D01*
X107997Y349468D01*
X106557Y350908D01*
X103676Y350908D01*
X102235Y349468D01*
X127635Y349468D02*
X129076Y350908D01*
X131957Y350908D01*
X133397Y349468D01*
X133397Y348027D01*
X131957Y346587D01*
X130516Y346587D01*
X131957Y346587D02*
X133397Y345146D01*
X133397Y343706D01*
X131957Y342265D01*
X129076Y342265D01*
X127635Y343706D01*
X59055Y347982D02*
X57148Y346075D01*
X59055Y347982D02*
X59055Y349888D01*
X57148Y351795D01*
X47615Y351795D01*
X47615Y349888D02*
X47615Y353702D01*
X47615Y357769D02*
X59055Y357769D01*
X47615Y357769D02*
X47615Y363489D01*
X49522Y365395D01*
X53335Y365395D01*
X55242Y363489D01*
X55242Y357769D01*
X49522Y373276D02*
X47615Y377089D01*
X49522Y373276D02*
X53335Y369463D01*
X57148Y369463D01*
X59055Y371370D01*
X59055Y375183D01*
X57148Y377089D01*
X55242Y377089D01*
X53335Y375183D01*
X53335Y369463D01*
D10*
X66548Y334780D02*
X72649Y334780D01*
X66548Y334780D02*
X66548Y325628D01*
X72649Y325628D01*
X69599Y330204D02*
X66548Y330204D01*
X75903Y325628D02*
X82004Y325628D01*
X75903Y325628D02*
X82004Y331729D01*
X82004Y333255D01*
X80479Y334780D01*
X77428Y334780D01*
X75903Y333255D01*
X85258Y333255D02*
X86784Y334780D01*
X89834Y334780D01*
X91360Y333255D01*
X91360Y331729D01*
X89834Y330204D01*
X91360Y328679D01*
X91360Y327153D01*
X89834Y325628D01*
X86784Y325628D01*
X85258Y327153D01*
X85258Y328679D01*
X86784Y330204D01*
X85258Y331729D01*
X85258Y333255D01*
X86784Y330204D02*
X89834Y330204D01*
X94614Y325628D02*
X100715Y334780D01*
X103969Y334780D02*
X110070Y334780D01*
X103969Y334780D02*
X103969Y325628D01*
X110070Y325628D01*
X107019Y330204D02*
X103969Y330204D01*
X113324Y325628D02*
X119425Y325628D01*
X113324Y325628D02*
X119425Y331729D01*
X119425Y333255D01*
X117900Y334780D01*
X114849Y334780D01*
X113324Y333255D01*
X122679Y327153D02*
X124204Y325628D01*
X127255Y325628D01*
X128780Y327153D01*
X128780Y333255D01*
X127255Y334780D01*
X124204Y334780D01*
X122679Y333255D01*
X122679Y331729D01*
X124204Y330204D01*
X128780Y330204D01*
X132034Y325628D02*
X138136Y334780D01*
X141390Y334780D02*
X147491Y334780D01*
X141390Y334780D02*
X141390Y325628D01*
X147491Y325628D01*
X144440Y330204D02*
X141390Y330204D01*
X150745Y325628D02*
X156846Y325628D01*
X150745Y325628D02*
X156846Y331729D01*
X156846Y333255D01*
X155321Y334780D01*
X152270Y334780D01*
X150745Y333255D01*
X160100Y334780D02*
X166201Y334780D01*
X166201Y333255D01*
X160100Y327153D01*
X160100Y325628D01*
D12*
X812800Y485140D02*
X812800Y505460D01*
X759460Y482600D02*
X739140Y482600D01*
X759460Y482600D02*
X762000Y485140D01*
X759460Y508000D02*
X739140Y508000D01*
X759460Y508000D02*
X762000Y505460D01*
X739140Y508000D02*
X736600Y505460D01*
X736600Y485140D02*
X739140Y482600D01*
X736600Y485140D02*
X736600Y505460D01*
X762000Y485140D02*
X764540Y482600D01*
X784860Y482600D01*
X787400Y485140D01*
X789940Y482600D01*
X810260Y482600D02*
X812800Y485140D01*
X810260Y482600D02*
X789940Y482600D01*
X764540Y508000D02*
X762000Y505460D01*
X784860Y508000D02*
X787400Y505460D01*
X789940Y508000D01*
X810260Y508000D02*
X812800Y505460D01*
X784860Y508000D02*
X764540Y508000D01*
X789940Y508000D02*
X810260Y508000D01*
D14*
X794495Y521342D02*
X791614Y518461D01*
X794495Y521342D02*
X794495Y512699D01*
X791614Y512699D02*
X797376Y512699D01*
X771976Y512699D02*
X766214Y512699D01*
X771976Y518461D01*
X771976Y519902D01*
X770535Y521342D01*
X767654Y521342D01*
X766214Y519902D01*
X742254Y521342D02*
X740814Y519902D01*
X742254Y521342D02*
X745135Y521342D01*
X746576Y519902D01*
X746576Y518461D01*
X745135Y517021D01*
X743695Y517021D01*
X745135Y517021D02*
X746576Y515580D01*
X746576Y514140D01*
X745135Y512699D01*
X742254Y512699D01*
X740814Y514140D01*
X775813Y468632D02*
X777720Y466725D01*
X779626Y466725D01*
X781533Y468632D01*
X781533Y478165D01*
X779626Y478165D02*
X783440Y478165D01*
X787507Y478165D02*
X787507Y466725D01*
X787507Y478165D02*
X793227Y478165D01*
X795134Y476258D01*
X795134Y472445D01*
X793227Y470538D01*
X787507Y470538D01*
X799201Y478165D02*
X806827Y478165D01*
X806827Y476258D01*
X799201Y468632D01*
X799201Y466725D01*
D10*
X742028Y537980D02*
X735926Y537980D01*
X735926Y528828D01*
X742028Y528828D01*
X738977Y533404D02*
X735926Y533404D01*
X745282Y537980D02*
X751383Y537980D01*
X751383Y536455D01*
X745282Y530353D01*
X745282Y528828D01*
X754637Y528828D02*
X760738Y537980D01*
X763992Y537980D02*
X770093Y537980D01*
X763992Y537980D02*
X763992Y528828D01*
X770093Y528828D01*
X767043Y533404D02*
X763992Y533404D01*
X773347Y536455D02*
X774872Y537980D01*
X777923Y537980D01*
X779448Y536455D01*
X779448Y534929D01*
X777923Y533404D01*
X779448Y531879D01*
X779448Y530353D01*
X777923Y528828D01*
X774872Y528828D01*
X773347Y530353D01*
X773347Y531879D01*
X774872Y533404D01*
X773347Y534929D01*
X773347Y536455D01*
X774872Y533404D02*
X777923Y533404D01*
X782702Y528828D02*
X788804Y537980D01*
X792058Y537980D02*
X798159Y537980D01*
X792058Y537980D02*
X792058Y528828D01*
X798159Y528828D01*
X795108Y533404D02*
X792058Y533404D01*
X804463Y536455D02*
X807514Y537980D01*
X804463Y536455D02*
X801413Y533404D01*
X801413Y530353D01*
X802938Y528828D01*
X805989Y528828D01*
X807514Y530353D01*
X807514Y531879D01*
X805989Y533404D01*
X801413Y533404D01*
D12*
X243840Y368300D02*
X241300Y365760D01*
X238760Y368300D01*
X241300Y345440D02*
X243840Y342900D01*
X241300Y345440D02*
X238760Y342900D01*
X218440Y342900D01*
X215900Y345440D01*
X264160Y342900D02*
X266700Y345440D01*
X264160Y342900D02*
X243840Y342900D01*
X266700Y345440D02*
X266700Y365760D01*
X264160Y368300D01*
X243840Y368300D01*
X238760Y368300D02*
X218440Y368300D01*
X215900Y365760D01*
X215900Y345440D01*
D14*
X218442Y372745D02*
X216535Y374652D01*
X218442Y372745D02*
X220348Y372745D01*
X222255Y374652D01*
X222255Y384185D01*
X220348Y384185D02*
X224162Y384185D01*
X228229Y384185D02*
X228229Y372745D01*
X228229Y384185D02*
X233949Y384185D01*
X235855Y382278D01*
X235855Y378465D01*
X233949Y376558D01*
X228229Y376558D01*
X239923Y382278D02*
X241830Y384185D01*
X245643Y384185D01*
X247549Y382278D01*
X247549Y380372D01*
X245643Y378465D01*
X247549Y376558D01*
X247549Y374652D01*
X245643Y372745D01*
X241830Y372745D01*
X239923Y374652D01*
X239923Y376558D01*
X241830Y378465D01*
X239923Y380372D01*
X239923Y382278D01*
X241830Y378465D02*
X245643Y378465D01*
D10*
X222509Y336050D02*
X216408Y336050D01*
X216408Y326898D01*
X222509Y326898D01*
X219459Y331474D02*
X216408Y331474D01*
X225763Y326898D02*
X231864Y326898D01*
X225763Y326898D02*
X231864Y332999D01*
X231864Y334525D01*
X230339Y336050D01*
X227288Y336050D01*
X225763Y334525D01*
X235118Y336050D02*
X241220Y336050D01*
X235118Y336050D02*
X235118Y331474D01*
X238169Y332999D01*
X239694Y332999D01*
X241220Y331474D01*
X241220Y328423D01*
X239694Y326898D01*
X236644Y326898D01*
X235118Y328423D01*
X244474Y326898D02*
X250575Y336050D01*
X253829Y336050D02*
X259930Y336050D01*
X253829Y336050D02*
X253829Y326898D01*
X259930Y326898D01*
X256879Y331474D02*
X253829Y331474D01*
X263184Y326898D02*
X269285Y326898D01*
X263184Y326898D02*
X269285Y332999D01*
X269285Y334525D01*
X267760Y336050D01*
X264709Y336050D01*
X263184Y334525D01*
X275590Y334525D02*
X278640Y336050D01*
X275590Y334525D02*
X272539Y331474D01*
X272539Y328423D01*
X274064Y326898D01*
X277115Y326898D01*
X278640Y328423D01*
X278640Y329949D01*
X277115Y331474D01*
X272539Y331474D01*
D12*
X876300Y359410D02*
X876300Y402590D01*
X901700Y402590D02*
X901700Y359410D01*
X899160Y405130D02*
X878840Y405130D01*
X878840Y356870D02*
X899160Y356870D01*
X876300Y402590D02*
X876302Y402690D01*
X876308Y402789D01*
X876318Y402889D01*
X876331Y402987D01*
X876349Y403086D01*
X876370Y403183D01*
X876395Y403279D01*
X876424Y403375D01*
X876457Y403469D01*
X876493Y403562D01*
X876533Y403653D01*
X876577Y403743D01*
X876624Y403831D01*
X876674Y403917D01*
X876728Y404001D01*
X876785Y404083D01*
X876845Y404162D01*
X876909Y404240D01*
X876975Y404314D01*
X877044Y404386D01*
X877116Y404455D01*
X877190Y404521D01*
X877268Y404585D01*
X877347Y404645D01*
X877429Y404702D01*
X877513Y404756D01*
X877599Y404806D01*
X877687Y404853D01*
X877777Y404897D01*
X877868Y404937D01*
X877961Y404973D01*
X878055Y405006D01*
X878151Y405035D01*
X878247Y405060D01*
X878344Y405081D01*
X878443Y405099D01*
X878541Y405112D01*
X878641Y405122D01*
X878740Y405128D01*
X878840Y405130D01*
X876300Y359410D02*
X876302Y359310D01*
X876308Y359211D01*
X876318Y359111D01*
X876331Y359013D01*
X876349Y358914D01*
X876370Y358817D01*
X876395Y358721D01*
X876424Y358625D01*
X876457Y358531D01*
X876493Y358438D01*
X876533Y358347D01*
X876577Y358257D01*
X876624Y358169D01*
X876674Y358083D01*
X876728Y357999D01*
X876785Y357917D01*
X876845Y357838D01*
X876909Y357760D01*
X876975Y357686D01*
X877044Y357614D01*
X877116Y357545D01*
X877190Y357479D01*
X877268Y357415D01*
X877347Y357355D01*
X877429Y357298D01*
X877513Y357244D01*
X877599Y357194D01*
X877687Y357147D01*
X877777Y357103D01*
X877868Y357063D01*
X877961Y357027D01*
X878055Y356994D01*
X878151Y356965D01*
X878247Y356940D01*
X878344Y356919D01*
X878443Y356901D01*
X878541Y356888D01*
X878641Y356878D01*
X878740Y356872D01*
X878840Y356870D01*
X901700Y402590D02*
X901698Y402690D01*
X901692Y402789D01*
X901682Y402889D01*
X901669Y402987D01*
X901651Y403086D01*
X901630Y403183D01*
X901605Y403279D01*
X901576Y403375D01*
X901543Y403469D01*
X901507Y403562D01*
X901467Y403653D01*
X901423Y403743D01*
X901376Y403831D01*
X901326Y403917D01*
X901272Y404001D01*
X901215Y404083D01*
X901155Y404162D01*
X901091Y404240D01*
X901025Y404314D01*
X900956Y404386D01*
X900884Y404455D01*
X900810Y404521D01*
X900732Y404585D01*
X900653Y404645D01*
X900571Y404702D01*
X900487Y404756D01*
X900401Y404806D01*
X900313Y404853D01*
X900223Y404897D01*
X900132Y404937D01*
X900039Y404973D01*
X899945Y405006D01*
X899849Y405035D01*
X899753Y405060D01*
X899656Y405081D01*
X899557Y405099D01*
X899459Y405112D01*
X899359Y405122D01*
X899260Y405128D01*
X899160Y405130D01*
X901700Y359410D02*
X901698Y359310D01*
X901692Y359211D01*
X901682Y359111D01*
X901669Y359013D01*
X901651Y358914D01*
X901630Y358817D01*
X901605Y358721D01*
X901576Y358625D01*
X901543Y358531D01*
X901507Y358438D01*
X901467Y358347D01*
X901423Y358257D01*
X901376Y358169D01*
X901326Y358083D01*
X901272Y357999D01*
X901215Y357917D01*
X901155Y357838D01*
X901091Y357760D01*
X901025Y357686D01*
X900956Y357614D01*
X900884Y357545D01*
X900810Y357479D01*
X900732Y357415D01*
X900653Y357355D01*
X900571Y357298D01*
X900487Y357244D01*
X900401Y357194D01*
X900313Y357147D01*
X900223Y357103D01*
X900132Y357063D01*
X900039Y357027D01*
X899945Y356994D01*
X899849Y356965D01*
X899753Y356940D01*
X899656Y356919D01*
X899557Y356901D01*
X899459Y356888D01*
X899359Y356878D01*
X899260Y356872D01*
X899160Y356870D01*
X889000Y383540D02*
X889000Y384810D01*
D13*
X889000Y383540D02*
X881380Y383540D01*
X889000Y383540D02*
X896620Y383540D01*
X889000Y378460D02*
X881380Y378460D01*
X889000Y378460D02*
X896620Y378460D01*
D12*
X889000Y378460D02*
X889000Y377190D01*
X821690Y114300D02*
X778510Y114300D01*
X778510Y88900D02*
X821690Y88900D01*
X824230Y91440D02*
X824230Y111760D01*
X775970Y111760D02*
X775970Y91440D01*
X821690Y114300D02*
X821790Y114298D01*
X821889Y114292D01*
X821989Y114282D01*
X822087Y114269D01*
X822186Y114251D01*
X822283Y114230D01*
X822379Y114205D01*
X822475Y114176D01*
X822569Y114143D01*
X822662Y114107D01*
X822753Y114067D01*
X822843Y114023D01*
X822931Y113976D01*
X823017Y113926D01*
X823101Y113872D01*
X823183Y113815D01*
X823262Y113755D01*
X823340Y113691D01*
X823414Y113625D01*
X823486Y113556D01*
X823555Y113484D01*
X823621Y113410D01*
X823685Y113332D01*
X823745Y113253D01*
X823802Y113171D01*
X823856Y113087D01*
X823906Y113001D01*
X823953Y112913D01*
X823997Y112823D01*
X824037Y112732D01*
X824073Y112639D01*
X824106Y112545D01*
X824135Y112449D01*
X824160Y112353D01*
X824181Y112256D01*
X824199Y112157D01*
X824212Y112059D01*
X824222Y111959D01*
X824228Y111860D01*
X824230Y111760D01*
X778510Y114300D02*
X778410Y114298D01*
X778311Y114292D01*
X778211Y114282D01*
X778113Y114269D01*
X778014Y114251D01*
X777917Y114230D01*
X777821Y114205D01*
X777725Y114176D01*
X777631Y114143D01*
X777538Y114107D01*
X777447Y114067D01*
X777357Y114023D01*
X777269Y113976D01*
X777183Y113926D01*
X777099Y113872D01*
X777017Y113815D01*
X776938Y113755D01*
X776860Y113691D01*
X776786Y113625D01*
X776714Y113556D01*
X776645Y113484D01*
X776579Y113410D01*
X776515Y113332D01*
X776455Y113253D01*
X776398Y113171D01*
X776344Y113087D01*
X776294Y113001D01*
X776247Y112913D01*
X776203Y112823D01*
X776163Y112732D01*
X776127Y112639D01*
X776094Y112545D01*
X776065Y112449D01*
X776040Y112353D01*
X776019Y112256D01*
X776001Y112157D01*
X775988Y112059D01*
X775978Y111959D01*
X775972Y111860D01*
X775970Y111760D01*
X821690Y88900D02*
X821790Y88902D01*
X821889Y88908D01*
X821989Y88918D01*
X822087Y88931D01*
X822186Y88949D01*
X822283Y88970D01*
X822379Y88995D01*
X822475Y89024D01*
X822569Y89057D01*
X822662Y89093D01*
X822753Y89133D01*
X822843Y89177D01*
X822931Y89224D01*
X823017Y89274D01*
X823101Y89328D01*
X823183Y89385D01*
X823262Y89445D01*
X823340Y89509D01*
X823414Y89575D01*
X823486Y89644D01*
X823555Y89716D01*
X823621Y89790D01*
X823685Y89868D01*
X823745Y89947D01*
X823802Y90029D01*
X823856Y90113D01*
X823906Y90199D01*
X823953Y90287D01*
X823997Y90377D01*
X824037Y90468D01*
X824073Y90561D01*
X824106Y90655D01*
X824135Y90751D01*
X824160Y90847D01*
X824181Y90944D01*
X824199Y91043D01*
X824212Y91141D01*
X824222Y91241D01*
X824228Y91340D01*
X824230Y91440D01*
X778510Y88900D02*
X778410Y88902D01*
X778311Y88908D01*
X778211Y88918D01*
X778113Y88931D01*
X778014Y88949D01*
X777917Y88970D01*
X777821Y88995D01*
X777725Y89024D01*
X777631Y89057D01*
X777538Y89093D01*
X777447Y89133D01*
X777357Y89177D01*
X777269Y89224D01*
X777183Y89274D01*
X777099Y89328D01*
X777017Y89385D01*
X776938Y89445D01*
X776860Y89509D01*
X776786Y89575D01*
X776714Y89644D01*
X776645Y89716D01*
X776579Y89790D01*
X776515Y89868D01*
X776455Y89947D01*
X776398Y90029D01*
X776344Y90113D01*
X776294Y90199D01*
X776247Y90287D01*
X776203Y90377D01*
X776163Y90468D01*
X776127Y90561D01*
X776094Y90655D01*
X776065Y90751D01*
X776040Y90847D01*
X776019Y90944D01*
X776001Y91043D01*
X775988Y91141D01*
X775978Y91241D01*
X775972Y91340D01*
X775970Y91440D01*
X802640Y101600D02*
X803910Y101600D01*
D13*
X802640Y101600D02*
X802640Y109220D01*
X802640Y101600D02*
X802640Y93980D01*
X797560Y101600D02*
X797560Y109220D01*
X797560Y101600D02*
X797560Y93980D01*
D12*
X797560Y101600D02*
X796290Y101600D01*
D14*
X785502Y127008D02*
X783595Y128915D01*
X779782Y128915D01*
X777875Y127008D01*
X777875Y119382D01*
X779782Y117475D01*
X783595Y117475D01*
X785502Y119382D01*
X789569Y127008D02*
X791476Y128915D01*
X795289Y128915D01*
X797195Y127008D01*
X797195Y125102D01*
X795289Y123195D01*
X793382Y123195D01*
X795289Y123195D02*
X797195Y121288D01*
X797195Y119382D01*
X795289Y117475D01*
X791476Y117475D01*
X789569Y119382D01*
X777875Y83828D02*
X777875Y76202D01*
X777875Y83828D02*
X779782Y85735D01*
X783595Y85735D01*
X785502Y83828D01*
X785502Y76202D01*
X783595Y74295D01*
X779782Y74295D01*
X777875Y76202D01*
X785502Y83828D01*
X789569Y76202D02*
X789569Y74295D01*
X789569Y76202D02*
X791476Y76202D01*
X791476Y74295D01*
X789569Y74295D01*
X795416Y81922D02*
X799229Y85735D01*
X799229Y74295D01*
X795416Y74295D02*
X803042Y74295D01*
X807110Y76202D02*
X807110Y81922D01*
X807110Y76202D02*
X809017Y74295D01*
X814736Y74295D01*
X814736Y81922D01*
X818804Y85735D02*
X818804Y74295D01*
X818804Y85735D02*
X826430Y85735D01*
X822617Y80015D02*
X818804Y80015D01*
D12*
X364490Y342900D02*
X321310Y342900D01*
X321310Y317500D02*
X364490Y317500D01*
X367030Y320040D02*
X367030Y340360D01*
X318770Y340360D02*
X318770Y320040D01*
X364490Y342900D02*
X364590Y342898D01*
X364689Y342892D01*
X364789Y342882D01*
X364887Y342869D01*
X364986Y342851D01*
X365083Y342830D01*
X365179Y342805D01*
X365275Y342776D01*
X365369Y342743D01*
X365462Y342707D01*
X365553Y342667D01*
X365643Y342623D01*
X365731Y342576D01*
X365817Y342526D01*
X365901Y342472D01*
X365983Y342415D01*
X366062Y342355D01*
X366140Y342291D01*
X366214Y342225D01*
X366286Y342156D01*
X366355Y342084D01*
X366421Y342010D01*
X366485Y341932D01*
X366545Y341853D01*
X366602Y341771D01*
X366656Y341687D01*
X366706Y341601D01*
X366753Y341513D01*
X366797Y341423D01*
X366837Y341332D01*
X366873Y341239D01*
X366906Y341145D01*
X366935Y341049D01*
X366960Y340953D01*
X366981Y340856D01*
X366999Y340757D01*
X367012Y340659D01*
X367022Y340559D01*
X367028Y340460D01*
X367030Y340360D01*
X321310Y342900D02*
X321210Y342898D01*
X321111Y342892D01*
X321011Y342882D01*
X320913Y342869D01*
X320814Y342851D01*
X320717Y342830D01*
X320621Y342805D01*
X320525Y342776D01*
X320431Y342743D01*
X320338Y342707D01*
X320247Y342667D01*
X320157Y342623D01*
X320069Y342576D01*
X319983Y342526D01*
X319899Y342472D01*
X319817Y342415D01*
X319738Y342355D01*
X319660Y342291D01*
X319586Y342225D01*
X319514Y342156D01*
X319445Y342084D01*
X319379Y342010D01*
X319315Y341932D01*
X319255Y341853D01*
X319198Y341771D01*
X319144Y341687D01*
X319094Y341601D01*
X319047Y341513D01*
X319003Y341423D01*
X318963Y341332D01*
X318927Y341239D01*
X318894Y341145D01*
X318865Y341049D01*
X318840Y340953D01*
X318819Y340856D01*
X318801Y340757D01*
X318788Y340659D01*
X318778Y340559D01*
X318772Y340460D01*
X318770Y340360D01*
X364490Y317500D02*
X364590Y317502D01*
X364689Y317508D01*
X364789Y317518D01*
X364887Y317531D01*
X364986Y317549D01*
X365083Y317570D01*
X365179Y317595D01*
X365275Y317624D01*
X365369Y317657D01*
X365462Y317693D01*
X365553Y317733D01*
X365643Y317777D01*
X365731Y317824D01*
X365817Y317874D01*
X365901Y317928D01*
X365983Y317985D01*
X366062Y318045D01*
X366140Y318109D01*
X366214Y318175D01*
X366286Y318244D01*
X366355Y318316D01*
X366421Y318390D01*
X366485Y318468D01*
X366545Y318547D01*
X366602Y318629D01*
X366656Y318713D01*
X366706Y318799D01*
X366753Y318887D01*
X366797Y318977D01*
X366837Y319068D01*
X366873Y319161D01*
X366906Y319255D01*
X366935Y319351D01*
X366960Y319447D01*
X366981Y319544D01*
X366999Y319643D01*
X367012Y319741D01*
X367022Y319841D01*
X367028Y319940D01*
X367030Y320040D01*
X321310Y317500D02*
X321210Y317502D01*
X321111Y317508D01*
X321011Y317518D01*
X320913Y317531D01*
X320814Y317549D01*
X320717Y317570D01*
X320621Y317595D01*
X320525Y317624D01*
X320431Y317657D01*
X320338Y317693D01*
X320247Y317733D01*
X320157Y317777D01*
X320069Y317824D01*
X319983Y317874D01*
X319899Y317928D01*
X319817Y317985D01*
X319738Y318045D01*
X319660Y318109D01*
X319586Y318175D01*
X319514Y318244D01*
X319445Y318316D01*
X319379Y318390D01*
X319315Y318468D01*
X319255Y318547D01*
X319198Y318629D01*
X319144Y318713D01*
X319094Y318799D01*
X319047Y318887D01*
X319003Y318977D01*
X318963Y319068D01*
X318927Y319161D01*
X318894Y319255D01*
X318865Y319351D01*
X318840Y319447D01*
X318819Y319544D01*
X318801Y319643D01*
X318788Y319741D01*
X318778Y319841D01*
X318772Y319940D01*
X318770Y320040D01*
X345440Y330200D02*
X346710Y330200D01*
D13*
X345440Y330200D02*
X345440Y337820D01*
X345440Y330200D02*
X345440Y322580D01*
X340360Y330200D02*
X340360Y337820D01*
X340360Y330200D02*
X340360Y322580D01*
D12*
X340360Y330200D02*
X339090Y330200D01*
D14*
X328302Y355608D02*
X326395Y357515D01*
X322582Y357515D01*
X320675Y355608D01*
X320675Y347982D01*
X322582Y346075D01*
X326395Y346075D01*
X328302Y347982D01*
X338089Y346075D02*
X338089Y357515D01*
X332369Y351795D01*
X339995Y351795D01*
X320675Y312428D02*
X320675Y304802D01*
X320675Y312428D02*
X322582Y314335D01*
X326395Y314335D01*
X328302Y312428D01*
X328302Y304802D01*
X326395Y302895D01*
X322582Y302895D01*
X320675Y304802D01*
X328302Y312428D01*
X332369Y304802D02*
X332369Y302895D01*
X332369Y304802D02*
X334276Y304802D01*
X334276Y302895D01*
X332369Y302895D01*
X338216Y310522D02*
X342029Y314335D01*
X342029Y302895D01*
X338216Y302895D02*
X345842Y302895D01*
X349910Y304802D02*
X349910Y310522D01*
X349910Y304802D02*
X351817Y302895D01*
X357536Y302895D01*
X357536Y310522D01*
X361604Y314335D02*
X361604Y302895D01*
X361604Y314335D02*
X369230Y314335D01*
X365417Y308615D02*
X361604Y308615D01*
D12*
X173990Y127000D02*
X130810Y127000D01*
X130810Y101600D02*
X173990Y101600D01*
X176530Y104140D02*
X176530Y124460D01*
X128270Y124460D02*
X128270Y104140D01*
X173990Y127000D02*
X174090Y126998D01*
X174189Y126992D01*
X174289Y126982D01*
X174387Y126969D01*
X174486Y126951D01*
X174583Y126930D01*
X174679Y126905D01*
X174775Y126876D01*
X174869Y126843D01*
X174962Y126807D01*
X175053Y126767D01*
X175143Y126723D01*
X175231Y126676D01*
X175317Y126626D01*
X175401Y126572D01*
X175483Y126515D01*
X175562Y126455D01*
X175640Y126391D01*
X175714Y126325D01*
X175786Y126256D01*
X175855Y126184D01*
X175921Y126110D01*
X175985Y126032D01*
X176045Y125953D01*
X176102Y125871D01*
X176156Y125787D01*
X176206Y125701D01*
X176253Y125613D01*
X176297Y125523D01*
X176337Y125432D01*
X176373Y125339D01*
X176406Y125245D01*
X176435Y125149D01*
X176460Y125053D01*
X176481Y124956D01*
X176499Y124857D01*
X176512Y124759D01*
X176522Y124659D01*
X176528Y124560D01*
X176530Y124460D01*
X130810Y127000D02*
X130710Y126998D01*
X130611Y126992D01*
X130511Y126982D01*
X130413Y126969D01*
X130314Y126951D01*
X130217Y126930D01*
X130121Y126905D01*
X130025Y126876D01*
X129931Y126843D01*
X129838Y126807D01*
X129747Y126767D01*
X129657Y126723D01*
X129569Y126676D01*
X129483Y126626D01*
X129399Y126572D01*
X129317Y126515D01*
X129238Y126455D01*
X129160Y126391D01*
X129086Y126325D01*
X129014Y126256D01*
X128945Y126184D01*
X128879Y126110D01*
X128815Y126032D01*
X128755Y125953D01*
X128698Y125871D01*
X128644Y125787D01*
X128594Y125701D01*
X128547Y125613D01*
X128503Y125523D01*
X128463Y125432D01*
X128427Y125339D01*
X128394Y125245D01*
X128365Y125149D01*
X128340Y125053D01*
X128319Y124956D01*
X128301Y124857D01*
X128288Y124759D01*
X128278Y124659D01*
X128272Y124560D01*
X128270Y124460D01*
X173990Y101600D02*
X174090Y101602D01*
X174189Y101608D01*
X174289Y101618D01*
X174387Y101631D01*
X174486Y101649D01*
X174583Y101670D01*
X174679Y101695D01*
X174775Y101724D01*
X174869Y101757D01*
X174962Y101793D01*
X175053Y101833D01*
X175143Y101877D01*
X175231Y101924D01*
X175317Y101974D01*
X175401Y102028D01*
X175483Y102085D01*
X175562Y102145D01*
X175640Y102209D01*
X175714Y102275D01*
X175786Y102344D01*
X175855Y102416D01*
X175921Y102490D01*
X175985Y102568D01*
X176045Y102647D01*
X176102Y102729D01*
X176156Y102813D01*
X176206Y102899D01*
X176253Y102987D01*
X176297Y103077D01*
X176337Y103168D01*
X176373Y103261D01*
X176406Y103355D01*
X176435Y103451D01*
X176460Y103547D01*
X176481Y103644D01*
X176499Y103743D01*
X176512Y103841D01*
X176522Y103941D01*
X176528Y104040D01*
X176530Y104140D01*
X130810Y101600D02*
X130710Y101602D01*
X130611Y101608D01*
X130511Y101618D01*
X130413Y101631D01*
X130314Y101649D01*
X130217Y101670D01*
X130121Y101695D01*
X130025Y101724D01*
X129931Y101757D01*
X129838Y101793D01*
X129747Y101833D01*
X129657Y101877D01*
X129569Y101924D01*
X129483Y101974D01*
X129399Y102028D01*
X129317Y102085D01*
X129238Y102145D01*
X129160Y102209D01*
X129086Y102275D01*
X129014Y102344D01*
X128945Y102416D01*
X128879Y102490D01*
X128815Y102568D01*
X128755Y102647D01*
X128698Y102729D01*
X128644Y102813D01*
X128594Y102899D01*
X128547Y102987D01*
X128503Y103077D01*
X128463Y103168D01*
X128427Y103261D01*
X128394Y103355D01*
X128365Y103451D01*
X128340Y103547D01*
X128319Y103644D01*
X128301Y103743D01*
X128288Y103841D01*
X128278Y103941D01*
X128272Y104040D01*
X128270Y104140D01*
X154940Y114300D02*
X156210Y114300D01*
D13*
X154940Y114300D02*
X154940Y121920D01*
X154940Y114300D02*
X154940Y106680D01*
X149860Y114300D02*
X149860Y121920D01*
X149860Y114300D02*
X149860Y106680D01*
D12*
X149860Y114300D02*
X148590Y114300D01*
X74930Y63500D02*
X72390Y63500D01*
X74930Y63500D02*
X74930Y60960D01*
X74930Y63500D02*
X77470Y63500D01*
X74930Y63500D02*
X74930Y66040D01*
X63500Y50800D02*
X63508Y51423D01*
X63531Y52046D01*
X63569Y52669D01*
X63622Y53290D01*
X63691Y53909D01*
X63775Y54527D01*
X63874Y55142D01*
X63988Y55755D01*
X64117Y56365D01*
X64261Y56972D01*
X64420Y57575D01*
X64594Y58173D01*
X64782Y58768D01*
X64985Y59357D01*
X65202Y59941D01*
X65433Y60520D01*
X65679Y61093D01*
X65939Y61660D01*
X66212Y62220D01*
X66499Y62773D01*
X66800Y63320D01*
X67114Y63858D01*
X67441Y64389D01*
X67781Y64911D01*
X68133Y65426D01*
X68499Y65931D01*
X68876Y66427D01*
X69266Y66914D01*
X69667Y67391D01*
X70080Y67858D01*
X70504Y68314D01*
X70939Y68761D01*
X71386Y69196D01*
X71842Y69620D01*
X72309Y70033D01*
X72786Y70434D01*
X73273Y70824D01*
X73769Y71201D01*
X74274Y71567D01*
X74789Y71919D01*
X75311Y72259D01*
X75842Y72586D01*
X76380Y72900D01*
X76927Y73201D01*
X77480Y73488D01*
X78040Y73761D01*
X78607Y74021D01*
X79180Y74267D01*
X79759Y74498D01*
X80343Y74715D01*
X80932Y74918D01*
X81527Y75106D01*
X82125Y75280D01*
X82728Y75439D01*
X83335Y75583D01*
X83945Y75712D01*
X84558Y75826D01*
X85173Y75925D01*
X85791Y76009D01*
X86410Y76078D01*
X87031Y76131D01*
X87654Y76169D01*
X88277Y76192D01*
X88900Y76200D01*
X89523Y76192D01*
X90146Y76169D01*
X90769Y76131D01*
X91390Y76078D01*
X92009Y76009D01*
X92627Y75925D01*
X93242Y75826D01*
X93855Y75712D01*
X94465Y75583D01*
X95072Y75439D01*
X95675Y75280D01*
X96273Y75106D01*
X96868Y74918D01*
X97457Y74715D01*
X98041Y74498D01*
X98620Y74267D01*
X99193Y74021D01*
X99760Y73761D01*
X100320Y73488D01*
X100873Y73201D01*
X101420Y72900D01*
X101958Y72586D01*
X102489Y72259D01*
X103011Y71919D01*
X103526Y71567D01*
X104031Y71201D01*
X104527Y70824D01*
X105014Y70434D01*
X105491Y70033D01*
X105958Y69620D01*
X106414Y69196D01*
X106861Y68761D01*
X107296Y68314D01*
X107720Y67858D01*
X108133Y67391D01*
X108534Y66914D01*
X108924Y66427D01*
X109301Y65931D01*
X109667Y65426D01*
X110019Y64911D01*
X110359Y64389D01*
X110686Y63858D01*
X111000Y63320D01*
X111301Y62773D01*
X111588Y62220D01*
X111861Y61660D01*
X112121Y61093D01*
X112367Y60520D01*
X112598Y59941D01*
X112815Y59357D01*
X113018Y58768D01*
X113206Y58173D01*
X113380Y57575D01*
X113539Y56972D01*
X113683Y56365D01*
X113812Y55755D01*
X113926Y55142D01*
X114025Y54527D01*
X114109Y53909D01*
X114178Y53290D01*
X114231Y52669D01*
X114269Y52046D01*
X114292Y51423D01*
X114300Y50800D01*
X114292Y50177D01*
X114269Y49554D01*
X114231Y48931D01*
X114178Y48310D01*
X114109Y47691D01*
X114025Y47073D01*
X113926Y46458D01*
X113812Y45845D01*
X113683Y45235D01*
X113539Y44628D01*
X113380Y44025D01*
X113206Y43427D01*
X113018Y42832D01*
X112815Y42243D01*
X112598Y41659D01*
X112367Y41080D01*
X112121Y40507D01*
X111861Y39940D01*
X111588Y39380D01*
X111301Y38827D01*
X111000Y38280D01*
X110686Y37742D01*
X110359Y37211D01*
X110019Y36689D01*
X109667Y36174D01*
X109301Y35669D01*
X108924Y35173D01*
X108534Y34686D01*
X108133Y34209D01*
X107720Y33742D01*
X107296Y33286D01*
X106861Y32839D01*
X106414Y32404D01*
X105958Y31980D01*
X105491Y31567D01*
X105014Y31166D01*
X104527Y30776D01*
X104031Y30399D01*
X103526Y30033D01*
X103011Y29681D01*
X102489Y29341D01*
X101958Y29014D01*
X101420Y28700D01*
X100873Y28399D01*
X100320Y28112D01*
X99760Y27839D01*
X99193Y27579D01*
X98620Y27333D01*
X98041Y27102D01*
X97457Y26885D01*
X96868Y26682D01*
X96273Y26494D01*
X95675Y26320D01*
X95072Y26161D01*
X94465Y26017D01*
X93855Y25888D01*
X93242Y25774D01*
X92627Y25675D01*
X92009Y25591D01*
X91390Y25522D01*
X90769Y25469D01*
X90146Y25431D01*
X89523Y25408D01*
X88900Y25400D01*
X88277Y25408D01*
X87654Y25431D01*
X87031Y25469D01*
X86410Y25522D01*
X85791Y25591D01*
X85173Y25675D01*
X84558Y25774D01*
X83945Y25888D01*
X83335Y26017D01*
X82728Y26161D01*
X82125Y26320D01*
X81527Y26494D01*
X80932Y26682D01*
X80343Y26885D01*
X79759Y27102D01*
X79180Y27333D01*
X78607Y27579D01*
X78040Y27839D01*
X77480Y28112D01*
X76927Y28399D01*
X76380Y28700D01*
X75842Y29014D01*
X75311Y29341D01*
X74789Y29681D01*
X74274Y30033D01*
X73769Y30399D01*
X73273Y30776D01*
X72786Y31166D01*
X72309Y31567D01*
X71842Y31980D01*
X71386Y32404D01*
X70939Y32839D01*
X70504Y33286D01*
X70080Y33742D01*
X69667Y34209D01*
X69266Y34686D01*
X68876Y35173D01*
X68499Y35669D01*
X68133Y36174D01*
X67781Y36689D01*
X67441Y37211D01*
X67114Y37742D01*
X66800Y38280D01*
X66499Y38827D01*
X66212Y39380D01*
X65939Y39940D01*
X65679Y40507D01*
X65433Y41080D01*
X65202Y41659D01*
X64985Y42243D01*
X64782Y42832D01*
X64594Y43427D01*
X64420Y44025D01*
X64261Y44628D01*
X64117Y45235D01*
X63988Y45845D01*
X63874Y46458D01*
X63775Y47073D01*
X63691Y47691D01*
X63622Y48310D01*
X63569Y48931D01*
X63531Y49554D01*
X63508Y50177D01*
X63500Y50800D01*
D14*
X119385Y75575D02*
X121292Y73668D01*
X119385Y75575D02*
X115572Y75575D01*
X113665Y73668D01*
X113665Y66042D01*
X115572Y64135D01*
X119385Y64135D01*
X121292Y66042D01*
X125359Y71762D02*
X129172Y75575D01*
X129172Y64135D01*
X125359Y64135D02*
X132985Y64135D01*
X140866Y73668D02*
X144679Y75575D01*
X140866Y73668D02*
X137053Y69855D01*
X137053Y66042D01*
X138960Y64135D01*
X142773Y64135D01*
X144679Y66042D01*
X144679Y67948D01*
X142773Y69855D01*
X137053Y69855D01*
X117478Y38745D02*
X113665Y34932D01*
X117478Y38745D02*
X117478Y27305D01*
X113665Y27305D02*
X121292Y27305D01*
X125359Y29212D02*
X125359Y36838D01*
X127266Y38745D01*
X131079Y38745D01*
X132985Y36838D01*
X132985Y29212D01*
X131079Y27305D01*
X127266Y27305D01*
X125359Y29212D01*
X132985Y36838D01*
X137053Y36838D02*
X137053Y29212D01*
X137053Y36838D02*
X138960Y38745D01*
X142773Y38745D01*
X144679Y36838D01*
X144679Y29212D01*
X142773Y27305D01*
X138960Y27305D01*
X137053Y29212D01*
X144679Y36838D01*
X148747Y34932D02*
X148747Y29212D01*
X150654Y27305D01*
X156373Y27305D01*
X156373Y34932D01*
X160441Y38745D02*
X160441Y27305D01*
X160441Y38745D02*
X168067Y38745D01*
X164254Y33025D02*
X160441Y33025D01*
D12*
X707390Y63500D02*
X709930Y63500D01*
X709930Y60960D01*
X709930Y63500D02*
X712470Y63500D01*
X709930Y63500D02*
X709930Y66040D01*
X698500Y50800D02*
X698508Y51423D01*
X698531Y52046D01*
X698569Y52669D01*
X698622Y53290D01*
X698691Y53909D01*
X698775Y54527D01*
X698874Y55142D01*
X698988Y55755D01*
X699117Y56365D01*
X699261Y56972D01*
X699420Y57575D01*
X699594Y58173D01*
X699782Y58768D01*
X699985Y59357D01*
X700202Y59941D01*
X700433Y60520D01*
X700679Y61093D01*
X700939Y61660D01*
X701212Y62220D01*
X701499Y62773D01*
X701800Y63320D01*
X702114Y63858D01*
X702441Y64389D01*
X702781Y64911D01*
X703133Y65426D01*
X703499Y65931D01*
X703876Y66427D01*
X704266Y66914D01*
X704667Y67391D01*
X705080Y67858D01*
X705504Y68314D01*
X705939Y68761D01*
X706386Y69196D01*
X706842Y69620D01*
X707309Y70033D01*
X707786Y70434D01*
X708273Y70824D01*
X708769Y71201D01*
X709274Y71567D01*
X709789Y71919D01*
X710311Y72259D01*
X710842Y72586D01*
X711380Y72900D01*
X711927Y73201D01*
X712480Y73488D01*
X713040Y73761D01*
X713607Y74021D01*
X714180Y74267D01*
X714759Y74498D01*
X715343Y74715D01*
X715932Y74918D01*
X716527Y75106D01*
X717125Y75280D01*
X717728Y75439D01*
X718335Y75583D01*
X718945Y75712D01*
X719558Y75826D01*
X720173Y75925D01*
X720791Y76009D01*
X721410Y76078D01*
X722031Y76131D01*
X722654Y76169D01*
X723277Y76192D01*
X723900Y76200D01*
X724523Y76192D01*
X725146Y76169D01*
X725769Y76131D01*
X726390Y76078D01*
X727009Y76009D01*
X727627Y75925D01*
X728242Y75826D01*
X728855Y75712D01*
X729465Y75583D01*
X730072Y75439D01*
X730675Y75280D01*
X731273Y75106D01*
X731868Y74918D01*
X732457Y74715D01*
X733041Y74498D01*
X733620Y74267D01*
X734193Y74021D01*
X734760Y73761D01*
X735320Y73488D01*
X735873Y73201D01*
X736420Y72900D01*
X736958Y72586D01*
X737489Y72259D01*
X738011Y71919D01*
X738526Y71567D01*
X739031Y71201D01*
X739527Y70824D01*
X740014Y70434D01*
X740491Y70033D01*
X740958Y69620D01*
X741414Y69196D01*
X741861Y68761D01*
X742296Y68314D01*
X742720Y67858D01*
X743133Y67391D01*
X743534Y66914D01*
X743924Y66427D01*
X744301Y65931D01*
X744667Y65426D01*
X745019Y64911D01*
X745359Y64389D01*
X745686Y63858D01*
X746000Y63320D01*
X746301Y62773D01*
X746588Y62220D01*
X746861Y61660D01*
X747121Y61093D01*
X747367Y60520D01*
X747598Y59941D01*
X747815Y59357D01*
X748018Y58768D01*
X748206Y58173D01*
X748380Y57575D01*
X748539Y56972D01*
X748683Y56365D01*
X748812Y55755D01*
X748926Y55142D01*
X749025Y54527D01*
X749109Y53909D01*
X749178Y53290D01*
X749231Y52669D01*
X749269Y52046D01*
X749292Y51423D01*
X749300Y50800D01*
X749292Y50177D01*
X749269Y49554D01*
X749231Y48931D01*
X749178Y48310D01*
X749109Y47691D01*
X749025Y47073D01*
X748926Y46458D01*
X748812Y45845D01*
X748683Y45235D01*
X748539Y44628D01*
X748380Y44025D01*
X748206Y43427D01*
X748018Y42832D01*
X747815Y42243D01*
X747598Y41659D01*
X747367Y41080D01*
X747121Y40507D01*
X746861Y39940D01*
X746588Y39380D01*
X746301Y38827D01*
X746000Y38280D01*
X745686Y37742D01*
X745359Y37211D01*
X745019Y36689D01*
X744667Y36174D01*
X744301Y35669D01*
X743924Y35173D01*
X743534Y34686D01*
X743133Y34209D01*
X742720Y33742D01*
X742296Y33286D01*
X741861Y32839D01*
X741414Y32404D01*
X740958Y31980D01*
X740491Y31567D01*
X740014Y31166D01*
X739527Y30776D01*
X739031Y30399D01*
X738526Y30033D01*
X738011Y29681D01*
X737489Y29341D01*
X736958Y29014D01*
X736420Y28700D01*
X735873Y28399D01*
X735320Y28112D01*
X734760Y27839D01*
X734193Y27579D01*
X733620Y27333D01*
X733041Y27102D01*
X732457Y26885D01*
X731868Y26682D01*
X731273Y26494D01*
X730675Y26320D01*
X730072Y26161D01*
X729465Y26017D01*
X728855Y25888D01*
X728242Y25774D01*
X727627Y25675D01*
X727009Y25591D01*
X726390Y25522D01*
X725769Y25469D01*
X725146Y25431D01*
X724523Y25408D01*
X723900Y25400D01*
X723277Y25408D01*
X722654Y25431D01*
X722031Y25469D01*
X721410Y25522D01*
X720791Y25591D01*
X720173Y25675D01*
X719558Y25774D01*
X718945Y25888D01*
X718335Y26017D01*
X717728Y26161D01*
X717125Y26320D01*
X716527Y26494D01*
X715932Y26682D01*
X715343Y26885D01*
X714759Y27102D01*
X714180Y27333D01*
X713607Y27579D01*
X713040Y27839D01*
X712480Y28112D01*
X711927Y28399D01*
X711380Y28700D01*
X710842Y29014D01*
X710311Y29341D01*
X709789Y29681D01*
X709274Y30033D01*
X708769Y30399D01*
X708273Y30776D01*
X707786Y31166D01*
X707309Y31567D01*
X706842Y31980D01*
X706386Y32404D01*
X705939Y32839D01*
X705504Y33286D01*
X705080Y33742D01*
X704667Y34209D01*
X704266Y34686D01*
X703876Y35173D01*
X703499Y35669D01*
X703133Y36174D01*
X702781Y36689D01*
X702441Y37211D01*
X702114Y37742D01*
X701800Y38280D01*
X701499Y38827D01*
X701212Y39380D01*
X700939Y39940D01*
X700679Y40507D01*
X700433Y41080D01*
X700202Y41659D01*
X699985Y42243D01*
X699782Y42832D01*
X699594Y43427D01*
X699420Y44025D01*
X699261Y44628D01*
X699117Y45235D01*
X698988Y45845D01*
X698874Y46458D01*
X698775Y47073D01*
X698691Y47691D01*
X698622Y48310D01*
X698569Y48931D01*
X698531Y49554D01*
X698508Y50177D01*
X698500Y50800D01*
D14*
X754385Y75575D02*
X756292Y73668D01*
X754385Y75575D02*
X750572Y75575D01*
X748665Y73668D01*
X748665Y66042D01*
X750572Y64135D01*
X754385Y64135D01*
X756292Y66042D01*
X764172Y73668D02*
X767985Y75575D01*
X764172Y73668D02*
X760359Y69855D01*
X760359Y66042D01*
X762266Y64135D01*
X766079Y64135D01*
X767985Y66042D01*
X767985Y67948D01*
X766079Y69855D01*
X760359Y69855D01*
X752478Y38745D02*
X748665Y34932D01*
X752478Y38745D02*
X752478Y27305D01*
X748665Y27305D02*
X756292Y27305D01*
X760359Y29212D02*
X760359Y36838D01*
X762266Y38745D01*
X766079Y38745D01*
X767985Y36838D01*
X767985Y29212D01*
X766079Y27305D01*
X762266Y27305D01*
X760359Y29212D01*
X767985Y36838D01*
X772053Y36838D02*
X772053Y29212D01*
X772053Y36838D02*
X773960Y38745D01*
X777773Y38745D01*
X779679Y36838D01*
X779679Y29212D01*
X777773Y27305D01*
X773960Y27305D01*
X772053Y29212D01*
X779679Y36838D01*
X783747Y34932D02*
X783747Y29212D01*
X785654Y27305D01*
X791373Y27305D01*
X791373Y34932D01*
X795441Y38745D02*
X795441Y27305D01*
X795441Y38745D02*
X803067Y38745D01*
X799254Y33025D02*
X795441Y33025D01*
D12*
X594360Y497840D02*
X594460Y497842D01*
X594559Y497848D01*
X594659Y497858D01*
X594757Y497871D01*
X594856Y497889D01*
X594953Y497910D01*
X595049Y497935D01*
X595145Y497964D01*
X595239Y497997D01*
X595332Y498033D01*
X595423Y498073D01*
X595513Y498117D01*
X595601Y498164D01*
X595687Y498214D01*
X595771Y498268D01*
X595853Y498325D01*
X595932Y498385D01*
X596010Y498449D01*
X596084Y498515D01*
X596156Y498584D01*
X596225Y498656D01*
X596291Y498730D01*
X596355Y498808D01*
X596415Y498887D01*
X596472Y498969D01*
X596526Y499053D01*
X596576Y499139D01*
X596623Y499227D01*
X596667Y499317D01*
X596707Y499408D01*
X596743Y499501D01*
X596776Y499595D01*
X596805Y499691D01*
X596830Y499787D01*
X596851Y499884D01*
X596869Y499983D01*
X596882Y500081D01*
X596892Y500181D01*
X596898Y500280D01*
X596900Y500380D01*
X596900Y515620D02*
X596898Y515720D01*
X596892Y515819D01*
X596882Y515919D01*
X596869Y516017D01*
X596851Y516116D01*
X596830Y516213D01*
X596805Y516309D01*
X596776Y516405D01*
X596743Y516499D01*
X596707Y516592D01*
X596667Y516683D01*
X596623Y516773D01*
X596576Y516861D01*
X596526Y516947D01*
X596472Y517031D01*
X596415Y517113D01*
X596355Y517192D01*
X596291Y517270D01*
X596225Y517344D01*
X596156Y517416D01*
X596084Y517485D01*
X596010Y517551D01*
X595932Y517615D01*
X595853Y517675D01*
X595771Y517732D01*
X595687Y517786D01*
X595601Y517836D01*
X595513Y517883D01*
X595423Y517927D01*
X595332Y517967D01*
X595239Y518003D01*
X595145Y518036D01*
X595049Y518065D01*
X594953Y518090D01*
X594856Y518111D01*
X594757Y518129D01*
X594659Y518142D01*
X594559Y518152D01*
X594460Y518158D01*
X594360Y518160D01*
X548640Y518160D02*
X548540Y518158D01*
X548441Y518152D01*
X548341Y518142D01*
X548243Y518129D01*
X548144Y518111D01*
X548047Y518090D01*
X547951Y518065D01*
X547855Y518036D01*
X547761Y518003D01*
X547668Y517967D01*
X547577Y517927D01*
X547487Y517883D01*
X547399Y517836D01*
X547313Y517786D01*
X547229Y517732D01*
X547147Y517675D01*
X547068Y517615D01*
X546990Y517551D01*
X546916Y517485D01*
X546844Y517416D01*
X546775Y517344D01*
X546709Y517270D01*
X546645Y517192D01*
X546585Y517113D01*
X546528Y517031D01*
X546474Y516947D01*
X546424Y516861D01*
X546377Y516773D01*
X546333Y516683D01*
X546293Y516592D01*
X546257Y516499D01*
X546224Y516405D01*
X546195Y516309D01*
X546170Y516213D01*
X546149Y516116D01*
X546131Y516017D01*
X546118Y515919D01*
X546108Y515819D01*
X546102Y515720D01*
X546100Y515620D01*
X546100Y500380D02*
X546102Y500280D01*
X546108Y500181D01*
X546118Y500081D01*
X546131Y499983D01*
X546149Y499884D01*
X546170Y499787D01*
X546195Y499691D01*
X546224Y499595D01*
X546257Y499501D01*
X546293Y499408D01*
X546333Y499317D01*
X546377Y499227D01*
X546424Y499139D01*
X546474Y499053D01*
X546528Y498969D01*
X546585Y498887D01*
X546645Y498808D01*
X546709Y498730D01*
X546775Y498656D01*
X546844Y498584D01*
X546916Y498515D01*
X546990Y498449D01*
X547068Y498385D01*
X547147Y498325D01*
X547229Y498268D01*
X547313Y498214D01*
X547399Y498164D01*
X547487Y498117D01*
X547577Y498073D01*
X547668Y498033D01*
X547761Y497997D01*
X547855Y497964D01*
X547951Y497935D01*
X548047Y497910D01*
X548144Y497889D01*
X548243Y497871D01*
X548341Y497858D01*
X548441Y497848D01*
X548540Y497842D01*
X548640Y497840D01*
X596900Y500380D02*
X596900Y515620D01*
X594360Y497840D02*
X590550Y497840D01*
X589280Y499110D01*
X590550Y518160D02*
X594360Y518160D01*
X590550Y518160D02*
X589280Y516890D01*
X553720Y499110D02*
X552450Y497840D01*
X553720Y499110D02*
X589280Y499110D01*
X553720Y516890D02*
X552450Y518160D01*
X553720Y516890D02*
X589280Y516890D01*
X552450Y497840D02*
X548640Y497840D01*
X548640Y518160D02*
X552450Y518160D01*
X546100Y515620D02*
X546100Y500380D01*
D17*
X544195Y508000D03*
X598805Y508000D03*
D11*
X582041Y510927D02*
X582041Y503555D01*
X582041Y510927D02*
X585727Y510927D01*
X586956Y509699D01*
X586956Y507241D01*
X585727Y506012D01*
X582041Y506012D01*
X584498Y506012D02*
X586956Y503555D01*
X589525Y510927D02*
X594440Y510927D01*
X589525Y510927D02*
X589525Y507241D01*
X591983Y508470D01*
X593211Y508470D01*
X594440Y507241D01*
X594440Y504784D01*
X593211Y503555D01*
X590754Y503555D01*
X589525Y504784D01*
X558082Y510927D02*
X555625Y508470D01*
X558082Y510927D02*
X558082Y503555D01*
X555625Y503555D02*
X560540Y503555D01*
X563109Y504784D02*
X563109Y509699D01*
X564338Y510927D01*
X566795Y510927D01*
X568024Y509699D01*
X568024Y504784D01*
X566795Y503555D01*
X564338Y503555D01*
X563109Y504784D01*
X568024Y509699D01*
X570593Y510927D02*
X570593Y503555D01*
X570593Y506012D02*
X575508Y510927D01*
X571822Y507241D02*
X575508Y503555D01*
M02*
