G04 EAGLE Gerber RS-274X export*
G75*
%MOMM*%
%FSLAX34Y34*%
%LPD*%
%INSilkscreen Bottom*%
%IPPOS*%
%AMOC8*
5,1,8,0,0,1.08239X$1,22.5*%
G01*
%ADD10C,0.152400*%
%ADD11C,0.127000*%


D10*
X483870Y530860D02*
X455930Y530860D01*
X483870Y510540D02*
X483970Y510542D01*
X484069Y510548D01*
X484169Y510558D01*
X484267Y510571D01*
X484366Y510589D01*
X484463Y510610D01*
X484559Y510635D01*
X484655Y510664D01*
X484749Y510697D01*
X484842Y510733D01*
X484933Y510773D01*
X485023Y510817D01*
X485111Y510864D01*
X485197Y510914D01*
X485281Y510968D01*
X485363Y511025D01*
X485442Y511085D01*
X485520Y511149D01*
X485594Y511215D01*
X485666Y511284D01*
X485735Y511356D01*
X485801Y511430D01*
X485865Y511508D01*
X485925Y511587D01*
X485982Y511669D01*
X486036Y511753D01*
X486086Y511839D01*
X486133Y511927D01*
X486177Y512017D01*
X486217Y512108D01*
X486253Y512201D01*
X486286Y512295D01*
X486315Y512391D01*
X486340Y512487D01*
X486361Y512584D01*
X486379Y512683D01*
X486392Y512781D01*
X486402Y512881D01*
X486408Y512980D01*
X486410Y513080D01*
X455930Y510540D02*
X455830Y510542D01*
X455731Y510548D01*
X455631Y510558D01*
X455533Y510571D01*
X455434Y510589D01*
X455337Y510610D01*
X455241Y510635D01*
X455145Y510664D01*
X455051Y510697D01*
X454958Y510733D01*
X454867Y510773D01*
X454777Y510817D01*
X454689Y510864D01*
X454603Y510914D01*
X454519Y510968D01*
X454437Y511025D01*
X454358Y511085D01*
X454280Y511149D01*
X454206Y511215D01*
X454134Y511284D01*
X454065Y511356D01*
X453999Y511430D01*
X453935Y511508D01*
X453875Y511587D01*
X453818Y511669D01*
X453764Y511753D01*
X453714Y511839D01*
X453667Y511927D01*
X453623Y512017D01*
X453583Y512108D01*
X453547Y512201D01*
X453514Y512295D01*
X453485Y512391D01*
X453460Y512487D01*
X453439Y512584D01*
X453421Y512683D01*
X453408Y512781D01*
X453398Y512881D01*
X453392Y512980D01*
X453390Y513080D01*
X453390Y528320D02*
X453392Y528420D01*
X453398Y528519D01*
X453408Y528619D01*
X453421Y528717D01*
X453439Y528816D01*
X453460Y528913D01*
X453485Y529009D01*
X453514Y529105D01*
X453547Y529199D01*
X453583Y529292D01*
X453623Y529383D01*
X453667Y529473D01*
X453714Y529561D01*
X453764Y529647D01*
X453818Y529731D01*
X453875Y529813D01*
X453935Y529892D01*
X453999Y529970D01*
X454065Y530044D01*
X454134Y530116D01*
X454206Y530185D01*
X454280Y530251D01*
X454358Y530315D01*
X454437Y530375D01*
X454519Y530432D01*
X454603Y530486D01*
X454689Y530536D01*
X454777Y530583D01*
X454867Y530627D01*
X454958Y530667D01*
X455051Y530703D01*
X455145Y530736D01*
X455241Y530765D01*
X455337Y530790D01*
X455434Y530811D01*
X455533Y530829D01*
X455631Y530842D01*
X455731Y530852D01*
X455830Y530858D01*
X455930Y530860D01*
X483870Y530860D02*
X483970Y530858D01*
X484069Y530852D01*
X484169Y530842D01*
X484267Y530829D01*
X484366Y530811D01*
X484463Y530790D01*
X484559Y530765D01*
X484655Y530736D01*
X484749Y530703D01*
X484842Y530667D01*
X484933Y530627D01*
X485023Y530583D01*
X485111Y530536D01*
X485197Y530486D01*
X485281Y530432D01*
X485363Y530375D01*
X485442Y530315D01*
X485520Y530251D01*
X485594Y530185D01*
X485666Y530116D01*
X485735Y530044D01*
X485801Y529970D01*
X485865Y529892D01*
X485925Y529813D01*
X485982Y529731D01*
X486036Y529647D01*
X486086Y529561D01*
X486133Y529473D01*
X486177Y529383D01*
X486217Y529292D01*
X486253Y529199D01*
X486286Y529105D01*
X486315Y529009D01*
X486340Y528913D01*
X486361Y528816D01*
X486379Y528717D01*
X486392Y528619D01*
X486402Y528519D01*
X486408Y528420D01*
X486410Y528320D01*
X486410Y513080D01*
X453390Y513080D02*
X453390Y528320D01*
X455930Y510540D02*
X483870Y510540D01*
D11*
X482117Y508645D02*
X480210Y506738D01*
X482117Y508645D02*
X485930Y508645D01*
X487837Y506738D01*
X487837Y504832D01*
X485930Y502925D01*
X482117Y502925D01*
X480210Y501018D01*
X480210Y499112D01*
X482117Y497205D01*
X485930Y497205D01*
X487837Y499112D01*
X476143Y499112D02*
X474236Y497205D01*
X472330Y497205D01*
X470423Y499112D01*
X470423Y508645D01*
X468517Y508645D02*
X472330Y508645D01*
X464449Y504832D02*
X460636Y508645D01*
X460636Y497205D01*
X464449Y497205D02*
X456823Y497205D01*
D10*
X445770Y510540D02*
X417830Y510540D01*
X415290Y528320D02*
X415292Y528420D01*
X415298Y528519D01*
X415308Y528619D01*
X415321Y528717D01*
X415339Y528816D01*
X415360Y528913D01*
X415385Y529009D01*
X415414Y529105D01*
X415447Y529199D01*
X415483Y529292D01*
X415523Y529383D01*
X415567Y529473D01*
X415614Y529561D01*
X415664Y529647D01*
X415718Y529731D01*
X415775Y529813D01*
X415835Y529892D01*
X415899Y529970D01*
X415965Y530044D01*
X416034Y530116D01*
X416106Y530185D01*
X416180Y530251D01*
X416258Y530315D01*
X416337Y530375D01*
X416419Y530432D01*
X416503Y530486D01*
X416589Y530536D01*
X416677Y530583D01*
X416767Y530627D01*
X416858Y530667D01*
X416951Y530703D01*
X417045Y530736D01*
X417141Y530765D01*
X417237Y530790D01*
X417334Y530811D01*
X417433Y530829D01*
X417531Y530842D01*
X417631Y530852D01*
X417730Y530858D01*
X417830Y530860D01*
X445770Y530860D02*
X445870Y530858D01*
X445969Y530852D01*
X446069Y530842D01*
X446167Y530829D01*
X446266Y530811D01*
X446363Y530790D01*
X446459Y530765D01*
X446555Y530736D01*
X446649Y530703D01*
X446742Y530667D01*
X446833Y530627D01*
X446923Y530583D01*
X447011Y530536D01*
X447097Y530486D01*
X447181Y530432D01*
X447263Y530375D01*
X447342Y530315D01*
X447420Y530251D01*
X447494Y530185D01*
X447566Y530116D01*
X447635Y530044D01*
X447701Y529970D01*
X447765Y529892D01*
X447825Y529813D01*
X447882Y529731D01*
X447936Y529647D01*
X447986Y529561D01*
X448033Y529473D01*
X448077Y529383D01*
X448117Y529292D01*
X448153Y529199D01*
X448186Y529105D01*
X448215Y529009D01*
X448240Y528913D01*
X448261Y528816D01*
X448279Y528717D01*
X448292Y528619D01*
X448302Y528519D01*
X448308Y528420D01*
X448310Y528320D01*
X448310Y513080D02*
X448308Y512980D01*
X448302Y512881D01*
X448292Y512781D01*
X448279Y512683D01*
X448261Y512584D01*
X448240Y512487D01*
X448215Y512391D01*
X448186Y512295D01*
X448153Y512201D01*
X448117Y512108D01*
X448077Y512017D01*
X448033Y511927D01*
X447986Y511839D01*
X447936Y511753D01*
X447882Y511669D01*
X447825Y511587D01*
X447765Y511508D01*
X447701Y511430D01*
X447635Y511356D01*
X447566Y511284D01*
X447494Y511215D01*
X447420Y511149D01*
X447342Y511085D01*
X447263Y511025D01*
X447181Y510968D01*
X447097Y510914D01*
X447011Y510864D01*
X446923Y510817D01*
X446833Y510773D01*
X446742Y510733D01*
X446649Y510697D01*
X446555Y510664D01*
X446459Y510635D01*
X446363Y510610D01*
X446266Y510589D01*
X446167Y510571D01*
X446069Y510558D01*
X445969Y510548D01*
X445870Y510542D01*
X445770Y510540D01*
X417830Y510540D02*
X417730Y510542D01*
X417631Y510548D01*
X417531Y510558D01*
X417433Y510571D01*
X417334Y510589D01*
X417237Y510610D01*
X417141Y510635D01*
X417045Y510664D01*
X416951Y510697D01*
X416858Y510733D01*
X416767Y510773D01*
X416677Y510817D01*
X416589Y510864D01*
X416503Y510914D01*
X416419Y510968D01*
X416337Y511025D01*
X416258Y511085D01*
X416180Y511149D01*
X416106Y511215D01*
X416034Y511284D01*
X415965Y511356D01*
X415899Y511430D01*
X415835Y511508D01*
X415775Y511587D01*
X415718Y511669D01*
X415664Y511753D01*
X415614Y511839D01*
X415567Y511927D01*
X415523Y512017D01*
X415483Y512108D01*
X415447Y512201D01*
X415414Y512295D01*
X415385Y512391D01*
X415360Y512487D01*
X415339Y512584D01*
X415321Y512683D01*
X415308Y512781D01*
X415298Y512881D01*
X415292Y512980D01*
X415290Y513080D01*
X415290Y528320D01*
X448310Y528320D02*
X448310Y513080D01*
X445770Y530860D02*
X417830Y530860D01*
D11*
X440049Y542298D02*
X441955Y544205D01*
X445768Y544205D01*
X447675Y542298D01*
X447675Y540392D01*
X445768Y538485D01*
X441955Y538485D01*
X440049Y536578D01*
X440049Y534672D01*
X441955Y532765D01*
X445768Y532765D01*
X447675Y534672D01*
X435981Y534672D02*
X434074Y532765D01*
X432168Y532765D01*
X430261Y534672D01*
X430261Y544205D01*
X428355Y544205D02*
X432168Y544205D01*
X424287Y532765D02*
X416661Y532765D01*
X424287Y532765D02*
X416661Y540392D01*
X416661Y542298D01*
X418567Y544205D01*
X422380Y544205D01*
X424287Y542298D01*
D10*
X873760Y671830D02*
X873760Y699770D01*
X853440Y671830D02*
X853442Y671730D01*
X853448Y671631D01*
X853458Y671531D01*
X853471Y671433D01*
X853489Y671334D01*
X853510Y671237D01*
X853535Y671141D01*
X853564Y671045D01*
X853597Y670951D01*
X853633Y670858D01*
X853673Y670767D01*
X853717Y670677D01*
X853764Y670589D01*
X853814Y670503D01*
X853868Y670419D01*
X853925Y670337D01*
X853985Y670258D01*
X854049Y670180D01*
X854115Y670106D01*
X854184Y670034D01*
X854256Y669965D01*
X854330Y669899D01*
X854408Y669835D01*
X854487Y669775D01*
X854569Y669718D01*
X854653Y669664D01*
X854739Y669614D01*
X854827Y669567D01*
X854917Y669523D01*
X855008Y669483D01*
X855101Y669447D01*
X855195Y669414D01*
X855291Y669385D01*
X855387Y669360D01*
X855484Y669339D01*
X855583Y669321D01*
X855681Y669308D01*
X855781Y669298D01*
X855880Y669292D01*
X855980Y669290D01*
X853440Y699770D02*
X853442Y699870D01*
X853448Y699969D01*
X853458Y700069D01*
X853471Y700167D01*
X853489Y700266D01*
X853510Y700363D01*
X853535Y700459D01*
X853564Y700555D01*
X853597Y700649D01*
X853633Y700742D01*
X853673Y700833D01*
X853717Y700923D01*
X853764Y701011D01*
X853814Y701097D01*
X853868Y701181D01*
X853925Y701263D01*
X853985Y701342D01*
X854049Y701420D01*
X854115Y701494D01*
X854184Y701566D01*
X854256Y701635D01*
X854330Y701701D01*
X854408Y701765D01*
X854487Y701825D01*
X854569Y701882D01*
X854653Y701936D01*
X854739Y701986D01*
X854827Y702033D01*
X854917Y702077D01*
X855008Y702117D01*
X855101Y702153D01*
X855195Y702186D01*
X855291Y702215D01*
X855387Y702240D01*
X855484Y702261D01*
X855583Y702279D01*
X855681Y702292D01*
X855781Y702302D01*
X855880Y702308D01*
X855980Y702310D01*
X871220Y702310D02*
X871320Y702308D01*
X871419Y702302D01*
X871519Y702292D01*
X871617Y702279D01*
X871716Y702261D01*
X871813Y702240D01*
X871909Y702215D01*
X872005Y702186D01*
X872099Y702153D01*
X872192Y702117D01*
X872283Y702077D01*
X872373Y702033D01*
X872461Y701986D01*
X872547Y701936D01*
X872631Y701882D01*
X872713Y701825D01*
X872792Y701765D01*
X872870Y701701D01*
X872944Y701635D01*
X873016Y701566D01*
X873085Y701494D01*
X873151Y701420D01*
X873215Y701342D01*
X873275Y701263D01*
X873332Y701181D01*
X873386Y701097D01*
X873436Y701011D01*
X873483Y700923D01*
X873527Y700833D01*
X873567Y700742D01*
X873603Y700649D01*
X873636Y700555D01*
X873665Y700459D01*
X873690Y700363D01*
X873711Y700266D01*
X873729Y700167D01*
X873742Y700069D01*
X873752Y699969D01*
X873758Y699870D01*
X873760Y699770D01*
X873760Y671830D02*
X873758Y671730D01*
X873752Y671631D01*
X873742Y671531D01*
X873729Y671433D01*
X873711Y671334D01*
X873690Y671237D01*
X873665Y671141D01*
X873636Y671045D01*
X873603Y670951D01*
X873567Y670858D01*
X873527Y670767D01*
X873483Y670677D01*
X873436Y670589D01*
X873386Y670503D01*
X873332Y670419D01*
X873275Y670337D01*
X873215Y670258D01*
X873151Y670180D01*
X873085Y670106D01*
X873016Y670034D01*
X872944Y669965D01*
X872870Y669899D01*
X872792Y669835D01*
X872713Y669775D01*
X872631Y669718D01*
X872547Y669664D01*
X872461Y669614D01*
X872373Y669567D01*
X872283Y669523D01*
X872192Y669483D01*
X872099Y669447D01*
X872005Y669414D01*
X871909Y669385D01*
X871813Y669360D01*
X871716Y669339D01*
X871617Y669321D01*
X871519Y669308D01*
X871419Y669298D01*
X871320Y669292D01*
X871220Y669290D01*
X855980Y669290D01*
X855980Y702310D02*
X871220Y702310D01*
X853440Y699770D02*
X853440Y671830D01*
D11*
X851545Y673583D02*
X849638Y675490D01*
X851545Y673583D02*
X851545Y669770D01*
X849638Y667863D01*
X847732Y667863D01*
X845825Y669770D01*
X845825Y673583D01*
X843918Y675490D01*
X842012Y675490D01*
X840105Y673583D01*
X840105Y669770D01*
X842012Y667863D01*
X842012Y679557D02*
X840105Y681464D01*
X840105Y683370D01*
X842012Y685277D01*
X851545Y685277D01*
X851545Y683370D02*
X851545Y687184D01*
X849638Y691251D02*
X851545Y693158D01*
X851545Y696971D01*
X849638Y698877D01*
X847732Y698877D01*
X845825Y696971D01*
X845825Y695064D01*
X845825Y696971D02*
X843918Y698877D01*
X842012Y698877D01*
X840105Y696971D01*
X840105Y693158D01*
X842012Y691251D01*
D10*
X822960Y699770D02*
X822960Y671830D01*
X805180Y669290D02*
X805080Y669292D01*
X804981Y669298D01*
X804881Y669308D01*
X804783Y669321D01*
X804684Y669339D01*
X804587Y669360D01*
X804491Y669385D01*
X804395Y669414D01*
X804301Y669447D01*
X804208Y669483D01*
X804117Y669523D01*
X804027Y669567D01*
X803939Y669614D01*
X803853Y669664D01*
X803769Y669718D01*
X803687Y669775D01*
X803608Y669835D01*
X803530Y669899D01*
X803456Y669965D01*
X803384Y670034D01*
X803315Y670106D01*
X803249Y670180D01*
X803185Y670258D01*
X803125Y670337D01*
X803068Y670419D01*
X803014Y670503D01*
X802964Y670589D01*
X802917Y670677D01*
X802873Y670767D01*
X802833Y670858D01*
X802797Y670951D01*
X802764Y671045D01*
X802735Y671141D01*
X802710Y671237D01*
X802689Y671334D01*
X802671Y671433D01*
X802658Y671531D01*
X802648Y671631D01*
X802642Y671730D01*
X802640Y671830D01*
X802640Y699770D02*
X802642Y699870D01*
X802648Y699969D01*
X802658Y700069D01*
X802671Y700167D01*
X802689Y700266D01*
X802710Y700363D01*
X802735Y700459D01*
X802764Y700555D01*
X802797Y700649D01*
X802833Y700742D01*
X802873Y700833D01*
X802917Y700923D01*
X802964Y701011D01*
X803014Y701097D01*
X803068Y701181D01*
X803125Y701263D01*
X803185Y701342D01*
X803249Y701420D01*
X803315Y701494D01*
X803384Y701566D01*
X803456Y701635D01*
X803530Y701701D01*
X803608Y701765D01*
X803687Y701825D01*
X803769Y701882D01*
X803853Y701936D01*
X803939Y701986D01*
X804027Y702033D01*
X804117Y702077D01*
X804208Y702117D01*
X804301Y702153D01*
X804395Y702186D01*
X804491Y702215D01*
X804587Y702240D01*
X804684Y702261D01*
X804783Y702279D01*
X804881Y702292D01*
X804981Y702302D01*
X805080Y702308D01*
X805180Y702310D01*
X820420Y702310D02*
X820520Y702308D01*
X820619Y702302D01*
X820719Y702292D01*
X820817Y702279D01*
X820916Y702261D01*
X821013Y702240D01*
X821109Y702215D01*
X821205Y702186D01*
X821299Y702153D01*
X821392Y702117D01*
X821483Y702077D01*
X821573Y702033D01*
X821661Y701986D01*
X821747Y701936D01*
X821831Y701882D01*
X821913Y701825D01*
X821992Y701765D01*
X822070Y701701D01*
X822144Y701635D01*
X822216Y701566D01*
X822285Y701494D01*
X822351Y701420D01*
X822415Y701342D01*
X822475Y701263D01*
X822532Y701181D01*
X822586Y701097D01*
X822636Y701011D01*
X822683Y700923D01*
X822727Y700833D01*
X822767Y700742D01*
X822803Y700649D01*
X822836Y700555D01*
X822865Y700459D01*
X822890Y700363D01*
X822911Y700266D01*
X822929Y700167D01*
X822942Y700069D01*
X822952Y699969D01*
X822958Y699870D01*
X822960Y699770D01*
X822960Y671830D02*
X822958Y671730D01*
X822952Y671631D01*
X822942Y671531D01*
X822929Y671433D01*
X822911Y671334D01*
X822890Y671237D01*
X822865Y671141D01*
X822836Y671045D01*
X822803Y670951D01*
X822767Y670858D01*
X822727Y670767D01*
X822683Y670677D01*
X822636Y670589D01*
X822586Y670503D01*
X822532Y670419D01*
X822475Y670337D01*
X822415Y670258D01*
X822351Y670180D01*
X822285Y670106D01*
X822216Y670034D01*
X822144Y669965D01*
X822070Y669899D01*
X821992Y669835D01*
X821913Y669775D01*
X821831Y669718D01*
X821747Y669664D01*
X821661Y669614D01*
X821573Y669567D01*
X821483Y669523D01*
X821392Y669483D01*
X821299Y669447D01*
X821205Y669414D01*
X821109Y669385D01*
X821013Y669360D01*
X820916Y669339D01*
X820817Y669321D01*
X820719Y669308D01*
X820619Y669298D01*
X820520Y669292D01*
X820420Y669290D01*
X805180Y669290D01*
X805180Y702310D02*
X820420Y702310D01*
X802640Y699770D02*
X802640Y671830D01*
D11*
X800745Y673583D02*
X798838Y675490D01*
X800745Y673583D02*
X800745Y669770D01*
X798838Y667863D01*
X796932Y667863D01*
X795025Y669770D01*
X795025Y673583D01*
X793118Y675490D01*
X791212Y675490D01*
X789305Y673583D01*
X789305Y669770D01*
X791212Y667863D01*
X791212Y679557D02*
X789305Y681464D01*
X789305Y683370D01*
X791212Y685277D01*
X800745Y685277D01*
X800745Y683370D02*
X800745Y687184D01*
X800745Y696971D02*
X789305Y696971D01*
X795025Y691251D02*
X800745Y696971D01*
X795025Y698877D02*
X795025Y691251D01*
D10*
X772160Y699770D02*
X772160Y671830D01*
X754380Y669290D02*
X754280Y669292D01*
X754181Y669298D01*
X754081Y669308D01*
X753983Y669321D01*
X753884Y669339D01*
X753787Y669360D01*
X753691Y669385D01*
X753595Y669414D01*
X753501Y669447D01*
X753408Y669483D01*
X753317Y669523D01*
X753227Y669567D01*
X753139Y669614D01*
X753053Y669664D01*
X752969Y669718D01*
X752887Y669775D01*
X752808Y669835D01*
X752730Y669899D01*
X752656Y669965D01*
X752584Y670034D01*
X752515Y670106D01*
X752449Y670180D01*
X752385Y670258D01*
X752325Y670337D01*
X752268Y670419D01*
X752214Y670503D01*
X752164Y670589D01*
X752117Y670677D01*
X752073Y670767D01*
X752033Y670858D01*
X751997Y670951D01*
X751964Y671045D01*
X751935Y671141D01*
X751910Y671237D01*
X751889Y671334D01*
X751871Y671433D01*
X751858Y671531D01*
X751848Y671631D01*
X751842Y671730D01*
X751840Y671830D01*
X751840Y699770D02*
X751842Y699870D01*
X751848Y699969D01*
X751858Y700069D01*
X751871Y700167D01*
X751889Y700266D01*
X751910Y700363D01*
X751935Y700459D01*
X751964Y700555D01*
X751997Y700649D01*
X752033Y700742D01*
X752073Y700833D01*
X752117Y700923D01*
X752164Y701011D01*
X752214Y701097D01*
X752268Y701181D01*
X752325Y701263D01*
X752385Y701342D01*
X752449Y701420D01*
X752515Y701494D01*
X752584Y701566D01*
X752656Y701635D01*
X752730Y701701D01*
X752808Y701765D01*
X752887Y701825D01*
X752969Y701882D01*
X753053Y701936D01*
X753139Y701986D01*
X753227Y702033D01*
X753317Y702077D01*
X753408Y702117D01*
X753501Y702153D01*
X753595Y702186D01*
X753691Y702215D01*
X753787Y702240D01*
X753884Y702261D01*
X753983Y702279D01*
X754081Y702292D01*
X754181Y702302D01*
X754280Y702308D01*
X754380Y702310D01*
X769620Y702310D02*
X769720Y702308D01*
X769819Y702302D01*
X769919Y702292D01*
X770017Y702279D01*
X770116Y702261D01*
X770213Y702240D01*
X770309Y702215D01*
X770405Y702186D01*
X770499Y702153D01*
X770592Y702117D01*
X770683Y702077D01*
X770773Y702033D01*
X770861Y701986D01*
X770947Y701936D01*
X771031Y701882D01*
X771113Y701825D01*
X771192Y701765D01*
X771270Y701701D01*
X771344Y701635D01*
X771416Y701566D01*
X771485Y701494D01*
X771551Y701420D01*
X771615Y701342D01*
X771675Y701263D01*
X771732Y701181D01*
X771786Y701097D01*
X771836Y701011D01*
X771883Y700923D01*
X771927Y700833D01*
X771967Y700742D01*
X772003Y700649D01*
X772036Y700555D01*
X772065Y700459D01*
X772090Y700363D01*
X772111Y700266D01*
X772129Y700167D01*
X772142Y700069D01*
X772152Y699969D01*
X772158Y699870D01*
X772160Y699770D01*
X772160Y671830D02*
X772158Y671730D01*
X772152Y671631D01*
X772142Y671531D01*
X772129Y671433D01*
X772111Y671334D01*
X772090Y671237D01*
X772065Y671141D01*
X772036Y671045D01*
X772003Y670951D01*
X771967Y670858D01*
X771927Y670767D01*
X771883Y670677D01*
X771836Y670589D01*
X771786Y670503D01*
X771732Y670419D01*
X771675Y670337D01*
X771615Y670258D01*
X771551Y670180D01*
X771485Y670106D01*
X771416Y670034D01*
X771344Y669965D01*
X771270Y669899D01*
X771192Y669835D01*
X771113Y669775D01*
X771031Y669718D01*
X770947Y669664D01*
X770861Y669614D01*
X770773Y669567D01*
X770683Y669523D01*
X770592Y669483D01*
X770499Y669447D01*
X770405Y669414D01*
X770309Y669385D01*
X770213Y669360D01*
X770116Y669339D01*
X770017Y669321D01*
X769919Y669308D01*
X769819Y669298D01*
X769720Y669292D01*
X769620Y669290D01*
X754380Y669290D01*
X754380Y702310D02*
X769620Y702310D01*
X751840Y699770D02*
X751840Y671830D01*
D11*
X749945Y673583D02*
X748038Y675490D01*
X749945Y673583D02*
X749945Y669770D01*
X748038Y667863D01*
X746132Y667863D01*
X744225Y669770D01*
X744225Y673583D01*
X742318Y675490D01*
X740412Y675490D01*
X738505Y673583D01*
X738505Y669770D01*
X740412Y667863D01*
X740412Y679557D02*
X738505Y681464D01*
X738505Y683370D01*
X740412Y685277D01*
X749945Y685277D01*
X749945Y683370D02*
X749945Y687184D01*
X749945Y691251D02*
X749945Y698877D01*
X749945Y691251D02*
X744225Y691251D01*
X746132Y695064D01*
X746132Y696971D01*
X744225Y698877D01*
X740412Y698877D01*
X738505Y696971D01*
X738505Y693158D01*
X740412Y691251D01*
M02*
