M48
;GenerationSoftware,Autodesk,EAGLE,9.6.1*%
;CreationDate,2025-01-05T07:54:16Z*%
FMAT,2
ICI,OFF
METRIC,TZ,000.000
T8C0.610
T7C0.813
T6C0.914
T5C1.016
T4C1.118
T3C1.300
T2C1.651
T1C3.962
%
G90
M71
T1
X55880Y58420
T2
X77470Y53340
X77470Y60960
T3
X77470Y65300
X9957Y31750
X2743Y31750
X6350Y35357
X77470Y45300
T4
X85090Y3810
X72390Y3810
X90170Y17780
X90170Y7620
X76200Y16510
X86360Y16510
X67310Y25400
X67310Y38100
X86360Y31750
X73660Y31750
T5
X20320Y6350
X27940Y3810
X25400Y3810
X22860Y3810
X20320Y3810
X43180Y6350
X45720Y3810
X63500Y6350
X60960Y6350
X58420Y6350
X55880Y6350
X53340Y6350
X50800Y6350
X63500Y3810
X60960Y3810
X58420Y3810
X55880Y3810
X53340Y3810
X50800Y3810
X48260Y6350
X48260Y3810
X45720Y6350
X11430Y5080
X40640Y6350
X38100Y6350
X35560Y6350
X33020Y6350
X43180Y3810
X40640Y3810
X38100Y3810
X35560Y3810
X33020Y3810
X30480Y6350
X30480Y3810
X27940Y6350
X25400Y6350
X22860Y6350
T6
X55880Y12700
X3810Y6350
X6350Y3810
X6350Y6350
X53340Y40640
X3810Y3810
X58420Y12700
X53340Y45720
X5080Y40640
X7620Y40640
X10160Y40640
X5080Y45720
X7620Y45720
X10160Y45720
X5080Y50800
X53340Y48260
X85090Y25400
X87630Y25400
X7620Y50800
X10160Y50800
X55880Y48260
X55880Y45720
X53340Y43180
X55880Y43180
X55880Y40640
X82550Y25400
T7
X21590Y43180
X21590Y45720
X21590Y48260
X21590Y50800
X21590Y55880
X21590Y58420
X21590Y60960
X21590Y63500
X21590Y66040
X13970Y34290
X13970Y31750
X13970Y29210
X13970Y26670
X13970Y24130
X13970Y21590
X13970Y19050
X13970Y16510
X13970Y13970
X21590Y13970
X21590Y16510
X21590Y19050
X21590Y21590
X21590Y24130
X21590Y26670
X21590Y29210
X21590Y31750
X21590Y34290
X26670Y35560
X26670Y33020
X26670Y30480
X49530Y25400
X26670Y25400
X26670Y22860
X26670Y20320
X26670Y17780
X26670Y15240
X10160Y55880
X10160Y58420
X10160Y60960
X10160Y63500
X10160Y66040
X5080Y55880
X5080Y58420
X5080Y60960
X5080Y63500
X5080Y66040
X26670Y27940
X68580Y12700
X21590Y68580
X19050Y68580
X58420Y33020
X58420Y27940
X52070Y26670
X52070Y29210
X66040Y12700
X34290Y63500
X34290Y60960
X34290Y48260
X34290Y45720
X34290Y58420
X34290Y55880
X34290Y50800
X34290Y53340
X34290Y43180
X34290Y40640
X34290Y38100
X34290Y35560
X34290Y33020
X34290Y30480
X34290Y27940
X34290Y25400
X34290Y22860
X34290Y20320
X34290Y17780
X34290Y15240
X49530Y15240
X49530Y17780
X49530Y20320
X49530Y22860
X49530Y27940
X49530Y30480
X49530Y33020
X49530Y35560
X49530Y38100
X6350Y20320
X3810Y20320
X7620Y22860
X7620Y25400
X3810Y22860
X3810Y25400
X49530Y40640
X49530Y43180
X49530Y45720
X11430Y10160
X19050Y10160
X21590Y53340
X49530Y48260
X49530Y50800
X71120Y19050
X63500Y19050
X74930Y26670
X74930Y19050
X86360Y38100
X73660Y38100
X49530Y53340
X49530Y55880
X49530Y58420
X49530Y60960
X13970Y36830
X16510Y36830
X49530Y63500
X13970Y66040
X13970Y63500
X13970Y50800
X13970Y48260
X13970Y60960
X13970Y58420
X85090Y10160
X72390Y10160
X13970Y53340
X13970Y55880
X13970Y45720
X13970Y43180
T8
X16510Y15240
X3810Y47625
X13970Y40005
X15875Y46990
X7620Y37465
X19050Y41275
X29210Y30480
X41910Y10160
X12065Y33020
X51435Y16510
X53975Y11430
X46990Y40640
X23495Y35560
X15240Y10160
X41275Y22225
X41275Y24765
X41275Y27305
X53340Y8890
X32385Y52070
M30