G04 EAGLE Gerber RS-274X export*
G75*
%MOMM*%
%FSLAX34Y34*%
%LPD*%
%INSoldermask Bottom*%
%IPPOS*%
%AMOC8*
5,1,8,0,0,1.08239X$1,22.5*%
G01*
%ADD10P,1.649562X8X202.500000*%
%ADD11P,1.649562X8X292.500000*%
%ADD12P,1.649562X8X112.500000*%
%ADD13P,1.951982X8X202.500000*%
%ADD14C,1.803400*%
%ADD15C,1.625600*%
%ADD16C,1.524000*%
%ADD17R,1.371600X1.803400*%
%ADD18R,0.152400X1.828800*%
%ADD19P,1.759533X8X292.500000*%
%ADD20P,1.759533X8X202.500000*%
%ADD21C,4.165600*%
%ADD22P,1.869504X8X202.500000*%
%ADD23C,1.524000*%
%ADD24C,2.153200*%
%ADD25P,1.649562X8X22.500000*%
%ADD26P,1.869504X8X22.500000*%
%ADD27C,1.879600*%
%ADD28C,1.879600*%
%ADD29P,3.793993X8X112.500000*%
%ADD30C,3.505200*%


D10*
X215900Y685800D03*
X190500Y685800D03*
D11*
X584200Y330200D03*
X584200Y279400D03*
D12*
X520700Y266700D03*
X520700Y292100D03*
D13*
X660400Y127000D03*
D14*
X685800Y127000D03*
D15*
X584200Y119888D02*
X584200Y134112D01*
X558800Y134112D02*
X558800Y119888D01*
D16*
X349504Y635000D02*
X336296Y635000D01*
X336296Y609600D02*
X349504Y609600D01*
X349504Y482600D02*
X336296Y482600D01*
X336296Y457200D02*
X349504Y457200D01*
X349504Y584200D02*
X336296Y584200D01*
X336296Y558800D02*
X349504Y558800D01*
X349504Y508000D02*
X336296Y508000D01*
X336296Y533400D02*
X349504Y533400D01*
X349504Y431800D02*
X336296Y431800D01*
X336296Y406400D02*
X349504Y406400D01*
X349504Y381000D02*
X336296Y381000D01*
X336296Y355600D02*
X349504Y355600D01*
X349504Y330200D02*
X336296Y330200D01*
X336296Y304800D02*
X349504Y304800D01*
X349504Y279400D02*
X336296Y279400D01*
X336296Y254000D02*
X349504Y254000D01*
X349504Y228600D02*
X336296Y228600D01*
X336296Y203200D02*
X349504Y203200D01*
X349504Y177800D02*
X336296Y177800D01*
X336296Y152400D02*
X349504Y152400D01*
X488696Y152400D02*
X501904Y152400D01*
X501904Y177800D02*
X488696Y177800D01*
X488696Y203200D02*
X501904Y203200D01*
X501904Y228600D02*
X488696Y228600D01*
X488696Y254000D02*
X501904Y254000D01*
X501904Y279400D02*
X488696Y279400D01*
X488696Y304800D02*
X501904Y304800D01*
X501904Y330200D02*
X488696Y330200D01*
X488696Y355600D02*
X501904Y355600D01*
X501904Y381000D02*
X488696Y381000D01*
X488696Y406400D02*
X501904Y406400D01*
X501904Y431800D02*
X488696Y431800D01*
X488696Y457200D02*
X501904Y457200D01*
X501904Y482600D02*
X488696Y482600D01*
X488696Y508000D02*
X501904Y508000D01*
X501904Y533400D02*
X488696Y533400D01*
X488696Y558800D02*
X501904Y558800D01*
X501904Y584200D02*
X488696Y584200D01*
X488696Y609600D02*
X501904Y609600D01*
X501904Y635000D02*
X488696Y635000D01*
X146304Y660400D02*
X133096Y660400D01*
X133096Y635000D02*
X146304Y635000D01*
X146304Y508000D02*
X133096Y508000D01*
X133096Y482600D02*
X146304Y482600D01*
X146304Y609600D02*
X133096Y609600D01*
X133096Y584200D02*
X146304Y584200D01*
X146304Y533400D02*
X133096Y533400D01*
X133096Y558800D02*
X146304Y558800D01*
X146304Y457200D02*
X133096Y457200D01*
X133096Y431800D02*
X146304Y431800D01*
X209296Y431800D02*
X222504Y431800D01*
X222504Y457200D02*
X209296Y457200D01*
X209296Y482600D02*
X222504Y482600D01*
X222504Y508000D02*
X209296Y508000D01*
X209296Y533400D02*
X222504Y533400D01*
X222504Y558800D02*
X209296Y558800D01*
X209296Y584200D02*
X222504Y584200D01*
X222504Y609600D02*
X209296Y609600D01*
X209296Y635000D02*
X222504Y635000D01*
X222504Y660400D02*
X209296Y660400D01*
X146304Y342900D02*
X133096Y342900D01*
X133096Y317500D02*
X146304Y317500D01*
X146304Y292100D02*
X133096Y292100D01*
X133096Y266700D02*
X146304Y266700D01*
X146304Y241300D02*
X133096Y241300D01*
X133096Y215900D02*
X146304Y215900D01*
X146304Y190500D02*
X133096Y190500D01*
X133096Y165100D02*
X146304Y165100D01*
X146304Y139700D02*
X133096Y139700D01*
X209296Y139700D02*
X222504Y139700D01*
X222504Y165100D02*
X209296Y165100D01*
X209296Y190500D02*
X222504Y190500D01*
X222504Y215900D02*
X209296Y215900D01*
X209296Y241300D02*
X222504Y241300D01*
X222504Y266700D02*
X209296Y266700D01*
X209296Y292100D02*
X222504Y292100D01*
X222504Y317500D02*
X209296Y317500D01*
X209296Y342900D02*
X222504Y342900D01*
X260096Y355600D02*
X273304Y355600D01*
X273304Y330200D02*
X260096Y330200D01*
X260096Y304800D02*
X273304Y304800D01*
X273304Y279400D02*
X260096Y279400D01*
X260096Y254000D02*
X273304Y254000D01*
X273304Y228600D02*
X260096Y228600D01*
X260096Y203200D02*
X273304Y203200D01*
X273304Y177800D02*
X260096Y177800D01*
X260096Y152400D02*
X273304Y152400D01*
D15*
X50800Y399288D02*
X50800Y413512D01*
X76200Y413512D02*
X76200Y399288D01*
X101600Y399288D02*
X101600Y413512D01*
X50800Y450088D02*
X50800Y464312D01*
X76200Y464312D02*
X76200Y450088D01*
X101600Y450088D02*
X101600Y464312D01*
X50800Y500888D02*
X50800Y515112D01*
X76200Y515112D02*
X76200Y500888D01*
X101600Y500888D02*
X101600Y515112D01*
D17*
X312420Y330200D03*
X297180Y330200D03*
D18*
X304800Y330200D03*
D17*
X312420Y355600D03*
X297180Y355600D03*
D18*
X304800Y355600D03*
D17*
X312420Y381000D03*
X297180Y381000D03*
D18*
X304800Y381000D03*
D16*
X108204Y558800D02*
X94996Y558800D01*
X94996Y584200D02*
X108204Y584200D01*
X108204Y609600D02*
X94996Y609600D01*
X94996Y635000D02*
X108204Y635000D01*
X108204Y660400D02*
X94996Y660400D01*
X57404Y558800D02*
X44196Y558800D01*
X44196Y584200D02*
X57404Y584200D01*
X57404Y609600D02*
X44196Y609600D01*
X44196Y635000D02*
X57404Y635000D01*
X57404Y660400D02*
X44196Y660400D01*
D17*
X185420Y482600D03*
X170180Y482600D03*
D18*
X177800Y482600D03*
D17*
X261620Y431800D03*
X246380Y431800D03*
D18*
X254000Y431800D03*
D17*
X261620Y482600D03*
X246380Y482600D03*
D18*
X254000Y482600D03*
D17*
X261620Y533400D03*
X246380Y533400D03*
D18*
X254000Y533400D03*
D17*
X261620Y584200D03*
X246380Y584200D03*
D18*
X254000Y584200D03*
D17*
X261620Y635000D03*
X246380Y635000D03*
D18*
X254000Y635000D03*
D19*
X533400Y482600D03*
X558800Y482600D03*
X533400Y457200D03*
X558800Y457200D03*
X533400Y431800D03*
X558800Y431800D03*
X558800Y406400D03*
X533400Y406400D03*
D17*
X312420Y406400D03*
X297180Y406400D03*
D18*
X304800Y406400D03*
D20*
X63500Y63500D03*
X63500Y38100D03*
X38100Y63500D03*
X38100Y38100D03*
D21*
X558800Y584200D03*
D22*
X635000Y63500D03*
X609600Y63500D03*
X584200Y63500D03*
X558800Y63500D03*
X533400Y63500D03*
X508000Y63500D03*
X635000Y38100D03*
X609600Y38100D03*
X584200Y38100D03*
X558800Y38100D03*
X533400Y38100D03*
X508000Y38100D03*
X482600Y63500D03*
X482600Y38100D03*
X457200Y63500D03*
X431800Y63500D03*
X406400Y63500D03*
X381000Y63500D03*
X355600Y63500D03*
X330200Y63500D03*
X457200Y38100D03*
X431800Y38100D03*
X406400Y38100D03*
X381000Y38100D03*
X355600Y38100D03*
X330200Y38100D03*
X304800Y63500D03*
X304800Y38100D03*
X279400Y63500D03*
X254000Y63500D03*
X228600Y63500D03*
X203200Y63500D03*
X279400Y38100D03*
X254000Y38100D03*
X228600Y38100D03*
X203200Y38100D03*
D23*
X63500Y203200D03*
X38100Y203200D03*
D12*
X76200Y228600D03*
X76200Y254000D03*
X38100Y228600D03*
X38100Y254000D03*
D24*
X63500Y353568D03*
X27432Y317500D03*
X99568Y317500D03*
D25*
X114300Y101600D03*
X190500Y101600D03*
D26*
X114300Y50800D03*
D24*
X774700Y653000D03*
X774700Y453000D03*
D16*
X717804Y190500D02*
X704596Y190500D01*
X641604Y190500D02*
X628396Y190500D01*
X749300Y260096D02*
X749300Y273304D01*
X749300Y197104D02*
X749300Y183896D01*
D10*
X863600Y381000D03*
X736600Y381000D03*
D27*
X728218Y317500D02*
X744982Y317500D01*
X855218Y317500D02*
X871982Y317500D01*
X673100Y372618D02*
X673100Y389382D01*
X673100Y262382D02*
X673100Y245618D01*
D25*
X139700Y368300D03*
X165100Y368300D03*
D15*
X825500Y261112D02*
X825500Y246888D01*
X850900Y246888D02*
X850900Y261112D01*
X876300Y261112D02*
X876300Y246888D01*
D28*
X863600Y165100D03*
X762000Y165100D03*
X901700Y76200D03*
X901700Y177800D03*
D10*
X850900Y101600D03*
X723900Y101600D03*
D27*
X715518Y38100D02*
X732282Y38100D01*
X842518Y38100D02*
X859282Y38100D01*
D29*
X774700Y609600D03*
D30*
X774700Y533400D03*
M02*
