G04 EAGLE Gerber RS-274X export*
G75*
%MOMM*%
%FSLAX34Y34*%
%LPD*%
%INSilkscreen Top*%
%IPPOS*%
%AMOC8*
5,1,8,0,0,1.08239X$1,22.5*%
G01*
%ADD10C,0.101600*%
%ADD11C,0.152400*%
%ADD12C,0.254000*%
%ADD13C,0.304800*%
%ADD14C,0.127000*%
%ADD15C,0.177800*%
%ADD16R,2.540000X2.540000*%
%ADD17C,0.406400*%
%ADD18R,0.406400X0.584200*%
%ADD19R,2.438400X0.609600*%
%ADD20R,0.381000X0.508000*%
%ADD21C,0.203200*%
%ADD22C,0.025400*%
%ADD23R,0.508000X2.032000*%
%ADD24R,0.635000X0.508000*%
%ADD25R,2.032000X0.508000*%
%ADD26R,0.508000X0.635000*%
%ADD27R,0.863600X0.609600*%
%ADD28R,0.635000X3.556000*%
%ADD29R,1.397000X0.762000*%
%ADD30R,3.556000X0.635000*%
%ADD31R,0.762000X1.397000*%
%ADD32R,0.508000X2.540000*%
%ADD33R,1.905000X0.762000*%
%ADD34R,2.540000X0.508000*%
%ADD35R,0.762000X1.905000*%
%ADD36R,3.810000X0.635000*%


D10*
X608828Y445008D02*
X608828Y452804D01*
X610777Y452804D01*
X618573Y445008D01*
X620522Y445008D01*
X620522Y452804D01*
X620522Y456702D02*
X608828Y456702D01*
X608828Y462549D01*
X610777Y464498D01*
X612726Y464498D01*
X614675Y462549D01*
X616624Y464498D01*
X618573Y464498D01*
X620522Y462549D01*
X620522Y456702D01*
X614675Y456702D02*
X614675Y462549D01*
X608828Y468396D02*
X620522Y476192D01*
X620522Y468396D02*
X608828Y476192D01*
X614675Y480090D02*
X614675Y487886D01*
X610777Y491784D02*
X608828Y493733D01*
X608828Y497631D01*
X610777Y499580D01*
X612726Y499580D01*
X614675Y497631D01*
X614675Y495682D01*
X614675Y497631D02*
X616624Y499580D01*
X618573Y499580D01*
X620522Y497631D01*
X620522Y493733D01*
X618573Y491784D01*
X620522Y509325D02*
X608828Y509325D01*
X614675Y503478D01*
X614675Y511274D01*
X610777Y515172D02*
X608828Y517121D01*
X608828Y521019D01*
X610777Y522968D01*
X612726Y522968D01*
X614675Y521019D01*
X616624Y522968D01*
X618573Y522968D01*
X620522Y521019D01*
X620522Y517121D01*
X618573Y515172D01*
X616624Y515172D01*
X614675Y517121D01*
X612726Y515172D01*
X610777Y515172D01*
X614675Y517121D02*
X614675Y521019D01*
X608828Y544407D02*
X610777Y546356D01*
X608828Y544407D02*
X608828Y540509D01*
X610777Y538560D01*
X618573Y538560D01*
X620522Y540509D01*
X620522Y544407D01*
X618573Y546356D01*
X608828Y550254D02*
X608828Y552203D01*
X620522Y552203D01*
X620522Y550254D02*
X620522Y554152D01*
X620522Y559999D02*
X620522Y563897D01*
X618573Y565846D01*
X614675Y565846D01*
X612726Y563897D01*
X612726Y559999D01*
X614675Y558050D01*
X618573Y558050D01*
X620522Y559999D01*
X620522Y569744D02*
X612726Y569744D01*
X612726Y575591D01*
X614675Y577540D01*
X620522Y577540D01*
X620522Y583387D02*
X620522Y587285D01*
X620522Y583387D02*
X618573Y581438D01*
X614675Y581438D01*
X612726Y583387D01*
X612726Y587285D01*
X614675Y589234D01*
X616624Y589234D01*
X616624Y581438D01*
X612726Y604826D02*
X620522Y608724D01*
X612726Y612622D01*
X610777Y616520D02*
X618573Y616520D01*
X610777Y616520D02*
X608828Y618469D01*
X608828Y622367D01*
X610777Y624316D01*
X618573Y624316D01*
X620522Y622367D01*
X620522Y618469D01*
X618573Y616520D01*
X610777Y624316D01*
X618573Y628214D02*
X620522Y628214D01*
X618573Y628214D02*
X618573Y630162D01*
X620522Y630162D01*
X620522Y628214D01*
X620522Y639907D02*
X608828Y639907D01*
X614675Y634060D01*
X614675Y641856D01*
X631776Y445008D02*
X637623Y445008D01*
X639572Y446957D01*
X637623Y448906D01*
X639572Y450855D01*
X637623Y452804D01*
X631776Y452804D01*
X631776Y456702D02*
X637623Y456702D01*
X639572Y458651D01*
X637623Y460600D01*
X639572Y462549D01*
X637623Y464498D01*
X631776Y464498D01*
X631776Y468396D02*
X637623Y468396D01*
X639572Y470345D01*
X637623Y472294D01*
X639572Y474243D01*
X637623Y476192D01*
X631776Y476192D01*
X637623Y480090D02*
X639572Y480090D01*
X637623Y480090D02*
X637623Y482039D01*
X639572Y482039D01*
X639572Y480090D01*
X639572Y485937D02*
X639572Y491784D01*
X637623Y493733D01*
X635674Y491784D01*
X635674Y487886D01*
X633725Y485937D01*
X631776Y487886D01*
X631776Y493733D01*
X631776Y497631D02*
X639572Y497631D01*
X631776Y497631D02*
X631776Y499580D01*
X633725Y501529D01*
X639572Y501529D01*
X633725Y501529D02*
X631776Y503478D01*
X633725Y505427D01*
X639572Y505427D01*
X639572Y509325D02*
X627878Y509325D01*
X639572Y509325D02*
X639572Y515172D01*
X637623Y517121D01*
X633725Y517121D01*
X631776Y515172D01*
X631776Y509325D01*
X631776Y522968D02*
X631776Y526866D01*
X633725Y528815D01*
X639572Y528815D01*
X639572Y522968D01*
X637623Y521019D01*
X635674Y522968D01*
X635674Y528815D01*
X639572Y532713D02*
X627878Y532713D01*
X635674Y532713D02*
X639572Y538560D01*
X635674Y532713D02*
X631776Y538560D01*
X639572Y544407D02*
X639572Y548305D01*
X639572Y544407D02*
X637623Y542458D01*
X633725Y542458D01*
X631776Y544407D01*
X631776Y548305D01*
X633725Y550254D01*
X635674Y550254D01*
X635674Y542458D01*
X639572Y554152D02*
X631776Y554152D01*
X635674Y554152D02*
X631776Y558050D01*
X631776Y559999D01*
X637623Y563897D02*
X639572Y563897D01*
X637623Y563897D02*
X637623Y565846D01*
X639572Y565846D01*
X639572Y563897D01*
X631776Y571693D02*
X631776Y577540D01*
X631776Y571693D02*
X633725Y569744D01*
X637623Y569744D01*
X639572Y571693D01*
X639572Y577540D01*
X639572Y583387D02*
X639572Y587285D01*
X637623Y589234D01*
X633725Y589234D01*
X631776Y587285D01*
X631776Y583387D01*
X633725Y581438D01*
X637623Y581438D01*
X639572Y583387D01*
X639572Y593132D02*
X631776Y593132D01*
X631776Y595081D01*
X633725Y597030D01*
X639572Y597030D01*
X633725Y597030D02*
X631776Y598979D01*
X633725Y600928D01*
X639572Y600928D01*
D11*
X224790Y673100D02*
X181610Y673100D01*
X181610Y698500D02*
X224790Y698500D01*
X179070Y695960D02*
X179070Y675640D01*
X227330Y675640D02*
X227330Y695960D01*
X181610Y673100D02*
X181510Y673102D01*
X181411Y673108D01*
X181311Y673118D01*
X181213Y673131D01*
X181114Y673149D01*
X181017Y673170D01*
X180921Y673195D01*
X180825Y673224D01*
X180731Y673257D01*
X180638Y673293D01*
X180547Y673333D01*
X180457Y673377D01*
X180369Y673424D01*
X180283Y673474D01*
X180199Y673528D01*
X180117Y673585D01*
X180038Y673645D01*
X179960Y673709D01*
X179886Y673775D01*
X179814Y673844D01*
X179745Y673916D01*
X179679Y673990D01*
X179615Y674068D01*
X179555Y674147D01*
X179498Y674229D01*
X179444Y674313D01*
X179394Y674399D01*
X179347Y674487D01*
X179303Y674577D01*
X179263Y674668D01*
X179227Y674761D01*
X179194Y674855D01*
X179165Y674951D01*
X179140Y675047D01*
X179119Y675144D01*
X179101Y675243D01*
X179088Y675341D01*
X179078Y675441D01*
X179072Y675540D01*
X179070Y675640D01*
X224790Y673100D02*
X224890Y673102D01*
X224989Y673108D01*
X225089Y673118D01*
X225187Y673131D01*
X225286Y673149D01*
X225383Y673170D01*
X225479Y673195D01*
X225575Y673224D01*
X225669Y673257D01*
X225762Y673293D01*
X225853Y673333D01*
X225943Y673377D01*
X226031Y673424D01*
X226117Y673474D01*
X226201Y673528D01*
X226283Y673585D01*
X226362Y673645D01*
X226440Y673709D01*
X226514Y673775D01*
X226586Y673844D01*
X226655Y673916D01*
X226721Y673990D01*
X226785Y674068D01*
X226845Y674147D01*
X226902Y674229D01*
X226956Y674313D01*
X227006Y674399D01*
X227053Y674487D01*
X227097Y674577D01*
X227137Y674668D01*
X227173Y674761D01*
X227206Y674855D01*
X227235Y674951D01*
X227260Y675047D01*
X227281Y675144D01*
X227299Y675243D01*
X227312Y675341D01*
X227322Y675441D01*
X227328Y675540D01*
X227330Y675640D01*
X181610Y698500D02*
X181510Y698498D01*
X181411Y698492D01*
X181311Y698482D01*
X181213Y698469D01*
X181114Y698451D01*
X181017Y698430D01*
X180921Y698405D01*
X180825Y698376D01*
X180731Y698343D01*
X180638Y698307D01*
X180547Y698267D01*
X180457Y698223D01*
X180369Y698176D01*
X180283Y698126D01*
X180199Y698072D01*
X180117Y698015D01*
X180038Y697955D01*
X179960Y697891D01*
X179886Y697825D01*
X179814Y697756D01*
X179745Y697684D01*
X179679Y697610D01*
X179615Y697532D01*
X179555Y697453D01*
X179498Y697371D01*
X179444Y697287D01*
X179394Y697201D01*
X179347Y697113D01*
X179303Y697023D01*
X179263Y696932D01*
X179227Y696839D01*
X179194Y696745D01*
X179165Y696649D01*
X179140Y696553D01*
X179119Y696456D01*
X179101Y696357D01*
X179088Y696259D01*
X179078Y696159D01*
X179072Y696060D01*
X179070Y695960D01*
X224790Y698500D02*
X224890Y698498D01*
X224989Y698492D01*
X225089Y698482D01*
X225187Y698469D01*
X225286Y698451D01*
X225383Y698430D01*
X225479Y698405D01*
X225575Y698376D01*
X225669Y698343D01*
X225762Y698307D01*
X225853Y698267D01*
X225943Y698223D01*
X226031Y698176D01*
X226117Y698126D01*
X226201Y698072D01*
X226283Y698015D01*
X226362Y697955D01*
X226440Y697891D01*
X226514Y697825D01*
X226586Y697756D01*
X226655Y697684D01*
X226721Y697610D01*
X226785Y697532D01*
X226845Y697453D01*
X226902Y697371D01*
X226956Y697287D01*
X227006Y697201D01*
X227053Y697113D01*
X227097Y697023D01*
X227137Y696932D01*
X227173Y696839D01*
X227206Y696745D01*
X227235Y696649D01*
X227260Y696553D01*
X227281Y696456D01*
X227299Y696357D01*
X227312Y696259D01*
X227322Y696159D01*
X227328Y696060D01*
X227330Y695960D01*
X200660Y685800D02*
X199390Y685800D01*
D12*
X200660Y685800D02*
X200660Y678180D01*
X200660Y685800D02*
X200660Y693420D01*
X205740Y685800D02*
X205740Y678180D01*
X205740Y685800D02*
X205740Y693420D01*
D11*
X205740Y685800D02*
X207010Y685800D01*
D13*
X584200Y307848D02*
X590550Y307848D01*
X584200Y307848D02*
X577850Y307848D01*
D11*
X584200Y307848D02*
X584200Y320040D01*
D13*
X584200Y301498D02*
X590550Y301498D01*
X584200Y301498D02*
X577850Y301498D01*
D11*
X584200Y301498D02*
X584200Y289560D01*
X594360Y341630D02*
X574040Y341630D01*
X571500Y339090D02*
X571500Y270510D01*
X574040Y267970D02*
X594360Y267970D01*
X596900Y270510D02*
X596900Y339090D01*
X596900Y270510D02*
X596898Y270410D01*
X596892Y270311D01*
X596882Y270211D01*
X596869Y270113D01*
X596851Y270014D01*
X596830Y269917D01*
X596805Y269821D01*
X596776Y269725D01*
X596743Y269631D01*
X596707Y269538D01*
X596667Y269447D01*
X596623Y269357D01*
X596576Y269269D01*
X596526Y269183D01*
X596472Y269099D01*
X596415Y269017D01*
X596355Y268938D01*
X596291Y268860D01*
X596225Y268786D01*
X596156Y268714D01*
X596084Y268645D01*
X596010Y268579D01*
X595932Y268515D01*
X595853Y268455D01*
X595771Y268398D01*
X595687Y268344D01*
X595601Y268294D01*
X595513Y268247D01*
X595423Y268203D01*
X595332Y268163D01*
X595239Y268127D01*
X595145Y268094D01*
X595049Y268065D01*
X594953Y268040D01*
X594856Y268019D01*
X594757Y268001D01*
X594659Y267988D01*
X594559Y267978D01*
X594460Y267972D01*
X594360Y267970D01*
X574040Y267970D02*
X573940Y267972D01*
X573841Y267978D01*
X573741Y267988D01*
X573643Y268001D01*
X573544Y268019D01*
X573447Y268040D01*
X573351Y268065D01*
X573255Y268094D01*
X573161Y268127D01*
X573068Y268163D01*
X572977Y268203D01*
X572887Y268247D01*
X572799Y268294D01*
X572713Y268344D01*
X572629Y268398D01*
X572547Y268455D01*
X572468Y268515D01*
X572390Y268579D01*
X572316Y268645D01*
X572244Y268714D01*
X572175Y268786D01*
X572109Y268860D01*
X572045Y268938D01*
X571985Y269017D01*
X571928Y269099D01*
X571874Y269183D01*
X571824Y269269D01*
X571777Y269357D01*
X571733Y269447D01*
X571693Y269538D01*
X571657Y269631D01*
X571624Y269725D01*
X571595Y269821D01*
X571570Y269917D01*
X571549Y270014D01*
X571531Y270113D01*
X571518Y270211D01*
X571508Y270311D01*
X571502Y270410D01*
X571500Y270510D01*
X571500Y339090D02*
X571502Y339190D01*
X571508Y339289D01*
X571518Y339389D01*
X571531Y339487D01*
X571549Y339586D01*
X571570Y339683D01*
X571595Y339779D01*
X571624Y339875D01*
X571657Y339969D01*
X571693Y340062D01*
X571733Y340153D01*
X571777Y340243D01*
X571824Y340331D01*
X571874Y340417D01*
X571928Y340501D01*
X571985Y340583D01*
X572045Y340662D01*
X572109Y340740D01*
X572175Y340814D01*
X572244Y340886D01*
X572316Y340955D01*
X572390Y341021D01*
X572468Y341085D01*
X572547Y341145D01*
X572629Y341202D01*
X572713Y341256D01*
X572799Y341306D01*
X572887Y341353D01*
X572977Y341397D01*
X573068Y341437D01*
X573161Y341473D01*
X573255Y341506D01*
X573351Y341535D01*
X573447Y341560D01*
X573544Y341581D01*
X573643Y341599D01*
X573741Y341612D01*
X573841Y341622D01*
X573940Y341628D01*
X574040Y341630D01*
X594360Y341630D02*
X594460Y341628D01*
X594559Y341622D01*
X594659Y341612D01*
X594757Y341599D01*
X594856Y341581D01*
X594953Y341560D01*
X595049Y341535D01*
X595145Y341506D01*
X595239Y341473D01*
X595332Y341437D01*
X595423Y341397D01*
X595513Y341353D01*
X595601Y341306D01*
X595687Y341256D01*
X595771Y341202D01*
X595853Y341145D01*
X595932Y341085D01*
X596010Y341021D01*
X596084Y340955D01*
X596156Y340886D01*
X596225Y340814D01*
X596291Y340740D01*
X596355Y340662D01*
X596415Y340583D01*
X596472Y340501D01*
X596526Y340417D01*
X596576Y340331D01*
X596623Y340243D01*
X596667Y340153D01*
X596707Y340062D01*
X596743Y339969D01*
X596776Y339875D01*
X596805Y339779D01*
X596830Y339683D01*
X596851Y339586D01*
X596869Y339487D01*
X596882Y339389D01*
X596892Y339289D01*
X596898Y339190D01*
X596900Y339090D01*
X508000Y300990D02*
X508000Y257810D01*
X533400Y257810D02*
X533400Y300990D01*
X530860Y303530D02*
X510540Y303530D01*
X510540Y255270D02*
X530860Y255270D01*
X508000Y300990D02*
X508002Y301090D01*
X508008Y301189D01*
X508018Y301289D01*
X508031Y301387D01*
X508049Y301486D01*
X508070Y301583D01*
X508095Y301679D01*
X508124Y301775D01*
X508157Y301869D01*
X508193Y301962D01*
X508233Y302053D01*
X508277Y302143D01*
X508324Y302231D01*
X508374Y302317D01*
X508428Y302401D01*
X508485Y302483D01*
X508545Y302562D01*
X508609Y302640D01*
X508675Y302714D01*
X508744Y302786D01*
X508816Y302855D01*
X508890Y302921D01*
X508968Y302985D01*
X509047Y303045D01*
X509129Y303102D01*
X509213Y303156D01*
X509299Y303206D01*
X509387Y303253D01*
X509477Y303297D01*
X509568Y303337D01*
X509661Y303373D01*
X509755Y303406D01*
X509851Y303435D01*
X509947Y303460D01*
X510044Y303481D01*
X510143Y303499D01*
X510241Y303512D01*
X510341Y303522D01*
X510440Y303528D01*
X510540Y303530D01*
X508000Y257810D02*
X508002Y257710D01*
X508008Y257611D01*
X508018Y257511D01*
X508031Y257413D01*
X508049Y257314D01*
X508070Y257217D01*
X508095Y257121D01*
X508124Y257025D01*
X508157Y256931D01*
X508193Y256838D01*
X508233Y256747D01*
X508277Y256657D01*
X508324Y256569D01*
X508374Y256483D01*
X508428Y256399D01*
X508485Y256317D01*
X508545Y256238D01*
X508609Y256160D01*
X508675Y256086D01*
X508744Y256014D01*
X508816Y255945D01*
X508890Y255879D01*
X508968Y255815D01*
X509047Y255755D01*
X509129Y255698D01*
X509213Y255644D01*
X509299Y255594D01*
X509387Y255547D01*
X509477Y255503D01*
X509568Y255463D01*
X509661Y255427D01*
X509755Y255394D01*
X509851Y255365D01*
X509947Y255340D01*
X510044Y255319D01*
X510143Y255301D01*
X510241Y255288D01*
X510341Y255278D01*
X510440Y255272D01*
X510540Y255270D01*
X533400Y300990D02*
X533398Y301090D01*
X533392Y301189D01*
X533382Y301289D01*
X533369Y301387D01*
X533351Y301486D01*
X533330Y301583D01*
X533305Y301679D01*
X533276Y301775D01*
X533243Y301869D01*
X533207Y301962D01*
X533167Y302053D01*
X533123Y302143D01*
X533076Y302231D01*
X533026Y302317D01*
X532972Y302401D01*
X532915Y302483D01*
X532855Y302562D01*
X532791Y302640D01*
X532725Y302714D01*
X532656Y302786D01*
X532584Y302855D01*
X532510Y302921D01*
X532432Y302985D01*
X532353Y303045D01*
X532271Y303102D01*
X532187Y303156D01*
X532101Y303206D01*
X532013Y303253D01*
X531923Y303297D01*
X531832Y303337D01*
X531739Y303373D01*
X531645Y303406D01*
X531549Y303435D01*
X531453Y303460D01*
X531356Y303481D01*
X531257Y303499D01*
X531159Y303512D01*
X531059Y303522D01*
X530960Y303528D01*
X530860Y303530D01*
X533400Y257810D02*
X533398Y257710D01*
X533392Y257611D01*
X533382Y257511D01*
X533369Y257413D01*
X533351Y257314D01*
X533330Y257217D01*
X533305Y257121D01*
X533276Y257025D01*
X533243Y256931D01*
X533207Y256838D01*
X533167Y256747D01*
X533123Y256657D01*
X533076Y256569D01*
X533026Y256483D01*
X532972Y256399D01*
X532915Y256317D01*
X532855Y256238D01*
X532791Y256160D01*
X532725Y256086D01*
X532656Y256014D01*
X532584Y255945D01*
X532510Y255879D01*
X532432Y255815D01*
X532353Y255755D01*
X532271Y255698D01*
X532187Y255644D01*
X532101Y255594D01*
X532013Y255547D01*
X531923Y255503D01*
X531832Y255463D01*
X531739Y255427D01*
X531645Y255394D01*
X531549Y255365D01*
X531453Y255340D01*
X531356Y255319D01*
X531257Y255301D01*
X531159Y255288D01*
X531059Y255278D01*
X530960Y255272D01*
X530860Y255270D01*
X520700Y281940D02*
X520700Y283210D01*
D12*
X520700Y281940D02*
X513080Y281940D01*
X520700Y281940D02*
X528320Y281940D01*
X520700Y276860D02*
X513080Y276860D01*
X520700Y276860D02*
X528320Y276860D01*
D11*
X520700Y276860D02*
X520700Y275590D01*
X687070Y114300D02*
X689610Y114300D01*
X687070Y114300D02*
X687070Y116840D01*
X687070Y114300D02*
X684530Y114300D01*
X687070Y114300D02*
X687070Y111760D01*
X647700Y127000D02*
X647708Y127623D01*
X647731Y128246D01*
X647769Y128869D01*
X647822Y129490D01*
X647891Y130109D01*
X647975Y130727D01*
X648074Y131342D01*
X648188Y131955D01*
X648317Y132565D01*
X648461Y133172D01*
X648620Y133775D01*
X648794Y134373D01*
X648982Y134968D01*
X649185Y135557D01*
X649402Y136141D01*
X649633Y136720D01*
X649879Y137293D01*
X650139Y137860D01*
X650412Y138420D01*
X650699Y138973D01*
X651000Y139520D01*
X651314Y140058D01*
X651641Y140589D01*
X651981Y141111D01*
X652333Y141626D01*
X652699Y142131D01*
X653076Y142627D01*
X653466Y143114D01*
X653867Y143591D01*
X654280Y144058D01*
X654704Y144514D01*
X655139Y144961D01*
X655586Y145396D01*
X656042Y145820D01*
X656509Y146233D01*
X656986Y146634D01*
X657473Y147024D01*
X657969Y147401D01*
X658474Y147767D01*
X658989Y148119D01*
X659511Y148459D01*
X660042Y148786D01*
X660580Y149100D01*
X661127Y149401D01*
X661680Y149688D01*
X662240Y149961D01*
X662807Y150221D01*
X663380Y150467D01*
X663959Y150698D01*
X664543Y150915D01*
X665132Y151118D01*
X665727Y151306D01*
X666325Y151480D01*
X666928Y151639D01*
X667535Y151783D01*
X668145Y151912D01*
X668758Y152026D01*
X669373Y152125D01*
X669991Y152209D01*
X670610Y152278D01*
X671231Y152331D01*
X671854Y152369D01*
X672477Y152392D01*
X673100Y152400D01*
X673723Y152392D01*
X674346Y152369D01*
X674969Y152331D01*
X675590Y152278D01*
X676209Y152209D01*
X676827Y152125D01*
X677442Y152026D01*
X678055Y151912D01*
X678665Y151783D01*
X679272Y151639D01*
X679875Y151480D01*
X680473Y151306D01*
X681068Y151118D01*
X681657Y150915D01*
X682241Y150698D01*
X682820Y150467D01*
X683393Y150221D01*
X683960Y149961D01*
X684520Y149688D01*
X685073Y149401D01*
X685620Y149100D01*
X686158Y148786D01*
X686689Y148459D01*
X687211Y148119D01*
X687726Y147767D01*
X688231Y147401D01*
X688727Y147024D01*
X689214Y146634D01*
X689691Y146233D01*
X690158Y145820D01*
X690614Y145396D01*
X691061Y144961D01*
X691496Y144514D01*
X691920Y144058D01*
X692333Y143591D01*
X692734Y143114D01*
X693124Y142627D01*
X693501Y142131D01*
X693867Y141626D01*
X694219Y141111D01*
X694559Y140589D01*
X694886Y140058D01*
X695200Y139520D01*
X695501Y138973D01*
X695788Y138420D01*
X696061Y137860D01*
X696321Y137293D01*
X696567Y136720D01*
X696798Y136141D01*
X697015Y135557D01*
X697218Y134968D01*
X697406Y134373D01*
X697580Y133775D01*
X697739Y133172D01*
X697883Y132565D01*
X698012Y131955D01*
X698126Y131342D01*
X698225Y130727D01*
X698309Y130109D01*
X698378Y129490D01*
X698431Y128869D01*
X698469Y128246D01*
X698492Y127623D01*
X698500Y127000D01*
X698492Y126377D01*
X698469Y125754D01*
X698431Y125131D01*
X698378Y124510D01*
X698309Y123891D01*
X698225Y123273D01*
X698126Y122658D01*
X698012Y122045D01*
X697883Y121435D01*
X697739Y120828D01*
X697580Y120225D01*
X697406Y119627D01*
X697218Y119032D01*
X697015Y118443D01*
X696798Y117859D01*
X696567Y117280D01*
X696321Y116707D01*
X696061Y116140D01*
X695788Y115580D01*
X695501Y115027D01*
X695200Y114480D01*
X694886Y113942D01*
X694559Y113411D01*
X694219Y112889D01*
X693867Y112374D01*
X693501Y111869D01*
X693124Y111373D01*
X692734Y110886D01*
X692333Y110409D01*
X691920Y109942D01*
X691496Y109486D01*
X691061Y109039D01*
X690614Y108604D01*
X690158Y108180D01*
X689691Y107767D01*
X689214Y107366D01*
X688727Y106976D01*
X688231Y106599D01*
X687726Y106233D01*
X687211Y105881D01*
X686689Y105541D01*
X686158Y105214D01*
X685620Y104900D01*
X685073Y104599D01*
X684520Y104312D01*
X683960Y104039D01*
X683393Y103779D01*
X682820Y103533D01*
X682241Y103302D01*
X681657Y103085D01*
X681068Y102882D01*
X680473Y102694D01*
X679875Y102520D01*
X679272Y102361D01*
X678665Y102217D01*
X678055Y102088D01*
X677442Y101974D01*
X676827Y101875D01*
X676209Y101791D01*
X675590Y101722D01*
X674969Y101669D01*
X674346Y101631D01*
X673723Y101608D01*
X673100Y101600D01*
X672477Y101608D01*
X671854Y101631D01*
X671231Y101669D01*
X670610Y101722D01*
X669991Y101791D01*
X669373Y101875D01*
X668758Y101974D01*
X668145Y102088D01*
X667535Y102217D01*
X666928Y102361D01*
X666325Y102520D01*
X665727Y102694D01*
X665132Y102882D01*
X664543Y103085D01*
X663959Y103302D01*
X663380Y103533D01*
X662807Y103779D01*
X662240Y104039D01*
X661680Y104312D01*
X661127Y104599D01*
X660580Y104900D01*
X660042Y105214D01*
X659511Y105541D01*
X658989Y105881D01*
X658474Y106233D01*
X657969Y106599D01*
X657473Y106976D01*
X656986Y107366D01*
X656509Y107767D01*
X656042Y108180D01*
X655586Y108604D01*
X655139Y109039D01*
X654704Y109486D01*
X654280Y109942D01*
X653867Y110409D01*
X653466Y110886D01*
X653076Y111373D01*
X652699Y111869D01*
X652333Y112374D01*
X651981Y112889D01*
X651641Y113411D01*
X651314Y113942D01*
X651000Y114480D01*
X650699Y115027D01*
X650412Y115580D01*
X650139Y116140D01*
X649879Y116707D01*
X649633Y117280D01*
X649402Y117859D01*
X649185Y118443D01*
X648982Y119032D01*
X648794Y119627D01*
X648620Y120225D01*
X648461Y120828D01*
X648317Y121435D01*
X648188Y122045D01*
X648074Y122658D01*
X647975Y123273D01*
X647891Y123891D01*
X647822Y124510D01*
X647769Y125131D01*
X647731Y125754D01*
X647708Y126377D01*
X647700Y127000D01*
D14*
X711825Y123937D02*
X713732Y125844D01*
X711825Y123937D02*
X711825Y120124D01*
X713732Y118217D01*
X721358Y118217D01*
X723265Y120124D01*
X723265Y123937D01*
X721358Y125844D01*
X713732Y133724D02*
X711825Y137538D01*
X713732Y133724D02*
X717545Y129911D01*
X721358Y129911D01*
X723265Y131818D01*
X723265Y135631D01*
X721358Y137538D01*
X719452Y137538D01*
X717545Y135631D01*
X717545Y129911D01*
X628009Y95835D02*
X624195Y99648D01*
X635635Y99648D01*
X635635Y95835D02*
X635635Y103462D01*
X633728Y107529D02*
X626102Y107529D01*
X624195Y109436D01*
X624195Y113249D01*
X626102Y115156D01*
X633728Y115156D01*
X635635Y113249D01*
X635635Y109436D01*
X633728Y107529D01*
X626102Y115156D01*
X626102Y119223D02*
X633728Y119223D01*
X626102Y119223D02*
X624195Y121130D01*
X624195Y124943D01*
X626102Y126849D01*
X633728Y126849D01*
X635635Y124943D01*
X635635Y121130D01*
X633728Y119223D01*
X626102Y126849D01*
X628009Y130917D02*
X633728Y130917D01*
X635635Y132824D01*
X635635Y138543D01*
X628009Y138543D01*
X624195Y142611D02*
X635635Y142611D01*
X624195Y142611D02*
X624195Y150237D01*
X629915Y146424D02*
X629915Y142611D01*
D11*
X571500Y116840D02*
X568960Y114300D01*
X571500Y116840D02*
X574040Y114300D01*
X571500Y137160D02*
X568960Y139700D01*
X571500Y137160D02*
X574040Y139700D01*
X594360Y139700D01*
X596900Y137160D01*
X548640Y139700D02*
X546100Y137160D01*
X548640Y139700D02*
X568960Y139700D01*
X546100Y137160D02*
X546100Y116840D01*
X548640Y114300D01*
X568960Y114300D01*
X574040Y114300D02*
X594360Y114300D01*
X596900Y116840D01*
X596900Y137160D01*
D14*
X562453Y100332D02*
X564360Y98425D01*
X566266Y98425D01*
X568173Y100332D01*
X568173Y109865D01*
X566266Y109865D02*
X570080Y109865D01*
X574147Y109865D02*
X574147Y98425D01*
X574147Y109865D02*
X579867Y109865D01*
X581774Y107958D01*
X581774Y104145D01*
X579867Y102238D01*
X574147Y102238D01*
X585841Y109865D02*
X593467Y109865D01*
X585841Y109865D02*
X585841Y104145D01*
X589654Y106052D01*
X591561Y106052D01*
X593467Y104145D01*
X593467Y100332D01*
X591561Y98425D01*
X587748Y98425D01*
X585841Y100332D01*
X550759Y144145D02*
X550759Y155585D01*
X554572Y151772D01*
X558386Y155585D01*
X558386Y144145D01*
X562453Y144145D02*
X562453Y155585D01*
X568173Y155585D01*
X570080Y153678D01*
X570080Y149865D01*
X568173Y147958D01*
X562453Y147958D01*
X579867Y155585D02*
X581773Y153678D01*
X579867Y155585D02*
X576054Y155585D01*
X574147Y153678D01*
X574147Y151772D01*
X576054Y149865D01*
X579867Y149865D01*
X581773Y147958D01*
X581773Y146052D01*
X579867Y144145D01*
X576054Y144145D01*
X574147Y146052D01*
X589654Y144145D02*
X589654Y155585D01*
X585841Y155585D02*
X593467Y155585D01*
D11*
X486410Y139700D02*
X486410Y647700D01*
X351790Y647700D02*
X351790Y139700D01*
X486410Y139700D01*
X486410Y647700D02*
X427990Y647700D01*
X407670Y647700D02*
X351790Y647700D01*
X407670Y647700D02*
X407673Y647453D01*
X407682Y647205D01*
X407697Y646958D01*
X407718Y646712D01*
X407745Y646466D01*
X407778Y646221D01*
X407817Y645976D01*
X407862Y645733D01*
X407913Y645491D01*
X407970Y645250D01*
X408032Y645011D01*
X408101Y644773D01*
X408175Y644537D01*
X408255Y644303D01*
X408340Y644071D01*
X408432Y643841D01*
X408528Y643613D01*
X408631Y643388D01*
X408738Y643165D01*
X408852Y642945D01*
X408970Y642728D01*
X409094Y642513D01*
X409223Y642302D01*
X409357Y642094D01*
X409496Y641889D01*
X409640Y641688D01*
X409788Y641490D01*
X409942Y641296D01*
X410100Y641106D01*
X410263Y640920D01*
X410430Y640738D01*
X410602Y640560D01*
X410778Y640386D01*
X410958Y640216D01*
X411143Y640051D01*
X411331Y639891D01*
X411523Y639735D01*
X411719Y639583D01*
X411918Y639437D01*
X412121Y639295D01*
X412328Y639159D01*
X412537Y639027D01*
X412750Y638901D01*
X412966Y638780D01*
X413184Y638664D01*
X413406Y638554D01*
X413630Y638449D01*
X413856Y638349D01*
X414085Y638255D01*
X414316Y638167D01*
X414550Y638084D01*
X414785Y638007D01*
X415022Y637936D01*
X415260Y637870D01*
X415500Y637811D01*
X415742Y637757D01*
X415985Y637709D01*
X416228Y637667D01*
X416473Y637631D01*
X416719Y637601D01*
X416965Y637577D01*
X417212Y637559D01*
X417459Y637547D01*
X417706Y637541D01*
X417954Y637541D01*
X418201Y637547D01*
X418448Y637559D01*
X418695Y637577D01*
X418941Y637601D01*
X419187Y637631D01*
X419432Y637667D01*
X419675Y637709D01*
X419918Y637757D01*
X420160Y637811D01*
X420400Y637870D01*
X420638Y637936D01*
X420875Y638007D01*
X421110Y638084D01*
X421344Y638167D01*
X421575Y638255D01*
X421804Y638349D01*
X422030Y638449D01*
X422254Y638554D01*
X422476Y638664D01*
X422694Y638780D01*
X422910Y638901D01*
X423123Y639027D01*
X423332Y639159D01*
X423539Y639295D01*
X423742Y639437D01*
X423941Y639583D01*
X424137Y639735D01*
X424329Y639891D01*
X424517Y640051D01*
X424702Y640216D01*
X424882Y640386D01*
X425058Y640560D01*
X425230Y640738D01*
X425397Y640920D01*
X425560Y641106D01*
X425718Y641296D01*
X425872Y641490D01*
X426020Y641688D01*
X426164Y641889D01*
X426303Y642094D01*
X426437Y642302D01*
X426566Y642513D01*
X426690Y642728D01*
X426808Y642945D01*
X426922Y643165D01*
X427029Y643388D01*
X427132Y643613D01*
X427228Y643841D01*
X427320Y644071D01*
X427405Y644303D01*
X427485Y644537D01*
X427559Y644773D01*
X427628Y645011D01*
X427690Y645250D01*
X427747Y645491D01*
X427798Y645733D01*
X427843Y645976D01*
X427882Y646221D01*
X427915Y646466D01*
X427942Y646712D01*
X427963Y646958D01*
X427978Y647205D01*
X427987Y647453D01*
X427990Y647700D01*
X359245Y653542D02*
X353822Y653542D01*
X356534Y653542D02*
X356534Y669812D01*
X359245Y669812D02*
X353822Y669812D01*
X372871Y669812D02*
X375583Y667100D01*
X372871Y669812D02*
X367448Y669812D01*
X364736Y667100D01*
X364736Y656254D01*
X367448Y653542D01*
X372871Y653542D01*
X375583Y656254D01*
X381108Y664389D02*
X386531Y669812D01*
X386531Y653542D01*
X381108Y653542D02*
X391955Y653542D01*
X409688Y503137D02*
X412400Y500426D01*
X409688Y503137D02*
X409688Y508561D01*
X412400Y511272D01*
X415111Y511272D01*
X417823Y508561D01*
X420535Y511272D01*
X423246Y511272D01*
X425958Y508561D01*
X425958Y503137D01*
X423246Y500426D01*
X420535Y500426D01*
X417823Y503137D01*
X415111Y500426D01*
X412400Y500426D01*
X417823Y503137D02*
X417823Y508561D01*
X425958Y516797D02*
X425958Y527644D01*
X425958Y516797D02*
X415111Y527644D01*
X412400Y527644D01*
X409688Y524932D01*
X409688Y519509D01*
X412400Y516797D01*
X409688Y533169D02*
X409688Y544015D01*
X409688Y533169D02*
X417823Y533169D01*
X415111Y538592D01*
X415111Y541304D01*
X417823Y544015D01*
X423246Y544015D01*
X425958Y541304D01*
X425958Y535880D01*
X423246Y533169D01*
X409688Y549540D02*
X409688Y560387D01*
X409688Y549540D02*
X417823Y549540D01*
X415111Y554964D01*
X415111Y557675D01*
X417823Y560387D01*
X423246Y560387D01*
X425958Y557675D01*
X425958Y552252D01*
X423246Y549540D01*
X207010Y673100D02*
X207010Y419100D01*
X148590Y419100D02*
X148590Y673100D01*
X148590Y419100D02*
X207010Y419100D01*
X207010Y673100D02*
X187960Y673100D01*
X167640Y673100D02*
X148590Y673100D01*
X167640Y673100D02*
X167643Y672853D01*
X167652Y672605D01*
X167667Y672358D01*
X167688Y672112D01*
X167715Y671866D01*
X167748Y671621D01*
X167787Y671376D01*
X167832Y671133D01*
X167883Y670891D01*
X167940Y670650D01*
X168002Y670411D01*
X168071Y670173D01*
X168145Y669937D01*
X168225Y669703D01*
X168310Y669471D01*
X168402Y669241D01*
X168498Y669013D01*
X168601Y668788D01*
X168708Y668565D01*
X168822Y668345D01*
X168940Y668128D01*
X169064Y667913D01*
X169193Y667702D01*
X169327Y667494D01*
X169466Y667289D01*
X169610Y667088D01*
X169758Y666890D01*
X169912Y666696D01*
X170070Y666506D01*
X170233Y666320D01*
X170400Y666138D01*
X170572Y665960D01*
X170748Y665786D01*
X170928Y665616D01*
X171113Y665451D01*
X171301Y665291D01*
X171493Y665135D01*
X171689Y664983D01*
X171888Y664837D01*
X172091Y664695D01*
X172298Y664559D01*
X172507Y664427D01*
X172720Y664301D01*
X172936Y664180D01*
X173154Y664064D01*
X173376Y663954D01*
X173600Y663849D01*
X173826Y663749D01*
X174055Y663655D01*
X174286Y663567D01*
X174520Y663484D01*
X174755Y663407D01*
X174992Y663336D01*
X175230Y663270D01*
X175470Y663211D01*
X175712Y663157D01*
X175955Y663109D01*
X176198Y663067D01*
X176443Y663031D01*
X176689Y663001D01*
X176935Y662977D01*
X177182Y662959D01*
X177429Y662947D01*
X177676Y662941D01*
X177924Y662941D01*
X178171Y662947D01*
X178418Y662959D01*
X178665Y662977D01*
X178911Y663001D01*
X179157Y663031D01*
X179402Y663067D01*
X179645Y663109D01*
X179888Y663157D01*
X180130Y663211D01*
X180370Y663270D01*
X180608Y663336D01*
X180845Y663407D01*
X181080Y663484D01*
X181314Y663567D01*
X181545Y663655D01*
X181774Y663749D01*
X182000Y663849D01*
X182224Y663954D01*
X182446Y664064D01*
X182664Y664180D01*
X182880Y664301D01*
X183093Y664427D01*
X183302Y664559D01*
X183509Y664695D01*
X183712Y664837D01*
X183911Y664983D01*
X184107Y665135D01*
X184299Y665291D01*
X184487Y665451D01*
X184672Y665616D01*
X184852Y665786D01*
X185028Y665960D01*
X185200Y666138D01*
X185367Y666320D01*
X185530Y666506D01*
X185688Y666696D01*
X185842Y666890D01*
X185990Y667088D01*
X186134Y667289D01*
X186273Y667494D01*
X186407Y667702D01*
X186536Y667913D01*
X186660Y668128D01*
X186778Y668345D01*
X186892Y668565D01*
X186999Y668788D01*
X187102Y669013D01*
X187198Y669241D01*
X187290Y669471D01*
X187375Y669703D01*
X187455Y669937D01*
X187529Y670173D01*
X187598Y670411D01*
X187660Y670650D01*
X187717Y670891D01*
X187768Y671133D01*
X187813Y671376D01*
X187852Y671621D01*
X187885Y671866D01*
X187912Y672112D01*
X187933Y672358D01*
X187948Y672605D01*
X187957Y672853D01*
X187960Y673100D01*
D10*
X151726Y677418D02*
X147828Y677418D01*
X149777Y677418D02*
X149777Y689112D01*
X147828Y689112D02*
X151726Y689112D01*
X161471Y689112D02*
X163420Y687163D01*
X161471Y689112D02*
X157573Y689112D01*
X155624Y687163D01*
X155624Y679367D01*
X157573Y677418D01*
X161471Y677418D01*
X163420Y679367D01*
X167318Y677418D02*
X175114Y677418D01*
X167318Y677418D02*
X175114Y685214D01*
X175114Y687163D01*
X173165Y689112D01*
X169267Y689112D01*
X167318Y687163D01*
X174488Y546948D02*
X174488Y539152D01*
X174488Y546948D02*
X176437Y546948D01*
X184233Y539152D01*
X186182Y539152D01*
X186182Y556693D02*
X174488Y556693D01*
X180335Y550846D01*
X180335Y558642D01*
X186182Y562540D02*
X174488Y562540D01*
X180335Y562540D02*
X180335Y570336D01*
X174488Y570336D02*
X186182Y570336D01*
X176437Y582030D02*
X174488Y580081D01*
X174488Y576183D01*
X176437Y574234D01*
X184233Y574234D01*
X186182Y576183D01*
X186182Y580081D01*
X184233Y582030D01*
X186182Y589826D02*
X174488Y589826D01*
X174488Y585928D02*
X174488Y593724D01*
X186182Y597622D02*
X186182Y605418D01*
X186182Y597622D02*
X178386Y605418D01*
X176437Y605418D01*
X174488Y603469D01*
X174488Y599571D01*
X176437Y597622D01*
X174488Y615163D02*
X186182Y615163D01*
X180335Y609316D02*
X174488Y615163D01*
X180335Y617112D02*
X180335Y609316D01*
X184233Y621010D02*
X176437Y621010D01*
X174488Y622959D01*
X174488Y626857D01*
X176437Y628806D01*
X184233Y628806D01*
X186182Y626857D01*
X186182Y622959D01*
X184233Y621010D01*
X176437Y628806D01*
X174488Y632704D02*
X186182Y632704D01*
X186182Y640500D02*
X174488Y632704D01*
X174488Y640500D02*
X186182Y640500D01*
D11*
X171450Y355600D02*
X152400Y355600D01*
X171450Y355600D02*
X171452Y355442D01*
X171458Y355283D01*
X171468Y355125D01*
X171482Y354968D01*
X171499Y354810D01*
X171521Y354654D01*
X171546Y354497D01*
X171576Y354342D01*
X171609Y354187D01*
X171646Y354033D01*
X171687Y353880D01*
X171732Y353728D01*
X171781Y353578D01*
X171833Y353428D01*
X171889Y353280D01*
X171949Y353133D01*
X172012Y352988D01*
X172079Y352845D01*
X172149Y352703D01*
X172223Y352563D01*
X172301Y352425D01*
X172382Y352289D01*
X172466Y352155D01*
X172553Y352023D01*
X172644Y351893D01*
X172738Y351766D01*
X172835Y351641D01*
X172936Y351518D01*
X173039Y351398D01*
X173145Y351281D01*
X173254Y351166D01*
X173366Y351054D01*
X173481Y350945D01*
X173598Y350839D01*
X173718Y350736D01*
X173841Y350635D01*
X173966Y350538D01*
X174093Y350444D01*
X174223Y350353D01*
X174355Y350266D01*
X174489Y350182D01*
X174625Y350101D01*
X174763Y350023D01*
X174903Y349949D01*
X175045Y349879D01*
X175188Y349812D01*
X175333Y349749D01*
X175480Y349689D01*
X175628Y349633D01*
X175778Y349581D01*
X175928Y349532D01*
X176080Y349487D01*
X176233Y349446D01*
X176387Y349409D01*
X176542Y349376D01*
X176697Y349346D01*
X176854Y349321D01*
X177010Y349299D01*
X177168Y349282D01*
X177325Y349268D01*
X177483Y349258D01*
X177642Y349252D01*
X177800Y349250D01*
X177958Y349252D01*
X178117Y349258D01*
X178275Y349268D01*
X178432Y349282D01*
X178590Y349299D01*
X178746Y349321D01*
X178903Y349346D01*
X179058Y349376D01*
X179213Y349409D01*
X179367Y349446D01*
X179520Y349487D01*
X179672Y349532D01*
X179822Y349581D01*
X179972Y349633D01*
X180120Y349689D01*
X180267Y349749D01*
X180412Y349812D01*
X180555Y349879D01*
X180697Y349949D01*
X180837Y350023D01*
X180975Y350101D01*
X181111Y350182D01*
X181245Y350266D01*
X181377Y350353D01*
X181507Y350444D01*
X181634Y350538D01*
X181759Y350635D01*
X181882Y350736D01*
X182002Y350839D01*
X182119Y350945D01*
X182234Y351054D01*
X182346Y351166D01*
X182455Y351281D01*
X182561Y351398D01*
X182664Y351518D01*
X182765Y351641D01*
X182862Y351766D01*
X182956Y351893D01*
X183047Y352023D01*
X183134Y352155D01*
X183218Y352289D01*
X183299Y352425D01*
X183377Y352563D01*
X183451Y352703D01*
X183521Y352845D01*
X183588Y352988D01*
X183651Y353133D01*
X183711Y353280D01*
X183767Y353428D01*
X183819Y353578D01*
X183868Y353728D01*
X183913Y353880D01*
X183954Y354033D01*
X183991Y354187D01*
X184024Y354342D01*
X184054Y354497D01*
X184079Y354654D01*
X184101Y354810D01*
X184118Y354968D01*
X184132Y355125D01*
X184142Y355283D01*
X184148Y355442D01*
X184150Y355600D01*
X152400Y355600D02*
X152400Y127000D01*
X203200Y127000D01*
X203200Y355600D01*
X184150Y355600D01*
D15*
X182624Y292989D02*
X169277Y292989D01*
X182624Y292989D02*
X185293Y295658D01*
X185293Y300997D01*
X182624Y303666D01*
X169277Y303666D01*
X182624Y309361D02*
X185293Y312030D01*
X185293Y317368D01*
X182624Y320038D01*
X179954Y320038D01*
X177285Y317368D01*
X177285Y312030D01*
X174616Y309361D01*
X171947Y309361D01*
X169277Y312030D01*
X169277Y317368D01*
X171947Y320038D01*
X166608Y314699D02*
X187962Y314699D01*
X174616Y325732D02*
X169277Y331071D01*
X185293Y331071D01*
X185293Y336409D02*
X185293Y325732D01*
X185801Y140288D02*
X169785Y140288D01*
X175124Y145626D01*
X169785Y150965D01*
X185801Y150965D01*
X169785Y164667D02*
X172455Y167337D01*
X169785Y164667D02*
X169785Y159329D01*
X172455Y156659D01*
X175124Y156659D01*
X177793Y159329D01*
X177793Y164667D01*
X180462Y167337D01*
X183132Y167337D01*
X185801Y164667D01*
X185801Y159329D01*
X183132Y156659D01*
X185801Y173031D02*
X169785Y173031D01*
X175124Y178370D01*
X169785Y183708D01*
X185801Y183708D01*
X169785Y189403D02*
X169785Y200080D01*
X169785Y189403D02*
X177793Y189403D01*
X175124Y194741D01*
X175124Y197410D01*
X177793Y200080D01*
X183132Y200080D01*
X185801Y197410D01*
X185801Y192072D01*
X183132Y189403D01*
X172455Y205774D02*
X169785Y208443D01*
X169785Y213782D01*
X172455Y216451D01*
X175124Y216451D01*
X177793Y213782D01*
X180462Y216451D01*
X183132Y216451D01*
X185801Y213782D01*
X185801Y208443D01*
X183132Y205774D01*
X180462Y205774D01*
X177793Y208443D01*
X175124Y205774D01*
X172455Y205774D01*
X177793Y208443D02*
X177793Y213782D01*
X172455Y222146D02*
X169785Y224815D01*
X169785Y230154D01*
X172455Y232823D01*
X175124Y232823D01*
X177793Y230154D01*
X177793Y227484D01*
X177793Y230154D02*
X180462Y232823D01*
X183132Y232823D01*
X185801Y230154D01*
X185801Y224815D01*
X183132Y222146D01*
X185801Y238517D02*
X185801Y249194D01*
X185801Y238517D02*
X175124Y249194D01*
X172455Y249194D01*
X169785Y246525D01*
X169785Y241187D01*
X172455Y238517D01*
D11*
X256540Y144780D02*
X256540Y363220D01*
X276860Y363220D02*
X276860Y144780D01*
X275590Y346710D02*
X257810Y346710D01*
X257810Y364490D01*
X271780Y368300D02*
X271920Y368298D01*
X272060Y368292D01*
X272200Y368283D01*
X272339Y368269D01*
X272478Y368252D01*
X272616Y368231D01*
X272754Y368206D01*
X272891Y368177D01*
X273027Y368145D01*
X273162Y368108D01*
X273296Y368068D01*
X273429Y368025D01*
X273561Y367977D01*
X273692Y367927D01*
X273821Y367872D01*
X273948Y367814D01*
X274074Y367753D01*
X274198Y367688D01*
X274320Y367619D01*
X274440Y367548D01*
X274558Y367473D01*
X274675Y367395D01*
X274789Y367313D01*
X274900Y367229D01*
X275009Y367141D01*
X275116Y367051D01*
X275221Y366957D01*
X275322Y366861D01*
X275421Y366762D01*
X275517Y366661D01*
X275611Y366556D01*
X275701Y366449D01*
X275789Y366340D01*
X275873Y366229D01*
X275955Y366115D01*
X276033Y365998D01*
X276108Y365880D01*
X276179Y365760D01*
X276248Y365638D01*
X276313Y365514D01*
X276374Y365388D01*
X276432Y365261D01*
X276487Y365132D01*
X276537Y365001D01*
X276585Y364869D01*
X276628Y364736D01*
X276668Y364602D01*
X276705Y364467D01*
X276737Y364331D01*
X276766Y364194D01*
X276791Y364056D01*
X276812Y363918D01*
X276829Y363779D01*
X276843Y363640D01*
X276852Y363500D01*
X276858Y363360D01*
X276860Y363220D01*
X256540Y144780D02*
X256542Y144640D01*
X256548Y144500D01*
X256557Y144360D01*
X256571Y144221D01*
X256588Y144082D01*
X256609Y143944D01*
X256634Y143806D01*
X256663Y143669D01*
X256695Y143533D01*
X256732Y143398D01*
X256772Y143264D01*
X256815Y143131D01*
X256863Y142999D01*
X256913Y142868D01*
X256968Y142739D01*
X257026Y142612D01*
X257087Y142486D01*
X257152Y142362D01*
X257221Y142240D01*
X257292Y142120D01*
X257367Y142002D01*
X257445Y141885D01*
X257527Y141771D01*
X257611Y141660D01*
X257699Y141551D01*
X257789Y141444D01*
X257883Y141339D01*
X257979Y141238D01*
X258078Y141139D01*
X258179Y141043D01*
X258284Y140949D01*
X258391Y140859D01*
X258500Y140771D01*
X258611Y140687D01*
X258725Y140605D01*
X258842Y140527D01*
X258960Y140452D01*
X259080Y140381D01*
X259202Y140312D01*
X259326Y140247D01*
X259452Y140186D01*
X259579Y140128D01*
X259708Y140073D01*
X259839Y140023D01*
X259971Y139975D01*
X260104Y139932D01*
X260238Y139892D01*
X260373Y139855D01*
X260509Y139823D01*
X260646Y139794D01*
X260784Y139769D01*
X260922Y139748D01*
X261061Y139731D01*
X261200Y139717D01*
X261340Y139708D01*
X261480Y139702D01*
X261620Y139700D01*
X271780Y139700D02*
X271920Y139702D01*
X272060Y139708D01*
X272200Y139717D01*
X272339Y139731D01*
X272478Y139748D01*
X272616Y139769D01*
X272754Y139794D01*
X272891Y139823D01*
X273027Y139855D01*
X273162Y139892D01*
X273296Y139932D01*
X273429Y139975D01*
X273561Y140023D01*
X273692Y140073D01*
X273821Y140128D01*
X273948Y140186D01*
X274074Y140247D01*
X274198Y140312D01*
X274320Y140381D01*
X274440Y140452D01*
X274558Y140527D01*
X274675Y140605D01*
X274789Y140687D01*
X274900Y140771D01*
X275009Y140859D01*
X275116Y140949D01*
X275221Y141043D01*
X275322Y141139D01*
X275421Y141238D01*
X275517Y141339D01*
X275611Y141444D01*
X275701Y141551D01*
X275789Y141660D01*
X275873Y141771D01*
X275955Y141885D01*
X276033Y142002D01*
X276108Y142120D01*
X276179Y142240D01*
X276248Y142362D01*
X276313Y142486D01*
X276374Y142612D01*
X276432Y142739D01*
X276487Y142868D01*
X276537Y142999D01*
X276585Y143131D01*
X276628Y143264D01*
X276668Y143398D01*
X276705Y143533D01*
X276737Y143669D01*
X276766Y143806D01*
X276791Y143944D01*
X276812Y144082D01*
X276829Y144221D01*
X276843Y144360D01*
X276852Y144500D01*
X276858Y144640D01*
X276860Y144780D01*
X256540Y363220D02*
X256542Y363360D01*
X256548Y363500D01*
X256557Y363640D01*
X256571Y363779D01*
X256588Y363918D01*
X256609Y364056D01*
X256634Y364194D01*
X256663Y364331D01*
X256695Y364467D01*
X256732Y364602D01*
X256772Y364736D01*
X256815Y364869D01*
X256863Y365001D01*
X256913Y365132D01*
X256968Y365261D01*
X257026Y365388D01*
X257087Y365514D01*
X257152Y365638D01*
X257221Y365760D01*
X257292Y365880D01*
X257367Y365998D01*
X257445Y366115D01*
X257527Y366229D01*
X257611Y366340D01*
X257699Y366449D01*
X257789Y366556D01*
X257883Y366661D01*
X257979Y366762D01*
X258078Y366861D01*
X258179Y366957D01*
X258284Y367051D01*
X258391Y367141D01*
X258500Y367229D01*
X258611Y367313D01*
X258725Y367395D01*
X258842Y367473D01*
X258960Y367548D01*
X259080Y367619D01*
X259202Y367688D01*
X259326Y367753D01*
X259452Y367814D01*
X259579Y367872D01*
X259708Y367927D01*
X259839Y367977D01*
X259971Y368025D01*
X260104Y368068D01*
X260238Y368108D01*
X260373Y368145D01*
X260509Y368177D01*
X260646Y368206D01*
X260784Y368231D01*
X260922Y368252D01*
X261061Y368269D01*
X261200Y368283D01*
X261340Y368292D01*
X261480Y368298D01*
X261620Y368300D01*
X261620Y139700D02*
X271780Y139700D01*
X271780Y368300D02*
X261620Y368300D01*
X257810Y364490D02*
X275590Y364490D01*
X275590Y346710D01*
D14*
X265129Y369974D02*
X262248Y372855D01*
X270891Y372855D01*
X270891Y369974D02*
X270891Y375736D01*
X280025Y333853D02*
X291465Y333853D01*
X280025Y333853D02*
X280025Y339573D01*
X281932Y341480D01*
X285745Y341480D01*
X287652Y339573D01*
X287652Y333853D01*
X287652Y337666D02*
X291465Y341480D01*
X291465Y345547D02*
X280025Y345547D01*
X291465Y353174D01*
X280025Y353174D01*
X283839Y357241D02*
X280025Y361054D01*
X291465Y361054D01*
X291465Y357241D02*
X291465Y364867D01*
D11*
X38100Y396240D02*
X38100Y416560D01*
X91440Y419100D02*
X111760Y419100D01*
X91440Y419100D02*
X88900Y416560D01*
X91440Y393700D02*
X111760Y393700D01*
X91440Y393700D02*
X88900Y396240D01*
X111760Y393700D02*
X114300Y396240D01*
X114300Y416560D02*
X111760Y419100D01*
X114300Y416560D02*
X114300Y396240D01*
X88900Y416560D02*
X86360Y419100D01*
X66040Y419100D01*
X63500Y416560D01*
X60960Y419100D01*
X40640Y419100D02*
X38100Y416560D01*
X40640Y419100D02*
X60960Y419100D01*
X86360Y393700D02*
X88900Y396240D01*
X66040Y393700D02*
X63500Y396240D01*
X60960Y393700D01*
X40640Y393700D02*
X38100Y396240D01*
X66040Y393700D02*
X86360Y393700D01*
X60960Y393700D02*
X40640Y393700D01*
D14*
X51435Y386127D02*
X54316Y389008D01*
X54316Y380365D01*
X51435Y380365D02*
X57197Y380365D01*
X76835Y380365D02*
X82597Y380365D01*
X76835Y380365D02*
X82597Y386127D01*
X82597Y387568D01*
X81157Y389008D01*
X78276Y389008D01*
X76835Y387568D01*
X102235Y387568D02*
X103676Y389008D01*
X106557Y389008D01*
X107997Y387568D01*
X107997Y386127D01*
X106557Y384687D01*
X105116Y384687D01*
X106557Y384687D02*
X107997Y383246D01*
X107997Y381806D01*
X106557Y380365D01*
X103676Y380365D01*
X102235Y381806D01*
X43182Y423545D02*
X41275Y425452D01*
X43182Y423545D02*
X45088Y423545D01*
X46995Y425452D01*
X46995Y434985D01*
X45088Y434985D02*
X48902Y434985D01*
X52969Y434985D02*
X52969Y423545D01*
X52969Y434985D02*
X58689Y434985D01*
X60595Y433078D01*
X60595Y429265D01*
X58689Y427358D01*
X52969Y427358D01*
X64663Y431172D02*
X68476Y434985D01*
X68476Y423545D01*
X64663Y423545D02*
X72289Y423545D01*
D11*
X38100Y447040D02*
X38100Y467360D01*
X91440Y469900D02*
X111760Y469900D01*
X91440Y469900D02*
X88900Y467360D01*
X91440Y444500D02*
X111760Y444500D01*
X91440Y444500D02*
X88900Y447040D01*
X111760Y444500D02*
X114300Y447040D01*
X114300Y467360D02*
X111760Y469900D01*
X114300Y467360D02*
X114300Y447040D01*
X88900Y467360D02*
X86360Y469900D01*
X66040Y469900D01*
X63500Y467360D01*
X60960Y469900D01*
X40640Y469900D02*
X38100Y467360D01*
X40640Y469900D02*
X60960Y469900D01*
X86360Y444500D02*
X88900Y447040D01*
X66040Y444500D02*
X63500Y447040D01*
X60960Y444500D01*
X40640Y444500D02*
X38100Y447040D01*
X66040Y444500D02*
X86360Y444500D01*
X60960Y444500D02*
X40640Y444500D01*
D14*
X51435Y436927D02*
X54316Y439808D01*
X54316Y431165D01*
X51435Y431165D02*
X57197Y431165D01*
X76835Y431165D02*
X82597Y431165D01*
X76835Y431165D02*
X82597Y436927D01*
X82597Y438368D01*
X81157Y439808D01*
X78276Y439808D01*
X76835Y438368D01*
X102235Y438368D02*
X103676Y439808D01*
X106557Y439808D01*
X107997Y438368D01*
X107997Y436927D01*
X106557Y435487D01*
X105116Y435487D01*
X106557Y435487D02*
X107997Y434046D01*
X107997Y432606D01*
X106557Y431165D01*
X103676Y431165D01*
X102235Y432606D01*
X43182Y474345D02*
X41275Y476252D01*
X43182Y474345D02*
X45088Y474345D01*
X46995Y476252D01*
X46995Y485785D01*
X45088Y485785D02*
X48902Y485785D01*
X52969Y485785D02*
X52969Y474345D01*
X52969Y485785D02*
X58689Y485785D01*
X60595Y483878D01*
X60595Y480065D01*
X58689Y478158D01*
X52969Y478158D01*
X64663Y474345D02*
X72289Y474345D01*
X64663Y474345D02*
X72289Y481972D01*
X72289Y483878D01*
X70383Y485785D01*
X66570Y485785D01*
X64663Y483878D01*
D11*
X38100Y497840D02*
X38100Y518160D01*
X91440Y520700D02*
X111760Y520700D01*
X91440Y520700D02*
X88900Y518160D01*
X91440Y495300D02*
X111760Y495300D01*
X91440Y495300D02*
X88900Y497840D01*
X111760Y495300D02*
X114300Y497840D01*
X114300Y518160D02*
X111760Y520700D01*
X114300Y518160D02*
X114300Y497840D01*
X88900Y518160D02*
X86360Y520700D01*
X66040Y520700D01*
X63500Y518160D01*
X60960Y520700D01*
X40640Y520700D02*
X38100Y518160D01*
X40640Y520700D02*
X60960Y520700D01*
X86360Y495300D02*
X88900Y497840D01*
X66040Y495300D02*
X63500Y497840D01*
X60960Y495300D01*
X40640Y495300D02*
X38100Y497840D01*
X66040Y495300D02*
X86360Y495300D01*
X60960Y495300D02*
X40640Y495300D01*
D14*
X51435Y487727D02*
X54316Y490608D01*
X54316Y481965D01*
X51435Y481965D02*
X57197Y481965D01*
X76835Y481965D02*
X82597Y481965D01*
X76835Y481965D02*
X82597Y487727D01*
X82597Y489168D01*
X81157Y490608D01*
X78276Y490608D01*
X76835Y489168D01*
X102235Y489168D02*
X103676Y490608D01*
X106557Y490608D01*
X107997Y489168D01*
X107997Y487727D01*
X106557Y486287D01*
X105116Y486287D01*
X106557Y486287D02*
X107997Y484846D01*
X107997Y483406D01*
X106557Y481965D01*
X103676Y481965D01*
X102235Y483406D01*
X43182Y525145D02*
X41275Y527052D01*
X43182Y525145D02*
X45088Y525145D01*
X46995Y527052D01*
X46995Y536585D01*
X45088Y536585D02*
X48902Y536585D01*
X52969Y536585D02*
X52969Y525145D01*
X52969Y536585D02*
X58689Y536585D01*
X60595Y534678D01*
X60595Y530865D01*
X58689Y528958D01*
X52969Y528958D01*
X64663Y534678D02*
X66570Y536585D01*
X70383Y536585D01*
X72289Y534678D01*
X72289Y532772D01*
X70383Y530865D01*
X68476Y530865D01*
X70383Y530865D02*
X72289Y528958D01*
X72289Y527052D01*
X70383Y525145D01*
X66570Y525145D01*
X64663Y527052D01*
D11*
X91440Y551180D02*
X91440Y668020D01*
X92710Y567690D02*
X110490Y567690D01*
X110490Y549910D01*
X96520Y546100D02*
X96380Y546102D01*
X96240Y546108D01*
X96100Y546117D01*
X95961Y546131D01*
X95822Y546148D01*
X95684Y546169D01*
X95546Y546194D01*
X95409Y546223D01*
X95273Y546255D01*
X95138Y546292D01*
X95004Y546332D01*
X94871Y546375D01*
X94739Y546423D01*
X94608Y546473D01*
X94479Y546528D01*
X94352Y546586D01*
X94226Y546647D01*
X94102Y546712D01*
X93980Y546781D01*
X93860Y546852D01*
X93742Y546927D01*
X93625Y547005D01*
X93511Y547087D01*
X93400Y547171D01*
X93291Y547259D01*
X93184Y547349D01*
X93079Y547443D01*
X92978Y547539D01*
X92879Y547638D01*
X92783Y547739D01*
X92689Y547844D01*
X92599Y547951D01*
X92511Y548060D01*
X92427Y548171D01*
X92345Y548285D01*
X92267Y548402D01*
X92192Y548520D01*
X92121Y548640D01*
X92052Y548762D01*
X91987Y548886D01*
X91926Y549012D01*
X91868Y549139D01*
X91813Y549268D01*
X91763Y549399D01*
X91715Y549531D01*
X91672Y549664D01*
X91632Y549798D01*
X91595Y549933D01*
X91563Y550069D01*
X91534Y550206D01*
X91509Y550344D01*
X91488Y550482D01*
X91471Y550621D01*
X91457Y550760D01*
X91448Y550900D01*
X91442Y551040D01*
X91440Y551180D01*
X91440Y668020D02*
X91442Y668160D01*
X91448Y668300D01*
X91457Y668440D01*
X91471Y668579D01*
X91488Y668718D01*
X91509Y668856D01*
X91534Y668994D01*
X91563Y669131D01*
X91595Y669267D01*
X91632Y669402D01*
X91672Y669536D01*
X91715Y669669D01*
X91763Y669801D01*
X91813Y669932D01*
X91868Y670061D01*
X91926Y670188D01*
X91987Y670314D01*
X92052Y670438D01*
X92121Y670560D01*
X92192Y670680D01*
X92267Y670798D01*
X92345Y670915D01*
X92427Y671029D01*
X92511Y671140D01*
X92599Y671249D01*
X92689Y671356D01*
X92783Y671461D01*
X92879Y671562D01*
X92978Y671661D01*
X93079Y671757D01*
X93184Y671851D01*
X93291Y671941D01*
X93400Y672029D01*
X93511Y672113D01*
X93625Y672195D01*
X93742Y672273D01*
X93860Y672348D01*
X93980Y672419D01*
X94102Y672488D01*
X94226Y672553D01*
X94352Y672614D01*
X94479Y672672D01*
X94608Y672727D01*
X94739Y672777D01*
X94871Y672825D01*
X95004Y672868D01*
X95138Y672908D01*
X95273Y672945D01*
X95409Y672977D01*
X95546Y673006D01*
X95684Y673031D01*
X95822Y673052D01*
X95961Y673069D01*
X96100Y673083D01*
X96240Y673092D01*
X96380Y673098D01*
X96520Y673100D01*
X106680Y673100D02*
X106820Y673098D01*
X106960Y673092D01*
X107100Y673083D01*
X107239Y673069D01*
X107378Y673052D01*
X107516Y673031D01*
X107654Y673006D01*
X107791Y672977D01*
X107927Y672945D01*
X108062Y672908D01*
X108196Y672868D01*
X108329Y672825D01*
X108461Y672777D01*
X108592Y672727D01*
X108721Y672672D01*
X108848Y672614D01*
X108974Y672553D01*
X109098Y672488D01*
X109220Y672419D01*
X109340Y672348D01*
X109458Y672273D01*
X109575Y672195D01*
X109689Y672113D01*
X109800Y672029D01*
X109909Y671941D01*
X110016Y671851D01*
X110121Y671757D01*
X110222Y671661D01*
X110321Y671562D01*
X110417Y671461D01*
X110511Y671356D01*
X110601Y671249D01*
X110689Y671140D01*
X110773Y671029D01*
X110855Y670915D01*
X110933Y670798D01*
X111008Y670680D01*
X111079Y670560D01*
X111148Y670438D01*
X111213Y670314D01*
X111274Y670188D01*
X111332Y670061D01*
X111387Y669932D01*
X111437Y669801D01*
X111485Y669669D01*
X111528Y669536D01*
X111568Y669402D01*
X111605Y669267D01*
X111637Y669131D01*
X111666Y668994D01*
X111691Y668856D01*
X111712Y668718D01*
X111729Y668579D01*
X111743Y668440D01*
X111752Y668300D01*
X111758Y668160D01*
X111760Y668020D01*
X111760Y551180D02*
X111758Y551040D01*
X111752Y550900D01*
X111743Y550760D01*
X111729Y550621D01*
X111712Y550482D01*
X111691Y550344D01*
X111666Y550206D01*
X111637Y550069D01*
X111605Y549933D01*
X111568Y549798D01*
X111528Y549664D01*
X111485Y549531D01*
X111437Y549399D01*
X111387Y549268D01*
X111332Y549139D01*
X111274Y549012D01*
X111213Y548886D01*
X111148Y548762D01*
X111079Y548640D01*
X111008Y548520D01*
X110933Y548402D01*
X110855Y548285D01*
X110773Y548171D01*
X110689Y548060D01*
X110601Y547951D01*
X110511Y547844D01*
X110417Y547739D01*
X110321Y547638D01*
X110222Y547539D01*
X110121Y547443D01*
X110016Y547349D01*
X109909Y547259D01*
X109800Y547171D01*
X109689Y547087D01*
X109575Y547005D01*
X109458Y546927D01*
X109340Y546852D01*
X109220Y546781D01*
X109098Y546712D01*
X108974Y546647D01*
X108848Y546586D01*
X108721Y546528D01*
X108592Y546473D01*
X108461Y546423D01*
X108329Y546375D01*
X108196Y546332D01*
X108062Y546292D01*
X107927Y546255D01*
X107791Y546223D01*
X107654Y546194D01*
X107516Y546169D01*
X107378Y546148D01*
X107239Y546131D01*
X107100Y546117D01*
X106960Y546108D01*
X106820Y546102D01*
X106680Y546100D01*
X106680Y673100D02*
X96520Y673100D01*
X111760Y668020D02*
X111760Y551180D01*
X106680Y546100D02*
X96520Y546100D01*
X92710Y549910D02*
X92710Y567690D01*
X92710Y549910D02*
X110490Y549910D01*
D14*
X97402Y539456D02*
X100283Y536575D01*
X97402Y539456D02*
X106045Y539456D01*
X106045Y536575D02*
X106045Y542337D01*
X88265Y546735D02*
X76825Y546735D01*
X76825Y552455D01*
X78732Y554362D01*
X82545Y554362D01*
X84452Y552455D01*
X84452Y546735D01*
X84452Y550548D02*
X88265Y554362D01*
X88265Y558429D02*
X76825Y558429D01*
X88265Y566055D01*
X76825Y566055D01*
X88265Y570123D02*
X88265Y577749D01*
X88265Y570123D02*
X80639Y577749D01*
X78732Y577749D01*
X76825Y575843D01*
X76825Y572030D01*
X78732Y570123D01*
D11*
X40640Y551180D02*
X40640Y668020D01*
X41910Y567690D02*
X59690Y567690D01*
X59690Y549910D01*
X45720Y546100D02*
X45580Y546102D01*
X45440Y546108D01*
X45300Y546117D01*
X45161Y546131D01*
X45022Y546148D01*
X44884Y546169D01*
X44746Y546194D01*
X44609Y546223D01*
X44473Y546255D01*
X44338Y546292D01*
X44204Y546332D01*
X44071Y546375D01*
X43939Y546423D01*
X43808Y546473D01*
X43679Y546528D01*
X43552Y546586D01*
X43426Y546647D01*
X43302Y546712D01*
X43180Y546781D01*
X43060Y546852D01*
X42942Y546927D01*
X42825Y547005D01*
X42711Y547087D01*
X42600Y547171D01*
X42491Y547259D01*
X42384Y547349D01*
X42279Y547443D01*
X42178Y547539D01*
X42079Y547638D01*
X41983Y547739D01*
X41889Y547844D01*
X41799Y547951D01*
X41711Y548060D01*
X41627Y548171D01*
X41545Y548285D01*
X41467Y548402D01*
X41392Y548520D01*
X41321Y548640D01*
X41252Y548762D01*
X41187Y548886D01*
X41126Y549012D01*
X41068Y549139D01*
X41013Y549268D01*
X40963Y549399D01*
X40915Y549531D01*
X40872Y549664D01*
X40832Y549798D01*
X40795Y549933D01*
X40763Y550069D01*
X40734Y550206D01*
X40709Y550344D01*
X40688Y550482D01*
X40671Y550621D01*
X40657Y550760D01*
X40648Y550900D01*
X40642Y551040D01*
X40640Y551180D01*
X40640Y668020D02*
X40642Y668160D01*
X40648Y668300D01*
X40657Y668440D01*
X40671Y668579D01*
X40688Y668718D01*
X40709Y668856D01*
X40734Y668994D01*
X40763Y669131D01*
X40795Y669267D01*
X40832Y669402D01*
X40872Y669536D01*
X40915Y669669D01*
X40963Y669801D01*
X41013Y669932D01*
X41068Y670061D01*
X41126Y670188D01*
X41187Y670314D01*
X41252Y670438D01*
X41321Y670560D01*
X41392Y670680D01*
X41467Y670798D01*
X41545Y670915D01*
X41627Y671029D01*
X41711Y671140D01*
X41799Y671249D01*
X41889Y671356D01*
X41983Y671461D01*
X42079Y671562D01*
X42178Y671661D01*
X42279Y671757D01*
X42384Y671851D01*
X42491Y671941D01*
X42600Y672029D01*
X42711Y672113D01*
X42825Y672195D01*
X42942Y672273D01*
X43060Y672348D01*
X43180Y672419D01*
X43302Y672488D01*
X43426Y672553D01*
X43552Y672614D01*
X43679Y672672D01*
X43808Y672727D01*
X43939Y672777D01*
X44071Y672825D01*
X44204Y672868D01*
X44338Y672908D01*
X44473Y672945D01*
X44609Y672977D01*
X44746Y673006D01*
X44884Y673031D01*
X45022Y673052D01*
X45161Y673069D01*
X45300Y673083D01*
X45440Y673092D01*
X45580Y673098D01*
X45720Y673100D01*
X55880Y673100D02*
X56020Y673098D01*
X56160Y673092D01*
X56300Y673083D01*
X56439Y673069D01*
X56578Y673052D01*
X56716Y673031D01*
X56854Y673006D01*
X56991Y672977D01*
X57127Y672945D01*
X57262Y672908D01*
X57396Y672868D01*
X57529Y672825D01*
X57661Y672777D01*
X57792Y672727D01*
X57921Y672672D01*
X58048Y672614D01*
X58174Y672553D01*
X58298Y672488D01*
X58420Y672419D01*
X58540Y672348D01*
X58658Y672273D01*
X58775Y672195D01*
X58889Y672113D01*
X59000Y672029D01*
X59109Y671941D01*
X59216Y671851D01*
X59321Y671757D01*
X59422Y671661D01*
X59521Y671562D01*
X59617Y671461D01*
X59711Y671356D01*
X59801Y671249D01*
X59889Y671140D01*
X59973Y671029D01*
X60055Y670915D01*
X60133Y670798D01*
X60208Y670680D01*
X60279Y670560D01*
X60348Y670438D01*
X60413Y670314D01*
X60474Y670188D01*
X60532Y670061D01*
X60587Y669932D01*
X60637Y669801D01*
X60685Y669669D01*
X60728Y669536D01*
X60768Y669402D01*
X60805Y669267D01*
X60837Y669131D01*
X60866Y668994D01*
X60891Y668856D01*
X60912Y668718D01*
X60929Y668579D01*
X60943Y668440D01*
X60952Y668300D01*
X60958Y668160D01*
X60960Y668020D01*
X60960Y551180D02*
X60958Y551040D01*
X60952Y550900D01*
X60943Y550760D01*
X60929Y550621D01*
X60912Y550482D01*
X60891Y550344D01*
X60866Y550206D01*
X60837Y550069D01*
X60805Y549933D01*
X60768Y549798D01*
X60728Y549664D01*
X60685Y549531D01*
X60637Y549399D01*
X60587Y549268D01*
X60532Y549139D01*
X60474Y549012D01*
X60413Y548886D01*
X60348Y548762D01*
X60279Y548640D01*
X60208Y548520D01*
X60133Y548402D01*
X60055Y548285D01*
X59973Y548171D01*
X59889Y548060D01*
X59801Y547951D01*
X59711Y547844D01*
X59617Y547739D01*
X59521Y547638D01*
X59422Y547539D01*
X59321Y547443D01*
X59216Y547349D01*
X59109Y547259D01*
X59000Y547171D01*
X58889Y547087D01*
X58775Y547005D01*
X58658Y546927D01*
X58540Y546852D01*
X58420Y546781D01*
X58298Y546712D01*
X58174Y546647D01*
X58048Y546586D01*
X57921Y546528D01*
X57792Y546473D01*
X57661Y546423D01*
X57529Y546375D01*
X57396Y546332D01*
X57262Y546292D01*
X57127Y546255D01*
X56991Y546223D01*
X56854Y546194D01*
X56716Y546169D01*
X56578Y546148D01*
X56439Y546131D01*
X56300Y546117D01*
X56160Y546108D01*
X56020Y546102D01*
X55880Y546100D01*
X55880Y673100D02*
X45720Y673100D01*
X60960Y668020D02*
X60960Y551180D01*
X55880Y546100D02*
X45720Y546100D01*
X41910Y549910D02*
X41910Y567690D01*
X41910Y549910D02*
X59690Y549910D01*
D14*
X46602Y539456D02*
X49483Y536575D01*
X46602Y539456D02*
X55245Y539456D01*
X55245Y536575D02*
X55245Y542337D01*
X37465Y546735D02*
X26025Y546735D01*
X26025Y552455D01*
X27932Y554362D01*
X31745Y554362D01*
X33652Y552455D01*
X33652Y546735D01*
X33652Y550548D02*
X37465Y554362D01*
X37465Y558429D02*
X26025Y558429D01*
X37465Y566055D01*
X26025Y566055D01*
X27932Y570123D02*
X26025Y572030D01*
X26025Y575843D01*
X27932Y577749D01*
X29839Y577749D01*
X31745Y575843D01*
X31745Y573936D01*
X31745Y575843D02*
X33652Y577749D01*
X35558Y577749D01*
X37465Y575843D01*
X37465Y572030D01*
X35558Y570123D01*
D11*
X524510Y495300D02*
X567690Y495300D01*
X571500Y473710D02*
X567690Y469900D01*
X571500Y466090D01*
X571500Y448310D01*
X567690Y444500D01*
X571500Y440690D01*
X571500Y422910D01*
X567690Y419100D01*
X524510Y419100D02*
X520700Y422910D01*
X520700Y440690D01*
X524510Y444500D01*
X520700Y448310D01*
X520700Y466090D01*
X524510Y469900D01*
X520700Y473710D01*
X524510Y393700D02*
X567690Y393700D01*
X571500Y415290D02*
X567690Y419100D01*
X571500Y415290D02*
X571500Y397510D01*
X567690Y393700D01*
X524510Y419100D02*
X520700Y415290D01*
X520700Y397510D01*
X524510Y393700D01*
X571500Y491490D02*
X567690Y495300D01*
X571500Y491490D02*
X571500Y473710D01*
X524510Y495300D02*
X520700Y491490D01*
X520700Y473710D01*
D14*
X508629Y476621D02*
X504815Y480434D01*
X516255Y480434D01*
X516255Y476621D02*
X516255Y484248D01*
X516255Y458848D02*
X516255Y451221D01*
X508629Y458848D01*
X506722Y458848D01*
X504815Y456941D01*
X504815Y453128D01*
X506722Y451221D01*
X504815Y427728D02*
X506722Y425821D01*
X504815Y427728D02*
X504815Y431541D01*
X506722Y433448D01*
X508629Y433448D01*
X510535Y431541D01*
X510535Y429634D01*
X510535Y431541D02*
X512442Y433448D01*
X514348Y433448D01*
X516255Y431541D01*
X516255Y427728D01*
X514348Y425821D01*
X516255Y406141D02*
X504815Y406141D01*
X510535Y400421D01*
X510535Y408048D01*
X586738Y460853D02*
X588645Y462760D01*
X588645Y464666D01*
X586738Y466573D01*
X577205Y466573D01*
X577205Y464666D02*
X577205Y468480D01*
X577205Y472547D02*
X588645Y472547D01*
X577205Y472547D02*
X577205Y478267D01*
X579112Y480174D01*
X582925Y480174D01*
X584832Y478267D01*
X584832Y472547D01*
X588645Y489961D02*
X577205Y489961D01*
X582925Y484241D01*
X582925Y491867D01*
D11*
X76200Y72390D02*
X76200Y29210D01*
X54610Y25400D02*
X50800Y29210D01*
X46990Y25400D01*
X29210Y25400D01*
X25400Y29210D01*
X25400Y72390D01*
X29210Y76200D01*
X46990Y76200D01*
X50800Y72390D01*
X54610Y76200D01*
X76200Y29210D02*
X72390Y25400D01*
X54610Y25400D01*
X76200Y72390D02*
X72390Y76200D01*
X54610Y76200D01*
D14*
X57521Y88272D02*
X61334Y92085D01*
X61334Y80645D01*
X57521Y80645D02*
X65148Y80645D01*
X39748Y80645D02*
X32121Y80645D01*
X39748Y88272D01*
X39748Y90178D01*
X37841Y92085D01*
X34028Y92085D01*
X32121Y90178D01*
X41753Y10162D02*
X43660Y8255D01*
X45566Y8255D01*
X47473Y10162D01*
X47473Y19695D01*
X45566Y19695D02*
X49380Y19695D01*
X53447Y19695D02*
X53447Y8255D01*
X53447Y19695D02*
X59167Y19695D01*
X61074Y17788D01*
X61074Y13975D01*
X59167Y12068D01*
X53447Y12068D01*
X68954Y17788D02*
X72767Y19695D01*
X68954Y17788D02*
X65141Y13975D01*
X65141Y10162D01*
X67048Y8255D01*
X70861Y8255D01*
X72767Y10162D01*
X72767Y12068D01*
X70861Y13975D01*
X65141Y13975D01*
X0Y0D02*
X939800Y0D01*
X939800Y723900D01*
X0Y723900D01*
X0Y0D01*
D11*
X628650Y25400D02*
X641350Y25400D01*
X628650Y25400D02*
X622300Y31750D01*
X615950Y25400D01*
X603250Y25400D01*
X596900Y31750D01*
X641350Y25400D02*
X647700Y31750D01*
X596900Y31750D02*
X590550Y25400D01*
X577850Y25400D01*
X571500Y31750D01*
X565150Y25400D02*
X552450Y25400D01*
X546100Y31750D01*
X539750Y25400D01*
X527050Y25400D01*
X520700Y31750D01*
X565150Y25400D02*
X571500Y31750D01*
X520700Y31750D02*
X514350Y25400D01*
X501650Y25400D01*
X495300Y31750D01*
X622300Y69850D02*
X628650Y76200D01*
X603250Y76200D02*
X596900Y69850D01*
X603250Y76200D02*
X615950Y76200D01*
X622300Y69850D01*
X647700Y69850D02*
X647700Y31750D01*
X647700Y69850D02*
X641350Y76200D01*
X628650Y76200D01*
X577850Y76200D02*
X571500Y69850D01*
X577850Y76200D02*
X590550Y76200D01*
X596900Y69850D01*
X552450Y76200D02*
X546100Y69850D01*
X527050Y76200D02*
X520700Y69850D01*
X527050Y76200D02*
X539750Y76200D01*
X546100Y69850D01*
X565150Y76200D02*
X571500Y69850D01*
X565150Y76200D02*
X552450Y76200D01*
X501650Y76200D02*
X495300Y69850D01*
X501650Y76200D02*
X514350Y76200D01*
X520700Y69850D01*
X476250Y25400D02*
X469900Y31750D01*
X476250Y25400D02*
X488950Y25400D01*
X495300Y31750D01*
X495300Y69850D02*
X488950Y76200D01*
X476250Y76200D01*
X469900Y69850D01*
X463550Y25400D02*
X450850Y25400D01*
X444500Y31750D01*
X438150Y25400D01*
X425450Y25400D01*
X419100Y31750D01*
X463550Y25400D02*
X469900Y31750D01*
X419100Y31750D02*
X412750Y25400D01*
X400050Y25400D01*
X393700Y31750D01*
X387350Y25400D02*
X374650Y25400D01*
X368300Y31750D01*
X361950Y25400D01*
X349250Y25400D01*
X342900Y31750D01*
X387350Y25400D02*
X393700Y31750D01*
X342900Y31750D02*
X336550Y25400D01*
X323850Y25400D01*
X317500Y31750D01*
X444500Y69850D02*
X450850Y76200D01*
X425450Y76200D02*
X419100Y69850D01*
X425450Y76200D02*
X438150Y76200D01*
X444500Y69850D01*
X463550Y76200D02*
X469900Y69850D01*
X463550Y76200D02*
X450850Y76200D01*
X400050Y76200D02*
X393700Y69850D01*
X400050Y76200D02*
X412750Y76200D01*
X419100Y69850D01*
X374650Y76200D02*
X368300Y69850D01*
X349250Y76200D02*
X342900Y69850D01*
X349250Y76200D02*
X361950Y76200D01*
X368300Y69850D01*
X387350Y76200D02*
X393700Y69850D01*
X387350Y76200D02*
X374650Y76200D01*
X323850Y76200D02*
X317500Y69850D01*
X323850Y76200D02*
X336550Y76200D01*
X342900Y69850D01*
X298450Y25400D02*
X292100Y31750D01*
X298450Y25400D02*
X311150Y25400D01*
X317500Y31750D01*
X317500Y69850D02*
X311150Y76200D01*
X298450Y76200D01*
X292100Y69850D01*
X285750Y25400D02*
X273050Y25400D01*
X266700Y31750D01*
X260350Y25400D01*
X247650Y25400D01*
X241300Y31750D01*
X285750Y25400D02*
X292100Y31750D01*
X241300Y31750D02*
X234950Y25400D01*
X222250Y25400D01*
X215900Y31750D01*
X209550Y25400D02*
X196850Y25400D01*
X190500Y31750D01*
X209550Y25400D02*
X215900Y31750D01*
X266700Y69850D02*
X273050Y76200D01*
X247650Y76200D02*
X241300Y69850D01*
X247650Y76200D02*
X260350Y76200D01*
X266700Y69850D01*
X285750Y76200D02*
X292100Y69850D01*
X285750Y76200D02*
X273050Y76200D01*
X222250Y76200D02*
X215900Y69850D01*
X222250Y76200D02*
X234950Y76200D01*
X241300Y69850D01*
X196850Y76200D02*
X190500Y69850D01*
X209550Y76200D02*
X215900Y69850D01*
X209550Y76200D02*
X196850Y76200D01*
D16*
X635000Y63500D03*
D11*
X190500Y69850D02*
X190500Y31750D01*
D14*
X613253Y20965D02*
X613253Y11432D01*
X615160Y9525D01*
X618973Y9525D01*
X620880Y11432D01*
X620880Y20965D01*
X624947Y11432D02*
X626854Y9525D01*
X630667Y9525D01*
X632574Y11432D01*
X632574Y13338D01*
X630667Y15245D01*
X626854Y15245D01*
X624947Y17152D01*
X624947Y19058D01*
X626854Y20965D01*
X630667Y20965D01*
X632574Y19058D01*
X628760Y22871D02*
X628760Y7618D01*
X636641Y9525D02*
X644267Y9525D01*
X636641Y9525D02*
X644267Y17152D01*
X644267Y19058D01*
X642361Y20965D01*
X638548Y20965D01*
X636641Y19058D01*
D11*
X59690Y186690D02*
X41910Y186690D01*
X40640Y128270D02*
X40642Y128170D01*
X40648Y128071D01*
X40658Y127971D01*
X40671Y127873D01*
X40689Y127774D01*
X40710Y127677D01*
X40735Y127581D01*
X40764Y127485D01*
X40797Y127391D01*
X40833Y127298D01*
X40873Y127207D01*
X40917Y127117D01*
X40964Y127029D01*
X41014Y126943D01*
X41068Y126859D01*
X41125Y126777D01*
X41185Y126698D01*
X41249Y126620D01*
X41315Y126546D01*
X41384Y126474D01*
X41456Y126405D01*
X41530Y126339D01*
X41608Y126275D01*
X41687Y126215D01*
X41769Y126158D01*
X41853Y126104D01*
X41939Y126054D01*
X42027Y126007D01*
X42117Y125963D01*
X42208Y125923D01*
X42301Y125887D01*
X42395Y125854D01*
X42491Y125825D01*
X42587Y125800D01*
X42684Y125779D01*
X42783Y125761D01*
X42881Y125748D01*
X42981Y125738D01*
X43080Y125732D01*
X43180Y125730D01*
X58420Y125730D02*
X58520Y125732D01*
X58619Y125738D01*
X58719Y125748D01*
X58817Y125761D01*
X58916Y125779D01*
X59013Y125800D01*
X59109Y125825D01*
X59205Y125854D01*
X59299Y125887D01*
X59392Y125923D01*
X59483Y125963D01*
X59573Y126007D01*
X59661Y126054D01*
X59747Y126104D01*
X59831Y126158D01*
X59913Y126215D01*
X59992Y126275D01*
X60070Y126339D01*
X60144Y126405D01*
X60216Y126474D01*
X60285Y126546D01*
X60351Y126620D01*
X60415Y126698D01*
X60475Y126777D01*
X60532Y126859D01*
X60586Y126943D01*
X60636Y127029D01*
X60683Y127117D01*
X60727Y127207D01*
X60767Y127298D01*
X60803Y127391D01*
X60836Y127485D01*
X60865Y127581D01*
X60890Y127677D01*
X60911Y127774D01*
X60929Y127873D01*
X60942Y127971D01*
X60952Y128071D01*
X60958Y128170D01*
X60960Y128270D01*
X58420Y125730D02*
X43180Y125730D01*
X41910Y182880D02*
X41910Y186690D01*
X40640Y182880D02*
X40640Y128270D01*
X59690Y182880D02*
X59690Y186690D01*
X59690Y182880D02*
X60960Y182880D01*
X60960Y128270D01*
D17*
X45720Y191770D02*
X45720Y195580D01*
X55880Y195580D02*
X55880Y190500D01*
D11*
X55880Y157480D02*
X55880Y153670D01*
X55880Y157480D02*
X45720Y157480D01*
X45720Y153670D01*
X55880Y153670D01*
X55880Y149860D02*
X50800Y149860D01*
X50800Y161290D02*
X55880Y161290D01*
X50800Y161290D02*
X50800Y166370D01*
X50800Y161290D02*
X45720Y161290D01*
X50800Y149860D02*
X50800Y144780D01*
X50800Y149860D02*
X45720Y149860D01*
X41910Y182880D02*
X40640Y182880D01*
X41910Y182880D02*
X59690Y182880D01*
D18*
X45720Y190119D03*
X55880Y190119D03*
D14*
X67302Y160127D02*
X74928Y160127D01*
X67302Y160127D02*
X65395Y162034D01*
X65395Y165847D01*
X67302Y167754D01*
X74928Y167754D01*
X76835Y165847D01*
X76835Y162034D01*
X74928Y160127D01*
X73022Y163940D02*
X76835Y167754D01*
X69209Y171821D02*
X65395Y175634D01*
X76835Y175634D01*
X76835Y171821D02*
X76835Y179448D01*
D11*
X63500Y219710D02*
X63500Y262890D01*
X88900Y262890D02*
X88900Y219710D01*
X86360Y265430D02*
X66040Y265430D01*
X66040Y217170D02*
X86360Y217170D01*
X63500Y262890D02*
X63502Y262990D01*
X63508Y263089D01*
X63518Y263189D01*
X63531Y263287D01*
X63549Y263386D01*
X63570Y263483D01*
X63595Y263579D01*
X63624Y263675D01*
X63657Y263769D01*
X63693Y263862D01*
X63733Y263953D01*
X63777Y264043D01*
X63824Y264131D01*
X63874Y264217D01*
X63928Y264301D01*
X63985Y264383D01*
X64045Y264462D01*
X64109Y264540D01*
X64175Y264614D01*
X64244Y264686D01*
X64316Y264755D01*
X64390Y264821D01*
X64468Y264885D01*
X64547Y264945D01*
X64629Y265002D01*
X64713Y265056D01*
X64799Y265106D01*
X64887Y265153D01*
X64977Y265197D01*
X65068Y265237D01*
X65161Y265273D01*
X65255Y265306D01*
X65351Y265335D01*
X65447Y265360D01*
X65544Y265381D01*
X65643Y265399D01*
X65741Y265412D01*
X65841Y265422D01*
X65940Y265428D01*
X66040Y265430D01*
X63500Y219710D02*
X63502Y219610D01*
X63508Y219511D01*
X63518Y219411D01*
X63531Y219313D01*
X63549Y219214D01*
X63570Y219117D01*
X63595Y219021D01*
X63624Y218925D01*
X63657Y218831D01*
X63693Y218738D01*
X63733Y218647D01*
X63777Y218557D01*
X63824Y218469D01*
X63874Y218383D01*
X63928Y218299D01*
X63985Y218217D01*
X64045Y218138D01*
X64109Y218060D01*
X64175Y217986D01*
X64244Y217914D01*
X64316Y217845D01*
X64390Y217779D01*
X64468Y217715D01*
X64547Y217655D01*
X64629Y217598D01*
X64713Y217544D01*
X64799Y217494D01*
X64887Y217447D01*
X64977Y217403D01*
X65068Y217363D01*
X65161Y217327D01*
X65255Y217294D01*
X65351Y217265D01*
X65447Y217240D01*
X65544Y217219D01*
X65643Y217201D01*
X65741Y217188D01*
X65841Y217178D01*
X65940Y217172D01*
X66040Y217170D01*
X88900Y262890D02*
X88898Y262990D01*
X88892Y263089D01*
X88882Y263189D01*
X88869Y263287D01*
X88851Y263386D01*
X88830Y263483D01*
X88805Y263579D01*
X88776Y263675D01*
X88743Y263769D01*
X88707Y263862D01*
X88667Y263953D01*
X88623Y264043D01*
X88576Y264131D01*
X88526Y264217D01*
X88472Y264301D01*
X88415Y264383D01*
X88355Y264462D01*
X88291Y264540D01*
X88225Y264614D01*
X88156Y264686D01*
X88084Y264755D01*
X88010Y264821D01*
X87932Y264885D01*
X87853Y264945D01*
X87771Y265002D01*
X87687Y265056D01*
X87601Y265106D01*
X87513Y265153D01*
X87423Y265197D01*
X87332Y265237D01*
X87239Y265273D01*
X87145Y265306D01*
X87049Y265335D01*
X86953Y265360D01*
X86856Y265381D01*
X86757Y265399D01*
X86659Y265412D01*
X86559Y265422D01*
X86460Y265428D01*
X86360Y265430D01*
X88900Y219710D02*
X88898Y219610D01*
X88892Y219511D01*
X88882Y219411D01*
X88869Y219313D01*
X88851Y219214D01*
X88830Y219117D01*
X88805Y219021D01*
X88776Y218925D01*
X88743Y218831D01*
X88707Y218738D01*
X88667Y218647D01*
X88623Y218557D01*
X88576Y218469D01*
X88526Y218383D01*
X88472Y218299D01*
X88415Y218217D01*
X88355Y218138D01*
X88291Y218060D01*
X88225Y217986D01*
X88156Y217914D01*
X88084Y217845D01*
X88010Y217779D01*
X87932Y217715D01*
X87853Y217655D01*
X87771Y217598D01*
X87687Y217544D01*
X87601Y217494D01*
X87513Y217447D01*
X87423Y217403D01*
X87332Y217363D01*
X87239Y217327D01*
X87145Y217294D01*
X87049Y217265D01*
X86953Y217240D01*
X86856Y217219D01*
X86757Y217201D01*
X86659Y217188D01*
X86559Y217178D01*
X86460Y217172D01*
X86360Y217170D01*
X76200Y243840D02*
X76200Y245110D01*
D12*
X76200Y243840D02*
X68580Y243840D01*
X76200Y243840D02*
X83820Y243840D01*
X76200Y238760D02*
X68580Y238760D01*
X76200Y238760D02*
X83820Y238760D01*
D11*
X76200Y238760D02*
X76200Y237490D01*
D14*
X50792Y226702D02*
X48885Y224795D01*
X48885Y220982D01*
X50792Y219075D01*
X58418Y219075D01*
X60325Y220982D01*
X60325Y224795D01*
X58418Y226702D01*
X52699Y230769D02*
X48885Y234582D01*
X60325Y234582D01*
X60325Y230769D02*
X60325Y238395D01*
D11*
X25400Y219710D02*
X25400Y262890D01*
X50800Y262890D02*
X50800Y219710D01*
X48260Y265430D02*
X27940Y265430D01*
X27940Y217170D02*
X48260Y217170D01*
X25400Y262890D02*
X25402Y262990D01*
X25408Y263089D01*
X25418Y263189D01*
X25431Y263287D01*
X25449Y263386D01*
X25470Y263483D01*
X25495Y263579D01*
X25524Y263675D01*
X25557Y263769D01*
X25593Y263862D01*
X25633Y263953D01*
X25677Y264043D01*
X25724Y264131D01*
X25774Y264217D01*
X25828Y264301D01*
X25885Y264383D01*
X25945Y264462D01*
X26009Y264540D01*
X26075Y264614D01*
X26144Y264686D01*
X26216Y264755D01*
X26290Y264821D01*
X26368Y264885D01*
X26447Y264945D01*
X26529Y265002D01*
X26613Y265056D01*
X26699Y265106D01*
X26787Y265153D01*
X26877Y265197D01*
X26968Y265237D01*
X27061Y265273D01*
X27155Y265306D01*
X27251Y265335D01*
X27347Y265360D01*
X27444Y265381D01*
X27543Y265399D01*
X27641Y265412D01*
X27741Y265422D01*
X27840Y265428D01*
X27940Y265430D01*
X25400Y219710D02*
X25402Y219610D01*
X25408Y219511D01*
X25418Y219411D01*
X25431Y219313D01*
X25449Y219214D01*
X25470Y219117D01*
X25495Y219021D01*
X25524Y218925D01*
X25557Y218831D01*
X25593Y218738D01*
X25633Y218647D01*
X25677Y218557D01*
X25724Y218469D01*
X25774Y218383D01*
X25828Y218299D01*
X25885Y218217D01*
X25945Y218138D01*
X26009Y218060D01*
X26075Y217986D01*
X26144Y217914D01*
X26216Y217845D01*
X26290Y217779D01*
X26368Y217715D01*
X26447Y217655D01*
X26529Y217598D01*
X26613Y217544D01*
X26699Y217494D01*
X26787Y217447D01*
X26877Y217403D01*
X26968Y217363D01*
X27061Y217327D01*
X27155Y217294D01*
X27251Y217265D01*
X27347Y217240D01*
X27444Y217219D01*
X27543Y217201D01*
X27641Y217188D01*
X27741Y217178D01*
X27840Y217172D01*
X27940Y217170D01*
X50800Y262890D02*
X50798Y262990D01*
X50792Y263089D01*
X50782Y263189D01*
X50769Y263287D01*
X50751Y263386D01*
X50730Y263483D01*
X50705Y263579D01*
X50676Y263675D01*
X50643Y263769D01*
X50607Y263862D01*
X50567Y263953D01*
X50523Y264043D01*
X50476Y264131D01*
X50426Y264217D01*
X50372Y264301D01*
X50315Y264383D01*
X50255Y264462D01*
X50191Y264540D01*
X50125Y264614D01*
X50056Y264686D01*
X49984Y264755D01*
X49910Y264821D01*
X49832Y264885D01*
X49753Y264945D01*
X49671Y265002D01*
X49587Y265056D01*
X49501Y265106D01*
X49413Y265153D01*
X49323Y265197D01*
X49232Y265237D01*
X49139Y265273D01*
X49045Y265306D01*
X48949Y265335D01*
X48853Y265360D01*
X48756Y265381D01*
X48657Y265399D01*
X48559Y265412D01*
X48459Y265422D01*
X48360Y265428D01*
X48260Y265430D01*
X50800Y219710D02*
X50798Y219610D01*
X50792Y219511D01*
X50782Y219411D01*
X50769Y219313D01*
X50751Y219214D01*
X50730Y219117D01*
X50705Y219021D01*
X50676Y218925D01*
X50643Y218831D01*
X50607Y218738D01*
X50567Y218647D01*
X50523Y218557D01*
X50476Y218469D01*
X50426Y218383D01*
X50372Y218299D01*
X50315Y218217D01*
X50255Y218138D01*
X50191Y218060D01*
X50125Y217986D01*
X50056Y217914D01*
X49984Y217845D01*
X49910Y217779D01*
X49832Y217715D01*
X49753Y217655D01*
X49671Y217598D01*
X49587Y217544D01*
X49501Y217494D01*
X49413Y217447D01*
X49323Y217403D01*
X49232Y217363D01*
X49139Y217327D01*
X49045Y217294D01*
X48949Y217265D01*
X48853Y217240D01*
X48756Y217219D01*
X48657Y217201D01*
X48559Y217188D01*
X48459Y217178D01*
X48360Y217172D01*
X48260Y217170D01*
X38100Y243840D02*
X38100Y245110D01*
D12*
X38100Y243840D02*
X30480Y243840D01*
X38100Y243840D02*
X45720Y243840D01*
X38100Y238760D02*
X30480Y238760D01*
X38100Y238760D02*
X45720Y238760D01*
D11*
X38100Y238760D02*
X38100Y237490D01*
D14*
X12692Y226702D02*
X10785Y224795D01*
X10785Y220982D01*
X12692Y219075D01*
X20318Y219075D01*
X22225Y220982D01*
X22225Y224795D01*
X20318Y226702D01*
X22225Y230769D02*
X22225Y238395D01*
X22225Y230769D02*
X14599Y238395D01*
X12692Y238395D01*
X10785Y236489D01*
X10785Y232676D01*
X12692Y230769D01*
D12*
X29464Y327660D02*
X29719Y328479D01*
X29995Y329292D01*
X30289Y330098D01*
X30603Y330897D01*
X30937Y331688D01*
X31289Y332470D01*
X31660Y333244D01*
X32050Y334009D01*
X32458Y334764D01*
X32884Y335509D01*
X33328Y336243D01*
X33789Y336967D01*
X34268Y337679D01*
X34764Y338379D01*
X35277Y339067D01*
X35806Y339743D01*
X36352Y340405D01*
X36913Y341054D01*
X37490Y341690D01*
X38082Y342311D01*
X38689Y342918D01*
X39310Y343510D01*
X39946Y344087D01*
X40595Y344648D01*
X41257Y345194D01*
X41933Y345723D01*
X42621Y346236D01*
X43321Y346732D01*
X44033Y347211D01*
X44757Y347672D01*
X45491Y348116D01*
X46236Y348542D01*
X46991Y348950D01*
X47756Y349340D01*
X48530Y349711D01*
X49312Y350063D01*
X50103Y350397D01*
X50902Y350711D01*
X51708Y351005D01*
X52521Y351281D01*
X53340Y351536D01*
X73660Y351536D02*
X74479Y351281D01*
X75292Y351005D01*
X76098Y350711D01*
X76897Y350397D01*
X77688Y350063D01*
X78470Y349711D01*
X79244Y349340D01*
X80009Y348950D01*
X80764Y348542D01*
X81509Y348116D01*
X82243Y347672D01*
X82967Y347211D01*
X83679Y346732D01*
X84379Y346236D01*
X85067Y345723D01*
X85743Y345194D01*
X86405Y344648D01*
X87054Y344087D01*
X87690Y343510D01*
X88311Y342918D01*
X88918Y342311D01*
X89510Y341690D01*
X90087Y341054D01*
X90648Y340405D01*
X91194Y339743D01*
X91723Y339067D01*
X92236Y338379D01*
X92732Y337679D01*
X93211Y336967D01*
X93672Y336243D01*
X94116Y335509D01*
X94542Y334764D01*
X94950Y334009D01*
X95340Y333244D01*
X95711Y332470D01*
X96063Y331688D01*
X96397Y330897D01*
X96711Y330098D01*
X97005Y329292D01*
X97281Y328479D01*
X97536Y327660D01*
X97536Y307340D02*
X97278Y306513D01*
X97000Y305692D01*
X96702Y304879D01*
X96384Y304072D01*
X96047Y303274D01*
X95690Y302485D01*
X95314Y301704D01*
X94920Y300933D01*
X94506Y300171D01*
X94074Y299420D01*
X93624Y298680D01*
X93156Y297950D01*
X92670Y297233D01*
X92167Y296527D01*
X91647Y295834D01*
X91110Y295154D01*
X90557Y294487D01*
X89988Y293834D01*
X89403Y293195D01*
X88802Y292571D01*
X88187Y291961D01*
X87556Y291366D01*
X86912Y290787D01*
X86253Y290224D01*
X85581Y289677D01*
X84896Y289147D01*
X84198Y288634D01*
X83488Y288137D01*
X82765Y287659D01*
X82032Y287197D01*
X81287Y286754D01*
X80532Y286330D01*
X79767Y285924D01*
X78991Y285536D01*
X78207Y285168D01*
X77414Y284819D01*
X76613Y284489D01*
X75804Y284179D01*
X74987Y283889D01*
X74164Y283619D01*
X73334Y283369D01*
X72499Y283139D01*
X71658Y282930D01*
X70813Y282741D01*
X69962Y282573D01*
X69109Y282426D01*
X68251Y282299D01*
X67391Y282194D01*
X66529Y282109D01*
X65665Y282046D01*
X64799Y282004D01*
X63933Y281983D01*
X63067Y281983D01*
X62201Y282004D01*
X61335Y282046D01*
X60471Y282109D01*
X59609Y282194D01*
X58749Y282299D01*
X57891Y282426D01*
X57038Y282573D01*
X56187Y282741D01*
X55342Y282930D01*
X54501Y283139D01*
X53666Y283369D01*
X52836Y283619D01*
X52013Y283889D01*
X51196Y284179D01*
X50387Y284489D01*
X49586Y284819D01*
X48793Y285168D01*
X48009Y285536D01*
X47233Y285924D01*
X46468Y286330D01*
X45713Y286754D01*
X44968Y287197D01*
X44235Y287659D01*
X43512Y288137D01*
X42802Y288634D01*
X42104Y289147D01*
X41419Y289677D01*
X40747Y290224D01*
X40088Y290787D01*
X39444Y291366D01*
X38813Y291961D01*
X38198Y292571D01*
X37597Y293195D01*
X37012Y293834D01*
X36443Y294487D01*
X35890Y295154D01*
X35353Y295834D01*
X34833Y296527D01*
X34330Y297233D01*
X33844Y297950D01*
X33376Y298680D01*
X32926Y299420D01*
X32494Y300171D01*
X32080Y300933D01*
X31686Y301704D01*
X31310Y302485D01*
X30953Y303274D01*
X30616Y304072D01*
X30298Y304879D01*
X30000Y305692D01*
X29722Y306513D01*
X29464Y307340D01*
D11*
X50790Y317500D02*
X50794Y317812D01*
X50805Y318124D01*
X50824Y318435D01*
X50851Y318746D01*
X50886Y319056D01*
X50928Y319365D01*
X50977Y319673D01*
X51034Y319980D01*
X51099Y320285D01*
X51171Y320588D01*
X51250Y320890D01*
X51337Y321190D01*
X51431Y321487D01*
X51533Y321782D01*
X51642Y322074D01*
X51757Y322364D01*
X51880Y322651D01*
X52010Y322934D01*
X52147Y323215D01*
X52291Y323491D01*
X52441Y323765D01*
X52598Y324034D01*
X52762Y324300D01*
X52932Y324561D01*
X53108Y324819D01*
X53291Y325071D01*
X53480Y325320D01*
X53675Y325563D01*
X53876Y325802D01*
X54083Y326036D01*
X54295Y326264D01*
X54513Y326487D01*
X54736Y326705D01*
X54964Y326917D01*
X55198Y327124D01*
X55437Y327325D01*
X55680Y327520D01*
X55929Y327709D01*
X56181Y327892D01*
X56439Y328068D01*
X56700Y328238D01*
X56966Y328402D01*
X57235Y328559D01*
X57509Y328709D01*
X57785Y328853D01*
X58066Y328990D01*
X58349Y329120D01*
X58636Y329243D01*
X58926Y329358D01*
X59218Y329467D01*
X59513Y329569D01*
X59810Y329663D01*
X60110Y329750D01*
X60412Y329829D01*
X60715Y329901D01*
X61020Y329966D01*
X61327Y330023D01*
X61635Y330072D01*
X61944Y330114D01*
X62254Y330149D01*
X62565Y330176D01*
X62876Y330195D01*
X63188Y330206D01*
X63500Y330210D01*
X63812Y330206D01*
X64124Y330195D01*
X64435Y330176D01*
X64746Y330149D01*
X65056Y330114D01*
X65365Y330072D01*
X65673Y330023D01*
X65980Y329966D01*
X66285Y329901D01*
X66588Y329829D01*
X66890Y329750D01*
X67190Y329663D01*
X67487Y329569D01*
X67782Y329467D01*
X68074Y329358D01*
X68364Y329243D01*
X68651Y329120D01*
X68934Y328990D01*
X69215Y328853D01*
X69491Y328709D01*
X69765Y328559D01*
X70034Y328402D01*
X70300Y328238D01*
X70561Y328068D01*
X70819Y327892D01*
X71071Y327709D01*
X71320Y327520D01*
X71563Y327325D01*
X71802Y327124D01*
X72036Y326917D01*
X72264Y326705D01*
X72487Y326487D01*
X72705Y326264D01*
X72917Y326036D01*
X73124Y325802D01*
X73325Y325563D01*
X73520Y325320D01*
X73709Y325071D01*
X73892Y324819D01*
X74068Y324561D01*
X74238Y324300D01*
X74402Y324034D01*
X74559Y323765D01*
X74709Y323491D01*
X74853Y323215D01*
X74990Y322934D01*
X75120Y322651D01*
X75243Y322364D01*
X75358Y322074D01*
X75467Y321782D01*
X75569Y321487D01*
X75663Y321190D01*
X75750Y320890D01*
X75829Y320588D01*
X75901Y320285D01*
X75966Y319980D01*
X76023Y319673D01*
X76072Y319365D01*
X76114Y319056D01*
X76149Y318746D01*
X76176Y318435D01*
X76195Y318124D01*
X76206Y317812D01*
X76210Y317500D01*
X76206Y317188D01*
X76195Y316876D01*
X76176Y316565D01*
X76149Y316254D01*
X76114Y315944D01*
X76072Y315635D01*
X76023Y315327D01*
X75966Y315020D01*
X75901Y314715D01*
X75829Y314412D01*
X75750Y314110D01*
X75663Y313810D01*
X75569Y313513D01*
X75467Y313218D01*
X75358Y312926D01*
X75243Y312636D01*
X75120Y312349D01*
X74990Y312066D01*
X74853Y311785D01*
X74709Y311509D01*
X74559Y311235D01*
X74402Y310966D01*
X74238Y310700D01*
X74068Y310439D01*
X73892Y310181D01*
X73709Y309929D01*
X73520Y309680D01*
X73325Y309437D01*
X73124Y309198D01*
X72917Y308964D01*
X72705Y308736D01*
X72487Y308513D01*
X72264Y308295D01*
X72036Y308083D01*
X71802Y307876D01*
X71563Y307675D01*
X71320Y307480D01*
X71071Y307291D01*
X70819Y307108D01*
X70561Y306932D01*
X70300Y306762D01*
X70034Y306598D01*
X69765Y306441D01*
X69491Y306291D01*
X69215Y306147D01*
X68934Y306010D01*
X68651Y305880D01*
X68364Y305757D01*
X68074Y305642D01*
X67782Y305533D01*
X67487Y305431D01*
X67190Y305337D01*
X66890Y305250D01*
X66588Y305171D01*
X66285Y305099D01*
X65980Y305034D01*
X65673Y304977D01*
X65365Y304928D01*
X65056Y304886D01*
X64746Y304851D01*
X64435Y304824D01*
X64124Y304805D01*
X63812Y304794D01*
X63500Y304790D01*
X63188Y304794D01*
X62876Y304805D01*
X62565Y304824D01*
X62254Y304851D01*
X61944Y304886D01*
X61635Y304928D01*
X61327Y304977D01*
X61020Y305034D01*
X60715Y305099D01*
X60412Y305171D01*
X60110Y305250D01*
X59810Y305337D01*
X59513Y305431D01*
X59218Y305533D01*
X58926Y305642D01*
X58636Y305757D01*
X58349Y305880D01*
X58066Y306010D01*
X57785Y306147D01*
X57509Y306291D01*
X57235Y306441D01*
X56966Y306598D01*
X56700Y306762D01*
X56439Y306932D01*
X56181Y307108D01*
X55929Y307291D01*
X55680Y307480D01*
X55437Y307675D01*
X55198Y307876D01*
X54964Y308083D01*
X54736Y308295D01*
X54513Y308513D01*
X54295Y308736D01*
X54083Y308964D01*
X53876Y309198D01*
X53675Y309437D01*
X53480Y309680D01*
X53291Y309929D01*
X53108Y310181D01*
X52932Y310439D01*
X52762Y310700D01*
X52598Y310966D01*
X52441Y311235D01*
X52291Y311509D01*
X52147Y311785D01*
X52010Y312066D01*
X51880Y312349D01*
X51757Y312636D01*
X51642Y312926D01*
X51533Y313218D01*
X51431Y313513D01*
X51337Y313810D01*
X51250Y314110D01*
X51171Y314412D01*
X51099Y314715D01*
X51034Y315020D01*
X50977Y315327D01*
X50928Y315635D01*
X50886Y315944D01*
X50851Y316254D01*
X50824Y316565D01*
X50805Y316876D01*
X50794Y317188D01*
X50790Y317500D01*
D19*
X63500Y317500D03*
D10*
X8563Y291748D02*
X6614Y289799D01*
X6614Y285901D01*
X8563Y283952D01*
X16359Y283952D01*
X18308Y285901D01*
X18308Y289799D01*
X16359Y291748D01*
X8563Y295646D02*
X6614Y297595D01*
X6614Y301493D01*
X8563Y303442D01*
X10512Y303442D01*
X12461Y301493D01*
X12461Y299544D01*
X12461Y301493D02*
X14410Y303442D01*
X16359Y303442D01*
X18308Y301493D01*
X18308Y297595D01*
X16359Y295646D01*
D11*
X129540Y111760D02*
X129440Y111758D01*
X129341Y111752D01*
X129241Y111742D01*
X129143Y111729D01*
X129044Y111711D01*
X128947Y111690D01*
X128851Y111665D01*
X128755Y111636D01*
X128661Y111603D01*
X128568Y111567D01*
X128477Y111527D01*
X128387Y111483D01*
X128299Y111436D01*
X128213Y111386D01*
X128129Y111332D01*
X128047Y111275D01*
X127968Y111215D01*
X127890Y111151D01*
X127816Y111085D01*
X127744Y111016D01*
X127675Y110944D01*
X127609Y110870D01*
X127545Y110792D01*
X127485Y110713D01*
X127428Y110631D01*
X127374Y110547D01*
X127324Y110461D01*
X127277Y110373D01*
X127233Y110283D01*
X127193Y110192D01*
X127157Y110099D01*
X127124Y110005D01*
X127095Y109909D01*
X127070Y109813D01*
X127049Y109716D01*
X127031Y109617D01*
X127018Y109519D01*
X127008Y109419D01*
X127002Y109320D01*
X127000Y109220D01*
X127000Y93980D02*
X127002Y93880D01*
X127008Y93781D01*
X127018Y93681D01*
X127031Y93583D01*
X127049Y93484D01*
X127070Y93387D01*
X127095Y93291D01*
X127124Y93195D01*
X127157Y93101D01*
X127193Y93008D01*
X127233Y92917D01*
X127277Y92827D01*
X127324Y92739D01*
X127374Y92653D01*
X127428Y92569D01*
X127485Y92487D01*
X127545Y92408D01*
X127609Y92330D01*
X127675Y92256D01*
X127744Y92184D01*
X127816Y92115D01*
X127890Y92049D01*
X127968Y91985D01*
X128047Y91925D01*
X128129Y91868D01*
X128213Y91814D01*
X128299Y91764D01*
X128387Y91717D01*
X128477Y91673D01*
X128568Y91633D01*
X128661Y91597D01*
X128755Y91564D01*
X128851Y91535D01*
X128947Y91510D01*
X129044Y91489D01*
X129143Y91471D01*
X129241Y91458D01*
X129341Y91448D01*
X129440Y91442D01*
X129540Y91440D01*
X175260Y91440D02*
X175360Y91442D01*
X175459Y91448D01*
X175559Y91458D01*
X175657Y91471D01*
X175756Y91489D01*
X175853Y91510D01*
X175949Y91535D01*
X176045Y91564D01*
X176139Y91597D01*
X176232Y91633D01*
X176323Y91673D01*
X176413Y91717D01*
X176501Y91764D01*
X176587Y91814D01*
X176671Y91868D01*
X176753Y91925D01*
X176832Y91985D01*
X176910Y92049D01*
X176984Y92115D01*
X177056Y92184D01*
X177125Y92256D01*
X177191Y92330D01*
X177255Y92408D01*
X177315Y92487D01*
X177372Y92569D01*
X177426Y92653D01*
X177476Y92739D01*
X177523Y92827D01*
X177567Y92917D01*
X177607Y93008D01*
X177643Y93101D01*
X177676Y93195D01*
X177705Y93291D01*
X177730Y93387D01*
X177751Y93484D01*
X177769Y93583D01*
X177782Y93681D01*
X177792Y93781D01*
X177798Y93880D01*
X177800Y93980D01*
X177800Y109220D02*
X177798Y109320D01*
X177792Y109419D01*
X177782Y109519D01*
X177769Y109617D01*
X177751Y109716D01*
X177730Y109813D01*
X177705Y109909D01*
X177676Y110005D01*
X177643Y110099D01*
X177607Y110192D01*
X177567Y110283D01*
X177523Y110373D01*
X177476Y110461D01*
X177426Y110547D01*
X177372Y110631D01*
X177315Y110713D01*
X177255Y110792D01*
X177191Y110870D01*
X177125Y110944D01*
X177056Y111016D01*
X176984Y111085D01*
X176910Y111151D01*
X176832Y111215D01*
X176753Y111275D01*
X176671Y111332D01*
X176587Y111386D01*
X176501Y111436D01*
X176413Y111483D01*
X176323Y111527D01*
X176232Y111567D01*
X176139Y111603D01*
X176045Y111636D01*
X175949Y111665D01*
X175853Y111690D01*
X175756Y111711D01*
X175657Y111729D01*
X175559Y111742D01*
X175459Y111752D01*
X175360Y111758D01*
X175260Y111760D01*
X127000Y109220D02*
X127000Y93980D01*
X129540Y111760D02*
X133350Y111760D01*
X134620Y110490D01*
X133350Y91440D02*
X129540Y91440D01*
X133350Y91440D02*
X134620Y92710D01*
X170180Y110490D02*
X171450Y111760D01*
X170180Y110490D02*
X134620Y110490D01*
X170180Y92710D02*
X171450Y91440D01*
X170180Y92710D02*
X134620Y92710D01*
X171450Y111760D02*
X175260Y111760D01*
X175260Y91440D02*
X171450Y91440D01*
X177800Y93980D02*
X177800Y109220D01*
D20*
X179705Y101600D03*
X125095Y101600D03*
D10*
X127508Y115062D02*
X127508Y123960D01*
X131957Y123960D01*
X133440Y122477D01*
X133440Y119511D01*
X131957Y118028D01*
X127508Y118028D01*
X130474Y118028D02*
X133440Y115062D01*
X136629Y120994D02*
X139595Y123960D01*
X139595Y115062D01*
X136629Y115062D02*
X142561Y115062D01*
X139618Y106180D02*
X136652Y103214D01*
X139618Y106180D02*
X139618Y97282D01*
X136652Y97282D02*
X142584Y97282D01*
X145773Y98765D02*
X145773Y104697D01*
X147256Y106180D01*
X150222Y106180D01*
X151705Y104697D01*
X151705Y98765D01*
X150222Y97282D01*
X147256Y97282D01*
X145773Y98765D01*
X151705Y104697D01*
X154895Y106180D02*
X154895Y97282D01*
X154895Y100248D02*
X160826Y106180D01*
X156378Y101731D02*
X160826Y97282D01*
D21*
X812700Y438300D02*
X812700Y468100D01*
X812700Y438300D02*
X736700Y438300D01*
X736700Y468100D01*
X736700Y676900D02*
X812700Y676900D01*
X815237Y675938D01*
X817750Y674914D01*
X820236Y673829D01*
X822696Y672684D01*
X825127Y671479D01*
X827528Y670216D01*
X829897Y668894D01*
X832233Y667514D01*
X834535Y666078D01*
X836801Y664586D01*
X839030Y663039D01*
X841221Y661439D01*
X843371Y659785D01*
X845481Y658080D01*
X847549Y656323D01*
X849573Y654516D01*
X851553Y652661D01*
X853486Y650758D01*
X855373Y648808D01*
X857211Y646813D01*
X859000Y644773D01*
X860739Y642690D01*
X862426Y640566D01*
X864062Y638401D01*
X865643Y636197D01*
X867171Y633954D01*
X868643Y631676D01*
X870060Y629362D01*
X871419Y627014D01*
X872721Y624633D01*
X873964Y622222D01*
X875148Y619781D01*
X876272Y617311D01*
X877335Y614815D01*
X878337Y612294D01*
X879278Y609749D01*
X880156Y607182D01*
X880971Y604594D01*
X881722Y601987D01*
X882410Y599363D01*
X883034Y596722D01*
X883592Y594068D01*
X884086Y591400D01*
X884515Y588721D01*
X884878Y586032D01*
X885176Y583335D01*
X885407Y580632D01*
X885573Y577924D01*
X885672Y575213D01*
X885705Y572500D01*
X885672Y569787D01*
X885573Y567076D01*
X885407Y564368D01*
X885176Y561665D01*
X884878Y558968D01*
X884515Y556279D01*
X884086Y553600D01*
X883592Y550932D01*
X883034Y548278D01*
X882410Y545637D01*
X881722Y543013D01*
X880971Y540406D01*
X880156Y537818D01*
X879278Y535251D01*
X878337Y532706D01*
X877335Y530185D01*
X876272Y527689D01*
X875148Y525219D01*
X873964Y522778D01*
X872721Y520367D01*
X871419Y517986D01*
X870060Y515638D01*
X868643Y513324D01*
X867171Y511046D01*
X865643Y508803D01*
X864062Y506599D01*
X862426Y504434D01*
X860739Y502310D01*
X859000Y500227D01*
X857211Y498187D01*
X855373Y496192D01*
X853486Y494242D01*
X851553Y492339D01*
X849573Y490484D01*
X847549Y488677D01*
X845481Y486920D01*
X843371Y485215D01*
X841221Y483561D01*
X839030Y481961D01*
X836801Y480414D01*
X834535Y478922D01*
X832233Y477486D01*
X829897Y476106D01*
X827528Y474784D01*
X825127Y473521D01*
X822696Y472316D01*
X820236Y471171D01*
X817750Y470086D01*
X815237Y469062D01*
X812700Y468100D01*
X736700Y468100D02*
X734163Y469062D01*
X731650Y470086D01*
X729164Y471171D01*
X726704Y472316D01*
X724273Y473521D01*
X721872Y474784D01*
X719503Y476106D01*
X717167Y477486D01*
X714865Y478922D01*
X712599Y480414D01*
X710370Y481961D01*
X708179Y483561D01*
X706029Y485215D01*
X703919Y486920D01*
X701851Y488677D01*
X699827Y490484D01*
X697847Y492339D01*
X695914Y494242D01*
X694027Y496192D01*
X692189Y498187D01*
X690400Y500227D01*
X688661Y502310D01*
X686974Y504434D01*
X685338Y506599D01*
X683757Y508803D01*
X682229Y511046D01*
X680757Y513324D01*
X679340Y515638D01*
X677981Y517986D01*
X676679Y520367D01*
X675436Y522778D01*
X674252Y525219D01*
X673128Y527689D01*
X672065Y530185D01*
X671063Y532706D01*
X670122Y535251D01*
X669244Y537818D01*
X668429Y540406D01*
X667678Y543013D01*
X666990Y545637D01*
X666366Y548278D01*
X665808Y550932D01*
X665314Y553600D01*
X664885Y556279D01*
X664522Y558968D01*
X664224Y561665D01*
X663993Y564368D01*
X663827Y567076D01*
X663728Y569787D01*
X663695Y572500D01*
X663728Y575213D01*
X663827Y577924D01*
X663993Y580632D01*
X664224Y583335D01*
X664522Y586032D01*
X664885Y588721D01*
X665314Y591400D01*
X665808Y594068D01*
X666366Y596722D01*
X666990Y599363D01*
X667678Y601987D01*
X668429Y604594D01*
X669244Y607182D01*
X670122Y609749D01*
X671063Y612294D01*
X672065Y614815D01*
X673128Y617311D01*
X674252Y619781D01*
X675436Y622222D01*
X676679Y624633D01*
X677981Y627014D01*
X679340Y629362D01*
X680757Y631676D01*
X682229Y633954D01*
X683757Y636197D01*
X685338Y638401D01*
X686974Y640566D01*
X688661Y642690D01*
X690400Y644773D01*
X692189Y646813D01*
X694027Y648808D01*
X695914Y650758D01*
X697847Y652661D01*
X699827Y654516D01*
X701851Y656323D01*
X703919Y658080D01*
X706029Y659785D01*
X708179Y661439D01*
X710370Y663039D01*
X712599Y664586D01*
X714865Y666078D01*
X717167Y667514D01*
X719503Y668894D01*
X721872Y670216D01*
X724273Y671479D01*
X726704Y672684D01*
X729164Y673829D01*
X731650Y674914D01*
X734163Y675938D01*
X736700Y676900D01*
D22*
X819274Y589509D02*
X823087Y589509D01*
X819274Y589509D02*
X819274Y591415D01*
X819909Y592051D01*
X820545Y592051D01*
X821180Y591415D01*
X821816Y592051D01*
X822451Y592051D01*
X823087Y591415D01*
X823087Y589509D01*
X821180Y589509D02*
X821180Y591415D01*
X820545Y593251D02*
X823087Y593251D01*
X820545Y593251D02*
X819274Y594522D01*
X820545Y595793D01*
X823087Y595793D01*
X821180Y595793D02*
X821180Y593251D01*
X823087Y598264D02*
X819274Y598264D01*
X819274Y596993D02*
X819274Y599535D01*
X820545Y600735D02*
X819274Y602006D01*
X823087Y602006D01*
X823087Y600735D02*
X823087Y603277D01*
D11*
X679450Y190500D02*
X673100Y190500D01*
X662940Y184150D02*
X662940Y196850D01*
X673100Y190500D01*
X657860Y190500D01*
X662940Y184150D02*
X673100Y190500D01*
X673100Y184150D01*
X673100Y190500D02*
X673100Y196850D01*
X652780Y180340D02*
X652680Y180342D01*
X652581Y180348D01*
X652481Y180358D01*
X652383Y180371D01*
X652284Y180389D01*
X652187Y180410D01*
X652091Y180435D01*
X651995Y180464D01*
X651901Y180497D01*
X651808Y180533D01*
X651717Y180573D01*
X651627Y180617D01*
X651539Y180664D01*
X651453Y180714D01*
X651369Y180768D01*
X651287Y180825D01*
X651208Y180885D01*
X651130Y180949D01*
X651056Y181015D01*
X650984Y181084D01*
X650915Y181156D01*
X650849Y181230D01*
X650785Y181308D01*
X650725Y181387D01*
X650668Y181469D01*
X650614Y181553D01*
X650564Y181639D01*
X650517Y181727D01*
X650473Y181817D01*
X650433Y181908D01*
X650397Y182001D01*
X650364Y182095D01*
X650335Y182191D01*
X650310Y182287D01*
X650289Y182384D01*
X650271Y182483D01*
X650258Y182581D01*
X650248Y182681D01*
X650242Y182780D01*
X650240Y182880D01*
X650240Y198120D01*
X650242Y198220D01*
X650248Y198319D01*
X650258Y198419D01*
X650271Y198517D01*
X650289Y198616D01*
X650310Y198713D01*
X650335Y198809D01*
X650364Y198905D01*
X650397Y198999D01*
X650433Y199092D01*
X650473Y199183D01*
X650517Y199273D01*
X650564Y199361D01*
X650614Y199447D01*
X650668Y199531D01*
X650725Y199613D01*
X650785Y199692D01*
X650849Y199770D01*
X650915Y199844D01*
X650984Y199916D01*
X651056Y199985D01*
X651130Y200051D01*
X651208Y200115D01*
X651287Y200175D01*
X651369Y200232D01*
X651453Y200286D01*
X651539Y200336D01*
X651627Y200383D01*
X651717Y200427D01*
X651808Y200467D01*
X651901Y200503D01*
X651995Y200536D01*
X652091Y200565D01*
X652187Y200590D01*
X652284Y200611D01*
X652383Y200629D01*
X652481Y200642D01*
X652581Y200652D01*
X652680Y200658D01*
X652780Y200660D01*
X693420Y180340D02*
X693520Y180342D01*
X693619Y180348D01*
X693719Y180358D01*
X693817Y180371D01*
X693916Y180389D01*
X694013Y180410D01*
X694109Y180435D01*
X694205Y180464D01*
X694299Y180497D01*
X694392Y180533D01*
X694483Y180573D01*
X694573Y180617D01*
X694661Y180664D01*
X694747Y180714D01*
X694831Y180768D01*
X694913Y180825D01*
X694992Y180885D01*
X695070Y180949D01*
X695144Y181015D01*
X695216Y181084D01*
X695285Y181156D01*
X695351Y181230D01*
X695415Y181308D01*
X695475Y181387D01*
X695532Y181469D01*
X695586Y181553D01*
X695636Y181639D01*
X695683Y181727D01*
X695727Y181817D01*
X695767Y181908D01*
X695803Y182001D01*
X695836Y182095D01*
X695865Y182191D01*
X695890Y182287D01*
X695911Y182384D01*
X695929Y182483D01*
X695942Y182581D01*
X695952Y182681D01*
X695958Y182780D01*
X695960Y182880D01*
X695960Y198120D02*
X695958Y198220D01*
X695952Y198319D01*
X695942Y198419D01*
X695929Y198517D01*
X695911Y198616D01*
X695890Y198713D01*
X695865Y198809D01*
X695836Y198905D01*
X695803Y198999D01*
X695767Y199092D01*
X695727Y199183D01*
X695683Y199273D01*
X695636Y199361D01*
X695586Y199447D01*
X695532Y199531D01*
X695475Y199613D01*
X695415Y199692D01*
X695351Y199770D01*
X695285Y199844D01*
X695216Y199916D01*
X695144Y199985D01*
X695070Y200051D01*
X694992Y200115D01*
X694913Y200175D01*
X694831Y200232D01*
X694747Y200286D01*
X694661Y200336D01*
X694573Y200383D01*
X694483Y200427D01*
X694392Y200467D01*
X694299Y200503D01*
X694205Y200536D01*
X694109Y200565D01*
X694013Y200590D01*
X693916Y200611D01*
X693817Y200629D01*
X693719Y200642D01*
X693619Y200652D01*
X693520Y200658D01*
X693420Y200660D01*
X652780Y200660D01*
X695960Y198120D02*
X695960Y182880D01*
X693420Y180340D02*
X652780Y180340D01*
D23*
X689610Y190500D03*
D24*
X647065Y190500D03*
X699135Y190500D03*
D14*
X673207Y177175D02*
X673207Y165735D01*
X678927Y165735D01*
X680834Y167642D01*
X680834Y175268D01*
X678927Y177175D01*
X673207Y177175D01*
X684901Y177175D02*
X692528Y177175D01*
X684901Y177175D02*
X684901Y171455D01*
X688714Y173362D01*
X690621Y173362D01*
X692528Y171455D01*
X692528Y167642D01*
X690621Y165735D01*
X686808Y165735D01*
X684901Y167642D01*
X630244Y216545D02*
X626431Y212732D01*
X630244Y216545D02*
X630244Y205105D01*
X626431Y205105D02*
X634058Y205105D01*
X638125Y205105D02*
X638125Y216545D01*
X645752Y205105D01*
X645752Y216545D01*
X655539Y216545D02*
X655539Y205105D01*
X649819Y210825D02*
X655539Y216545D01*
X657445Y210825D02*
X649819Y210825D01*
X661513Y212732D02*
X665326Y216545D01*
X665326Y205105D01*
X661513Y205105D02*
X669139Y205105D01*
X678927Y205105D02*
X678927Y216545D01*
X673207Y210825D01*
X680833Y210825D01*
X684901Y207012D02*
X686808Y205105D01*
X690621Y205105D01*
X692527Y207012D01*
X692527Y214638D01*
X690621Y216545D01*
X686808Y216545D01*
X684901Y214638D01*
X684901Y212732D01*
X686808Y210825D01*
X692527Y210825D01*
D11*
X749300Y228600D02*
X749300Y234950D01*
X755650Y218440D02*
X742950Y218440D01*
X749300Y228600D01*
X749300Y213360D01*
X755650Y218440D02*
X749300Y228600D01*
X755650Y228600D01*
X749300Y228600D02*
X742950Y228600D01*
X759460Y208280D02*
X759458Y208180D01*
X759452Y208081D01*
X759442Y207981D01*
X759429Y207883D01*
X759411Y207784D01*
X759390Y207687D01*
X759365Y207591D01*
X759336Y207495D01*
X759303Y207401D01*
X759267Y207308D01*
X759227Y207217D01*
X759183Y207127D01*
X759136Y207039D01*
X759086Y206953D01*
X759032Y206869D01*
X758975Y206787D01*
X758915Y206708D01*
X758851Y206630D01*
X758785Y206556D01*
X758716Y206484D01*
X758644Y206415D01*
X758570Y206349D01*
X758492Y206285D01*
X758413Y206225D01*
X758331Y206168D01*
X758247Y206114D01*
X758161Y206064D01*
X758073Y206017D01*
X757983Y205973D01*
X757892Y205933D01*
X757799Y205897D01*
X757705Y205864D01*
X757609Y205835D01*
X757513Y205810D01*
X757416Y205789D01*
X757317Y205771D01*
X757219Y205758D01*
X757119Y205748D01*
X757020Y205742D01*
X756920Y205740D01*
X741680Y205740D01*
X741580Y205742D01*
X741481Y205748D01*
X741381Y205758D01*
X741283Y205771D01*
X741184Y205789D01*
X741087Y205810D01*
X740991Y205835D01*
X740895Y205864D01*
X740801Y205897D01*
X740708Y205933D01*
X740617Y205973D01*
X740527Y206017D01*
X740439Y206064D01*
X740353Y206114D01*
X740269Y206168D01*
X740187Y206225D01*
X740108Y206285D01*
X740030Y206349D01*
X739956Y206415D01*
X739884Y206484D01*
X739815Y206556D01*
X739749Y206630D01*
X739685Y206708D01*
X739625Y206787D01*
X739568Y206869D01*
X739514Y206953D01*
X739464Y207039D01*
X739417Y207127D01*
X739373Y207217D01*
X739333Y207308D01*
X739297Y207401D01*
X739264Y207495D01*
X739235Y207591D01*
X739210Y207687D01*
X739189Y207784D01*
X739171Y207883D01*
X739158Y207981D01*
X739148Y208081D01*
X739142Y208180D01*
X739140Y208280D01*
X759460Y248920D02*
X759458Y249020D01*
X759452Y249119D01*
X759442Y249219D01*
X759429Y249317D01*
X759411Y249416D01*
X759390Y249513D01*
X759365Y249609D01*
X759336Y249705D01*
X759303Y249799D01*
X759267Y249892D01*
X759227Y249983D01*
X759183Y250073D01*
X759136Y250161D01*
X759086Y250247D01*
X759032Y250331D01*
X758975Y250413D01*
X758915Y250492D01*
X758851Y250570D01*
X758785Y250644D01*
X758716Y250716D01*
X758644Y250785D01*
X758570Y250851D01*
X758492Y250915D01*
X758413Y250975D01*
X758331Y251032D01*
X758247Y251086D01*
X758161Y251136D01*
X758073Y251183D01*
X757983Y251227D01*
X757892Y251267D01*
X757799Y251303D01*
X757705Y251336D01*
X757609Y251365D01*
X757513Y251390D01*
X757416Y251411D01*
X757317Y251429D01*
X757219Y251442D01*
X757119Y251452D01*
X757020Y251458D01*
X756920Y251460D01*
X741680Y251460D02*
X741580Y251458D01*
X741481Y251452D01*
X741381Y251442D01*
X741283Y251429D01*
X741184Y251411D01*
X741087Y251390D01*
X740991Y251365D01*
X740895Y251336D01*
X740801Y251303D01*
X740708Y251267D01*
X740617Y251227D01*
X740527Y251183D01*
X740439Y251136D01*
X740353Y251086D01*
X740269Y251032D01*
X740187Y250975D01*
X740108Y250915D01*
X740030Y250851D01*
X739956Y250785D01*
X739884Y250716D01*
X739815Y250644D01*
X739749Y250570D01*
X739685Y250492D01*
X739625Y250413D01*
X739568Y250331D01*
X739514Y250247D01*
X739464Y250161D01*
X739417Y250073D01*
X739373Y249983D01*
X739333Y249892D01*
X739297Y249799D01*
X739264Y249705D01*
X739235Y249609D01*
X739210Y249513D01*
X739189Y249416D01*
X739171Y249317D01*
X739158Y249219D01*
X739148Y249119D01*
X739142Y249020D01*
X739140Y248920D01*
X739140Y208280D01*
X741680Y251460D02*
X756920Y251460D01*
X759460Y248920D02*
X759460Y208280D01*
D25*
X749300Y245110D03*
D26*
X749300Y202565D03*
X749300Y254635D03*
D14*
X762625Y228707D02*
X774065Y228707D01*
X774065Y234427D01*
X772158Y236334D01*
X764532Y236334D01*
X762625Y234427D01*
X762625Y228707D01*
X764532Y244214D02*
X762625Y248028D01*
X764532Y244214D02*
X768345Y240401D01*
X772158Y240401D01*
X774065Y242308D01*
X774065Y246121D01*
X772158Y248028D01*
X770252Y248028D01*
X768345Y246121D01*
X768345Y240401D01*
X723255Y185744D02*
X727069Y181931D01*
X723255Y185744D02*
X734695Y185744D01*
X734695Y181931D02*
X734695Y189558D01*
X734695Y193625D02*
X723255Y193625D01*
X734695Y201252D01*
X723255Y201252D01*
X723255Y211039D02*
X734695Y211039D01*
X728975Y205319D02*
X723255Y211039D01*
X728975Y212945D02*
X728975Y205319D01*
X727069Y217013D02*
X723255Y220826D01*
X734695Y220826D01*
X734695Y217013D02*
X734695Y224639D01*
X734695Y234427D02*
X723255Y234427D01*
X728975Y228707D01*
X728975Y236333D01*
X732788Y240401D02*
X734695Y242308D01*
X734695Y246121D01*
X732788Y248027D01*
X725162Y248027D01*
X723255Y246121D01*
X723255Y242308D01*
X725162Y240401D01*
X727069Y240401D01*
X728975Y242308D01*
X728975Y248027D01*
D11*
X840740Y365760D02*
X840840Y365762D01*
X840939Y365768D01*
X841039Y365778D01*
X841137Y365791D01*
X841236Y365809D01*
X841333Y365830D01*
X841429Y365855D01*
X841525Y365884D01*
X841619Y365917D01*
X841712Y365953D01*
X841803Y365993D01*
X841893Y366037D01*
X841981Y366084D01*
X842067Y366134D01*
X842151Y366188D01*
X842233Y366245D01*
X842312Y366305D01*
X842390Y366369D01*
X842464Y366435D01*
X842536Y366504D01*
X842605Y366576D01*
X842671Y366650D01*
X842735Y366728D01*
X842795Y366807D01*
X842852Y366889D01*
X842906Y366973D01*
X842956Y367059D01*
X843003Y367147D01*
X843047Y367237D01*
X843087Y367328D01*
X843123Y367421D01*
X843156Y367515D01*
X843185Y367611D01*
X843210Y367707D01*
X843231Y367804D01*
X843249Y367903D01*
X843262Y368001D01*
X843272Y368101D01*
X843278Y368200D01*
X843280Y368300D01*
X843280Y393700D02*
X843278Y393800D01*
X843272Y393899D01*
X843262Y393999D01*
X843249Y394097D01*
X843231Y394196D01*
X843210Y394293D01*
X843185Y394389D01*
X843156Y394485D01*
X843123Y394579D01*
X843087Y394672D01*
X843047Y394763D01*
X843003Y394853D01*
X842956Y394941D01*
X842906Y395027D01*
X842852Y395111D01*
X842795Y395193D01*
X842735Y395272D01*
X842671Y395350D01*
X842605Y395424D01*
X842536Y395496D01*
X842464Y395565D01*
X842390Y395631D01*
X842312Y395695D01*
X842233Y395755D01*
X842151Y395812D01*
X842067Y395866D01*
X841981Y395916D01*
X841893Y395963D01*
X841803Y396007D01*
X841712Y396047D01*
X841619Y396083D01*
X841525Y396116D01*
X841429Y396145D01*
X841333Y396170D01*
X841236Y396191D01*
X841137Y396209D01*
X841039Y396222D01*
X840939Y396232D01*
X840840Y396238D01*
X840740Y396240D01*
X759460Y396240D02*
X759360Y396238D01*
X759261Y396232D01*
X759161Y396222D01*
X759063Y396209D01*
X758964Y396191D01*
X758867Y396170D01*
X758771Y396145D01*
X758675Y396116D01*
X758581Y396083D01*
X758488Y396047D01*
X758397Y396007D01*
X758307Y395963D01*
X758219Y395916D01*
X758133Y395866D01*
X758049Y395812D01*
X757967Y395755D01*
X757888Y395695D01*
X757810Y395631D01*
X757736Y395565D01*
X757664Y395496D01*
X757595Y395424D01*
X757529Y395350D01*
X757465Y395272D01*
X757405Y395193D01*
X757348Y395111D01*
X757294Y395027D01*
X757244Y394941D01*
X757197Y394853D01*
X757153Y394763D01*
X757113Y394672D01*
X757077Y394579D01*
X757044Y394485D01*
X757015Y394389D01*
X756990Y394293D01*
X756969Y394196D01*
X756951Y394097D01*
X756938Y393999D01*
X756928Y393899D01*
X756922Y393800D01*
X756920Y393700D01*
X756920Y368300D02*
X756922Y368200D01*
X756928Y368101D01*
X756938Y368001D01*
X756951Y367903D01*
X756969Y367804D01*
X756990Y367707D01*
X757015Y367611D01*
X757044Y367515D01*
X757077Y367421D01*
X757113Y367328D01*
X757153Y367237D01*
X757197Y367147D01*
X757244Y367059D01*
X757294Y366973D01*
X757348Y366889D01*
X757405Y366807D01*
X757465Y366728D01*
X757529Y366650D01*
X757595Y366576D01*
X757664Y366504D01*
X757736Y366435D01*
X757810Y366369D01*
X757888Y366305D01*
X757967Y366245D01*
X758049Y366188D01*
X758133Y366134D01*
X758219Y366084D01*
X758307Y366037D01*
X758397Y365993D01*
X758488Y365953D01*
X758581Y365917D01*
X758675Y365884D01*
X758771Y365855D01*
X758867Y365830D01*
X758964Y365809D01*
X759063Y365791D01*
X759161Y365778D01*
X759261Y365768D01*
X759360Y365762D01*
X759460Y365760D01*
X843280Y368300D02*
X843280Y393700D01*
X840740Y365760D02*
X834390Y365760D01*
X833120Y367030D01*
X834390Y396240D02*
X840740Y396240D01*
X834390Y396240D02*
X833120Y394970D01*
X767080Y367030D02*
X765810Y365760D01*
X767080Y367030D02*
X833120Y367030D01*
X767080Y394970D02*
X765810Y396240D01*
X767080Y394970D02*
X833120Y394970D01*
X765810Y365760D02*
X759460Y365760D01*
X759460Y396240D02*
X765810Y396240D01*
X756920Y393700D02*
X756920Y368300D01*
D27*
X752602Y381000D03*
X847598Y381000D03*
D14*
X807563Y361325D02*
X807563Y349885D01*
X807563Y361325D02*
X813283Y361325D01*
X815190Y359418D01*
X815190Y355605D01*
X813283Y353698D01*
X807563Y353698D01*
X811376Y353698D02*
X815190Y349885D01*
X819257Y357512D02*
X823070Y361325D01*
X823070Y349885D01*
X819257Y349885D02*
X826884Y349885D01*
X830951Y357512D02*
X834764Y361325D01*
X834764Y349885D01*
X830951Y349885D02*
X838577Y349885D01*
X766134Y387233D02*
X762321Y383420D01*
X766134Y387233D02*
X766134Y375793D01*
X762321Y375793D02*
X769948Y375793D01*
X774015Y377700D02*
X774015Y385326D01*
X775922Y387233D01*
X779735Y387233D01*
X781642Y385326D01*
X781642Y377700D01*
X779735Y375793D01*
X775922Y375793D01*
X774015Y377700D01*
X781642Y385326D01*
X785709Y385326D02*
X785709Y377700D01*
X785709Y385326D02*
X787616Y387233D01*
X791429Y387233D01*
X793335Y385326D01*
X793335Y377700D01*
X791429Y375793D01*
X787616Y375793D01*
X785709Y377700D01*
X793335Y385326D01*
X797403Y375793D02*
X805029Y387233D01*
X809097Y383420D02*
X812910Y387233D01*
X812910Y375793D01*
X809097Y375793D02*
X816723Y375793D01*
X820791Y375793D02*
X820791Y387233D01*
X824604Y379606D02*
X820791Y375793D01*
X824604Y379606D02*
X828417Y375793D01*
X828417Y387233D01*
D11*
X838200Y299720D02*
X762000Y299720D01*
X762000Y335280D02*
X838200Y335280D01*
X838200Y299720D01*
X762000Y299720D02*
X762000Y335280D01*
D28*
X772795Y317500D03*
D29*
X755015Y317500D03*
X845185Y317500D03*
D14*
X763905Y339725D02*
X763905Y351165D01*
X763905Y339725D02*
X769625Y339725D01*
X771532Y341632D01*
X771532Y349258D01*
X769625Y351165D01*
X763905Y351165D01*
X775599Y349258D02*
X777506Y351165D01*
X781319Y351165D01*
X783225Y349258D01*
X783225Y347352D01*
X781319Y345445D01*
X783225Y343538D01*
X783225Y341632D01*
X781319Y339725D01*
X777506Y339725D01*
X775599Y341632D01*
X775599Y343538D01*
X777506Y345445D01*
X775599Y347352D01*
X775599Y349258D01*
X777506Y345445D02*
X781319Y345445D01*
X782958Y315605D02*
X779145Y311792D01*
X782958Y315605D02*
X782958Y304165D01*
X779145Y304165D02*
X786772Y304165D01*
X790839Y304165D02*
X790839Y315605D01*
X798465Y304165D01*
X798465Y315605D01*
X802533Y315605D02*
X810159Y315605D01*
X802533Y315605D02*
X802533Y309885D01*
X806346Y311792D01*
X808253Y311792D01*
X810159Y309885D01*
X810159Y306072D01*
X808253Y304165D01*
X804440Y304165D01*
X802533Y306072D01*
X814227Y313698D02*
X816134Y315605D01*
X819947Y315605D01*
X821853Y313698D01*
X821853Y311792D01*
X819947Y309885D01*
X821853Y307978D01*
X821853Y306072D01*
X819947Y304165D01*
X816134Y304165D01*
X814227Y306072D01*
X814227Y307978D01*
X816134Y309885D01*
X814227Y311792D01*
X814227Y313698D01*
X816134Y309885D02*
X819947Y309885D01*
X825921Y311792D02*
X829734Y315605D01*
X829734Y304165D01*
X825921Y304165D02*
X833547Y304165D01*
X837615Y306072D02*
X839521Y304165D01*
X843335Y304165D01*
X845241Y306072D01*
X845241Y313698D01*
X843335Y315605D01*
X839521Y315605D01*
X837615Y313698D01*
X837615Y311792D01*
X839521Y309885D01*
X845241Y309885D01*
D11*
X655320Y279400D02*
X655320Y355600D01*
X690880Y355600D02*
X690880Y279400D01*
X655320Y279400D01*
X655320Y355600D02*
X690880Y355600D01*
D30*
X673100Y344805D03*
D31*
X673100Y362585D03*
X673100Y272415D03*
D14*
X695315Y331577D02*
X706755Y331577D01*
X706755Y337297D01*
X704848Y339204D01*
X697222Y339204D01*
X695315Y337297D01*
X695315Y331577D01*
X697222Y343271D02*
X695315Y345178D01*
X695315Y348991D01*
X697222Y350898D01*
X699129Y350898D01*
X701035Y348991D01*
X701035Y347084D01*
X701035Y348991D02*
X702942Y350898D01*
X704848Y350898D01*
X706755Y348991D01*
X706755Y345178D01*
X704848Y343271D01*
X659755Y273374D02*
X663569Y269561D01*
X659755Y273374D02*
X671195Y273374D01*
X671195Y269561D02*
X671195Y277188D01*
X671195Y281255D02*
X659755Y281255D01*
X671195Y288882D01*
X659755Y288882D01*
X659755Y292949D02*
X659755Y300575D01*
X659755Y292949D02*
X665475Y292949D01*
X663569Y296762D01*
X663569Y298669D01*
X665475Y300575D01*
X669288Y300575D01*
X671195Y298669D01*
X671195Y294856D01*
X669288Y292949D01*
X661662Y304643D02*
X659755Y306550D01*
X659755Y310363D01*
X661662Y312269D01*
X663569Y312269D01*
X665475Y310363D01*
X667382Y312269D01*
X669288Y312269D01*
X671195Y310363D01*
X671195Y306550D01*
X669288Y304643D01*
X667382Y304643D01*
X665475Y306550D01*
X663569Y304643D01*
X661662Y304643D01*
X665475Y306550D02*
X665475Y310363D01*
X663569Y316337D02*
X659755Y320150D01*
X671195Y320150D01*
X671195Y316337D02*
X671195Y323963D01*
X669288Y328031D02*
X671195Y329938D01*
X671195Y333751D01*
X669288Y335657D01*
X661662Y335657D01*
X659755Y333751D01*
X659755Y329938D01*
X661662Y328031D01*
X663569Y328031D01*
X665475Y329938D01*
X665475Y335657D01*
D11*
X173990Y381000D02*
X130810Y381000D01*
X130810Y355600D02*
X173990Y355600D01*
X176530Y358140D02*
X176530Y378460D01*
X128270Y378460D02*
X128270Y358140D01*
X173990Y381000D02*
X174090Y380998D01*
X174189Y380992D01*
X174289Y380982D01*
X174387Y380969D01*
X174486Y380951D01*
X174583Y380930D01*
X174679Y380905D01*
X174775Y380876D01*
X174869Y380843D01*
X174962Y380807D01*
X175053Y380767D01*
X175143Y380723D01*
X175231Y380676D01*
X175317Y380626D01*
X175401Y380572D01*
X175483Y380515D01*
X175562Y380455D01*
X175640Y380391D01*
X175714Y380325D01*
X175786Y380256D01*
X175855Y380184D01*
X175921Y380110D01*
X175985Y380032D01*
X176045Y379953D01*
X176102Y379871D01*
X176156Y379787D01*
X176206Y379701D01*
X176253Y379613D01*
X176297Y379523D01*
X176337Y379432D01*
X176373Y379339D01*
X176406Y379245D01*
X176435Y379149D01*
X176460Y379053D01*
X176481Y378956D01*
X176499Y378857D01*
X176512Y378759D01*
X176522Y378659D01*
X176528Y378560D01*
X176530Y378460D01*
X130810Y381000D02*
X130710Y380998D01*
X130611Y380992D01*
X130511Y380982D01*
X130413Y380969D01*
X130314Y380951D01*
X130217Y380930D01*
X130121Y380905D01*
X130025Y380876D01*
X129931Y380843D01*
X129838Y380807D01*
X129747Y380767D01*
X129657Y380723D01*
X129569Y380676D01*
X129483Y380626D01*
X129399Y380572D01*
X129317Y380515D01*
X129238Y380455D01*
X129160Y380391D01*
X129086Y380325D01*
X129014Y380256D01*
X128945Y380184D01*
X128879Y380110D01*
X128815Y380032D01*
X128755Y379953D01*
X128698Y379871D01*
X128644Y379787D01*
X128594Y379701D01*
X128547Y379613D01*
X128503Y379523D01*
X128463Y379432D01*
X128427Y379339D01*
X128394Y379245D01*
X128365Y379149D01*
X128340Y379053D01*
X128319Y378956D01*
X128301Y378857D01*
X128288Y378759D01*
X128278Y378659D01*
X128272Y378560D01*
X128270Y378460D01*
X173990Y355600D02*
X174090Y355602D01*
X174189Y355608D01*
X174289Y355618D01*
X174387Y355631D01*
X174486Y355649D01*
X174583Y355670D01*
X174679Y355695D01*
X174775Y355724D01*
X174869Y355757D01*
X174962Y355793D01*
X175053Y355833D01*
X175143Y355877D01*
X175231Y355924D01*
X175317Y355974D01*
X175401Y356028D01*
X175483Y356085D01*
X175562Y356145D01*
X175640Y356209D01*
X175714Y356275D01*
X175786Y356344D01*
X175855Y356416D01*
X175921Y356490D01*
X175985Y356568D01*
X176045Y356647D01*
X176102Y356729D01*
X176156Y356813D01*
X176206Y356899D01*
X176253Y356987D01*
X176297Y357077D01*
X176337Y357168D01*
X176373Y357261D01*
X176406Y357355D01*
X176435Y357451D01*
X176460Y357547D01*
X176481Y357644D01*
X176499Y357743D01*
X176512Y357841D01*
X176522Y357941D01*
X176528Y358040D01*
X176530Y358140D01*
X130810Y355600D02*
X130710Y355602D01*
X130611Y355608D01*
X130511Y355618D01*
X130413Y355631D01*
X130314Y355649D01*
X130217Y355670D01*
X130121Y355695D01*
X130025Y355724D01*
X129931Y355757D01*
X129838Y355793D01*
X129747Y355833D01*
X129657Y355877D01*
X129569Y355924D01*
X129483Y355974D01*
X129399Y356028D01*
X129317Y356085D01*
X129238Y356145D01*
X129160Y356209D01*
X129086Y356275D01*
X129014Y356344D01*
X128945Y356416D01*
X128879Y356490D01*
X128815Y356568D01*
X128755Y356647D01*
X128698Y356729D01*
X128644Y356813D01*
X128594Y356899D01*
X128547Y356987D01*
X128503Y357077D01*
X128463Y357168D01*
X128427Y357261D01*
X128394Y357355D01*
X128365Y357451D01*
X128340Y357547D01*
X128319Y357644D01*
X128301Y357743D01*
X128288Y357841D01*
X128278Y357941D01*
X128272Y358040D01*
X128270Y358140D01*
X154940Y368300D02*
X156210Y368300D01*
D12*
X154940Y368300D02*
X154940Y375920D01*
X154940Y368300D02*
X154940Y360680D01*
X149860Y368300D02*
X149860Y375920D01*
X149860Y368300D02*
X149860Y360680D01*
D11*
X149860Y368300D02*
X148590Y368300D01*
X812800Y264160D02*
X812800Y243840D01*
X866140Y266700D02*
X886460Y266700D01*
X866140Y266700D02*
X863600Y264160D01*
X866140Y241300D02*
X886460Y241300D01*
X866140Y241300D02*
X863600Y243840D01*
X886460Y241300D02*
X889000Y243840D01*
X889000Y264160D02*
X886460Y266700D01*
X889000Y264160D02*
X889000Y243840D01*
X863600Y264160D02*
X861060Y266700D01*
X840740Y266700D01*
X838200Y264160D01*
X835660Y266700D01*
X815340Y266700D02*
X812800Y264160D01*
X815340Y266700D02*
X835660Y266700D01*
X861060Y241300D02*
X863600Y243840D01*
X840740Y241300D02*
X838200Y243840D01*
X835660Y241300D01*
X815340Y241300D02*
X812800Y243840D01*
X840740Y241300D02*
X861060Y241300D01*
X835660Y241300D02*
X815340Y241300D01*
D14*
X826135Y233727D02*
X829016Y236608D01*
X829016Y227965D01*
X826135Y227965D02*
X831897Y227965D01*
X851535Y227965D02*
X857297Y227965D01*
X851535Y227965D02*
X857297Y233727D01*
X857297Y235168D01*
X855857Y236608D01*
X852976Y236608D01*
X851535Y235168D01*
X876935Y235168D02*
X878376Y236608D01*
X881257Y236608D01*
X882697Y235168D01*
X882697Y233727D01*
X881257Y232287D01*
X879816Y232287D01*
X881257Y232287D02*
X882697Y230846D01*
X882697Y229406D01*
X881257Y227965D01*
X878376Y227965D01*
X876935Y229406D01*
X817882Y271145D02*
X815975Y273052D01*
X817882Y271145D02*
X819788Y271145D01*
X821695Y273052D01*
X821695Y282585D01*
X819788Y282585D02*
X823602Y282585D01*
X827669Y282585D02*
X827669Y271145D01*
X827669Y282585D02*
X833389Y282585D01*
X835295Y280678D01*
X835295Y276865D01*
X833389Y274958D01*
X827669Y274958D01*
X839363Y282585D02*
X846989Y282585D01*
X846989Y280678D01*
X839363Y273052D01*
X839363Y271145D01*
X823602Y222895D02*
X815975Y222895D01*
X815975Y217175D01*
X819788Y219082D01*
X821695Y219082D01*
X823602Y217175D01*
X823602Y213362D01*
X821695Y211455D01*
X817882Y211455D01*
X815975Y213362D01*
X827669Y215268D02*
X827669Y222895D01*
X827669Y215268D02*
X831482Y211455D01*
X835295Y215268D01*
X835295Y222895D01*
X846989Y222895D02*
X839363Y211455D01*
X851057Y219082D02*
X854870Y222895D01*
X854870Y211455D01*
X851057Y211455D02*
X858683Y211455D01*
X862751Y211455D02*
X870377Y211455D01*
X862751Y211455D02*
X870377Y219082D01*
X870377Y220988D01*
X868471Y222895D01*
X864658Y222895D01*
X862751Y220988D01*
X874445Y222895D02*
X874445Y215268D01*
X878258Y211455D01*
X882071Y215268D01*
X882071Y222895D01*
D11*
X833120Y152400D02*
X792480Y152400D01*
X833120Y152400D02*
X833120Y177800D01*
X792480Y177800D01*
X792480Y152400D01*
X806450Y165100D02*
X812800Y165100D01*
X822960Y171450D02*
X822960Y158750D01*
X812800Y165100D01*
X828040Y165100D01*
X822960Y171450D02*
X812800Y165100D01*
X812800Y171450D01*
X812800Y165100D02*
X812800Y158750D01*
D32*
X798830Y165100D03*
D33*
X842645Y165100D03*
X782955Y165100D03*
D14*
X793115Y182245D02*
X793115Y193685D01*
X793115Y182245D02*
X798835Y182245D01*
X800742Y184152D01*
X800742Y191778D01*
X798835Y193685D01*
X793115Y193685D01*
X804809Y189872D02*
X808622Y193685D01*
X808622Y182245D01*
X804809Y182245D02*
X812435Y182245D01*
X796928Y149235D02*
X793115Y145422D01*
X796928Y149235D02*
X796928Y137795D01*
X793115Y137795D02*
X800742Y137795D01*
X804809Y137795D02*
X804809Y149235D01*
X812435Y137795D01*
X812435Y149235D01*
X822223Y149235D02*
X822223Y137795D01*
X816503Y143515D02*
X822223Y149235D01*
X824129Y143515D02*
X816503Y143515D01*
X828197Y139702D02*
X828197Y147328D01*
X830104Y149235D01*
X833917Y149235D01*
X835823Y147328D01*
X835823Y139702D01*
X833917Y137795D01*
X830104Y137795D01*
X828197Y139702D01*
X835823Y147328D01*
X839891Y147328D02*
X839891Y139702D01*
X839891Y147328D02*
X841798Y149235D01*
X845611Y149235D01*
X847517Y147328D01*
X847517Y139702D01*
X845611Y137795D01*
X841798Y137795D01*
X839891Y139702D01*
X847517Y147328D01*
X857305Y149235D02*
X857305Y137795D01*
X851585Y143515D02*
X857305Y149235D01*
X859211Y143515D02*
X851585Y143515D01*
D11*
X889000Y147320D02*
X889000Y106680D01*
X914400Y106680D01*
X914400Y147320D01*
X889000Y147320D01*
X901700Y133350D02*
X901700Y127000D01*
X908050Y116840D02*
X895350Y116840D01*
X901700Y127000D01*
X901700Y111760D01*
X908050Y116840D02*
X901700Y127000D01*
X908050Y127000D01*
X901700Y127000D02*
X895350Y127000D01*
D34*
X901700Y140970D03*
D35*
X901700Y97155D03*
X901700Y156845D03*
D14*
X918835Y124567D02*
X930275Y124567D01*
X930275Y130287D01*
X928368Y132194D01*
X920742Y132194D01*
X918835Y130287D01*
X918835Y124567D01*
X930275Y136261D02*
X930275Y143888D01*
X922649Y143888D02*
X930275Y136261D01*
X922649Y143888D02*
X920742Y143888D01*
X918835Y141981D01*
X918835Y138168D01*
X920742Y136261D01*
X874385Y81604D02*
X878199Y77791D01*
X874385Y81604D02*
X885825Y81604D01*
X885825Y77791D02*
X885825Y85418D01*
X885825Y89485D02*
X874385Y89485D01*
X885825Y97112D01*
X874385Y97112D01*
X874385Y106899D02*
X885825Y106899D01*
X880105Y101179D02*
X874385Y106899D01*
X880105Y108805D02*
X880105Y101179D01*
X883918Y112873D02*
X876292Y112873D01*
X874385Y114780D01*
X874385Y118593D01*
X876292Y120499D01*
X883918Y120499D01*
X885825Y118593D01*
X885825Y114780D01*
X883918Y112873D01*
X876292Y120499D01*
X876292Y124567D02*
X883918Y124567D01*
X876292Y124567D02*
X874385Y126474D01*
X874385Y130287D01*
X876292Y132193D01*
X883918Y132193D01*
X885825Y130287D01*
X885825Y126474D01*
X883918Y124567D01*
X876292Y132193D01*
X874385Y141981D02*
X885825Y141981D01*
X880105Y136261D02*
X874385Y141981D01*
X880105Y143887D02*
X880105Y136261D01*
D11*
X830580Y88900D02*
X830578Y88800D01*
X830572Y88701D01*
X830562Y88601D01*
X830549Y88503D01*
X830531Y88404D01*
X830510Y88307D01*
X830485Y88211D01*
X830456Y88115D01*
X830423Y88021D01*
X830387Y87928D01*
X830347Y87837D01*
X830303Y87747D01*
X830256Y87659D01*
X830206Y87573D01*
X830152Y87489D01*
X830095Y87407D01*
X830035Y87328D01*
X829971Y87250D01*
X829905Y87176D01*
X829836Y87104D01*
X829764Y87035D01*
X829690Y86969D01*
X829612Y86905D01*
X829533Y86845D01*
X829451Y86788D01*
X829367Y86734D01*
X829281Y86684D01*
X829193Y86637D01*
X829103Y86593D01*
X829012Y86553D01*
X828919Y86517D01*
X828825Y86484D01*
X828729Y86455D01*
X828633Y86430D01*
X828536Y86409D01*
X828437Y86391D01*
X828339Y86378D01*
X828239Y86368D01*
X828140Y86362D01*
X828040Y86360D01*
X830580Y114300D02*
X830578Y114400D01*
X830572Y114499D01*
X830562Y114599D01*
X830549Y114697D01*
X830531Y114796D01*
X830510Y114893D01*
X830485Y114989D01*
X830456Y115085D01*
X830423Y115179D01*
X830387Y115272D01*
X830347Y115363D01*
X830303Y115453D01*
X830256Y115541D01*
X830206Y115627D01*
X830152Y115711D01*
X830095Y115793D01*
X830035Y115872D01*
X829971Y115950D01*
X829905Y116024D01*
X829836Y116096D01*
X829764Y116165D01*
X829690Y116231D01*
X829612Y116295D01*
X829533Y116355D01*
X829451Y116412D01*
X829367Y116466D01*
X829281Y116516D01*
X829193Y116563D01*
X829103Y116607D01*
X829012Y116647D01*
X828919Y116683D01*
X828825Y116716D01*
X828729Y116745D01*
X828633Y116770D01*
X828536Y116791D01*
X828437Y116809D01*
X828339Y116822D01*
X828239Y116832D01*
X828140Y116838D01*
X828040Y116840D01*
X746760Y116840D02*
X746660Y116838D01*
X746561Y116832D01*
X746461Y116822D01*
X746363Y116809D01*
X746264Y116791D01*
X746167Y116770D01*
X746071Y116745D01*
X745975Y116716D01*
X745881Y116683D01*
X745788Y116647D01*
X745697Y116607D01*
X745607Y116563D01*
X745519Y116516D01*
X745433Y116466D01*
X745349Y116412D01*
X745267Y116355D01*
X745188Y116295D01*
X745110Y116231D01*
X745036Y116165D01*
X744964Y116096D01*
X744895Y116024D01*
X744829Y115950D01*
X744765Y115872D01*
X744705Y115793D01*
X744648Y115711D01*
X744594Y115627D01*
X744544Y115541D01*
X744497Y115453D01*
X744453Y115363D01*
X744413Y115272D01*
X744377Y115179D01*
X744344Y115085D01*
X744315Y114989D01*
X744290Y114893D01*
X744269Y114796D01*
X744251Y114697D01*
X744238Y114599D01*
X744228Y114499D01*
X744222Y114400D01*
X744220Y114300D01*
X744220Y88900D02*
X744222Y88800D01*
X744228Y88701D01*
X744238Y88601D01*
X744251Y88503D01*
X744269Y88404D01*
X744290Y88307D01*
X744315Y88211D01*
X744344Y88115D01*
X744377Y88021D01*
X744413Y87928D01*
X744453Y87837D01*
X744497Y87747D01*
X744544Y87659D01*
X744594Y87573D01*
X744648Y87489D01*
X744705Y87407D01*
X744765Y87328D01*
X744829Y87250D01*
X744895Y87176D01*
X744964Y87104D01*
X745036Y87035D01*
X745110Y86969D01*
X745188Y86905D01*
X745267Y86845D01*
X745349Y86788D01*
X745433Y86734D01*
X745519Y86684D01*
X745607Y86637D01*
X745697Y86593D01*
X745788Y86553D01*
X745881Y86517D01*
X745975Y86484D01*
X746071Y86455D01*
X746167Y86430D01*
X746264Y86409D01*
X746363Y86391D01*
X746461Y86378D01*
X746561Y86368D01*
X746660Y86362D01*
X746760Y86360D01*
X830580Y88900D02*
X830580Y114300D01*
X828040Y86360D02*
X821690Y86360D01*
X820420Y87630D01*
X821690Y116840D02*
X828040Y116840D01*
X821690Y116840D02*
X820420Y115570D01*
X754380Y87630D02*
X753110Y86360D01*
X754380Y87630D02*
X820420Y87630D01*
X754380Y115570D02*
X753110Y116840D01*
X754380Y115570D02*
X820420Y115570D01*
X753110Y86360D02*
X746760Y86360D01*
X746760Y116840D02*
X753110Y116840D01*
X744220Y114300D02*
X744220Y88900D01*
D27*
X739902Y101600D03*
X834898Y101600D03*
D14*
X806557Y81925D02*
X806557Y70485D01*
X806557Y81925D02*
X812277Y81925D01*
X814184Y80018D01*
X814184Y76205D01*
X812277Y74298D01*
X806557Y74298D01*
X810370Y74298D02*
X814184Y70485D01*
X818251Y70485D02*
X825878Y70485D01*
X818251Y70485D02*
X825878Y78112D01*
X825878Y80018D01*
X823971Y81925D01*
X820158Y81925D01*
X818251Y80018D01*
X757248Y96393D02*
X749621Y96393D01*
X757248Y104020D01*
X757248Y105926D01*
X755341Y107833D01*
X751528Y107833D01*
X749621Y105926D01*
X761315Y96393D02*
X768942Y96393D01*
X761315Y96393D02*
X768942Y104020D01*
X768942Y105926D01*
X767035Y107833D01*
X763222Y107833D01*
X761315Y105926D01*
X773009Y105926D02*
X773009Y98300D01*
X773009Y105926D02*
X774916Y107833D01*
X778729Y107833D01*
X780635Y105926D01*
X780635Y98300D01*
X778729Y96393D01*
X774916Y96393D01*
X773009Y98300D01*
X780635Y105926D01*
X784703Y96393D02*
X792329Y107833D01*
X796397Y104020D02*
X800210Y107833D01*
X800210Y96393D01*
X796397Y96393D02*
X804023Y96393D01*
X808091Y96393D02*
X808091Y107833D01*
X811904Y100206D02*
X808091Y96393D01*
X811904Y100206D02*
X815717Y96393D01*
X815717Y107833D01*
D11*
X825500Y20320D02*
X749300Y20320D01*
X749300Y55880D02*
X825500Y55880D01*
X825500Y20320D01*
X749300Y20320D02*
X749300Y55880D01*
D28*
X760095Y38100D03*
D29*
X742315Y38100D03*
X832485Y38100D03*
D14*
X751205Y60325D02*
X751205Y71765D01*
X751205Y60325D02*
X756925Y60325D01*
X758832Y62232D01*
X758832Y69858D01*
X756925Y71765D01*
X751205Y71765D01*
X768619Y71765D02*
X768619Y60325D01*
X762899Y66045D02*
X768619Y71765D01*
X770525Y66045D02*
X762899Y66045D01*
X779145Y48905D02*
X786772Y48905D01*
X779145Y48905D02*
X779145Y43185D01*
X782958Y45092D01*
X784865Y45092D01*
X786772Y43185D01*
X786772Y39372D01*
X784865Y37465D01*
X781052Y37465D01*
X779145Y39372D01*
D11*
X774700Y577850D02*
X774700Y591820D01*
X774700Y562610D02*
X774700Y551180D01*
X774700Y562610D02*
X755650Y562610D01*
X793750Y562610D02*
X793750Y568960D01*
X755650Y568960D01*
X755650Y562610D01*
X774700Y562610D02*
X793750Y562610D01*
X774700Y511810D02*
X774700Y496570D01*
X782320Y504190D02*
X767080Y504190D01*
X666750Y571500D02*
X666783Y574149D01*
X666880Y576797D01*
X667042Y579441D01*
X667270Y582081D01*
X667562Y584714D01*
X667918Y587340D01*
X668339Y589955D01*
X668824Y592560D01*
X669373Y595152D01*
X669985Y597730D01*
X670660Y600292D01*
X671398Y602836D01*
X672198Y605362D01*
X673060Y607867D01*
X673983Y610351D01*
X674967Y612811D01*
X676011Y615246D01*
X677114Y617655D01*
X678276Y620036D01*
X679497Y622387D01*
X680774Y624708D01*
X682108Y626997D01*
X683498Y629253D01*
X684943Y631474D01*
X686442Y633658D01*
X687994Y635806D01*
X689598Y637914D01*
X691254Y639983D01*
X692959Y642010D01*
X694714Y643995D01*
X696518Y645936D01*
X698368Y647832D01*
X700264Y649682D01*
X702205Y651486D01*
X704190Y653241D01*
X706217Y654946D01*
X708286Y656602D01*
X710394Y658206D01*
X712542Y659758D01*
X714726Y661257D01*
X716947Y662702D01*
X719203Y664092D01*
X721492Y665426D01*
X723813Y666703D01*
X726164Y667924D01*
X728545Y669086D01*
X730954Y670189D01*
X733389Y671233D01*
X735849Y672217D01*
X738333Y673140D01*
X740838Y674002D01*
X743364Y674802D01*
X745908Y675540D01*
X748470Y676215D01*
X751048Y676827D01*
X753640Y677376D01*
X756245Y677861D01*
X758860Y678282D01*
X761486Y678638D01*
X764119Y678930D01*
X766759Y679158D01*
X769403Y679320D01*
X772051Y679417D01*
X774700Y679450D01*
X777349Y679417D01*
X779997Y679320D01*
X782641Y679158D01*
X785281Y678930D01*
X787914Y678638D01*
X790540Y678282D01*
X793155Y677861D01*
X795760Y677376D01*
X798352Y676827D01*
X800930Y676215D01*
X803492Y675540D01*
X806036Y674802D01*
X808562Y674002D01*
X811067Y673140D01*
X813551Y672217D01*
X816011Y671233D01*
X818446Y670189D01*
X820855Y669086D01*
X823236Y667924D01*
X825587Y666703D01*
X827908Y665426D01*
X830197Y664092D01*
X832453Y662702D01*
X834674Y661257D01*
X836858Y659758D01*
X839006Y658206D01*
X841114Y656602D01*
X843183Y654946D01*
X845210Y653241D01*
X847195Y651486D01*
X849136Y649682D01*
X851032Y647832D01*
X852882Y645936D01*
X854686Y643995D01*
X856441Y642010D01*
X858146Y639983D01*
X859802Y637914D01*
X861406Y635806D01*
X862958Y633658D01*
X864457Y631474D01*
X865902Y629253D01*
X867292Y626997D01*
X868626Y624708D01*
X869903Y622387D01*
X871124Y620036D01*
X872286Y617655D01*
X873389Y615246D01*
X874433Y612811D01*
X875417Y610351D01*
X876340Y607867D01*
X877202Y605362D01*
X878002Y602836D01*
X878740Y600292D01*
X879415Y597730D01*
X880027Y595152D01*
X880576Y592560D01*
X881061Y589955D01*
X881482Y587340D01*
X881838Y584714D01*
X882130Y582081D01*
X882358Y579441D01*
X882520Y576797D01*
X882617Y574149D01*
X882650Y571500D01*
X882617Y568851D01*
X882520Y566203D01*
X882358Y563559D01*
X882130Y560919D01*
X881838Y558286D01*
X881482Y555660D01*
X881061Y553045D01*
X880576Y550440D01*
X880027Y547848D01*
X879415Y545270D01*
X878740Y542708D01*
X878002Y540164D01*
X877202Y537638D01*
X876340Y535133D01*
X875417Y532649D01*
X874433Y530189D01*
X873389Y527754D01*
X872286Y525345D01*
X871124Y522964D01*
X869903Y520613D01*
X868626Y518292D01*
X867292Y516003D01*
X865902Y513747D01*
X864457Y511526D01*
X862958Y509342D01*
X861406Y507194D01*
X859802Y505086D01*
X858146Y503017D01*
X856441Y500990D01*
X854686Y499005D01*
X852882Y497064D01*
X851032Y495168D01*
X849136Y493318D01*
X847195Y491514D01*
X845210Y489759D01*
X843183Y488054D01*
X841114Y486398D01*
X839006Y484794D01*
X836858Y483242D01*
X834674Y481743D01*
X832453Y480298D01*
X830197Y478908D01*
X827908Y477574D01*
X825587Y476297D01*
X823236Y475076D01*
X820855Y473914D01*
X818446Y472811D01*
X816011Y471767D01*
X813551Y470783D01*
X811067Y469860D01*
X808562Y468998D01*
X806036Y468198D01*
X803492Y467460D01*
X800930Y466785D01*
X798352Y466173D01*
X795760Y465624D01*
X793155Y465139D01*
X790540Y464718D01*
X787914Y464362D01*
X785281Y464070D01*
X782641Y463842D01*
X779997Y463680D01*
X777349Y463583D01*
X774700Y463550D01*
X772051Y463583D01*
X769403Y463680D01*
X766759Y463842D01*
X764119Y464070D01*
X761486Y464362D01*
X758860Y464718D01*
X756245Y465139D01*
X753640Y465624D01*
X751048Y466173D01*
X748470Y466785D01*
X745908Y467460D01*
X743364Y468198D01*
X740838Y468998D01*
X738333Y469860D01*
X735849Y470783D01*
X733389Y471767D01*
X730954Y472811D01*
X728545Y473914D01*
X726164Y475076D01*
X723813Y476297D01*
X721492Y477574D01*
X719203Y478908D01*
X716947Y480298D01*
X714726Y481743D01*
X712542Y483242D01*
X710394Y484794D01*
X708286Y486398D01*
X706217Y488054D01*
X704190Y489759D01*
X702205Y491514D01*
X700264Y493318D01*
X698368Y495168D01*
X696518Y497064D01*
X694714Y499005D01*
X692959Y500990D01*
X691254Y503017D01*
X689598Y505086D01*
X687994Y507194D01*
X686442Y509342D01*
X684943Y511526D01*
X683498Y513747D01*
X682108Y516003D01*
X680774Y518292D01*
X679497Y520613D01*
X678276Y522964D01*
X677114Y525345D01*
X676011Y527754D01*
X674967Y530189D01*
X673983Y532649D01*
X673060Y535133D01*
X672198Y537638D01*
X671398Y540164D01*
X670660Y542708D01*
X669985Y545270D01*
X669373Y547848D01*
X668824Y550440D01*
X668339Y553045D01*
X667918Y555660D01*
X667562Y558286D01*
X667270Y560919D01*
X667042Y563559D01*
X666880Y566203D01*
X666783Y568851D01*
X666750Y571500D01*
D36*
X774700Y577215D03*
D15*
X720342Y525399D02*
X706995Y525399D01*
X720342Y525399D02*
X723011Y528068D01*
X723011Y533407D01*
X720342Y536076D01*
X706995Y536076D01*
X720342Y541771D02*
X723011Y544440D01*
X723011Y549778D01*
X720342Y552448D01*
X717672Y552448D01*
X715003Y549778D01*
X715003Y544440D01*
X712334Y541771D01*
X709665Y541771D01*
X706995Y544440D01*
X706995Y549778D01*
X709665Y552448D01*
X704326Y547109D02*
X725680Y547109D01*
X723011Y558142D02*
X723011Y568819D01*
X723011Y558142D02*
X712334Y568819D01*
X709665Y568819D01*
X706995Y566150D01*
X706995Y560811D01*
X709665Y558142D01*
X706995Y582522D02*
X723011Y582522D01*
X715003Y574514D02*
X706995Y582522D01*
X715003Y585191D02*
X715003Y574514D01*
X800721Y529597D02*
X803391Y532266D01*
X800721Y529597D02*
X800721Y524258D01*
X803391Y521589D01*
X806060Y521589D01*
X808729Y524258D01*
X808729Y529597D01*
X811398Y532266D01*
X814068Y532266D01*
X816737Y529597D01*
X816737Y524258D01*
X814068Y521589D01*
X814068Y537961D02*
X800721Y537961D01*
X814068Y537961D02*
X816737Y540630D01*
X816737Y545968D01*
X814068Y548638D01*
X800721Y548638D01*
X800721Y554332D02*
X816737Y554332D01*
X800721Y554332D02*
X800721Y562340D01*
X803391Y565009D01*
X808729Y565009D01*
X811398Y562340D01*
X811398Y554332D01*
X800721Y570704D02*
X800721Y581381D01*
X800721Y570704D02*
X816737Y570704D01*
X816737Y581381D01*
X808729Y576042D02*
X808729Y570704D01*
X816737Y587075D02*
X800721Y587075D01*
X800721Y595083D01*
X803391Y597752D01*
X808729Y597752D01*
X811398Y595083D01*
X811398Y587075D01*
X811398Y592414D02*
X816737Y597752D01*
X800721Y611455D02*
X803391Y614124D01*
X800721Y611455D02*
X800721Y606116D01*
X803391Y603447D01*
X814068Y603447D01*
X816737Y606116D01*
X816737Y611455D01*
X814068Y614124D01*
X816737Y619818D02*
X806060Y619818D01*
X800721Y625157D01*
X806060Y630496D01*
X816737Y630496D01*
X808729Y630496D02*
X808729Y619818D01*
X816737Y636190D02*
X800721Y636190D01*
X800721Y644198D01*
X803391Y646867D01*
X808729Y646867D01*
X811398Y644198D01*
X811398Y636190D01*
M02*
