G04 EAGLE Gerber RS-274X export*
G75*
%MOMM*%
%FSLAX34Y34*%
%LPD*%
%INSoldermask Bottom*%
%IPPOS*%
%AMOC8*
5,1,8,0,0,1.08239X$1,22.5*%
G01*
%ADD10P,1.649562X8X202.500000*%
%ADD11C,1.524000*%
%ADD12P,1.649562X8X292.500000*%
%ADD13P,1.649562X8X22.500000*%
%ADD14P,1.649562X8X112.500000*%
%ADD15C,1.625600*%
%ADD16C,2.387600*%
%ADD17C,1.403200*%
%ADD18P,1.869504X8X22.500000*%
%ADD19P,1.951982X8X292.500000*%
%ADD20C,1.803400*%
%ADD21P,1.951982X8X202.500000*%
%ADD22C,4.165600*%
%ADD23P,1.869504X8X202.500000*%
%ADD24C,1.727200*%
%ADD25R,1.803400X1.371600*%
%ADD26R,1.828800X0.152400*%
%ADD27R,1.917700X1.917700*%
%ADD28C,1.879600*%
%ADD29P,1.759533X8X22.500000*%
%ADD30C,1.524000*%


D10*
X432054Y635000D03*
X482346Y635000D03*
X457200Y660400D03*
X685800Y609600D03*
X660400Y609600D03*
D11*
X774700Y596900D03*
X800100Y596900D03*
X800100Y673100D03*
X774700Y673100D03*
X825500Y596900D03*
X850900Y596900D03*
X825500Y673100D03*
X850900Y673100D03*
D10*
X800100Y698500D03*
X774700Y698500D03*
D12*
X736600Y635000D03*
X736600Y609600D03*
D13*
X838200Y698500D03*
X863600Y698500D03*
D14*
X889000Y596900D03*
X889000Y673100D03*
D12*
X889000Y571500D03*
X889000Y546100D03*
D15*
X381000Y691388D02*
X381000Y705612D01*
X355600Y705612D02*
X355600Y691388D01*
D16*
X254000Y698500D03*
X279000Y648500D03*
X304000Y648500D03*
X229000Y648500D03*
X204000Y648500D03*
D17*
X304000Y698500D03*
X304000Y723500D03*
X204000Y723500D03*
X204000Y698500D03*
D16*
X253600Y648500D03*
D18*
X736600Y660400D03*
D19*
X723900Y50800D03*
D20*
X723900Y76200D03*
D19*
X901700Y50800D03*
D20*
X901700Y76200D03*
D16*
X101600Y698500D03*
X126600Y648500D03*
X151600Y648500D03*
X76600Y648500D03*
X51600Y648500D03*
D17*
X151600Y698500D03*
X151600Y723500D03*
X51600Y723500D03*
X51600Y698500D03*
D16*
X101200Y648500D03*
D13*
X546100Y228600D03*
X622300Y228600D03*
D10*
X596900Y266700D03*
X571500Y266700D03*
D11*
X546100Y381000D03*
X546100Y355600D03*
X622300Y355600D03*
X622300Y381000D03*
X546100Y330200D03*
X546100Y304800D03*
X622300Y330200D03*
X622300Y304800D03*
D12*
X571500Y482600D03*
X571500Y457200D03*
D14*
X546100Y419100D03*
X546100Y495300D03*
X609600Y457200D03*
X609600Y482600D03*
D10*
X609600Y419100D03*
X584200Y419100D03*
X482600Y165100D03*
X406400Y165100D03*
X457200Y139700D03*
X431800Y139700D03*
D21*
X50800Y571500D03*
D20*
X76200Y571500D03*
D13*
X546100Y533400D03*
X622300Y533400D03*
X825500Y558800D03*
X850900Y558800D03*
X165100Y571500D03*
X190500Y571500D03*
D22*
X558800Y596900D03*
D23*
X635000Y76200D03*
X609600Y76200D03*
X584200Y76200D03*
X558800Y76200D03*
X533400Y76200D03*
X508000Y76200D03*
X635000Y50800D03*
X609600Y50800D03*
X584200Y50800D03*
X558800Y50800D03*
X533400Y50800D03*
X508000Y50800D03*
X482600Y76200D03*
X482600Y50800D03*
X457200Y76200D03*
X431800Y76200D03*
X406400Y76200D03*
X381000Y76200D03*
X355600Y76200D03*
X330200Y76200D03*
X457200Y50800D03*
X431800Y50800D03*
X406400Y50800D03*
X381000Y50800D03*
X355600Y50800D03*
X330200Y50800D03*
X304800Y76200D03*
X304800Y50800D03*
X279400Y76200D03*
X254000Y76200D03*
X228600Y76200D03*
X203200Y76200D03*
X279400Y50800D03*
X254000Y50800D03*
X228600Y50800D03*
X203200Y50800D03*
D24*
X482600Y690880D02*
X482600Y706120D01*
X457200Y706120D02*
X457200Y690880D01*
X431800Y690880D02*
X431800Y706120D01*
D13*
X837946Y63500D03*
X787654Y63500D03*
X812800Y38100D03*
D25*
X482600Y589280D03*
X482600Y604520D03*
D26*
X482600Y596900D03*
D25*
X457200Y589280D03*
X457200Y604520D03*
D26*
X457200Y596900D03*
D27*
X711200Y381000D03*
X863600Y381000D03*
D28*
X737400Y381000D03*
X837400Y381000D03*
D18*
X812800Y381000D03*
X762000Y381000D03*
D19*
X685800Y673100D03*
D20*
X685800Y698500D03*
D12*
X647700Y304800D03*
X647700Y228600D03*
D29*
X584200Y139700D03*
X584200Y165100D03*
X609600Y139700D03*
X609600Y165100D03*
D19*
X558800Y673100D03*
D20*
X558800Y698500D03*
D30*
X25400Y209804D02*
X25400Y196596D01*
X50800Y196596D02*
X50800Y209804D01*
X177800Y209804D02*
X177800Y196596D01*
X203200Y196596D02*
X203200Y209804D01*
X76200Y209804D02*
X76200Y196596D01*
X101600Y196596D02*
X101600Y209804D01*
X152400Y209804D02*
X152400Y196596D01*
X127000Y196596D02*
X127000Y209804D01*
X228600Y209804D02*
X228600Y196596D01*
X254000Y196596D02*
X254000Y209804D01*
X279400Y209804D02*
X279400Y196596D01*
X304800Y196596D02*
X304800Y209804D01*
X330200Y209804D02*
X330200Y196596D01*
X355600Y196596D02*
X355600Y209804D01*
X381000Y209804D02*
X381000Y196596D01*
X406400Y196596D02*
X406400Y209804D01*
X431800Y209804D02*
X431800Y196596D01*
X457200Y196596D02*
X457200Y209804D01*
X482600Y209804D02*
X482600Y196596D01*
X508000Y196596D02*
X508000Y209804D01*
X508000Y348996D02*
X508000Y362204D01*
X482600Y362204D02*
X482600Y348996D01*
X457200Y348996D02*
X457200Y362204D01*
X431800Y362204D02*
X431800Y348996D01*
X406400Y348996D02*
X406400Y362204D01*
X381000Y362204D02*
X381000Y348996D01*
X355600Y348996D02*
X355600Y362204D01*
X330200Y362204D02*
X330200Y348996D01*
X304800Y348996D02*
X304800Y362204D01*
X279400Y362204D02*
X279400Y348996D01*
X254000Y348996D02*
X254000Y362204D01*
X228600Y362204D02*
X228600Y348996D01*
X203200Y348996D02*
X203200Y362204D01*
X177800Y362204D02*
X177800Y348996D01*
X152400Y348996D02*
X152400Y362204D01*
X127000Y362204D02*
X127000Y348996D01*
X101600Y348996D02*
X101600Y362204D01*
X76200Y362204D02*
X76200Y348996D01*
X50800Y348996D02*
X50800Y362204D01*
X25400Y362204D02*
X25400Y348996D01*
D11*
X100330Y88900D03*
X52070Y88900D03*
D13*
X38100Y38100D03*
X63500Y38100D03*
X101600Y38100D03*
X127000Y38100D03*
D10*
X114300Y127000D03*
X38100Y127000D03*
D13*
X63500Y152400D03*
X139700Y152400D03*
X25400Y431800D03*
X50800Y431800D03*
X25400Y393700D03*
X76200Y393700D03*
D30*
X127000Y387096D02*
X127000Y400304D01*
X152400Y400304D02*
X152400Y387096D01*
X279400Y387096D02*
X279400Y400304D01*
X304800Y400304D02*
X304800Y387096D01*
X177800Y387096D02*
X177800Y400304D01*
X203200Y400304D02*
X203200Y387096D01*
X254000Y387096D02*
X254000Y400304D01*
X228600Y400304D02*
X228600Y387096D01*
X330200Y387096D02*
X330200Y400304D01*
X355600Y400304D02*
X355600Y387096D01*
X381000Y387096D02*
X381000Y400304D01*
X406400Y400304D02*
X406400Y387096D01*
X431800Y387096D02*
X431800Y400304D01*
X457200Y400304D02*
X457200Y387096D01*
X482600Y387096D02*
X482600Y400304D01*
X508000Y400304D02*
X508000Y387096D01*
X508000Y539496D02*
X508000Y552704D01*
X482600Y552704D02*
X482600Y539496D01*
X457200Y539496D02*
X457200Y552704D01*
X431800Y552704D02*
X431800Y539496D01*
X406400Y539496D02*
X406400Y552704D01*
X381000Y552704D02*
X381000Y539496D01*
X355600Y539496D02*
X355600Y552704D01*
X330200Y552704D02*
X330200Y539496D01*
X304800Y539496D02*
X304800Y552704D01*
X279400Y552704D02*
X279400Y539496D01*
X254000Y539496D02*
X254000Y552704D01*
X228600Y552704D02*
X228600Y539496D01*
X203200Y539496D02*
X203200Y552704D01*
X177800Y552704D02*
X177800Y539496D01*
X152400Y539496D02*
X152400Y552704D01*
X127000Y552704D02*
X127000Y539496D01*
D15*
X177800Y146812D02*
X177800Y132588D01*
X203200Y132588D02*
X203200Y146812D01*
D13*
X25400Y508000D03*
X38100Y527050D03*
X50800Y508000D03*
D10*
X76200Y469900D03*
X50800Y469900D03*
D29*
X520700Y139700D03*
X520700Y165100D03*
X546100Y139700D03*
X546100Y165100D03*
D12*
X660400Y190500D03*
X660400Y165100D03*
D25*
X177800Y233680D03*
X177800Y248920D03*
D26*
X177800Y241300D03*
D15*
X228600Y577088D02*
X228600Y591312D01*
X254000Y591312D02*
X254000Y577088D01*
X279400Y577088D02*
X279400Y591312D01*
D30*
X685800Y133604D02*
X685800Y120396D01*
X711200Y120396D02*
X711200Y133604D01*
X736600Y133604D02*
X736600Y120396D01*
X762000Y120396D02*
X762000Y133604D01*
X787400Y133604D02*
X787400Y120396D01*
X812800Y120396D02*
X812800Y133604D01*
X838200Y133604D02*
X838200Y120396D01*
X863600Y120396D02*
X863600Y133604D01*
X889000Y133604D02*
X889000Y120396D01*
X914400Y120396D02*
X914400Y133604D01*
X914400Y196596D02*
X914400Y209804D01*
X889000Y209804D02*
X889000Y196596D01*
X863600Y196596D02*
X863600Y209804D01*
X838200Y209804D02*
X838200Y196596D01*
X812800Y196596D02*
X812800Y209804D01*
X787400Y209804D02*
X787400Y196596D01*
X762000Y196596D02*
X762000Y209804D01*
X736600Y209804D02*
X736600Y196596D01*
X711200Y196596D02*
X711200Y209804D01*
X685800Y209804D02*
X685800Y196596D01*
D13*
X711200Y546100D03*
X698500Y565150D03*
X685800Y546100D03*
D12*
X647700Y571500D03*
X647700Y495300D03*
M02*
