M48
;GenerationSoftware,Autodesk,EAGLE,9.6.1*%
;CreationDate,2025-01-31T04:11:09Z*%
FMAT,2
ICI,OFF
METRIC,TZ,000.000
T9C0.610
T8C0.813
T7C0.914
T6C1.016
T5C1.100
T4C1.143
T3C1.200
T2C1.300
T1C3.962
%
G90
M71
T1
X55880Y59690
T2
X5160Y64850
X10120Y64850
X7660Y64850
X15160Y64850
X12660Y64850
X10160Y69850
X25360Y64850
X22900Y64850
X30400Y64850
X27900Y64850
X25400Y69850
X20400Y64850
T3
X15160Y69850
X5160Y69850
X15160Y72350
X5160Y72350
X30400Y69850
X30400Y72350
X20400Y72350
X20400Y69850
T4
X86360Y38100
X71120Y38100
T5
X83740Y38100
X73740Y38100
T6
X55880Y7620
X53340Y7620
X50800Y7620
X63500Y5080
X60960Y5080
X58420Y5080
X55880Y5080
X63500Y7620
X60960Y7620
X58420Y7620
X20320Y7620
X76200Y38100
X81280Y38100
X43180Y69850
X48260Y69850
X50800Y5080
X53340Y5080
X48260Y7620
X48260Y5080
X45720Y7620
X43180Y7620
X40640Y7620
X38100Y7620
X35560Y7620
X33020Y7620
X45720Y5080
X43180Y5080
X40640Y5080
X38100Y5080
X35560Y5080
X33020Y5080
X30480Y7620
X30480Y5080
X27940Y7620
X25400Y7620
X22860Y7620
X22860Y5080
X27940Y5080
X25400Y5080
X45720Y69850
X73660Y66040
X20320Y5080
T7
X27940Y58420
X25400Y58420
X22860Y58420
X54610Y16510
X58420Y13970
X20320Y13970
X38100Y69850
X35560Y69850
X58420Y16510
X60960Y13970
X60960Y16510
X52070Y13970
X52070Y16510
X54610Y13970
X17780Y13970
T8
X78740Y20320
X76200Y20320
X73660Y20320
X71120Y20320
X68580Y20320
X71120Y54610
X69850Y56515
X68580Y54610
X64770Y57150
X64770Y49530
X72390Y5080
X43205Y63500
X48235Y63500
X45720Y66040
X68580Y60960
X66040Y60960
X77470Y59690
X80010Y59690
X80010Y67310
X77470Y67310
X82550Y59690
X85090Y59690
X82550Y67310
X85090Y67310
X80010Y69850
X77470Y69850
X73660Y63500
X73660Y60960
X83820Y69850
X86360Y69850
X88900Y59690
X88900Y67310
X88900Y57150
X88900Y54610
X72390Y7620
X90170Y5080
X90170Y7620
X54610Y22860
X62230Y22860
X59690Y26670
X57150Y26670
X54610Y38100
X54610Y35560
X62230Y35560
X62230Y38100
X54610Y33020
X54610Y30480
X62230Y33020
X62230Y30480
X57150Y48260
X57150Y45720
X54610Y41910
X54610Y49530
X60960Y45720
X60960Y48260
X60960Y41910
X58420Y41910
X48260Y16510
X40640Y16510
X45720Y13970
X43180Y13970
X5080Y57150
X7620Y57150
X54610Y53340
X62230Y53340
X82550Y55880
X16510Y57150
X19050Y57150
X85090Y55880
X83795Y6350
X78765Y6350
X81280Y3810
X68580Y67310
X68580Y69850
X64770Y30480
X64770Y22860
X55880Y67310
X55880Y69850
X2540Y20320
X5080Y20320
X17780Y20320
X20320Y20320
X7620Y20320
X10160Y20320
X15240Y20320
X12700Y20320
X22860Y20320
X25400Y20320
X27940Y20320
X30480Y20320
X33020Y20320
X35560Y20320
X38100Y20320
X40640Y20320
X43180Y20320
X45720Y20320
X48260Y20320
X50800Y20320
X50800Y35560
X48260Y35560
X45720Y35560
X43180Y35560
X40640Y35560
X38100Y35560
X35560Y35560
X33020Y35560
X30480Y35560
X27940Y35560
X25400Y35560
X22860Y35560
X20320Y35560
X17780Y35560
X15240Y35560
X12700Y35560
X10160Y35560
X7620Y35560
X5080Y35560
X2540Y35560
X10033Y8890
X5207Y8890
X3810Y3810
X6350Y3810
X10160Y3810
X12700Y3810
X11430Y12700
X3810Y12700
X6350Y15240
X13970Y15240
X2540Y43180
X5080Y43180
X2540Y39370
X7620Y39370
X12700Y39370
X15240Y39370
X27940Y39370
X30480Y39370
X17780Y39370
X20320Y39370
X25400Y39370
X22860Y39370
X33020Y39370
X35560Y39370
X38100Y39370
X40640Y39370
X43180Y39370
X45720Y39370
X48260Y39370
X50800Y39370
X50800Y54610
X48260Y54610
X45720Y54610
X43180Y54610
X40640Y54610
X38100Y54610
X35560Y54610
X33020Y54610
X30480Y54610
X27940Y54610
X25400Y54610
X22860Y54610
X20320Y54610
X17780Y54610
X15240Y54610
X12700Y54610
X2540Y50800
X3810Y52705
X5080Y50800
X7620Y46990
X5080Y46990
X66040Y19050
X66040Y16510
X68580Y12700
X71120Y12700
X73660Y12700
X76200Y12700
X78740Y12700
X81280Y12700
X83820Y12700
X86360Y12700
X88900Y12700
X91440Y12700
X91440Y20320
X88900Y20320
X86360Y20320
X83820Y20320
X81280Y20320
T9
X65087Y10478
X51117Y25717
X54610Y26987
X50482Y16828
X70168Y17463
X64452Y55562
X39370Y18733
X78740Y15240
X37783Y23812
X33338Y24765
X46990Y45402
X72390Y45085
X60960Y12065
X73978Y3492
X34608Y25717
X56197Y3492
X64452Y43498
X69850Y27622
X46037Y27940
X79693Y39053
X60642Y10160
X83820Y32385
X36830Y12700
X58420Y25717
X80010Y26035
X52070Y30797
X18415Y48577
X77470Y26987
X57150Y38735
X55880Y39688
X26035Y12700
X82550Y22860
X52705Y22860
M30