G04 EAGLE Gerber RS-274X export*
G75*
%MOMM*%
%FSLAX34Y34*%
%LPD*%
%INSilkscreen Bottom*%
%IPPOS*%
%AMOC8*
5,1,8,0,0,1.08239X$1,22.5*%
G01*
%ADD10C,0.101600*%
%ADD11C,0.152400*%
%ADD12C,0.127000*%


D10*
X418592Y263144D02*
X411982Y263144D01*
X409779Y265347D01*
X411982Y267550D01*
X416389Y267550D01*
X418592Y269754D01*
X416389Y271957D01*
X409779Y271957D01*
X405495Y276363D02*
X405495Y263144D01*
X398885Y263144D01*
X396682Y265347D01*
X396682Y269754D01*
X398885Y271957D01*
X405495Y271957D01*
X392398Y271957D02*
X383585Y263144D01*
X392398Y263144D02*
X383585Y271957D01*
X379300Y269754D02*
X370487Y269754D01*
X357390Y276363D02*
X357390Y263144D01*
X364000Y263144D01*
X366203Y265347D01*
X366203Y269754D01*
X364000Y271957D01*
X357390Y271957D01*
X353106Y271957D02*
X350903Y271957D01*
X350903Y263144D01*
X353106Y263144D02*
X348699Y263144D01*
X350903Y276363D02*
X350903Y278567D01*
X339968Y258738D02*
X337765Y258738D01*
X335561Y260941D01*
X335561Y271957D01*
X342171Y271957D01*
X344374Y269754D01*
X344374Y265347D01*
X342171Y263144D01*
X335561Y263144D01*
X331277Y271957D02*
X329074Y271957D01*
X329074Y263144D01*
X331277Y263144D02*
X326871Y263144D01*
X329074Y276363D02*
X329074Y278567D01*
X320342Y274160D02*
X320342Y265347D01*
X318139Y263144D01*
X318139Y271957D02*
X322546Y271957D01*
X311611Y271957D02*
X307204Y271957D01*
X305001Y269754D01*
X305001Y263144D01*
X311611Y263144D01*
X313814Y265347D01*
X311611Y267550D01*
X305001Y267550D01*
X300717Y276363D02*
X298514Y276363D01*
X298514Y263144D01*
X300717Y263144D02*
X296310Y263144D01*
X291985Y263144D02*
X291985Y276363D01*
X291985Y267550D02*
X285376Y263144D01*
X291985Y267550D02*
X285376Y271957D01*
X278868Y263144D02*
X274461Y263144D01*
X278868Y263144D02*
X281071Y265347D01*
X281071Y269754D01*
X278868Y271957D01*
X274461Y271957D01*
X272258Y269754D01*
X272258Y267550D01*
X281071Y267550D01*
X267974Y263144D02*
X267974Y271957D01*
X267974Y267550D02*
X263567Y271957D01*
X261364Y271957D01*
X257059Y269754D02*
X248246Y269754D01*
X243962Y274160D02*
X243962Y265347D01*
X243962Y274160D02*
X241759Y276363D01*
X237352Y276363D01*
X235149Y274160D01*
X235149Y265347D01*
X237352Y263144D01*
X241759Y263144D01*
X243962Y265347D01*
X235149Y274160D01*
X230865Y265347D02*
X230865Y263144D01*
X230865Y265347D02*
X228662Y265347D01*
X228662Y263144D01*
X230865Y263144D01*
X224316Y271957D02*
X219910Y276363D01*
X219910Y263144D01*
X224316Y263144D02*
X215503Y263144D01*
X211219Y265347D02*
X211219Y274160D01*
X209016Y276363D01*
X204609Y276363D01*
X202406Y274160D01*
X202406Y265347D01*
X204609Y263144D01*
X209016Y263144D01*
X211219Y265347D01*
X202406Y274160D01*
X418592Y250621D02*
X418592Y244011D01*
X416389Y241808D01*
X414186Y244011D01*
X411982Y241808D01*
X409779Y244011D01*
X409779Y250621D01*
X405495Y250621D02*
X405495Y244011D01*
X403292Y241808D01*
X401088Y244011D01*
X398885Y241808D01*
X396682Y244011D01*
X396682Y250621D01*
X392398Y250621D02*
X392398Y244011D01*
X390194Y241808D01*
X387991Y244011D01*
X385788Y241808D01*
X383585Y244011D01*
X383585Y250621D01*
X379300Y244011D02*
X379300Y241808D01*
X379300Y244011D02*
X377097Y244011D01*
X377097Y241808D01*
X379300Y241808D01*
X372752Y241808D02*
X366142Y241808D01*
X363939Y244011D01*
X366142Y246214D01*
X370548Y246214D01*
X372752Y248418D01*
X370548Y250621D01*
X363939Y250621D01*
X359654Y250621D02*
X359654Y241808D01*
X359654Y250621D02*
X357451Y250621D01*
X355248Y248418D01*
X355248Y241808D01*
X355248Y248418D02*
X353045Y250621D01*
X350842Y248418D01*
X350842Y241808D01*
X346557Y241808D02*
X346557Y255027D01*
X346557Y241808D02*
X339948Y241808D01*
X337744Y244011D01*
X337744Y248418D01*
X339948Y250621D01*
X346557Y250621D01*
X331257Y250621D02*
X326850Y250621D01*
X324647Y248418D01*
X324647Y241808D01*
X331257Y241808D01*
X333460Y244011D01*
X331257Y246214D01*
X324647Y246214D01*
X320363Y241808D02*
X320363Y255027D01*
X320363Y246214D02*
X313753Y241808D01*
X320363Y246214D02*
X313753Y250621D01*
X307245Y241808D02*
X302839Y241808D01*
X307245Y241808D02*
X309448Y244011D01*
X309448Y248418D01*
X307245Y250621D01*
X302839Y250621D01*
X300635Y248418D01*
X300635Y246214D01*
X309448Y246214D01*
X296351Y241808D02*
X296351Y250621D01*
X291945Y250621D02*
X296351Y246214D01*
X291945Y250621D02*
X289741Y250621D01*
X285437Y244011D02*
X285437Y241808D01*
X285437Y244011D02*
X283233Y244011D01*
X283233Y241808D01*
X285437Y241808D01*
X276685Y250621D02*
X270075Y250621D01*
X276685Y250621D02*
X278888Y248418D01*
X278888Y244011D01*
X276685Y241808D01*
X270075Y241808D01*
X263588Y241808D02*
X259181Y241808D01*
X256978Y244011D01*
X256978Y248418D01*
X259181Y250621D01*
X263588Y250621D01*
X265791Y248418D01*
X265791Y244011D01*
X263588Y241808D01*
X252694Y241808D02*
X252694Y250621D01*
X250490Y250621D01*
X248287Y248418D01*
X248287Y241808D01*
X248287Y248418D02*
X246084Y250621D01*
X243881Y248418D01*
X243881Y241808D01*
D11*
X472440Y582930D02*
X472440Y610870D01*
X490220Y613410D02*
X490320Y613408D01*
X490419Y613402D01*
X490519Y613392D01*
X490617Y613379D01*
X490716Y613361D01*
X490813Y613340D01*
X490909Y613315D01*
X491005Y613286D01*
X491099Y613253D01*
X491192Y613217D01*
X491283Y613177D01*
X491373Y613133D01*
X491461Y613086D01*
X491547Y613036D01*
X491631Y612982D01*
X491713Y612925D01*
X491792Y612865D01*
X491870Y612801D01*
X491944Y612735D01*
X492016Y612666D01*
X492085Y612594D01*
X492151Y612520D01*
X492215Y612442D01*
X492275Y612363D01*
X492332Y612281D01*
X492386Y612197D01*
X492436Y612111D01*
X492483Y612023D01*
X492527Y611933D01*
X492567Y611842D01*
X492603Y611749D01*
X492636Y611655D01*
X492665Y611559D01*
X492690Y611463D01*
X492711Y611366D01*
X492729Y611267D01*
X492742Y611169D01*
X492752Y611069D01*
X492758Y610970D01*
X492760Y610870D01*
X492760Y582930D02*
X492758Y582830D01*
X492752Y582731D01*
X492742Y582631D01*
X492729Y582533D01*
X492711Y582434D01*
X492690Y582337D01*
X492665Y582241D01*
X492636Y582145D01*
X492603Y582051D01*
X492567Y581958D01*
X492527Y581867D01*
X492483Y581777D01*
X492436Y581689D01*
X492386Y581603D01*
X492332Y581519D01*
X492275Y581437D01*
X492215Y581358D01*
X492151Y581280D01*
X492085Y581206D01*
X492016Y581134D01*
X491944Y581065D01*
X491870Y580999D01*
X491792Y580935D01*
X491713Y580875D01*
X491631Y580818D01*
X491547Y580764D01*
X491461Y580714D01*
X491373Y580667D01*
X491283Y580623D01*
X491192Y580583D01*
X491099Y580547D01*
X491005Y580514D01*
X490909Y580485D01*
X490813Y580460D01*
X490716Y580439D01*
X490617Y580421D01*
X490519Y580408D01*
X490419Y580398D01*
X490320Y580392D01*
X490220Y580390D01*
X474980Y580390D02*
X474880Y580392D01*
X474781Y580398D01*
X474681Y580408D01*
X474583Y580421D01*
X474484Y580439D01*
X474387Y580460D01*
X474291Y580485D01*
X474195Y580514D01*
X474101Y580547D01*
X474008Y580583D01*
X473917Y580623D01*
X473827Y580667D01*
X473739Y580714D01*
X473653Y580764D01*
X473569Y580818D01*
X473487Y580875D01*
X473408Y580935D01*
X473330Y580999D01*
X473256Y581065D01*
X473184Y581134D01*
X473115Y581206D01*
X473049Y581280D01*
X472985Y581358D01*
X472925Y581437D01*
X472868Y581519D01*
X472814Y581603D01*
X472764Y581689D01*
X472717Y581777D01*
X472673Y581867D01*
X472633Y581958D01*
X472597Y582051D01*
X472564Y582145D01*
X472535Y582241D01*
X472510Y582337D01*
X472489Y582434D01*
X472471Y582533D01*
X472458Y582631D01*
X472448Y582731D01*
X472442Y582830D01*
X472440Y582930D01*
X472440Y610870D02*
X472442Y610970D01*
X472448Y611069D01*
X472458Y611169D01*
X472471Y611267D01*
X472489Y611366D01*
X472510Y611463D01*
X472535Y611559D01*
X472564Y611655D01*
X472597Y611749D01*
X472633Y611842D01*
X472673Y611933D01*
X472717Y612023D01*
X472764Y612111D01*
X472814Y612197D01*
X472868Y612281D01*
X472925Y612363D01*
X472985Y612442D01*
X473049Y612520D01*
X473115Y612594D01*
X473184Y612666D01*
X473256Y612735D01*
X473330Y612801D01*
X473408Y612865D01*
X473487Y612925D01*
X473569Y612982D01*
X473653Y613036D01*
X473739Y613086D01*
X473827Y613133D01*
X473917Y613177D01*
X474008Y613217D01*
X474101Y613253D01*
X474195Y613286D01*
X474291Y613315D01*
X474387Y613340D01*
X474484Y613361D01*
X474583Y613379D01*
X474681Y613392D01*
X474781Y613402D01*
X474880Y613408D01*
X474980Y613410D01*
X490220Y613410D01*
X490220Y580390D02*
X474980Y580390D01*
X492760Y582930D02*
X492760Y610870D01*
D12*
X504198Y588652D02*
X506105Y586745D01*
X506105Y582932D01*
X504198Y581025D01*
X502292Y581025D01*
X500385Y582932D01*
X500385Y586745D01*
X498478Y588652D01*
X496572Y588652D01*
X494665Y586745D01*
X494665Y582932D01*
X496572Y581025D01*
X496572Y592719D02*
X494665Y594626D01*
X494665Y596532D01*
X496572Y598439D01*
X506105Y598439D01*
X506105Y600345D02*
X506105Y596532D01*
X502292Y604413D02*
X506105Y608226D01*
X494665Y608226D01*
X494665Y604413D02*
X494665Y612039D01*
D11*
X447040Y610870D02*
X447040Y582930D01*
X467360Y610870D02*
X467358Y610970D01*
X467352Y611069D01*
X467342Y611169D01*
X467329Y611267D01*
X467311Y611366D01*
X467290Y611463D01*
X467265Y611559D01*
X467236Y611655D01*
X467203Y611749D01*
X467167Y611842D01*
X467127Y611933D01*
X467083Y612023D01*
X467036Y612111D01*
X466986Y612197D01*
X466932Y612281D01*
X466875Y612363D01*
X466815Y612442D01*
X466751Y612520D01*
X466685Y612594D01*
X466616Y612666D01*
X466544Y612735D01*
X466470Y612801D01*
X466392Y612865D01*
X466313Y612925D01*
X466231Y612982D01*
X466147Y613036D01*
X466061Y613086D01*
X465973Y613133D01*
X465883Y613177D01*
X465792Y613217D01*
X465699Y613253D01*
X465605Y613286D01*
X465509Y613315D01*
X465413Y613340D01*
X465316Y613361D01*
X465217Y613379D01*
X465119Y613392D01*
X465019Y613402D01*
X464920Y613408D01*
X464820Y613410D01*
X467360Y582930D02*
X467358Y582830D01*
X467352Y582731D01*
X467342Y582631D01*
X467329Y582533D01*
X467311Y582434D01*
X467290Y582337D01*
X467265Y582241D01*
X467236Y582145D01*
X467203Y582051D01*
X467167Y581958D01*
X467127Y581867D01*
X467083Y581777D01*
X467036Y581689D01*
X466986Y581603D01*
X466932Y581519D01*
X466875Y581437D01*
X466815Y581358D01*
X466751Y581280D01*
X466685Y581206D01*
X466616Y581134D01*
X466544Y581065D01*
X466470Y580999D01*
X466392Y580935D01*
X466313Y580875D01*
X466231Y580818D01*
X466147Y580764D01*
X466061Y580714D01*
X465973Y580667D01*
X465883Y580623D01*
X465792Y580583D01*
X465699Y580547D01*
X465605Y580514D01*
X465509Y580485D01*
X465413Y580460D01*
X465316Y580439D01*
X465217Y580421D01*
X465119Y580408D01*
X465019Y580398D01*
X464920Y580392D01*
X464820Y580390D01*
X449580Y580390D02*
X449480Y580392D01*
X449381Y580398D01*
X449281Y580408D01*
X449183Y580421D01*
X449084Y580439D01*
X448987Y580460D01*
X448891Y580485D01*
X448795Y580514D01*
X448701Y580547D01*
X448608Y580583D01*
X448517Y580623D01*
X448427Y580667D01*
X448339Y580714D01*
X448253Y580764D01*
X448169Y580818D01*
X448087Y580875D01*
X448008Y580935D01*
X447930Y580999D01*
X447856Y581065D01*
X447784Y581134D01*
X447715Y581206D01*
X447649Y581280D01*
X447585Y581358D01*
X447525Y581437D01*
X447468Y581519D01*
X447414Y581603D01*
X447364Y581689D01*
X447317Y581777D01*
X447273Y581867D01*
X447233Y581958D01*
X447197Y582051D01*
X447164Y582145D01*
X447135Y582241D01*
X447110Y582337D01*
X447089Y582434D01*
X447071Y582533D01*
X447058Y582631D01*
X447048Y582731D01*
X447042Y582830D01*
X447040Y582930D01*
X447040Y610870D02*
X447042Y610970D01*
X447048Y611069D01*
X447058Y611169D01*
X447071Y611267D01*
X447089Y611366D01*
X447110Y611463D01*
X447135Y611559D01*
X447164Y611655D01*
X447197Y611749D01*
X447233Y611842D01*
X447273Y611933D01*
X447317Y612023D01*
X447364Y612111D01*
X447414Y612197D01*
X447468Y612281D01*
X447525Y612363D01*
X447585Y612442D01*
X447649Y612520D01*
X447715Y612594D01*
X447784Y612666D01*
X447856Y612735D01*
X447930Y612801D01*
X448008Y612865D01*
X448087Y612925D01*
X448169Y612982D01*
X448253Y613036D01*
X448339Y613086D01*
X448427Y613133D01*
X448517Y613177D01*
X448608Y613217D01*
X448701Y613253D01*
X448795Y613286D01*
X448891Y613315D01*
X448987Y613340D01*
X449084Y613361D01*
X449183Y613379D01*
X449281Y613392D01*
X449381Y613402D01*
X449480Y613408D01*
X449580Y613410D01*
X464820Y613410D01*
X464820Y580390D02*
X449580Y580390D01*
X467360Y582930D02*
X467360Y610870D01*
D12*
X442605Y586745D02*
X440698Y588652D01*
X442605Y586745D02*
X442605Y582932D01*
X440698Y581025D01*
X438792Y581025D01*
X436885Y582932D01*
X436885Y586745D01*
X434978Y588652D01*
X433072Y588652D01*
X431165Y586745D01*
X431165Y582932D01*
X433072Y581025D01*
X433072Y592719D02*
X431165Y594626D01*
X431165Y596532D01*
X433072Y598439D01*
X442605Y598439D01*
X442605Y600345D02*
X442605Y596532D01*
X431165Y604413D02*
X431165Y612039D01*
X431165Y604413D02*
X438792Y612039D01*
X440698Y612039D01*
X442605Y610133D01*
X442605Y606320D01*
X440698Y604413D01*
D11*
X167640Y255270D02*
X167640Y227330D01*
X187960Y255270D02*
X187958Y255370D01*
X187952Y255469D01*
X187942Y255569D01*
X187929Y255667D01*
X187911Y255766D01*
X187890Y255863D01*
X187865Y255959D01*
X187836Y256055D01*
X187803Y256149D01*
X187767Y256242D01*
X187727Y256333D01*
X187683Y256423D01*
X187636Y256511D01*
X187586Y256597D01*
X187532Y256681D01*
X187475Y256763D01*
X187415Y256842D01*
X187351Y256920D01*
X187285Y256994D01*
X187216Y257066D01*
X187144Y257135D01*
X187070Y257201D01*
X186992Y257265D01*
X186913Y257325D01*
X186831Y257382D01*
X186747Y257436D01*
X186661Y257486D01*
X186573Y257533D01*
X186483Y257577D01*
X186392Y257617D01*
X186299Y257653D01*
X186205Y257686D01*
X186109Y257715D01*
X186013Y257740D01*
X185916Y257761D01*
X185817Y257779D01*
X185719Y257792D01*
X185619Y257802D01*
X185520Y257808D01*
X185420Y257810D01*
X187960Y227330D02*
X187958Y227230D01*
X187952Y227131D01*
X187942Y227031D01*
X187929Y226933D01*
X187911Y226834D01*
X187890Y226737D01*
X187865Y226641D01*
X187836Y226545D01*
X187803Y226451D01*
X187767Y226358D01*
X187727Y226267D01*
X187683Y226177D01*
X187636Y226089D01*
X187586Y226003D01*
X187532Y225919D01*
X187475Y225837D01*
X187415Y225758D01*
X187351Y225680D01*
X187285Y225606D01*
X187216Y225534D01*
X187144Y225465D01*
X187070Y225399D01*
X186992Y225335D01*
X186913Y225275D01*
X186831Y225218D01*
X186747Y225164D01*
X186661Y225114D01*
X186573Y225067D01*
X186483Y225023D01*
X186392Y224983D01*
X186299Y224947D01*
X186205Y224914D01*
X186109Y224885D01*
X186013Y224860D01*
X185916Y224839D01*
X185817Y224821D01*
X185719Y224808D01*
X185619Y224798D01*
X185520Y224792D01*
X185420Y224790D01*
X170180Y224790D02*
X170080Y224792D01*
X169981Y224798D01*
X169881Y224808D01*
X169783Y224821D01*
X169684Y224839D01*
X169587Y224860D01*
X169491Y224885D01*
X169395Y224914D01*
X169301Y224947D01*
X169208Y224983D01*
X169117Y225023D01*
X169027Y225067D01*
X168939Y225114D01*
X168853Y225164D01*
X168769Y225218D01*
X168687Y225275D01*
X168608Y225335D01*
X168530Y225399D01*
X168456Y225465D01*
X168384Y225534D01*
X168315Y225606D01*
X168249Y225680D01*
X168185Y225758D01*
X168125Y225837D01*
X168068Y225919D01*
X168014Y226003D01*
X167964Y226089D01*
X167917Y226177D01*
X167873Y226267D01*
X167833Y226358D01*
X167797Y226451D01*
X167764Y226545D01*
X167735Y226641D01*
X167710Y226737D01*
X167689Y226834D01*
X167671Y226933D01*
X167658Y227031D01*
X167648Y227131D01*
X167642Y227230D01*
X167640Y227330D01*
X167640Y255270D02*
X167642Y255370D01*
X167648Y255469D01*
X167658Y255569D01*
X167671Y255667D01*
X167689Y255766D01*
X167710Y255863D01*
X167735Y255959D01*
X167764Y256055D01*
X167797Y256149D01*
X167833Y256242D01*
X167873Y256333D01*
X167917Y256423D01*
X167964Y256511D01*
X168014Y256597D01*
X168068Y256681D01*
X168125Y256763D01*
X168185Y256842D01*
X168249Y256920D01*
X168315Y256994D01*
X168384Y257066D01*
X168456Y257135D01*
X168530Y257201D01*
X168608Y257265D01*
X168687Y257325D01*
X168769Y257382D01*
X168853Y257436D01*
X168939Y257486D01*
X169027Y257533D01*
X169117Y257577D01*
X169208Y257617D01*
X169301Y257653D01*
X169395Y257686D01*
X169491Y257715D01*
X169587Y257740D01*
X169684Y257761D01*
X169783Y257779D01*
X169881Y257792D01*
X169981Y257802D01*
X170080Y257808D01*
X170180Y257810D01*
X185420Y257810D01*
X185420Y224790D02*
X170180Y224790D01*
X187960Y227330D02*
X187960Y255270D01*
D12*
X199398Y233052D02*
X201305Y231145D01*
X201305Y227332D01*
X199398Y225425D01*
X197492Y225425D01*
X195585Y227332D01*
X195585Y231145D01*
X193678Y233052D01*
X191772Y233052D01*
X189865Y231145D01*
X189865Y227332D01*
X191772Y225425D01*
X191772Y237119D02*
X189865Y239026D01*
X189865Y240932D01*
X191772Y242839D01*
X201305Y242839D01*
X201305Y244745D02*
X201305Y240932D01*
X201305Y248813D02*
X201305Y256439D01*
X201305Y248813D02*
X195585Y248813D01*
X197492Y252626D01*
X197492Y254533D01*
X195585Y256439D01*
X191772Y256439D01*
X189865Y254533D01*
X189865Y250720D01*
X191772Y248813D01*
M02*
