M48
;GenerationSoftware,Autodesk,EAGLE,9.6.1*%
;CreationDate,2025-01-20T00:18:55Z*%
FMAT,2
ICI,OFF
METRIC,TZ,000.000
T8C0.610
T7C0.800
T6C0.813
T5C0.914
T4C1.016
T3C1.118
T2C3.302
T1C3.962
%
G90
M71
T1
X55880Y58420
T2
X38100Y65786
T3
X35560Y50800
X38100Y50800
X40640Y50800
T4
X48260Y6350
X50800Y3810
X53340Y3810
X55880Y3810
X58420Y3810
X45720Y6350
X63500Y3810
X50800Y6350
X53340Y6350
X63500Y6350
X60960Y3810
X74295Y33020
X76835Y33020
X79375Y33020
X81915Y33020
X84455Y33020
X90170Y68072
X90170Y65532
X90170Y62992
X90170Y60452
X76200Y43180
X66040Y43180
X73660Y43180
X71120Y43180
X25400Y3810
X68580Y43180
X90170Y57912
X48260Y3810
X63500Y43180
X55880Y6350
X58420Y6350
X60960Y6350
X27940Y34290
X75565Y36830
X78105Y36830
X80645Y36830
X83185Y36830
X20320Y3810
X22860Y3810
X27940Y3810
X20320Y6350
X22860Y6350
X25400Y6350
X27940Y6350
X30480Y3810
X30480Y6350
X33020Y3810
X35560Y3810
X38100Y3810
X40640Y3810
X43180Y3810
X45720Y3810
X33020Y6350
X35560Y6350
X38100Y6350
X40640Y6350
X43180Y6350
T5
X25400Y36830
X72390Y6350
X72390Y8890
X20320Y36830
X3810Y8890
X3810Y6350
X3810Y67310
X6350Y67310
X2540Y34290
X2540Y36830
X5080Y34290
X5080Y36830
X7620Y34290
X7620Y36830
X10160Y34290
X10160Y36830
X12700Y34290
X12700Y36830
X15240Y34290
X15240Y36830
X17780Y34290
X17780Y36830
X20320Y34290
X22860Y34290
X22860Y36830
X25400Y34290
T6
X38100Y13970
X10160Y13970
X7620Y13970
X5080Y13970
X11430Y3810
X11430Y6350
X88900Y5080
X78740Y21590
X86360Y21590
X87630Y26670
X80010Y26670
X78740Y17780
X86360Y17780
X17780Y59690
X17780Y57150
X17780Y44450
X17780Y41910
X17780Y54610
X63500Y13970
X17780Y52070
X17780Y46990
X17780Y49530
X25400Y41910
X25400Y44450
X25400Y46990
X25400Y49530
X25400Y52070
X25400Y54610
X25400Y57150
X25400Y59690
X10160Y62230
X7620Y62230
X2540Y29210
X2540Y26670
X58420Y13970
X60960Y13970
X81280Y5080
X66040Y13970
X68580Y13970
X71120Y13970
X73660Y13970
X73660Y29210
X71120Y29210
X68580Y29210
X66040Y29210
X63500Y29210
X60960Y29210
X58420Y29210
X55880Y29210
X53340Y29210
X50800Y29210
X48260Y29210
X45720Y29210
X48260Y13970
X50800Y13970
X53340Y13970
X55880Y13970
X13970Y40640
X45720Y13970
X13970Y43180
X13970Y45720
X13970Y48260
X13970Y50800
X81280Y12700
X88900Y12700
X43180Y26670
X43180Y29210
X13970Y53340
X10160Y59690
X10160Y57150
X10160Y54610
X10160Y52070
X10160Y49530
X10160Y46990
X10160Y44450
X10160Y41910
X2540Y49530
X38100Y45720
X35560Y45720
X41910Y45720
X44450Y45720
X2540Y46990
X2540Y52070
X2540Y54610
X2540Y41910
X2540Y44450
X2540Y57150
X2540Y59690
X5080Y29210
X7620Y29210
X10160Y29210
X12700Y29210
X15240Y29210
X17780Y29210
X20320Y29210
X22860Y29210
X25400Y29210
X27940Y29210
X30480Y29210
X33020Y29210
X35560Y29210
X38100Y29210
X35560Y13970
X33020Y13970
X30480Y13970
X27940Y13970
X25400Y13970
X22860Y13970
X20320Y13970
X17780Y13970
X15240Y13970
X12700Y13970
T7
X90170Y43180
X90170Y45187
X90170Y47168
X90170Y49174
T8
X24289Y21907
X52864Y10001
X39529Y15240
X20796Y10795
X48101Y10001
X40640Y12700
X6509Y5239
X35401Y10795
X49371Y10001
X58261Y20955
X50959Y17145
X30956Y9843
X57150Y30639
X37465Y9525
X30956Y17145
X47625Y20955
X5715Y41275
X21431Y54451
X45720Y44450
X8573Y45561
X60325Y40799
X56515Y43339
X60166Y38418
X83185Y48895
X49371Y32702
X75565Y39688
X24289Y25241
X19685Y17145
X17463Y18098
X40799Y25241
X60960Y7937
M30