G04 EAGLE Gerber RS-274X export*
G75*
%MOMM*%
%FSLAX34Y34*%
%LPD*%
%INTop Copper*%
%IPPOS*%
%AMOC8*
5,1,8,0,0,1.08239X$1,22.5*%
G01*
%ADD10P,1.429621X8X202.500000*%
%ADD11P,1.429621X8X292.500000*%
%ADD12C,1.320800*%
%ADD13P,1.732040X8X112.500000*%
%ADD14C,1.600200*%
%ADD15C,1.320800*%
%ADD16P,1.539592X8X22.500000*%
%ADD17C,1.422400*%
%ADD18C,1.524000*%
%ADD19R,1.308000X1.308000*%
%ADD20P,1.732040X8X22.500000*%
%ADD21P,1.732040X8X202.500000*%
%ADD22C,1.676400*%
%ADD23P,1.649562X8X202.500000*%
%ADD24P,1.429621X8X22.500000*%
%ADD25P,1.649562X8X22.500000*%
%ADD26C,0.508000*%
%ADD27C,1.016000*%
%ADD28C,0.254000*%


D10*
X101600Y622300D03*
X76200Y622300D03*
D11*
X25400Y292100D03*
X25400Y266700D03*
X431800Y292100D03*
X431800Y266700D03*
D12*
X889000Y127000D03*
X812800Y127000D03*
X812800Y50800D03*
X889000Y50800D03*
D13*
X114300Y63500D03*
D14*
X114300Y38100D03*
D15*
X50800Y133096D02*
X50800Y146304D01*
X76200Y146304D02*
X76200Y133096D01*
X101600Y133096D02*
X101600Y146304D01*
X127000Y146304D02*
X127000Y133096D01*
X152400Y133096D02*
X152400Y146304D01*
X177800Y146304D02*
X177800Y133096D01*
X203200Y133096D02*
X203200Y146304D01*
X228600Y146304D02*
X228600Y133096D01*
X254000Y133096D02*
X254000Y146304D01*
X279400Y146304D02*
X279400Y133096D01*
X304800Y133096D02*
X304800Y146304D01*
X330200Y146304D02*
X330200Y133096D01*
X355600Y133096D02*
X355600Y146304D01*
X381000Y146304D02*
X381000Y133096D01*
X381000Y285496D02*
X381000Y298704D01*
X355600Y298704D02*
X355600Y285496D01*
X330200Y285496D02*
X330200Y298704D01*
X304800Y298704D02*
X304800Y285496D01*
X279400Y285496D02*
X279400Y298704D01*
X254000Y298704D02*
X254000Y285496D01*
X228600Y285496D02*
X228600Y298704D01*
X203200Y298704D02*
X203200Y285496D01*
X177800Y285496D02*
X177800Y298704D01*
X152400Y298704D02*
X152400Y285496D01*
X127000Y285496D02*
X127000Y298704D01*
X101600Y298704D02*
X101600Y285496D01*
X76200Y285496D02*
X76200Y298704D01*
X50800Y298704D02*
X50800Y285496D01*
D16*
X25400Y342900D03*
X25400Y368300D03*
X50800Y342900D03*
X50800Y368300D03*
X76200Y342900D03*
X76200Y368300D03*
X101600Y342900D03*
X101600Y368300D03*
X127000Y342900D03*
X127000Y368300D03*
X152400Y342900D03*
X152400Y368300D03*
X177800Y342900D03*
X177800Y368300D03*
X203200Y342900D03*
X203200Y368300D03*
X228600Y342900D03*
X228600Y368300D03*
X254000Y342900D03*
X254000Y368300D03*
D15*
X32004Y596900D02*
X18796Y596900D01*
X18796Y571500D02*
X32004Y571500D01*
X32004Y444500D02*
X18796Y444500D01*
X18796Y419100D02*
X32004Y419100D01*
X32004Y546100D02*
X18796Y546100D01*
X18796Y520700D02*
X32004Y520700D01*
X32004Y469900D02*
X18796Y469900D01*
X18796Y495300D02*
X32004Y495300D01*
X94996Y419100D02*
X108204Y419100D01*
X108204Y444500D02*
X94996Y444500D01*
X94996Y469900D02*
X108204Y469900D01*
X108204Y495300D02*
X94996Y495300D01*
X94996Y520700D02*
X108204Y520700D01*
X108204Y546100D02*
X94996Y546100D01*
X94996Y571500D02*
X108204Y571500D01*
X108204Y596900D02*
X94996Y596900D01*
X133096Y533400D02*
X146304Y533400D01*
X146304Y508000D02*
X133096Y508000D01*
X133096Y482600D02*
X146304Y482600D01*
X146304Y457200D02*
X133096Y457200D01*
X133096Y431800D02*
X146304Y431800D01*
X146304Y406400D02*
X133096Y406400D01*
D17*
X716788Y63500D02*
X731012Y63500D01*
X731012Y88900D02*
X716788Y88900D01*
D15*
X457200Y133096D02*
X457200Y146304D01*
X482600Y146304D02*
X482600Y133096D01*
X508000Y133096D02*
X508000Y146304D01*
X533400Y146304D02*
X533400Y133096D01*
X558800Y133096D02*
X558800Y146304D01*
X584200Y146304D02*
X584200Y133096D01*
X609600Y133096D02*
X609600Y146304D01*
X635000Y146304D02*
X635000Y133096D01*
X660400Y133096D02*
X660400Y146304D01*
X685800Y146304D02*
X685800Y133096D01*
X711200Y133096D02*
X711200Y146304D01*
X736600Y146304D02*
X736600Y133096D01*
X736600Y285496D02*
X736600Y298704D01*
X711200Y298704D02*
X711200Y285496D01*
X685800Y285496D02*
X685800Y298704D01*
X660400Y298704D02*
X660400Y285496D01*
X635000Y285496D02*
X635000Y298704D01*
X609600Y298704D02*
X609600Y285496D01*
X584200Y285496D02*
X584200Y298704D01*
X558800Y298704D02*
X558800Y285496D01*
X533400Y285496D02*
X533400Y298704D01*
X508000Y298704D02*
X508000Y285496D01*
X482600Y285496D02*
X482600Y298704D01*
X457200Y298704D02*
X457200Y285496D01*
D17*
X45212Y88900D02*
X30988Y88900D01*
X30988Y63500D02*
X45212Y63500D01*
X38100Y665988D02*
X38100Y680212D01*
X63500Y680212D02*
X63500Y665988D01*
D18*
X635000Y439420D02*
X635000Y424180D01*
X660400Y424180D02*
X660400Y439420D01*
X685800Y439420D02*
X685800Y424180D01*
X711200Y424180D02*
X711200Y439420D01*
X736600Y439420D02*
X736600Y424180D01*
X762000Y424180D02*
X762000Y439420D01*
D19*
X901700Y431800D03*
X901700Y451866D03*
X901700Y471678D03*
X901700Y491744D03*
D18*
X909320Y579120D02*
X894080Y579120D01*
X894080Y604520D02*
X909320Y604520D01*
X909320Y629920D02*
X894080Y629920D01*
X894080Y655320D02*
X909320Y655320D01*
X909320Y680720D02*
X894080Y680720D01*
X844550Y337820D02*
X844550Y322580D01*
X819150Y322580D02*
X819150Y337820D01*
X793750Y337820D02*
X793750Y322580D01*
X768350Y322580D02*
X768350Y337820D01*
X742950Y337820D02*
X742950Y322580D01*
D20*
X381000Y457200D03*
D14*
X355600Y457200D03*
D21*
X419100Y457200D03*
D14*
X444500Y457200D03*
D22*
X355600Y499618D02*
X355600Y516382D01*
X381000Y516382D02*
X381000Y499618D01*
X406400Y499618D02*
X406400Y516382D01*
D23*
X635000Y63500D03*
X609600Y63500D03*
X584200Y63500D03*
X558800Y63500D03*
X533400Y63500D03*
X508000Y63500D03*
X635000Y38100D03*
X609600Y38100D03*
X584200Y38100D03*
X558800Y38100D03*
X533400Y38100D03*
X508000Y38100D03*
X482600Y63500D03*
X482600Y38100D03*
X457200Y63500D03*
X431800Y63500D03*
X406400Y63500D03*
X381000Y63500D03*
X355600Y63500D03*
X330200Y63500D03*
X457200Y38100D03*
X431800Y38100D03*
X406400Y38100D03*
X381000Y38100D03*
X355600Y38100D03*
X330200Y38100D03*
X304800Y63500D03*
X304800Y38100D03*
X279400Y63500D03*
X254000Y63500D03*
X228600Y63500D03*
X203200Y63500D03*
X279400Y38100D03*
X254000Y38100D03*
X228600Y38100D03*
X203200Y38100D03*
D24*
X787400Y215900D03*
X863600Y215900D03*
D15*
X869696Y266700D02*
X882904Y266700D01*
X806704Y266700D02*
X793496Y266700D01*
D24*
X787400Y177800D03*
X863600Y177800D03*
D15*
X184404Y596900D02*
X171196Y596900D01*
X171196Y571500D02*
X184404Y571500D01*
X184404Y444500D02*
X171196Y444500D01*
X171196Y419100D02*
X184404Y419100D01*
X184404Y546100D02*
X171196Y546100D01*
X171196Y520700D02*
X184404Y520700D01*
X184404Y469900D02*
X171196Y469900D01*
X171196Y495300D02*
X184404Y495300D01*
X247396Y419100D02*
X260604Y419100D01*
X260604Y444500D02*
X247396Y444500D01*
X247396Y469900D02*
X260604Y469900D01*
X260604Y495300D02*
X247396Y495300D01*
X247396Y520700D02*
X260604Y520700D01*
X260604Y546100D02*
X247396Y546100D01*
X247396Y571500D02*
X260604Y571500D01*
X260604Y596900D02*
X247396Y596900D01*
D18*
X831850Y375920D02*
X831850Y360680D01*
X806450Y360680D02*
X806450Y375920D01*
X781050Y375920D02*
X781050Y360680D01*
X755650Y360680D02*
X755650Y375920D01*
D25*
X279400Y342900D03*
D26*
X114300Y63500D02*
X38100Y63500D01*
X114300Y63500D02*
X203200Y63500D01*
X685800Y431800D02*
X706438Y411163D01*
X755650Y411163D02*
X841375Y411163D01*
X755650Y411163D02*
X706438Y411163D01*
X841375Y411163D02*
X901700Y471488D01*
X901700Y471678D01*
X422275Y266700D02*
X407988Y252413D01*
X422275Y266700D02*
X431800Y266700D01*
X798513Y350838D02*
X819150Y330200D01*
X798513Y350838D02*
X788988Y350838D01*
X785813Y347663D01*
X776288Y347663D01*
X755650Y368300D01*
X800100Y139700D02*
X812800Y127000D01*
X800100Y139700D02*
X736600Y139700D01*
X666750Y120650D02*
X655638Y109538D01*
X609600Y63500D01*
X666750Y120650D02*
X717550Y120650D01*
X736600Y139700D01*
X444500Y50800D02*
X431800Y63500D01*
X444500Y50800D02*
X461963Y50800D01*
X469900Y58738D01*
X469900Y88900D01*
X503238Y88900D01*
X525463Y111125D01*
X654050Y111125D01*
X655638Y109538D01*
X755650Y396875D02*
X755650Y411163D01*
X407988Y252413D02*
X242888Y252413D01*
D27*
X407988Y252413D03*
X755650Y396875D03*
X242888Y252413D03*
D28*
X189706Y178594D02*
X196850Y171450D01*
X189706Y178594D02*
X76200Y292100D01*
X635000Y182563D02*
X635000Y139700D01*
X635000Y182563D02*
X588963Y228600D01*
X239713Y228600D01*
X189706Y178594D01*
D27*
X196850Y171450D03*
D28*
X161925Y180975D02*
X50800Y292100D01*
X161925Y180975D02*
X174625Y180975D01*
X609600Y200025D02*
X609600Y139700D01*
X609600Y200025D02*
X604838Y200025D01*
X585788Y219075D01*
X242888Y219075D01*
D27*
X174625Y180975D03*
X242888Y219075D03*
D28*
X85725Y104775D02*
X50800Y139700D01*
X85725Y104775D02*
X190500Y104775D01*
X215900Y79375D01*
X263525Y79375D01*
X279400Y63500D01*
X561975Y161925D02*
X584200Y139700D01*
X561975Y161925D02*
X77788Y161925D01*
X53975Y138113D01*
X50800Y139700D01*
X76200Y139700D02*
X106363Y109538D01*
X193675Y109538D01*
X194469Y108744D02*
X219075Y84138D01*
X194469Y108744D02*
X193675Y109538D01*
X219075Y84138D02*
X284163Y84138D01*
X304800Y63500D01*
X536575Y117475D02*
X558800Y139700D01*
X536575Y117475D02*
X203200Y117475D01*
X194469Y108744D01*
X493713Y65088D02*
X528638Y100013D01*
X493713Y65088D02*
X493713Y26988D01*
X350838Y26988D01*
X341313Y36513D01*
X341313Y63500D01*
X330200Y63500D01*
D27*
X528638Y100013D03*
D28*
X195263Y157163D02*
X177800Y139700D01*
X395288Y157163D02*
X490538Y157163D01*
X395288Y157163D02*
X195263Y157163D01*
X490538Y157163D02*
X508000Y139700D01*
X395288Y152400D02*
X395288Y157163D01*
D27*
X395288Y152400D03*
D28*
X336550Y107950D02*
X207963Y107950D01*
X354806Y89694D02*
X381000Y63500D01*
X354806Y89694D02*
X336550Y107950D01*
X476250Y104775D02*
X481013Y100013D01*
X476250Y104775D02*
X369888Y104775D01*
X354806Y89694D01*
D27*
X207963Y107950D03*
X481013Y100013D03*
D28*
X246063Y122238D02*
X228600Y139700D01*
X406400Y122238D02*
X439738Y122238D01*
X406400Y122238D02*
X246063Y122238D01*
X439738Y122238D02*
X457200Y139700D01*
X406400Y127000D02*
X406400Y122238D01*
D27*
X406400Y127000D03*
D26*
X431800Y292100D02*
X457200Y292100D01*
X641350Y273050D02*
X660400Y292100D01*
X641350Y273050D02*
X476250Y273050D01*
X457200Y292100D01*
X101600Y596900D02*
X101600Y622300D01*
X265113Y585788D02*
X342900Y508000D01*
X265113Y585788D02*
X254000Y596900D01*
X342900Y508000D02*
X355600Y508000D01*
X355600Y457200D01*
X114300Y584200D02*
X101600Y596900D01*
X114300Y584200D02*
X263525Y584200D01*
X265113Y585788D01*
X44450Y311150D02*
X25400Y292100D01*
X44450Y311150D02*
X82550Y311150D01*
X101600Y292100D01*
X114300Y38100D02*
X203200Y38100D01*
X858838Y20638D02*
X889000Y50800D01*
X858838Y20638D02*
X627063Y20638D01*
X609600Y38100D01*
D28*
X92075Y25400D02*
X65088Y52388D01*
X92075Y25400D02*
X292100Y25400D01*
X304800Y38100D01*
D27*
X65088Y52388D03*
D28*
X120650Y336550D02*
X127000Y342900D01*
X120650Y336550D02*
X111125Y336550D01*
X92075Y317500D01*
X36513Y317500D01*
X14288Y295275D01*
X14288Y100013D01*
X171450Y100013D01*
X196850Y74613D01*
X258763Y74613D01*
X268288Y65088D01*
X268288Y38100D01*
X279400Y38100D01*
X354013Y107950D02*
X358775Y112713D01*
X481013Y112713D01*
X493713Y100013D01*
X544513Y171450D02*
X582613Y209550D01*
X544513Y171450D02*
X509588Y171450D01*
D27*
X354013Y107950D03*
X493713Y100013D03*
X582613Y209550D03*
X509588Y171450D03*
D28*
X333375Y74613D02*
X309563Y98425D01*
X333375Y74613D02*
X360363Y74613D01*
X369888Y65088D01*
X369888Y38100D01*
X381000Y38100D01*
D27*
X309563Y98425D03*
D28*
X228600Y292100D02*
X246063Y309563D01*
X568325Y309563D01*
X571500Y306388D01*
D27*
X571500Y306388D03*
D28*
X244475Y327025D02*
X228600Y342900D01*
X244475Y327025D02*
X493713Y327025D01*
D27*
X493713Y327025D03*
D28*
X374650Y95250D02*
X395288Y74613D01*
X446088Y74613D01*
X457200Y63500D01*
D27*
X374650Y95250D03*
D28*
X309563Y171450D02*
X347663Y209550D01*
X476250Y209550D01*
D27*
X309563Y171450D03*
X476250Y209550D03*
D28*
X177800Y342900D02*
X127000Y292100D01*
X177800Y342900D02*
X203200Y342900D01*
X63500Y406400D02*
X57150Y412750D01*
X63500Y406400D02*
X139700Y406400D01*
D27*
X57150Y412750D03*
D28*
X101600Y431800D02*
X101600Y444500D01*
X101600Y431800D02*
X101600Y419100D01*
X101600Y431800D02*
X139700Y431800D01*
X774700Y88900D02*
X812800Y50800D01*
X774700Y88900D02*
X723900Y88900D01*
X214313Y544513D02*
X198438Y560388D01*
X36513Y560388D01*
X25400Y571500D01*
D27*
X214313Y544513D03*
D28*
X101600Y469900D02*
X96838Y465138D01*
X82550Y465138D01*
X42863Y425450D01*
X42863Y398463D01*
X39688Y398463D01*
X14288Y373063D01*
X14288Y342900D01*
X25400Y342900D01*
X350838Y444500D02*
X457200Y444500D01*
X350838Y444500D02*
X260350Y534988D01*
X158750Y534988D01*
X147638Y546100D01*
X101600Y546100D01*
D27*
X457200Y444500D03*
D28*
X139700Y457200D02*
X138113Y455613D01*
X85725Y455613D01*
X234950Y407988D02*
X603250Y407988D01*
X234950Y407988D02*
X187325Y455613D01*
X139700Y455613D01*
X139700Y457200D01*
D27*
X85725Y455613D03*
X603250Y407988D03*
D28*
X565150Y433388D02*
X234950Y433388D01*
X185738Y482600D01*
X139700Y482600D01*
D27*
X565150Y433388D03*
D28*
X601663Y384175D02*
X66675Y384175D01*
X50800Y368300D01*
D27*
X601663Y384175D03*
D28*
X609600Y79375D02*
X595313Y65088D01*
X595313Y15875D01*
X15875Y15875D01*
X9525Y22225D01*
X9525Y331788D01*
X30163Y331788D01*
X36513Y338138D01*
X36513Y368300D01*
X25400Y368300D01*
D27*
X609600Y79375D03*
D28*
X685800Y139700D02*
X601663Y223838D01*
X601663Y242888D01*
X155575Y242888D01*
X115888Y282575D01*
X115888Y331788D01*
X131763Y331788D01*
X138113Y338138D01*
X138113Y357188D01*
X112713Y357188D01*
X101600Y368300D01*
X736600Y292100D02*
X755650Y311150D01*
X755650Y349250D01*
X288925Y349250D01*
X258763Y379413D01*
X138113Y379413D01*
X127000Y368300D01*
X609600Y317500D02*
X635000Y292100D01*
X609600Y317500D02*
X238125Y317500D01*
X214313Y341313D01*
X214313Y357188D01*
X188913Y357188D01*
X177800Y368300D01*
X152400Y368300D01*
X279400Y292100D02*
X296863Y274638D01*
X425450Y274638D01*
X428625Y277813D01*
X450850Y277813D01*
X481013Y247650D01*
X755650Y247650D01*
X787400Y215900D01*
X38100Y88900D02*
X19050Y69850D01*
X19050Y20638D01*
X541338Y20638D01*
X558800Y38100D01*
D26*
X711200Y431800D02*
X736600Y431800D01*
X901700Y491744D02*
X901700Y579120D01*
X795338Y490538D02*
X736600Y431800D01*
X831850Y490538D02*
X900113Y490538D01*
X831850Y490538D02*
X795338Y490538D01*
X900113Y490538D02*
X901700Y491744D01*
X446088Y455613D02*
X444500Y457200D01*
X446088Y455613D02*
X687388Y455613D01*
X711200Y431800D01*
X831850Y488950D02*
X831850Y490538D01*
D27*
X831850Y488950D03*
D28*
X901700Y431800D02*
X842963Y373063D01*
X842963Y349250D01*
X830263Y349250D02*
X825500Y349250D01*
X830263Y349250D02*
X842963Y349250D01*
X825500Y349250D02*
X806450Y368300D01*
X812800Y266700D02*
X813594Y265906D01*
X863600Y215900D01*
X812800Y266700D02*
X800100Y266700D01*
X830263Y266700D02*
X830263Y349250D01*
X830263Y266700D02*
X814388Y266700D01*
X813594Y265906D01*
X782638Y258763D02*
X863600Y177800D01*
X782638Y258763D02*
X782638Y330200D01*
X793750Y330200D01*
X838200Y387350D02*
X901700Y450850D01*
X838200Y387350D02*
X800100Y387350D01*
X799306Y386556D02*
X781050Y368300D01*
X799306Y386556D02*
X800100Y387350D01*
X901700Y450850D02*
X901700Y451866D01*
X704850Y387350D02*
X660400Y431800D01*
X704850Y387350D02*
X798513Y387350D01*
X799306Y386556D01*
X920750Y609600D02*
X901700Y628650D01*
X920750Y609600D02*
X920750Y452438D01*
X901700Y452438D01*
X901700Y628650D02*
X901700Y629920D01*
X901700Y452438D02*
X901700Y451866D01*
X419100Y457200D02*
X381000Y457200D01*
X381000Y508000D01*
X279400Y342900D02*
X285750Y336550D01*
X736600Y336550D01*
X742950Y330200D01*
M02*
