G04 EAGLE Gerber RS-274X export*
G75*
%MOMM*%
%FSLAX34Y34*%
%LPD*%
%INSoldermask Top*%
%IPPOS*%
%AMOC8*
5,1,8,0,0,1.08239X$1,22.5*%
G01*
%ADD10P,1.649562X8X202.500000*%
%ADD11P,1.649562X8X292.500000*%
%ADD12C,1.524000*%
%ADD13P,1.951982X8X112.500000*%
%ADD14C,1.803400*%
%ADD15C,1.524000*%
%ADD16P,1.759533X8X22.500000*%
%ADD17C,1.625600*%
%ADD18C,1.727200*%
%ADD19R,1.511200X1.511200*%
%ADD20P,1.951982X8X22.500000*%
%ADD21P,1.951982X8X202.500000*%
%ADD22C,1.879600*%
%ADD23C,3.505200*%
%ADD24C,4.165600*%
%ADD25P,1.869504X8X202.500000*%
%ADD26P,1.649562X8X22.500000*%
%ADD27P,1.869504X8X22.500000*%


D10*
X101600Y622300D03*
X76200Y622300D03*
D11*
X25400Y292100D03*
X25400Y266700D03*
X431800Y292100D03*
X431800Y266700D03*
D12*
X889000Y127000D03*
X812800Y127000D03*
X812800Y50800D03*
X889000Y50800D03*
D13*
X114300Y63500D03*
D14*
X114300Y38100D03*
D15*
X50800Y133096D02*
X50800Y146304D01*
X76200Y146304D02*
X76200Y133096D01*
X101600Y133096D02*
X101600Y146304D01*
X127000Y146304D02*
X127000Y133096D01*
X152400Y133096D02*
X152400Y146304D01*
X177800Y146304D02*
X177800Y133096D01*
X203200Y133096D02*
X203200Y146304D01*
X228600Y146304D02*
X228600Y133096D01*
X254000Y133096D02*
X254000Y146304D01*
X279400Y146304D02*
X279400Y133096D01*
X304800Y133096D02*
X304800Y146304D01*
X330200Y146304D02*
X330200Y133096D01*
X355600Y133096D02*
X355600Y146304D01*
X381000Y146304D02*
X381000Y133096D01*
X381000Y285496D02*
X381000Y298704D01*
X355600Y298704D02*
X355600Y285496D01*
X330200Y285496D02*
X330200Y298704D01*
X304800Y298704D02*
X304800Y285496D01*
X279400Y285496D02*
X279400Y298704D01*
X254000Y298704D02*
X254000Y285496D01*
X228600Y285496D02*
X228600Y298704D01*
X203200Y298704D02*
X203200Y285496D01*
X177800Y285496D02*
X177800Y298704D01*
X152400Y298704D02*
X152400Y285496D01*
X127000Y285496D02*
X127000Y298704D01*
X101600Y298704D02*
X101600Y285496D01*
X76200Y285496D02*
X76200Y298704D01*
X50800Y298704D02*
X50800Y285496D01*
D16*
X25400Y342900D03*
X25400Y368300D03*
X50800Y342900D03*
X50800Y368300D03*
X76200Y342900D03*
X76200Y368300D03*
X101600Y342900D03*
X101600Y368300D03*
X127000Y342900D03*
X127000Y368300D03*
X152400Y342900D03*
X152400Y368300D03*
X177800Y342900D03*
X177800Y368300D03*
X203200Y342900D03*
X203200Y368300D03*
X228600Y342900D03*
X228600Y368300D03*
X254000Y342900D03*
X254000Y368300D03*
D15*
X32004Y596900D02*
X18796Y596900D01*
X18796Y571500D02*
X32004Y571500D01*
X32004Y444500D02*
X18796Y444500D01*
X18796Y419100D02*
X32004Y419100D01*
X32004Y546100D02*
X18796Y546100D01*
X18796Y520700D02*
X32004Y520700D01*
X32004Y469900D02*
X18796Y469900D01*
X18796Y495300D02*
X32004Y495300D01*
X94996Y419100D02*
X108204Y419100D01*
X108204Y444500D02*
X94996Y444500D01*
X94996Y469900D02*
X108204Y469900D01*
X108204Y495300D02*
X94996Y495300D01*
X94996Y520700D02*
X108204Y520700D01*
X108204Y546100D02*
X94996Y546100D01*
X94996Y571500D02*
X108204Y571500D01*
X108204Y596900D02*
X94996Y596900D01*
X133096Y533400D02*
X146304Y533400D01*
X146304Y508000D02*
X133096Y508000D01*
X133096Y482600D02*
X146304Y482600D01*
X146304Y457200D02*
X133096Y457200D01*
X133096Y431800D02*
X146304Y431800D01*
X146304Y406400D02*
X133096Y406400D01*
D17*
X716788Y63500D02*
X731012Y63500D01*
X731012Y88900D02*
X716788Y88900D01*
D15*
X457200Y133096D02*
X457200Y146304D01*
X482600Y146304D02*
X482600Y133096D01*
X508000Y133096D02*
X508000Y146304D01*
X533400Y146304D02*
X533400Y133096D01*
X558800Y133096D02*
X558800Y146304D01*
X584200Y146304D02*
X584200Y133096D01*
X609600Y133096D02*
X609600Y146304D01*
X635000Y146304D02*
X635000Y133096D01*
X660400Y133096D02*
X660400Y146304D01*
X685800Y146304D02*
X685800Y133096D01*
X711200Y133096D02*
X711200Y146304D01*
X736600Y146304D02*
X736600Y133096D01*
X736600Y285496D02*
X736600Y298704D01*
X711200Y298704D02*
X711200Y285496D01*
X685800Y285496D02*
X685800Y298704D01*
X660400Y298704D02*
X660400Y285496D01*
X635000Y285496D02*
X635000Y298704D01*
X609600Y298704D02*
X609600Y285496D01*
X584200Y285496D02*
X584200Y298704D01*
X558800Y298704D02*
X558800Y285496D01*
X533400Y285496D02*
X533400Y298704D01*
X508000Y298704D02*
X508000Y285496D01*
X482600Y285496D02*
X482600Y298704D01*
X457200Y298704D02*
X457200Y285496D01*
D17*
X45212Y88900D02*
X30988Y88900D01*
X30988Y63500D02*
X45212Y63500D01*
X38100Y665988D02*
X38100Y680212D01*
X63500Y680212D02*
X63500Y665988D01*
D18*
X635000Y439420D02*
X635000Y424180D01*
X660400Y424180D02*
X660400Y439420D01*
X685800Y439420D02*
X685800Y424180D01*
X711200Y424180D02*
X711200Y439420D01*
X736600Y439420D02*
X736600Y424180D01*
X762000Y424180D02*
X762000Y439420D01*
D19*
X901700Y431800D03*
X901700Y451866D03*
X901700Y471678D03*
X901700Y491744D03*
D18*
X909320Y579120D02*
X894080Y579120D01*
X894080Y604520D02*
X909320Y604520D01*
X909320Y629920D02*
X894080Y629920D01*
X894080Y655320D02*
X909320Y655320D01*
X909320Y680720D02*
X894080Y680720D01*
X844550Y337820D02*
X844550Y322580D01*
X819150Y322580D02*
X819150Y337820D01*
X793750Y337820D02*
X793750Y322580D01*
X768350Y322580D02*
X768350Y337820D01*
X742950Y337820D02*
X742950Y322580D01*
D20*
X381000Y457200D03*
D14*
X355600Y457200D03*
D21*
X419100Y457200D03*
D14*
X444500Y457200D03*
D22*
X355600Y499618D02*
X355600Y516382D01*
X381000Y516382D02*
X381000Y499618D01*
X406400Y499618D02*
X406400Y516382D01*
D23*
X381000Y657860D03*
D24*
X558800Y584200D03*
D25*
X635000Y63500D03*
X609600Y63500D03*
X584200Y63500D03*
X558800Y63500D03*
X533400Y63500D03*
X508000Y63500D03*
X635000Y38100D03*
X609600Y38100D03*
X584200Y38100D03*
X558800Y38100D03*
X533400Y38100D03*
X508000Y38100D03*
X482600Y63500D03*
X482600Y38100D03*
X457200Y63500D03*
X431800Y63500D03*
X406400Y63500D03*
X381000Y63500D03*
X355600Y63500D03*
X330200Y63500D03*
X457200Y38100D03*
X431800Y38100D03*
X406400Y38100D03*
X381000Y38100D03*
X355600Y38100D03*
X330200Y38100D03*
X304800Y63500D03*
X304800Y38100D03*
X279400Y63500D03*
X254000Y63500D03*
X228600Y63500D03*
X203200Y63500D03*
X279400Y38100D03*
X254000Y38100D03*
X228600Y38100D03*
X203200Y38100D03*
D26*
X787400Y215900D03*
X863600Y215900D03*
D15*
X869696Y266700D02*
X882904Y266700D01*
X806704Y266700D02*
X793496Y266700D01*
D26*
X787400Y177800D03*
X863600Y177800D03*
D15*
X184404Y596900D02*
X171196Y596900D01*
X171196Y571500D02*
X184404Y571500D01*
X184404Y444500D02*
X171196Y444500D01*
X171196Y419100D02*
X184404Y419100D01*
X184404Y546100D02*
X171196Y546100D01*
X171196Y520700D02*
X184404Y520700D01*
X184404Y469900D02*
X171196Y469900D01*
X171196Y495300D02*
X184404Y495300D01*
X247396Y419100D02*
X260604Y419100D01*
X260604Y444500D02*
X247396Y444500D01*
X247396Y469900D02*
X260604Y469900D01*
X260604Y495300D02*
X247396Y495300D01*
X247396Y520700D02*
X260604Y520700D01*
X260604Y546100D02*
X247396Y546100D01*
X247396Y571500D02*
X260604Y571500D01*
X260604Y596900D02*
X247396Y596900D01*
D18*
X831850Y375920D02*
X831850Y360680D01*
X806450Y360680D02*
X806450Y375920D01*
X781050Y375920D02*
X781050Y360680D01*
X755650Y360680D02*
X755650Y375920D01*
D27*
X279400Y342900D03*
M02*
