G04 EAGLE Gerber RS-274X export*
G75*
%MOMM*%
%FSLAX34Y34*%
%LPD*%
%INSilkscreen Top*%
%IPPOS*%
%AMOC8*
5,1,8,0,0,1.08239X$1,22.5*%
G01*
%ADD10C,0.101600*%
%ADD11C,0.152400*%
%ADD12C,0.254000*%
%ADD13C,0.304800*%
%ADD14C,0.127000*%
%ADD15C,0.177800*%
%ADD16C,0.050800*%
%ADD17R,0.762000X0.635000*%
%ADD18R,1.270000X2.794000*%
%ADD19R,2.540000X2.540000*%
%ADD20R,0.381000X0.508000*%
%ADD21R,0.508000X2.032000*%
%ADD22R,0.635000X0.508000*%


D10*
X478204Y697323D02*
X476255Y699272D01*
X472357Y699272D01*
X470408Y697323D01*
X470408Y695374D01*
X472357Y693425D01*
X476255Y693425D01*
X478204Y691476D01*
X478204Y689527D01*
X476255Y687578D01*
X472357Y687578D01*
X470408Y689527D01*
X482102Y687578D02*
X482102Y699272D01*
X487949Y699272D01*
X489898Y697323D01*
X489898Y695374D01*
X487949Y693425D01*
X489898Y691476D01*
X489898Y689527D01*
X487949Y687578D01*
X482102Y687578D01*
X482102Y693425D02*
X487949Y693425D01*
X493796Y699272D02*
X501592Y687578D01*
X493796Y687578D02*
X501592Y699272D01*
X505490Y693425D02*
X513286Y693425D01*
X523031Y699272D02*
X524980Y697323D01*
X523031Y699272D02*
X519133Y699272D01*
X517184Y697323D01*
X517184Y689527D01*
X519133Y687578D01*
X523031Y687578D01*
X524980Y689527D01*
X524980Y693425D01*
X521082Y693425D01*
X528878Y687578D02*
X528878Y699272D01*
X534725Y699272D01*
X536674Y697323D01*
X536674Y693425D01*
X534725Y691476D01*
X528878Y691476D01*
X546419Y699272D02*
X548368Y697323D01*
X546419Y699272D02*
X542521Y699272D01*
X540572Y697323D01*
X540572Y695374D01*
X542521Y693425D01*
X546419Y693425D01*
X548368Y691476D01*
X548368Y689527D01*
X546419Y687578D01*
X542521Y687578D01*
X540572Y689527D01*
X563960Y695374D02*
X567858Y687578D01*
X571756Y695374D01*
X587348Y697323D02*
X587348Y689527D01*
X587348Y697323D02*
X589297Y699272D01*
X593195Y699272D01*
X595144Y697323D01*
X595144Y689527D01*
X593195Y687578D01*
X589297Y687578D01*
X587348Y689527D01*
X595144Y697323D01*
X599042Y689527D02*
X599042Y687578D01*
X599042Y689527D02*
X600991Y689527D01*
X600991Y687578D01*
X599042Y687578D01*
X610736Y687578D02*
X610736Y699272D01*
X604889Y693425D01*
X612685Y693425D01*
X470408Y676324D02*
X470408Y670477D01*
X472357Y668528D01*
X474306Y670477D01*
X476255Y668528D01*
X478204Y670477D01*
X478204Y676324D01*
X482102Y676324D02*
X482102Y670477D01*
X484051Y668528D01*
X486000Y670477D01*
X487949Y668528D01*
X489898Y670477D01*
X489898Y676324D01*
X493796Y676324D02*
X493796Y670477D01*
X495745Y668528D01*
X497694Y670477D01*
X499643Y668528D01*
X501592Y670477D01*
X501592Y676324D01*
X505490Y670477D02*
X505490Y668528D01*
X505490Y670477D02*
X507439Y670477D01*
X507439Y668528D01*
X505490Y668528D01*
X511337Y668528D02*
X517184Y668528D01*
X519133Y670477D01*
X517184Y672426D01*
X513286Y672426D01*
X511337Y674375D01*
X513286Y676324D01*
X519133Y676324D01*
X523031Y676324D02*
X523031Y668528D01*
X523031Y676324D02*
X524980Y676324D01*
X526929Y674375D01*
X526929Y668528D01*
X526929Y674375D02*
X528878Y676324D01*
X530827Y674375D01*
X530827Y668528D01*
X534725Y668528D02*
X534725Y680222D01*
X534725Y668528D02*
X540572Y668528D01*
X542521Y670477D01*
X542521Y674375D01*
X540572Y676324D01*
X534725Y676324D01*
X548368Y676324D02*
X552266Y676324D01*
X554215Y674375D01*
X554215Y668528D01*
X548368Y668528D01*
X546419Y670477D01*
X548368Y672426D01*
X554215Y672426D01*
X558113Y668528D02*
X558113Y680222D01*
X558113Y672426D02*
X563960Y668528D01*
X558113Y672426D02*
X563960Y676324D01*
X569807Y668528D02*
X573705Y668528D01*
X569807Y668528D02*
X567858Y670477D01*
X567858Y674375D01*
X569807Y676324D01*
X573705Y676324D01*
X575654Y674375D01*
X575654Y672426D01*
X567858Y672426D01*
X579552Y668528D02*
X579552Y676324D01*
X579552Y672426D02*
X583450Y676324D01*
X585399Y676324D01*
X589297Y670477D02*
X589297Y668528D01*
X589297Y670477D02*
X591246Y670477D01*
X591246Y668528D01*
X589297Y668528D01*
X597093Y676324D02*
X602940Y676324D01*
X597093Y676324D02*
X595144Y674375D01*
X595144Y670477D01*
X597093Y668528D01*
X602940Y668528D01*
X608787Y668528D02*
X612685Y668528D01*
X614634Y670477D01*
X614634Y674375D01*
X612685Y676324D01*
X608787Y676324D01*
X606838Y674375D01*
X606838Y670477D01*
X608787Y668528D01*
X618532Y668528D02*
X618532Y676324D01*
X620481Y676324D01*
X622430Y674375D01*
X622430Y668528D01*
X622430Y674375D02*
X624379Y676324D01*
X626328Y674375D01*
X626328Y668528D01*
D11*
X660400Y355600D02*
X927100Y355600D01*
X927100Y723900D01*
X660400Y723900D01*
X660400Y355600D01*
X110490Y609600D02*
X67310Y609600D01*
X67310Y635000D02*
X110490Y635000D01*
X64770Y632460D02*
X64770Y612140D01*
X113030Y612140D02*
X113030Y632460D01*
X67310Y609600D02*
X67210Y609602D01*
X67111Y609608D01*
X67011Y609618D01*
X66913Y609631D01*
X66814Y609649D01*
X66717Y609670D01*
X66621Y609695D01*
X66525Y609724D01*
X66431Y609757D01*
X66338Y609793D01*
X66247Y609833D01*
X66157Y609877D01*
X66069Y609924D01*
X65983Y609974D01*
X65899Y610028D01*
X65817Y610085D01*
X65738Y610145D01*
X65660Y610209D01*
X65586Y610275D01*
X65514Y610344D01*
X65445Y610416D01*
X65379Y610490D01*
X65315Y610568D01*
X65255Y610647D01*
X65198Y610729D01*
X65144Y610813D01*
X65094Y610899D01*
X65047Y610987D01*
X65003Y611077D01*
X64963Y611168D01*
X64927Y611261D01*
X64894Y611355D01*
X64865Y611451D01*
X64840Y611547D01*
X64819Y611644D01*
X64801Y611743D01*
X64788Y611841D01*
X64778Y611941D01*
X64772Y612040D01*
X64770Y612140D01*
X110490Y609600D02*
X110590Y609602D01*
X110689Y609608D01*
X110789Y609618D01*
X110887Y609631D01*
X110986Y609649D01*
X111083Y609670D01*
X111179Y609695D01*
X111275Y609724D01*
X111369Y609757D01*
X111462Y609793D01*
X111553Y609833D01*
X111643Y609877D01*
X111731Y609924D01*
X111817Y609974D01*
X111901Y610028D01*
X111983Y610085D01*
X112062Y610145D01*
X112140Y610209D01*
X112214Y610275D01*
X112286Y610344D01*
X112355Y610416D01*
X112421Y610490D01*
X112485Y610568D01*
X112545Y610647D01*
X112602Y610729D01*
X112656Y610813D01*
X112706Y610899D01*
X112753Y610987D01*
X112797Y611077D01*
X112837Y611168D01*
X112873Y611261D01*
X112906Y611355D01*
X112935Y611451D01*
X112960Y611547D01*
X112981Y611644D01*
X112999Y611743D01*
X113012Y611841D01*
X113022Y611941D01*
X113028Y612040D01*
X113030Y612140D01*
X67310Y635000D02*
X67210Y634998D01*
X67111Y634992D01*
X67011Y634982D01*
X66913Y634969D01*
X66814Y634951D01*
X66717Y634930D01*
X66621Y634905D01*
X66525Y634876D01*
X66431Y634843D01*
X66338Y634807D01*
X66247Y634767D01*
X66157Y634723D01*
X66069Y634676D01*
X65983Y634626D01*
X65899Y634572D01*
X65817Y634515D01*
X65738Y634455D01*
X65660Y634391D01*
X65586Y634325D01*
X65514Y634256D01*
X65445Y634184D01*
X65379Y634110D01*
X65315Y634032D01*
X65255Y633953D01*
X65198Y633871D01*
X65144Y633787D01*
X65094Y633701D01*
X65047Y633613D01*
X65003Y633523D01*
X64963Y633432D01*
X64927Y633339D01*
X64894Y633245D01*
X64865Y633149D01*
X64840Y633053D01*
X64819Y632956D01*
X64801Y632857D01*
X64788Y632759D01*
X64778Y632659D01*
X64772Y632560D01*
X64770Y632460D01*
X110490Y635000D02*
X110590Y634998D01*
X110689Y634992D01*
X110789Y634982D01*
X110887Y634969D01*
X110986Y634951D01*
X111083Y634930D01*
X111179Y634905D01*
X111275Y634876D01*
X111369Y634843D01*
X111462Y634807D01*
X111553Y634767D01*
X111643Y634723D01*
X111731Y634676D01*
X111817Y634626D01*
X111901Y634572D01*
X111983Y634515D01*
X112062Y634455D01*
X112140Y634391D01*
X112214Y634325D01*
X112286Y634256D01*
X112355Y634184D01*
X112421Y634110D01*
X112485Y634032D01*
X112545Y633953D01*
X112602Y633871D01*
X112656Y633787D01*
X112706Y633701D01*
X112753Y633613D01*
X112797Y633523D01*
X112837Y633432D01*
X112873Y633339D01*
X112906Y633245D01*
X112935Y633149D01*
X112960Y633053D01*
X112981Y632956D01*
X112999Y632857D01*
X113012Y632759D01*
X113022Y632659D01*
X113028Y632560D01*
X113030Y632460D01*
X86360Y622300D02*
X85090Y622300D01*
D12*
X86360Y622300D02*
X86360Y614680D01*
X86360Y622300D02*
X86360Y629920D01*
X91440Y622300D02*
X91440Y614680D01*
X91440Y622300D02*
X91440Y629920D01*
D11*
X91440Y622300D02*
X92710Y622300D01*
X38100Y300990D02*
X38100Y257810D01*
X12700Y257810D02*
X12700Y300990D01*
X15240Y255270D02*
X35560Y255270D01*
X35560Y303530D02*
X15240Y303530D01*
X38100Y257810D02*
X38098Y257710D01*
X38092Y257611D01*
X38082Y257511D01*
X38069Y257413D01*
X38051Y257314D01*
X38030Y257217D01*
X38005Y257121D01*
X37976Y257025D01*
X37943Y256931D01*
X37907Y256838D01*
X37867Y256747D01*
X37823Y256657D01*
X37776Y256569D01*
X37726Y256483D01*
X37672Y256399D01*
X37615Y256317D01*
X37555Y256238D01*
X37491Y256160D01*
X37425Y256086D01*
X37356Y256014D01*
X37284Y255945D01*
X37210Y255879D01*
X37132Y255815D01*
X37053Y255755D01*
X36971Y255698D01*
X36887Y255644D01*
X36801Y255594D01*
X36713Y255547D01*
X36623Y255503D01*
X36532Y255463D01*
X36439Y255427D01*
X36345Y255394D01*
X36249Y255365D01*
X36153Y255340D01*
X36056Y255319D01*
X35957Y255301D01*
X35859Y255288D01*
X35759Y255278D01*
X35660Y255272D01*
X35560Y255270D01*
X38100Y300990D02*
X38098Y301090D01*
X38092Y301189D01*
X38082Y301289D01*
X38069Y301387D01*
X38051Y301486D01*
X38030Y301583D01*
X38005Y301679D01*
X37976Y301775D01*
X37943Y301869D01*
X37907Y301962D01*
X37867Y302053D01*
X37823Y302143D01*
X37776Y302231D01*
X37726Y302317D01*
X37672Y302401D01*
X37615Y302483D01*
X37555Y302562D01*
X37491Y302640D01*
X37425Y302714D01*
X37356Y302786D01*
X37284Y302855D01*
X37210Y302921D01*
X37132Y302985D01*
X37053Y303045D01*
X36971Y303102D01*
X36887Y303156D01*
X36801Y303206D01*
X36713Y303253D01*
X36623Y303297D01*
X36532Y303337D01*
X36439Y303373D01*
X36345Y303406D01*
X36249Y303435D01*
X36153Y303460D01*
X36056Y303481D01*
X35957Y303499D01*
X35859Y303512D01*
X35759Y303522D01*
X35660Y303528D01*
X35560Y303530D01*
X12700Y257810D02*
X12702Y257710D01*
X12708Y257611D01*
X12718Y257511D01*
X12731Y257413D01*
X12749Y257314D01*
X12770Y257217D01*
X12795Y257121D01*
X12824Y257025D01*
X12857Y256931D01*
X12893Y256838D01*
X12933Y256747D01*
X12977Y256657D01*
X13024Y256569D01*
X13074Y256483D01*
X13128Y256399D01*
X13185Y256317D01*
X13245Y256238D01*
X13309Y256160D01*
X13375Y256086D01*
X13444Y256014D01*
X13516Y255945D01*
X13590Y255879D01*
X13668Y255815D01*
X13747Y255755D01*
X13829Y255698D01*
X13913Y255644D01*
X13999Y255594D01*
X14087Y255547D01*
X14177Y255503D01*
X14268Y255463D01*
X14361Y255427D01*
X14455Y255394D01*
X14551Y255365D01*
X14647Y255340D01*
X14744Y255319D01*
X14843Y255301D01*
X14941Y255288D01*
X15041Y255278D01*
X15140Y255272D01*
X15240Y255270D01*
X12700Y300990D02*
X12702Y301090D01*
X12708Y301189D01*
X12718Y301289D01*
X12731Y301387D01*
X12749Y301486D01*
X12770Y301583D01*
X12795Y301679D01*
X12824Y301775D01*
X12857Y301869D01*
X12893Y301962D01*
X12933Y302053D01*
X12977Y302143D01*
X13024Y302231D01*
X13074Y302317D01*
X13128Y302401D01*
X13185Y302483D01*
X13245Y302562D01*
X13309Y302640D01*
X13375Y302714D01*
X13444Y302786D01*
X13516Y302855D01*
X13590Y302921D01*
X13668Y302985D01*
X13747Y303045D01*
X13829Y303102D01*
X13913Y303156D01*
X13999Y303206D01*
X14087Y303253D01*
X14177Y303297D01*
X14268Y303337D01*
X14361Y303373D01*
X14455Y303406D01*
X14551Y303435D01*
X14647Y303460D01*
X14744Y303481D01*
X14843Y303499D01*
X14941Y303512D01*
X15041Y303522D01*
X15140Y303528D01*
X15240Y303530D01*
X25400Y276860D02*
X25400Y275590D01*
D12*
X25400Y276860D02*
X33020Y276860D01*
X25400Y276860D02*
X17780Y276860D01*
X25400Y281940D02*
X33020Y281940D01*
X25400Y281940D02*
X17780Y281940D01*
D11*
X25400Y281940D02*
X25400Y283210D01*
X444500Y300990D02*
X444500Y257810D01*
X419100Y257810D02*
X419100Y300990D01*
X421640Y255270D02*
X441960Y255270D01*
X441960Y303530D02*
X421640Y303530D01*
X444500Y257810D02*
X444498Y257710D01*
X444492Y257611D01*
X444482Y257511D01*
X444469Y257413D01*
X444451Y257314D01*
X444430Y257217D01*
X444405Y257121D01*
X444376Y257025D01*
X444343Y256931D01*
X444307Y256838D01*
X444267Y256747D01*
X444223Y256657D01*
X444176Y256569D01*
X444126Y256483D01*
X444072Y256399D01*
X444015Y256317D01*
X443955Y256238D01*
X443891Y256160D01*
X443825Y256086D01*
X443756Y256014D01*
X443684Y255945D01*
X443610Y255879D01*
X443532Y255815D01*
X443453Y255755D01*
X443371Y255698D01*
X443287Y255644D01*
X443201Y255594D01*
X443113Y255547D01*
X443023Y255503D01*
X442932Y255463D01*
X442839Y255427D01*
X442745Y255394D01*
X442649Y255365D01*
X442553Y255340D01*
X442456Y255319D01*
X442357Y255301D01*
X442259Y255288D01*
X442159Y255278D01*
X442060Y255272D01*
X441960Y255270D01*
X444500Y300990D02*
X444498Y301090D01*
X444492Y301189D01*
X444482Y301289D01*
X444469Y301387D01*
X444451Y301486D01*
X444430Y301583D01*
X444405Y301679D01*
X444376Y301775D01*
X444343Y301869D01*
X444307Y301962D01*
X444267Y302053D01*
X444223Y302143D01*
X444176Y302231D01*
X444126Y302317D01*
X444072Y302401D01*
X444015Y302483D01*
X443955Y302562D01*
X443891Y302640D01*
X443825Y302714D01*
X443756Y302786D01*
X443684Y302855D01*
X443610Y302921D01*
X443532Y302985D01*
X443453Y303045D01*
X443371Y303102D01*
X443287Y303156D01*
X443201Y303206D01*
X443113Y303253D01*
X443023Y303297D01*
X442932Y303337D01*
X442839Y303373D01*
X442745Y303406D01*
X442649Y303435D01*
X442553Y303460D01*
X442456Y303481D01*
X442357Y303499D01*
X442259Y303512D01*
X442159Y303522D01*
X442060Y303528D01*
X441960Y303530D01*
X419100Y257810D02*
X419102Y257710D01*
X419108Y257611D01*
X419118Y257511D01*
X419131Y257413D01*
X419149Y257314D01*
X419170Y257217D01*
X419195Y257121D01*
X419224Y257025D01*
X419257Y256931D01*
X419293Y256838D01*
X419333Y256747D01*
X419377Y256657D01*
X419424Y256569D01*
X419474Y256483D01*
X419528Y256399D01*
X419585Y256317D01*
X419645Y256238D01*
X419709Y256160D01*
X419775Y256086D01*
X419844Y256014D01*
X419916Y255945D01*
X419990Y255879D01*
X420068Y255815D01*
X420147Y255755D01*
X420229Y255698D01*
X420313Y255644D01*
X420399Y255594D01*
X420487Y255547D01*
X420577Y255503D01*
X420668Y255463D01*
X420761Y255427D01*
X420855Y255394D01*
X420951Y255365D01*
X421047Y255340D01*
X421144Y255319D01*
X421243Y255301D01*
X421341Y255288D01*
X421441Y255278D01*
X421540Y255272D01*
X421640Y255270D01*
X419100Y300990D02*
X419102Y301090D01*
X419108Y301189D01*
X419118Y301289D01*
X419131Y301387D01*
X419149Y301486D01*
X419170Y301583D01*
X419195Y301679D01*
X419224Y301775D01*
X419257Y301869D01*
X419293Y301962D01*
X419333Y302053D01*
X419377Y302143D01*
X419424Y302231D01*
X419474Y302317D01*
X419528Y302401D01*
X419585Y302483D01*
X419645Y302562D01*
X419709Y302640D01*
X419775Y302714D01*
X419844Y302786D01*
X419916Y302855D01*
X419990Y302921D01*
X420068Y302985D01*
X420147Y303045D01*
X420229Y303102D01*
X420313Y303156D01*
X420399Y303206D01*
X420487Y303253D01*
X420577Y303297D01*
X420668Y303337D01*
X420761Y303373D01*
X420855Y303406D01*
X420951Y303435D01*
X421047Y303460D01*
X421144Y303481D01*
X421243Y303499D01*
X421341Y303512D01*
X421441Y303522D01*
X421540Y303528D01*
X421640Y303530D01*
X431800Y276860D02*
X431800Y275590D01*
D12*
X431800Y276860D02*
X439420Y276860D01*
X431800Y276860D02*
X424180Y276860D01*
X431800Y281940D02*
X439420Y281940D01*
X431800Y281940D02*
X424180Y281940D01*
D11*
X431800Y281940D02*
X431800Y283210D01*
D12*
X797560Y154940D02*
X916940Y154940D01*
X784860Y142240D02*
X784860Y35560D01*
X797560Y22860D02*
X904240Y22860D01*
X916940Y35560D02*
X916940Y154940D01*
D11*
X904240Y148590D02*
X797560Y148590D01*
X791210Y142240D02*
X791210Y35560D01*
X797560Y29210D02*
X904240Y29210D01*
X910590Y35560D02*
X910590Y142240D01*
D12*
X797560Y154940D02*
X797253Y154936D01*
X796946Y154925D01*
X796640Y154907D01*
X796334Y154881D01*
X796029Y154847D01*
X795725Y154807D01*
X795422Y154759D01*
X795120Y154703D01*
X794820Y154641D01*
X794521Y154571D01*
X794224Y154494D01*
X793928Y154410D01*
X793635Y154318D01*
X793345Y154220D01*
X793057Y154115D01*
X792771Y154002D01*
X792488Y153883D01*
X792208Y153757D01*
X791931Y153625D01*
X791658Y153485D01*
X791388Y153339D01*
X791122Y153187D01*
X790859Y153028D01*
X790600Y152863D01*
X790346Y152692D01*
X790095Y152515D01*
X789849Y152331D01*
X789607Y152142D01*
X789371Y151947D01*
X789138Y151746D01*
X788911Y151540D01*
X788689Y151328D01*
X788472Y151111D01*
X788260Y150889D01*
X788054Y150662D01*
X787853Y150429D01*
X787658Y150193D01*
X787469Y149951D01*
X787285Y149705D01*
X787108Y149454D01*
X786937Y149200D01*
X786772Y148941D01*
X786613Y148678D01*
X786461Y148412D01*
X786315Y148142D01*
X786175Y147869D01*
X786043Y147592D01*
X785917Y147312D01*
X785798Y147029D01*
X785685Y146743D01*
X785580Y146455D01*
X785482Y146165D01*
X785390Y145872D01*
X785306Y145576D01*
X785229Y145279D01*
X785159Y144980D01*
X785097Y144680D01*
X785041Y144378D01*
X784993Y144075D01*
X784953Y143771D01*
X784919Y143466D01*
X784893Y143160D01*
X784875Y142854D01*
X784864Y142547D01*
X784860Y142240D01*
D11*
X791210Y142240D02*
X791212Y142398D01*
X791218Y142557D01*
X791228Y142715D01*
X791242Y142872D01*
X791259Y143030D01*
X791281Y143186D01*
X791306Y143343D01*
X791336Y143498D01*
X791369Y143653D01*
X791406Y143807D01*
X791447Y143960D01*
X791492Y144112D01*
X791541Y144262D01*
X791593Y144412D01*
X791649Y144560D01*
X791709Y144707D01*
X791772Y144852D01*
X791839Y144995D01*
X791909Y145137D01*
X791983Y145277D01*
X792061Y145415D01*
X792142Y145551D01*
X792226Y145685D01*
X792313Y145817D01*
X792404Y145947D01*
X792498Y146074D01*
X792595Y146199D01*
X792696Y146322D01*
X792799Y146442D01*
X792905Y146559D01*
X793014Y146674D01*
X793126Y146786D01*
X793241Y146895D01*
X793358Y147001D01*
X793478Y147104D01*
X793601Y147205D01*
X793726Y147302D01*
X793853Y147396D01*
X793983Y147487D01*
X794115Y147574D01*
X794249Y147658D01*
X794385Y147739D01*
X794523Y147817D01*
X794663Y147891D01*
X794805Y147961D01*
X794948Y148028D01*
X795093Y148091D01*
X795240Y148151D01*
X795388Y148207D01*
X795538Y148259D01*
X795688Y148308D01*
X795840Y148353D01*
X795993Y148394D01*
X796147Y148431D01*
X796302Y148464D01*
X796457Y148494D01*
X796614Y148519D01*
X796770Y148541D01*
X796928Y148558D01*
X797085Y148572D01*
X797243Y148582D01*
X797402Y148588D01*
X797560Y148590D01*
X791210Y35560D02*
X791212Y35402D01*
X791218Y35243D01*
X791228Y35085D01*
X791242Y34928D01*
X791259Y34770D01*
X791281Y34614D01*
X791306Y34457D01*
X791336Y34302D01*
X791369Y34147D01*
X791406Y33993D01*
X791447Y33840D01*
X791492Y33688D01*
X791541Y33538D01*
X791593Y33388D01*
X791649Y33240D01*
X791709Y33093D01*
X791772Y32948D01*
X791839Y32805D01*
X791909Y32663D01*
X791983Y32523D01*
X792061Y32385D01*
X792142Y32249D01*
X792226Y32115D01*
X792313Y31983D01*
X792404Y31853D01*
X792498Y31726D01*
X792595Y31601D01*
X792696Y31478D01*
X792799Y31358D01*
X792905Y31241D01*
X793014Y31126D01*
X793126Y31014D01*
X793241Y30905D01*
X793358Y30799D01*
X793478Y30696D01*
X793601Y30595D01*
X793726Y30498D01*
X793853Y30404D01*
X793983Y30313D01*
X794115Y30226D01*
X794249Y30142D01*
X794385Y30061D01*
X794523Y29983D01*
X794663Y29909D01*
X794805Y29839D01*
X794948Y29772D01*
X795093Y29709D01*
X795240Y29649D01*
X795388Y29593D01*
X795538Y29541D01*
X795688Y29492D01*
X795840Y29447D01*
X795993Y29406D01*
X796147Y29369D01*
X796302Y29336D01*
X796457Y29306D01*
X796614Y29281D01*
X796770Y29259D01*
X796928Y29242D01*
X797085Y29228D01*
X797243Y29218D01*
X797402Y29212D01*
X797560Y29210D01*
D12*
X797560Y22860D02*
X797253Y22864D01*
X796946Y22875D01*
X796640Y22893D01*
X796334Y22919D01*
X796029Y22953D01*
X795725Y22993D01*
X795422Y23041D01*
X795120Y23097D01*
X794820Y23159D01*
X794521Y23229D01*
X794224Y23306D01*
X793928Y23390D01*
X793635Y23482D01*
X793345Y23580D01*
X793057Y23685D01*
X792771Y23798D01*
X792488Y23917D01*
X792208Y24043D01*
X791931Y24175D01*
X791658Y24315D01*
X791388Y24461D01*
X791122Y24613D01*
X790859Y24772D01*
X790600Y24937D01*
X790346Y25108D01*
X790095Y25285D01*
X789849Y25469D01*
X789607Y25658D01*
X789371Y25853D01*
X789138Y26054D01*
X788911Y26260D01*
X788689Y26472D01*
X788472Y26689D01*
X788260Y26911D01*
X788054Y27138D01*
X787853Y27371D01*
X787658Y27607D01*
X787469Y27849D01*
X787285Y28095D01*
X787108Y28346D01*
X786937Y28600D01*
X786772Y28859D01*
X786613Y29122D01*
X786461Y29388D01*
X786315Y29658D01*
X786175Y29931D01*
X786043Y30208D01*
X785917Y30488D01*
X785798Y30771D01*
X785685Y31057D01*
X785580Y31345D01*
X785482Y31635D01*
X785390Y31928D01*
X785306Y32224D01*
X785229Y32521D01*
X785159Y32820D01*
X785097Y33120D01*
X785041Y33422D01*
X784993Y33725D01*
X784953Y34029D01*
X784919Y34334D01*
X784893Y34640D01*
X784875Y34946D01*
X784864Y35253D01*
X784860Y35560D01*
D11*
X904240Y29210D02*
X904398Y29212D01*
X904557Y29218D01*
X904715Y29228D01*
X904872Y29242D01*
X905030Y29259D01*
X905186Y29281D01*
X905343Y29306D01*
X905498Y29336D01*
X905653Y29369D01*
X905807Y29406D01*
X905960Y29447D01*
X906112Y29492D01*
X906262Y29541D01*
X906412Y29593D01*
X906560Y29649D01*
X906707Y29709D01*
X906852Y29772D01*
X906995Y29839D01*
X907137Y29909D01*
X907277Y29983D01*
X907415Y30061D01*
X907551Y30142D01*
X907685Y30226D01*
X907817Y30313D01*
X907947Y30404D01*
X908074Y30498D01*
X908199Y30595D01*
X908322Y30696D01*
X908442Y30799D01*
X908559Y30905D01*
X908674Y31014D01*
X908786Y31126D01*
X908895Y31241D01*
X909001Y31358D01*
X909104Y31478D01*
X909205Y31601D01*
X909302Y31726D01*
X909396Y31853D01*
X909487Y31983D01*
X909574Y32115D01*
X909658Y32249D01*
X909739Y32385D01*
X909817Y32523D01*
X909891Y32663D01*
X909961Y32805D01*
X910028Y32948D01*
X910091Y33093D01*
X910151Y33240D01*
X910207Y33388D01*
X910259Y33538D01*
X910308Y33688D01*
X910353Y33840D01*
X910394Y33993D01*
X910431Y34147D01*
X910464Y34302D01*
X910494Y34457D01*
X910519Y34614D01*
X910541Y34770D01*
X910558Y34928D01*
X910572Y35085D01*
X910582Y35243D01*
X910588Y35402D01*
X910590Y35560D01*
D12*
X916940Y35560D02*
X916936Y35253D01*
X916925Y34946D01*
X916907Y34640D01*
X916881Y34334D01*
X916847Y34029D01*
X916807Y33725D01*
X916759Y33422D01*
X916703Y33120D01*
X916641Y32820D01*
X916571Y32521D01*
X916494Y32224D01*
X916410Y31928D01*
X916318Y31635D01*
X916220Y31345D01*
X916115Y31057D01*
X916002Y30771D01*
X915883Y30488D01*
X915757Y30208D01*
X915625Y29931D01*
X915485Y29658D01*
X915339Y29388D01*
X915187Y29122D01*
X915028Y28859D01*
X914863Y28600D01*
X914692Y28346D01*
X914515Y28095D01*
X914331Y27849D01*
X914142Y27607D01*
X913947Y27371D01*
X913746Y27138D01*
X913540Y26911D01*
X913328Y26689D01*
X913111Y26472D01*
X912889Y26260D01*
X912662Y26054D01*
X912429Y25853D01*
X912193Y25658D01*
X911951Y25469D01*
X911705Y25285D01*
X911454Y25108D01*
X911200Y24937D01*
X910941Y24772D01*
X910678Y24613D01*
X910412Y24461D01*
X910142Y24315D01*
X909869Y24175D01*
X909592Y24043D01*
X909312Y23917D01*
X909029Y23798D01*
X908743Y23685D01*
X908455Y23580D01*
X908165Y23482D01*
X907872Y23390D01*
X907576Y23306D01*
X907279Y23229D01*
X906980Y23159D01*
X906680Y23097D01*
X906378Y23041D01*
X906075Y22993D01*
X905771Y22953D01*
X905466Y22919D01*
X905160Y22893D01*
X904854Y22875D01*
X904547Y22864D01*
X904240Y22860D01*
D11*
X910590Y142240D02*
X910588Y142398D01*
X910582Y142557D01*
X910572Y142715D01*
X910558Y142872D01*
X910541Y143030D01*
X910519Y143186D01*
X910494Y143343D01*
X910464Y143498D01*
X910431Y143653D01*
X910394Y143807D01*
X910353Y143960D01*
X910308Y144112D01*
X910259Y144262D01*
X910207Y144412D01*
X910151Y144560D01*
X910091Y144707D01*
X910028Y144852D01*
X909961Y144995D01*
X909891Y145137D01*
X909817Y145277D01*
X909739Y145415D01*
X909658Y145551D01*
X909574Y145685D01*
X909487Y145817D01*
X909396Y145947D01*
X909302Y146074D01*
X909205Y146199D01*
X909104Y146322D01*
X909001Y146442D01*
X908895Y146559D01*
X908786Y146674D01*
X908674Y146786D01*
X908559Y146895D01*
X908442Y147001D01*
X908322Y147104D01*
X908199Y147205D01*
X908074Y147302D01*
X907947Y147396D01*
X907817Y147487D01*
X907685Y147574D01*
X907551Y147658D01*
X907415Y147739D01*
X907277Y147817D01*
X907137Y147891D01*
X906995Y147961D01*
X906852Y148028D01*
X906707Y148091D01*
X906560Y148151D01*
X906412Y148207D01*
X906262Y148259D01*
X906112Y148308D01*
X905960Y148353D01*
X905807Y148394D01*
X905653Y148431D01*
X905498Y148464D01*
X905343Y148494D01*
X905186Y148519D01*
X905030Y148541D01*
X904872Y148558D01*
X904715Y148572D01*
X904557Y148582D01*
X904398Y148588D01*
X904240Y148590D01*
D13*
X854202Y63500D02*
X854202Y38100D01*
X854202Y63500D02*
X847852Y63500D01*
X847852Y38100D01*
X854202Y38100D01*
X841502Y38100D02*
X841502Y50800D01*
X860298Y50800D02*
X860298Y38100D01*
D11*
X841502Y50800D02*
X825500Y50800D01*
D13*
X841502Y50800D02*
X841502Y63500D01*
D11*
X860298Y50800D02*
X876300Y50800D01*
D13*
X860298Y50800D02*
X860298Y63500D01*
D14*
X867781Y141612D02*
X871594Y145425D01*
X871594Y133985D01*
X867781Y133985D02*
X875408Y133985D01*
X878947Y17409D02*
X878947Y7876D01*
X880854Y5969D01*
X884667Y5969D01*
X886574Y7876D01*
X886574Y17409D01*
X890641Y15502D02*
X892548Y17409D01*
X896361Y17409D01*
X898268Y15502D01*
X898268Y13596D01*
X896361Y11689D01*
X898268Y9782D01*
X898268Y7876D01*
X896361Y5969D01*
X892548Y5969D01*
X890641Y7876D01*
X890641Y9782D01*
X892548Y11689D01*
X890641Y13596D01*
X890641Y15502D01*
X892548Y11689D02*
X896361Y11689D01*
X810563Y82423D02*
X802936Y82423D01*
X810563Y90050D01*
X810563Y91956D01*
X808656Y93863D01*
X804843Y93863D01*
X802936Y91956D01*
X814630Y84330D02*
X814630Y82423D01*
X814630Y84330D02*
X816537Y84330D01*
X816537Y82423D01*
X814630Y82423D01*
X826197Y82423D02*
X826197Y93863D01*
X820477Y88143D01*
X828104Y88143D01*
X832171Y93863D02*
X839797Y93863D01*
X832171Y93863D02*
X832171Y88143D01*
X835984Y90050D01*
X837891Y90050D01*
X839797Y88143D01*
X839797Y84330D01*
X837891Y82423D01*
X834078Y82423D01*
X832171Y84330D01*
X843865Y93863D02*
X851491Y93863D01*
X851491Y91956D01*
X843865Y84330D01*
X843865Y82423D01*
X859372Y91956D02*
X863185Y93863D01*
X859372Y91956D02*
X855559Y88143D01*
X855559Y84330D01*
X857466Y82423D01*
X861279Y82423D01*
X863185Y84330D01*
X863185Y86236D01*
X861279Y88143D01*
X855559Y88143D01*
X867253Y82423D02*
X867253Y93863D01*
X871066Y90050D01*
X874879Y93863D01*
X874879Y82423D01*
X878947Y82423D02*
X878947Y93863D01*
X878947Y88143D02*
X886573Y88143D01*
X886573Y93863D02*
X886573Y82423D01*
X890641Y90050D02*
X898267Y90050D01*
X890641Y82423D01*
X898267Y82423D01*
D11*
X101600Y36830D02*
X101600Y34290D01*
X101600Y36830D02*
X104140Y36830D01*
X101600Y36830D02*
X101600Y39370D01*
X101600Y36830D02*
X99060Y36830D01*
X88900Y50800D02*
X88908Y51423D01*
X88931Y52046D01*
X88969Y52669D01*
X89022Y53290D01*
X89091Y53909D01*
X89175Y54527D01*
X89274Y55142D01*
X89388Y55755D01*
X89517Y56365D01*
X89661Y56972D01*
X89820Y57575D01*
X89994Y58173D01*
X90182Y58768D01*
X90385Y59357D01*
X90602Y59941D01*
X90833Y60520D01*
X91079Y61093D01*
X91339Y61660D01*
X91612Y62220D01*
X91899Y62773D01*
X92200Y63320D01*
X92514Y63858D01*
X92841Y64389D01*
X93181Y64911D01*
X93533Y65426D01*
X93899Y65931D01*
X94276Y66427D01*
X94666Y66914D01*
X95067Y67391D01*
X95480Y67858D01*
X95904Y68314D01*
X96339Y68761D01*
X96786Y69196D01*
X97242Y69620D01*
X97709Y70033D01*
X98186Y70434D01*
X98673Y70824D01*
X99169Y71201D01*
X99674Y71567D01*
X100189Y71919D01*
X100711Y72259D01*
X101242Y72586D01*
X101780Y72900D01*
X102327Y73201D01*
X102880Y73488D01*
X103440Y73761D01*
X104007Y74021D01*
X104580Y74267D01*
X105159Y74498D01*
X105743Y74715D01*
X106332Y74918D01*
X106927Y75106D01*
X107525Y75280D01*
X108128Y75439D01*
X108735Y75583D01*
X109345Y75712D01*
X109958Y75826D01*
X110573Y75925D01*
X111191Y76009D01*
X111810Y76078D01*
X112431Y76131D01*
X113054Y76169D01*
X113677Y76192D01*
X114300Y76200D01*
X114923Y76192D01*
X115546Y76169D01*
X116169Y76131D01*
X116790Y76078D01*
X117409Y76009D01*
X118027Y75925D01*
X118642Y75826D01*
X119255Y75712D01*
X119865Y75583D01*
X120472Y75439D01*
X121075Y75280D01*
X121673Y75106D01*
X122268Y74918D01*
X122857Y74715D01*
X123441Y74498D01*
X124020Y74267D01*
X124593Y74021D01*
X125160Y73761D01*
X125720Y73488D01*
X126273Y73201D01*
X126820Y72900D01*
X127358Y72586D01*
X127889Y72259D01*
X128411Y71919D01*
X128926Y71567D01*
X129431Y71201D01*
X129927Y70824D01*
X130414Y70434D01*
X130891Y70033D01*
X131358Y69620D01*
X131814Y69196D01*
X132261Y68761D01*
X132696Y68314D01*
X133120Y67858D01*
X133533Y67391D01*
X133934Y66914D01*
X134324Y66427D01*
X134701Y65931D01*
X135067Y65426D01*
X135419Y64911D01*
X135759Y64389D01*
X136086Y63858D01*
X136400Y63320D01*
X136701Y62773D01*
X136988Y62220D01*
X137261Y61660D01*
X137521Y61093D01*
X137767Y60520D01*
X137998Y59941D01*
X138215Y59357D01*
X138418Y58768D01*
X138606Y58173D01*
X138780Y57575D01*
X138939Y56972D01*
X139083Y56365D01*
X139212Y55755D01*
X139326Y55142D01*
X139425Y54527D01*
X139509Y53909D01*
X139578Y53290D01*
X139631Y52669D01*
X139669Y52046D01*
X139692Y51423D01*
X139700Y50800D01*
X139692Y50177D01*
X139669Y49554D01*
X139631Y48931D01*
X139578Y48310D01*
X139509Y47691D01*
X139425Y47073D01*
X139326Y46458D01*
X139212Y45845D01*
X139083Y45235D01*
X138939Y44628D01*
X138780Y44025D01*
X138606Y43427D01*
X138418Y42832D01*
X138215Y42243D01*
X137998Y41659D01*
X137767Y41080D01*
X137521Y40507D01*
X137261Y39940D01*
X136988Y39380D01*
X136701Y38827D01*
X136400Y38280D01*
X136086Y37742D01*
X135759Y37211D01*
X135419Y36689D01*
X135067Y36174D01*
X134701Y35669D01*
X134324Y35173D01*
X133934Y34686D01*
X133533Y34209D01*
X133120Y33742D01*
X132696Y33286D01*
X132261Y32839D01*
X131814Y32404D01*
X131358Y31980D01*
X130891Y31567D01*
X130414Y31166D01*
X129927Y30776D01*
X129431Y30399D01*
X128926Y30033D01*
X128411Y29681D01*
X127889Y29341D01*
X127358Y29014D01*
X126820Y28700D01*
X126273Y28399D01*
X125720Y28112D01*
X125160Y27839D01*
X124593Y27579D01*
X124020Y27333D01*
X123441Y27102D01*
X122857Y26885D01*
X122268Y26682D01*
X121673Y26494D01*
X121075Y26320D01*
X120472Y26161D01*
X119865Y26017D01*
X119255Y25888D01*
X118642Y25774D01*
X118027Y25675D01*
X117409Y25591D01*
X116790Y25522D01*
X116169Y25469D01*
X115546Y25431D01*
X114923Y25408D01*
X114300Y25400D01*
X113677Y25408D01*
X113054Y25431D01*
X112431Y25469D01*
X111810Y25522D01*
X111191Y25591D01*
X110573Y25675D01*
X109958Y25774D01*
X109345Y25888D01*
X108735Y26017D01*
X108128Y26161D01*
X107525Y26320D01*
X106927Y26494D01*
X106332Y26682D01*
X105743Y26885D01*
X105159Y27102D01*
X104580Y27333D01*
X104007Y27579D01*
X103440Y27839D01*
X102880Y28112D01*
X102327Y28399D01*
X101780Y28700D01*
X101242Y29014D01*
X100711Y29341D01*
X100189Y29681D01*
X99674Y30033D01*
X99169Y30399D01*
X98673Y30776D01*
X98186Y31166D01*
X97709Y31567D01*
X97242Y31980D01*
X96786Y32404D01*
X96339Y32839D01*
X95904Y33286D01*
X95480Y33742D01*
X95067Y34209D01*
X94666Y34686D01*
X94276Y35173D01*
X93899Y35669D01*
X93533Y36174D01*
X93181Y36689D01*
X92841Y37211D01*
X92514Y37742D01*
X92200Y38280D01*
X91899Y38827D01*
X91612Y39380D01*
X91339Y39940D01*
X91079Y40507D01*
X90833Y41080D01*
X90602Y41659D01*
X90385Y42243D01*
X90182Y42832D01*
X89994Y43427D01*
X89820Y44025D01*
X89661Y44628D01*
X89517Y45235D01*
X89388Y45845D01*
X89274Y46458D01*
X89175Y47073D01*
X89091Y47691D01*
X89022Y48310D01*
X88969Y48931D01*
X88931Y49554D01*
X88908Y50177D01*
X88900Y50800D01*
D14*
X89525Y81285D02*
X91432Y83192D01*
X89525Y81285D02*
X89525Y77472D01*
X91432Y75565D01*
X99058Y75565D01*
X100965Y77472D01*
X100965Y81285D01*
X99058Y83192D01*
X91432Y91072D02*
X89525Y94885D01*
X91432Y91072D02*
X95245Y87259D01*
X99058Y87259D01*
X100965Y89166D01*
X100965Y92979D01*
X99058Y94885D01*
X97152Y94885D01*
X95245Y92979D01*
X95245Y87259D01*
X126355Y79378D02*
X130169Y75565D01*
X126355Y79378D02*
X137795Y79378D01*
X137795Y75565D02*
X137795Y83192D01*
X135888Y87259D02*
X128262Y87259D01*
X126355Y89166D01*
X126355Y92979D01*
X128262Y94885D01*
X135888Y94885D01*
X137795Y92979D01*
X137795Y89166D01*
X135888Y87259D01*
X128262Y94885D01*
X128262Y98953D02*
X135888Y98953D01*
X128262Y98953D02*
X126355Y100860D01*
X126355Y104673D01*
X128262Y106579D01*
X135888Y106579D01*
X137795Y104673D01*
X137795Y100860D01*
X135888Y98953D01*
X128262Y106579D01*
X130169Y110647D02*
X135888Y110647D01*
X137795Y112554D01*
X137795Y118273D01*
X130169Y118273D01*
X126355Y122341D02*
X137795Y122341D01*
X126355Y122341D02*
X126355Y129967D01*
X132075Y126154D02*
X132075Y122341D01*
D11*
X39370Y149860D02*
X39370Y203200D01*
X39679Y203204D01*
X39988Y203215D01*
X40297Y203234D01*
X40605Y203260D01*
X40913Y203294D01*
X41219Y203335D01*
X41525Y203384D01*
X41829Y203440D01*
X42131Y203504D01*
X42432Y203575D01*
X42732Y203653D01*
X43029Y203738D01*
X43324Y203831D01*
X43617Y203931D01*
X43907Y204038D01*
X44194Y204152D01*
X44479Y204273D01*
X44761Y204401D01*
X45039Y204535D01*
X45314Y204677D01*
X45586Y204825D01*
X45853Y204980D01*
X46117Y205141D01*
X46377Y205308D01*
X46633Y205482D01*
X46885Y205662D01*
X47132Y205848D01*
X47374Y206040D01*
X47612Y206238D01*
X47845Y206441D01*
X48073Y206651D01*
X48295Y206865D01*
X48513Y207085D01*
X48725Y207311D01*
X48931Y207541D01*
X49132Y207776D01*
X49327Y208016D01*
X49516Y208261D01*
X49699Y208510D01*
X49876Y208764D01*
X50046Y209022D01*
X50211Y209284D01*
X50369Y209550D01*
X50520Y209820D01*
X50665Y210093D01*
X50803Y210370D01*
X50934Y210650D01*
X51058Y210933D01*
X51176Y211219D01*
X51286Y211508D01*
X51390Y211799D01*
X51486Y212093D01*
X51575Y212389D01*
X51657Y212688D01*
X51732Y212988D01*
X51799Y213290D01*
X51859Y213593D01*
X51911Y213898D01*
X51956Y214204D01*
X51994Y214511D01*
X52024Y214819D01*
X52046Y215127D01*
X52062Y215436D01*
X52069Y215745D01*
X52069Y216055D01*
X52062Y216364D01*
X52046Y216673D01*
X52024Y216981D01*
X51994Y217289D01*
X51956Y217596D01*
X51911Y217902D01*
X51859Y218207D01*
X51799Y218510D01*
X51732Y218812D01*
X51657Y219112D01*
X51575Y219411D01*
X51486Y219707D01*
X51390Y220001D01*
X51286Y220292D01*
X51176Y220581D01*
X51058Y220867D01*
X50934Y221150D01*
X50803Y221430D01*
X50665Y221707D01*
X50520Y221980D01*
X50369Y222250D01*
X50211Y222516D01*
X50046Y222778D01*
X49876Y223036D01*
X49699Y223290D01*
X49516Y223539D01*
X49327Y223784D01*
X49132Y224024D01*
X48931Y224259D01*
X48725Y224489D01*
X48513Y224715D01*
X48295Y224935D01*
X48073Y225149D01*
X47845Y225359D01*
X47612Y225562D01*
X47374Y225760D01*
X47132Y225952D01*
X46885Y226138D01*
X46633Y226318D01*
X46377Y226492D01*
X46117Y226659D01*
X45853Y226820D01*
X45586Y226975D01*
X45314Y227123D01*
X45039Y227265D01*
X44761Y227399D01*
X44479Y227527D01*
X44194Y227648D01*
X43907Y227762D01*
X43617Y227869D01*
X43324Y227969D01*
X43029Y228062D01*
X42732Y228147D01*
X42432Y228225D01*
X42131Y228296D01*
X41829Y228360D01*
X41525Y228416D01*
X41219Y228465D01*
X40913Y228506D01*
X40605Y228540D01*
X40297Y228566D01*
X39988Y228585D01*
X39679Y228596D01*
X39370Y228600D01*
X392430Y281940D02*
X392430Y149860D01*
X39370Y228600D02*
X39370Y281940D01*
X392430Y281940D01*
X392430Y149860D02*
X39370Y149860D01*
D15*
X37211Y153289D02*
X37211Y158628D01*
X37211Y155958D02*
X21195Y155958D01*
X21195Y153289D02*
X21195Y158628D01*
X21195Y172211D02*
X23865Y174881D01*
X21195Y172211D02*
X21195Y166873D01*
X23865Y164203D01*
X34542Y164203D01*
X37211Y166873D01*
X37211Y172211D01*
X34542Y174881D01*
X26534Y180575D02*
X21195Y185914D01*
X37211Y185914D01*
X37211Y191252D02*
X37211Y180575D01*
X70739Y220737D02*
X73408Y223407D01*
X78747Y223407D01*
X81416Y220737D01*
X81416Y218068D01*
X78747Y215399D01*
X81416Y212730D01*
X81416Y210060D01*
X78747Y207391D01*
X73408Y207391D01*
X70739Y210060D01*
X70739Y212730D01*
X73408Y215399D01*
X70739Y218068D01*
X70739Y220737D01*
X73408Y215399D02*
X78747Y215399D01*
X87111Y207391D02*
X97788Y207391D01*
X87111Y207391D02*
X97788Y218068D01*
X97788Y220737D01*
X95118Y223407D01*
X89780Y223407D01*
X87111Y220737D01*
X103482Y223407D02*
X114159Y223407D01*
X103482Y223407D02*
X103482Y215399D01*
X108821Y218068D01*
X111490Y218068D01*
X114159Y215399D01*
X114159Y210060D01*
X111490Y207391D01*
X106151Y207391D01*
X103482Y210060D01*
X119854Y218068D02*
X125192Y223407D01*
X125192Y207391D01*
X119854Y207391D02*
X130531Y207391D01*
X136225Y207391D02*
X136225Y218068D01*
X141564Y223407D01*
X146902Y218068D01*
X146902Y207391D01*
X146902Y215399D02*
X136225Y215399D01*
D11*
X12700Y334010D02*
X12700Y377190D01*
X34290Y381000D02*
X38100Y377190D01*
X41910Y381000D01*
X59690Y381000D01*
X63500Y377190D01*
X67310Y381000D01*
X85090Y381000D01*
X88900Y377190D01*
X88900Y334010D02*
X85090Y330200D01*
X67310Y330200D01*
X63500Y334010D01*
X59690Y330200D01*
X41910Y330200D01*
X38100Y334010D01*
X34290Y330200D01*
X88900Y377190D02*
X92710Y381000D01*
X110490Y381000D01*
X114300Y377190D01*
X118110Y381000D01*
X135890Y381000D01*
X139700Y377190D01*
X92710Y330200D02*
X88900Y334010D01*
X92710Y330200D02*
X110490Y330200D01*
X114300Y334010D02*
X118110Y330200D01*
X114300Y334010D02*
X110490Y330200D01*
X118110Y330200D02*
X135890Y330200D01*
X139700Y334010D01*
X16510Y330200D02*
X12700Y334010D01*
X16510Y330200D02*
X34290Y330200D01*
X12700Y377190D02*
X16510Y381000D01*
X34290Y381000D01*
X266700Y377190D02*
X266700Y334010D01*
X266700Y377190D02*
X262890Y381000D01*
X266700Y334010D02*
X262890Y330200D01*
X241300Y334010D02*
X237490Y330200D01*
X215900Y334010D02*
X212090Y330200D01*
X190500Y334010D02*
X186690Y330200D01*
X165100Y334010D02*
X161290Y330200D01*
X237490Y381000D02*
X241300Y377190D01*
X215900Y377190D02*
X212090Y381000D01*
X190500Y377190D02*
X186690Y381000D01*
X165100Y377190D02*
X161290Y381000D01*
X143510Y381000D02*
X139700Y377190D01*
X165100Y377190D02*
X168910Y381000D01*
X190500Y377190D02*
X194310Y381000D01*
X215900Y377190D02*
X219710Y381000D01*
X241300Y377190D02*
X245110Y381000D01*
X143510Y330200D02*
X139700Y334010D01*
X165100Y334010D02*
X168910Y330200D01*
X190500Y334010D02*
X194310Y330200D01*
X215900Y334010D02*
X219710Y330200D01*
X241300Y334010D02*
X245110Y330200D01*
X161290Y381000D02*
X143510Y381000D01*
X168910Y381000D02*
X186690Y381000D01*
X194310Y381000D02*
X212090Y381000D01*
X219710Y381000D02*
X237490Y381000D01*
X245110Y381000D02*
X262890Y381000D01*
X161290Y330200D02*
X143510Y330200D01*
X168910Y330200D02*
X186690Y330200D01*
X194310Y330200D02*
X212090Y330200D01*
X219710Y330200D02*
X237490Y330200D01*
X245110Y330200D02*
X262890Y330200D01*
D14*
X24768Y325765D02*
X20955Y321952D01*
X24768Y325765D02*
X24768Y314325D01*
X20955Y314325D02*
X28582Y314325D01*
X46355Y314325D02*
X53982Y314325D01*
X46355Y314325D02*
X53982Y321952D01*
X53982Y323858D01*
X52075Y325765D01*
X48262Y325765D01*
X46355Y323858D01*
X71755Y323858D02*
X73662Y325765D01*
X77475Y325765D01*
X79382Y323858D01*
X79382Y321952D01*
X77475Y320045D01*
X75568Y320045D01*
X77475Y320045D02*
X79382Y318138D01*
X79382Y316232D01*
X77475Y314325D01*
X73662Y314325D01*
X71755Y316232D01*
X102875Y314325D02*
X102875Y325765D01*
X97155Y320045D01*
X104782Y320045D01*
X122555Y325765D02*
X130182Y325765D01*
X122555Y325765D02*
X122555Y320045D01*
X126368Y321952D01*
X128275Y321952D01*
X130182Y320045D01*
X130182Y316232D01*
X128275Y314325D01*
X124462Y314325D01*
X122555Y316232D01*
X151768Y323858D02*
X155582Y325765D01*
X151768Y323858D02*
X147955Y320045D01*
X147955Y316232D01*
X149862Y314325D01*
X153675Y314325D01*
X155582Y316232D01*
X155582Y318138D01*
X153675Y320045D01*
X147955Y320045D01*
X173355Y325765D02*
X180982Y325765D01*
X180982Y323858D01*
X173355Y316232D01*
X173355Y314325D01*
X198755Y323858D02*
X200662Y325765D01*
X204475Y325765D01*
X206382Y323858D01*
X206382Y321952D01*
X204475Y320045D01*
X206382Y318138D01*
X206382Y316232D01*
X204475Y314325D01*
X200662Y314325D01*
X198755Y316232D01*
X198755Y318138D01*
X200662Y320045D01*
X198755Y321952D01*
X198755Y323858D01*
X200662Y320045D02*
X204475Y320045D01*
X224155Y316232D02*
X226062Y314325D01*
X229875Y314325D01*
X231782Y316232D01*
X231782Y323858D01*
X229875Y325765D01*
X226062Y325765D01*
X224155Y323858D01*
X224155Y321952D01*
X226062Y320045D01*
X231782Y320045D01*
X243205Y321952D02*
X247018Y325765D01*
X247018Y314325D01*
X243205Y314325D02*
X250832Y314325D01*
X254899Y316232D02*
X254899Y323858D01*
X256806Y325765D01*
X260619Y325765D01*
X262525Y323858D01*
X262525Y316232D01*
X260619Y314325D01*
X256806Y314325D01*
X254899Y316232D01*
X262525Y323858D01*
X15242Y384175D02*
X13335Y386082D01*
X15242Y384175D02*
X17148Y384175D01*
X19055Y386082D01*
X19055Y395615D01*
X17148Y395615D02*
X20962Y395615D01*
X25029Y395615D02*
X25029Y384175D01*
X25029Y395615D02*
X30749Y395615D01*
X32655Y393708D01*
X32655Y389895D01*
X30749Y387988D01*
X25029Y387988D01*
X36723Y391802D02*
X40536Y395615D01*
X40536Y384175D01*
X36723Y384175D02*
X44349Y384175D01*
D11*
X92710Y406400D02*
X92710Y609600D01*
X34290Y609600D02*
X34290Y406400D01*
X92710Y406400D01*
X92710Y609600D02*
X73660Y609600D01*
X53340Y609600D02*
X34290Y609600D01*
X53340Y609600D02*
X53343Y609353D01*
X53352Y609105D01*
X53367Y608858D01*
X53388Y608612D01*
X53415Y608366D01*
X53448Y608121D01*
X53487Y607876D01*
X53532Y607633D01*
X53583Y607391D01*
X53640Y607150D01*
X53702Y606911D01*
X53771Y606673D01*
X53845Y606437D01*
X53925Y606203D01*
X54010Y605971D01*
X54102Y605741D01*
X54198Y605513D01*
X54301Y605288D01*
X54408Y605065D01*
X54522Y604845D01*
X54640Y604628D01*
X54764Y604413D01*
X54893Y604202D01*
X55027Y603994D01*
X55166Y603789D01*
X55310Y603588D01*
X55458Y603390D01*
X55612Y603196D01*
X55770Y603006D01*
X55933Y602820D01*
X56100Y602638D01*
X56272Y602460D01*
X56448Y602286D01*
X56628Y602116D01*
X56813Y601951D01*
X57001Y601791D01*
X57193Y601635D01*
X57389Y601483D01*
X57588Y601337D01*
X57791Y601195D01*
X57998Y601059D01*
X58207Y600927D01*
X58420Y600801D01*
X58636Y600680D01*
X58854Y600564D01*
X59076Y600454D01*
X59300Y600349D01*
X59526Y600249D01*
X59755Y600155D01*
X59986Y600067D01*
X60220Y599984D01*
X60455Y599907D01*
X60692Y599836D01*
X60930Y599770D01*
X61170Y599711D01*
X61412Y599657D01*
X61655Y599609D01*
X61898Y599567D01*
X62143Y599531D01*
X62389Y599501D01*
X62635Y599477D01*
X62882Y599459D01*
X63129Y599447D01*
X63376Y599441D01*
X63624Y599441D01*
X63871Y599447D01*
X64118Y599459D01*
X64365Y599477D01*
X64611Y599501D01*
X64857Y599531D01*
X65102Y599567D01*
X65345Y599609D01*
X65588Y599657D01*
X65830Y599711D01*
X66070Y599770D01*
X66308Y599836D01*
X66545Y599907D01*
X66780Y599984D01*
X67014Y600067D01*
X67245Y600155D01*
X67474Y600249D01*
X67700Y600349D01*
X67924Y600454D01*
X68146Y600564D01*
X68364Y600680D01*
X68580Y600801D01*
X68793Y600927D01*
X69002Y601059D01*
X69209Y601195D01*
X69412Y601337D01*
X69611Y601483D01*
X69807Y601635D01*
X69999Y601791D01*
X70187Y601951D01*
X70372Y602116D01*
X70552Y602286D01*
X70728Y602460D01*
X70900Y602638D01*
X71067Y602820D01*
X71230Y603006D01*
X71388Y603196D01*
X71542Y603390D01*
X71690Y603588D01*
X71834Y603789D01*
X71973Y603994D01*
X72107Y604202D01*
X72236Y604413D01*
X72360Y604628D01*
X72478Y604845D01*
X72592Y605065D01*
X72699Y605288D01*
X72802Y605513D01*
X72898Y605741D01*
X72990Y605971D01*
X73075Y606203D01*
X73155Y606437D01*
X73229Y606673D01*
X73298Y606911D01*
X73360Y607150D01*
X73417Y607391D01*
X73468Y607633D01*
X73513Y607876D01*
X73552Y608121D01*
X73585Y608366D01*
X73612Y608612D01*
X73633Y608858D01*
X73648Y609105D01*
X73657Y609353D01*
X73660Y609600D01*
D14*
X34925Y617858D02*
X34925Y625485D01*
X34925Y617858D02*
X38738Y614045D01*
X42552Y617858D01*
X42552Y625485D01*
X46619Y621672D02*
X50432Y625485D01*
X50432Y614045D01*
X46619Y614045D02*
X54245Y614045D01*
X57775Y521028D02*
X57775Y513401D01*
X57775Y521028D02*
X59682Y521028D01*
X67308Y513401D01*
X69215Y513401D01*
X69215Y530815D02*
X57775Y530815D01*
X63495Y525095D01*
X63495Y532722D01*
X61589Y536789D02*
X57775Y540602D01*
X69215Y540602D01*
X69215Y536789D02*
X69215Y544415D01*
X59682Y552296D02*
X57775Y556109D01*
X59682Y552296D02*
X63495Y548483D01*
X67308Y548483D01*
X69215Y550390D01*
X69215Y554203D01*
X67308Y556109D01*
X65402Y556109D01*
X63495Y554203D01*
X63495Y548483D01*
X61589Y560177D02*
X57775Y563990D01*
X69215Y563990D01*
X69215Y560177D02*
X69215Y567803D01*
X69215Y571871D02*
X57775Y571871D01*
X69215Y579497D01*
X57775Y579497D01*
D11*
X134620Y546100D02*
X144780Y546100D01*
X148590Y524510D02*
X130810Y524510D01*
X130810Y542290D01*
X144780Y546100D02*
X144920Y546098D01*
X145060Y546092D01*
X145200Y546083D01*
X145339Y546069D01*
X145478Y546052D01*
X145616Y546031D01*
X145754Y546006D01*
X145891Y545977D01*
X146027Y545945D01*
X146162Y545908D01*
X146296Y545868D01*
X146429Y545825D01*
X146561Y545777D01*
X146692Y545727D01*
X146821Y545672D01*
X146948Y545614D01*
X147074Y545553D01*
X147198Y545488D01*
X147320Y545419D01*
X147440Y545348D01*
X147558Y545273D01*
X147675Y545195D01*
X147789Y545113D01*
X147900Y545029D01*
X148009Y544941D01*
X148116Y544851D01*
X148221Y544757D01*
X148322Y544661D01*
X148421Y544562D01*
X148517Y544461D01*
X148611Y544356D01*
X148701Y544249D01*
X148789Y544140D01*
X148873Y544029D01*
X148955Y543915D01*
X149033Y543798D01*
X149108Y543680D01*
X149179Y543560D01*
X149248Y543438D01*
X149313Y543314D01*
X149374Y543188D01*
X149432Y543061D01*
X149487Y542932D01*
X149537Y542801D01*
X149585Y542669D01*
X149628Y542536D01*
X149668Y542402D01*
X149705Y542267D01*
X149737Y542131D01*
X149766Y541994D01*
X149791Y541856D01*
X149812Y541718D01*
X149829Y541579D01*
X149843Y541440D01*
X149852Y541300D01*
X149858Y541160D01*
X149860Y541020D01*
X129540Y398780D02*
X129542Y398640D01*
X129548Y398500D01*
X129557Y398360D01*
X129571Y398221D01*
X129588Y398082D01*
X129609Y397944D01*
X129634Y397806D01*
X129663Y397669D01*
X129695Y397533D01*
X129732Y397398D01*
X129772Y397264D01*
X129815Y397131D01*
X129863Y396999D01*
X129913Y396868D01*
X129968Y396739D01*
X130026Y396612D01*
X130087Y396486D01*
X130152Y396362D01*
X130221Y396240D01*
X130292Y396120D01*
X130367Y396002D01*
X130445Y395885D01*
X130527Y395771D01*
X130611Y395660D01*
X130699Y395551D01*
X130789Y395444D01*
X130883Y395339D01*
X130979Y395238D01*
X131078Y395139D01*
X131179Y395043D01*
X131284Y394949D01*
X131391Y394859D01*
X131500Y394771D01*
X131611Y394687D01*
X131725Y394605D01*
X131842Y394527D01*
X131960Y394452D01*
X132080Y394381D01*
X132202Y394312D01*
X132326Y394247D01*
X132452Y394186D01*
X132579Y394128D01*
X132708Y394073D01*
X132839Y394023D01*
X132971Y393975D01*
X133104Y393932D01*
X133238Y393892D01*
X133373Y393855D01*
X133509Y393823D01*
X133646Y393794D01*
X133784Y393769D01*
X133922Y393748D01*
X134061Y393731D01*
X134200Y393717D01*
X134340Y393708D01*
X134480Y393702D01*
X134620Y393700D01*
X144780Y393700D02*
X144920Y393702D01*
X145060Y393708D01*
X145200Y393717D01*
X145339Y393731D01*
X145478Y393748D01*
X145616Y393769D01*
X145754Y393794D01*
X145891Y393823D01*
X146027Y393855D01*
X146162Y393892D01*
X146296Y393932D01*
X146429Y393975D01*
X146561Y394023D01*
X146692Y394073D01*
X146821Y394128D01*
X146948Y394186D01*
X147074Y394247D01*
X147198Y394312D01*
X147320Y394381D01*
X147440Y394452D01*
X147558Y394527D01*
X147675Y394605D01*
X147789Y394687D01*
X147900Y394771D01*
X148009Y394859D01*
X148116Y394949D01*
X148221Y395043D01*
X148322Y395139D01*
X148421Y395238D01*
X148517Y395339D01*
X148611Y395444D01*
X148701Y395551D01*
X148789Y395660D01*
X148873Y395771D01*
X148955Y395885D01*
X149033Y396002D01*
X149108Y396120D01*
X149179Y396240D01*
X149248Y396362D01*
X149313Y396486D01*
X149374Y396612D01*
X149432Y396739D01*
X149487Y396868D01*
X149537Y396999D01*
X149585Y397131D01*
X149628Y397264D01*
X149668Y397398D01*
X149705Y397533D01*
X149737Y397669D01*
X149766Y397806D01*
X149791Y397944D01*
X149812Y398082D01*
X149829Y398221D01*
X149843Y398360D01*
X149852Y398500D01*
X149858Y398640D01*
X149860Y398780D01*
X129540Y541020D02*
X129542Y541160D01*
X129548Y541300D01*
X129557Y541440D01*
X129571Y541579D01*
X129588Y541718D01*
X129609Y541856D01*
X129634Y541994D01*
X129663Y542131D01*
X129695Y542267D01*
X129732Y542402D01*
X129772Y542536D01*
X129815Y542669D01*
X129863Y542801D01*
X129913Y542932D01*
X129968Y543061D01*
X130026Y543188D01*
X130087Y543314D01*
X130152Y543438D01*
X130221Y543560D01*
X130292Y543680D01*
X130367Y543798D01*
X130445Y543915D01*
X130527Y544029D01*
X130611Y544140D01*
X130699Y544249D01*
X130789Y544356D01*
X130883Y544461D01*
X130979Y544562D01*
X131078Y544661D01*
X131179Y544757D01*
X131284Y544851D01*
X131391Y544941D01*
X131500Y545029D01*
X131611Y545113D01*
X131725Y545195D01*
X131842Y545273D01*
X131960Y545348D01*
X132080Y545419D01*
X132202Y545488D01*
X132326Y545553D01*
X132452Y545614D01*
X132579Y545672D01*
X132708Y545727D01*
X132839Y545777D01*
X132971Y545825D01*
X133104Y545868D01*
X133238Y545908D01*
X133373Y545945D01*
X133509Y545977D01*
X133646Y546006D01*
X133784Y546031D01*
X133922Y546052D01*
X134061Y546069D01*
X134200Y546083D01*
X134340Y546092D01*
X134480Y546098D01*
X134620Y546100D01*
X134620Y393700D02*
X144780Y393700D01*
X149860Y398780D02*
X149860Y541020D01*
X129540Y541020D02*
X129540Y398780D01*
X148590Y524510D02*
X148590Y542290D01*
X130810Y542290D01*
D14*
X138129Y547774D02*
X135248Y550655D01*
X143891Y550655D01*
X143891Y547774D02*
X143891Y553536D01*
X153025Y511653D02*
X164465Y511653D01*
X153025Y511653D02*
X153025Y517373D01*
X154932Y519280D01*
X158745Y519280D01*
X160652Y517373D01*
X160652Y511653D01*
X160652Y515466D02*
X164465Y519280D01*
X164465Y523347D02*
X153025Y523347D01*
X164465Y530974D01*
X153025Y530974D01*
X156839Y535041D02*
X153025Y538854D01*
X164465Y538854D01*
X164465Y535041D02*
X164465Y542667D01*
X153025Y443583D02*
X154932Y439769D01*
X158745Y435956D01*
X162558Y435956D01*
X164465Y437863D01*
X164465Y441676D01*
X162558Y443583D01*
X160652Y443583D01*
X158745Y441676D01*
X158745Y435956D01*
X162558Y447650D02*
X164465Y447650D01*
X162558Y447650D02*
X162558Y449557D01*
X164465Y449557D01*
X164465Y447650D01*
X154932Y453497D02*
X153025Y455404D01*
X153025Y459217D01*
X154932Y461123D01*
X156839Y461123D01*
X158745Y459217D01*
X160652Y461123D01*
X162558Y461123D01*
X164465Y459217D01*
X164465Y455404D01*
X162558Y453497D01*
X160652Y453497D01*
X158745Y455404D01*
X156839Y453497D01*
X154932Y453497D01*
X158745Y455404D02*
X158745Y459217D01*
X153025Y465191D02*
X164465Y465191D01*
X160652Y465191D02*
X153025Y472817D01*
X158745Y467098D02*
X164465Y472817D01*
D11*
X711200Y78740D02*
X713740Y76200D01*
X711200Y73660D01*
X734060Y76200D02*
X736600Y78740D01*
X734060Y76200D02*
X736600Y73660D01*
X736600Y53340D01*
X734060Y50800D01*
X736600Y99060D02*
X734060Y101600D01*
X736600Y99060D02*
X736600Y78740D01*
X734060Y101600D02*
X713740Y101600D01*
X711200Y99060D01*
X711200Y78740D01*
X711200Y73660D02*
X711200Y53340D01*
X713740Y50800D01*
X734060Y50800D01*
D14*
X706755Y53342D02*
X704848Y51435D01*
X706755Y53342D02*
X706755Y55248D01*
X704848Y57155D01*
X695315Y57155D01*
X695315Y55248D02*
X695315Y59062D01*
X695315Y63129D02*
X706755Y63129D01*
X695315Y63129D02*
X695315Y68849D01*
X697222Y70755D01*
X701035Y70755D01*
X702942Y68849D01*
X702942Y63129D01*
X706755Y74823D02*
X706755Y82449D01*
X706755Y74823D02*
X699129Y82449D01*
X697222Y82449D01*
X695315Y80543D01*
X695315Y76730D01*
X697222Y74823D01*
D11*
X445770Y149860D02*
X445770Y203200D01*
X446079Y203204D01*
X446388Y203215D01*
X446697Y203234D01*
X447005Y203260D01*
X447313Y203294D01*
X447619Y203335D01*
X447925Y203384D01*
X448229Y203440D01*
X448531Y203504D01*
X448832Y203575D01*
X449132Y203653D01*
X449429Y203738D01*
X449724Y203831D01*
X450017Y203931D01*
X450307Y204038D01*
X450594Y204152D01*
X450879Y204273D01*
X451161Y204401D01*
X451439Y204535D01*
X451714Y204677D01*
X451986Y204825D01*
X452253Y204980D01*
X452517Y205141D01*
X452777Y205308D01*
X453033Y205482D01*
X453285Y205662D01*
X453532Y205848D01*
X453774Y206040D01*
X454012Y206238D01*
X454245Y206441D01*
X454473Y206651D01*
X454695Y206865D01*
X454913Y207085D01*
X455125Y207311D01*
X455331Y207541D01*
X455532Y207776D01*
X455727Y208016D01*
X455916Y208261D01*
X456099Y208510D01*
X456276Y208764D01*
X456446Y209022D01*
X456611Y209284D01*
X456769Y209550D01*
X456920Y209820D01*
X457065Y210093D01*
X457203Y210370D01*
X457334Y210650D01*
X457458Y210933D01*
X457576Y211219D01*
X457686Y211508D01*
X457790Y211799D01*
X457886Y212093D01*
X457975Y212389D01*
X458057Y212688D01*
X458132Y212988D01*
X458199Y213290D01*
X458259Y213593D01*
X458311Y213898D01*
X458356Y214204D01*
X458394Y214511D01*
X458424Y214819D01*
X458446Y215127D01*
X458462Y215436D01*
X458469Y215745D01*
X458469Y216055D01*
X458462Y216364D01*
X458446Y216673D01*
X458424Y216981D01*
X458394Y217289D01*
X458356Y217596D01*
X458311Y217902D01*
X458259Y218207D01*
X458199Y218510D01*
X458132Y218812D01*
X458057Y219112D01*
X457975Y219411D01*
X457886Y219707D01*
X457790Y220001D01*
X457686Y220292D01*
X457576Y220581D01*
X457458Y220867D01*
X457334Y221150D01*
X457203Y221430D01*
X457065Y221707D01*
X456920Y221980D01*
X456769Y222250D01*
X456611Y222516D01*
X456446Y222778D01*
X456276Y223036D01*
X456099Y223290D01*
X455916Y223539D01*
X455727Y223784D01*
X455532Y224024D01*
X455331Y224259D01*
X455125Y224489D01*
X454913Y224715D01*
X454695Y224935D01*
X454473Y225149D01*
X454245Y225359D01*
X454012Y225562D01*
X453774Y225760D01*
X453532Y225952D01*
X453285Y226138D01*
X453033Y226318D01*
X452777Y226492D01*
X452517Y226659D01*
X452253Y226820D01*
X451986Y226975D01*
X451714Y227123D01*
X451439Y227265D01*
X451161Y227399D01*
X450879Y227527D01*
X450594Y227648D01*
X450307Y227762D01*
X450017Y227869D01*
X449724Y227969D01*
X449429Y228062D01*
X449132Y228147D01*
X448832Y228225D01*
X448531Y228296D01*
X448229Y228360D01*
X447925Y228416D01*
X447619Y228465D01*
X447313Y228506D01*
X447005Y228540D01*
X446697Y228566D01*
X446388Y228585D01*
X446079Y228596D01*
X445770Y228600D01*
X748030Y281940D02*
X748030Y149860D01*
X445770Y228600D02*
X445770Y281940D01*
X748030Y281940D01*
X748030Y149860D02*
X445770Y149860D01*
D15*
X439801Y153289D02*
X439801Y158628D01*
X439801Y155958D02*
X423785Y155958D01*
X423785Y153289D02*
X423785Y158628D01*
X423785Y172211D02*
X426455Y174881D01*
X423785Y172211D02*
X423785Y166873D01*
X426455Y164203D01*
X437132Y164203D01*
X439801Y166873D01*
X439801Y172211D01*
X437132Y174881D01*
X439801Y180575D02*
X439801Y191252D01*
X439801Y180575D02*
X429124Y191252D01*
X426455Y191252D01*
X423785Y188583D01*
X423785Y183244D01*
X426455Y180575D01*
D11*
X50800Y73660D02*
X48260Y76200D01*
X50800Y78740D01*
X27940Y76200D02*
X25400Y73660D01*
X27940Y76200D02*
X25400Y78740D01*
X25400Y99060D01*
X27940Y101600D01*
X25400Y53340D02*
X27940Y50800D01*
X25400Y53340D02*
X25400Y73660D01*
X27940Y50800D02*
X48260Y50800D01*
X50800Y53340D01*
X50800Y73660D01*
X50800Y78740D02*
X50800Y99060D01*
X48260Y101600D01*
X27940Y101600D01*
D14*
X64768Y67153D02*
X66675Y69060D01*
X66675Y70966D01*
X64768Y72873D01*
X55235Y72873D01*
X55235Y70966D02*
X55235Y74780D01*
X55235Y78847D02*
X66675Y78847D01*
X55235Y78847D02*
X55235Y84567D01*
X57142Y86474D01*
X60955Y86474D01*
X62862Y84567D01*
X62862Y78847D01*
X55235Y90541D02*
X55235Y98167D01*
X55235Y90541D02*
X60955Y90541D01*
X59049Y94354D01*
X59049Y96261D01*
X60955Y98167D01*
X64768Y98167D01*
X66675Y96261D01*
X66675Y92448D01*
X64768Y90541D01*
X20955Y55459D02*
X9515Y55459D01*
X13329Y59272D01*
X9515Y63086D01*
X20955Y63086D01*
X20955Y67153D02*
X9515Y67153D01*
X9515Y72873D01*
X11422Y74780D01*
X15235Y74780D01*
X17142Y72873D01*
X17142Y67153D01*
X9515Y84567D02*
X11422Y86473D01*
X9515Y84567D02*
X9515Y80754D01*
X11422Y78847D01*
X13329Y78847D01*
X15235Y80754D01*
X15235Y84567D01*
X17142Y86473D01*
X19048Y86473D01*
X20955Y84567D01*
X20955Y80754D01*
X19048Y78847D01*
X20955Y94354D02*
X9515Y94354D01*
X9515Y90541D02*
X9515Y98167D01*
D11*
X50800Y683260D02*
X53340Y685800D01*
X50800Y683260D02*
X48260Y685800D01*
X50800Y662940D02*
X53340Y660400D01*
X50800Y662940D02*
X48260Y660400D01*
X27940Y660400D01*
X25400Y662940D01*
X73660Y660400D02*
X76200Y662940D01*
X73660Y660400D02*
X53340Y660400D01*
X76200Y662940D02*
X76200Y683260D01*
X73660Y685800D01*
X53340Y685800D01*
X48260Y685800D02*
X27940Y685800D01*
X25400Y683260D01*
X25400Y662940D01*
D10*
X28959Y690118D02*
X28959Y699270D01*
X32009Y699270D02*
X25908Y699270D01*
X35263Y699270D02*
X35263Y690118D01*
X35263Y699270D02*
X39839Y699270D01*
X41364Y697745D01*
X41364Y694694D01*
X39839Y693169D01*
X35263Y693169D01*
X44618Y697745D02*
X46144Y699270D01*
X49194Y699270D01*
X50720Y697745D01*
X50720Y696219D01*
X49194Y694694D01*
X50720Y693169D01*
X50720Y691643D01*
X49194Y690118D01*
X46144Y690118D01*
X44618Y691643D01*
X44618Y693169D01*
X46144Y694694D01*
X44618Y696219D01*
X44618Y697745D01*
X46144Y694694D02*
X49194Y694694D01*
X17784Y653550D02*
X14733Y653550D01*
X13208Y652025D01*
X13208Y645923D01*
X14733Y644398D01*
X17784Y644398D01*
X19309Y645923D01*
X19309Y652025D01*
X17784Y653550D01*
X22563Y653550D02*
X22563Y645923D01*
X24088Y644398D01*
X27139Y644398D01*
X28664Y645923D01*
X28664Y653550D01*
X34969Y653550D02*
X34969Y644398D01*
X31918Y653550D02*
X38020Y653550D01*
X41274Y644398D02*
X47375Y644398D01*
X41274Y644398D02*
X47375Y650499D01*
X47375Y652025D01*
X45849Y653550D01*
X42799Y653550D01*
X41274Y652025D01*
X50629Y644398D02*
X56730Y653550D01*
X64560Y653550D02*
X66085Y652025D01*
X64560Y653550D02*
X61509Y653550D01*
X59984Y652025D01*
X59984Y645923D01*
X61509Y644398D01*
X64560Y644398D01*
X66085Y645923D01*
X66085Y648974D01*
X63035Y648974D01*
X69339Y644398D02*
X69339Y653550D01*
X75440Y644398D01*
X75440Y653550D01*
X78694Y653550D02*
X78694Y644398D01*
X83270Y644398D01*
X84796Y645923D01*
X84796Y652025D01*
X83270Y653550D01*
X78694Y653550D01*
D11*
X628650Y444500D02*
X641350Y444500D01*
X647700Y438150D01*
X647700Y425450D02*
X641350Y419100D01*
X647700Y438150D02*
X654050Y444500D01*
X666750Y444500D01*
X673100Y438150D01*
X673100Y425450D02*
X666750Y419100D01*
X654050Y419100D01*
X647700Y425450D01*
X622300Y425450D02*
X622300Y438150D01*
X628650Y444500D01*
X622300Y425450D02*
X628650Y419100D01*
X641350Y419100D01*
X673100Y438150D02*
X679450Y444500D01*
X692150Y444500D01*
X698500Y438150D01*
X698500Y425450D02*
X692150Y419100D01*
X679450Y419100D01*
X673100Y425450D01*
X704850Y444500D02*
X717550Y444500D01*
X723900Y438150D01*
X723900Y425450D02*
X717550Y419100D01*
X723900Y438150D02*
X730250Y444500D01*
X742950Y444500D01*
X749300Y438150D01*
X749300Y425450D02*
X742950Y419100D01*
X730250Y419100D01*
X723900Y425450D01*
X704850Y444500D02*
X698500Y438150D01*
X698500Y425450D02*
X704850Y419100D01*
X717550Y419100D01*
X749300Y438150D02*
X755650Y444500D01*
X768350Y444500D01*
X774700Y438150D01*
X774700Y425450D02*
X768350Y419100D01*
X755650Y419100D01*
X749300Y425450D01*
X774700Y425450D02*
X774700Y438150D01*
D14*
X633098Y414665D02*
X629285Y410852D01*
X633098Y414665D02*
X633098Y403225D01*
X629285Y403225D02*
X636912Y403225D01*
X760098Y458478D02*
X763912Y460385D01*
X760098Y458478D02*
X756285Y454665D01*
X756285Y450852D01*
X758192Y448945D01*
X762005Y448945D01*
X763912Y450852D01*
X763912Y452758D01*
X762005Y454665D01*
X756285Y454665D01*
X784215Y425455D02*
X786122Y427362D01*
X784215Y425455D02*
X784215Y421642D01*
X786122Y419735D01*
X788029Y419735D01*
X789935Y421642D01*
X789935Y425455D01*
X791842Y427362D01*
X793748Y427362D01*
X795655Y425455D01*
X795655Y421642D01*
X793748Y419735D01*
X791842Y431429D02*
X784215Y431429D01*
X791842Y431429D02*
X795655Y435242D01*
X791842Y439055D01*
X784215Y439055D01*
X795655Y443123D02*
X795655Y450749D01*
X795655Y443123D02*
X788029Y450749D01*
X786122Y450749D01*
X784215Y448843D01*
X784215Y445030D01*
X786122Y443123D01*
X673735Y414665D02*
X673735Y405132D01*
X675642Y403225D01*
X679455Y403225D01*
X681362Y405132D01*
X681362Y414665D01*
X685429Y414665D02*
X685429Y403225D01*
X685429Y414665D02*
X691149Y414665D01*
X693055Y412758D01*
X693055Y408945D01*
X691149Y407038D01*
X685429Y407038D01*
X697123Y414665D02*
X704749Y414665D01*
X697123Y414665D02*
X697123Y408945D01*
X700936Y410852D01*
X702843Y410852D01*
X704749Y408945D01*
X704749Y405132D01*
X702843Y403225D01*
X699030Y403225D01*
X697123Y405132D01*
X708817Y405132D02*
X708817Y412758D01*
X710724Y414665D01*
X714537Y414665D01*
X716443Y412758D01*
X716443Y405132D01*
X714537Y403225D01*
X710724Y403225D01*
X708817Y405132D01*
X716443Y412758D01*
X720511Y410852D02*
X724324Y414665D01*
X724324Y403225D01*
X720511Y403225D02*
X728137Y403225D01*
X622808Y417830D02*
X915670Y417830D01*
X622808Y417830D02*
X622808Y667766D01*
X915670Y667766D01*
X915670Y417830D01*
D11*
X889000Y572770D02*
X889000Y585470D01*
X895350Y591820D01*
X908050Y591820D02*
X914400Y585470D01*
X895350Y591820D02*
X889000Y598170D01*
X889000Y610870D01*
X895350Y617220D01*
X908050Y617220D02*
X914400Y610870D01*
X914400Y598170D01*
X908050Y591820D01*
X908050Y566420D02*
X895350Y566420D01*
X889000Y572770D01*
X908050Y566420D02*
X914400Y572770D01*
X914400Y585470D01*
X895350Y617220D02*
X889000Y623570D01*
X889000Y636270D01*
X895350Y642620D01*
X908050Y642620D02*
X914400Y636270D01*
X914400Y623570D01*
X908050Y617220D01*
X889000Y648970D02*
X889000Y661670D01*
X895350Y668020D01*
X908050Y668020D02*
X914400Y661670D01*
X895350Y668020D02*
X889000Y674370D01*
X889000Y687070D01*
X895350Y693420D01*
X908050Y693420D01*
X914400Y687070D01*
X914400Y674370D01*
X908050Y668020D01*
X889000Y648970D02*
X895350Y642620D01*
X908050Y642620D02*
X914400Y648970D01*
X914400Y661670D01*
D14*
X918835Y577218D02*
X922649Y573405D01*
X918835Y577218D02*
X930275Y577218D01*
X930275Y573405D02*
X930275Y581032D01*
X873115Y675005D02*
X873115Y682632D01*
X873115Y675005D02*
X878835Y675005D01*
X876929Y678818D01*
X876929Y680725D01*
X878835Y682632D01*
X882648Y682632D01*
X884555Y680725D01*
X884555Y676912D01*
X882648Y675005D01*
X875022Y574682D02*
X873115Y572775D01*
X873115Y568962D01*
X875022Y567055D01*
X876929Y567055D01*
X878835Y568962D01*
X878835Y572775D01*
X880742Y574682D01*
X882648Y574682D01*
X884555Y572775D01*
X884555Y568962D01*
X882648Y567055D01*
X880742Y578749D02*
X873115Y578749D01*
X880742Y578749D02*
X884555Y582562D01*
X880742Y586375D01*
X873115Y586375D01*
X875022Y590443D02*
X873115Y592350D01*
X873115Y596163D01*
X875022Y598069D01*
X876929Y598069D01*
X878835Y596163D01*
X878835Y594256D01*
X878835Y596163D02*
X880742Y598069D01*
X882648Y598069D01*
X884555Y596163D01*
X884555Y592350D01*
X882648Y590443D01*
X866775Y605155D02*
X855335Y605155D01*
X862962Y608968D02*
X866775Y605155D01*
X862962Y608968D02*
X866775Y612782D01*
X855335Y612782D01*
X859149Y616849D02*
X866775Y616849D01*
X859149Y616849D02*
X855335Y620662D01*
X859149Y624475D01*
X866775Y624475D01*
X861055Y624475D02*
X861055Y616849D01*
X862962Y628543D02*
X855335Y628543D01*
X862962Y628543D02*
X866775Y632356D01*
X862962Y636169D01*
X855335Y636169D01*
X855335Y645957D02*
X857242Y647863D01*
X855335Y645957D02*
X855335Y642144D01*
X857242Y640237D01*
X859149Y640237D01*
X861055Y642144D01*
X861055Y645957D01*
X862962Y647863D01*
X864868Y647863D01*
X866775Y645957D01*
X866775Y642144D01*
X864868Y640237D01*
X866775Y651931D02*
X855335Y651931D01*
X861055Y651931D02*
X861055Y659557D01*
X855335Y659557D02*
X866775Y659557D01*
X866775Y663625D02*
X855335Y663625D01*
X855335Y669345D01*
X857242Y671251D01*
X861055Y671251D01*
X862962Y669345D01*
X862962Y663625D01*
X862962Y667438D02*
X866775Y671251D01*
D11*
X850900Y317500D02*
X838200Y317500D01*
X831850Y323850D01*
X831850Y336550D02*
X838200Y342900D01*
X831850Y323850D02*
X825500Y317500D01*
X812800Y317500D01*
X806450Y323850D01*
X806450Y336550D02*
X812800Y342900D01*
X825500Y342900D01*
X831850Y336550D01*
X857250Y336550D02*
X857250Y323850D01*
X850900Y317500D01*
X857250Y336550D02*
X850900Y342900D01*
X838200Y342900D01*
X806450Y323850D02*
X800100Y317500D01*
X787400Y317500D01*
X781050Y323850D01*
X781050Y336550D02*
X787400Y342900D01*
X800100Y342900D01*
X806450Y336550D01*
X774700Y317500D02*
X762000Y317500D01*
X755650Y323850D01*
X755650Y336550D02*
X762000Y342900D01*
X755650Y323850D02*
X749300Y317500D01*
X736600Y317500D01*
X730250Y323850D01*
X730250Y336550D01*
X736600Y342900D01*
X749300Y342900D01*
X755650Y336550D01*
X774700Y317500D02*
X781050Y323850D01*
X781050Y336550D02*
X774700Y342900D01*
X762000Y342900D01*
D14*
X839841Y354972D02*
X843654Y358785D01*
X843654Y347345D01*
X839841Y347345D02*
X847468Y347345D01*
X745868Y313065D02*
X738241Y313065D01*
X738241Y307345D01*
X742054Y309252D01*
X743961Y309252D01*
X745868Y307345D01*
X745868Y303532D01*
X743961Y301625D01*
X740148Y301625D01*
X738241Y303532D01*
X879323Y325765D02*
X881230Y323858D01*
X879323Y325765D02*
X875510Y325765D01*
X873603Y323858D01*
X873603Y321952D01*
X875510Y320045D01*
X879323Y320045D01*
X881230Y318138D01*
X881230Y316232D01*
X879323Y314325D01*
X875510Y314325D01*
X873603Y316232D01*
X885297Y318138D02*
X885297Y325765D01*
X885297Y318138D02*
X889110Y314325D01*
X892924Y318138D01*
X892924Y325765D01*
X902711Y325765D02*
X902711Y314325D01*
X896991Y320045D02*
X902711Y325765D01*
X904617Y320045D02*
X896991Y320045D01*
X861909Y334645D02*
X861909Y346085D01*
X869536Y334645D01*
X869536Y346085D01*
X873603Y346085D02*
X881230Y346085D01*
X873603Y346085D02*
X873603Y334645D01*
X881230Y334645D01*
X877416Y340365D02*
X873603Y340365D01*
X887204Y346085D02*
X891017Y346085D01*
X887204Y346085D02*
X885297Y344178D01*
X885297Y336552D01*
X887204Y334645D01*
X891017Y334645D01*
X892923Y336552D01*
X892923Y344178D01*
X891017Y346085D01*
X896991Y346085D02*
X904617Y346085D01*
X904617Y344178D01*
X896991Y336552D01*
X896991Y334645D01*
D11*
X354330Y469900D02*
X351790Y469900D01*
X354330Y469900D02*
X354330Y467360D01*
X354330Y469900D02*
X356870Y469900D01*
X354330Y469900D02*
X354330Y472440D01*
X342900Y457200D02*
X342908Y457823D01*
X342931Y458446D01*
X342969Y459069D01*
X343022Y459690D01*
X343091Y460309D01*
X343175Y460927D01*
X343274Y461542D01*
X343388Y462155D01*
X343517Y462765D01*
X343661Y463372D01*
X343820Y463975D01*
X343994Y464573D01*
X344182Y465168D01*
X344385Y465757D01*
X344602Y466341D01*
X344833Y466920D01*
X345079Y467493D01*
X345339Y468060D01*
X345612Y468620D01*
X345899Y469173D01*
X346200Y469720D01*
X346514Y470258D01*
X346841Y470789D01*
X347181Y471311D01*
X347533Y471826D01*
X347899Y472331D01*
X348276Y472827D01*
X348666Y473314D01*
X349067Y473791D01*
X349480Y474258D01*
X349904Y474714D01*
X350339Y475161D01*
X350786Y475596D01*
X351242Y476020D01*
X351709Y476433D01*
X352186Y476834D01*
X352673Y477224D01*
X353169Y477601D01*
X353674Y477967D01*
X354189Y478319D01*
X354711Y478659D01*
X355242Y478986D01*
X355780Y479300D01*
X356327Y479601D01*
X356880Y479888D01*
X357440Y480161D01*
X358007Y480421D01*
X358580Y480667D01*
X359159Y480898D01*
X359743Y481115D01*
X360332Y481318D01*
X360927Y481506D01*
X361525Y481680D01*
X362128Y481839D01*
X362735Y481983D01*
X363345Y482112D01*
X363958Y482226D01*
X364573Y482325D01*
X365191Y482409D01*
X365810Y482478D01*
X366431Y482531D01*
X367054Y482569D01*
X367677Y482592D01*
X368300Y482600D01*
X368923Y482592D01*
X369546Y482569D01*
X370169Y482531D01*
X370790Y482478D01*
X371409Y482409D01*
X372027Y482325D01*
X372642Y482226D01*
X373255Y482112D01*
X373865Y481983D01*
X374472Y481839D01*
X375075Y481680D01*
X375673Y481506D01*
X376268Y481318D01*
X376857Y481115D01*
X377441Y480898D01*
X378020Y480667D01*
X378593Y480421D01*
X379160Y480161D01*
X379720Y479888D01*
X380273Y479601D01*
X380820Y479300D01*
X381358Y478986D01*
X381889Y478659D01*
X382411Y478319D01*
X382926Y477967D01*
X383431Y477601D01*
X383927Y477224D01*
X384414Y476834D01*
X384891Y476433D01*
X385358Y476020D01*
X385814Y475596D01*
X386261Y475161D01*
X386696Y474714D01*
X387120Y474258D01*
X387533Y473791D01*
X387934Y473314D01*
X388324Y472827D01*
X388701Y472331D01*
X389067Y471826D01*
X389419Y471311D01*
X389759Y470789D01*
X390086Y470258D01*
X390400Y469720D01*
X390701Y469173D01*
X390988Y468620D01*
X391261Y468060D01*
X391521Y467493D01*
X391767Y466920D01*
X391998Y466341D01*
X392215Y465757D01*
X392418Y465168D01*
X392606Y464573D01*
X392780Y463975D01*
X392939Y463372D01*
X393083Y462765D01*
X393212Y462155D01*
X393326Y461542D01*
X393425Y460927D01*
X393509Y460309D01*
X393578Y459690D01*
X393631Y459069D01*
X393669Y458446D01*
X393692Y457823D01*
X393700Y457200D01*
X393692Y456577D01*
X393669Y455954D01*
X393631Y455331D01*
X393578Y454710D01*
X393509Y454091D01*
X393425Y453473D01*
X393326Y452858D01*
X393212Y452245D01*
X393083Y451635D01*
X392939Y451028D01*
X392780Y450425D01*
X392606Y449827D01*
X392418Y449232D01*
X392215Y448643D01*
X391998Y448059D01*
X391767Y447480D01*
X391521Y446907D01*
X391261Y446340D01*
X390988Y445780D01*
X390701Y445227D01*
X390400Y444680D01*
X390086Y444142D01*
X389759Y443611D01*
X389419Y443089D01*
X389067Y442574D01*
X388701Y442069D01*
X388324Y441573D01*
X387934Y441086D01*
X387533Y440609D01*
X387120Y440142D01*
X386696Y439686D01*
X386261Y439239D01*
X385814Y438804D01*
X385358Y438380D01*
X384891Y437967D01*
X384414Y437566D01*
X383927Y437176D01*
X383431Y436799D01*
X382926Y436433D01*
X382411Y436081D01*
X381889Y435741D01*
X381358Y435414D01*
X380820Y435100D01*
X380273Y434799D01*
X379720Y434512D01*
X379160Y434239D01*
X378593Y433979D01*
X378020Y433733D01*
X377441Y433502D01*
X376857Y433285D01*
X376268Y433082D01*
X375673Y432894D01*
X375075Y432720D01*
X374472Y432561D01*
X373865Y432417D01*
X373255Y432288D01*
X372642Y432174D01*
X372027Y432075D01*
X371409Y431991D01*
X370790Y431922D01*
X370169Y431869D01*
X369546Y431831D01*
X368923Y431808D01*
X368300Y431800D01*
X367677Y431808D01*
X367054Y431831D01*
X366431Y431869D01*
X365810Y431922D01*
X365191Y431991D01*
X364573Y432075D01*
X363958Y432174D01*
X363345Y432288D01*
X362735Y432417D01*
X362128Y432561D01*
X361525Y432720D01*
X360927Y432894D01*
X360332Y433082D01*
X359743Y433285D01*
X359159Y433502D01*
X358580Y433733D01*
X358007Y433979D01*
X357440Y434239D01*
X356880Y434512D01*
X356327Y434799D01*
X355780Y435100D01*
X355242Y435414D01*
X354711Y435741D01*
X354189Y436081D01*
X353674Y436433D01*
X353169Y436799D01*
X352673Y437176D01*
X352186Y437566D01*
X351709Y437967D01*
X351242Y438380D01*
X350786Y438804D01*
X350339Y439239D01*
X349904Y439686D01*
X349480Y440142D01*
X349067Y440609D01*
X348666Y441086D01*
X348276Y441573D01*
X347899Y442069D01*
X347533Y442574D01*
X347181Y443089D01*
X346841Y443611D01*
X346514Y444142D01*
X346200Y444680D01*
X345899Y445227D01*
X345612Y445780D01*
X345339Y446340D01*
X345079Y446907D01*
X344833Y447480D01*
X344602Y448059D01*
X344385Y448643D01*
X344182Y449232D01*
X343994Y449827D01*
X343820Y450425D01*
X343661Y451028D01*
X343517Y451635D01*
X343388Y452245D01*
X343274Y452858D01*
X343175Y453473D01*
X343091Y454091D01*
X343022Y454710D01*
X342969Y455331D01*
X342931Y455954D01*
X342908Y456577D01*
X342900Y457200D01*
D14*
X324492Y467368D02*
X322585Y469275D01*
X318772Y469275D01*
X316865Y467368D01*
X316865Y459742D01*
X318772Y457835D01*
X322585Y457835D01*
X324492Y459742D01*
X328559Y457835D02*
X336185Y457835D01*
X328559Y457835D02*
X336185Y465462D01*
X336185Y467368D01*
X334279Y469275D01*
X330466Y469275D01*
X328559Y467368D01*
X307978Y483245D02*
X304165Y479432D01*
X307978Y483245D02*
X307978Y471805D01*
X304165Y471805D02*
X311792Y471805D01*
X315859Y473712D02*
X315859Y481338D01*
X317766Y483245D01*
X321579Y483245D01*
X323485Y481338D01*
X323485Y473712D01*
X321579Y471805D01*
X317766Y471805D01*
X315859Y473712D01*
X323485Y481338D01*
X327553Y479432D02*
X327553Y473712D01*
X329460Y471805D01*
X335179Y471805D01*
X335179Y479432D01*
X339247Y483245D02*
X339247Y471805D01*
X339247Y483245D02*
X346873Y483245D01*
X343060Y477525D02*
X339247Y477525D01*
D11*
X445770Y444500D02*
X448310Y444500D01*
X445770Y444500D02*
X445770Y447040D01*
X445770Y444500D02*
X443230Y444500D01*
X445770Y444500D02*
X445770Y441960D01*
X406400Y457200D02*
X406408Y457823D01*
X406431Y458446D01*
X406469Y459069D01*
X406522Y459690D01*
X406591Y460309D01*
X406675Y460927D01*
X406774Y461542D01*
X406888Y462155D01*
X407017Y462765D01*
X407161Y463372D01*
X407320Y463975D01*
X407494Y464573D01*
X407682Y465168D01*
X407885Y465757D01*
X408102Y466341D01*
X408333Y466920D01*
X408579Y467493D01*
X408839Y468060D01*
X409112Y468620D01*
X409399Y469173D01*
X409700Y469720D01*
X410014Y470258D01*
X410341Y470789D01*
X410681Y471311D01*
X411033Y471826D01*
X411399Y472331D01*
X411776Y472827D01*
X412166Y473314D01*
X412567Y473791D01*
X412980Y474258D01*
X413404Y474714D01*
X413839Y475161D01*
X414286Y475596D01*
X414742Y476020D01*
X415209Y476433D01*
X415686Y476834D01*
X416173Y477224D01*
X416669Y477601D01*
X417174Y477967D01*
X417689Y478319D01*
X418211Y478659D01*
X418742Y478986D01*
X419280Y479300D01*
X419827Y479601D01*
X420380Y479888D01*
X420940Y480161D01*
X421507Y480421D01*
X422080Y480667D01*
X422659Y480898D01*
X423243Y481115D01*
X423832Y481318D01*
X424427Y481506D01*
X425025Y481680D01*
X425628Y481839D01*
X426235Y481983D01*
X426845Y482112D01*
X427458Y482226D01*
X428073Y482325D01*
X428691Y482409D01*
X429310Y482478D01*
X429931Y482531D01*
X430554Y482569D01*
X431177Y482592D01*
X431800Y482600D01*
X432423Y482592D01*
X433046Y482569D01*
X433669Y482531D01*
X434290Y482478D01*
X434909Y482409D01*
X435527Y482325D01*
X436142Y482226D01*
X436755Y482112D01*
X437365Y481983D01*
X437972Y481839D01*
X438575Y481680D01*
X439173Y481506D01*
X439768Y481318D01*
X440357Y481115D01*
X440941Y480898D01*
X441520Y480667D01*
X442093Y480421D01*
X442660Y480161D01*
X443220Y479888D01*
X443773Y479601D01*
X444320Y479300D01*
X444858Y478986D01*
X445389Y478659D01*
X445911Y478319D01*
X446426Y477967D01*
X446931Y477601D01*
X447427Y477224D01*
X447914Y476834D01*
X448391Y476433D01*
X448858Y476020D01*
X449314Y475596D01*
X449761Y475161D01*
X450196Y474714D01*
X450620Y474258D01*
X451033Y473791D01*
X451434Y473314D01*
X451824Y472827D01*
X452201Y472331D01*
X452567Y471826D01*
X452919Y471311D01*
X453259Y470789D01*
X453586Y470258D01*
X453900Y469720D01*
X454201Y469173D01*
X454488Y468620D01*
X454761Y468060D01*
X455021Y467493D01*
X455267Y466920D01*
X455498Y466341D01*
X455715Y465757D01*
X455918Y465168D01*
X456106Y464573D01*
X456280Y463975D01*
X456439Y463372D01*
X456583Y462765D01*
X456712Y462155D01*
X456826Y461542D01*
X456925Y460927D01*
X457009Y460309D01*
X457078Y459690D01*
X457131Y459069D01*
X457169Y458446D01*
X457192Y457823D01*
X457200Y457200D01*
X457192Y456577D01*
X457169Y455954D01*
X457131Y455331D01*
X457078Y454710D01*
X457009Y454091D01*
X456925Y453473D01*
X456826Y452858D01*
X456712Y452245D01*
X456583Y451635D01*
X456439Y451028D01*
X456280Y450425D01*
X456106Y449827D01*
X455918Y449232D01*
X455715Y448643D01*
X455498Y448059D01*
X455267Y447480D01*
X455021Y446907D01*
X454761Y446340D01*
X454488Y445780D01*
X454201Y445227D01*
X453900Y444680D01*
X453586Y444142D01*
X453259Y443611D01*
X452919Y443089D01*
X452567Y442574D01*
X452201Y442069D01*
X451824Y441573D01*
X451434Y441086D01*
X451033Y440609D01*
X450620Y440142D01*
X450196Y439686D01*
X449761Y439239D01*
X449314Y438804D01*
X448858Y438380D01*
X448391Y437967D01*
X447914Y437566D01*
X447427Y437176D01*
X446931Y436799D01*
X446426Y436433D01*
X445911Y436081D01*
X445389Y435741D01*
X444858Y435414D01*
X444320Y435100D01*
X443773Y434799D01*
X443220Y434512D01*
X442660Y434239D01*
X442093Y433979D01*
X441520Y433733D01*
X440941Y433502D01*
X440357Y433285D01*
X439768Y433082D01*
X439173Y432894D01*
X438575Y432720D01*
X437972Y432561D01*
X437365Y432417D01*
X436755Y432288D01*
X436142Y432174D01*
X435527Y432075D01*
X434909Y431991D01*
X434290Y431922D01*
X433669Y431869D01*
X433046Y431831D01*
X432423Y431808D01*
X431800Y431800D01*
X431177Y431808D01*
X430554Y431831D01*
X429931Y431869D01*
X429310Y431922D01*
X428691Y431991D01*
X428073Y432075D01*
X427458Y432174D01*
X426845Y432288D01*
X426235Y432417D01*
X425628Y432561D01*
X425025Y432720D01*
X424427Y432894D01*
X423832Y433082D01*
X423243Y433285D01*
X422659Y433502D01*
X422080Y433733D01*
X421507Y433979D01*
X420940Y434239D01*
X420380Y434512D01*
X419827Y434799D01*
X419280Y435100D01*
X418742Y435414D01*
X418211Y435741D01*
X417689Y436081D01*
X417174Y436433D01*
X416669Y436799D01*
X416173Y437176D01*
X415686Y437566D01*
X415209Y437967D01*
X414742Y438380D01*
X414286Y438804D01*
X413839Y439239D01*
X413404Y439686D01*
X412980Y440142D01*
X412567Y440609D01*
X412166Y441086D01*
X411776Y441573D01*
X411399Y442069D01*
X411033Y442574D01*
X410681Y443089D01*
X410341Y443611D01*
X410014Y444142D01*
X409700Y444680D01*
X409399Y445227D01*
X409112Y445780D01*
X408839Y446340D01*
X408579Y446907D01*
X408333Y447480D01*
X408102Y448059D01*
X407885Y448643D01*
X407682Y449232D01*
X407494Y449827D01*
X407320Y450425D01*
X407161Y451028D01*
X407017Y451635D01*
X406888Y452245D01*
X406774Y452858D01*
X406675Y453473D01*
X406591Y454091D01*
X406522Y454710D01*
X406469Y455331D01*
X406431Y455954D01*
X406408Y456577D01*
X406400Y457200D01*
D14*
X428737Y431175D02*
X430644Y429268D01*
X428737Y431175D02*
X424924Y431175D01*
X423017Y429268D01*
X423017Y421642D01*
X424924Y419735D01*
X428737Y419735D01*
X430644Y421642D01*
X434711Y429268D02*
X436618Y431175D01*
X440431Y431175D01*
X442338Y429268D01*
X442338Y427362D01*
X440431Y425455D01*
X438524Y425455D01*
X440431Y425455D02*
X442338Y423548D01*
X442338Y421642D01*
X440431Y419735D01*
X436618Y419735D01*
X434711Y421642D01*
X416142Y417205D02*
X412329Y413392D01*
X416142Y417205D02*
X416142Y405765D01*
X412329Y405765D02*
X419956Y405765D01*
X424023Y407672D02*
X424023Y415298D01*
X425930Y417205D01*
X429743Y417205D01*
X431650Y415298D01*
X431650Y407672D01*
X429743Y405765D01*
X425930Y405765D01*
X424023Y407672D01*
X431650Y415298D01*
X435717Y413392D02*
X435717Y407672D01*
X437624Y405765D01*
X443343Y405765D01*
X443343Y413392D01*
X447411Y417205D02*
X447411Y405765D01*
X447411Y417205D02*
X455037Y417205D01*
X451224Y411485D02*
X447411Y411485D01*
D11*
X433070Y533400D02*
X328930Y533400D01*
X328930Y692150D02*
X433070Y692150D01*
X433070Y657860D02*
X433070Y533400D01*
X433070Y657860D02*
X424180Y657860D01*
X424180Y673100D01*
X433070Y673100D01*
X433070Y692150D01*
X328930Y657860D02*
X328930Y533400D01*
X328930Y657860D02*
X337820Y657860D01*
X337820Y673100D01*
X328930Y673100D01*
X328930Y692150D01*
D16*
X335280Y539750D02*
X426720Y539750D01*
X426720Y622300D01*
X335280Y622300D01*
X335280Y539750D01*
D11*
X362966Y657860D02*
X362971Y658303D01*
X362988Y658745D01*
X363015Y659187D01*
X363053Y659628D01*
X363102Y660068D01*
X363161Y660506D01*
X363232Y660943D01*
X363313Y661378D01*
X363404Y661811D01*
X363506Y662242D01*
X363619Y662670D01*
X363743Y663095D01*
X363876Y663517D01*
X364020Y663935D01*
X364174Y664350D01*
X364339Y664761D01*
X364513Y665168D01*
X364697Y665571D01*
X364892Y665968D01*
X365095Y666361D01*
X365309Y666749D01*
X365532Y667131D01*
X365764Y667508D01*
X366005Y667879D01*
X366256Y668244D01*
X366515Y668603D01*
X366783Y668955D01*
X367060Y669301D01*
X367344Y669639D01*
X367638Y669971D01*
X367939Y670295D01*
X368248Y670612D01*
X368565Y670921D01*
X368889Y671222D01*
X369221Y671516D01*
X369559Y671800D01*
X369905Y672077D01*
X370257Y672345D01*
X370616Y672604D01*
X370981Y672855D01*
X371352Y673096D01*
X371729Y673328D01*
X372111Y673551D01*
X372499Y673765D01*
X372892Y673968D01*
X373289Y674163D01*
X373692Y674347D01*
X374099Y674521D01*
X374510Y674686D01*
X374925Y674840D01*
X375343Y674984D01*
X375765Y675117D01*
X376190Y675241D01*
X376618Y675354D01*
X377049Y675456D01*
X377482Y675547D01*
X377917Y675628D01*
X378354Y675699D01*
X378792Y675758D01*
X379232Y675807D01*
X379673Y675845D01*
X380115Y675872D01*
X380557Y675889D01*
X381000Y675894D01*
X381443Y675889D01*
X381885Y675872D01*
X382327Y675845D01*
X382768Y675807D01*
X383208Y675758D01*
X383646Y675699D01*
X384083Y675628D01*
X384518Y675547D01*
X384951Y675456D01*
X385382Y675354D01*
X385810Y675241D01*
X386235Y675117D01*
X386657Y674984D01*
X387075Y674840D01*
X387490Y674686D01*
X387901Y674521D01*
X388308Y674347D01*
X388711Y674163D01*
X389108Y673968D01*
X389501Y673765D01*
X389889Y673551D01*
X390271Y673328D01*
X390648Y673096D01*
X391019Y672855D01*
X391384Y672604D01*
X391743Y672345D01*
X392095Y672077D01*
X392441Y671800D01*
X392779Y671516D01*
X393111Y671222D01*
X393435Y670921D01*
X393752Y670612D01*
X394061Y670295D01*
X394362Y669971D01*
X394656Y669639D01*
X394940Y669301D01*
X395217Y668955D01*
X395485Y668603D01*
X395744Y668244D01*
X395995Y667879D01*
X396236Y667508D01*
X396468Y667131D01*
X396691Y666749D01*
X396905Y666361D01*
X397108Y665968D01*
X397303Y665571D01*
X397487Y665168D01*
X397661Y664761D01*
X397826Y664350D01*
X397980Y663935D01*
X398124Y663517D01*
X398257Y663095D01*
X398381Y662670D01*
X398494Y662242D01*
X398596Y661811D01*
X398687Y661378D01*
X398768Y660943D01*
X398839Y660506D01*
X398898Y660068D01*
X398947Y659628D01*
X398985Y659187D01*
X399012Y658745D01*
X399029Y658303D01*
X399034Y657860D01*
X399029Y657417D01*
X399012Y656975D01*
X398985Y656533D01*
X398947Y656092D01*
X398898Y655652D01*
X398839Y655214D01*
X398768Y654777D01*
X398687Y654342D01*
X398596Y653909D01*
X398494Y653478D01*
X398381Y653050D01*
X398257Y652625D01*
X398124Y652203D01*
X397980Y651785D01*
X397826Y651370D01*
X397661Y650959D01*
X397487Y650552D01*
X397303Y650149D01*
X397108Y649752D01*
X396905Y649359D01*
X396691Y648971D01*
X396468Y648589D01*
X396236Y648212D01*
X395995Y647841D01*
X395744Y647476D01*
X395485Y647117D01*
X395217Y646765D01*
X394940Y646419D01*
X394656Y646081D01*
X394362Y645749D01*
X394061Y645425D01*
X393752Y645108D01*
X393435Y644799D01*
X393111Y644498D01*
X392779Y644204D01*
X392441Y643920D01*
X392095Y643643D01*
X391743Y643375D01*
X391384Y643116D01*
X391019Y642865D01*
X390648Y642624D01*
X390271Y642392D01*
X389889Y642169D01*
X389501Y641955D01*
X389108Y641752D01*
X388711Y641557D01*
X388308Y641373D01*
X387901Y641199D01*
X387490Y641034D01*
X387075Y640880D01*
X386657Y640736D01*
X386235Y640603D01*
X385810Y640479D01*
X385382Y640366D01*
X384951Y640264D01*
X384518Y640173D01*
X384083Y640092D01*
X383646Y640021D01*
X383208Y639962D01*
X382768Y639913D01*
X382327Y639875D01*
X381885Y639848D01*
X381443Y639831D01*
X381000Y639826D01*
X380557Y639831D01*
X380115Y639848D01*
X379673Y639875D01*
X379232Y639913D01*
X378792Y639962D01*
X378354Y640021D01*
X377917Y640092D01*
X377482Y640173D01*
X377049Y640264D01*
X376618Y640366D01*
X376190Y640479D01*
X375765Y640603D01*
X375343Y640736D01*
X374925Y640880D01*
X374510Y641034D01*
X374099Y641199D01*
X373692Y641373D01*
X373289Y641557D01*
X372892Y641752D01*
X372499Y641955D01*
X372111Y642169D01*
X371729Y642392D01*
X371352Y642624D01*
X370981Y642865D01*
X370616Y643116D01*
X370257Y643375D01*
X369905Y643643D01*
X369559Y643920D01*
X369221Y644204D01*
X368889Y644498D01*
X368565Y644799D01*
X368248Y645108D01*
X367939Y645425D01*
X367638Y645749D01*
X367344Y646081D01*
X367060Y646419D01*
X366783Y646765D01*
X366515Y647117D01*
X366256Y647476D01*
X366005Y647841D01*
X365764Y648212D01*
X365532Y648589D01*
X365309Y648971D01*
X365095Y649359D01*
X364892Y649752D01*
X364697Y650149D01*
X364513Y650552D01*
X364339Y650959D01*
X364174Y651370D01*
X364020Y651785D01*
X363876Y652203D01*
X363743Y652625D01*
X363619Y653050D01*
X363506Y653478D01*
X363404Y653909D01*
X363313Y654342D01*
X363232Y654777D01*
X363161Y655214D01*
X363102Y655652D01*
X363053Y656092D01*
X363015Y656533D01*
X362988Y656975D01*
X362971Y657417D01*
X362966Y657860D01*
D17*
X406400Y502285D03*
X381000Y502285D03*
X355600Y502285D03*
D18*
X355600Y519430D03*
X381000Y519430D03*
X406400Y519430D03*
D15*
X325501Y506608D02*
X325501Y501269D01*
X325501Y503938D02*
X309485Y503938D01*
X309485Y501269D02*
X309485Y506608D01*
X309485Y520191D02*
X312155Y522861D01*
X309485Y520191D02*
X309485Y514853D01*
X312155Y512183D01*
X322832Y512183D01*
X325501Y514853D01*
X325501Y520191D01*
X322832Y522861D01*
X309485Y528555D02*
X309485Y539232D01*
X309485Y528555D02*
X317493Y528555D01*
X314824Y533894D01*
X314824Y536563D01*
X317493Y539232D01*
X322832Y539232D01*
X325501Y536563D01*
X325501Y531224D01*
X322832Y528555D01*
X437755Y499999D02*
X453771Y499999D01*
X453771Y510676D01*
X453771Y516371D02*
X437755Y516371D01*
X443094Y521709D01*
X437755Y527048D01*
X453771Y527048D01*
X440425Y532742D02*
X437755Y535411D01*
X437755Y540750D01*
X440425Y543419D01*
X443094Y543419D01*
X445763Y540750D01*
X445763Y538081D01*
X445763Y540750D02*
X448432Y543419D01*
X451102Y543419D01*
X453771Y540750D01*
X453771Y535411D01*
X451102Y532742D01*
X451102Y549114D02*
X453771Y551783D01*
X453771Y557122D01*
X451102Y559791D01*
X440425Y559791D01*
X437755Y557122D01*
X437755Y551783D01*
X440425Y549114D01*
X443094Y549114D01*
X445763Y551783D01*
X445763Y559791D01*
X453771Y573493D02*
X437755Y573493D01*
X445763Y565485D01*
X445763Y576162D01*
X440425Y581857D02*
X451102Y581857D01*
X440425Y581857D02*
X437755Y584526D01*
X437755Y589865D01*
X440425Y592534D01*
X451102Y592534D01*
X453771Y589865D01*
X453771Y584526D01*
X451102Y581857D01*
X440425Y592534D01*
X445763Y598228D02*
X445763Y608906D01*
X440425Y614600D02*
X437755Y617269D01*
X437755Y622608D01*
X440425Y625277D01*
X443094Y625277D01*
X445763Y622608D01*
X445763Y619939D01*
X445763Y622608D02*
X448432Y625277D01*
X451102Y625277D01*
X453771Y622608D01*
X453771Y617269D01*
X451102Y614600D01*
X451102Y630972D02*
X453771Y630972D01*
X451102Y630972D02*
X451102Y633641D01*
X453771Y633641D01*
X453771Y630972D01*
X440425Y639157D02*
X437755Y641827D01*
X437755Y647165D01*
X440425Y649834D01*
X443094Y649834D01*
X445763Y647165D01*
X445763Y644496D01*
X445763Y647165D02*
X448432Y649834D01*
X451102Y649834D01*
X453771Y647165D01*
X453771Y641827D01*
X451102Y639157D01*
D14*
X0Y0D02*
X939800Y0D01*
X939800Y723900D01*
X0Y723900D01*
X0Y0D01*
D11*
X628650Y25400D02*
X641350Y25400D01*
X628650Y25400D02*
X622300Y31750D01*
X615950Y25400D01*
X603250Y25400D01*
X596900Y31750D01*
X641350Y25400D02*
X647700Y31750D01*
X596900Y31750D02*
X590550Y25400D01*
X577850Y25400D01*
X571500Y31750D01*
X565150Y25400D02*
X552450Y25400D01*
X546100Y31750D01*
X539750Y25400D01*
X527050Y25400D01*
X520700Y31750D01*
X565150Y25400D02*
X571500Y31750D01*
X520700Y31750D02*
X514350Y25400D01*
X501650Y25400D01*
X495300Y31750D01*
X622300Y69850D02*
X628650Y76200D01*
X603250Y76200D02*
X596900Y69850D01*
X603250Y76200D02*
X615950Y76200D01*
X622300Y69850D01*
X647700Y69850D02*
X647700Y31750D01*
X647700Y69850D02*
X641350Y76200D01*
X628650Y76200D01*
X577850Y76200D02*
X571500Y69850D01*
X577850Y76200D02*
X590550Y76200D01*
X596900Y69850D01*
X552450Y76200D02*
X546100Y69850D01*
X527050Y76200D02*
X520700Y69850D01*
X527050Y76200D02*
X539750Y76200D01*
X546100Y69850D01*
X565150Y76200D02*
X571500Y69850D01*
X565150Y76200D02*
X552450Y76200D01*
X501650Y76200D02*
X495300Y69850D01*
X501650Y76200D02*
X514350Y76200D01*
X520700Y69850D01*
X476250Y25400D02*
X469900Y31750D01*
X476250Y25400D02*
X488950Y25400D01*
X495300Y31750D01*
X495300Y69850D02*
X488950Y76200D01*
X476250Y76200D01*
X469900Y69850D01*
X463550Y25400D02*
X450850Y25400D01*
X444500Y31750D01*
X438150Y25400D01*
X425450Y25400D01*
X419100Y31750D01*
X463550Y25400D02*
X469900Y31750D01*
X419100Y31750D02*
X412750Y25400D01*
X400050Y25400D01*
X393700Y31750D01*
X387350Y25400D02*
X374650Y25400D01*
X368300Y31750D01*
X361950Y25400D01*
X349250Y25400D01*
X342900Y31750D01*
X387350Y25400D02*
X393700Y31750D01*
X342900Y31750D02*
X336550Y25400D01*
X323850Y25400D01*
X317500Y31750D01*
X444500Y69850D02*
X450850Y76200D01*
X425450Y76200D02*
X419100Y69850D01*
X425450Y76200D02*
X438150Y76200D01*
X444500Y69850D01*
X463550Y76200D02*
X469900Y69850D01*
X463550Y76200D02*
X450850Y76200D01*
X400050Y76200D02*
X393700Y69850D01*
X400050Y76200D02*
X412750Y76200D01*
X419100Y69850D01*
X374650Y76200D02*
X368300Y69850D01*
X349250Y76200D02*
X342900Y69850D01*
X349250Y76200D02*
X361950Y76200D01*
X368300Y69850D01*
X387350Y76200D02*
X393700Y69850D01*
X387350Y76200D02*
X374650Y76200D01*
X323850Y76200D02*
X317500Y69850D01*
X323850Y76200D02*
X336550Y76200D01*
X342900Y69850D01*
X298450Y25400D02*
X292100Y31750D01*
X298450Y25400D02*
X311150Y25400D01*
X317500Y31750D01*
X317500Y69850D02*
X311150Y76200D01*
X298450Y76200D01*
X292100Y69850D01*
X285750Y25400D02*
X273050Y25400D01*
X266700Y31750D01*
X260350Y25400D01*
X247650Y25400D01*
X241300Y31750D01*
X285750Y25400D02*
X292100Y31750D01*
X241300Y31750D02*
X234950Y25400D01*
X222250Y25400D01*
X215900Y31750D01*
X209550Y25400D02*
X196850Y25400D01*
X190500Y31750D01*
X209550Y25400D02*
X215900Y31750D01*
X266700Y69850D02*
X273050Y76200D01*
X247650Y76200D02*
X241300Y69850D01*
X247650Y76200D02*
X260350Y76200D01*
X266700Y69850D01*
X285750Y76200D02*
X292100Y69850D01*
X285750Y76200D02*
X273050Y76200D01*
X222250Y76200D02*
X215900Y69850D01*
X222250Y76200D02*
X234950Y76200D01*
X241300Y69850D01*
X196850Y76200D02*
X190500Y69850D01*
X209550Y76200D02*
X215900Y69850D01*
X209550Y76200D02*
X196850Y76200D01*
D19*
X635000Y63500D03*
D11*
X190500Y69850D02*
X190500Y31750D01*
D14*
X613253Y20965D02*
X613253Y11432D01*
X615160Y9525D01*
X618973Y9525D01*
X620880Y11432D01*
X620880Y20965D01*
X624947Y11432D02*
X626854Y9525D01*
X630667Y9525D01*
X632574Y11432D01*
X632574Y13338D01*
X630667Y15245D01*
X626854Y15245D01*
X624947Y17152D01*
X624947Y19058D01*
X626854Y20965D01*
X630667Y20965D01*
X632574Y19058D01*
X628760Y22871D02*
X628760Y7618D01*
X636641Y17152D02*
X640454Y20965D01*
X640454Y9525D01*
X636641Y9525D02*
X644267Y9525D01*
D11*
X800100Y223520D02*
X800102Y223620D01*
X800108Y223719D01*
X800118Y223819D01*
X800131Y223917D01*
X800149Y224016D01*
X800170Y224113D01*
X800195Y224209D01*
X800224Y224305D01*
X800257Y224399D01*
X800293Y224492D01*
X800333Y224583D01*
X800377Y224673D01*
X800424Y224761D01*
X800474Y224847D01*
X800528Y224931D01*
X800585Y225013D01*
X800645Y225092D01*
X800709Y225170D01*
X800775Y225244D01*
X800844Y225316D01*
X800916Y225385D01*
X800990Y225451D01*
X801068Y225515D01*
X801147Y225575D01*
X801229Y225632D01*
X801313Y225686D01*
X801399Y225736D01*
X801487Y225783D01*
X801577Y225827D01*
X801668Y225867D01*
X801761Y225903D01*
X801855Y225936D01*
X801951Y225965D01*
X802047Y225990D01*
X802144Y226011D01*
X802243Y226029D01*
X802341Y226042D01*
X802441Y226052D01*
X802540Y226058D01*
X802640Y226060D01*
X800100Y208280D02*
X800102Y208180D01*
X800108Y208081D01*
X800118Y207981D01*
X800131Y207883D01*
X800149Y207784D01*
X800170Y207687D01*
X800195Y207591D01*
X800224Y207495D01*
X800257Y207401D01*
X800293Y207308D01*
X800333Y207217D01*
X800377Y207127D01*
X800424Y207039D01*
X800474Y206953D01*
X800528Y206869D01*
X800585Y206787D01*
X800645Y206708D01*
X800709Y206630D01*
X800775Y206556D01*
X800844Y206484D01*
X800916Y206415D01*
X800990Y206349D01*
X801068Y206285D01*
X801147Y206225D01*
X801229Y206168D01*
X801313Y206114D01*
X801399Y206064D01*
X801487Y206017D01*
X801577Y205973D01*
X801668Y205933D01*
X801761Y205897D01*
X801855Y205864D01*
X801951Y205835D01*
X802047Y205810D01*
X802144Y205789D01*
X802243Y205771D01*
X802341Y205758D01*
X802441Y205748D01*
X802540Y205742D01*
X802640Y205740D01*
X848360Y205740D02*
X848460Y205742D01*
X848559Y205748D01*
X848659Y205758D01*
X848757Y205771D01*
X848856Y205789D01*
X848953Y205810D01*
X849049Y205835D01*
X849145Y205864D01*
X849239Y205897D01*
X849332Y205933D01*
X849423Y205973D01*
X849513Y206017D01*
X849601Y206064D01*
X849687Y206114D01*
X849771Y206168D01*
X849853Y206225D01*
X849932Y206285D01*
X850010Y206349D01*
X850084Y206415D01*
X850156Y206484D01*
X850225Y206556D01*
X850291Y206630D01*
X850355Y206708D01*
X850415Y206787D01*
X850472Y206869D01*
X850526Y206953D01*
X850576Y207039D01*
X850623Y207127D01*
X850667Y207217D01*
X850707Y207308D01*
X850743Y207401D01*
X850776Y207495D01*
X850805Y207591D01*
X850830Y207687D01*
X850851Y207784D01*
X850869Y207883D01*
X850882Y207981D01*
X850892Y208081D01*
X850898Y208180D01*
X850900Y208280D01*
X850900Y223520D02*
X850898Y223620D01*
X850892Y223719D01*
X850882Y223819D01*
X850869Y223917D01*
X850851Y224016D01*
X850830Y224113D01*
X850805Y224209D01*
X850776Y224305D01*
X850743Y224399D01*
X850707Y224492D01*
X850667Y224583D01*
X850623Y224673D01*
X850576Y224761D01*
X850526Y224847D01*
X850472Y224931D01*
X850415Y225013D01*
X850355Y225092D01*
X850291Y225170D01*
X850225Y225244D01*
X850156Y225316D01*
X850084Y225385D01*
X850010Y225451D01*
X849932Y225515D01*
X849853Y225575D01*
X849771Y225632D01*
X849687Y225686D01*
X849601Y225736D01*
X849513Y225783D01*
X849423Y225827D01*
X849332Y225867D01*
X849239Y225903D01*
X849145Y225936D01*
X849049Y225965D01*
X848953Y225990D01*
X848856Y226011D01*
X848757Y226029D01*
X848659Y226042D01*
X848559Y226052D01*
X848460Y226058D01*
X848360Y226060D01*
X800100Y223520D02*
X800100Y208280D01*
X802640Y226060D02*
X806450Y226060D01*
X807720Y224790D01*
X806450Y205740D02*
X802640Y205740D01*
X806450Y205740D02*
X807720Y207010D01*
X843280Y224790D02*
X844550Y226060D01*
X843280Y224790D02*
X807720Y224790D01*
X843280Y207010D02*
X844550Y205740D01*
X843280Y207010D02*
X807720Y207010D01*
X844550Y226060D02*
X848360Y226060D01*
X848360Y205740D02*
X844550Y205740D01*
X850900Y208280D02*
X850900Y223520D01*
D20*
X852805Y215900D03*
X798195Y215900D03*
D10*
X800608Y229362D02*
X800608Y238260D01*
X805057Y238260D01*
X806540Y236777D01*
X806540Y233811D01*
X805057Y232328D01*
X800608Y232328D01*
X803574Y232328D02*
X806540Y229362D01*
X809729Y235294D02*
X812695Y238260D01*
X812695Y229362D01*
X809729Y229362D02*
X815661Y229362D01*
X812718Y220480D02*
X809752Y217514D01*
X812718Y220480D02*
X812718Y211582D01*
X809752Y211582D02*
X815684Y211582D01*
X818873Y211582D02*
X818873Y220480D01*
X818873Y214548D02*
X824805Y220480D01*
X820356Y216031D02*
X824805Y211582D01*
D11*
X838200Y266700D02*
X844550Y266700D01*
X828040Y260350D02*
X828040Y273050D01*
X838200Y266700D01*
X822960Y266700D01*
X828040Y260350D02*
X838200Y266700D01*
X838200Y260350D01*
X838200Y266700D02*
X838200Y273050D01*
X817880Y256540D02*
X817780Y256542D01*
X817681Y256548D01*
X817581Y256558D01*
X817483Y256571D01*
X817384Y256589D01*
X817287Y256610D01*
X817191Y256635D01*
X817095Y256664D01*
X817001Y256697D01*
X816908Y256733D01*
X816817Y256773D01*
X816727Y256817D01*
X816639Y256864D01*
X816553Y256914D01*
X816469Y256968D01*
X816387Y257025D01*
X816308Y257085D01*
X816230Y257149D01*
X816156Y257215D01*
X816084Y257284D01*
X816015Y257356D01*
X815949Y257430D01*
X815885Y257508D01*
X815825Y257587D01*
X815768Y257669D01*
X815714Y257753D01*
X815664Y257839D01*
X815617Y257927D01*
X815573Y258017D01*
X815533Y258108D01*
X815497Y258201D01*
X815464Y258295D01*
X815435Y258391D01*
X815410Y258487D01*
X815389Y258584D01*
X815371Y258683D01*
X815358Y258781D01*
X815348Y258881D01*
X815342Y258980D01*
X815340Y259080D01*
X815340Y274320D01*
X815342Y274420D01*
X815348Y274519D01*
X815358Y274619D01*
X815371Y274717D01*
X815389Y274816D01*
X815410Y274913D01*
X815435Y275009D01*
X815464Y275105D01*
X815497Y275199D01*
X815533Y275292D01*
X815573Y275383D01*
X815617Y275473D01*
X815664Y275561D01*
X815714Y275647D01*
X815768Y275731D01*
X815825Y275813D01*
X815885Y275892D01*
X815949Y275970D01*
X816015Y276044D01*
X816084Y276116D01*
X816156Y276185D01*
X816230Y276251D01*
X816308Y276315D01*
X816387Y276375D01*
X816469Y276432D01*
X816553Y276486D01*
X816639Y276536D01*
X816727Y276583D01*
X816817Y276627D01*
X816908Y276667D01*
X817001Y276703D01*
X817095Y276736D01*
X817191Y276765D01*
X817287Y276790D01*
X817384Y276811D01*
X817483Y276829D01*
X817581Y276842D01*
X817681Y276852D01*
X817780Y276858D01*
X817880Y276860D01*
X858520Y256540D02*
X858620Y256542D01*
X858719Y256548D01*
X858819Y256558D01*
X858917Y256571D01*
X859016Y256589D01*
X859113Y256610D01*
X859209Y256635D01*
X859305Y256664D01*
X859399Y256697D01*
X859492Y256733D01*
X859583Y256773D01*
X859673Y256817D01*
X859761Y256864D01*
X859847Y256914D01*
X859931Y256968D01*
X860013Y257025D01*
X860092Y257085D01*
X860170Y257149D01*
X860244Y257215D01*
X860316Y257284D01*
X860385Y257356D01*
X860451Y257430D01*
X860515Y257508D01*
X860575Y257587D01*
X860632Y257669D01*
X860686Y257753D01*
X860736Y257839D01*
X860783Y257927D01*
X860827Y258017D01*
X860867Y258108D01*
X860903Y258201D01*
X860936Y258295D01*
X860965Y258391D01*
X860990Y258487D01*
X861011Y258584D01*
X861029Y258683D01*
X861042Y258781D01*
X861052Y258881D01*
X861058Y258980D01*
X861060Y259080D01*
X861060Y274320D02*
X861058Y274420D01*
X861052Y274519D01*
X861042Y274619D01*
X861029Y274717D01*
X861011Y274816D01*
X860990Y274913D01*
X860965Y275009D01*
X860936Y275105D01*
X860903Y275199D01*
X860867Y275292D01*
X860827Y275383D01*
X860783Y275473D01*
X860736Y275561D01*
X860686Y275647D01*
X860632Y275731D01*
X860575Y275813D01*
X860515Y275892D01*
X860451Y275970D01*
X860385Y276044D01*
X860316Y276116D01*
X860244Y276185D01*
X860170Y276251D01*
X860092Y276315D01*
X860013Y276375D01*
X859931Y276432D01*
X859847Y276486D01*
X859761Y276536D01*
X859673Y276583D01*
X859583Y276627D01*
X859492Y276667D01*
X859399Y276703D01*
X859305Y276736D01*
X859209Y276765D01*
X859113Y276790D01*
X859016Y276811D01*
X858917Y276829D01*
X858819Y276842D01*
X858719Y276852D01*
X858620Y276858D01*
X858520Y276860D01*
X817880Y276860D01*
X861060Y274320D02*
X861060Y259080D01*
X858520Y256540D02*
X817880Y256540D01*
D21*
X854710Y266700D03*
D22*
X812165Y266700D03*
X864235Y266700D03*
D14*
X838307Y253375D02*
X838307Y241935D01*
X844027Y241935D01*
X845934Y243842D01*
X845934Y251468D01*
X844027Y253375D01*
X838307Y253375D01*
X850001Y249562D02*
X853814Y253375D01*
X853814Y241935D01*
X850001Y241935D02*
X857628Y241935D01*
X763280Y292745D02*
X759467Y288932D01*
X763280Y292745D02*
X763280Y281305D01*
X759467Y281305D02*
X767094Y281305D01*
X771161Y281305D02*
X771161Y292745D01*
X778788Y281305D01*
X778788Y292745D01*
X788575Y292745D02*
X788575Y281305D01*
X782855Y287025D02*
X788575Y292745D01*
X790482Y287025D02*
X782855Y287025D01*
X794549Y288932D02*
X798362Y292745D01*
X798362Y281305D01*
X794549Y281305D02*
X802175Y281305D01*
X811963Y281305D02*
X811963Y292745D01*
X806243Y287025D01*
X813869Y287025D01*
X817937Y290838D02*
X819844Y292745D01*
X823657Y292745D01*
X825563Y290838D01*
X825563Y288932D01*
X823657Y287025D01*
X825563Y285118D01*
X825563Y283212D01*
X823657Y281305D01*
X819844Y281305D01*
X817937Y283212D01*
X817937Y285118D01*
X819844Y287025D01*
X817937Y288932D01*
X817937Y290838D01*
X819844Y287025D02*
X823657Y287025D01*
X829631Y292745D02*
X829631Y281305D01*
X835351Y281305D01*
X837257Y283212D01*
X837257Y290838D01*
X835351Y292745D01*
X829631Y292745D01*
X843231Y292745D02*
X847045Y292745D01*
X843231Y292745D02*
X841325Y290838D01*
X841325Y283212D01*
X843231Y281305D01*
X847045Y281305D01*
X848951Y283212D01*
X848951Y290838D01*
X847045Y292745D01*
X853019Y290838D02*
X854925Y292745D01*
X858739Y292745D01*
X860645Y290838D01*
X860645Y288932D01*
X858739Y287025D01*
X856832Y287025D01*
X858739Y287025D02*
X860645Y285118D01*
X860645Y283212D01*
X858739Y281305D01*
X854925Y281305D01*
X853019Y283212D01*
X864713Y292745D02*
X872339Y292745D01*
X864713Y292745D02*
X864713Y287025D01*
X868526Y288932D01*
X870433Y288932D01*
X872339Y287025D01*
X872339Y283212D01*
X870433Y281305D01*
X866619Y281305D01*
X864713Y283212D01*
X876407Y287025D02*
X884033Y287025D01*
X888101Y292745D02*
X895727Y292745D01*
X895727Y290838D01*
X888101Y283212D01*
X888101Y281305D01*
D11*
X802640Y187960D02*
X802540Y187958D01*
X802441Y187952D01*
X802341Y187942D01*
X802243Y187929D01*
X802144Y187911D01*
X802047Y187890D01*
X801951Y187865D01*
X801855Y187836D01*
X801761Y187803D01*
X801668Y187767D01*
X801577Y187727D01*
X801487Y187683D01*
X801399Y187636D01*
X801313Y187586D01*
X801229Y187532D01*
X801147Y187475D01*
X801068Y187415D01*
X800990Y187351D01*
X800916Y187285D01*
X800844Y187216D01*
X800775Y187144D01*
X800709Y187070D01*
X800645Y186992D01*
X800585Y186913D01*
X800528Y186831D01*
X800474Y186747D01*
X800424Y186661D01*
X800377Y186573D01*
X800333Y186483D01*
X800293Y186392D01*
X800257Y186299D01*
X800224Y186205D01*
X800195Y186109D01*
X800170Y186013D01*
X800149Y185916D01*
X800131Y185817D01*
X800118Y185719D01*
X800108Y185619D01*
X800102Y185520D01*
X800100Y185420D01*
X800100Y170180D02*
X800102Y170080D01*
X800108Y169981D01*
X800118Y169881D01*
X800131Y169783D01*
X800149Y169684D01*
X800170Y169587D01*
X800195Y169491D01*
X800224Y169395D01*
X800257Y169301D01*
X800293Y169208D01*
X800333Y169117D01*
X800377Y169027D01*
X800424Y168939D01*
X800474Y168853D01*
X800528Y168769D01*
X800585Y168687D01*
X800645Y168608D01*
X800709Y168530D01*
X800775Y168456D01*
X800844Y168384D01*
X800916Y168315D01*
X800990Y168249D01*
X801068Y168185D01*
X801147Y168125D01*
X801229Y168068D01*
X801313Y168014D01*
X801399Y167964D01*
X801487Y167917D01*
X801577Y167873D01*
X801668Y167833D01*
X801761Y167797D01*
X801855Y167764D01*
X801951Y167735D01*
X802047Y167710D01*
X802144Y167689D01*
X802243Y167671D01*
X802341Y167658D01*
X802441Y167648D01*
X802540Y167642D01*
X802640Y167640D01*
X848360Y167640D02*
X848460Y167642D01*
X848559Y167648D01*
X848659Y167658D01*
X848757Y167671D01*
X848856Y167689D01*
X848953Y167710D01*
X849049Y167735D01*
X849145Y167764D01*
X849239Y167797D01*
X849332Y167833D01*
X849423Y167873D01*
X849513Y167917D01*
X849601Y167964D01*
X849687Y168014D01*
X849771Y168068D01*
X849853Y168125D01*
X849932Y168185D01*
X850010Y168249D01*
X850084Y168315D01*
X850156Y168384D01*
X850225Y168456D01*
X850291Y168530D01*
X850355Y168608D01*
X850415Y168687D01*
X850472Y168769D01*
X850526Y168853D01*
X850576Y168939D01*
X850623Y169027D01*
X850667Y169117D01*
X850707Y169208D01*
X850743Y169301D01*
X850776Y169395D01*
X850805Y169491D01*
X850830Y169587D01*
X850851Y169684D01*
X850869Y169783D01*
X850882Y169881D01*
X850892Y169981D01*
X850898Y170080D01*
X850900Y170180D01*
X850900Y185420D02*
X850898Y185520D01*
X850892Y185619D01*
X850882Y185719D01*
X850869Y185817D01*
X850851Y185916D01*
X850830Y186013D01*
X850805Y186109D01*
X850776Y186205D01*
X850743Y186299D01*
X850707Y186392D01*
X850667Y186483D01*
X850623Y186573D01*
X850576Y186661D01*
X850526Y186747D01*
X850472Y186831D01*
X850415Y186913D01*
X850355Y186992D01*
X850291Y187070D01*
X850225Y187144D01*
X850156Y187216D01*
X850084Y187285D01*
X850010Y187351D01*
X849932Y187415D01*
X849853Y187475D01*
X849771Y187532D01*
X849687Y187586D01*
X849601Y187636D01*
X849513Y187683D01*
X849423Y187727D01*
X849332Y187767D01*
X849239Y187803D01*
X849145Y187836D01*
X849049Y187865D01*
X848953Y187890D01*
X848856Y187911D01*
X848757Y187929D01*
X848659Y187942D01*
X848559Y187952D01*
X848460Y187958D01*
X848360Y187960D01*
X800100Y185420D02*
X800100Y170180D01*
X802640Y187960D02*
X806450Y187960D01*
X807720Y186690D01*
X806450Y167640D02*
X802640Y167640D01*
X806450Y167640D02*
X807720Y168910D01*
X843280Y186690D02*
X844550Y187960D01*
X843280Y186690D02*
X807720Y186690D01*
X843280Y168910D02*
X844550Y167640D01*
X843280Y168910D02*
X807720Y168910D01*
X844550Y187960D02*
X848360Y187960D01*
X848360Y167640D02*
X844550Y167640D01*
X850900Y170180D02*
X850900Y185420D01*
D20*
X852805Y177800D03*
X798195Y177800D03*
D10*
X800608Y191262D02*
X800608Y200160D01*
X805057Y200160D01*
X806540Y198677D01*
X806540Y195711D01*
X805057Y194228D01*
X800608Y194228D01*
X803574Y194228D02*
X806540Y191262D01*
X809729Y191262D02*
X815661Y191262D01*
X809729Y191262D02*
X815661Y197194D01*
X815661Y198677D01*
X814178Y200160D01*
X811212Y200160D01*
X809729Y198677D01*
X809752Y180897D02*
X809752Y174965D01*
X809752Y180897D02*
X811235Y182380D01*
X814201Y182380D01*
X815684Y180897D01*
X815684Y174965D01*
X814201Y173482D01*
X811235Y173482D01*
X809752Y174965D01*
X815684Y180897D01*
D11*
X245110Y406400D02*
X245110Y609600D01*
X186690Y609600D02*
X186690Y406400D01*
X245110Y406400D01*
X245110Y609600D02*
X226060Y609600D01*
X205740Y609600D02*
X186690Y609600D01*
X205740Y609600D02*
X205743Y609353D01*
X205752Y609105D01*
X205767Y608858D01*
X205788Y608612D01*
X205815Y608366D01*
X205848Y608121D01*
X205887Y607876D01*
X205932Y607633D01*
X205983Y607391D01*
X206040Y607150D01*
X206102Y606911D01*
X206171Y606673D01*
X206245Y606437D01*
X206325Y606203D01*
X206410Y605971D01*
X206502Y605741D01*
X206598Y605513D01*
X206701Y605288D01*
X206808Y605065D01*
X206922Y604845D01*
X207040Y604628D01*
X207164Y604413D01*
X207293Y604202D01*
X207427Y603994D01*
X207566Y603789D01*
X207710Y603588D01*
X207858Y603390D01*
X208012Y603196D01*
X208170Y603006D01*
X208333Y602820D01*
X208500Y602638D01*
X208672Y602460D01*
X208848Y602286D01*
X209028Y602116D01*
X209213Y601951D01*
X209401Y601791D01*
X209593Y601635D01*
X209789Y601483D01*
X209988Y601337D01*
X210191Y601195D01*
X210398Y601059D01*
X210607Y600927D01*
X210820Y600801D01*
X211036Y600680D01*
X211254Y600564D01*
X211476Y600454D01*
X211700Y600349D01*
X211926Y600249D01*
X212155Y600155D01*
X212386Y600067D01*
X212620Y599984D01*
X212855Y599907D01*
X213092Y599836D01*
X213330Y599770D01*
X213570Y599711D01*
X213812Y599657D01*
X214055Y599609D01*
X214298Y599567D01*
X214543Y599531D01*
X214789Y599501D01*
X215035Y599477D01*
X215282Y599459D01*
X215529Y599447D01*
X215776Y599441D01*
X216024Y599441D01*
X216271Y599447D01*
X216518Y599459D01*
X216765Y599477D01*
X217011Y599501D01*
X217257Y599531D01*
X217502Y599567D01*
X217745Y599609D01*
X217988Y599657D01*
X218230Y599711D01*
X218470Y599770D01*
X218708Y599836D01*
X218945Y599907D01*
X219180Y599984D01*
X219414Y600067D01*
X219645Y600155D01*
X219874Y600249D01*
X220100Y600349D01*
X220324Y600454D01*
X220546Y600564D01*
X220764Y600680D01*
X220980Y600801D01*
X221193Y600927D01*
X221402Y601059D01*
X221609Y601195D01*
X221812Y601337D01*
X222011Y601483D01*
X222207Y601635D01*
X222399Y601791D01*
X222587Y601951D01*
X222772Y602116D01*
X222952Y602286D01*
X223128Y602460D01*
X223300Y602638D01*
X223467Y602820D01*
X223630Y603006D01*
X223788Y603196D01*
X223942Y603390D01*
X224090Y603588D01*
X224234Y603789D01*
X224373Y603994D01*
X224507Y604202D01*
X224636Y604413D01*
X224760Y604628D01*
X224878Y604845D01*
X224992Y605065D01*
X225099Y605288D01*
X225202Y605513D01*
X225298Y605741D01*
X225390Y605971D01*
X225475Y606203D01*
X225555Y606437D01*
X225629Y606673D01*
X225698Y606911D01*
X225760Y607150D01*
X225817Y607391D01*
X225868Y607633D01*
X225913Y607876D01*
X225952Y608121D01*
X225985Y608366D01*
X226012Y608612D01*
X226033Y608858D01*
X226048Y609105D01*
X226057Y609353D01*
X226060Y609600D01*
D14*
X187325Y615952D02*
X187325Y625485D01*
X187325Y615952D02*
X189232Y614045D01*
X193045Y614045D01*
X194952Y615952D01*
X194952Y625485D01*
X199019Y615952D02*
X200926Y614045D01*
X204739Y614045D01*
X206645Y615952D01*
X206645Y617858D01*
X204739Y619765D01*
X200926Y619765D01*
X199019Y621672D01*
X199019Y623578D01*
X200926Y625485D01*
X204739Y625485D01*
X206645Y623578D01*
X202832Y627391D02*
X202832Y612138D01*
X210713Y614045D02*
X218339Y614045D01*
X210713Y614045D02*
X218339Y621672D01*
X218339Y623578D01*
X216433Y625485D01*
X212620Y625485D01*
X210713Y623578D01*
X212082Y509334D02*
X210175Y507427D01*
X210175Y503614D01*
X212082Y501707D01*
X213989Y501707D01*
X215895Y503614D01*
X215895Y507427D01*
X217802Y509334D01*
X219708Y509334D01*
X221615Y507427D01*
X221615Y503614D01*
X219708Y501707D01*
X221615Y513401D02*
X210175Y513401D01*
X210175Y519121D01*
X212082Y521028D01*
X215895Y521028D01*
X217802Y519121D01*
X217802Y513401D01*
X221615Y525095D02*
X213989Y525095D01*
X210175Y528908D01*
X213989Y532722D01*
X221615Y532722D01*
X215895Y532722D02*
X215895Y525095D01*
X221615Y536789D02*
X210175Y536789D01*
X210175Y542509D01*
X212082Y544415D01*
X215895Y544415D01*
X217802Y542509D01*
X217802Y536789D01*
X217802Y540602D02*
X221615Y544415D01*
X210175Y548483D02*
X210175Y556109D01*
X210175Y548483D02*
X221615Y548483D01*
X221615Y556109D01*
X215895Y552296D02*
X215895Y548483D01*
X213989Y560177D02*
X210175Y563990D01*
X221615Y563990D01*
X221615Y560177D02*
X221615Y567803D01*
X212082Y575684D02*
X210175Y579497D01*
X212082Y575684D02*
X215895Y571871D01*
X219708Y571871D01*
X221615Y573778D01*
X221615Y577591D01*
X219708Y579497D01*
X217802Y579497D01*
X215895Y577591D01*
X215895Y571871D01*
D11*
X825500Y355600D02*
X838200Y355600D01*
X825500Y355600D02*
X819150Y361950D01*
X819150Y374650D02*
X825500Y381000D01*
X819150Y361950D02*
X812800Y355600D01*
X800100Y355600D01*
X793750Y361950D01*
X793750Y374650D02*
X800100Y381000D01*
X812800Y381000D01*
X819150Y374650D01*
X844550Y374650D02*
X844550Y361950D01*
X838200Y355600D01*
X844550Y374650D02*
X838200Y381000D01*
X825500Y381000D01*
X793750Y361950D02*
X787400Y355600D01*
X774700Y355600D01*
X768350Y361950D01*
X768350Y374650D02*
X774700Y381000D01*
X787400Y381000D01*
X793750Y374650D01*
X762000Y355600D02*
X749300Y355600D01*
X742950Y361950D01*
X742950Y374650D01*
X749300Y381000D01*
X768350Y361950D02*
X762000Y355600D01*
X768350Y374650D02*
X762000Y381000D01*
X749300Y381000D01*
D14*
X844921Y370212D02*
X848734Y374025D01*
X848734Y362585D01*
X844921Y362585D02*
X852548Y362585D01*
X735071Y362585D02*
X735071Y374025D01*
X729351Y368305D01*
X736978Y368305D01*
X869955Y390535D02*
X871862Y388628D01*
X869955Y390535D02*
X866142Y390535D01*
X864235Y388628D01*
X864235Y386722D01*
X866142Y384815D01*
X869955Y384815D01*
X871862Y382908D01*
X871862Y381002D01*
X869955Y379095D01*
X866142Y379095D01*
X864235Y381002D01*
X875929Y382908D02*
X875929Y390535D01*
X875929Y382908D02*
X879742Y379095D01*
X883555Y382908D01*
X883555Y390535D01*
X887623Y390535D02*
X895249Y390535D01*
X887623Y390535D02*
X887623Y384815D01*
X891436Y386722D01*
X893343Y386722D01*
X895249Y384815D01*
X895249Y381002D01*
X893343Y379095D01*
X889530Y379095D01*
X887623Y381002D01*
X744862Y394978D02*
X742955Y396885D01*
X739142Y396885D01*
X737235Y394978D01*
X737235Y387352D01*
X739142Y385445D01*
X742955Y385445D01*
X744862Y387352D01*
X744862Y391165D01*
X741048Y391165D01*
X748929Y394978D02*
X748929Y396885D01*
X748929Y394978D02*
X752742Y391165D01*
X756555Y394978D01*
X756555Y396885D01*
X752742Y391165D02*
X752742Y385445D01*
X760623Y391165D02*
X768249Y391165D01*
X772317Y385445D02*
X772317Y396885D01*
X779943Y385445D01*
X779943Y396885D01*
X784011Y396885D02*
X791637Y396885D01*
X784011Y396885D02*
X784011Y385445D01*
X791637Y385445D01*
X787824Y391165D02*
X784011Y391165D01*
X797611Y396885D02*
X801425Y396885D01*
X797611Y396885D02*
X795705Y394978D01*
X795705Y387352D01*
X797611Y385445D01*
X801425Y385445D01*
X803331Y387352D01*
X803331Y394978D01*
X801425Y396885D01*
X811212Y394978D02*
X815025Y396885D01*
X811212Y394978D02*
X807399Y391165D01*
X807399Y387352D01*
X809305Y385445D01*
X813119Y385445D01*
X815025Y387352D01*
X815025Y389258D01*
X813119Y391165D01*
X807399Y391165D01*
X819093Y385445D02*
X819093Y396885D01*
X822906Y393072D01*
X826719Y396885D01*
X826719Y385445D01*
X830787Y389258D02*
X830787Y396885D01*
X830787Y389258D02*
X834600Y385445D01*
X838413Y389258D01*
X838413Y396885D01*
X842481Y385445D02*
X850107Y385445D01*
X842481Y385445D02*
X850107Y393072D01*
X850107Y394978D01*
X848201Y396885D01*
X844387Y396885D01*
X842481Y394978D01*
M02*
