M48
;GenerationSoftware,Autodesk,EAGLE,9.6.1*%
;CreationDate,2025-01-31T06:24:13Z*%
FMAT,2
ICI,OFF
METRIC,TZ,000.000
T13C0.610
T12C0.813
T11C0.914
T10C1.000
T9C1.016
T8C1.118
T7C1.270
T6C1.397
T5C2.667
T4C2.750
T3C3.175
T2C3.302
T1C3.962
%
G90
M71
T1
X58420Y142240
X284480Y109220
X154940Y142240
X251460Y142240
T2
X5334Y71120
T3
X0Y0
X292100Y0
X0Y151130
X292100Y151130
X190500Y142950
T4
X260140Y129470
X260140Y152470
X202140Y129470
X202140Y152470
T5
X185700Y146050
X190500Y149050
T6
X49225Y151155
X28905Y151155
X21895Y151155
X42215Y151155
T7
X198120Y55880
X170180Y55880
X198120Y71120
X195580Y71120
X193040Y71120
X190500Y71120
X187960Y71120
X167640Y55880
X182880Y71120
X180340Y71120
X177800Y71120
X175260Y71120
X172720Y55880
X185420Y71120
X175260Y55880
X177800Y55880
X180340Y55880
X182880Y55880
X185420Y55880
X187960Y55880
X160020Y71120
X172720Y71120
X170180Y71120
X167640Y71120
X165100Y71120
X162560Y71120
X165100Y55880
X190500Y55880
X193040Y55880
X195580Y55880
X160020Y55880
X162560Y55880
T8
X20320Y73660
X20320Y71120
X20320Y68580
T9
X38100Y90170
X40640Y90170
X45720Y90170
X48260Y90170
X50800Y87630
X50800Y90170
X53340Y87630
X55880Y87630
X162560Y90170
X58420Y87630
X60960Y87630
X63500Y87630
X66040Y87630
X53340Y90170
X55880Y90170
X58420Y90170
X60960Y90170
X63500Y90170
X66040Y90170
X275590Y15240
X285750Y15240
X273050Y15240
X270510Y15240
X283210Y0
X280670Y0
X45720Y15240
X119380Y87630
X121920Y87630
X135890Y48260
X138430Y48260
X138430Y63500
X140970Y63500
X133350Y48260
X130810Y48260
X135890Y63500
X133350Y63500
X124460Y87630
X127000Y87630
X119380Y90170
X121920Y90170
X124460Y90170
X127000Y90170
X129540Y87630
X129540Y90170
X132080Y87630
X257810Y0
X265430Y15240
X237490Y0
X234950Y0
X219710Y0
X237490Y15240
X134620Y87630
X137160Y87630
X139700Y87630
X142240Y87630
X194310Y134620
X194310Y132080
X144780Y87630
X132080Y90170
X134620Y90170
X137160Y90170
X242570Y15240
X240030Y15240
X139700Y90170
X48260Y15240
X53340Y15240
X50800Y15240
X144780Y90170
X147320Y87630
X147320Y90170
X149860Y87630
X152400Y87630
X34290Y16510
X36830Y16510
X54610Y0
X154940Y87630
X157480Y87630
X72390Y0
X160020Y87630
X162560Y87630
X149860Y90170
X152400Y90170
X154940Y90170
X157480Y90170
X160020Y90170
X31750Y16510
X27940Y36830
X43472Y153645
X47968Y153645
X23152Y153645
X27648Y153645
X142240Y90170
X140970Y151130
X138430Y151130
X135890Y151130
X133350Y151130
X130810Y151130
X43180Y90170
X85090Y0
X69850Y0
X74930Y0
X77470Y0
X80010Y0
X82550Y0
X87630Y0
X90170Y0
X53340Y81280
X50800Y81280
X33020Y81280
X30480Y81280
X129540Y81280
X127000Y81280
X149860Y81280
X147320Y81280
X22860Y87630
X25400Y87630
X27940Y87630
X30480Y87630
X22860Y90170
X25400Y90170
X27940Y90170
X30480Y90170
X33020Y87630
X33020Y90170
X35560Y87630
X38100Y87630
X40640Y87630
X43180Y87630
X45720Y87630
X48260Y87630
X35560Y90170
T10
X255270Y128200
X255270Y130740
X252730Y128200
X252730Y130740
X250190Y128200
X212090Y130740
X212090Y128200
X207010Y128200
X209550Y130740
X214630Y130740
X214630Y128200
X207010Y130740
X209550Y128200
X232410Y128200
X217170Y130740
X217170Y128200
X219710Y130740
X219710Y128200
X222250Y130740
X222250Y128200
X224790Y130740
X224790Y128200
X227330Y130740
X227330Y128200
X229870Y130740
X229870Y128200
X232410Y130740
X234950Y130740
X234950Y128200
X237490Y130740
X237490Y128200
X240030Y130740
X240030Y128200
X242570Y130740
X242570Y128200
X245110Y130740
X245110Y128200
X247650Y130740
X247650Y128200
X250190Y130740
T11
X11430Y58420
X13970Y43180
X11430Y43180
X8890Y43180
X200660Y121920
X200660Y119380
X208280Y1270
X210820Y1270
X64770Y15240
X62230Y15240
X64770Y17780
X62230Y17780
X64770Y20320
X62230Y20320
X59690Y15240
X57150Y15240
X59690Y17780
X57150Y17780
X59690Y20320
X57150Y20320
X10160Y16510
X10160Y19050
X12700Y16510
X12700Y19050
X15240Y16510
X36830Y151130
X15240Y19050
X17780Y16510
X17780Y19050
X20320Y16510
X20320Y19050
X22860Y16510
X109220Y151130
X106680Y151130
X59690Y64770
X57150Y64770
X54610Y64770
X43180Y26670
X43180Y29210
X43180Y31750
X104140Y151130
X80010Y43180
X80010Y45720
X22860Y19050
X25400Y16510
X54610Y151130
X57150Y151130
X34290Y151130
X213360Y58420
X213360Y55880
X25400Y19050
X27940Y16510
X27940Y19050
X220980Y120650
X218440Y120650
X215900Y120650
X21590Y43180
X19050Y43180
X279400Y38100
X279400Y35560
X279400Y33020
X281940Y38100
X284480Y38100
X281940Y35560
X213360Y53340
X284480Y35560
X281940Y33020
X284480Y33020
X259080Y21590
X259080Y19050
X256540Y44450
X256540Y46990
X241300Y21590
X241300Y19050
X238760Y21590
X238760Y19050
X24130Y43180
X13970Y58420
X80010Y40640
T12
X87630Y151130
X67310Y119380
X69850Y119380
X82550Y119380
X85090Y119380
X72390Y119380
X74930Y119380
X80010Y119380
X77470Y119380
X85090Y127000
X82550Y127000
X80010Y127000
X77470Y127000
X74930Y127000
X72390Y127000
X69850Y127000
X67310Y127000
X69850Y115570
X62230Y115570
X73660Y113030
X73660Y115570
X69850Y111760
X62230Y111760
X77470Y140970
X85090Y140970
X80010Y130810
X87630Y130810
X82550Y115570
X85090Y115570
X90170Y119380
X90170Y127000
X87630Y140970
X95250Y140970
X64770Y127000
X64770Y124460
X41910Y52070
X44450Y52070
X57150Y52070
X57150Y59690
X46990Y52070
X49530Y52070
X54610Y52070
X52070Y52070
X54610Y59690
X52070Y59690
X49530Y59690
X46990Y59690
X44450Y59690
X41910Y59690
X267970Y0
X275590Y0
X57150Y76200
X54610Y76200
X52070Y76200
X49530Y76200
X46990Y76200
X209550Y120650
X207010Y120650
X60960Y96520
X53340Y96520
X156210Y96520
X148590Y96520
X33020Y43180
X40640Y43180
X30480Y46990
X38100Y46990
X24130Y66040
X24130Y71120
X24130Y77470
X24130Y74930
X237490Y111760
X229870Y111760
X218440Y111760
X218440Y104140
X101600Y19050
X104140Y19050
X116840Y19050
X119380Y19050
X106680Y19050
X109220Y19050
X114300Y19050
X111760Y19050
X121920Y19050
X124460Y19050
X124460Y26670
X121920Y26670
X119380Y26670
X116840Y26670
X114300Y26670
X111760Y26670
X109220Y26670
X106680Y26670
X104140Y26670
X101600Y26670
X71120Y19050
X73660Y19050
X86360Y19050
X88900Y19050
X76200Y19050
X78740Y19050
X83820Y19050
X81280Y19050
X91440Y19050
X93980Y19050
X93980Y26670
X91440Y26670
X88900Y26670
X86360Y26670
X83820Y26670
X81280Y26670
X78740Y26670
X76200Y26670
X73660Y26670
X71120Y26670
X132080Y19050
X134620Y19050
X147320Y19050
X149860Y19050
X137160Y19050
X139700Y19050
X144780Y19050
X142240Y19050
X152400Y19050
X154940Y19050
X154940Y26670
X152400Y26670
X149860Y26670
X147320Y26670
X144780Y26670
X142240Y26670
X139700Y26670
X137160Y26670
X134620Y26670
X132080Y26670
X261620Y54610
X264160Y54610
X276860Y54610
X279400Y54610
X266700Y54610
X269240Y54610
X274320Y54610
X271780Y54610
X279400Y62230
X276860Y62230
X274320Y62230
X271780Y62230
X269240Y62230
X266700Y62230
X264160Y62230
X261620Y62230
X261620Y67310
X264160Y67310
X276860Y67310
X279400Y67310
X266700Y67310
X269240Y67310
X274320Y67310
X271780Y67310
X279400Y74930
X276860Y74930
X274320Y74930
X271780Y74930
X269240Y74930
X266700Y74930
X264160Y74930
X261620Y74930
X232410Y54610
X234950Y54610
X247650Y54610
X250190Y54610
X237490Y54610
X240030Y54610
X245110Y54610
X242570Y54610
X250190Y62230
X247650Y62230
X245110Y62230
X242570Y62230
X240030Y62230
X237490Y62230
X234950Y62230
X232410Y62230
X232410Y67310
X247650Y67310
X250190Y67310
X237490Y67310
X240030Y67310
X245110Y67310
X242570Y67310
X250190Y74930
X247650Y74930
X245110Y74930
X242570Y74930
X240030Y74930
X237490Y74930
X234950Y74930
X232410Y74930
X233680Y25400
X236220Y25400
X238760Y25400
X241300Y25400
X243840Y25400
X246380Y25400
X248920Y25400
X251460Y25400
X254000Y25400
X256540Y25400
X259080Y25400
X261620Y25400
X264160Y25400
X266700Y25400
X266700Y40640
X264160Y40640
X261620Y40640
X259080Y40640
X256540Y40640
X254000Y40640
X251460Y40640
X248920Y40640
X246380Y40640
X243840Y40640
X241300Y40640
X238760Y40640
X236220Y40640
X233680Y40640
X220980Y109220
X220980Y101600
X223520Y106680
X223520Y99060
X237490Y109220
X229870Y109220
X237490Y106680
X229870Y106680
X273050Y21590
X273050Y29210
X273050Y33020
X273050Y35560
X219710Y3810
X222250Y3810
X224790Y3810
X227330Y3810
X229870Y3810
X232410Y3810
X234950Y3810
X237490Y3810
X240030Y3810
X242570Y3810
X245110Y3810
X247650Y3810
X247650Y11430
X245110Y11430
X242570Y11430
X240030Y11430
X237490Y11430
X234950Y11430
X232410Y11430
X229870Y11430
X227330Y11430
X224790Y11430
X222250Y11430
X219710Y11430
X229870Y40640
X229870Y38100
X217170Y11430
X217170Y8890
X234950Y21590
X227330Y21590
X257810Y3810
X260350Y3810
X262890Y3810
X265430Y3810
X267970Y3810
X270510Y3810
X273050Y3810
X275590Y3810
X278130Y3810
X280670Y3810
X283210Y3810
X285750Y3810
X285750Y11430
X283210Y11430
X280670Y11430
X278130Y11430
X275590Y11430
X273050Y11430
X270510Y11430
X267970Y11430
X265430Y11430
X262890Y11430
X260350Y11430
X257810Y11430
X251460Y88900
X254000Y88900
X266700Y88900
X269240Y88900
X256540Y88900
X259080Y88900
X264160Y88900
X261620Y88900
X271780Y88900
X274320Y88900
X274320Y96520
X271780Y96520
X269240Y96520
X266700Y96520
X264160Y96520
X261620Y96520
X259080Y96520
X256540Y96520
X254000Y96520
X251460Y96520
X248920Y96520
X248920Y93980
X123190Y52070
X125730Y52070
X138430Y52070
X140970Y52070
X128270Y52070
X130810Y52070
X135890Y52070
X133350Y52070
X140970Y59690
X138430Y59690
X135890Y59690
X133350Y59690
X130810Y59690
X128270Y59690
X125730Y59690
X123190Y59690
X215900Y114300
X215900Y106680
X237490Y114300
X229870Y114300
X101600Y3810
X104140Y3810
X116840Y3810
X119380Y3810
X106680Y3810
X109220Y3810
X114300Y3810
X111760Y3810
X121920Y3810
X124460Y3810
X124460Y11430
X121920Y11430
X119380Y11430
X116840Y11430
X114300Y11430
X111760Y11430
X109220Y11430
X106680Y11430
X104140Y11430
X101600Y11430
X71120Y3810
X73660Y3810
X86360Y3810
X88900Y3810
X76200Y3810
X78740Y3810
X83820Y3810
X81280Y3810
X91440Y3810
X93980Y3810
X93980Y11430
X91440Y11430
X88900Y11430
X86360Y11430
X83820Y11430
X81280Y11430
X78740Y11430
X76200Y11430
X73660Y11430
X71120Y11430
X41910Y3810
X44450Y3810
X57150Y3810
X59690Y3810
X46990Y3810
X49530Y3810
X54610Y3810
X52070Y3810
X62230Y3810
X64770Y3810
X64770Y11430
X62230Y11430
X59690Y11430
X57150Y11430
X54610Y11430
X52070Y11430
X49530Y11430
X46990Y11430
X44450Y11430
X41910Y11430
X132080Y3810
X134620Y3810
X147320Y3810
X149860Y3810
X137160Y3810
X139700Y3810
X144780Y3810
X142240Y3810
X152400Y3810
X154940Y3810
X154940Y11430
X152400Y11430
X149860Y11430
X147320Y11430
X144780Y11430
X142240Y11430
X139700Y11430
X137160Y11430
X134620Y11430
X132080Y11430
X10160Y25400
X12700Y25400
X15240Y25400
X17780Y25400
X20320Y25400
X22860Y25400
X25400Y25400
X27940Y25400
X30480Y25400
X33020Y25400
X35560Y25400
X38100Y25400
X38100Y33020
X35560Y33020
X33020Y33020
X30480Y33020
X27940Y33020
X25400Y33020
X22860Y33020
X20320Y33020
X17780Y33020
X15240Y33020
X12700Y33020
X10160Y33020
X162560Y3810
X165100Y3810
X167640Y3810
X170180Y3810
X172720Y3810
X175260Y3810
X177800Y3810
X180340Y3810
X182880Y3810
X185420Y3810
X187960Y3810
X190500Y3810
X190500Y11430
X187960Y11430
X185420Y11430
X182880Y11430
X180340Y11430
X177800Y11430
X175260Y11430
X172720Y11430
X170180Y11430
X167640Y11430
X165100Y11430
X162560Y11430
X7620Y3810
X10160Y3810
X12700Y3810
X15240Y3810
X17780Y3810
X20320Y3810
X22860Y3810
X25400Y3810
X27940Y3810
X30480Y3810
X33020Y3810
X35560Y3810
X35560Y11430
X33020Y11430
X30480Y11430
X27940Y11430
X25400Y11430
X22860Y11430
X20320Y11430
X17780Y11430
X15240Y11430
X12700Y11430
X10160Y11430
X7620Y11430
X234950Y67310
X116840Y147320
X119380Y147320
X121920Y147320
X124460Y147320
X124460Y154940
X121920Y154940
X119380Y154940
X116840Y154940
X114300Y143510
X116840Y143510
X119380Y143510
X121920Y143510
X124460Y143510
X198120Y48260
X195580Y48260
X182880Y48260
X180340Y48260
X193040Y48260
X190500Y48260
X185420Y48260
X187960Y48260
X177800Y48260
X175260Y48260
X172720Y48260
X170180Y48260
X167640Y48260
X165100Y48260
X162560Y48260
X160020Y48260
X160020Y33020
X162560Y33020
X165100Y33020
X167640Y33020
X170180Y33020
X172720Y33020
X175260Y33020
X177800Y33020
X180340Y33020
X182880Y33020
X185420Y33020
X187960Y33020
X190500Y33020
X193040Y33020
X195580Y33020
X198120Y33020
X91440Y67310
X93980Y67310
X106680Y67310
X106680Y74930
X96520Y67310
X99060Y67310
X104140Y67310
X101600Y67310
X104140Y74930
X101600Y74930
X99060Y74930
X96520Y74930
X93980Y74930
X91440Y74930
X91440Y52070
X93980Y52070
X106680Y52070
X109220Y52070
X96520Y52070
X99060Y52070
X104140Y52070
X101600Y52070
X109220Y59690
X106680Y59690
X104140Y59690
X101600Y59690
X99060Y59690
X96520Y59690
X93980Y59690
X91440Y59690
X88900Y63500
X91440Y63500
X93980Y63500
X96520Y63500
X99060Y63500
X101600Y63500
X104140Y63500
X106680Y63500
X109220Y63500
X88900Y39370
X91440Y39370
X104140Y39370
X106680Y39370
X93980Y39370
X96520Y39370
X101600Y39370
X99060Y39370
X106680Y46990
X104140Y46990
X101600Y46990
X99060Y46990
X96520Y46990
X93980Y46990
X91440Y46990
X88900Y46990
X129540Y26670
X129540Y24130
X39370Y59690
X39370Y57150
X120650Y59690
X120650Y57150
X280670Y149860
X278130Y149860
X88900Y74930
X88900Y72390
X255270Y11430
X255270Y8890
X229870Y62230
X229870Y59690
X86360Y46990
X86360Y44450
X5080Y11430
X5080Y8890
X39370Y11430
X39370Y8890
X99060Y11430
X99060Y8890
X68580Y11430
X68580Y8890
X7620Y33020
X7620Y30480
X129540Y11430
X129540Y8890
X200660Y31750
X200660Y34290
X160020Y11430
X160020Y8890
X73660Y140970
X66040Y140970
X67310Y151130
X64770Y151130
X49530Y25400
X49530Y33020
X78740Y151130
X76200Y151130
X99060Y26670
X99060Y24130
X68580Y26670
X68580Y24130
X259080Y62230
X259080Y59690
X229870Y74930
X229870Y72390
X200660Y8890
X200660Y6350
X209550Y105410
X207010Y105410
X259080Y74930
X259080Y72390
X273050Y147320
X273050Y144780
X273050Y132080
X273050Y129540
X273050Y142240
X273050Y139700
X273050Y134620
X273050Y137160
X273050Y127000
X273050Y124460
X280670Y124460
X280670Y127000
X280670Y129540
X280670Y132080
X280670Y134620
X280670Y137160
X280670Y139700
X280670Y142240
X280670Y144780
X280670Y147320
X205740Y113030
X210820Y113030
X280670Y95250
X280670Y100330
X3810Y33020
X3810Y27940
X210820Y12700
X210820Y7620
X90170Y110490
X82550Y110490
X90170Y151130
T13
X117475Y1270
X118427Y-1905
X113347Y1270
X114300Y-1905
X109537Y-1905
X98425Y952
X97472Y7302
X85408Y9525
X93027Y-318
X90170Y7937
X83820Y8573
X93980Y635
X94932Y-1270
X95885Y30162
X78740Y30162
X85090Y7302
X74930Y7620
X124142Y30162
X151130Y29210
X148908Y952
X126365Y21590
X149543Y21907
X149860Y-2540
X130810Y55880
X143510Y56197
X145415Y-2857
X141288Y-1270
X136525Y-1270
X156210Y70485
X156210Y53975
X173355Y-4763
X160020Y318
X154940Y318
X153670Y-4763
X165100Y0
X172403Y18098
X195580Y8890
X173038Y35878
X190500Y952
X160338Y36195
X249872Y48895
X257492Y66993
X275273Y38100
X230187Y45402
X97155Y44132
X106362Y44132
X126047Y8573
X129540Y19050
X100012Y3810
X98425Y20003
X143828Y94615
X157163Y94615
X120967Y94615
X117475Y67310
X117475Y47307
X26987Y-4763
X41593Y24765
X27305Y318
X33020Y318
X65087Y23812
X56832Y56515
X6985Y-4763
X37465Y64135
X140970Y57150
X125730Y22860
X147003Y22542
X262573Y36830
X282258Y39688
X165735Y-4763
X198437Y12382
X192405Y952
X233997Y44450
X207010Y55562
X141923Y83503
X120967Y83503
X159703Y83185
X63500Y75248
X99695Y83503
X82550Y75248
X11112Y-4763
X14922Y-4763
X44132Y86043
X42228Y33973
X67628Y32067
X68580Y20003
X70168Y21590
X129222Y32067
X100330Y32067
X37465Y57467
X40005Y29527
X168593Y151130
X193040Y30797
X202882Y68263
X25082Y20955
X164465Y107315
X107315Y107315
X84138Y48895
X33973Y45085
X34290Y20320
X53657Y27940
X53657Y19685
X193675Y60642
X194945Y98107
X103187Y104775
X77470Y48895
X55245Y48895
X80963Y8573
X51117Y13335
X47307Y16510
X180340Y57785
X72708Y56197
X69850Y43498
X49847Y43180
X195897Y50482
X200342Y69215
X68263Y21590
X69850Y14922
X167958Y102552
X76200Y102552
X15557Y36830
X77470Y37783
X74930Y21273
X86043Y16192
X178752Y40958
X90170Y35878
X90170Y37783
X109537Y14287
X109537Y16828
X126365Y20320
X127635Y23177
X127952Y25717
X128270Y41275
X174942Y43498
X92710Y28892
X115252Y30162
X120015Y55245
X154940Y7937
X156528Y23812
X185102Y23812
X201295Y66993
X107950Y2223
X180022Y-318
X189230Y18098
X184785Y14922
X195897Y51752
X110490Y2223
X156528Y3175
X156528Y7302
X180022Y7937
X184150Y7937
X174942Y14922
X184150Y18098
X201930Y65723
X201930Y53340
X152083Y15557
X153670Y13017
X173990Y13017
X181927Y21273
X176847Y20003
X161608Y66675
X159068Y52387
X161290Y14922
X163830Y9843
X170815Y8573
X177800Y40005
X163830Y37148
X154940Y67945
X156528Y37148
X60007Y95250
X147003Y97790
X168275Y91757
X120650Y1587
X145733Y952
X145733Y-1587
X156845Y-1905
X159068Y5398
X154940Y51435
X122872Y17145
X171450Y16828
X174308Y81280
X59055Y93345
X150813Y95885
X153670Y82233
X153988Y50482
X164465Y8573
X166053Y46355
X170180Y80328
X152400Y80328
X153035Y46355
X45085Y99377
X137160Y99695
X138430Y40005
X169545Y39688
X183197Y65405
X179070Y57150
X142558Y39688
X131128Y9525
X166688Y37783
X40958Y99377
X134938Y100647
X228917Y94932
X132398Y40005
X132080Y86043
X38418Y99377
X133033Y101282
X227012Y68263
X226695Y82233
X140970Y13652
X140970Y38100
X164783Y38100
X209232Y60007
X209232Y61912
X168910Y59690
X133350Y69215
X136843Y66993
X35878Y99377
X131763Y102235
X143510Y13652
X143510Y23812
X160020Y24765
X214312Y70803
X213042Y67628
X163195Y62230
X145098Y65087
X34925Y92392
X122872Y96520
X146050Y13652
X146050Y32067
X173990Y54292
X171133Y54292
X143828Y85408
X163830Y44767
X234950Y42545
X232410Y14605
X34925Y98425
X126682Y97155
X155575Y100330
X155893Y49530
X152400Y64770
X160973Y64770
X124460Y98107
X148590Y13652
X148590Y43815
X232092Y47942
X163513Y66358
X149543Y65723
X125730Y69215
X155258Y15557
X167323Y15557
X233680Y71438
X169228Y79375
X149543Y63817
X163830Y63500
X25717Y40958
X58420Y41275
X59372Y50800
X115570Y50800
X117475Y48895
X126682Y43815
X135890Y2223
X123507Y1905
X120332Y-1270
X100965Y635
X97155Y22542
X49847Y23177
X47307Y28892
X43180Y-4763
X280670Y43498
X280670Y79693
X176847Y88900
X153670Y112077
X38418Y104457
X40640Y2223
X17780Y46037
X115570Y54610
X117475Y58102
X163513Y60960
X22860Y55880
X160338Y61912
X162878Y64452
X187007Y64452
X136208Y103505
X60960Y102552
X148590Y82233
X59690Y80328
X194310Y36195
X202882Y44767
X205105Y58420
X212725Y60960
X212090Y71438
X109537Y76835
X100965Y85408
X185737Y20003
X211772Y21273
X216217Y71438
X205105Y73978
X174308Y125412
X60960Y122237
X176847Y41910
X151130Y41275
X150495Y72390
X139700Y73025
X180022Y27622
X177800Y28257
X173990Y42545
X152400Y41593
X151448Y66675
X139700Y69215
X169545Y20003
X219392Y22225
X220345Y82233
X182245Y82233
X159068Y105410
X81280Y106362
X73343Y30162
X42863Y1270
X279400Y114617
X257175Y136843
X9525Y57150
X6350Y9843
X44132Y7937
X46037Y0
X82550Y113030
X71438Y65723
X53022Y55562
X46990Y-4763
X278130Y101600
X260667Y119062
X117157Y121285
X113347Y36195
X54292Y36195
X53340Y5398
X64452Y45402
X138113Y78740
X138748Y86043
X47942Y65723
X89852Y41275
X97472Y42228
X67628Y42228
X69533Y57150
X283210Y105727
X242887Y115887
X37148Y21273
X53022Y33973
X150495Y33973
X152718Y29210
X159068Y27622
X162560Y7302
X185420Y7302
X47942Y64452
X32702Y7302
X49530Y35878
X60960Y9843
X60960Y5398
X51435Y37148
X37465Y35878
X24130Y35878
X30480Y20320
X32702Y14605
X49847Y121285
X21907Y46990
X19368Y20955
X24130Y20003
X31115Y-2540
X233680Y16828
X262890Y129857
X33020Y68263
X161290Y72390
X165418Y76518
X214630Y76518
X218757Y35878
X35878Y67310
X237490Y17780
X246062Y37783
X30162Y-1587
X2540Y2857
X210820Y18098
X212407Y103505
X230822Y126682
X245745Y105410
X219392Y102552
X237807Y9208
X225107Y135890
X223837Y123507
X16510Y55880
X142240Y119697
X170180Y91757
X134620Y24447
X164783Y22542
X213042Y89852
X219392Y115887
X254000Y30797
X173990Y30162
X151765Y43498
X64452Y57467
X63182Y67628
X26670Y99377
X109537Y108267
X198755Y99695
X205105Y69850
X255587Y70168
X35243Y-635
X-952Y5398
X173673Y115887
X82550Y-2857
X82868Y6667
X130492Y38735
X204787Y4763
X223837Y119697
X229870Y27622
X17463Y58102
X167958Y108585
X39053Y-4763
X40640Y-635
X43180Y-635
X42228Y22860
X228917Y20003
X229870Y23495
X82233Y28575
X29527Y64770
X233045Y122872
X227330Y51117
X235902Y49847
X155575Y30162
X221932Y45402
X238125Y7302
X253682Y8890
X240347Y50800
X241617Y77788
X236220Y64770
X223520Y54292
X275908Y34290
X170498Y27622
X244475Y77788
X231140Y53022
X116205Y117475
X244792Y116522
X135890Y16192
X145098Y33973
X167958Y85090
X254317Y85090
X107950Y33973
X139383Y33973
X106362Y21907
X256222Y71438
X263843Y71120
X247967Y70803
X236855Y125095
X242887Y97472
X235902Y126047
X237807Y101282
X227012Y120967
X253682Y119062
X223837Y104457
X222567Y102870
X265430Y52387
X218757Y56197
X225107Y50165
X86678Y-4763
X116205Y105410
X157798Y105410
X172403Y90805
X110490Y23812
X110172Y48895
X84138Y47625
X253682Y68263
X142558Y28892
X141923Y48260
X147638Y50800
X150813Y84773
X247650Y83820
X113347Y24765
X111442Y14287
X85725Y-1587
X140653Y81598
X139700Y53657
X81598Y14287
X146685Y59372
X211772Y61912
X212725Y48895
X241935Y49847
X115570Y36195
X147003Y36195
X151448Y51117
X153035Y43815
X158750Y75883
X59372Y53657
X196850Y40005
X210185Y78740
X155575Y85408
X113982Y22860
X85090Y28257
X151448Y22542
X65723Y-4763
X95885Y952
X67628Y25400
X62547Y27622
X64452Y35243
X67628Y35243
X73343Y102552
X66040Y102870
X81598Y-1905
X139383Y111125
X121602Y49847
X101600Y43180
X107632Y43180
X104457Y43180
X211772Y24765
X217170Y30162
X246062Y33338
X155575Y81280
X58102Y79693
X157798Y1905
X119697Y37783
X149543Y36195
X265748Y58737
X275590Y60642
X161608Y1587
X84138Y88900
X88582Y93345
X64770Y72390
X161608Y-4445
X66358Y7302
X130492Y71755
X176212Y73343
X37783Y6985
X36513Y1587
X186055Y83185
X121920Y28892
X119062Y15240
X89217Y16192
X28575Y72390
X25400Y23177
X68898Y42228
X22542Y35878
X11430Y34608
X56197Y19050
X65087Y67628
X168593Y68898
X191452Y58420
X203835Y58420
X203835Y48895
X255270Y79693
X269240Y85090
X19685Y1270
X68263Y92392
X19050Y-4445
X62230Y76835
X253682Y55562
X245110Y28575
X254952Y86995
X122872Y35243
X154623Y33973
X121602Y41275
X95250Y40958
X87947Y24765
X91122Y23177
X233362Y15557
X224155Y16828
X223202Y71438
X162560Y76200
X161290Y74930
X112395Y71755
X112712Y28575
X136208Y97155
X132398Y36513
X101600Y35243
X72390Y35243
X230822Y21273
X156528Y25717
X152400Y6667
X132715Y6667
X233997Y114935
X22542Y-4445
X47942Y-952
X48260Y1587
X31432Y13335
X41910Y36830
X32067Y36513
X54610Y-4763
X65087Y29527
X85090Y29527
X114300Y40323
X116522Y71755
X208280Y65723
X63182Y36830
X90170Y77788
X212090Y77470
X213360Y51117
X55245Y35243
X86043Y35878
X139700Y153670
X206375Y53657
X44767Y17780
X44767Y84455
X220345Y86360
X31432Y22860
X62230Y9208
X8890Y14287
X55880Y-952
X64452Y46990
X96202Y42228
X46037Y18415
X21590Y17463
M30