M48
;GenerationSoftware,Autodesk,EAGLE,9.6.1*%
;CreationDate,2025-01-05T08:37:57Z*%
FMAT,2
ICI,OFF
METRIC,TZ,000.000
T13C0.610
T12C0.813
T11C0.914
T10C1.000
T9C1.016
T8C1.118
T7C1.270
T6C1.397
T5C2.667
T4C2.750
T3C3.175
T2C3.302
T1C3.962
%
G90
M71
T1
X58420Y142240
X251460Y142240
X154940Y142240
X284480Y109220
T2
X5334Y71120
T3
X187960Y109220
X292100Y151130
X292100Y0
X0Y0
X0Y151130
X275590Y142950
T4
X202140Y152470
X202140Y129470
X260140Y129470
X260140Y152470
T5
X270790Y146050
X275590Y149050
T6
X13665Y151155
X30175Y151155
X6655Y151155
X23165Y151155
T7
X149860Y71120
X165100Y55880
X167640Y55880
X177800Y71120
X180340Y71120
X152400Y55880
X177800Y55880
X175260Y55880
X172720Y55880
X170180Y55880
X157480Y55880
X154940Y55880
X160020Y71120
X157480Y71120
X154940Y71120
X162560Y55880
X152400Y71120
X147320Y55880
X165100Y71120
X149860Y55880
X147320Y71120
X144780Y55880
X142240Y55880
X162560Y71120
X160020Y55880
X175260Y71120
X172720Y71120
X180340Y55880
X144780Y71120
X142240Y71120
X167640Y71120
X170180Y71120
T8
X20320Y71120
X20320Y73660
X20320Y68580
T9
X82550Y0
X87630Y0
X90170Y0
X53340Y81280
X50800Y81280
X33020Y81280
X30480Y81280
X129540Y81280
X127000Y81280
X149860Y81280
X147320Y81280
X22860Y87630
X25400Y87630
X27940Y87630
X30480Y87630
X22860Y90170
X124460Y90170
X27940Y90170
X30480Y90170
X33020Y87630
X33020Y90170
X35560Y87630
X38100Y87630
X40640Y87630
X43180Y87630
X45720Y87630
X48260Y87630
X35560Y90170
X38100Y90170
X40640Y90170
X43180Y90170
X45720Y90170
X48260Y90170
X50800Y87630
X50800Y90170
X53340Y87630
X55880Y87630
X58420Y87630
X60960Y87630
X63500Y87630
X66040Y87630
X53340Y90170
X55880Y90170
X58420Y90170
X60960Y90170
X63500Y90170
X66040Y90170
X119380Y87630
X121920Y87630
X124460Y87630
X127000Y87630
X119380Y90170
X127000Y90170
X129540Y87630
X129540Y90170
X132080Y87630
X134620Y87630
X137160Y87630
X139700Y87630
X142240Y87630
X144780Y87630
X132080Y90170
X134620Y90170
X137160Y90170
X139700Y90170
X142240Y90170
X144780Y90170
X147320Y87630
X147320Y90170
X149860Y87630
X152400Y87630
X154940Y87630
X157480Y87630
X160020Y87630
X162560Y87630
X149860Y90170
X152400Y90170
X154940Y90170
X157480Y90170
X160020Y90170
X162560Y90170
X93980Y153670
X31750Y16510
X35560Y36830
X33020Y36830
X30480Y36830
X24422Y153645
X28918Y153645
X7912Y153645
X12408Y153645
X27940Y36830
X121920Y90170
X130810Y153670
X133350Y153670
X135890Y153670
X138430Y153670
X140970Y153670
X48260Y15240
X53340Y15240
X50800Y15240
X185420Y0
X34290Y16510
X39370Y16510
X36830Y16510
X134620Y17780
X54610Y0
X269240Y85090
X271780Y85090
X271780Y100330
X274320Y100330
X266700Y85090
X264160Y85090
X269240Y100330
X266700Y100330
X252730Y123190
X255270Y123190
X257810Y123190
X25400Y90170
X45720Y15240
X85090Y0
X72390Y0
X219710Y5080
X242570Y5080
X245110Y20320
X247650Y20320
X245110Y5080
X170180Y15240
X69850Y0
X74930Y0
X77470Y0
X80010Y0
T10
X207010Y130740
X207010Y128200
X209550Y130740
X219710Y130740
X219710Y128200
X222250Y130740
X209550Y128200
X212090Y130740
X224790Y130740
X212090Y128200
X217170Y130740
X217170Y128200
X214630Y130740
X214630Y128200
X222250Y128200
X240030Y128200
X255270Y128200
X255270Y130740
X252730Y128200
X252730Y130740
X250190Y128200
X250190Y130740
X247650Y128200
X247650Y130740
X245110Y128200
X245110Y130740
X242570Y128200
X242570Y130740
X240030Y130740
X237490Y128200
X237490Y130740
X234950Y128200
X234950Y130740
X232410Y128200
X232410Y130740
X229870Y128200
X229870Y130740
X227330Y128200
X227330Y130740
X224790Y128200
T11
X22860Y43180
X27940Y52070
X25400Y52070
X104140Y153670
X106680Y153670
X109220Y153670
X118110Y26670
X120650Y26670
X132080Y15240
X275590Y134620
X273050Y134620
X86360Y20320
X83820Y20320
X134620Y15240
X279400Y74930
X279400Y72390
X74930Y20320
X72390Y20320
X64770Y15240
X62230Y15240
X64770Y17780
X62230Y17780
X64770Y20320
X62230Y20320
X59690Y15240
X57150Y15240
X59690Y17780
X57150Y17780
X59690Y20320
X22860Y52070
X137160Y15240
X195580Y53340
X195580Y55880
X195580Y58420
X10160Y16510
X10160Y19050
X12700Y16510
X12700Y19050
X15240Y16510
X17780Y16510
X17780Y19050
X20320Y16510
X20320Y19050
X22860Y16510
X22860Y19050
X25400Y16510
X25400Y19050
X27940Y16510
X27940Y19050
X83820Y45720
X86360Y45720
X88900Y45720
X15240Y19050
X41910Y151130
X13970Y58420
X11430Y58420
X16510Y43180
X13970Y43180
X11430Y43180
X115570Y26670
X39370Y151130
X49530Y151130
X46990Y151130
X27940Y43180
X25400Y43180
X57150Y20320
T12
X200660Y6350
X209550Y114300
X207010Y114300
X259080Y36830
X259080Y34290
X259080Y31750
X259080Y29210
X259080Y26670
X259080Y24130
X259080Y21590
X259080Y19050
X259080Y16510
X259080Y13970
X259080Y11430
X259080Y8890
X259080Y6350
X259080Y3810
X274320Y3810
X274320Y6350
X274320Y8890
X274320Y11430
X274320Y13970
X274320Y16510
X274320Y19050
X274320Y21590
X274320Y24130
X274320Y26670
X274320Y29210
X274320Y31750
X274320Y34290
X274320Y36830
X274320Y39370
X271780Y39370
X229870Y107950
X222250Y107950
X251460Y104140
X254000Y104140
X266700Y104140
X269240Y104140
X256540Y104140
X259080Y104140
X264160Y104140
X261620Y104140
X271780Y104140
X274320Y104140
X274320Y111760
X271780Y111760
X269240Y111760
X266700Y111760
X264160Y111760
X261620Y111760
X259080Y111760
X256540Y111760
X254000Y111760
X251460Y111760
X205740Y121920
X210820Y121920
X280670Y39370
X280670Y34290
X3810Y33020
X3810Y27940
X213360Y16510
X213360Y11430
X237490Y3810
X229870Y3810
X82550Y151130
X80010Y151130
X67310Y119380
X69850Y119380
X82550Y119380
X85090Y119380
X72390Y119380
X74930Y119380
X80010Y119380
X77470Y119380
X85090Y127000
X82550Y127000
X80010Y127000
X77470Y127000
X74930Y127000
X72390Y127000
X69850Y127000
X67310Y127000
X69850Y115570
X62230Y115570
X73660Y113030
X73660Y115570
X69850Y111760
X67310Y140970
X74930Y140970
X80010Y130810
X87630Y130810
X82550Y115570
X85090Y115570
X90170Y119380
X90170Y127000
X77470Y140970
X85090Y140970
X64770Y127000
X64770Y124460
X71120Y30480
X73660Y30480
X86360Y30480
X86360Y38100
X76200Y30480
X78740Y30480
X83820Y30480
X81280Y30480
X83820Y38100
X81280Y38100
X78740Y38100
X76200Y38100
X73660Y38100
X71120Y38100
X71120Y52070
X73660Y52070
X86360Y52070
X86360Y59690
X76200Y52070
X78740Y52070
X83820Y52070
X81280Y52070
X83820Y59690
X81280Y59690
X78740Y59690
X76200Y59690
X73660Y59690
X71120Y59690
X256540Y88900
X259080Y88900
X271780Y88900
X274320Y88900
X261620Y88900
X264160Y88900
X269240Y88900
X266700Y88900
X274320Y96520
X271780Y96520
X269240Y96520
X266700Y96520
X264160Y96520
X261620Y96520
X259080Y96520
X256540Y96520
X259080Y77470
X259080Y74930
X259080Y72390
X259080Y69850
X259080Y67310
X259080Y64770
X259080Y62230
X259080Y59690
X259080Y57150
X259080Y54610
X259080Y52070
X259080Y49530
X259080Y46990
X259080Y44450
X274320Y44450
X274320Y46990
X274320Y49530
X274320Y52070
X274320Y54610
X274320Y57150
X274320Y59690
X274320Y62230
X274320Y64770
X274320Y67310
X149860Y11430
X274320Y69850
X274320Y72390
X274320Y74930
X274320Y77470
X88900Y63500
X81280Y63500
X57150Y76200
X54610Y76200
X52070Y76200
X49530Y76200
X46990Y76200
X278130Y128270
X275590Y128270
X60960Y96520
X53340Y96520
X156210Y96520
X148590Y96520
X33020Y43180
X40640Y43180
X35560Y46990
X43180Y46990
X24130Y66040
X24130Y71120
X24130Y77470
X24130Y74930
X232410Y116840
X240030Y116840
X248920Y116840
X256540Y116840
X62230Y111760
X101600Y3810
X104140Y3810
X116840Y3810
X119380Y3810
X106680Y3810
X109220Y3810
X114300Y3810
X111760Y3810
X121920Y3810
X124460Y3810
X124460Y11430
X121920Y11430
X119380Y11430
X116840Y11430
X114300Y11430
X111760Y11430
X109220Y11430
X106680Y11430
X104140Y11430
X101600Y11430
X71120Y3810
X73660Y3810
X86360Y3810
X88900Y3810
X76200Y3810
X78740Y3810
X83820Y3810
X81280Y3810
X91440Y3810
X93980Y3810
X93980Y11430
X91440Y11430
X88900Y11430
X86360Y11430
X83820Y11430
X81280Y11430
X78740Y11430
X76200Y11430
X73660Y11430
X71120Y11430
X41910Y3810
X44450Y3810
X57150Y3810
X59690Y3810
X46990Y3810
X49530Y3810
X54610Y3810
X52070Y3810
X62230Y3810
X64770Y3810
X64770Y11430
X62230Y11430
X59690Y11430
X57150Y11430
X54610Y11430
X52070Y11430
X49530Y11430
X46990Y11430
X44450Y11430
X41910Y11430
X132080Y3810
X134620Y3810
X147320Y3810
X149860Y3810
X137160Y3810
X139700Y3810
X144780Y3810
X142240Y3810
X152400Y3810
X154940Y3810
X154940Y11430
X152400Y11430
X147320Y11430
X144780Y11430
X142240Y11430
X139700Y11430
X137160Y11430
X134620Y11430
X132080Y11430
X10160Y25400
X12700Y25400
X15240Y25400
X17780Y25400
X20320Y25400
X22860Y25400
X25400Y25400
X27940Y25400
X30480Y25400
X33020Y25400
X35560Y25400
X38100Y25400
X38100Y33020
X35560Y33020
X33020Y33020
X30480Y33020
X27940Y33020
X25400Y33020
X22860Y33020
X20320Y33020
X17780Y33020
X15240Y33020
X12700Y33020
X10160Y33020
X162560Y3810
X165100Y3810
X167640Y3810
X170180Y3810
X172720Y3810
X175260Y3810
X177800Y3810
X180340Y3810
X182880Y3810
X185420Y3810
X187960Y3810
X190500Y3810
X190500Y11430
X187960Y11430
X185420Y11430
X182880Y11430
X180340Y11430
X177800Y11430
X175260Y11430
X172720Y11430
X170180Y11430
X167640Y11430
X165100Y11430
X162560Y11430
X7620Y3810
X10160Y3810
X12700Y3810
X15240Y3810
X17780Y3810
X20320Y3810
X22860Y3810
X25400Y3810
X27940Y3810
X30480Y3810
X33020Y3810
X35560Y3810
X35560Y11430
X33020Y11430
X30480Y11430
X27940Y11430
X25400Y11430
X22860Y11430
X20320Y11430
X17780Y11430
X15240Y11430
X12700Y11430
X10160Y11430
X7620Y11430
X116840Y147320
X119380Y147320
X121920Y147320
X124460Y147320
X124460Y154940
X121920Y154940
X119380Y154940
X116840Y154940
X114300Y143510
X116840Y143510
X119380Y143510
X121920Y143510
X124460Y143510
X180340Y46990
X177800Y46990
X165100Y46990
X162560Y46990
X175260Y46990
X172720Y46990
X167640Y46990
X170180Y46990
X160020Y46990
X157480Y46990
X154940Y46990
X152400Y46990
X149860Y46990
X147320Y46990
X144780Y46990
X142240Y46990
X142240Y31750
X144780Y31750
X147320Y31750
X219710Y16510
X152400Y31750
X154940Y31750
X157480Y31750
X160020Y31750
X162560Y31750
X165100Y31750
X167640Y31750
X170180Y31750
X172720Y31750
X175260Y31750
X177800Y31750
X180340Y31750
X107950Y59690
X110490Y59690
X123190Y59690
X123190Y67310
X113030Y59690
X115570Y59690
X120650Y59690
X118110Y59690
X120650Y67310
X118110Y67310
X115570Y67310
X113030Y67310
X110490Y67310
X107950Y67310
X107950Y44450
X110490Y44450
X123190Y44450
X125730Y44450
X113030Y44450
X115570Y44450
X120650Y44450
X118110Y44450
X125730Y52070
X123190Y52070
X120650Y52070
X118110Y52070
X115570Y52070
X113030Y52070
X110490Y52070
X107950Y52070
X105410Y55880
X107950Y55880
X110490Y55880
X113030Y55880
X115570Y55880
X118110Y55880
X120650Y55880
X123190Y55880
X125730Y55880
X105410Y31750
X107950Y31750
X120650Y31750
X123190Y31750
X110490Y31750
X113030Y31750
X118110Y31750
X115570Y31750
X123190Y39370
X120650Y39370
X118110Y39370
X115570Y39370
X113030Y39370
X110490Y39370
X107950Y39370
X105410Y39370
X33020Y76200
X35560Y76200
X68580Y38100
X68580Y35560
X68580Y59690
X68580Y57150
X248920Y111760
X248920Y109220
X105410Y67310
X105410Y64770
X254000Y96520
X254000Y93980
X274320Y80010
X271780Y80010
X102870Y39370
X102870Y36830
X5080Y11430
X5080Y8890
X39370Y11430
X39370Y8890
X99060Y11430
X99060Y8890
X68580Y11430
X68580Y8890
X7620Y33020
X7620Y30480
X129540Y11430
X129540Y8890
X182880Y31750
X182880Y34290
X160020Y11430
X160020Y8890
X54610Y134620
X62230Y134620
X59690Y151130
X57150Y151130
X167640Y19050
X175260Y19050
X71120Y151130
X68580Y151130
X149860Y31750
X219710Y96520
X222250Y96520
X234950Y96520
X234950Y104140
X224790Y96520
X227330Y96520
X232410Y96520
X229870Y96520
X232410Y104140
X229870Y104140
X227330Y104140
X224790Y104140
X222250Y104140
X219710Y104140
X219710Y81280
X222250Y81280
X234950Y81280
X234950Y88900
X224790Y81280
X227330Y81280
X232410Y81280
X229870Y81280
X232410Y88900
X229870Y88900
X227330Y88900
X224790Y88900
X222250Y88900
X219710Y88900
X219710Y26670
X222250Y26670
X234950Y26670
X237490Y26670
X224790Y26670
X227330Y26670
X232410Y26670
X229870Y26670
X240030Y26670
X242570Y26670
X242570Y34290
X240030Y34290
X237490Y34290
X234950Y34290
X232410Y34290
X229870Y34290
X227330Y34290
X224790Y34290
X222250Y34290
X219710Y34290
X219710Y66040
X222250Y66040
X234950Y66040
X237490Y66040
X224790Y66040
X227330Y66040
X232410Y66040
X229870Y66040
X240030Y66040
X242570Y66040
X242570Y73660
X240030Y73660
X237490Y73660
X234950Y73660
X232410Y73660
X229870Y73660
X227330Y73660
X224790Y73660
X222250Y73660
X219710Y73660
X219710Y49530
X222250Y49530
X234950Y49530
X237490Y49530
X224790Y49530
X227330Y49530
X232410Y49530
X229870Y49530
X240030Y49530
X242570Y49530
X242570Y57150
X240030Y57150
X237490Y57150
X234950Y57150
X232410Y57150
X229870Y57150
X227330Y57150
X224790Y57150
X222250Y57150
X219710Y57150
X210820Y87630
X210820Y80010
X219710Y8890
X222250Y8890
X224790Y8890
X227330Y8890
X229870Y8890
X232410Y8890
X234950Y8890
X237490Y8890
X240030Y8890
X242570Y8890
X245110Y8890
X247650Y8890
X247650Y16510
X245110Y16510
X242570Y16510
X240030Y16510
X237490Y16510
X234950Y16510
X232410Y16510
X229870Y16510
X227330Y16510
X224790Y16510
X222250Y16510
X240030Y45720
X240030Y38100
X233680Y45720
X233680Y38100
X228600Y45720
X228600Y38100
X222250Y45720
X222250Y38100
X232410Y120650
X240030Y120650
X228600Y120650
X220980Y120650
X228600Y116840
X220980Y116840
X228600Y113030
X220980Y113030
X217170Y104140
X217170Y101600
X217170Y88900
X217170Y86360
X217170Y57150
X217170Y54610
X217170Y73660
X217170Y71120
X217170Y34290
X217170Y31750
X217170Y16510
X217170Y13970
X200660Y8890
T13
X120015Y-635
X115570Y-1270
X110490Y-4763
X106680Y-4763
X91757Y318
X86360Y8890
X97472Y8890
X98107Y-4763
X80010Y15240
X95885Y15240
X83820Y9208
X95885Y13335
X94615Y-4763
X78740Y9208
X94932Y16192
X77470Y14287
X92392Y14287
X90805Y-4763
X76518Y7937
X87313Y7937
X151130Y-1270
X225107Y38735
X225742Y64135
X213042Y84773
X213042Y70485
X156210Y-952
X157798Y22542
X190182Y23177
X190817Y33338
X235585Y41593
X228600Y43498
X254317Y71438
X232727Y68898
X151130Y13017
X158750Y12382
X162878Y26987
X195580Y27622
X203517Y41593
X232092Y45720
X253365Y70485
X148908Y26987
X210185Y27622
X212090Y29527
X142240Y-4763
X236220Y46672
X155893Y45085
X153988Y19368
X142875Y18415
X204787Y53657
X194627Y20320
X138113Y18415
X137160Y-4763
X99695Y75565
X99695Y14922
X122872Y14922
X223520Y59372
X201930Y52387
X194627Y21590
X132715Y17463
X6985Y-4763
X47307Y94932
X142558Y94615
X157163Y94615
X119062Y94615
X81598Y48577
X69533Y48577
X26987Y-4763
X68263Y22860
X190817Y7620
X225742Y107632
X153670Y-4763
X173355Y-4763
X129222Y4763
X138430Y8573
X171450Y6667
X154623Y7937
X99060Y4763
X102870Y30480
X115252Y34608
X122872Y34608
X141923Y34925
X153353Y34925
X123190Y70803
X146050Y-4763
X236537Y62547
X255587Y71438
X141288Y0
X140970Y20955
X229235Y20638
X254952Y109855
X165735Y-4763
X199072Y16192
X162560Y15875
X182562Y16828
X222567Y110490
X63182Y76200
X65723Y60642
X142558Y85408
X157798Y85408
X110807Y85408
X121602Y85408
X107950Y27622
X129540Y23177
X118427Y23812
X11112Y-4763
X14922Y-4763
X42863Y73025
X53975Y73025
X185102Y29845
X186055Y63500
X72390Y28257
X185737Y37783
X139383Y37783
X137160Y23812
X76200Y18415
X77153Y24130
X141605Y58420
X139065Y47942
X93662Y47625
X93027Y24765
X23177Y30797
X70485Y28257
X70485Y24447
X79693Y22225
X167323Y49212
X92710Y48577
X92392Y22225
X182562Y50482
X180022Y64452
X78740Y26670
X171768Y43180
X80328Y40005
X87313Y36195
X162560Y50800
X91757Y50165
X90487Y18098
X117157Y19368
X123507Y25717
X154940Y26352
X91440Y48577
X163830Y50482
X93980Y18098
X166688Y23177
X176530Y9843
X182562Y8573
X111125Y65087
X160973Y60642
X183515Y58420
X113347Y21907
X130810Y22225
X133350Y37783
X168593Y38735
X174942Y38735
X178752Y64452
X114300Y35878
X165418Y42228
X171450Y39688
X166688Y39688
X183197Y63500
X184467Y39688
X118110Y952
X178117Y0
X161925Y0
X193357Y62547
X193675Y318
X130492Y10160
X134303Y39688
X159703Y40640
X162560Y29527
X134303Y68263
X127635Y13970
X128587Y35878
X158433Y35878
X166370Y35878
X58737Y92710
X149225Y98742
X128587Y58737
X150495Y63817
X124142Y14922
X127635Y16828
X127317Y35878
X154623Y36830
X168910Y35878
X57467Y92710
X147003Y99695
X117475Y99695
X269558Y39053
X269875Y74613
X163830Y14922
X227012Y14287
X150813Y45085
X151130Y14922
X232410Y0
X149543Y62865
X141923Y62547
X140018Y46355
X43498Y94932
X138113Y100647
X225742Y67945
X220027Y19685
X249872Y60642
X228917Y54292
X40640Y952
X226377Y29527
X237172Y28892
X236855Y125730
X227330Y70803
X230822Y70803
X250825Y75248
X239395Y122237
X219075Y125095
X243205Y63182
X214947Y71438
X213995Y68263
X227647Y77788
X241935Y77788
X245745Y33338
X246062Y78740
X246062Y87630
X243522Y90805
X207645Y91122
X212407Y10160
X247967Y86678
X246062Y14605
X208597Y50482
X207645Y93662
X205740Y94297
X206692Y88900
X242887Y83820
X218757Y79375
X243840Y98107
X65723Y635
X62547Y65087
X68263Y66993
X77153Y76200
X188595Y76518
X154940Y80963
X189547Y80963
X154623Y74295
X68263Y6985
X159068Y6985
X86995Y87630
X92710Y93345
X65723Y72073
X161608Y-4445
X67628Y72073
X2223Y52070
X4763Y1587
X18098Y635
X68263Y92392
X19050Y-4445
X60960Y102552
X147638Y105092
X63817Y32067
X100012Y10160
X90170Y9843
X171450Y27622
X93980Y35243
X98425Y17463
X64770Y42863
X109537Y53975
X109855Y16192
X60960Y33020
X129540Y32702
X133668Y44132
X174942Y44132
X57467Y31432
X200977Y56832
X43180Y13017
X60960Y78105
X54292Y38100
X98742Y32067
X95250Y54610
X125412Y21273
X97790Y24765
X95250Y34608
X150178Y52705
X148590Y61595
X158750Y48577
X256222Y51752
X124142Y72390
X48577Y318
X31432Y23495
X62865Y-1587
X55880Y16192
X52387Y42228
X114300Y40958
X45720Y-1270
X46037Y635
X51752Y952
X44767Y-318
X136208Y18415
X133033Y57785
X31750Y56197
X137478Y82868
X188912Y82868
X179387Y84773
X185420Y50482
X182880Y47942
X187642Y81915
X51117Y101917
X167323Y105727
X192722Y11430
X48260Y79058
X150495Y79058
X47942Y54610
X264795Y40005
X176847Y74613
X51117Y100647
X147955Y41593
X261937Y40640
X144145Y100647
X36830Y93027
X254317Y35878
X179705Y73343
X59055Y72390
X101282Y952
X100647Y80328
X100647Y28575
X21590Y56197
X42863Y22542
X26670Y22225
X57467Y84455
X41910Y74295
X90805Y93345
X194310Y84773
X203517Y52705
X267018Y74613
X51117Y107632
X45720Y106680
X254317Y6985
X93345Y104140
X37783Y39688
X135255Y45085
X85090Y40958
X111760Y42545
X22542Y-4445
X32702Y-635
X232092Y108585
X93345Y111760
X65723Y24447
X65723Y49530
X72390Y25717
X143828Y23177
X47942Y29845
X158433Y68898
X24130Y60007
X175577Y35560
X234950Y119062
X8890Y27305
X143828Y13970
X231140Y12700
X187007Y37783
X186055Y78423
X70485Y17463
X132715Y53657
X148273Y53657
X125095Y81598
X144463Y80328
X124142Y83503
X166053Y1905
X167640Y952
X233362Y952
X53022Y1905
X51435Y26987
X50482Y31750
X30480Y17463
X152083Y28892
X147955Y28892
X261937Y51752
X146368Y67310
X138113Y48895
X38100Y15557
X54927Y30162
X119380Y102235
X33020Y95567
X145733Y29845
X53022Y7620
X39688Y6667
X120650Y5398
X104140Y114935
X148908Y29845
X131763Y55880
X143828Y25082
X147320Y23177
X120650Y102235
X34608Y95567
X140970Y64770
X130810Y66993
X144780Y26035
X214630Y25717
X215900Y23177
X262573Y25082
X122555Y101600
X35878Y94932
X147003Y24765
X146050Y13017
X253365Y62547
X253365Y29845
X120332Y108585
X92075Y111760
X176212Y27622
X235267Y32067
X214312Y54292
X38735Y100965
X138113Y54927
X262573Y48260
X150178Y16510
X140018Y14605
X262573Y28575
X244792Y95250
X232727Y91757
X136843Y109855
X51117Y109537
X252412Y73343
X247015Y13652
X244792Y56197
X248920Y85725
X248602Y19050
X223837Y39688
X140018Y58737
X156845Y952
X151448Y9525
X255270Y33020
X236537Y37783
M30