G04 EAGLE Gerber RS-274X export*
G75*
%MOMM*%
%FSLAX34Y34*%
%LPD*%
%INTop Copper*%
%IPPOS*%
%AMOC8*
5,1,8,0,0,1.08239X$1,22.5*%
G01*
%ADD10R,2.362200X7.620000*%
%ADD11C,1.320800*%
%ADD12P,1.539592X8X22.500000*%
%ADD13C,1.905000*%
%ADD14C,1.422400*%
%ADD15C,1.524000*%
%ADD16P,1.429621X8X292.500000*%
%ADD17P,1.429621X8X202.500000*%
%ADD18P,1.429621X8X112.500000*%
%ADD19R,1.524000X1.524000*%
%ADD20R,2.095500X2.095500*%
%ADD21P,1.429621X8X22.500000*%
%ADD22P,1.649562X8X22.500000*%
%ADD23P,1.649562X8X202.500000*%
%ADD24R,1.778000X1.778000*%
%ADD25C,1.778000*%
%ADD26C,3.766000*%
%ADD27P,1.732040X8X112.500000*%
%ADD28C,1.600200*%
%ADD29P,1.732040X8X22.500000*%
%ADD30P,1.539592X8X292.500000*%
%ADD31C,4.445000*%
%ADD32C,3.810000*%
%ADD33C,0.254000*%
%ADD34C,1.016000*%
%ADD35C,0.711200*%
%ADD36C,0.304800*%


D10*
X941324Y-95250D03*
X901700Y-95250D03*
X980948Y-95250D03*
X1020572Y-95250D03*
X1060196Y-95250D03*
X1099820Y-95250D03*
X1139444Y-95250D03*
X1179068Y-95250D03*
X1218692Y-95250D03*
X1258316Y-95250D03*
X1297940Y-95250D03*
X1337564Y-95250D03*
X1377188Y-95250D03*
X1416812Y-95250D03*
X1456436Y-95250D03*
X1496060Y-95250D03*
X1535684Y-95250D03*
X1575308Y-95250D03*
X1614932Y-95250D03*
X1654556Y-95250D03*
X1694180Y-95250D03*
X1733804Y-95250D03*
X69596Y-95250D03*
X109220Y-95250D03*
X148844Y-95250D03*
X188468Y-95250D03*
X228092Y-95250D03*
X267716Y-95250D03*
X307340Y-95250D03*
X346964Y-95250D03*
X386588Y-95250D03*
X426212Y-95250D03*
X465836Y-95250D03*
X505460Y-95250D03*
X545084Y-95250D03*
X584708Y-95250D03*
X624332Y-95250D03*
X663956Y-95250D03*
X703580Y-95250D03*
X743204Y-95250D03*
X782828Y-95250D03*
X822452Y-95250D03*
X862076Y-95250D03*
D11*
X1016000Y31496D02*
X1016000Y44704D01*
X1041400Y44704D02*
X1041400Y31496D01*
X1168400Y31496D02*
X1168400Y44704D01*
X1193800Y44704D02*
X1193800Y31496D01*
X1066800Y31496D02*
X1066800Y44704D01*
X1092200Y44704D02*
X1092200Y31496D01*
X1143000Y31496D02*
X1143000Y44704D01*
X1117600Y44704D02*
X1117600Y31496D01*
X1219200Y31496D02*
X1219200Y44704D01*
X1244600Y44704D02*
X1244600Y31496D01*
X1244600Y107696D02*
X1244600Y120904D01*
X1219200Y120904D02*
X1219200Y107696D01*
X1193800Y107696D02*
X1193800Y120904D01*
X1168400Y120904D02*
X1168400Y107696D01*
X1143000Y107696D02*
X1143000Y120904D01*
X1117600Y120904D02*
X1117600Y107696D01*
X1092200Y107696D02*
X1092200Y120904D01*
X1066800Y120904D02*
X1066800Y107696D01*
X1041400Y107696D02*
X1041400Y120904D01*
X1016000Y120904D02*
X1016000Y107696D01*
X711200Y44704D02*
X711200Y31496D01*
X736600Y31496D02*
X736600Y44704D01*
X863600Y44704D02*
X863600Y31496D01*
X889000Y31496D02*
X889000Y44704D01*
X762000Y44704D02*
X762000Y31496D01*
X787400Y31496D02*
X787400Y44704D01*
X838200Y44704D02*
X838200Y31496D01*
X812800Y31496D02*
X812800Y44704D01*
X914400Y44704D02*
X914400Y31496D01*
X939800Y31496D02*
X939800Y44704D01*
X939800Y107696D02*
X939800Y120904D01*
X914400Y120904D02*
X914400Y107696D01*
X889000Y107696D02*
X889000Y120904D01*
X863600Y120904D02*
X863600Y107696D01*
X838200Y107696D02*
X838200Y120904D01*
X812800Y120904D02*
X812800Y107696D01*
X787400Y107696D02*
X787400Y120904D01*
X762000Y120904D02*
X762000Y107696D01*
X736600Y107696D02*
X736600Y120904D01*
X711200Y120904D02*
X711200Y107696D01*
X419100Y44704D02*
X419100Y31496D01*
X444500Y31496D02*
X444500Y44704D01*
X571500Y44704D02*
X571500Y31496D01*
X596900Y31496D02*
X596900Y44704D01*
X469900Y44704D02*
X469900Y31496D01*
X495300Y31496D02*
X495300Y44704D01*
X546100Y44704D02*
X546100Y31496D01*
X520700Y31496D02*
X520700Y44704D01*
X622300Y44704D02*
X622300Y31496D01*
X647700Y31496D02*
X647700Y44704D01*
X647700Y107696D02*
X647700Y120904D01*
X622300Y120904D02*
X622300Y107696D01*
X596900Y107696D02*
X596900Y120904D01*
X571500Y120904D02*
X571500Y107696D01*
X546100Y107696D02*
X546100Y120904D01*
X520700Y120904D02*
X520700Y107696D01*
X495300Y107696D02*
X495300Y120904D01*
X469900Y120904D02*
X469900Y107696D01*
X444500Y107696D02*
X444500Y120904D01*
X419100Y120904D02*
X419100Y107696D01*
X1320800Y44704D02*
X1320800Y31496D01*
X1346200Y31496D02*
X1346200Y44704D01*
X1473200Y44704D02*
X1473200Y31496D01*
X1498600Y31496D02*
X1498600Y44704D01*
X1371600Y44704D02*
X1371600Y31496D01*
X1397000Y31496D02*
X1397000Y44704D01*
X1447800Y44704D02*
X1447800Y31496D01*
X1422400Y31496D02*
X1422400Y44704D01*
X1524000Y44704D02*
X1524000Y31496D01*
X1549400Y31496D02*
X1549400Y44704D01*
X1549400Y107696D02*
X1549400Y120904D01*
X1524000Y120904D02*
X1524000Y107696D01*
X1498600Y107696D02*
X1498600Y120904D01*
X1473200Y120904D02*
X1473200Y107696D01*
X1447800Y107696D02*
X1447800Y120904D01*
X1422400Y120904D02*
X1422400Y107696D01*
X1397000Y107696D02*
X1397000Y120904D01*
X1371600Y120904D02*
X1371600Y107696D01*
X1346200Y107696D02*
X1346200Y120904D01*
X1320800Y120904D02*
X1320800Y107696D01*
X101600Y247396D02*
X101600Y260604D01*
X127000Y260604D02*
X127000Y247396D01*
X152400Y247396D02*
X152400Y260604D01*
X177800Y260604D02*
X177800Y247396D01*
X203200Y247396D02*
X203200Y260604D01*
X228600Y260604D02*
X228600Y247396D01*
X254000Y247396D02*
X254000Y260604D01*
X279400Y260604D02*
X279400Y247396D01*
X304800Y247396D02*
X304800Y260604D01*
X330200Y260604D02*
X330200Y247396D01*
X355600Y247396D02*
X355600Y260604D01*
X381000Y260604D02*
X381000Y247396D01*
X381000Y323596D02*
X381000Y336804D01*
X355600Y336804D02*
X355600Y323596D01*
X330200Y323596D02*
X330200Y336804D01*
X304800Y336804D02*
X304800Y323596D01*
X279400Y323596D02*
X279400Y336804D01*
X254000Y336804D02*
X254000Y323596D01*
X228600Y323596D02*
X228600Y336804D01*
X203200Y336804D02*
X203200Y323596D01*
X177800Y323596D02*
X177800Y336804D01*
X152400Y336804D02*
X152400Y323596D01*
X127000Y323596D02*
X127000Y336804D01*
X101600Y336804D02*
X101600Y323596D01*
X1625600Y44704D02*
X1625600Y31496D01*
X1651000Y31496D02*
X1651000Y44704D01*
X1676400Y44704D02*
X1676400Y31496D01*
X1701800Y31496D02*
X1701800Y44704D01*
X1727200Y44704D02*
X1727200Y31496D01*
X1752600Y31496D02*
X1752600Y44704D01*
X1778000Y44704D02*
X1778000Y31496D01*
X1803400Y31496D02*
X1803400Y44704D01*
X1828800Y44704D02*
X1828800Y31496D01*
X1854200Y31496D02*
X1854200Y44704D01*
X1879600Y44704D02*
X1879600Y31496D01*
X1905000Y31496D02*
X1905000Y44704D01*
X1905000Y107696D02*
X1905000Y120904D01*
X1879600Y120904D02*
X1879600Y107696D01*
X1854200Y107696D02*
X1854200Y120904D01*
X1828800Y120904D02*
X1828800Y107696D01*
X1803400Y107696D02*
X1803400Y120904D01*
X1778000Y120904D02*
X1778000Y107696D01*
X1752600Y107696D02*
X1752600Y120904D01*
X1727200Y120904D02*
X1727200Y107696D01*
X1701800Y107696D02*
X1701800Y120904D01*
X1676400Y120904D02*
X1676400Y107696D01*
X1651000Y107696D02*
X1651000Y120904D01*
X1625600Y120904D02*
X1625600Y107696D01*
X76200Y44704D02*
X76200Y31496D01*
X101600Y31496D02*
X101600Y44704D01*
X127000Y44704D02*
X127000Y31496D01*
X152400Y31496D02*
X152400Y44704D01*
X177800Y44704D02*
X177800Y31496D01*
X203200Y31496D02*
X203200Y44704D01*
X228600Y44704D02*
X228600Y31496D01*
X254000Y31496D02*
X254000Y44704D01*
X279400Y44704D02*
X279400Y31496D01*
X304800Y31496D02*
X304800Y44704D01*
X330200Y44704D02*
X330200Y31496D01*
X355600Y31496D02*
X355600Y44704D01*
X355600Y107696D02*
X355600Y120904D01*
X330200Y120904D02*
X330200Y107696D01*
X304800Y107696D02*
X304800Y120904D01*
X279400Y120904D02*
X279400Y107696D01*
X254000Y107696D02*
X254000Y120904D01*
X228600Y120904D02*
X228600Y107696D01*
X203200Y107696D02*
X203200Y120904D01*
X177800Y120904D02*
X177800Y107696D01*
X152400Y107696D02*
X152400Y120904D01*
X127000Y120904D02*
X127000Y107696D01*
X101600Y107696D02*
X101600Y120904D01*
X76200Y120904D02*
X76200Y107696D01*
D12*
X101600Y165100D03*
X101600Y190500D03*
X127000Y165100D03*
X127000Y190500D03*
X152400Y165100D03*
X152400Y190500D03*
X177800Y165100D03*
X177800Y190500D03*
X203200Y165100D03*
X203200Y190500D03*
X228600Y165100D03*
X228600Y190500D03*
X254000Y165100D03*
X254000Y190500D03*
X279400Y165100D03*
X279400Y190500D03*
D13*
X1803400Y711200D03*
X1778000Y711200D03*
X1752600Y711200D03*
X1727200Y711200D03*
X1701800Y711200D03*
X1676400Y711200D03*
X1651000Y711200D03*
X1625600Y711200D03*
X1600200Y711200D03*
X1574800Y711200D03*
X1549400Y711200D03*
X1524000Y711200D03*
X1498600Y711200D03*
X1473200Y711200D03*
X1447800Y711200D03*
X1422400Y711200D03*
X1422400Y558800D03*
X1447800Y558800D03*
X1473200Y558800D03*
X1498600Y558800D03*
X1549400Y558800D03*
X1574800Y558800D03*
X1600200Y558800D03*
X1625600Y558800D03*
X1651000Y558800D03*
X1676400Y558800D03*
X1701800Y558800D03*
X1727200Y558800D03*
X1752600Y558800D03*
X1778000Y558800D03*
X1803400Y558800D03*
X1524000Y558800D03*
D11*
X1168400Y1466596D02*
X1168400Y1479804D01*
X1193800Y1479804D02*
X1193800Y1466596D01*
X1219200Y1466596D02*
X1219200Y1479804D01*
X1244600Y1479804D02*
X1244600Y1466596D01*
X1244600Y1542796D02*
X1244600Y1556004D01*
X1219200Y1556004D02*
X1219200Y1542796D01*
X1193800Y1542796D02*
X1193800Y1556004D01*
X1168400Y1556004D02*
X1168400Y1542796D01*
X1143000Y1441704D02*
X1143000Y1428496D01*
X1168400Y1428496D02*
X1168400Y1441704D01*
X1193800Y1441704D02*
X1193800Y1428496D01*
X1219200Y1428496D02*
X1219200Y1441704D01*
X1244600Y1441704D02*
X1244600Y1428496D01*
D14*
X1948688Y533400D02*
X1962912Y533400D01*
X1962912Y558800D02*
X1948688Y558800D01*
X1948688Y584200D02*
X1962912Y584200D01*
D15*
X1308100Y1529080D02*
X1308100Y1544320D01*
X1333500Y1544320D02*
X1333500Y1529080D01*
X1358900Y1529080D02*
X1358900Y1544320D01*
X1384300Y1544320D02*
X1384300Y1529080D01*
X1409700Y1529080D02*
X1409700Y1544320D01*
D11*
X1803400Y476504D02*
X1803400Y463296D01*
X1778000Y463296D02*
X1778000Y476504D01*
X1651000Y476504D02*
X1651000Y463296D01*
X1625600Y463296D02*
X1625600Y476504D01*
X1752600Y476504D02*
X1752600Y463296D01*
X1727200Y463296D02*
X1727200Y476504D01*
X1676400Y476504D02*
X1676400Y463296D01*
X1701800Y463296D02*
X1701800Y476504D01*
X1600200Y476504D02*
X1600200Y463296D01*
X1574800Y463296D02*
X1574800Y476504D01*
X1549400Y476504D02*
X1549400Y463296D01*
X1524000Y463296D02*
X1524000Y476504D01*
X1498600Y476504D02*
X1498600Y463296D01*
X1473200Y463296D02*
X1473200Y476504D01*
X1447800Y476504D02*
X1447800Y463296D01*
X1422400Y463296D02*
X1422400Y476504D01*
X1422400Y324104D02*
X1422400Y310896D01*
X1447800Y310896D02*
X1447800Y324104D01*
X1473200Y324104D02*
X1473200Y310896D01*
X1498600Y310896D02*
X1498600Y324104D01*
X1524000Y324104D02*
X1524000Y310896D01*
X1549400Y310896D02*
X1549400Y324104D01*
X1574800Y324104D02*
X1574800Y310896D01*
X1600200Y310896D02*
X1600200Y324104D01*
X1625600Y324104D02*
X1625600Y310896D01*
X1651000Y310896D02*
X1651000Y324104D01*
X1676400Y324104D02*
X1676400Y310896D01*
X1701800Y310896D02*
X1701800Y324104D01*
X1727200Y324104D02*
X1727200Y310896D01*
X1752600Y310896D02*
X1752600Y324104D01*
X1778000Y324104D02*
X1778000Y310896D01*
X1803400Y310896D02*
X1803400Y324104D01*
D14*
X1155700Y273812D02*
X1155700Y259588D01*
X1181100Y259588D02*
X1181100Y273812D01*
X1206500Y273812D02*
X1206500Y259588D01*
D11*
X1079500Y590296D02*
X1079500Y603504D01*
X1104900Y603504D02*
X1104900Y590296D01*
X1231900Y590296D02*
X1231900Y603504D01*
X1231900Y666496D02*
X1231900Y679704D01*
X1130300Y603504D02*
X1130300Y590296D01*
X1155700Y590296D02*
X1155700Y603504D01*
X1206500Y603504D02*
X1206500Y590296D01*
X1181100Y590296D02*
X1181100Y603504D01*
X1206500Y666496D02*
X1206500Y679704D01*
X1181100Y679704D02*
X1181100Y666496D01*
X1155700Y666496D02*
X1155700Y679704D01*
X1130300Y679704D02*
X1130300Y666496D01*
X1104900Y666496D02*
X1104900Y679704D01*
X1079500Y679704D02*
X1079500Y666496D01*
X1079500Y451104D02*
X1079500Y437896D01*
X1104900Y437896D02*
X1104900Y451104D01*
X1231900Y451104D02*
X1231900Y437896D01*
X1257300Y437896D02*
X1257300Y451104D01*
X1130300Y451104D02*
X1130300Y437896D01*
X1155700Y437896D02*
X1155700Y451104D01*
X1206500Y451104D02*
X1206500Y437896D01*
X1181100Y437896D02*
X1181100Y451104D01*
X1257300Y514096D02*
X1257300Y527304D01*
X1231900Y527304D02*
X1231900Y514096D01*
X1206500Y514096D02*
X1206500Y527304D01*
X1181100Y527304D02*
X1181100Y514096D01*
X1155700Y514096D02*
X1155700Y527304D01*
X1130300Y527304D02*
X1130300Y514096D01*
X1104900Y514096D02*
X1104900Y527304D01*
X1079500Y527304D02*
X1079500Y514096D01*
X1054100Y552196D02*
X1054100Y565404D01*
X1079500Y565404D02*
X1079500Y552196D01*
X1104900Y552196D02*
X1104900Y565404D01*
X1130300Y565404D02*
X1130300Y552196D01*
X1155700Y552196D02*
X1155700Y565404D01*
X1181100Y565404D02*
X1181100Y552196D01*
X1206500Y552196D02*
X1206500Y565404D01*
X1231900Y565404D02*
X1231900Y552196D01*
X1257300Y552196D02*
X1257300Y565404D01*
X1054100Y324104D02*
X1054100Y310896D01*
X1079500Y310896D02*
X1079500Y324104D01*
X1206500Y324104D02*
X1206500Y310896D01*
X1231900Y310896D02*
X1231900Y324104D01*
X1104900Y324104D02*
X1104900Y310896D01*
X1130300Y310896D02*
X1130300Y324104D01*
X1181100Y324104D02*
X1181100Y310896D01*
X1155700Y310896D02*
X1155700Y324104D01*
X1231900Y387096D02*
X1231900Y400304D01*
X1206500Y400304D02*
X1206500Y387096D01*
X1181100Y387096D02*
X1181100Y400304D01*
X1155700Y400304D02*
X1155700Y387096D01*
X1130300Y387096D02*
X1130300Y400304D01*
X1104900Y400304D02*
X1104900Y387096D01*
X1079500Y387096D02*
X1079500Y400304D01*
X1054100Y400304D02*
X1054100Y387096D01*
D14*
X1320800Y159512D02*
X1320800Y145288D01*
X1346200Y145288D02*
X1346200Y159512D01*
X1371600Y159512D02*
X1371600Y145288D01*
X838200Y450088D02*
X838200Y464312D01*
X863600Y464312D02*
X863600Y450088D01*
X889000Y450088D02*
X889000Y464312D01*
D16*
X38100Y673100D03*
X38100Y647700D03*
X685800Y381000D03*
X685800Y355600D03*
X685800Y596900D03*
X685800Y571500D03*
X2489200Y1117600D03*
X2489200Y1092200D03*
X1054100Y673100D03*
X1054100Y647700D03*
X2540000Y965200D03*
X2540000Y939800D03*
D17*
X2743200Y800100D03*
X2717800Y800100D03*
D16*
X1028700Y393700D03*
X1028700Y368300D03*
X50800Y114300D03*
X50800Y88900D03*
X393700Y114300D03*
X393700Y88900D03*
X990600Y114300D03*
X990600Y88900D03*
X685800Y114300D03*
X685800Y88900D03*
X76200Y330200D03*
X76200Y304800D03*
X1295400Y114300D03*
X1295400Y88900D03*
D18*
X1828800Y317500D03*
X1828800Y342900D03*
D16*
X1600200Y114300D03*
X1600200Y88900D03*
D19*
X124079Y1536446D03*
X79121Y1536446D03*
D20*
X136652Y1511554D03*
X66548Y1511554D03*
D19*
X289179Y1536446D03*
X244221Y1536446D03*
D20*
X301752Y1511554D03*
X231648Y1511554D03*
D14*
X419100Y1518412D02*
X419100Y1504188D01*
X393700Y1504188D02*
X393700Y1518412D01*
X495300Y1518412D02*
X495300Y1504188D01*
X469900Y1504188D02*
X469900Y1518412D01*
D21*
X546100Y1346200D03*
X622300Y1346200D03*
D17*
X596900Y1511300D03*
X571500Y1511300D03*
D21*
X1676400Y190500D03*
X1752600Y190500D03*
D22*
X279400Y368300D03*
X304800Y368300D03*
X330200Y368300D03*
X355600Y368300D03*
X317500Y165100D03*
X939800Y1536700D03*
D17*
X711200Y1511300D03*
X685800Y1511300D03*
D14*
X1041400Y1529588D02*
X1041400Y1543812D01*
X1066800Y1543812D02*
X1066800Y1529588D01*
X1092200Y1529588D02*
X1092200Y1543812D01*
D23*
X1625600Y901700D03*
X1600200Y901700D03*
X1574800Y901700D03*
X1549400Y901700D03*
X1524000Y901700D03*
X1498600Y901700D03*
X1625600Y876300D03*
X1600200Y876300D03*
X1574800Y876300D03*
X1549400Y876300D03*
X1524000Y876300D03*
X1498600Y876300D03*
X1473200Y901700D03*
X1473200Y876300D03*
X1447800Y901700D03*
X1422400Y901700D03*
X1397000Y901700D03*
X1371600Y901700D03*
X1346200Y901700D03*
X1320800Y901700D03*
X1447800Y876300D03*
X1422400Y876300D03*
X1397000Y876300D03*
X1371600Y876300D03*
X1346200Y876300D03*
X1320800Y876300D03*
X1295400Y901700D03*
X1295400Y876300D03*
X1270000Y901700D03*
X1244600Y901700D03*
X1219200Y901700D03*
X1193800Y901700D03*
X1270000Y876300D03*
X1244600Y876300D03*
X1219200Y876300D03*
X1193800Y876300D03*
X660400Y901700D03*
X635000Y901700D03*
X609600Y901700D03*
X584200Y901700D03*
X558800Y901700D03*
X533400Y901700D03*
X660400Y876300D03*
X635000Y876300D03*
X609600Y876300D03*
X584200Y876300D03*
X558800Y876300D03*
X533400Y876300D03*
X508000Y901700D03*
X508000Y876300D03*
X482600Y901700D03*
X457200Y901700D03*
X431800Y901700D03*
X406400Y901700D03*
X381000Y901700D03*
X355600Y901700D03*
X482600Y876300D03*
X457200Y876300D03*
X431800Y876300D03*
X406400Y876300D03*
X381000Y876300D03*
X355600Y876300D03*
X330200Y901700D03*
X330200Y876300D03*
X304800Y901700D03*
X279400Y901700D03*
X254000Y901700D03*
X228600Y901700D03*
X304800Y876300D03*
X279400Y876300D03*
X254000Y876300D03*
X228600Y876300D03*
D22*
X1473200Y812800D03*
X1498600Y812800D03*
X1270000Y812800D03*
X1295400Y812800D03*
X304800Y812800D03*
X330200Y812800D03*
X508000Y812800D03*
X533400Y812800D03*
X901700Y0D03*
X876300Y0D03*
X825500Y0D03*
X800100Y0D03*
X774700Y0D03*
X749300Y0D03*
X698500Y0D03*
X850900Y0D03*
D11*
X2197100Y958596D02*
X2197100Y971804D01*
X2222500Y971804D02*
X2222500Y958596D01*
X2349500Y958596D02*
X2349500Y971804D01*
X2349500Y1034796D02*
X2349500Y1048004D01*
X2247900Y971804D02*
X2247900Y958596D01*
X2273300Y958596D02*
X2273300Y971804D01*
X2324100Y971804D02*
X2324100Y958596D01*
X2298700Y958596D02*
X2298700Y971804D01*
X2324100Y1034796D02*
X2324100Y1048004D01*
X2298700Y1048004D02*
X2298700Y1034796D01*
X2273300Y1034796D02*
X2273300Y1048004D01*
X2247900Y1048004D02*
X2247900Y1034796D01*
X2222500Y1034796D02*
X2222500Y1048004D01*
X2197100Y1048004D02*
X2197100Y1034796D01*
X2197100Y819404D02*
X2197100Y806196D01*
X2222500Y806196D02*
X2222500Y819404D01*
X2349500Y819404D02*
X2349500Y806196D01*
X2349500Y882396D02*
X2349500Y895604D01*
X2247900Y819404D02*
X2247900Y806196D01*
X2273300Y806196D02*
X2273300Y819404D01*
X2324100Y819404D02*
X2324100Y806196D01*
X2298700Y806196D02*
X2298700Y819404D01*
X2324100Y882396D02*
X2324100Y895604D01*
X2298700Y895604D02*
X2298700Y882396D01*
X2273300Y882396D02*
X2273300Y895604D01*
X2247900Y895604D02*
X2247900Y882396D01*
X2222500Y882396D02*
X2222500Y895604D01*
X2197100Y895604D02*
X2197100Y882396D01*
X2197100Y273304D02*
X2197100Y260096D01*
X2222500Y260096D02*
X2222500Y273304D01*
X2349500Y273304D02*
X2349500Y260096D01*
X2374900Y260096D02*
X2374900Y273304D01*
X2247900Y273304D02*
X2247900Y260096D01*
X2273300Y260096D02*
X2273300Y273304D01*
X2324100Y273304D02*
X2324100Y260096D01*
X2298700Y260096D02*
X2298700Y273304D01*
X2400300Y273304D02*
X2400300Y260096D01*
X2425700Y260096D02*
X2425700Y273304D01*
X2425700Y336296D02*
X2425700Y349504D01*
X2400300Y349504D02*
X2400300Y336296D01*
X2374900Y336296D02*
X2374900Y349504D01*
X2349500Y349504D02*
X2349500Y336296D01*
X2324100Y336296D02*
X2324100Y349504D01*
X2298700Y349504D02*
X2298700Y336296D01*
X2273300Y336296D02*
X2273300Y349504D01*
X2247900Y349504D02*
X2247900Y336296D01*
X2222500Y336296D02*
X2222500Y349504D01*
X2197100Y349504D02*
X2197100Y336296D01*
X2197100Y653796D02*
X2197100Y667004D01*
X2222500Y667004D02*
X2222500Y653796D01*
X2349500Y653796D02*
X2349500Y667004D01*
X2374900Y667004D02*
X2374900Y653796D01*
X2247900Y653796D02*
X2247900Y667004D01*
X2273300Y667004D02*
X2273300Y653796D01*
X2324100Y653796D02*
X2324100Y667004D01*
X2298700Y667004D02*
X2298700Y653796D01*
X2400300Y653796D02*
X2400300Y667004D01*
X2425700Y667004D02*
X2425700Y653796D01*
X2425700Y729996D02*
X2425700Y743204D01*
X2400300Y743204D02*
X2400300Y729996D01*
X2374900Y729996D02*
X2374900Y743204D01*
X2349500Y743204D02*
X2349500Y729996D01*
X2324100Y729996D02*
X2324100Y743204D01*
X2298700Y743204D02*
X2298700Y729996D01*
X2273300Y729996D02*
X2273300Y743204D01*
X2247900Y743204D02*
X2247900Y729996D01*
X2222500Y729996D02*
X2222500Y743204D01*
X2197100Y743204D02*
X2197100Y729996D01*
X2197100Y501904D02*
X2197100Y488696D01*
X2222500Y488696D02*
X2222500Y501904D01*
X2349500Y501904D02*
X2349500Y488696D01*
X2374900Y488696D02*
X2374900Y501904D01*
X2247900Y501904D02*
X2247900Y488696D01*
X2273300Y488696D02*
X2273300Y501904D01*
X2324100Y501904D02*
X2324100Y488696D01*
X2298700Y488696D02*
X2298700Y501904D01*
X2400300Y501904D02*
X2400300Y488696D01*
X2425700Y488696D02*
X2425700Y501904D01*
X2425700Y564896D02*
X2425700Y578104D01*
X2400300Y578104D02*
X2400300Y564896D01*
X2374900Y564896D02*
X2374900Y578104D01*
X2349500Y578104D02*
X2349500Y564896D01*
X2324100Y564896D02*
X2324100Y578104D01*
X2298700Y578104D02*
X2298700Y564896D01*
X2273300Y564896D02*
X2273300Y578104D01*
X2247900Y578104D02*
X2247900Y564896D01*
X2222500Y564896D02*
X2222500Y578104D01*
X2197100Y578104D02*
X2197100Y564896D01*
D16*
X2108200Y876300D03*
X2108200Y800100D03*
D11*
X2197100Y95504D02*
X2197100Y82296D01*
X2222500Y82296D02*
X2222500Y95504D01*
X2247900Y95504D02*
X2247900Y82296D01*
X2273300Y82296D02*
X2273300Y95504D01*
X2298700Y95504D02*
X2298700Y82296D01*
X2324100Y82296D02*
X2324100Y95504D01*
X2349500Y95504D02*
X2349500Y82296D01*
X2374900Y82296D02*
X2374900Y95504D01*
X2400300Y95504D02*
X2400300Y82296D01*
X2425700Y82296D02*
X2425700Y95504D01*
X2451100Y95504D02*
X2451100Y82296D01*
X2476500Y82296D02*
X2476500Y95504D01*
X2476500Y158496D02*
X2476500Y171704D01*
X2451100Y171704D02*
X2451100Y158496D01*
X2425700Y158496D02*
X2425700Y171704D01*
X2400300Y171704D02*
X2400300Y158496D01*
X2374900Y158496D02*
X2374900Y171704D01*
X2349500Y171704D02*
X2349500Y158496D01*
X2324100Y158496D02*
X2324100Y171704D01*
X2298700Y171704D02*
X2298700Y158496D01*
X2273300Y158496D02*
X2273300Y171704D01*
X2247900Y171704D02*
X2247900Y158496D01*
X2222500Y158496D02*
X2222500Y171704D01*
X2197100Y171704D02*
X2197100Y158496D01*
D24*
X2070100Y1307400D03*
D25*
X2070100Y1282000D03*
X2095500Y1307400D03*
X2095500Y1282000D03*
X2120900Y1307400D03*
X2120900Y1282000D03*
X2146300Y1307400D03*
X2146300Y1282000D03*
X2171700Y1307400D03*
X2171700Y1282000D03*
X2197100Y1307400D03*
X2197100Y1282000D03*
X2222500Y1307400D03*
X2222500Y1282000D03*
X2247900Y1307400D03*
X2247900Y1282000D03*
X2273300Y1307400D03*
X2273300Y1282000D03*
X2298700Y1307400D03*
X2298700Y1282000D03*
X2324100Y1307400D03*
X2324100Y1282000D03*
X2349500Y1307400D03*
X2349500Y1282000D03*
X2374900Y1307400D03*
X2374900Y1282000D03*
X2400300Y1307400D03*
X2400300Y1282000D03*
X2425700Y1307400D03*
X2425700Y1282000D03*
X2451100Y1307400D03*
X2451100Y1282000D03*
X2476500Y1307400D03*
X2476500Y1282000D03*
X2501900Y1307400D03*
X2501900Y1282000D03*
X2527300Y1307400D03*
X2527300Y1282000D03*
X2552700Y1307400D03*
X2552700Y1282000D03*
D26*
X2021400Y1524700D03*
X2021400Y1294700D03*
X2601400Y1294700D03*
X2601400Y1524700D03*
D16*
X2400300Y457200D03*
X2400300Y381000D03*
X2336800Y457200D03*
X2336800Y381000D03*
X2286000Y457200D03*
X2286000Y381000D03*
X2222500Y457200D03*
X2222500Y381000D03*
D11*
X2317496Y1206500D02*
X2330704Y1206500D01*
X2393696Y1206500D02*
X2406904Y1206500D01*
X2292604Y1206500D02*
X2279396Y1206500D01*
X2216404Y1206500D02*
X2203196Y1206500D01*
X2279396Y1168400D02*
X2292604Y1168400D01*
X2216404Y1168400D02*
X2203196Y1168400D01*
X2279396Y1130300D02*
X2292604Y1130300D01*
X2216404Y1130300D02*
X2203196Y1130300D01*
D16*
X2171700Y1041400D03*
X2171700Y1016000D03*
X2171700Y889000D03*
X2171700Y863600D03*
X2171700Y571500D03*
X2171700Y546100D03*
X2171700Y736600D03*
X2171700Y711200D03*
X2171700Y342900D03*
X2171700Y317500D03*
X2171700Y165100D03*
X2171700Y139700D03*
D22*
X1701800Y152400D03*
X1854200Y0D03*
X2451100Y50800D03*
X2476500Y203200D03*
X2451100Y203200D03*
D27*
X2006600Y88900D03*
D28*
X2006600Y63500D03*
D29*
X2095500Y1143000D03*
D28*
X2070100Y1143000D03*
D22*
X2425700Y50800D03*
X2197100Y50800D03*
D11*
X2584196Y368300D02*
X2597404Y368300D01*
X2597404Y342900D02*
X2584196Y342900D01*
X2584196Y317500D02*
X2597404Y317500D01*
X2597404Y292100D02*
X2584196Y292100D01*
X2584196Y266700D02*
X2597404Y266700D01*
X2597404Y241300D02*
X2584196Y241300D01*
X2584196Y215900D02*
X2597404Y215900D01*
X2597404Y190500D02*
X2584196Y190500D01*
X2584196Y165100D02*
X2597404Y165100D01*
X2597404Y139700D02*
X2584196Y139700D01*
X2584196Y114300D02*
X2597404Y114300D01*
X2597404Y88900D02*
X2584196Y88900D01*
X2584196Y63500D02*
X2597404Y63500D01*
X2597404Y38100D02*
X2584196Y38100D01*
X2736596Y38100D02*
X2749804Y38100D01*
X2749804Y63500D02*
X2736596Y63500D01*
X2736596Y88900D02*
X2749804Y88900D01*
X2749804Y114300D02*
X2736596Y114300D01*
X2736596Y139700D02*
X2749804Y139700D01*
X2749804Y165100D02*
X2736596Y165100D01*
X2736596Y190500D02*
X2749804Y190500D01*
X2749804Y215900D02*
X2736596Y215900D01*
X2736596Y241300D02*
X2749804Y241300D01*
X2749804Y266700D02*
X2736596Y266700D01*
X2736596Y292100D02*
X2749804Y292100D01*
X2749804Y317500D02*
X2736596Y317500D01*
X2736596Y342900D02*
X2749804Y342900D01*
X2749804Y368300D02*
X2736596Y368300D01*
D17*
X2743200Y393700D03*
X2717800Y393700D03*
X2298700Y1079500D03*
X2222500Y1079500D03*
D11*
X2514600Y1048004D02*
X2514600Y1034796D01*
X2540000Y1034796D02*
X2540000Y1048004D01*
X2667000Y1048004D02*
X2667000Y1034796D01*
X2692400Y1034796D02*
X2692400Y1048004D01*
X2565400Y1048004D02*
X2565400Y1034796D01*
X2590800Y1034796D02*
X2590800Y1048004D01*
X2641600Y1048004D02*
X2641600Y1034796D01*
X2616200Y1034796D02*
X2616200Y1048004D01*
X2717800Y1048004D02*
X2717800Y1034796D01*
X2743200Y1034796D02*
X2743200Y1048004D01*
X2743200Y1110996D02*
X2743200Y1124204D01*
X2717800Y1124204D02*
X2717800Y1110996D01*
X2692400Y1110996D02*
X2692400Y1124204D01*
X2667000Y1124204D02*
X2667000Y1110996D01*
X2641600Y1110996D02*
X2641600Y1124204D01*
X2616200Y1124204D02*
X2616200Y1110996D01*
X2590800Y1110996D02*
X2590800Y1124204D01*
X2565400Y1124204D02*
X2565400Y1110996D01*
X2540000Y1110996D02*
X2540000Y1124204D01*
X2514600Y1124204D02*
X2514600Y1110996D01*
D21*
X2057400Y1219200D03*
X2108200Y1219200D03*
D16*
X2806700Y393700D03*
X2806700Y342900D03*
X38100Y330200D03*
X38100Y279400D03*
X2133600Y165100D03*
X2133600Y114300D03*
D17*
X2374900Y38100D03*
X2298700Y38100D03*
X825500Y1511300D03*
X800100Y1511300D03*
D11*
X673100Y1200404D02*
X673100Y1187196D01*
X698500Y1187196D02*
X698500Y1200404D01*
X825500Y1200404D02*
X825500Y1187196D01*
X850900Y1187196D02*
X850900Y1200404D01*
X723900Y1200404D02*
X723900Y1187196D01*
X749300Y1187196D02*
X749300Y1200404D01*
X800100Y1200404D02*
X800100Y1187196D01*
X774700Y1187196D02*
X774700Y1200404D01*
X850900Y1263396D02*
X850900Y1276604D01*
X825500Y1276604D02*
X825500Y1263396D01*
X800100Y1263396D02*
X800100Y1276604D01*
X774700Y1276604D02*
X774700Y1263396D01*
X749300Y1263396D02*
X749300Y1276604D01*
X723900Y1276604D02*
X723900Y1263396D01*
X698500Y1263396D02*
X698500Y1276604D01*
X673100Y1276604D02*
X673100Y1263396D01*
D17*
X698500Y1155700D03*
X622300Y1155700D03*
D18*
X736600Y1130300D03*
X736600Y1155700D03*
D17*
X698500Y1117600D03*
X622300Y1117600D03*
D21*
X673100Y1409700D03*
X749300Y1409700D03*
X800100Y1308100D03*
X876300Y1308100D03*
X825500Y1155700D03*
X850900Y1155700D03*
D18*
X901700Y1193800D03*
X901700Y1270000D03*
D21*
X774700Y1409700D03*
X850900Y1409700D03*
D16*
X647700Y1270000D03*
X647700Y1244600D03*
D30*
X571500Y215900D03*
X596900Y215900D03*
X571500Y190500D03*
X596900Y190500D03*
X571500Y165100D03*
X596900Y165100D03*
X622300Y215900D03*
X647700Y215900D03*
X622300Y190500D03*
X647700Y190500D03*
X622300Y165100D03*
X647700Y165100D03*
D11*
X711200Y298196D02*
X711200Y311404D01*
X736600Y311404D02*
X736600Y298196D01*
X863600Y298196D02*
X863600Y311404D01*
X863600Y374396D02*
X863600Y387604D01*
X762000Y311404D02*
X762000Y298196D01*
X787400Y298196D02*
X787400Y311404D01*
X838200Y311404D02*
X838200Y298196D01*
X812800Y298196D02*
X812800Y311404D01*
X838200Y374396D02*
X838200Y387604D01*
X812800Y387604D02*
X812800Y374396D01*
X787400Y374396D02*
X787400Y387604D01*
X762000Y387604D02*
X762000Y374396D01*
X736600Y374396D02*
X736600Y387604D01*
X711200Y387604D02*
X711200Y374396D01*
X711200Y514096D02*
X711200Y527304D01*
X736600Y527304D02*
X736600Y514096D01*
X863600Y514096D02*
X863600Y527304D01*
X863600Y590296D02*
X863600Y603504D01*
X762000Y527304D02*
X762000Y514096D01*
X787400Y514096D02*
X787400Y527304D01*
X838200Y527304D02*
X838200Y514096D01*
X812800Y514096D02*
X812800Y527304D01*
X838200Y590296D02*
X838200Y603504D01*
X812800Y603504D02*
X812800Y590296D01*
X787400Y590296D02*
X787400Y603504D01*
X762000Y603504D02*
X762000Y590296D01*
X736600Y590296D02*
X736600Y603504D01*
X711200Y603504D02*
X711200Y590296D01*
D14*
X723900Y210312D02*
X723900Y196088D01*
X749300Y196088D02*
X749300Y210312D01*
D11*
X2565400Y882396D02*
X2565400Y895604D01*
X2590800Y895604D02*
X2590800Y882396D01*
X2717800Y882396D02*
X2717800Y895604D01*
X2743200Y895604D02*
X2743200Y882396D01*
X2616200Y882396D02*
X2616200Y895604D01*
X2641600Y895604D02*
X2641600Y882396D01*
X2692400Y882396D02*
X2692400Y895604D01*
X2667000Y895604D02*
X2667000Y882396D01*
X2743200Y958596D02*
X2743200Y971804D01*
X2717800Y971804D02*
X2717800Y958596D01*
X2692400Y958596D02*
X2692400Y971804D01*
X2667000Y971804D02*
X2667000Y958596D01*
X2641600Y958596D02*
X2641600Y971804D01*
X2616200Y971804D02*
X2616200Y958596D01*
X2590800Y958596D02*
X2590800Y971804D01*
X2565400Y971804D02*
X2565400Y958596D01*
X2584196Y774700D02*
X2597404Y774700D01*
X2597404Y749300D02*
X2584196Y749300D01*
X2584196Y723900D02*
X2597404Y723900D01*
X2597404Y698500D02*
X2584196Y698500D01*
X2584196Y673100D02*
X2597404Y673100D01*
X2597404Y647700D02*
X2584196Y647700D01*
X2584196Y622300D02*
X2597404Y622300D01*
X2597404Y596900D02*
X2584196Y596900D01*
X2584196Y571500D02*
X2597404Y571500D01*
X2597404Y546100D02*
X2584196Y546100D01*
X2584196Y520700D02*
X2597404Y520700D01*
X2597404Y495300D02*
X2584196Y495300D01*
X2584196Y469900D02*
X2597404Y469900D01*
X2597404Y444500D02*
X2584196Y444500D01*
X2736596Y444500D02*
X2749804Y444500D01*
X2749804Y469900D02*
X2736596Y469900D01*
X2736596Y495300D02*
X2749804Y495300D01*
X2749804Y520700D02*
X2736596Y520700D01*
X2736596Y546100D02*
X2749804Y546100D01*
X2749804Y571500D02*
X2736596Y571500D01*
X2736596Y596900D02*
X2749804Y596900D01*
X2749804Y622300D02*
X2736596Y622300D01*
X2736596Y647700D02*
X2749804Y647700D01*
X2749804Y673100D02*
X2736596Y673100D01*
X2736596Y698500D02*
X2749804Y698500D01*
X2749804Y723900D02*
X2736596Y723900D01*
X2736596Y749300D02*
X2749804Y749300D01*
X2749804Y774700D02*
X2736596Y774700D01*
D14*
X2786888Y723900D02*
X2801112Y723900D01*
X2801112Y749300D02*
X2786888Y749300D01*
D22*
X723900Y0D03*
D14*
X838200Y196088D02*
X838200Y210312D01*
X863600Y210312D02*
X863600Y196088D01*
D17*
X889000Y635000D03*
X812800Y635000D03*
D11*
X571500Y755396D02*
X571500Y768604D01*
X546100Y768604D02*
X546100Y755396D01*
X520700Y755396D02*
X520700Y768604D01*
X495300Y768604D02*
X495300Y755396D01*
X469900Y755396D02*
X469900Y768604D01*
D14*
X2730500Y1339088D02*
X2730500Y1353312D01*
X2755900Y1353312D02*
X2755900Y1339088D01*
D31*
X2755900Y1429500D03*
D32*
X2755900Y1490500D03*
X2707900Y1460500D03*
D29*
X2781300Y1282700D03*
D28*
X2755900Y1282700D03*
D22*
X2578100Y1231900D03*
X2552700Y1231900D03*
X2527300Y1231900D03*
X2501900Y1231900D03*
D17*
X609600Y965200D03*
X533400Y965200D03*
X1562100Y965200D03*
X1485900Y965200D03*
D22*
X2667000Y1003300D03*
X2692400Y1003300D03*
X2641600Y850900D03*
X2667000Y850900D03*
X2743200Y1003300D03*
X2717800Y1003300D03*
X2717800Y850900D03*
X2692400Y850900D03*
X546100Y0D03*
D14*
X228600Y513588D02*
X228600Y527812D01*
X254000Y527812D02*
X254000Y513588D01*
X279400Y513588D02*
X279400Y527812D01*
X228600Y438912D02*
X228600Y424688D01*
X254000Y424688D02*
X254000Y438912D01*
X279400Y438912D02*
X279400Y424688D01*
D22*
X1346200Y177800D03*
X368300Y165100D03*
X393700Y165100D03*
X342900Y165100D03*
D21*
X330200Y431800D03*
X406400Y431800D03*
X355600Y469900D03*
X431800Y469900D03*
D33*
X1190625Y-15875D02*
X1216025Y-15875D01*
X1190625Y-15875D02*
X1181100Y-25400D01*
X1181100Y-95250D01*
X1179068Y-95250D01*
D34*
X1216025Y-15875D03*
D33*
X1168400Y-15875D02*
X1168400Y38100D01*
X1168400Y-15875D02*
X1152525Y-15875D01*
X1139825Y-28575D01*
X1139825Y-95250D01*
X1139444Y-95250D01*
X1117600Y-15875D02*
X1117600Y38100D01*
X1117600Y-15875D02*
X1111250Y-15875D01*
X1101725Y-25400D01*
X1101725Y-95250D01*
X1099820Y-95250D01*
X1066800Y-95250D02*
X1066800Y38100D01*
X1066800Y-95250D02*
X1060196Y-95250D01*
X936625Y15875D02*
X914400Y38100D01*
X936625Y15875D02*
X1003300Y15875D01*
X1016000Y-47625D02*
X1016000Y-95250D01*
X1020572Y-95250D01*
D34*
X1003300Y15875D03*
X1016000Y-47625D03*
D33*
X882650Y19050D02*
X863600Y38100D01*
X882650Y19050D02*
X923925Y19050D01*
X936625Y6350D01*
X962025Y6350D01*
X974725Y-47625D02*
X974725Y-95250D01*
X980948Y-95250D01*
D34*
X962025Y6350D03*
X974725Y-47625D03*
D33*
X828675Y95250D02*
X825500Y98425D01*
X828675Y95250D02*
X917575Y95250D01*
X923925Y101600D01*
X930275Y101600D01*
X936625Y95250D01*
X942975Y95250D01*
X949325Y101600D01*
X981075Y101600D01*
D34*
X825500Y98425D03*
X981075Y101600D03*
D33*
X815975Y88900D02*
X812800Y92075D01*
X815975Y88900D02*
X923925Y88900D01*
X927100Y92075D01*
X936625Y-47625D02*
X936625Y-95250D01*
X941324Y-95250D01*
D34*
X812800Y92075D03*
X927100Y92075D03*
X936625Y-47625D03*
D33*
X800100Y130175D02*
X803275Y133350D01*
X923925Y133350D01*
X927100Y130175D01*
D34*
X800100Y130175D03*
X927100Y130175D03*
D33*
X850900Y15875D02*
X854075Y12700D01*
X885825Y12700D01*
X889000Y9525D01*
X895350Y-47625D02*
X895350Y-95250D01*
X901700Y-95250D01*
D34*
X850900Y15875D03*
X889000Y9525D03*
X895350Y-47625D03*
D33*
X723900Y130175D02*
X733425Y139700D01*
X952500Y139700D01*
X981075Y168275D01*
X990600Y6350D02*
X981075Y-3175D01*
X917575Y-3175D01*
D34*
X723900Y130175D03*
X981075Y168275D03*
X990600Y6350D03*
X917575Y-3175D03*
D33*
X676275Y-15875D02*
X622300Y38100D01*
X676275Y-15875D02*
X708025Y-15875D01*
D34*
X708025Y-15875D03*
D33*
X1498600Y-25400D02*
X1511300Y-12700D01*
X1498600Y-25400D02*
X1498600Y-95250D01*
X1496060Y-95250D01*
X2381250Y361950D02*
X2400300Y342900D01*
X2381250Y361950D02*
X2279650Y361950D01*
X2273300Y368300D02*
X2251075Y390525D01*
X2273300Y368300D02*
X2279650Y361950D01*
X2241550Y641350D02*
X2222500Y660400D01*
X2241550Y641350D02*
X2257425Y641350D01*
X2498725Y822325D02*
X2565400Y889000D01*
X2498725Y822325D02*
X2409825Y822325D01*
X2368550Y781050D01*
X2336800Y708025D02*
X2327275Y698500D01*
X2225675Y698500D01*
X1641475Y269875D02*
X1536700Y269875D01*
X1641475Y269875D02*
X1651000Y279400D01*
X1974850Y279400D01*
X1990725Y295275D01*
X2000250Y295275D01*
X2057400Y352425D02*
X2073275Y368300D01*
X2273300Y368300D01*
D34*
X1511300Y-12700D03*
X2251075Y390525D03*
X2257425Y641350D03*
X2368550Y781050D03*
X2336800Y708025D03*
X2225675Y698500D03*
X1536700Y269875D03*
X2000250Y295275D03*
X2057400Y352425D03*
D33*
X2343150Y428625D02*
X2349500Y422275D01*
X2343150Y428625D02*
X2298700Y428625D01*
X2514600Y812800D02*
X2590800Y889000D01*
X2514600Y812800D02*
X2444750Y812800D01*
X2422525Y422275D02*
X2349500Y422275D01*
X1517650Y180975D02*
X1511300Y174625D01*
X1517650Y180975D02*
X1546225Y180975D01*
X1552575Y282575D02*
X1549400Y285750D01*
X1552575Y282575D02*
X1635125Y282575D01*
X1644650Y292100D01*
X1965325Y292100D01*
X1993900Y320675D01*
X2057400Y422275D02*
X2063750Y428625D01*
X2298700Y428625D01*
D34*
X2349500Y422275D03*
X2298700Y428625D03*
X2444750Y812800D03*
X2422525Y422275D03*
X1511300Y174625D03*
X1546225Y180975D03*
X1549400Y285750D03*
X1993900Y320675D03*
X2057400Y422275D03*
D33*
X2260600Y511175D02*
X2263775Y514350D01*
X2355850Y514350D01*
X2374900Y495300D01*
X2676525Y930275D02*
X2641600Y965200D01*
X2676525Y930275D02*
X2724150Y930275D01*
X2755900Y898525D01*
X2755900Y863600D01*
X2714625Y863600D01*
X2705100Y854075D01*
X2705100Y812800D01*
X2644775Y752475D01*
X2644775Y660400D01*
X2447925Y660400D01*
X2428875Y679450D01*
X2419350Y679450D01*
X2400300Y660400D01*
X1441450Y266700D02*
X1438275Y269875D01*
X1441450Y266700D02*
X1520825Y266700D01*
X1533525Y279400D01*
X1539875Y279400D01*
X1543050Y276225D01*
X1638300Y276225D01*
X1647825Y285750D01*
X1971675Y285750D01*
X1990725Y304800D01*
X2244725Y304800D01*
D34*
X2260600Y511175D03*
X1438275Y269875D03*
X2244725Y304800D03*
D33*
X1422400Y-47625D02*
X1422400Y-95250D01*
X1416812Y-95250D01*
X2355850Y552450D02*
X2374900Y571500D01*
X2355850Y552450D02*
X2181225Y552450D01*
X2174875Y558800D01*
X2012950Y558800D01*
X1968500Y603250D01*
X1787525Y603250D01*
X1778000Y593725D01*
X1670050Y593725D01*
X1666875Y590550D01*
X1628775Y590550D01*
X1612900Y606425D02*
X1603375Y615950D01*
X1346200Y615950D01*
X1358900Y22225D02*
X1362075Y19050D01*
X1374775Y19050D01*
X1377950Y22225D01*
X1390650Y22225D01*
X1393825Y19050D01*
X1400175Y19050D01*
X1419225Y38100D01*
X1422400Y38100D01*
D34*
X1422400Y-47625D03*
X1628775Y590550D03*
X1612900Y606425D03*
X1346200Y615950D03*
X1358900Y22225D03*
D33*
X2320925Y600075D02*
X2349500Y571500D01*
X2305050Y708025D02*
X2184400Y708025D01*
X2174875Y698500D01*
X1949450Y698500D01*
X1908175Y739775D01*
X1282700Y739775D01*
X1301750Y-15875D02*
X1412875Y-15875D01*
D34*
X2320925Y600075D03*
X2305050Y708025D03*
X1282700Y739775D03*
X1301750Y-15875D03*
X1412875Y-15875D03*
D33*
X1371600Y-47625D02*
X1371600Y-95250D01*
X1377188Y-95250D01*
X1946275Y688975D02*
X2257425Y688975D01*
X1946275Y688975D02*
X1939925Y682625D01*
X1358900Y682625D01*
X1428750Y161925D02*
X1409700Y142875D01*
D34*
X1371600Y-47625D03*
X2257425Y688975D03*
X1358900Y682625D03*
X1428750Y161925D03*
X1409700Y142875D03*
D33*
X2247900Y571500D02*
X2247900Y600075D01*
X2235200Y600075D01*
X1346200Y38100D02*
X1346200Y12700D01*
X1381125Y12700D01*
X2225675Y590550D02*
X2235200Y600075D01*
X2225675Y590550D02*
X2057400Y590550D01*
X1984375Y276225D02*
X1955800Y247650D01*
X1597025Y247650D01*
X1571625Y38100D02*
X1552575Y19050D01*
X1409700Y19050D01*
X1403350Y12700D01*
X1381125Y12700D01*
D34*
X2235200Y600075D03*
X1381125Y12700D03*
X2057400Y590550D03*
X1984375Y276225D03*
X1597025Y247650D03*
X1571625Y38100D03*
D35*
X1571625Y946150D02*
X1565275Y952500D01*
X1498600Y952500D01*
X1485900Y965200D01*
X1482725Y965200D02*
X1463675Y946150D01*
X1235075Y946150D01*
X1482725Y965200D02*
X1485900Y965200D01*
X596900Y215900D02*
X571500Y215900D01*
X596900Y215900D02*
X622300Y215900D01*
X79121Y1536446D02*
X95250Y1552575D01*
X225425Y1552575D01*
X241300Y1536700D01*
X244221Y1536446D01*
X549275Y1489075D02*
X571500Y1511300D01*
X549275Y1489075D02*
X492125Y1489075D01*
X469900Y1511300D01*
X415925Y1533525D02*
X393700Y1511300D01*
X415925Y1533525D02*
X444500Y1533525D01*
X466725Y1511300D01*
X469900Y1511300D01*
X654050Y1250950D02*
X647700Y1244600D01*
X654050Y1250950D02*
X704850Y1250950D01*
X723900Y1270000D01*
X850900Y1193800D02*
X850900Y1174750D01*
X850900Y1155700D01*
X850900Y1174750D02*
X819150Y1174750D01*
X800100Y1193800D01*
X914400Y1206500D02*
X1143000Y1435100D01*
X914400Y1206500D02*
X914400Y1181100D01*
X854075Y1181100D01*
X850900Y1193800D01*
X2540000Y88900D02*
X2590800Y38100D01*
X2540000Y88900D02*
X2476500Y88900D01*
X2590800Y444500D02*
X2540000Y495300D01*
X2425700Y495300D01*
X2717800Y393700D02*
X2717800Y355600D01*
X2794000Y355600D01*
X2806700Y342900D01*
X2609850Y393700D02*
X2600325Y403225D01*
X2609850Y393700D02*
X2717800Y393700D01*
X2517775Y358775D02*
X2425700Y266700D01*
X2517775Y358775D02*
X2517775Y390525D01*
X2609850Y390525D01*
X2609850Y393700D01*
X2540000Y939800D02*
X2520950Y958850D01*
X2355850Y958850D01*
X2349500Y965200D01*
X2178050Y1022350D02*
X2171700Y1016000D01*
X2178050Y1022350D02*
X2228850Y1022350D01*
X2247900Y1041400D01*
X2330450Y831850D02*
X2349500Y812800D01*
X2330450Y831850D02*
X2203450Y831850D01*
X2171700Y863600D01*
X2185988Y1322388D02*
X2193925Y1330325D01*
X2185988Y1322388D02*
X2171700Y1308100D01*
X2193925Y1330325D02*
X2352675Y1330325D01*
X2360613Y1322388D02*
X2374900Y1308100D01*
X2360613Y1322388D02*
X2352675Y1330325D01*
X2171700Y1308100D02*
X2171700Y1307400D01*
X2374900Y1307400D02*
X2374900Y1308100D01*
X2536825Y1323975D02*
X2552700Y1308100D01*
X2536825Y1323975D02*
X2362200Y1323975D01*
X2552700Y1308100D02*
X2552700Y1307400D01*
X2362200Y1323975D02*
X2360613Y1322388D01*
X2108200Y1219200D02*
X2054225Y1273175D01*
X2054225Y1323975D01*
X2184400Y1323975D01*
X2185988Y1322388D01*
X2555875Y1308100D02*
X2568575Y1320800D01*
X2743200Y1320800D01*
X2781300Y1282700D01*
X2555875Y1308100D02*
X2552700Y1307400D01*
X2543175Y939800D02*
X2562225Y920750D01*
X2711450Y920750D01*
X2743200Y889000D01*
X2543175Y939800D02*
X2540000Y939800D01*
X533400Y965200D02*
X511175Y942975D01*
X469900Y942975D02*
X269875Y942975D01*
X469900Y942975D02*
X511175Y942975D01*
X269875Y942975D02*
X228600Y901700D01*
X269875Y-47625D02*
X269875Y-95250D01*
X267716Y-95250D01*
X50800Y279400D02*
X76200Y304800D01*
X50800Y279400D02*
X38100Y279400D01*
X66675Y3175D02*
X66675Y-3175D01*
X66675Y-95250D01*
X66675Y3175D02*
X47625Y22225D01*
X47625Y88900D01*
X50800Y88900D01*
X66675Y-95250D02*
X69596Y-95250D01*
X269875Y-47625D02*
X269875Y-3175D01*
X66675Y-3175D01*
X1825625Y346075D02*
X1828800Y342900D01*
X1825625Y346075D02*
X1565275Y346075D01*
X1422400Y346075D01*
X1536700Y-47625D02*
X1536700Y-95250D01*
X1535684Y-95250D01*
X1733550Y-95250D02*
X1733550Y-47625D01*
X1733550Y-95250D02*
X1733804Y-95250D01*
X1905000Y38100D02*
X1914525Y47625D01*
X1965325Y47625D01*
X1778000Y19050D02*
X1768475Y9525D01*
X1778000Y19050D02*
X1889125Y19050D01*
X1905000Y34925D01*
X1905000Y38100D01*
X2108200Y88900D02*
X2133600Y114300D01*
X2108200Y88900D02*
X2006600Y88900D01*
X1054100Y647700D02*
X1041400Y635000D01*
X889000Y635000D01*
X1054100Y647700D02*
X1231900Y647700D01*
X692150Y95250D02*
X685800Y88900D01*
X692150Y95250D02*
X717550Y95250D01*
X736600Y114300D01*
X427038Y96838D02*
X419100Y88900D01*
X427038Y96838D02*
X444500Y114300D01*
X419100Y88900D02*
X393700Y88900D01*
X676275Y95250D02*
X682625Y88900D01*
X644525Y95250D02*
X428625Y95250D01*
X644525Y95250D02*
X676275Y95250D01*
X682625Y88900D02*
X685800Y88900D01*
X428625Y95250D02*
X427038Y96838D01*
X1266825Y79375D02*
X1276350Y88900D01*
X1295400Y88900D01*
X1597025Y85725D02*
X1600200Y88900D01*
X1384300Y85725D02*
X1295400Y85725D01*
X1384300Y85725D02*
X1562100Y85725D01*
X1597025Y85725D01*
X1295400Y85725D02*
X1295400Y88900D01*
X1384300Y85725D02*
X1384300Y82550D01*
X1174750Y298450D02*
X1155700Y317500D01*
X1174750Y298450D02*
X1212850Y298450D01*
X1231900Y317500D01*
X949325Y47625D02*
X939800Y38100D01*
X949325Y47625D02*
X990600Y47625D01*
X1016000Y88900D02*
X1041400Y114300D01*
X1016000Y88900D02*
X990600Y88900D01*
X1257300Y85725D02*
X1263650Y79375D01*
X1257300Y85725D02*
X1016000Y85725D01*
X1263650Y79375D02*
X1266825Y79375D01*
X1016000Y85725D02*
X1016000Y88900D01*
X768350Y79375D02*
X736600Y111125D01*
X768350Y79375D02*
X936625Y79375D01*
X946150Y88900D01*
X990600Y88900D01*
X736600Y111125D02*
X736600Y114300D01*
X1993900Y79375D02*
X2003425Y88900D01*
X1993900Y79375D02*
X1612900Y79375D01*
X1603375Y88900D01*
X2003425Y88900D02*
X2006600Y88900D01*
X1603375Y88900D02*
X1600200Y88900D01*
X1562100Y85725D02*
X1562100Y82550D01*
X393700Y88900D02*
X50800Y88900D01*
X2174875Y136525D02*
X2409825Y136525D01*
X2174875Y136525D02*
X2171700Y139700D01*
X644525Y95250D02*
X644525Y92075D01*
D34*
X1571625Y946150D03*
X1235075Y946150D03*
X2600325Y403225D03*
X469900Y942975D03*
X269875Y-47625D03*
X1565275Y346075D03*
X1422400Y346075D03*
X1536700Y-47625D03*
X1733550Y-47625D03*
X1965325Y47625D03*
X1768475Y9525D03*
X1231900Y647700D03*
X1266825Y79375D03*
X1384300Y82550D03*
X990600Y47625D03*
X1562100Y82550D03*
X2409825Y136525D03*
X644525Y92075D03*
D33*
X1460500Y-47625D02*
X1460500Y-95250D01*
X1456436Y-95250D01*
X2324100Y660400D02*
X2352675Y631825D01*
X2365375Y631825D01*
X2546350Y628650D02*
X2555875Y638175D01*
X2546350Y628650D02*
X2368550Y628650D01*
X2365375Y631825D01*
X1495425Y165100D02*
X1485900Y155575D01*
X1495425Y165100D02*
X1603375Y165100D01*
X1603375Y292100D02*
X1609725Y298450D01*
X1914525Y298450D01*
X1946275Y330200D01*
X2187575Y330200D01*
X2193925Y323850D01*
X2279650Y323850D01*
X2298700Y342900D01*
D34*
X1460500Y-47625D03*
X2365375Y631825D03*
X2555875Y638175D03*
X1485900Y155575D03*
X1603375Y165100D03*
X1603375Y292100D03*
D35*
X1193800Y1549400D02*
X1168400Y1549400D01*
X1193800Y1549400D02*
X1219200Y1549400D01*
X1244600Y1549400D01*
X1063625Y1558925D02*
X1041400Y1536700D01*
X1063625Y1558925D02*
X1155700Y1558925D01*
X1165225Y1549400D01*
X1168400Y1549400D01*
X1409700Y1558925D02*
X1409700Y1536700D01*
X1409700Y1558925D02*
X1257300Y1558925D01*
X1247775Y1549400D01*
X1244600Y1549400D01*
X622300Y1155700D02*
X622300Y1117600D01*
X647700Y1270000D02*
X673100Y1270000D01*
X622300Y1270000D02*
X546100Y1346200D01*
X622300Y1270000D02*
X647700Y1270000D01*
X673100Y1270000D02*
X673100Y1397000D01*
X673100Y1409700D01*
X762000Y1397000D02*
X774700Y1409700D01*
X762000Y1397000D02*
X673100Y1397000D01*
X777875Y1406525D02*
X842963Y1341438D01*
X876300Y1308100D01*
X777875Y1406525D02*
X774700Y1406525D01*
X774700Y1409700D01*
X842963Y1341438D02*
X1038225Y1536700D01*
X1041400Y1536700D01*
X419100Y114300D02*
X393700Y114300D01*
X571500Y762000D02*
X581025Y771525D01*
X631825Y771525D01*
X685800Y114300D02*
X711200Y114300D01*
X711200Y381000D02*
X685800Y381000D01*
X685800Y596900D02*
X711200Y596900D01*
X685800Y596900D02*
X511175Y596900D01*
X111125Y-12700D02*
X111125Y-47625D01*
X111125Y-95250D01*
X111125Y-12700D02*
X136525Y-12700D01*
X146050Y-22225D01*
X146050Y-95250D01*
X111125Y-95250D02*
X109220Y-95250D01*
X146050Y-95250D02*
X148844Y-95250D01*
X114300Y-47625D02*
X111125Y-47625D01*
X76200Y114300D02*
X50800Y114300D01*
X38100Y330200D02*
X76200Y330200D01*
X101600Y330200D01*
X498475Y606425D02*
X508000Y596900D01*
X498475Y606425D02*
X104775Y606425D01*
X38100Y673100D01*
X508000Y596900D02*
X511175Y596900D01*
X561975Y1060450D02*
X619125Y1117600D01*
X561975Y1060450D02*
X368300Y1060450D01*
X212725Y904875D01*
X212725Y876300D01*
X228600Y876300D01*
X619125Y1117600D02*
X622300Y1117600D01*
X1657350Y-12700D02*
X1657350Y-47625D01*
X1657350Y-95250D01*
X1657350Y-12700D02*
X1682750Y-12700D01*
X1692275Y-22225D01*
X1692275Y-95250D01*
X1657350Y-95250D02*
X1654556Y-95250D01*
X1692275Y-95250D02*
X1694180Y-95250D01*
X1320800Y114300D02*
X1295400Y114300D01*
X1600200Y114300D02*
X1625600Y114300D01*
X1336675Y95250D02*
X1320800Y111125D01*
X1336675Y95250D02*
X1577975Y95250D01*
X1597025Y114300D01*
X1320800Y114300D02*
X1320800Y111125D01*
X1597025Y114300D02*
X1600200Y114300D01*
X1016000Y114300D02*
X990600Y114300D01*
X1028700Y393700D02*
X1054100Y393700D01*
X1054100Y673100D02*
X1079500Y673100D01*
X1216025Y854075D02*
X1416050Y854075D01*
X1216025Y854075D02*
X1193800Y876300D01*
X1416050Y854075D02*
X1577975Y854075D01*
X1292225Y114300D02*
X1276350Y98425D01*
X1254125Y98425D01*
X1250950Y95250D01*
X1060450Y95250D01*
X1054100Y101600D01*
X1054100Y133350D01*
X1031875Y133350D01*
X1016000Y117475D01*
X1292225Y114300D02*
X1295400Y114300D01*
X1016000Y114300D02*
X1016000Y117475D01*
X2724150Y82550D02*
X2743200Y63500D01*
X2724150Y82550D02*
X2724150Y317500D01*
X2743200Y317500D01*
X2743200Y774700D02*
X2743200Y800100D01*
X2743200Y393700D02*
X2762250Y393700D01*
X2806700Y393700D01*
X2762250Y450850D02*
X2743200Y469900D01*
X2762250Y450850D02*
X2762250Y393700D01*
X2514600Y1117600D02*
X2489200Y1117600D01*
X2540000Y965200D02*
X2565400Y965200D01*
X1978025Y561975D02*
X1955800Y584200D01*
X1978025Y561975D02*
X1978025Y546100D01*
X1816100Y546100D01*
X1803400Y558800D01*
X1800225Y190500D02*
X1752600Y190500D01*
X1803400Y317500D02*
X1828800Y317500D01*
X2171700Y1041400D02*
X2197100Y1041400D01*
X2120900Y889000D02*
X2108200Y876300D01*
X2120900Y889000D02*
X2171700Y889000D01*
X2197100Y889000D01*
X2089150Y1041400D02*
X2076450Y1054100D01*
X2130425Y1041400D02*
X2171700Y1041400D01*
X2130425Y1041400D02*
X2089150Y1041400D01*
X2298700Y38100D02*
X2295525Y34925D01*
X2181225Y34925D02*
X2035175Y34925D01*
X2181225Y34925D02*
X2295525Y34925D01*
X2035175Y34925D02*
X2006600Y63500D01*
X2171700Y342900D02*
X2197100Y342900D01*
X2197100Y165100D02*
X2171700Y165100D01*
X2133600Y165100D01*
X2181225Y60325D02*
X2181225Y34925D01*
X1854200Y339725D02*
X1831975Y317500D01*
X1854200Y339725D02*
X2171700Y339725D01*
X1831975Y317500D02*
X1828800Y317500D01*
X2171700Y339725D02*
X2171700Y342900D01*
X2536825Y965200D02*
X2533650Y968375D01*
X2473325Y968375D01*
X2438400Y1003300D01*
X2165350Y1003300D01*
X2130425Y1038225D01*
X2536825Y965200D02*
X2540000Y965200D01*
X2130425Y1038225D02*
X2130425Y1041400D01*
X1692275Y171450D02*
X1625600Y171450D01*
X1692275Y171450D02*
X1711325Y190500D01*
X1752600Y190500D01*
X660400Y850900D02*
X635000Y876300D01*
X660400Y850900D02*
X984250Y850900D01*
X1009650Y876300D01*
X1193800Y876300D01*
D34*
X631825Y771525D03*
X511175Y596900D03*
X114300Y-47625D03*
X1657350Y-47625D03*
X1416050Y854075D03*
X1577975Y854075D03*
X1800225Y190500D03*
X2076450Y1054100D03*
X2181225Y60325D03*
X1625600Y171450D03*
D33*
X1778000Y317500D02*
X1797050Y336550D01*
X1819275Y336550D01*
X1825625Y330200D01*
X1831975Y330200D01*
X1844675Y342900D01*
X1844675Y365125D01*
X219075Y177800D02*
X215900Y180975D01*
X219075Y177800D02*
X377825Y177800D01*
X393700Y193675D01*
X527050Y193675D01*
X568325Y152400D01*
X755650Y152400D01*
X758825Y155575D01*
X1749425Y387350D02*
X1771650Y365125D01*
X1749425Y387350D02*
X1562100Y387350D01*
X1555750Y393700D01*
X1533525Y393700D01*
X1530350Y390525D01*
X1304925Y390525D01*
X1301750Y387350D01*
X1247775Y387350D01*
X1235075Y374650D01*
X1050925Y374650D01*
X1028700Y352425D01*
X866775Y352425D01*
X857250Y342900D01*
X765175Y342900D01*
D34*
X1844675Y365125D03*
X215900Y180975D03*
X758825Y155575D03*
X1771650Y365125D03*
X765175Y342900D03*
D33*
X231775Y225425D02*
X203200Y254000D01*
X231775Y225425D02*
X565150Y225425D01*
X571500Y231775D01*
X755650Y231775D01*
X1460500Y501650D02*
X1720850Y501650D01*
X1460500Y501650D02*
X1444625Y517525D01*
X1336675Y517525D01*
X1320800Y501650D01*
X917575Y501650D01*
X917575Y234950D02*
X914400Y231775D01*
X755650Y231775D01*
D34*
X755650Y231775D03*
X1720850Y501650D03*
X917575Y501650D03*
X917575Y234950D03*
D33*
X704850Y288925D02*
X212725Y288925D01*
X704850Y288925D02*
X717550Y276225D01*
X768350Y276225D01*
X1289050Y422275D02*
X1685925Y422275D01*
X1289050Y422275D02*
X1285875Y419100D01*
X923925Y419100D01*
X857250Y352425D01*
X815975Y352425D01*
D34*
X212725Y288925D03*
X768350Y276225D03*
X1685925Y422275D03*
X815975Y352425D03*
D33*
X1727200Y469900D02*
X1746250Y488950D01*
X1825625Y488950D01*
X171450Y273050D02*
X152400Y254000D01*
X171450Y273050D02*
X539750Y273050D01*
X571500Y241300D01*
X815975Y241300D01*
X1701800Y495300D02*
X1727200Y469900D01*
X1701800Y495300D02*
X1457325Y495300D01*
X1441450Y511175D01*
X1374775Y511175D01*
X1349375Y485775D01*
X1031875Y485775D01*
X1000125Y247650D02*
X996950Y244475D01*
X819150Y244475D01*
X815975Y241300D01*
D34*
X1825625Y488950D03*
X815975Y241300D03*
X1031875Y485775D03*
X1000125Y247650D03*
D33*
X177800Y203200D02*
X127000Y254000D01*
X177800Y203200D02*
X701675Y203200D01*
X720725Y222250D01*
X873125Y222250D01*
X1606550Y400050D02*
X1609725Y396875D01*
X1606550Y400050D02*
X1530350Y400050D01*
X1527175Y396875D01*
X1301750Y396875D01*
X1298575Y393700D01*
X1289050Y393700D01*
X1270000Y412750D01*
X949325Y412750D01*
X898525Y361950D01*
D34*
X873125Y222250D03*
X1609725Y396875D03*
X898525Y361950D03*
D33*
X930275Y187325D02*
X892175Y149225D01*
X930275Y187325D02*
X1187450Y187325D01*
X1235075Y234950D02*
X1247775Y247650D01*
X1574800Y247650D01*
D34*
X892175Y149225D03*
X1187450Y187325D03*
X1235075Y234950D03*
X1574800Y247650D03*
D33*
X920750Y200025D02*
X917575Y196850D01*
X920750Y200025D02*
X1187450Y200025D01*
X1235075Y247650D02*
X1241425Y254000D01*
X1568450Y254000D01*
X1571625Y257175D01*
X1651000Y257175D01*
D34*
X917575Y196850D03*
X1187450Y200025D03*
X1235075Y247650D03*
X1651000Y257175D03*
D33*
X987425Y161925D02*
X939800Y114300D01*
X987425Y161925D02*
X1270000Y161925D01*
X1273175Y260350D02*
X1270000Y263525D01*
X1273175Y260350D02*
X1565275Y260350D01*
X1568450Y263525D01*
X1644650Y263525D01*
X1651000Y269875D01*
X1673225Y269875D01*
D34*
X1270000Y161925D03*
X1270000Y263525D03*
X1673225Y269875D03*
D33*
X1689100Y219075D02*
X1168400Y219075D01*
X1784350Y219075D02*
X1816100Y187325D01*
X1784350Y219075D02*
X1689100Y219075D01*
X1762125Y628650D02*
X1755775Y635000D01*
X1762125Y628650D02*
X1803400Y628650D01*
D34*
X1168400Y219075D03*
X1689100Y219075D03*
X1816100Y187325D03*
X1755775Y635000D03*
X1803400Y628650D03*
D33*
X1181100Y225425D02*
X1177925Y228600D01*
X1181100Y225425D02*
X1670050Y225425D01*
X1676400Y231775D01*
X1784350Y231775D02*
X1790700Y225425D01*
X1784350Y231775D02*
X1676400Y231775D01*
X1806575Y393700D02*
X1816100Y403225D01*
X1806575Y393700D02*
X1692275Y393700D01*
X1689100Y396875D01*
D34*
X1177925Y228600D03*
X1676400Y231775D03*
X1790700Y225425D03*
X1816100Y403225D03*
X1689100Y396875D03*
D33*
X1200150Y3175D02*
X1181100Y22225D01*
X1200150Y3175D02*
X1482725Y3175D01*
X1485900Y0D01*
X1739900Y0D01*
X1778000Y38100D01*
X1670050Y450850D02*
X1651000Y469900D01*
X1670050Y450850D02*
X1736725Y450850D01*
X1711325Y650875D02*
X1708150Y654050D01*
X1711325Y650875D02*
X1825625Y650875D01*
X1844675Y428625D02*
X1838325Y422275D01*
X1749425Y422275D01*
D34*
X1181100Y22225D03*
X1736725Y450850D03*
X1708150Y654050D03*
X1825625Y650875D03*
X1844675Y428625D03*
X1749425Y422275D03*
D33*
X1473200Y-6350D02*
X1206500Y-6350D01*
X1663700Y9525D02*
X1724025Y9525D01*
X1663700Y9525D02*
X1489075Y9525D01*
X1724025Y9525D02*
X1752600Y38100D01*
X1641475Y184150D02*
X1638300Y187325D01*
X1641475Y184150D02*
X1660525Y184150D01*
X1644650Y692150D02*
X1625600Y711200D01*
X1644650Y692150D02*
X1835150Y692150D01*
X1847850Y520700D02*
X1641475Y520700D01*
D34*
X1206500Y-6350D03*
X1473200Y-6350D03*
X1489075Y9525D03*
X1638300Y187325D03*
X1660525Y184150D03*
X1663700Y9525D03*
X1835150Y692150D03*
X1847850Y520700D03*
X1641475Y520700D03*
D33*
X1203325Y149225D02*
X1168400Y114300D01*
X1203325Y149225D02*
X1270000Y149225D01*
X1273175Y365125D02*
X1282700Y374650D01*
X1400175Y374650D02*
X1597025Y374650D01*
X1400175Y374650D02*
X1282700Y374650D01*
X1736725Y368300D02*
X1739900Y365125D01*
X1736725Y368300D02*
X1657350Y368300D01*
X1651000Y374650D01*
X1597025Y374650D01*
X1574800Y581025D02*
X1600200Y606425D01*
X1574800Y581025D02*
X1419225Y581025D01*
X1409700Y571500D01*
D34*
X1270000Y149225D03*
X1273175Y365125D03*
X1597025Y374650D03*
X1739900Y365125D03*
X1600200Y606425D03*
X1409700Y571500D03*
X1400175Y374650D03*
D33*
X1250950Y209550D02*
X1231900Y190500D01*
X1587500Y209550D02*
X1698625Y209550D01*
X1587500Y209550D02*
X1250950Y209550D01*
X596900Y889000D02*
X584200Y901700D01*
X596900Y889000D02*
X596900Y841375D01*
X993775Y841375D02*
X1203325Y841375D01*
X993775Y841375D02*
X596900Y841375D01*
X1203325Y841375D02*
X1206500Y844550D01*
X1358900Y844550D01*
X1371600Y831850D01*
X1514475Y831850D01*
X1517650Y835025D01*
X1543050Y835025D01*
X1212850Y209550D02*
X1231900Y190500D01*
X1212850Y209550D02*
X1003300Y209550D01*
X993775Y841375D02*
X993775Y844550D01*
D34*
X1231900Y190500D03*
X1698625Y209550D03*
X1587500Y209550D03*
X1543050Y835025D03*
X1003300Y209550D03*
X993775Y844550D03*
D33*
X1241425Y136525D02*
X1219200Y114300D01*
X1241425Y136525D02*
X1270000Y136525D01*
X1285875Y365125D02*
X1546225Y365125D01*
X1647825Y365125D01*
X571500Y889000D02*
X558800Y901700D01*
X571500Y889000D02*
X571500Y835025D01*
X1206500Y835025D01*
X1209675Y838200D01*
X1333500Y838200D02*
X1355725Y838200D01*
X1333500Y838200D02*
X1209675Y838200D01*
X1355725Y838200D02*
X1368425Y825500D01*
X1520825Y825500D01*
X1333500Y831850D02*
X1333500Y838200D01*
D34*
X1270000Y136525D03*
X1285875Y365125D03*
X1546225Y365125D03*
X1647825Y365125D03*
X1520825Y825500D03*
X1333500Y831850D03*
D33*
X2324100Y88900D02*
X2343150Y107950D01*
X2574925Y107950D01*
X2581275Y101600D01*
X2600325Y101600D01*
X2714625Y215900D01*
X2714625Y342900D01*
X2743200Y342900D01*
X2714625Y342900D02*
X2705100Y352425D01*
X1196975Y425450D02*
X1193800Y428625D01*
X1196975Y425450D02*
X1282700Y425450D01*
X1308100Y450850D01*
X1393825Y450850D02*
X1504950Y450850D01*
X1393825Y450850D02*
X1308100Y450850D01*
X1504950Y450850D02*
X1524000Y469900D01*
X1625600Y161925D02*
X1638300Y149225D01*
X1625600Y161925D02*
X1619250Y161925D01*
X1590675Y190500D01*
X1244600Y190500D01*
X533400Y901700D02*
X549275Y917575D01*
X669925Y917575D01*
X685800Y901700D01*
X1177925Y901700D01*
X1190625Y914400D01*
X1409700Y914400D02*
X1485900Y914400D01*
X1409700Y914400D02*
X1190625Y914400D01*
X1485900Y914400D02*
X1498600Y901700D01*
X1409700Y911225D02*
X1409700Y914400D01*
X1863725Y200025D02*
X2235200Y200025D01*
X1863725Y200025D02*
X1809750Y146050D01*
X1724025Y146050D01*
X1704975Y165100D01*
X1695450Y165100D01*
X1679575Y149225D01*
X1638300Y149225D01*
D34*
X2705100Y352425D03*
X1193800Y428625D03*
X1638300Y149225D03*
X1244600Y190500D03*
X1393825Y450850D03*
X1409700Y911225D03*
X2235200Y200025D03*
D33*
X460375Y977900D02*
X438150Y955675D01*
X460375Y977900D02*
X717550Y977900D01*
X730250Y965200D01*
X1381125Y965200D01*
X2549525Y333375D02*
X2590800Y292100D01*
X2555875Y682625D02*
X2571750Y698500D01*
X2590800Y698500D01*
X1362075Y238125D02*
X1358900Y234950D01*
X1362075Y238125D02*
X1520825Y238125D01*
X1520825Y412750D02*
X2549525Y412750D01*
X1520825Y412750D02*
X1384300Y412750D01*
D34*
X438150Y955675D03*
X1381125Y965200D03*
X2549525Y333375D03*
X2555875Y682625D03*
X1358900Y234950D03*
X1520825Y238125D03*
X2549525Y412750D03*
X1520825Y412750D03*
X1384300Y412750D03*
D33*
X438150Y984250D02*
X409575Y955675D01*
X438150Y984250D02*
X720725Y984250D01*
X730250Y974725D01*
X1368425Y974725D01*
X2590800Y266700D02*
X2632075Y307975D01*
X2635250Y669925D02*
X2632075Y673100D01*
X2590800Y673100D01*
X1435100Y180975D02*
X1397000Y142875D01*
X1435100Y180975D02*
X1498600Y180975D01*
X2495550Y673100D02*
X2590800Y673100D01*
X2495550Y673100D02*
X2451100Y717550D01*
X2181225Y717550D01*
X2174875Y723900D01*
X1933575Y723900D01*
X1898650Y758825D01*
X1825625Y758825D01*
X1774825Y612775D02*
X1771650Y609600D01*
X1628775Y609600D01*
X1593850Y574675D01*
X1514475Y574675D01*
X1498600Y558800D01*
X1368425Y974725D02*
X1371600Y977900D01*
X1603375Y977900D01*
X1806575Y762000D02*
X1809750Y758825D01*
X1825625Y758825D01*
D34*
X409575Y955675D03*
X1368425Y974725D03*
X2632075Y307975D03*
X2635250Y669925D03*
X1397000Y142875D03*
X1498600Y180975D03*
X1825625Y758825D03*
X1774825Y612775D03*
X1603375Y977900D03*
X1806575Y762000D03*
D33*
X438150Y996950D02*
X396875Y955675D01*
X438150Y996950D02*
X717550Y996950D01*
X733425Y981075D01*
X1260475Y981075D01*
X1263650Y984250D01*
X2540000Y292100D02*
X2590800Y241300D01*
X2590800Y647700D02*
X2540000Y647700D01*
X1444625Y136525D02*
X1422400Y114300D01*
X1444625Y136525D02*
X1457325Y136525D01*
X1905000Y476250D02*
X2536825Y476250D01*
X1905000Y476250D02*
X1844675Y536575D01*
X1504950Y536575D01*
X1498600Y542925D01*
X1489075Y542925D01*
X1473200Y558800D01*
D34*
X396875Y955675D03*
X1263650Y984250D03*
X2540000Y292100D03*
X2540000Y647700D03*
X1457325Y136525D03*
X2536825Y476250D03*
D33*
X2641600Y266700D02*
X2590800Y215900D01*
X415925Y1009650D02*
X381000Y974725D01*
X415925Y1009650D02*
X552450Y1009650D01*
X555625Y1006475D01*
X717550Y1006475D01*
X736600Y987425D01*
X1231900Y987425D01*
X1235075Y990600D01*
X1384300Y723900D02*
X1406525Y701675D01*
X1384300Y723900D02*
X1323975Y723900D01*
X2349500Y431800D02*
X2638425Y431800D01*
X2349500Y431800D02*
X2343150Y438150D01*
X1781175Y438150D01*
X1774825Y431800D01*
X1435100Y431800D01*
D34*
X2641600Y266700D03*
X381000Y974725D03*
X1235075Y990600D03*
X1406525Y701675D03*
X1323975Y723900D03*
X2638425Y431800D03*
X1435100Y431800D03*
D33*
X390525Y1019175D02*
X355600Y984250D01*
X390525Y1019175D02*
X552450Y1019175D01*
X558800Y1012825D01*
X720725Y1012825D01*
X739775Y993775D01*
X1196975Y993775D01*
X1206500Y1003300D01*
X1209675Y1003300D01*
X1466850Y282575D02*
X1473200Y276225D01*
X1466850Y282575D02*
X1343025Y282575D01*
X1320800Y304800D01*
X1320800Y317500D01*
X1422400Y317500D01*
X2155825Y190500D02*
X2590800Y190500D01*
X2155825Y190500D02*
X2152650Y193675D01*
X1866900Y193675D01*
X1812925Y139700D01*
X1619250Y139700D01*
X1616075Y142875D01*
X1597025Y142875D01*
X1593850Y139700D01*
X1498600Y139700D01*
X1473200Y114300D01*
X1431925Y1003300D02*
X1209675Y1003300D01*
D34*
X355600Y984250D03*
X1209675Y1003300D03*
X1473200Y276225D03*
X1431925Y1003300D03*
D33*
X1450975Y441325D02*
X1470025Y441325D01*
X317500Y889000D02*
X304800Y901700D01*
X317500Y889000D02*
X317500Y831850D01*
X565150Y831850D01*
X568325Y828675D01*
X1212850Y828675D01*
X1403350Y819150D02*
X1419225Y803275D01*
X1368425Y819150D02*
X1304925Y819150D01*
X1368425Y819150D02*
X1403350Y819150D01*
X1304925Y819150D02*
X1295400Y828675D01*
X1212850Y828675D01*
X1428750Y488950D02*
X1447800Y469900D01*
X1428750Y488950D02*
X1381125Y488950D01*
X1368425Y815975D02*
X1368425Y819150D01*
X2546350Y615950D02*
X2590800Y571500D01*
X2546350Y615950D02*
X1784350Y615950D01*
X1778000Y622300D01*
X1463675Y622300D01*
X1447800Y638175D01*
D34*
X1470025Y441325D03*
X1450975Y441325D03*
X1212850Y828675D03*
X1419225Y803275D03*
X1381125Y488950D03*
X1368425Y815975D03*
X1447800Y638175D03*
D33*
X2606675Y546100D02*
X2619375Y533400D01*
X2606675Y546100D02*
X2590800Y546100D01*
X1508125Y441325D02*
X1489075Y441325D01*
X311150Y933450D02*
X279400Y901700D01*
X311150Y933450D02*
X631825Y933450D01*
X654050Y955675D01*
X1187450Y955675D01*
X1441450Y501650D02*
X1473200Y469900D01*
X1441450Y501650D02*
X1381125Y501650D01*
X2527300Y609600D02*
X2590800Y546100D01*
X2527300Y609600D02*
X1784350Y609600D01*
X1774825Y600075D01*
X1663700Y600075D01*
X1609725Y654050D02*
X1600200Y663575D01*
X1489075Y663575D01*
D34*
X2619375Y533400D03*
X1508125Y441325D03*
X1489075Y441325D03*
X1187450Y955675D03*
X1381125Y501650D03*
X1663700Y600075D03*
X1609725Y654050D03*
X1489075Y663575D03*
D33*
X1568450Y133350D02*
X1549400Y114300D01*
X1612900Y133350D02*
X1908175Y133350D01*
X1612900Y133350D02*
X1568450Y133350D01*
X1908175Y133350D02*
X1914525Y127000D01*
X2578100Y127000D01*
X2590800Y114300D01*
X2590800Y520700D02*
X2625725Y520700D01*
X1495425Y533400D02*
X1492250Y536575D01*
X1425575Y536575D01*
X1400175Y561975D01*
X1400175Y596900D01*
X1466850Y596900D01*
X266700Y889000D02*
X254000Y901700D01*
X266700Y889000D02*
X266700Y825500D01*
X561975Y825500D01*
X568325Y819150D01*
X1162050Y819150D01*
X1390650Y606425D02*
X1400175Y596900D01*
X1390650Y606425D02*
X1270000Y606425D01*
X1584325Y488950D02*
X1587500Y485775D01*
X1584325Y488950D02*
X1517650Y488950D01*
X1498600Y469900D01*
D34*
X2625725Y520700D03*
X1495425Y533400D03*
X1466850Y596900D03*
X1162050Y819150D03*
X1270000Y606425D03*
X1612900Y133350D03*
X1587500Y485775D03*
D33*
X254000Y330200D02*
X234950Y311150D01*
X123825Y311150D01*
X114300Y320675D01*
X114300Y552450D01*
X723900Y552450D01*
X730250Y558800D01*
X990600Y558800D01*
X1009650Y577850D01*
X1263650Y577850D01*
X1308100Y533400D01*
D34*
X1308100Y533400D03*
D33*
X209550Y412750D02*
X127000Y330200D01*
X209550Y412750D02*
X209550Y546100D01*
X727075Y546100D01*
X733425Y552450D01*
X993775Y552450D01*
X996950Y555625D01*
X1035050Y555625D01*
X1050925Y539750D01*
X1289050Y539750D01*
X1317625Y511175D01*
X1330325Y307975D02*
X1349375Y288925D01*
X1536700Y288925D01*
X1546225Y298450D01*
X1581150Y298450D01*
X1600200Y317500D01*
D34*
X1317625Y511175D03*
X1330325Y307975D03*
D33*
X276225Y692150D02*
X203200Y619125D01*
X276225Y692150D02*
X454025Y692150D01*
X485775Y723900D01*
X1076325Y723900D01*
X1270000Y584200D02*
X1330325Y523875D01*
X1625600Y523875D01*
X1638300Y511175D01*
X1698625Y511175D01*
D34*
X203200Y619125D03*
X1076325Y723900D03*
X1270000Y584200D03*
X1698625Y511175D03*
D33*
X247650Y628650D02*
X238125Y619125D01*
X247650Y628650D02*
X777875Y628650D01*
X847725Y698500D01*
X1397000Y698500D01*
X1403350Y692150D01*
X1508125Y692150D01*
D34*
X238125Y619125D03*
X1508125Y692150D03*
D33*
X254000Y622300D02*
X250825Y619125D01*
X254000Y622300D02*
X1181100Y622300D01*
X1196975Y638175D01*
X1435100Y638175D01*
X1489075Y631825D02*
X1704975Y631825D01*
D34*
X250825Y619125D03*
X1435100Y638175D03*
X1489075Y631825D03*
X1704975Y631825D03*
D33*
X2530475Y377825D02*
X2590800Y317500D01*
X2530475Y682625D02*
X2571750Y723900D01*
X2590800Y723900D01*
X273050Y450850D02*
X254000Y431800D01*
X273050Y450850D02*
X361950Y450850D01*
X365125Y447675D01*
X1435100Y1012825D02*
X1444625Y1003300D01*
X1435100Y1012825D02*
X1155700Y1012825D01*
X1143000Y1000125D01*
X742950Y1000125D01*
X723900Y1019175D01*
X565150Y1019175D01*
X561975Y1022350D01*
X2457450Y755650D02*
X2530475Y682625D01*
X2457450Y755650D02*
X2038350Y755650D01*
X1939925Y854075D02*
X1790700Y1003300D01*
X1444625Y1003300D01*
D34*
X2530475Y377825D03*
X2530475Y682625D03*
X365125Y447675D03*
X1444625Y1003300D03*
X561975Y1022350D03*
X2038350Y755650D03*
X1939925Y854075D03*
D33*
X431800Y863600D02*
X409575Y841375D01*
X431800Y863600D02*
X485775Y863600D01*
X495300Y873125D01*
X495300Y901700D01*
X508000Y901700D01*
X2590800Y342900D02*
X2606675Y358775D01*
X2644775Y358775D01*
X1463675Y781050D02*
X1460500Y784225D01*
X1463675Y781050D02*
X2320925Y781050D01*
X2339975Y762000D01*
X2578100Y762000D01*
X2590800Y749300D01*
X590550Y1025525D02*
X587375Y1028700D01*
X590550Y1025525D02*
X857250Y1025525D01*
X876300Y1006475D01*
X1139825Y1006475D01*
X1152525Y1019175D01*
X1441450Y1019175D01*
D34*
X409575Y841375D03*
X2644775Y358775D03*
X1460500Y784225D03*
X587375Y1028700D03*
X1441450Y1019175D03*
D33*
X1196975Y771525D02*
X1870075Y771525D01*
X1025525Y942975D02*
X650875Y942975D01*
X631825Y923925D01*
X463550Y923925D01*
X444500Y904875D01*
X444500Y876300D01*
X431800Y876300D01*
D34*
X1870075Y771525D03*
X1196975Y771525D03*
X1025525Y942975D03*
D33*
X1857375Y371475D02*
X1876425Y390525D01*
X1574800Y1047750D02*
X1577975Y1050925D01*
X1574800Y1047750D02*
X488950Y1047750D01*
D34*
X1857375Y371475D03*
X1876425Y390525D03*
X1577975Y1050925D03*
X488950Y1047750D03*
D33*
X1895475Y860425D02*
X1920875Y835025D01*
X1895475Y860425D02*
X1584325Y860425D01*
X1581150Y863600D01*
X1409700Y863600D01*
X1397000Y876300D01*
D34*
X1920875Y835025D03*
D33*
X1882775Y231775D02*
X1806575Y155575D01*
X1882775Y231775D02*
X1901825Y231775D01*
X1911350Y825500D02*
X1892300Y844550D01*
X1377950Y844550D01*
X1374775Y841375D01*
D34*
X1806575Y155575D03*
X1901825Y231775D03*
X1911350Y825500D03*
X1374775Y841375D03*
D33*
X485775Y714375D02*
X409575Y638175D01*
X485775Y714375D02*
X1060450Y714375D01*
X1244600Y273050D02*
X1222375Y250825D01*
X1244600Y273050D02*
X1327150Y273050D01*
X1330325Y200025D02*
X1333500Y196850D01*
X1670050Y196850D01*
X1676400Y190500D01*
D34*
X409575Y638175D03*
X1060450Y714375D03*
X1222375Y250825D03*
X1327150Y273050D03*
X1330325Y200025D03*
D33*
X447675Y-6350D02*
X428625Y-25400D01*
X428625Y-95250D01*
X426212Y-95250D01*
D34*
X447675Y-6350D03*
D33*
X514350Y6350D02*
X517525Y9525D01*
X514350Y6350D02*
X498475Y6350D01*
X466725Y-25400D01*
X466725Y-95250D01*
X465836Y-95250D01*
D34*
X517525Y9525D03*
D33*
X1187450Y247650D02*
X1206500Y266700D01*
X1187450Y247650D02*
X1060450Y247650D01*
X1050925Y257175D01*
X568325Y257175D01*
D34*
X568325Y257175D03*
D33*
X123825Y279400D02*
X114300Y269875D01*
X123825Y279400D02*
X669925Y279400D01*
X669925Y-47625D02*
X669925Y-95250D01*
X663956Y-95250D01*
D34*
X114300Y269875D03*
X669925Y279400D03*
X669925Y-47625D03*
D33*
X101600Y114300D02*
X101600Y165100D01*
X127000Y165100D02*
X127000Y114300D01*
X152400Y114300D02*
X152400Y165100D01*
X177800Y165100D02*
X177800Y114300D01*
X203200Y114300D02*
X203200Y165100D01*
X228600Y165100D02*
X228600Y114300D01*
X254000Y114300D02*
X254000Y165100D01*
X279400Y165100D02*
X279400Y114300D01*
X298450Y234950D02*
X279400Y254000D01*
X298450Y234950D02*
X314325Y234950D01*
X508000Y0D02*
X508000Y-95250D01*
X508000Y0D02*
X520700Y0D01*
X527050Y6350D01*
X527050Y19050D01*
X320675Y19050D01*
X505460Y-95250D02*
X508000Y-95250D01*
D34*
X314325Y234950D03*
X320675Y19050D03*
D33*
X152400Y190500D02*
X127000Y190500D01*
X152400Y190500D02*
X177800Y190500D01*
X203200Y190500D01*
X228600Y190500D01*
X254000Y190500D01*
X279400Y190500D01*
X1219200Y1435100D02*
X1219200Y1473200D01*
X1247775Y1501775D01*
X1323975Y1501775D01*
X1358900Y1536700D01*
X1193800Y1473200D02*
X1193800Y1435100D01*
X1698625Y993775D02*
X1698625Y869950D01*
D34*
X1698625Y869950D03*
X1698625Y993775D03*
D33*
X1939925Y574675D02*
X1955800Y558800D01*
X1939925Y574675D02*
X1768475Y574675D01*
X1752600Y558800D01*
X1244600Y1435100D02*
X1244600Y1473200D01*
X1320800Y1473200D02*
X1384300Y1536700D01*
X1320800Y1473200D02*
X1244600Y1473200D01*
X1812925Y720725D02*
X1803400Y711200D01*
X1812925Y720725D02*
X1901825Y720725D01*
D34*
X1901825Y720725D03*
D33*
X1168400Y1435100D02*
X1168400Y1473200D01*
X1279525Y1508125D02*
X1308100Y1536700D01*
X1279525Y1508125D02*
X1203325Y1508125D01*
X1168400Y1473200D01*
X1025525Y288925D02*
X1003300Y266700D01*
X1025525Y288925D02*
X1054100Y317500D01*
X1003300Y266700D02*
X584200Y266700D01*
X1755775Y406400D02*
X1758950Y403225D01*
X1755775Y406400D02*
X1527175Y406400D01*
X1524000Y403225D01*
X1295400Y403225D01*
X1295400Y327025D02*
X1257300Y288925D01*
X1025525Y288925D01*
D34*
X584200Y266700D03*
X1758950Y403225D03*
X1295400Y403225D03*
X1295400Y327025D03*
D33*
X1098550Y336550D02*
X1079500Y317500D01*
X1098550Y336550D02*
X1733550Y336550D01*
X1752600Y317500D01*
X1047750Y333375D02*
X609600Y333375D01*
X1047750Y333375D02*
X1050925Y336550D01*
X1098550Y336550D01*
D34*
X609600Y333375D03*
D33*
X1019175Y219075D02*
X1047750Y247650D01*
X1019175Y219075D02*
X901700Y219075D01*
X860425Y177800D01*
X635000Y177800D01*
X622300Y190500D01*
X1774825Y441325D02*
X1803400Y469900D01*
X1774825Y441325D02*
X1565275Y441325D01*
X1552575Y384175D02*
X1308100Y384175D01*
X1304925Y381000D01*
X1250950Y381000D01*
X1235075Y365125D01*
X1108075Y365125D01*
D34*
X1047750Y247650D03*
X1565275Y441325D03*
X1552575Y384175D03*
X1108075Y365125D03*
D33*
X701675Y412750D02*
X698500Y415925D01*
X701675Y412750D02*
X806450Y412750D01*
X838200Y381000D01*
D34*
X698500Y415925D03*
D33*
X673100Y1193800D02*
X533400Y1333500D01*
X533400Y1479550D01*
X882650Y1479550D01*
X939800Y1536700D01*
X1301750Y476250D02*
X1317625Y460375D01*
X939800Y476250D02*
X901700Y476250D01*
X939800Y476250D02*
X1301750Y476250D01*
X901700Y476250D02*
X892175Y485775D01*
X441325Y485775D01*
X425450Y501650D01*
X276225Y501650D01*
X266700Y511175D01*
X266700Y539750D01*
X225425Y539750D01*
X215900Y530225D01*
X215900Y330200D01*
X228600Y330200D01*
D34*
X1317625Y460375D03*
X939800Y476250D03*
D33*
X101600Y311150D02*
X101600Y254000D01*
X101600Y311150D02*
X85725Y311150D01*
X79375Y317500D01*
X34925Y317500D01*
X25400Y327025D01*
X25400Y558800D01*
X720725Y558800D01*
X749300Y587375D01*
X749300Y615950D01*
X1187450Y615950D01*
X1200150Y628650D01*
D34*
X1200150Y628650D03*
D33*
X879475Y1016000D02*
X904875Y1041400D01*
X2051050Y1041400D01*
X2079625Y1069975D01*
X2216150Y1069975D01*
X2219325Y1066800D01*
X2419350Y1066800D01*
X2501900Y984250D01*
X2571750Y984250D01*
X2590800Y965200D01*
D34*
X879475Y1016000D03*
D33*
X847725Y-3175D02*
X825500Y-25400D01*
X825500Y-95250D01*
X822452Y-95250D01*
X495300Y1511300D02*
X463550Y1543050D01*
X298450Y1543050D01*
X292100Y1536700D01*
X289179Y1536446D01*
X828675Y15875D02*
X847725Y-3175D01*
X828675Y15875D02*
X657225Y15875D01*
X847725Y-3175D02*
X850900Y0D01*
D34*
X657225Y15875D03*
D33*
X927100Y-12700D02*
X930275Y-15875D01*
X1025525Y-15875D01*
D34*
X927100Y-12700D03*
X1025525Y-15875D03*
D33*
X660400Y-25400D02*
X596900Y38100D01*
D34*
X660400Y-25400D03*
D33*
X736600Y304800D02*
X762000Y304800D01*
X739775Y342900D02*
X657225Y342900D01*
X682625Y1057275D02*
X1546225Y1057275D01*
D34*
X739775Y342900D03*
X657225Y342900D03*
X1546225Y1057275D03*
X682625Y1057275D03*
D36*
X190500Y-44450D02*
X190500Y-95250D01*
X188468Y-95250D01*
X695325Y911225D02*
X682625Y923925D01*
X955675Y911225D02*
X1174750Y911225D01*
X955675Y911225D02*
X695325Y911225D01*
X1174750Y911225D02*
X1187450Y923925D01*
X1603375Y923925D01*
X1625600Y901700D01*
X180975Y12700D02*
X177800Y15875D01*
X69850Y15875D01*
X60325Y25400D01*
X60325Y66675D01*
X946150Y66675D01*
X949325Y69850D01*
X955675Y911225D02*
X955675Y914400D01*
D34*
X190500Y-44450D03*
X682625Y923925D03*
X180975Y12700D03*
X949325Y69850D03*
X955675Y914400D03*
D36*
X1616075Y-44450D02*
X1616075Y-95250D01*
X1614932Y-95250D01*
X701675Y923925D02*
X708025Y930275D01*
X968375Y930275D02*
X1177925Y930275D01*
X968375Y930275D02*
X708025Y930275D01*
X1177925Y930275D02*
X1181100Y933450D01*
X1616075Y933450D01*
X1641475Y908050D01*
X1641475Y876300D01*
X1625600Y876300D01*
X1584325Y69850D02*
X1581150Y66675D01*
X971550Y66675D01*
X968375Y69850D01*
D34*
X1616075Y-44450D03*
X701675Y923925D03*
X1584325Y69850D03*
X968375Y69850D03*
X968375Y930275D03*
D33*
X590550Y806450D02*
X587375Y803275D01*
X590550Y806450D02*
X746125Y806450D01*
X803275Y863600D02*
X828675Y889000D01*
X1536700Y889000D01*
X1549400Y876300D01*
D34*
X587375Y803275D03*
X746125Y806450D03*
X803275Y863600D03*
D33*
X1882775Y92075D02*
X1905000Y114300D01*
X1882775Y92075D02*
X1879600Y92075D01*
X1866900Y749300D02*
X581025Y749300D01*
X574675Y742950D01*
X514350Y742950D01*
X495300Y762000D01*
D34*
X1879600Y92075D03*
X1866900Y749300D03*
D33*
X901700Y0D02*
X885825Y-15875D01*
X873125Y-15875D01*
X863600Y-25400D01*
X863600Y-95250D01*
X862076Y-95250D01*
X784225Y-15875D02*
X800100Y0D01*
X784225Y-15875D02*
X784225Y-95250D01*
X782828Y-95250D01*
X749300Y-95250D02*
X749300Y0D01*
X749300Y-95250D02*
X743204Y-95250D01*
X2781300Y711200D02*
X2794000Y723900D01*
X2781300Y711200D02*
X2733675Y711200D01*
X2724150Y701675D01*
X2724150Y508000D01*
X2752725Y508000D01*
X2762250Y498475D01*
X2762250Y482600D01*
X2701925Y482600D01*
X2632075Y412750D01*
X2562225Y412750D01*
X2549525Y400050D01*
X1866900Y400050D01*
X1822450Y355600D01*
X1041400Y355600D01*
X1028700Y342900D01*
X898525Y342900D01*
X889000Y193675D02*
X841375Y146050D01*
X708025Y146050D01*
X698500Y136525D01*
X701675Y-25400D02*
X701675Y-95250D01*
X701675Y-25400D02*
X698500Y-25400D01*
X701675Y-95250D02*
X703580Y-95250D01*
D34*
X898525Y342900D03*
X889000Y193675D03*
X698500Y136525D03*
X698500Y-25400D03*
D33*
X2435225Y984250D02*
X2438400Y987425D01*
X2435225Y984250D02*
X2241550Y984250D01*
X2222500Y965200D01*
D34*
X2438400Y987425D03*
D33*
X2273300Y812800D02*
X2247900Y787400D01*
X2105025Y787400D01*
X2057400Y835025D01*
X2057400Y949325D01*
X2181225Y949325D01*
X2197100Y965200D01*
X2295525Y860425D02*
X2279650Y844550D01*
X2295525Y860425D02*
X2441575Y860425D01*
X2463800Y882650D01*
D34*
X2279650Y844550D03*
X2463800Y882650D03*
D33*
X2143125Y927100D02*
X2066925Y850900D01*
X2143125Y927100D02*
X2279650Y927100D01*
D34*
X2066925Y850900D03*
X2279650Y927100D03*
D33*
X2266950Y107950D02*
X2247900Y88900D01*
X2266950Y107950D02*
X2301875Y107950D01*
X2311400Y98425D01*
X2311400Y57150D01*
X2330450Y57150D01*
X2473325Y996950D02*
X2409825Y1060450D01*
X2343150Y1060450D01*
X2324100Y1041400D01*
D34*
X2330450Y57150D03*
X2473325Y996950D03*
D33*
X2298700Y1041400D02*
X2279650Y1060450D01*
X2111375Y1060450D01*
X2085975Y523875D02*
X2114550Y495300D01*
X2197100Y495300D01*
D34*
X2111375Y1060450D03*
X2085975Y523875D03*
D33*
X2324100Y165100D02*
X2343150Y146050D01*
X2460625Y146050D01*
X2476500Y981075D02*
X2435225Y1022350D01*
X2292350Y1022350D01*
X2273300Y1041400D01*
D34*
X2460625Y146050D03*
X2476500Y981075D03*
D33*
X2298700Y88900D02*
X2279650Y69850D01*
X2146300Y69850D01*
X2076450Y873125D02*
X2139950Y936625D01*
X2244725Y936625D01*
D34*
X2146300Y69850D03*
X2076450Y873125D03*
X2244725Y936625D03*
D33*
X2222500Y889000D02*
X2241550Y869950D01*
X2438400Y869950D01*
D34*
X2438400Y869950D03*
D33*
X2273300Y317500D02*
X2222500Y266700D01*
X2273300Y317500D02*
X2438400Y317500D01*
X2451100Y330200D01*
X2451100Y342900D01*
X2425700Y342900D01*
X2359025Y879475D02*
X2349500Y889000D01*
X2359025Y879475D02*
X2447925Y879475D01*
D34*
X2447925Y879475D03*
D33*
X2339975Y771525D02*
X2298700Y812800D01*
X2339975Y771525D02*
X2460625Y771525D01*
X2441575Y333375D02*
X2432050Y323850D01*
X2343150Y323850D01*
X2324100Y342900D01*
D34*
X2460625Y771525D03*
X2441575Y333375D03*
D33*
X2400300Y1206500D02*
X2403475Y1209675D01*
X2473325Y1209675D01*
X2387600Y828675D02*
X2352675Y793750D01*
X2333625Y793750D01*
D34*
X2473325Y1209675D03*
X2387600Y828675D03*
X2333625Y793750D03*
D33*
X2165350Y631825D02*
X2127250Y669925D01*
X2165350Y631825D02*
X2260600Y631825D01*
X2273300Y644525D01*
X2273300Y660400D01*
D34*
X2127250Y669925D03*
D33*
X2190750Y1250950D02*
X2190750Y1279525D01*
X2197100Y1279525D01*
X2197100Y1282000D01*
X2136775Y679450D02*
X2330450Y679450D01*
X2349500Y660400D01*
D34*
X2190750Y1250950D03*
X2136775Y679450D03*
D33*
X2374900Y660400D02*
X2397125Y638175D01*
X2438400Y638175D01*
X2209800Y1130300D02*
X2266950Y1187450D01*
X2428875Y1187450D02*
X2549525Y1187450D01*
X2428875Y1187450D02*
X2266950Y1187450D01*
X2549525Y1187450D02*
X2590800Y1228725D01*
X2590800Y1266825D01*
X2524125Y1266825D01*
X2514600Y1276350D01*
X2514600Y1304925D01*
X2501900Y1304925D01*
X2501900Y1307400D01*
D34*
X2438400Y638175D03*
X2428875Y1187450D03*
D33*
X2298700Y225425D02*
X2273300Y200025D01*
D34*
X2273300Y200025D03*
X2298700Y225425D03*
D33*
X2238375Y539750D02*
X2235200Y542925D01*
X2238375Y539750D02*
X2520950Y539750D01*
D34*
X2235200Y542925D03*
X2520950Y539750D03*
D33*
X2216150Y247650D02*
X2197100Y266700D01*
X2216150Y247650D02*
X2333625Y247650D01*
D34*
X2333625Y247650D03*
D33*
X2108200Y800100D02*
X2120900Y812800D01*
X2197100Y812800D01*
X2149475Y184150D02*
X2355850Y184150D01*
X2374900Y165100D01*
X2260600Y908050D02*
X2270125Y917575D01*
X2260600Y908050D02*
X2146300Y908050D01*
X2146300Y669925D02*
X2155825Y660400D01*
X2197100Y660400D01*
D34*
X2149475Y184150D03*
X2270125Y917575D03*
X2146300Y908050D03*
X2146300Y669925D03*
D33*
X2419350Y184150D02*
X2400300Y165100D01*
X2419350Y184150D02*
X2498725Y184150D01*
X2501900Y180975D01*
X2501900Y838200D02*
X2495550Y844550D01*
X2292350Y844550D01*
D34*
X2501900Y180975D03*
X2501900Y838200D03*
X2292350Y844550D03*
D33*
X2425700Y571500D02*
X2447925Y549275D01*
D34*
X2447925Y549275D03*
D33*
X2492375Y688975D02*
X2444750Y736600D01*
X2425700Y736600D01*
D34*
X2492375Y688975D03*
D33*
X2343150Y-19050D02*
X1838325Y-19050D01*
X2343150Y-19050D02*
X2400300Y38100D01*
X2400300Y88900D01*
D34*
X1838325Y-19050D03*
D33*
X2298700Y889000D02*
X2343150Y933450D01*
X2447925Y933450D01*
D34*
X2447925Y933450D03*
D33*
X2197100Y736600D02*
X2171700Y736600D01*
X2171700Y571500D02*
X2197100Y571500D01*
X2393950Y311150D02*
X2349500Y266700D01*
X2393950Y311150D02*
X2441575Y311150D01*
X2457450Y327025D01*
X2457450Y368300D01*
X2298700Y368300D01*
X2286000Y381000D01*
X2286000Y1206500D02*
X2324100Y1206500D01*
X2286000Y1206500D02*
X2251075Y1241425D01*
X2117725Y1241425D01*
X2082800Y1276350D01*
X2082800Y1304925D01*
X2070100Y1304925D01*
X2070100Y1307400D01*
X2451100Y88900D02*
X2451100Y50800D01*
X2425700Y50800D02*
X2425700Y88900D01*
X2667000Y349250D02*
X2647950Y368300D01*
X2590800Y368300D01*
D34*
X2667000Y349250D03*
D33*
X2743200Y266700D02*
X2806700Y330200D01*
X2809875Y330200D01*
X2819400Y339725D01*
X2819400Y1085850D01*
X2797175Y1085850D01*
X2619375Y1263650D01*
X2600325Y1263650D01*
D34*
X2600325Y1263650D03*
D33*
X736600Y546100D02*
X711200Y520700D01*
X736600Y546100D02*
X1000125Y546100D01*
X1130300Y1085850D02*
X1133475Y1089025D01*
X1844675Y1089025D01*
X1870075Y1114425D01*
X2451100Y1114425D01*
X2505075Y1060450D01*
X2746375Y1060450D01*
X2813050Y993775D01*
X2813050Y698500D01*
X2743200Y698500D01*
D34*
X1000125Y546100D03*
X1130300Y1085850D03*
D33*
X171450Y57150D02*
X152400Y38100D01*
X901700Y57150D02*
X1993900Y57150D01*
X901700Y57150D02*
X171450Y57150D01*
X1993900Y57150D02*
X2025650Y25400D01*
X2362200Y25400D01*
X2374900Y38100D01*
X901700Y53975D02*
X901700Y57150D01*
D34*
X901700Y53975D03*
D33*
X698500Y1155700D02*
X698500Y1193800D01*
X723900Y1193800D01*
X711200Y1130300D02*
X698500Y1117600D01*
X711200Y1130300D02*
X736600Y1130300D01*
X800100Y1270000D02*
X825500Y1270000D01*
X800100Y1270000D02*
X800100Y1308100D01*
X882650Y1212850D02*
X901700Y1193800D01*
X882650Y1212850D02*
X844550Y1212850D01*
X825500Y1193800D01*
X419100Y1511300D02*
X400050Y1492250D01*
X184150Y1492250D01*
X142875Y1533525D01*
X127000Y1533525D01*
X124079Y1536446D01*
X758825Y577850D02*
X749300Y568325D01*
X758825Y577850D02*
X844550Y577850D01*
X863600Y596900D01*
X342900Y307975D02*
X339725Y311150D01*
X342900Y307975D02*
X708025Y307975D01*
X711200Y304800D01*
D34*
X749300Y568325D03*
X339725Y311150D03*
D33*
X349250Y234950D02*
X441325Y234950D01*
X349250Y234950D02*
X330200Y254000D01*
D34*
X441325Y234950D03*
D33*
X333375Y133350D02*
X301625Y165100D01*
X333375Y133350D02*
X476250Y133350D01*
X495300Y114300D01*
D34*
X301625Y165100D03*
D33*
X447675Y323850D02*
X441325Y330200D01*
X381000Y330200D01*
X793750Y323850D02*
X812800Y304800D01*
X793750Y323850D02*
X447675Y323850D01*
X450850Y320675D01*
X1625600Y38100D02*
X1644650Y19050D01*
X1692275Y19050D01*
X1720850Y-9525D02*
X1847850Y-9525D01*
X1851025Y-12700D01*
X2339975Y-12700D01*
X2387600Y34925D01*
X2387600Y88900D01*
X2374900Y88900D01*
X841375Y276225D02*
X812800Y304800D01*
X841375Y276225D02*
X981075Y276225D01*
X1003300Y174625D02*
X1006475Y171450D01*
X1279525Y171450D01*
X1317625Y133350D01*
X1431925Y133350D01*
X1444625Y146050D01*
X1587500Y146050D01*
X1590675Y149225D01*
D34*
X450850Y320675D03*
X1692275Y19050D03*
X1720850Y-9525D03*
X981075Y276225D03*
X1003300Y174625D03*
X1590675Y149225D03*
D33*
X441325Y139700D02*
X396875Y184150D01*
X441325Y139700D02*
X520700Y139700D01*
X527050Y133350D02*
X546100Y114300D01*
X527050Y133350D02*
X520700Y139700D01*
X701675Y127000D02*
X711200Y136525D01*
X701675Y127000D02*
X657225Y127000D01*
X650875Y133350D01*
X527050Y133350D01*
X1901825Y733425D02*
X1939925Y695325D01*
X1901825Y733425D02*
X1289050Y733425D01*
X1260475Y704850D01*
X787400Y704850D01*
X720725Y638175D01*
D34*
X396875Y184150D03*
X711200Y136525D03*
X1939925Y695325D03*
X720725Y638175D03*
D33*
X2692400Y850900D02*
X2692400Y889000D01*
X755650Y539750D02*
X736600Y520700D01*
X755650Y539750D02*
X793750Y539750D01*
X812800Y520700D01*
X2670175Y911225D02*
X2692400Y889000D01*
X2670175Y911225D02*
X2482850Y911225D01*
X2447925Y946150D01*
X2219325Y946150D01*
X2209800Y955675D01*
X2209800Y984250D01*
X2082800Y984250D01*
X1892300Y793750D01*
X860425Y793750D01*
D34*
X860425Y793750D03*
D33*
X838200Y596900D02*
X812800Y596900D01*
X2336800Y1193800D02*
X2352675Y1209675D01*
X2336800Y1193800D02*
X946150Y1193800D01*
X860425Y1108075D01*
D34*
X2352675Y1209675D03*
X860425Y1108075D03*
D33*
X1654175Y241300D02*
X1651000Y238125D01*
X1654175Y241300D02*
X2298700Y241300D01*
X2324100Y215900D01*
X2568575Y215900D01*
X2581275Y203200D01*
X2641600Y203200D01*
D34*
X1651000Y238125D03*
X2641600Y203200D03*
D33*
X2717800Y965200D02*
X2717800Y1003300D01*
X330200Y368300D02*
X330200Y330200D01*
X2698750Y1022350D02*
X2717800Y1003300D01*
X2698750Y1022350D02*
X2473325Y1022350D01*
X2397125Y1098550D01*
X1917700Y1098550D01*
X1885950Y1066800D01*
X584200Y1066800D01*
D34*
X584200Y1066800D03*
D33*
X355600Y368300D02*
X355600Y330200D01*
X2717800Y812800D02*
X2717800Y850900D01*
X2717800Y812800D02*
X2714625Y812800D01*
X2651125Y749300D01*
X2651125Y635000D01*
X2565400Y635000D01*
X2552700Y622300D01*
X1828800Y622300D01*
X1806575Y644525D01*
X1454150Y644525D01*
X1450975Y647700D01*
X1339850Y647700D01*
X1295400Y466725D02*
X901700Y466725D01*
X889000Y479425D01*
X438150Y479425D01*
X434975Y482600D01*
X368300Y482600D01*
X355600Y469900D01*
D34*
X1339850Y647700D03*
X1295400Y466725D03*
D33*
X1727200Y114300D02*
X1749425Y92075D01*
X1831975Y92075D01*
D34*
X1831975Y92075D03*
D33*
X2743200Y723900D02*
X2768600Y749300D01*
X2794000Y749300D01*
X2736850Y501650D02*
X2743200Y495300D01*
X2736850Y501650D02*
X2606675Y501650D01*
X2600325Y508000D01*
X2435225Y508000D01*
X2409825Y533400D01*
X2028825Y533400D01*
X1965325Y596900D01*
X1825625Y596900D01*
X1812925Y584200D01*
X1692275Y584200D01*
X1609725Y666750D02*
X1603375Y673100D01*
X1254125Y673100D01*
X1235075Y692150D01*
X854075Y692150D01*
X796925Y635000D01*
D34*
X1692275Y584200D03*
X1609725Y666750D03*
X796925Y635000D03*
D33*
X177800Y38100D02*
X206375Y9525D01*
X412750Y9525D01*
X1438275Y781050D02*
X1441450Y784225D01*
X1438275Y781050D02*
X539750Y781050D01*
X520700Y762000D01*
D34*
X412750Y9525D03*
X1441450Y784225D03*
D33*
X469900Y762000D02*
X409575Y701675D01*
D34*
X409575Y701675D03*
D33*
X2549525Y1260475D02*
X2578100Y1231900D01*
X2549525Y1260475D02*
X2327275Y1260475D01*
X2311400Y1276350D01*
X2311400Y1304925D01*
X2298700Y1304925D01*
X2298700Y1307400D01*
X2540000Y1219200D02*
X2552700Y1231900D01*
X2540000Y1219200D02*
X2343150Y1219200D01*
X2286000Y1276350D01*
X2286000Y1320800D01*
X2311400Y1320800D01*
X2324100Y1308100D01*
X2324100Y1307400D01*
X2486025Y1247775D02*
X2501900Y1231900D01*
X2486025Y1247775D02*
X2365375Y1247775D01*
D34*
X2365375Y1247775D03*
D33*
X2667000Y1003300D02*
X2667000Y965200D01*
X2692400Y965200D02*
X2692400Y1003300D01*
X2641600Y889000D02*
X2641600Y850900D01*
X2667000Y850900D02*
X2667000Y889000D01*
X2743200Y965200D02*
X2743200Y1003300D01*
X1117600Y428625D02*
X1114425Y425450D01*
X895350Y425450D01*
X863600Y457200D01*
D34*
X1117600Y428625D03*
D33*
X762000Y381000D02*
X736600Y406400D01*
X254000Y406400D01*
X228600Y431800D01*
X815975Y457200D02*
X876300Y396875D01*
X815975Y457200D02*
X292100Y457200D01*
X228600Y520700D01*
D34*
X876300Y396875D03*
D33*
X304800Y368300D02*
X304800Y330200D01*
X923925Y495300D02*
X1346200Y495300D01*
X923925Y495300D02*
X920750Y492125D01*
X444500Y492125D01*
X415925Y520700D01*
X279400Y520700D01*
D34*
X1346200Y495300D03*
D33*
X279400Y368300D02*
X279400Y330200D01*
M02*
