M48
;GenerationSoftware,Autodesk,EAGLE,9.6.1*%
;CreationDate,2025-01-20T00:33:59Z*%
FMAT,2
ICI,OFF
METRIC,TZ,000.000
T9C0.610
T8C0.813
T7C0.914
T6C1.016
T5C1.100
T4C1.143
T3C1.200
T2C1.300
T1C3.962
%
G90
M71
T1
X55880Y59690
T2
X15160Y64850
X12660Y64850
X10160Y69850
X25400Y69850
X27900Y64850
X30400Y64850
X22900Y64850
X20400Y64850
X25360Y64850
X7660Y64850
X5160Y64850
X10120Y64850
T3
X30400Y69850
X15160Y72350
X5160Y72350
X5160Y69850
X30400Y72350
X20400Y72350
X20400Y69850
X15160Y69850
T4
X86360Y38100
X71120Y38100
T5
X83740Y38100
X73740Y38100
T6
X58420Y5080
X55880Y5080
X53340Y5080
X50800Y5080
X48260Y7620
X48260Y5080
X45720Y7620
X43180Y7620
X40640Y7620
X38100Y7620
X35560Y7620
X33020Y7620
X45720Y5080
X43180Y5080
X40640Y5080
X38100Y5080
X35560Y5080
X33020Y5080
X30480Y7620
X30480Y5080
X76200Y38100
X81280Y38100
X63500Y7620
X60960Y7620
X58420Y7620
X55880Y7620
X73660Y66040
X27940Y7620
X25400Y7620
X22860Y7620
X20320Y7620
X53340Y7620
X27940Y5080
X25400Y5080
X22860Y5080
X91440Y16510
X20320Y5080
X45720Y69850
X43180Y69850
X48260Y69850
X50800Y7620
X63500Y5080
X60960Y5080
T7
X35560Y69850
X38100Y69850
X24130Y12700
X24130Y15240
X26670Y12700
X26670Y15240
T8
X45720Y66040
X68580Y60960
X66040Y60960
X77470Y59690
X80010Y59690
X76200Y17780
X77470Y67310
X82550Y59690
X85090Y59690
X82550Y67310
X85090Y67310
X80010Y69850
X77470Y69850
X73660Y63500
X73660Y60960
X83820Y69850
X86360Y69850
X88900Y59690
X88900Y67310
X88900Y57150
X88900Y54610
X81280Y20320
X81280Y12700
X86360Y8890
X83820Y8890
X76200Y15240
X86360Y16510
X88900Y16510
X82550Y55880
X85090Y55880
X19050Y15240
X19050Y12700
X3810Y7620
X3810Y17780
X38100Y13970
X40640Y13970
X43180Y13970
X45720Y13970
X48260Y13970
X50800Y13970
X53340Y13970
X55880Y13970
X58420Y13970
X60960Y13970
X63500Y13970
X66040Y13970
X66040Y21590
X63500Y21590
X60960Y21590
X58420Y21590
X55880Y21590
X53340Y21590
X50800Y21590
X48260Y21590
X45720Y21590
X43180Y21590
X40640Y21590
X38100Y21590
X77445Y6350
X72415Y6350
X74930Y3810
X6350Y57150
X6350Y49530
X13970Y49530
X13970Y57150
X19050Y54610
X19050Y52070
X2540Y26670
X5080Y26670
X17780Y26670
X20320Y26670
X7620Y26670
X10160Y26670
X15240Y26670
X12700Y26670
X22860Y26670
X25400Y26670
X27940Y26670
X30480Y26670
X33020Y26670
X35560Y26670
X38100Y26670
X40640Y26670
X43180Y26670
X45720Y26670
X48260Y26670
X50800Y26670
X50800Y41910
X48260Y41910
X45720Y41910
X43180Y41910
X40640Y41910
X38100Y41910
X35560Y41910
X33020Y41910
X30480Y41910
X27940Y41910
X25400Y41910
X22860Y41910
X20320Y41910
X17780Y41910
X15240Y41910
X12700Y41910
X10160Y41910
X7620Y41910
X5080Y41910
X2540Y41910
X54610Y36830
X54610Y44450
X57150Y36830
X57150Y44450
X59690Y36830
X59690Y44450
X54610Y26670
X54610Y34290
X58420Y26670
X58420Y34290
X62230Y26670
X62230Y34290
X62230Y36830
X62230Y44450
X48260Y46990
X55880Y46990
X48260Y50800
X55880Y50800
X46990Y49530
X39370Y49530
X31750Y45720
X39370Y45720
X26670Y57150
X24130Y57150
X26670Y49530
X24130Y49530
X80010Y67310
X35560Y21590
X35560Y19050
X3810Y44450
X6350Y44450
X68580Y67310
X68580Y69850
X69850Y21590
X69850Y13970
X67310Y55880
X65405Y54610
X67310Y53340
X60960Y57150
X60960Y49530
X11430Y12700
X11430Y15240
X43205Y63500
X48235Y63500
X55880Y67310
X55880Y69850
T9
X41910Y43815
X47625Y32067
X60642Y24765
X24765Y46990
X31750Y33020
X26670Y35560
X21907Y11112
X13970Y23495
X40640Y52387
M30