G04 EAGLE Gerber RS-274X export*
G75*
%MOMM*%
%FSLAX34Y34*%
%LPD*%
%INBoard Outline*%
%IPPOS*%
%AMOC8*
5,1,8,0,0,1.08239X$1,22.5*%
G01*
%ADD10C,0.000000*%
%ADD11C,0.254000*%


D10*
X0Y12700D02*
X939800Y12700D01*
X939800Y736600D01*
X0Y736600D01*
X0Y12700D01*
X298000Y698500D02*
X298002Y698654D01*
X298008Y698809D01*
X298018Y698963D01*
X298032Y699117D01*
X298050Y699270D01*
X298071Y699423D01*
X298097Y699576D01*
X298127Y699727D01*
X298160Y699878D01*
X298198Y700028D01*
X298239Y700177D01*
X298284Y700325D01*
X298333Y700471D01*
X298386Y700617D01*
X298442Y700760D01*
X298502Y700903D01*
X298566Y701043D01*
X298633Y701183D01*
X298704Y701320D01*
X298778Y701455D01*
X298856Y701589D01*
X298937Y701720D01*
X299022Y701849D01*
X299110Y701977D01*
X299201Y702101D01*
X299295Y702224D01*
X299393Y702344D01*
X299493Y702461D01*
X299597Y702576D01*
X299703Y702688D01*
X299812Y702797D01*
X299924Y702903D01*
X300039Y703007D01*
X300156Y703107D01*
X300276Y703205D01*
X300399Y703299D01*
X300523Y703390D01*
X300651Y703478D01*
X300780Y703563D01*
X300911Y703644D01*
X301045Y703722D01*
X301180Y703796D01*
X301317Y703867D01*
X301457Y703934D01*
X301597Y703998D01*
X301740Y704058D01*
X301883Y704114D01*
X302029Y704167D01*
X302175Y704216D01*
X302323Y704261D01*
X302472Y704302D01*
X302622Y704340D01*
X302773Y704373D01*
X302924Y704403D01*
X303077Y704429D01*
X303230Y704450D01*
X303383Y704468D01*
X303537Y704482D01*
X303691Y704492D01*
X303846Y704498D01*
X304000Y704500D01*
X304154Y704498D01*
X304309Y704492D01*
X304463Y704482D01*
X304617Y704468D01*
X304770Y704450D01*
X304923Y704429D01*
X305076Y704403D01*
X305227Y704373D01*
X305378Y704340D01*
X305528Y704302D01*
X305677Y704261D01*
X305825Y704216D01*
X305971Y704167D01*
X306117Y704114D01*
X306260Y704058D01*
X306403Y703998D01*
X306543Y703934D01*
X306683Y703867D01*
X306820Y703796D01*
X306955Y703722D01*
X307089Y703644D01*
X307220Y703563D01*
X307349Y703478D01*
X307477Y703390D01*
X307601Y703299D01*
X307724Y703205D01*
X307844Y703107D01*
X307961Y703007D01*
X308076Y702903D01*
X308188Y702797D01*
X308297Y702688D01*
X308403Y702576D01*
X308507Y702461D01*
X308607Y702344D01*
X308705Y702224D01*
X308799Y702101D01*
X308890Y701977D01*
X308978Y701849D01*
X309063Y701720D01*
X309144Y701589D01*
X309222Y701455D01*
X309296Y701320D01*
X309367Y701183D01*
X309434Y701043D01*
X309498Y700903D01*
X309558Y700760D01*
X309614Y700617D01*
X309667Y700471D01*
X309716Y700325D01*
X309761Y700177D01*
X309802Y700028D01*
X309840Y699878D01*
X309873Y699727D01*
X309903Y699576D01*
X309929Y699423D01*
X309950Y699270D01*
X309968Y699117D01*
X309982Y698963D01*
X309992Y698809D01*
X309998Y698654D01*
X310000Y698500D01*
X309998Y698346D01*
X309992Y698191D01*
X309982Y698037D01*
X309968Y697883D01*
X309950Y697730D01*
X309929Y697577D01*
X309903Y697424D01*
X309873Y697273D01*
X309840Y697122D01*
X309802Y696972D01*
X309761Y696823D01*
X309716Y696675D01*
X309667Y696529D01*
X309614Y696383D01*
X309558Y696240D01*
X309498Y696097D01*
X309434Y695957D01*
X309367Y695817D01*
X309296Y695680D01*
X309222Y695545D01*
X309144Y695411D01*
X309063Y695280D01*
X308978Y695151D01*
X308890Y695023D01*
X308799Y694899D01*
X308705Y694776D01*
X308607Y694656D01*
X308507Y694539D01*
X308403Y694424D01*
X308297Y694312D01*
X308188Y694203D01*
X308076Y694097D01*
X307961Y693993D01*
X307844Y693893D01*
X307724Y693795D01*
X307601Y693701D01*
X307477Y693610D01*
X307349Y693522D01*
X307220Y693437D01*
X307089Y693356D01*
X306955Y693278D01*
X306820Y693204D01*
X306683Y693133D01*
X306543Y693066D01*
X306403Y693002D01*
X306260Y692942D01*
X306117Y692886D01*
X305971Y692833D01*
X305825Y692784D01*
X305677Y692739D01*
X305528Y692698D01*
X305378Y692660D01*
X305227Y692627D01*
X305076Y692597D01*
X304923Y692571D01*
X304770Y692550D01*
X304617Y692532D01*
X304463Y692518D01*
X304309Y692508D01*
X304154Y692502D01*
X304000Y692500D01*
X303846Y692502D01*
X303691Y692508D01*
X303537Y692518D01*
X303383Y692532D01*
X303230Y692550D01*
X303077Y692571D01*
X302924Y692597D01*
X302773Y692627D01*
X302622Y692660D01*
X302472Y692698D01*
X302323Y692739D01*
X302175Y692784D01*
X302029Y692833D01*
X301883Y692886D01*
X301740Y692942D01*
X301597Y693002D01*
X301457Y693066D01*
X301317Y693133D01*
X301180Y693204D01*
X301045Y693278D01*
X300911Y693356D01*
X300780Y693437D01*
X300651Y693522D01*
X300523Y693610D01*
X300399Y693701D01*
X300276Y693795D01*
X300156Y693893D01*
X300039Y693993D01*
X299924Y694097D01*
X299812Y694203D01*
X299703Y694312D01*
X299597Y694424D01*
X299493Y694539D01*
X299393Y694656D01*
X299295Y694776D01*
X299201Y694899D01*
X299110Y695023D01*
X299022Y695151D01*
X298937Y695280D01*
X298856Y695411D01*
X298778Y695545D01*
X298704Y695680D01*
X298633Y695817D01*
X298566Y695957D01*
X298502Y696097D01*
X298442Y696240D01*
X298386Y696383D01*
X298333Y696529D01*
X298284Y696675D01*
X298239Y696823D01*
X298198Y696972D01*
X298160Y697122D01*
X298127Y697273D01*
X298097Y697424D01*
X298071Y697577D01*
X298050Y697730D01*
X298032Y697883D01*
X298018Y698037D01*
X298008Y698191D01*
X298002Y698346D01*
X298000Y698500D01*
X298000Y723500D02*
X298002Y723654D01*
X298008Y723809D01*
X298018Y723963D01*
X298032Y724117D01*
X298050Y724270D01*
X298071Y724423D01*
X298097Y724576D01*
X298127Y724727D01*
X298160Y724878D01*
X298198Y725028D01*
X298239Y725177D01*
X298284Y725325D01*
X298333Y725471D01*
X298386Y725617D01*
X298442Y725760D01*
X298502Y725903D01*
X298566Y726043D01*
X298633Y726183D01*
X298704Y726320D01*
X298778Y726455D01*
X298856Y726589D01*
X298937Y726720D01*
X299022Y726849D01*
X299110Y726977D01*
X299201Y727101D01*
X299295Y727224D01*
X299393Y727344D01*
X299493Y727461D01*
X299597Y727576D01*
X299703Y727688D01*
X299812Y727797D01*
X299924Y727903D01*
X300039Y728007D01*
X300156Y728107D01*
X300276Y728205D01*
X300399Y728299D01*
X300523Y728390D01*
X300651Y728478D01*
X300780Y728563D01*
X300911Y728644D01*
X301045Y728722D01*
X301180Y728796D01*
X301317Y728867D01*
X301457Y728934D01*
X301597Y728998D01*
X301740Y729058D01*
X301883Y729114D01*
X302029Y729167D01*
X302175Y729216D01*
X302323Y729261D01*
X302472Y729302D01*
X302622Y729340D01*
X302773Y729373D01*
X302924Y729403D01*
X303077Y729429D01*
X303230Y729450D01*
X303383Y729468D01*
X303537Y729482D01*
X303691Y729492D01*
X303846Y729498D01*
X304000Y729500D01*
X304154Y729498D01*
X304309Y729492D01*
X304463Y729482D01*
X304617Y729468D01*
X304770Y729450D01*
X304923Y729429D01*
X305076Y729403D01*
X305227Y729373D01*
X305378Y729340D01*
X305528Y729302D01*
X305677Y729261D01*
X305825Y729216D01*
X305971Y729167D01*
X306117Y729114D01*
X306260Y729058D01*
X306403Y728998D01*
X306543Y728934D01*
X306683Y728867D01*
X306820Y728796D01*
X306955Y728722D01*
X307089Y728644D01*
X307220Y728563D01*
X307349Y728478D01*
X307477Y728390D01*
X307601Y728299D01*
X307724Y728205D01*
X307844Y728107D01*
X307961Y728007D01*
X308076Y727903D01*
X308188Y727797D01*
X308297Y727688D01*
X308403Y727576D01*
X308507Y727461D01*
X308607Y727344D01*
X308705Y727224D01*
X308799Y727101D01*
X308890Y726977D01*
X308978Y726849D01*
X309063Y726720D01*
X309144Y726589D01*
X309222Y726455D01*
X309296Y726320D01*
X309367Y726183D01*
X309434Y726043D01*
X309498Y725903D01*
X309558Y725760D01*
X309614Y725617D01*
X309667Y725471D01*
X309716Y725325D01*
X309761Y725177D01*
X309802Y725028D01*
X309840Y724878D01*
X309873Y724727D01*
X309903Y724576D01*
X309929Y724423D01*
X309950Y724270D01*
X309968Y724117D01*
X309982Y723963D01*
X309992Y723809D01*
X309998Y723654D01*
X310000Y723500D01*
X309998Y723346D01*
X309992Y723191D01*
X309982Y723037D01*
X309968Y722883D01*
X309950Y722730D01*
X309929Y722577D01*
X309903Y722424D01*
X309873Y722273D01*
X309840Y722122D01*
X309802Y721972D01*
X309761Y721823D01*
X309716Y721675D01*
X309667Y721529D01*
X309614Y721383D01*
X309558Y721240D01*
X309498Y721097D01*
X309434Y720957D01*
X309367Y720817D01*
X309296Y720680D01*
X309222Y720545D01*
X309144Y720411D01*
X309063Y720280D01*
X308978Y720151D01*
X308890Y720023D01*
X308799Y719899D01*
X308705Y719776D01*
X308607Y719656D01*
X308507Y719539D01*
X308403Y719424D01*
X308297Y719312D01*
X308188Y719203D01*
X308076Y719097D01*
X307961Y718993D01*
X307844Y718893D01*
X307724Y718795D01*
X307601Y718701D01*
X307477Y718610D01*
X307349Y718522D01*
X307220Y718437D01*
X307089Y718356D01*
X306955Y718278D01*
X306820Y718204D01*
X306683Y718133D01*
X306543Y718066D01*
X306403Y718002D01*
X306260Y717942D01*
X306117Y717886D01*
X305971Y717833D01*
X305825Y717784D01*
X305677Y717739D01*
X305528Y717698D01*
X305378Y717660D01*
X305227Y717627D01*
X305076Y717597D01*
X304923Y717571D01*
X304770Y717550D01*
X304617Y717532D01*
X304463Y717518D01*
X304309Y717508D01*
X304154Y717502D01*
X304000Y717500D01*
X303846Y717502D01*
X303691Y717508D01*
X303537Y717518D01*
X303383Y717532D01*
X303230Y717550D01*
X303077Y717571D01*
X302924Y717597D01*
X302773Y717627D01*
X302622Y717660D01*
X302472Y717698D01*
X302323Y717739D01*
X302175Y717784D01*
X302029Y717833D01*
X301883Y717886D01*
X301740Y717942D01*
X301597Y718002D01*
X301457Y718066D01*
X301317Y718133D01*
X301180Y718204D01*
X301045Y718278D01*
X300911Y718356D01*
X300780Y718437D01*
X300651Y718522D01*
X300523Y718610D01*
X300399Y718701D01*
X300276Y718795D01*
X300156Y718893D01*
X300039Y718993D01*
X299924Y719097D01*
X299812Y719203D01*
X299703Y719312D01*
X299597Y719424D01*
X299493Y719539D01*
X299393Y719656D01*
X299295Y719776D01*
X299201Y719899D01*
X299110Y720023D01*
X299022Y720151D01*
X298937Y720280D01*
X298856Y720411D01*
X298778Y720545D01*
X298704Y720680D01*
X298633Y720817D01*
X298566Y720957D01*
X298502Y721097D01*
X298442Y721240D01*
X298386Y721383D01*
X298333Y721529D01*
X298284Y721675D01*
X298239Y721823D01*
X298198Y721972D01*
X298160Y722122D01*
X298127Y722273D01*
X298097Y722424D01*
X298071Y722577D01*
X298050Y722730D01*
X298032Y722883D01*
X298018Y723037D01*
X298008Y723191D01*
X298002Y723346D01*
X298000Y723500D01*
X198000Y723500D02*
X198002Y723654D01*
X198008Y723809D01*
X198018Y723963D01*
X198032Y724117D01*
X198050Y724270D01*
X198071Y724423D01*
X198097Y724576D01*
X198127Y724727D01*
X198160Y724878D01*
X198198Y725028D01*
X198239Y725177D01*
X198284Y725325D01*
X198333Y725471D01*
X198386Y725617D01*
X198442Y725760D01*
X198502Y725903D01*
X198566Y726043D01*
X198633Y726183D01*
X198704Y726320D01*
X198778Y726455D01*
X198856Y726589D01*
X198937Y726720D01*
X199022Y726849D01*
X199110Y726977D01*
X199201Y727101D01*
X199295Y727224D01*
X199393Y727344D01*
X199493Y727461D01*
X199597Y727576D01*
X199703Y727688D01*
X199812Y727797D01*
X199924Y727903D01*
X200039Y728007D01*
X200156Y728107D01*
X200276Y728205D01*
X200399Y728299D01*
X200523Y728390D01*
X200651Y728478D01*
X200780Y728563D01*
X200911Y728644D01*
X201045Y728722D01*
X201180Y728796D01*
X201317Y728867D01*
X201457Y728934D01*
X201597Y728998D01*
X201740Y729058D01*
X201883Y729114D01*
X202029Y729167D01*
X202175Y729216D01*
X202323Y729261D01*
X202472Y729302D01*
X202622Y729340D01*
X202773Y729373D01*
X202924Y729403D01*
X203077Y729429D01*
X203230Y729450D01*
X203383Y729468D01*
X203537Y729482D01*
X203691Y729492D01*
X203846Y729498D01*
X204000Y729500D01*
X204154Y729498D01*
X204309Y729492D01*
X204463Y729482D01*
X204617Y729468D01*
X204770Y729450D01*
X204923Y729429D01*
X205076Y729403D01*
X205227Y729373D01*
X205378Y729340D01*
X205528Y729302D01*
X205677Y729261D01*
X205825Y729216D01*
X205971Y729167D01*
X206117Y729114D01*
X206260Y729058D01*
X206403Y728998D01*
X206543Y728934D01*
X206683Y728867D01*
X206820Y728796D01*
X206955Y728722D01*
X207089Y728644D01*
X207220Y728563D01*
X207349Y728478D01*
X207477Y728390D01*
X207601Y728299D01*
X207724Y728205D01*
X207844Y728107D01*
X207961Y728007D01*
X208076Y727903D01*
X208188Y727797D01*
X208297Y727688D01*
X208403Y727576D01*
X208507Y727461D01*
X208607Y727344D01*
X208705Y727224D01*
X208799Y727101D01*
X208890Y726977D01*
X208978Y726849D01*
X209063Y726720D01*
X209144Y726589D01*
X209222Y726455D01*
X209296Y726320D01*
X209367Y726183D01*
X209434Y726043D01*
X209498Y725903D01*
X209558Y725760D01*
X209614Y725617D01*
X209667Y725471D01*
X209716Y725325D01*
X209761Y725177D01*
X209802Y725028D01*
X209840Y724878D01*
X209873Y724727D01*
X209903Y724576D01*
X209929Y724423D01*
X209950Y724270D01*
X209968Y724117D01*
X209982Y723963D01*
X209992Y723809D01*
X209998Y723654D01*
X210000Y723500D01*
X209998Y723346D01*
X209992Y723191D01*
X209982Y723037D01*
X209968Y722883D01*
X209950Y722730D01*
X209929Y722577D01*
X209903Y722424D01*
X209873Y722273D01*
X209840Y722122D01*
X209802Y721972D01*
X209761Y721823D01*
X209716Y721675D01*
X209667Y721529D01*
X209614Y721383D01*
X209558Y721240D01*
X209498Y721097D01*
X209434Y720957D01*
X209367Y720817D01*
X209296Y720680D01*
X209222Y720545D01*
X209144Y720411D01*
X209063Y720280D01*
X208978Y720151D01*
X208890Y720023D01*
X208799Y719899D01*
X208705Y719776D01*
X208607Y719656D01*
X208507Y719539D01*
X208403Y719424D01*
X208297Y719312D01*
X208188Y719203D01*
X208076Y719097D01*
X207961Y718993D01*
X207844Y718893D01*
X207724Y718795D01*
X207601Y718701D01*
X207477Y718610D01*
X207349Y718522D01*
X207220Y718437D01*
X207089Y718356D01*
X206955Y718278D01*
X206820Y718204D01*
X206683Y718133D01*
X206543Y718066D01*
X206403Y718002D01*
X206260Y717942D01*
X206117Y717886D01*
X205971Y717833D01*
X205825Y717784D01*
X205677Y717739D01*
X205528Y717698D01*
X205378Y717660D01*
X205227Y717627D01*
X205076Y717597D01*
X204923Y717571D01*
X204770Y717550D01*
X204617Y717532D01*
X204463Y717518D01*
X204309Y717508D01*
X204154Y717502D01*
X204000Y717500D01*
X203846Y717502D01*
X203691Y717508D01*
X203537Y717518D01*
X203383Y717532D01*
X203230Y717550D01*
X203077Y717571D01*
X202924Y717597D01*
X202773Y717627D01*
X202622Y717660D01*
X202472Y717698D01*
X202323Y717739D01*
X202175Y717784D01*
X202029Y717833D01*
X201883Y717886D01*
X201740Y717942D01*
X201597Y718002D01*
X201457Y718066D01*
X201317Y718133D01*
X201180Y718204D01*
X201045Y718278D01*
X200911Y718356D01*
X200780Y718437D01*
X200651Y718522D01*
X200523Y718610D01*
X200399Y718701D01*
X200276Y718795D01*
X200156Y718893D01*
X200039Y718993D01*
X199924Y719097D01*
X199812Y719203D01*
X199703Y719312D01*
X199597Y719424D01*
X199493Y719539D01*
X199393Y719656D01*
X199295Y719776D01*
X199201Y719899D01*
X199110Y720023D01*
X199022Y720151D01*
X198937Y720280D01*
X198856Y720411D01*
X198778Y720545D01*
X198704Y720680D01*
X198633Y720817D01*
X198566Y720957D01*
X198502Y721097D01*
X198442Y721240D01*
X198386Y721383D01*
X198333Y721529D01*
X198284Y721675D01*
X198239Y721823D01*
X198198Y721972D01*
X198160Y722122D01*
X198127Y722273D01*
X198097Y722424D01*
X198071Y722577D01*
X198050Y722730D01*
X198032Y722883D01*
X198018Y723037D01*
X198008Y723191D01*
X198002Y723346D01*
X198000Y723500D01*
X198000Y698500D02*
X198002Y698654D01*
X198008Y698809D01*
X198018Y698963D01*
X198032Y699117D01*
X198050Y699270D01*
X198071Y699423D01*
X198097Y699576D01*
X198127Y699727D01*
X198160Y699878D01*
X198198Y700028D01*
X198239Y700177D01*
X198284Y700325D01*
X198333Y700471D01*
X198386Y700617D01*
X198442Y700760D01*
X198502Y700903D01*
X198566Y701043D01*
X198633Y701183D01*
X198704Y701320D01*
X198778Y701455D01*
X198856Y701589D01*
X198937Y701720D01*
X199022Y701849D01*
X199110Y701977D01*
X199201Y702101D01*
X199295Y702224D01*
X199393Y702344D01*
X199493Y702461D01*
X199597Y702576D01*
X199703Y702688D01*
X199812Y702797D01*
X199924Y702903D01*
X200039Y703007D01*
X200156Y703107D01*
X200276Y703205D01*
X200399Y703299D01*
X200523Y703390D01*
X200651Y703478D01*
X200780Y703563D01*
X200911Y703644D01*
X201045Y703722D01*
X201180Y703796D01*
X201317Y703867D01*
X201457Y703934D01*
X201597Y703998D01*
X201740Y704058D01*
X201883Y704114D01*
X202029Y704167D01*
X202175Y704216D01*
X202323Y704261D01*
X202472Y704302D01*
X202622Y704340D01*
X202773Y704373D01*
X202924Y704403D01*
X203077Y704429D01*
X203230Y704450D01*
X203383Y704468D01*
X203537Y704482D01*
X203691Y704492D01*
X203846Y704498D01*
X204000Y704500D01*
X204154Y704498D01*
X204309Y704492D01*
X204463Y704482D01*
X204617Y704468D01*
X204770Y704450D01*
X204923Y704429D01*
X205076Y704403D01*
X205227Y704373D01*
X205378Y704340D01*
X205528Y704302D01*
X205677Y704261D01*
X205825Y704216D01*
X205971Y704167D01*
X206117Y704114D01*
X206260Y704058D01*
X206403Y703998D01*
X206543Y703934D01*
X206683Y703867D01*
X206820Y703796D01*
X206955Y703722D01*
X207089Y703644D01*
X207220Y703563D01*
X207349Y703478D01*
X207477Y703390D01*
X207601Y703299D01*
X207724Y703205D01*
X207844Y703107D01*
X207961Y703007D01*
X208076Y702903D01*
X208188Y702797D01*
X208297Y702688D01*
X208403Y702576D01*
X208507Y702461D01*
X208607Y702344D01*
X208705Y702224D01*
X208799Y702101D01*
X208890Y701977D01*
X208978Y701849D01*
X209063Y701720D01*
X209144Y701589D01*
X209222Y701455D01*
X209296Y701320D01*
X209367Y701183D01*
X209434Y701043D01*
X209498Y700903D01*
X209558Y700760D01*
X209614Y700617D01*
X209667Y700471D01*
X209716Y700325D01*
X209761Y700177D01*
X209802Y700028D01*
X209840Y699878D01*
X209873Y699727D01*
X209903Y699576D01*
X209929Y699423D01*
X209950Y699270D01*
X209968Y699117D01*
X209982Y698963D01*
X209992Y698809D01*
X209998Y698654D01*
X210000Y698500D01*
X209998Y698346D01*
X209992Y698191D01*
X209982Y698037D01*
X209968Y697883D01*
X209950Y697730D01*
X209929Y697577D01*
X209903Y697424D01*
X209873Y697273D01*
X209840Y697122D01*
X209802Y696972D01*
X209761Y696823D01*
X209716Y696675D01*
X209667Y696529D01*
X209614Y696383D01*
X209558Y696240D01*
X209498Y696097D01*
X209434Y695957D01*
X209367Y695817D01*
X209296Y695680D01*
X209222Y695545D01*
X209144Y695411D01*
X209063Y695280D01*
X208978Y695151D01*
X208890Y695023D01*
X208799Y694899D01*
X208705Y694776D01*
X208607Y694656D01*
X208507Y694539D01*
X208403Y694424D01*
X208297Y694312D01*
X208188Y694203D01*
X208076Y694097D01*
X207961Y693993D01*
X207844Y693893D01*
X207724Y693795D01*
X207601Y693701D01*
X207477Y693610D01*
X207349Y693522D01*
X207220Y693437D01*
X207089Y693356D01*
X206955Y693278D01*
X206820Y693204D01*
X206683Y693133D01*
X206543Y693066D01*
X206403Y693002D01*
X206260Y692942D01*
X206117Y692886D01*
X205971Y692833D01*
X205825Y692784D01*
X205677Y692739D01*
X205528Y692698D01*
X205378Y692660D01*
X205227Y692627D01*
X205076Y692597D01*
X204923Y692571D01*
X204770Y692550D01*
X204617Y692532D01*
X204463Y692518D01*
X204309Y692508D01*
X204154Y692502D01*
X204000Y692500D01*
X203846Y692502D01*
X203691Y692508D01*
X203537Y692518D01*
X203383Y692532D01*
X203230Y692550D01*
X203077Y692571D01*
X202924Y692597D01*
X202773Y692627D01*
X202622Y692660D01*
X202472Y692698D01*
X202323Y692739D01*
X202175Y692784D01*
X202029Y692833D01*
X201883Y692886D01*
X201740Y692942D01*
X201597Y693002D01*
X201457Y693066D01*
X201317Y693133D01*
X201180Y693204D01*
X201045Y693278D01*
X200911Y693356D01*
X200780Y693437D01*
X200651Y693522D01*
X200523Y693610D01*
X200399Y693701D01*
X200276Y693795D01*
X200156Y693893D01*
X200039Y693993D01*
X199924Y694097D01*
X199812Y694203D01*
X199703Y694312D01*
X199597Y694424D01*
X199493Y694539D01*
X199393Y694656D01*
X199295Y694776D01*
X199201Y694899D01*
X199110Y695023D01*
X199022Y695151D01*
X198937Y695280D01*
X198856Y695411D01*
X198778Y695545D01*
X198704Y695680D01*
X198633Y695817D01*
X198566Y695957D01*
X198502Y696097D01*
X198442Y696240D01*
X198386Y696383D01*
X198333Y696529D01*
X198284Y696675D01*
X198239Y696823D01*
X198198Y696972D01*
X198160Y697122D01*
X198127Y697273D01*
X198097Y697424D01*
X198071Y697577D01*
X198050Y697730D01*
X198032Y697883D01*
X198018Y698037D01*
X198008Y698191D01*
X198002Y698346D01*
X198000Y698500D01*
X538988Y596900D02*
X538994Y597386D01*
X539012Y597872D01*
X539042Y598357D01*
X539083Y598842D01*
X539137Y599325D01*
X539202Y599807D01*
X539280Y600287D01*
X539369Y600765D01*
X539469Y601241D01*
X539582Y601714D01*
X539706Y602184D01*
X539841Y602651D01*
X539988Y603115D01*
X540146Y603574D01*
X540316Y604030D01*
X540496Y604482D01*
X540688Y604929D01*
X540890Y605371D01*
X541103Y605808D01*
X541327Y606239D01*
X541562Y606665D01*
X541807Y607085D01*
X542062Y607499D01*
X542327Y607907D01*
X542602Y608308D01*
X542887Y608702D01*
X543181Y609089D01*
X543485Y609469D01*
X543798Y609841D01*
X544120Y610205D01*
X544451Y610561D01*
X544791Y610909D01*
X545139Y611249D01*
X545495Y611580D01*
X545859Y611902D01*
X546231Y612215D01*
X546611Y612519D01*
X546998Y612813D01*
X547392Y613098D01*
X547793Y613373D01*
X548201Y613638D01*
X548615Y613893D01*
X549035Y614138D01*
X549461Y614373D01*
X549892Y614597D01*
X550329Y614810D01*
X550771Y615012D01*
X551218Y615204D01*
X551670Y615384D01*
X552126Y615554D01*
X552585Y615712D01*
X553049Y615859D01*
X553516Y615994D01*
X553986Y616118D01*
X554459Y616231D01*
X554935Y616331D01*
X555413Y616420D01*
X555893Y616498D01*
X556375Y616563D01*
X556858Y616617D01*
X557343Y616658D01*
X557828Y616688D01*
X558314Y616706D01*
X558800Y616712D01*
X559286Y616706D01*
X559772Y616688D01*
X560257Y616658D01*
X560742Y616617D01*
X561225Y616563D01*
X561707Y616498D01*
X562187Y616420D01*
X562665Y616331D01*
X563141Y616231D01*
X563614Y616118D01*
X564084Y615994D01*
X564551Y615859D01*
X565015Y615712D01*
X565474Y615554D01*
X565930Y615384D01*
X566382Y615204D01*
X566829Y615012D01*
X567271Y614810D01*
X567708Y614597D01*
X568139Y614373D01*
X568565Y614138D01*
X568985Y613893D01*
X569399Y613638D01*
X569807Y613373D01*
X570208Y613098D01*
X570602Y612813D01*
X570989Y612519D01*
X571369Y612215D01*
X571741Y611902D01*
X572105Y611580D01*
X572461Y611249D01*
X572809Y610909D01*
X573149Y610561D01*
X573480Y610205D01*
X573802Y609841D01*
X574115Y609469D01*
X574419Y609089D01*
X574713Y608702D01*
X574998Y608308D01*
X575273Y607907D01*
X575538Y607499D01*
X575793Y607085D01*
X576038Y606665D01*
X576273Y606239D01*
X576497Y605808D01*
X576710Y605371D01*
X576912Y604929D01*
X577104Y604482D01*
X577284Y604030D01*
X577454Y603574D01*
X577612Y603115D01*
X577759Y602651D01*
X577894Y602184D01*
X578018Y601714D01*
X578131Y601241D01*
X578231Y600765D01*
X578320Y600287D01*
X578398Y599807D01*
X578463Y599325D01*
X578517Y598842D01*
X578558Y598357D01*
X578588Y597872D01*
X578606Y597386D01*
X578612Y596900D01*
X578606Y596414D01*
X578588Y595928D01*
X578558Y595443D01*
X578517Y594958D01*
X578463Y594475D01*
X578398Y593993D01*
X578320Y593513D01*
X578231Y593035D01*
X578131Y592559D01*
X578018Y592086D01*
X577894Y591616D01*
X577759Y591149D01*
X577612Y590685D01*
X577454Y590226D01*
X577284Y589770D01*
X577104Y589318D01*
X576912Y588871D01*
X576710Y588429D01*
X576497Y587992D01*
X576273Y587561D01*
X576038Y587135D01*
X575793Y586715D01*
X575538Y586301D01*
X575273Y585893D01*
X574998Y585492D01*
X574713Y585098D01*
X574419Y584711D01*
X574115Y584331D01*
X573802Y583959D01*
X573480Y583595D01*
X573149Y583239D01*
X572809Y582891D01*
X572461Y582551D01*
X572105Y582220D01*
X571741Y581898D01*
X571369Y581585D01*
X570989Y581281D01*
X570602Y580987D01*
X570208Y580702D01*
X569807Y580427D01*
X569399Y580162D01*
X568985Y579907D01*
X568565Y579662D01*
X568139Y579427D01*
X567708Y579203D01*
X567271Y578990D01*
X566829Y578788D01*
X566382Y578596D01*
X565930Y578416D01*
X565474Y578246D01*
X565015Y578088D01*
X564551Y577941D01*
X564084Y577806D01*
X563614Y577682D01*
X563141Y577569D01*
X562665Y577469D01*
X562187Y577380D01*
X561707Y577302D01*
X561225Y577237D01*
X560742Y577183D01*
X560257Y577142D01*
X559772Y577112D01*
X559286Y577094D01*
X558800Y577088D01*
X558314Y577094D01*
X557828Y577112D01*
X557343Y577142D01*
X556858Y577183D01*
X556375Y577237D01*
X555893Y577302D01*
X555413Y577380D01*
X554935Y577469D01*
X554459Y577569D01*
X553986Y577682D01*
X553516Y577806D01*
X553049Y577941D01*
X552585Y578088D01*
X552126Y578246D01*
X551670Y578416D01*
X551218Y578596D01*
X550771Y578788D01*
X550329Y578990D01*
X549892Y579203D01*
X549461Y579427D01*
X549035Y579662D01*
X548615Y579907D01*
X548201Y580162D01*
X547793Y580427D01*
X547392Y580702D01*
X546998Y580987D01*
X546611Y581281D01*
X546231Y581585D01*
X545859Y581898D01*
X545495Y582220D01*
X545139Y582551D01*
X544791Y582891D01*
X544451Y583239D01*
X544120Y583595D01*
X543798Y583959D01*
X543485Y584331D01*
X543181Y584711D01*
X542887Y585098D01*
X542602Y585492D01*
X542327Y585893D01*
X542062Y586301D01*
X541807Y586715D01*
X541562Y587135D01*
X541327Y587561D01*
X541103Y587992D01*
X540890Y588429D01*
X540688Y588871D01*
X540496Y589318D01*
X540316Y589770D01*
X540146Y590226D01*
X539988Y590685D01*
X539841Y591149D01*
X539706Y591616D01*
X539582Y592086D01*
X539469Y592559D01*
X539369Y593035D01*
X539280Y593513D01*
X539202Y593993D01*
X539137Y594475D01*
X539083Y594958D01*
X539042Y595443D01*
X539012Y595928D01*
X538994Y596414D01*
X538988Y596900D01*
X145600Y698500D02*
X145602Y698654D01*
X145608Y698809D01*
X145618Y698963D01*
X145632Y699117D01*
X145650Y699270D01*
X145671Y699423D01*
X145697Y699576D01*
X145727Y699727D01*
X145760Y699878D01*
X145798Y700028D01*
X145839Y700177D01*
X145884Y700325D01*
X145933Y700471D01*
X145986Y700617D01*
X146042Y700760D01*
X146102Y700903D01*
X146166Y701043D01*
X146233Y701183D01*
X146304Y701320D01*
X146378Y701455D01*
X146456Y701589D01*
X146537Y701720D01*
X146622Y701849D01*
X146710Y701977D01*
X146801Y702101D01*
X146895Y702224D01*
X146993Y702344D01*
X147093Y702461D01*
X147197Y702576D01*
X147303Y702688D01*
X147412Y702797D01*
X147524Y702903D01*
X147639Y703007D01*
X147756Y703107D01*
X147876Y703205D01*
X147999Y703299D01*
X148123Y703390D01*
X148251Y703478D01*
X148380Y703563D01*
X148511Y703644D01*
X148645Y703722D01*
X148780Y703796D01*
X148917Y703867D01*
X149057Y703934D01*
X149197Y703998D01*
X149340Y704058D01*
X149483Y704114D01*
X149629Y704167D01*
X149775Y704216D01*
X149923Y704261D01*
X150072Y704302D01*
X150222Y704340D01*
X150373Y704373D01*
X150524Y704403D01*
X150677Y704429D01*
X150830Y704450D01*
X150983Y704468D01*
X151137Y704482D01*
X151291Y704492D01*
X151446Y704498D01*
X151600Y704500D01*
X151754Y704498D01*
X151909Y704492D01*
X152063Y704482D01*
X152217Y704468D01*
X152370Y704450D01*
X152523Y704429D01*
X152676Y704403D01*
X152827Y704373D01*
X152978Y704340D01*
X153128Y704302D01*
X153277Y704261D01*
X153425Y704216D01*
X153571Y704167D01*
X153717Y704114D01*
X153860Y704058D01*
X154003Y703998D01*
X154143Y703934D01*
X154283Y703867D01*
X154420Y703796D01*
X154555Y703722D01*
X154689Y703644D01*
X154820Y703563D01*
X154949Y703478D01*
X155077Y703390D01*
X155201Y703299D01*
X155324Y703205D01*
X155444Y703107D01*
X155561Y703007D01*
X155676Y702903D01*
X155788Y702797D01*
X155897Y702688D01*
X156003Y702576D01*
X156107Y702461D01*
X156207Y702344D01*
X156305Y702224D01*
X156399Y702101D01*
X156490Y701977D01*
X156578Y701849D01*
X156663Y701720D01*
X156744Y701589D01*
X156822Y701455D01*
X156896Y701320D01*
X156967Y701183D01*
X157034Y701043D01*
X157098Y700903D01*
X157158Y700760D01*
X157214Y700617D01*
X157267Y700471D01*
X157316Y700325D01*
X157361Y700177D01*
X157402Y700028D01*
X157440Y699878D01*
X157473Y699727D01*
X157503Y699576D01*
X157529Y699423D01*
X157550Y699270D01*
X157568Y699117D01*
X157582Y698963D01*
X157592Y698809D01*
X157598Y698654D01*
X157600Y698500D01*
X157598Y698346D01*
X157592Y698191D01*
X157582Y698037D01*
X157568Y697883D01*
X157550Y697730D01*
X157529Y697577D01*
X157503Y697424D01*
X157473Y697273D01*
X157440Y697122D01*
X157402Y696972D01*
X157361Y696823D01*
X157316Y696675D01*
X157267Y696529D01*
X157214Y696383D01*
X157158Y696240D01*
X157098Y696097D01*
X157034Y695957D01*
X156967Y695817D01*
X156896Y695680D01*
X156822Y695545D01*
X156744Y695411D01*
X156663Y695280D01*
X156578Y695151D01*
X156490Y695023D01*
X156399Y694899D01*
X156305Y694776D01*
X156207Y694656D01*
X156107Y694539D01*
X156003Y694424D01*
X155897Y694312D01*
X155788Y694203D01*
X155676Y694097D01*
X155561Y693993D01*
X155444Y693893D01*
X155324Y693795D01*
X155201Y693701D01*
X155077Y693610D01*
X154949Y693522D01*
X154820Y693437D01*
X154689Y693356D01*
X154555Y693278D01*
X154420Y693204D01*
X154283Y693133D01*
X154143Y693066D01*
X154003Y693002D01*
X153860Y692942D01*
X153717Y692886D01*
X153571Y692833D01*
X153425Y692784D01*
X153277Y692739D01*
X153128Y692698D01*
X152978Y692660D01*
X152827Y692627D01*
X152676Y692597D01*
X152523Y692571D01*
X152370Y692550D01*
X152217Y692532D01*
X152063Y692518D01*
X151909Y692508D01*
X151754Y692502D01*
X151600Y692500D01*
X151446Y692502D01*
X151291Y692508D01*
X151137Y692518D01*
X150983Y692532D01*
X150830Y692550D01*
X150677Y692571D01*
X150524Y692597D01*
X150373Y692627D01*
X150222Y692660D01*
X150072Y692698D01*
X149923Y692739D01*
X149775Y692784D01*
X149629Y692833D01*
X149483Y692886D01*
X149340Y692942D01*
X149197Y693002D01*
X149057Y693066D01*
X148917Y693133D01*
X148780Y693204D01*
X148645Y693278D01*
X148511Y693356D01*
X148380Y693437D01*
X148251Y693522D01*
X148123Y693610D01*
X147999Y693701D01*
X147876Y693795D01*
X147756Y693893D01*
X147639Y693993D01*
X147524Y694097D01*
X147412Y694203D01*
X147303Y694312D01*
X147197Y694424D01*
X147093Y694539D01*
X146993Y694656D01*
X146895Y694776D01*
X146801Y694899D01*
X146710Y695023D01*
X146622Y695151D01*
X146537Y695280D01*
X146456Y695411D01*
X146378Y695545D01*
X146304Y695680D01*
X146233Y695817D01*
X146166Y695957D01*
X146102Y696097D01*
X146042Y696240D01*
X145986Y696383D01*
X145933Y696529D01*
X145884Y696675D01*
X145839Y696823D01*
X145798Y696972D01*
X145760Y697122D01*
X145727Y697273D01*
X145697Y697424D01*
X145671Y697577D01*
X145650Y697730D01*
X145632Y697883D01*
X145618Y698037D01*
X145608Y698191D01*
X145602Y698346D01*
X145600Y698500D01*
X145600Y723500D02*
X145602Y723654D01*
X145608Y723809D01*
X145618Y723963D01*
X145632Y724117D01*
X145650Y724270D01*
X145671Y724423D01*
X145697Y724576D01*
X145727Y724727D01*
X145760Y724878D01*
X145798Y725028D01*
X145839Y725177D01*
X145884Y725325D01*
X145933Y725471D01*
X145986Y725617D01*
X146042Y725760D01*
X146102Y725903D01*
X146166Y726043D01*
X146233Y726183D01*
X146304Y726320D01*
X146378Y726455D01*
X146456Y726589D01*
X146537Y726720D01*
X146622Y726849D01*
X146710Y726977D01*
X146801Y727101D01*
X146895Y727224D01*
X146993Y727344D01*
X147093Y727461D01*
X147197Y727576D01*
X147303Y727688D01*
X147412Y727797D01*
X147524Y727903D01*
X147639Y728007D01*
X147756Y728107D01*
X147876Y728205D01*
X147999Y728299D01*
X148123Y728390D01*
X148251Y728478D01*
X148380Y728563D01*
X148511Y728644D01*
X148645Y728722D01*
X148780Y728796D01*
X148917Y728867D01*
X149057Y728934D01*
X149197Y728998D01*
X149340Y729058D01*
X149483Y729114D01*
X149629Y729167D01*
X149775Y729216D01*
X149923Y729261D01*
X150072Y729302D01*
X150222Y729340D01*
X150373Y729373D01*
X150524Y729403D01*
X150677Y729429D01*
X150830Y729450D01*
X150983Y729468D01*
X151137Y729482D01*
X151291Y729492D01*
X151446Y729498D01*
X151600Y729500D01*
X151754Y729498D01*
X151909Y729492D01*
X152063Y729482D01*
X152217Y729468D01*
X152370Y729450D01*
X152523Y729429D01*
X152676Y729403D01*
X152827Y729373D01*
X152978Y729340D01*
X153128Y729302D01*
X153277Y729261D01*
X153425Y729216D01*
X153571Y729167D01*
X153717Y729114D01*
X153860Y729058D01*
X154003Y728998D01*
X154143Y728934D01*
X154283Y728867D01*
X154420Y728796D01*
X154555Y728722D01*
X154689Y728644D01*
X154820Y728563D01*
X154949Y728478D01*
X155077Y728390D01*
X155201Y728299D01*
X155324Y728205D01*
X155444Y728107D01*
X155561Y728007D01*
X155676Y727903D01*
X155788Y727797D01*
X155897Y727688D01*
X156003Y727576D01*
X156107Y727461D01*
X156207Y727344D01*
X156305Y727224D01*
X156399Y727101D01*
X156490Y726977D01*
X156578Y726849D01*
X156663Y726720D01*
X156744Y726589D01*
X156822Y726455D01*
X156896Y726320D01*
X156967Y726183D01*
X157034Y726043D01*
X157098Y725903D01*
X157158Y725760D01*
X157214Y725617D01*
X157267Y725471D01*
X157316Y725325D01*
X157361Y725177D01*
X157402Y725028D01*
X157440Y724878D01*
X157473Y724727D01*
X157503Y724576D01*
X157529Y724423D01*
X157550Y724270D01*
X157568Y724117D01*
X157582Y723963D01*
X157592Y723809D01*
X157598Y723654D01*
X157600Y723500D01*
X157598Y723346D01*
X157592Y723191D01*
X157582Y723037D01*
X157568Y722883D01*
X157550Y722730D01*
X157529Y722577D01*
X157503Y722424D01*
X157473Y722273D01*
X157440Y722122D01*
X157402Y721972D01*
X157361Y721823D01*
X157316Y721675D01*
X157267Y721529D01*
X157214Y721383D01*
X157158Y721240D01*
X157098Y721097D01*
X157034Y720957D01*
X156967Y720817D01*
X156896Y720680D01*
X156822Y720545D01*
X156744Y720411D01*
X156663Y720280D01*
X156578Y720151D01*
X156490Y720023D01*
X156399Y719899D01*
X156305Y719776D01*
X156207Y719656D01*
X156107Y719539D01*
X156003Y719424D01*
X155897Y719312D01*
X155788Y719203D01*
X155676Y719097D01*
X155561Y718993D01*
X155444Y718893D01*
X155324Y718795D01*
X155201Y718701D01*
X155077Y718610D01*
X154949Y718522D01*
X154820Y718437D01*
X154689Y718356D01*
X154555Y718278D01*
X154420Y718204D01*
X154283Y718133D01*
X154143Y718066D01*
X154003Y718002D01*
X153860Y717942D01*
X153717Y717886D01*
X153571Y717833D01*
X153425Y717784D01*
X153277Y717739D01*
X153128Y717698D01*
X152978Y717660D01*
X152827Y717627D01*
X152676Y717597D01*
X152523Y717571D01*
X152370Y717550D01*
X152217Y717532D01*
X152063Y717518D01*
X151909Y717508D01*
X151754Y717502D01*
X151600Y717500D01*
X151446Y717502D01*
X151291Y717508D01*
X151137Y717518D01*
X150983Y717532D01*
X150830Y717550D01*
X150677Y717571D01*
X150524Y717597D01*
X150373Y717627D01*
X150222Y717660D01*
X150072Y717698D01*
X149923Y717739D01*
X149775Y717784D01*
X149629Y717833D01*
X149483Y717886D01*
X149340Y717942D01*
X149197Y718002D01*
X149057Y718066D01*
X148917Y718133D01*
X148780Y718204D01*
X148645Y718278D01*
X148511Y718356D01*
X148380Y718437D01*
X148251Y718522D01*
X148123Y718610D01*
X147999Y718701D01*
X147876Y718795D01*
X147756Y718893D01*
X147639Y718993D01*
X147524Y719097D01*
X147412Y719203D01*
X147303Y719312D01*
X147197Y719424D01*
X147093Y719539D01*
X146993Y719656D01*
X146895Y719776D01*
X146801Y719899D01*
X146710Y720023D01*
X146622Y720151D01*
X146537Y720280D01*
X146456Y720411D01*
X146378Y720545D01*
X146304Y720680D01*
X146233Y720817D01*
X146166Y720957D01*
X146102Y721097D01*
X146042Y721240D01*
X145986Y721383D01*
X145933Y721529D01*
X145884Y721675D01*
X145839Y721823D01*
X145798Y721972D01*
X145760Y722122D01*
X145727Y722273D01*
X145697Y722424D01*
X145671Y722577D01*
X145650Y722730D01*
X145632Y722883D01*
X145618Y723037D01*
X145608Y723191D01*
X145602Y723346D01*
X145600Y723500D01*
X45600Y723500D02*
X45602Y723654D01*
X45608Y723809D01*
X45618Y723963D01*
X45632Y724117D01*
X45650Y724270D01*
X45671Y724423D01*
X45697Y724576D01*
X45727Y724727D01*
X45760Y724878D01*
X45798Y725028D01*
X45839Y725177D01*
X45884Y725325D01*
X45933Y725471D01*
X45986Y725617D01*
X46042Y725760D01*
X46102Y725903D01*
X46166Y726043D01*
X46233Y726183D01*
X46304Y726320D01*
X46378Y726455D01*
X46456Y726589D01*
X46537Y726720D01*
X46622Y726849D01*
X46710Y726977D01*
X46801Y727101D01*
X46895Y727224D01*
X46993Y727344D01*
X47093Y727461D01*
X47197Y727576D01*
X47303Y727688D01*
X47412Y727797D01*
X47524Y727903D01*
X47639Y728007D01*
X47756Y728107D01*
X47876Y728205D01*
X47999Y728299D01*
X48123Y728390D01*
X48251Y728478D01*
X48380Y728563D01*
X48511Y728644D01*
X48645Y728722D01*
X48780Y728796D01*
X48917Y728867D01*
X49057Y728934D01*
X49197Y728998D01*
X49340Y729058D01*
X49483Y729114D01*
X49629Y729167D01*
X49775Y729216D01*
X49923Y729261D01*
X50072Y729302D01*
X50222Y729340D01*
X50373Y729373D01*
X50524Y729403D01*
X50677Y729429D01*
X50830Y729450D01*
X50983Y729468D01*
X51137Y729482D01*
X51291Y729492D01*
X51446Y729498D01*
X51600Y729500D01*
X51754Y729498D01*
X51909Y729492D01*
X52063Y729482D01*
X52217Y729468D01*
X52370Y729450D01*
X52523Y729429D01*
X52676Y729403D01*
X52827Y729373D01*
X52978Y729340D01*
X53128Y729302D01*
X53277Y729261D01*
X53425Y729216D01*
X53571Y729167D01*
X53717Y729114D01*
X53860Y729058D01*
X54003Y728998D01*
X54143Y728934D01*
X54283Y728867D01*
X54420Y728796D01*
X54555Y728722D01*
X54689Y728644D01*
X54820Y728563D01*
X54949Y728478D01*
X55077Y728390D01*
X55201Y728299D01*
X55324Y728205D01*
X55444Y728107D01*
X55561Y728007D01*
X55676Y727903D01*
X55788Y727797D01*
X55897Y727688D01*
X56003Y727576D01*
X56107Y727461D01*
X56207Y727344D01*
X56305Y727224D01*
X56399Y727101D01*
X56490Y726977D01*
X56578Y726849D01*
X56663Y726720D01*
X56744Y726589D01*
X56822Y726455D01*
X56896Y726320D01*
X56967Y726183D01*
X57034Y726043D01*
X57098Y725903D01*
X57158Y725760D01*
X57214Y725617D01*
X57267Y725471D01*
X57316Y725325D01*
X57361Y725177D01*
X57402Y725028D01*
X57440Y724878D01*
X57473Y724727D01*
X57503Y724576D01*
X57529Y724423D01*
X57550Y724270D01*
X57568Y724117D01*
X57582Y723963D01*
X57592Y723809D01*
X57598Y723654D01*
X57600Y723500D01*
X57598Y723346D01*
X57592Y723191D01*
X57582Y723037D01*
X57568Y722883D01*
X57550Y722730D01*
X57529Y722577D01*
X57503Y722424D01*
X57473Y722273D01*
X57440Y722122D01*
X57402Y721972D01*
X57361Y721823D01*
X57316Y721675D01*
X57267Y721529D01*
X57214Y721383D01*
X57158Y721240D01*
X57098Y721097D01*
X57034Y720957D01*
X56967Y720817D01*
X56896Y720680D01*
X56822Y720545D01*
X56744Y720411D01*
X56663Y720280D01*
X56578Y720151D01*
X56490Y720023D01*
X56399Y719899D01*
X56305Y719776D01*
X56207Y719656D01*
X56107Y719539D01*
X56003Y719424D01*
X55897Y719312D01*
X55788Y719203D01*
X55676Y719097D01*
X55561Y718993D01*
X55444Y718893D01*
X55324Y718795D01*
X55201Y718701D01*
X55077Y718610D01*
X54949Y718522D01*
X54820Y718437D01*
X54689Y718356D01*
X54555Y718278D01*
X54420Y718204D01*
X54283Y718133D01*
X54143Y718066D01*
X54003Y718002D01*
X53860Y717942D01*
X53717Y717886D01*
X53571Y717833D01*
X53425Y717784D01*
X53277Y717739D01*
X53128Y717698D01*
X52978Y717660D01*
X52827Y717627D01*
X52676Y717597D01*
X52523Y717571D01*
X52370Y717550D01*
X52217Y717532D01*
X52063Y717518D01*
X51909Y717508D01*
X51754Y717502D01*
X51600Y717500D01*
X51446Y717502D01*
X51291Y717508D01*
X51137Y717518D01*
X50983Y717532D01*
X50830Y717550D01*
X50677Y717571D01*
X50524Y717597D01*
X50373Y717627D01*
X50222Y717660D01*
X50072Y717698D01*
X49923Y717739D01*
X49775Y717784D01*
X49629Y717833D01*
X49483Y717886D01*
X49340Y717942D01*
X49197Y718002D01*
X49057Y718066D01*
X48917Y718133D01*
X48780Y718204D01*
X48645Y718278D01*
X48511Y718356D01*
X48380Y718437D01*
X48251Y718522D01*
X48123Y718610D01*
X47999Y718701D01*
X47876Y718795D01*
X47756Y718893D01*
X47639Y718993D01*
X47524Y719097D01*
X47412Y719203D01*
X47303Y719312D01*
X47197Y719424D01*
X47093Y719539D01*
X46993Y719656D01*
X46895Y719776D01*
X46801Y719899D01*
X46710Y720023D01*
X46622Y720151D01*
X46537Y720280D01*
X46456Y720411D01*
X46378Y720545D01*
X46304Y720680D01*
X46233Y720817D01*
X46166Y720957D01*
X46102Y721097D01*
X46042Y721240D01*
X45986Y721383D01*
X45933Y721529D01*
X45884Y721675D01*
X45839Y721823D01*
X45798Y721972D01*
X45760Y722122D01*
X45727Y722273D01*
X45697Y722424D01*
X45671Y722577D01*
X45650Y722730D01*
X45632Y722883D01*
X45618Y723037D01*
X45608Y723191D01*
X45602Y723346D01*
X45600Y723500D01*
X45600Y698500D02*
X45602Y698654D01*
X45608Y698809D01*
X45618Y698963D01*
X45632Y699117D01*
X45650Y699270D01*
X45671Y699423D01*
X45697Y699576D01*
X45727Y699727D01*
X45760Y699878D01*
X45798Y700028D01*
X45839Y700177D01*
X45884Y700325D01*
X45933Y700471D01*
X45986Y700617D01*
X46042Y700760D01*
X46102Y700903D01*
X46166Y701043D01*
X46233Y701183D01*
X46304Y701320D01*
X46378Y701455D01*
X46456Y701589D01*
X46537Y701720D01*
X46622Y701849D01*
X46710Y701977D01*
X46801Y702101D01*
X46895Y702224D01*
X46993Y702344D01*
X47093Y702461D01*
X47197Y702576D01*
X47303Y702688D01*
X47412Y702797D01*
X47524Y702903D01*
X47639Y703007D01*
X47756Y703107D01*
X47876Y703205D01*
X47999Y703299D01*
X48123Y703390D01*
X48251Y703478D01*
X48380Y703563D01*
X48511Y703644D01*
X48645Y703722D01*
X48780Y703796D01*
X48917Y703867D01*
X49057Y703934D01*
X49197Y703998D01*
X49340Y704058D01*
X49483Y704114D01*
X49629Y704167D01*
X49775Y704216D01*
X49923Y704261D01*
X50072Y704302D01*
X50222Y704340D01*
X50373Y704373D01*
X50524Y704403D01*
X50677Y704429D01*
X50830Y704450D01*
X50983Y704468D01*
X51137Y704482D01*
X51291Y704492D01*
X51446Y704498D01*
X51600Y704500D01*
X51754Y704498D01*
X51909Y704492D01*
X52063Y704482D01*
X52217Y704468D01*
X52370Y704450D01*
X52523Y704429D01*
X52676Y704403D01*
X52827Y704373D01*
X52978Y704340D01*
X53128Y704302D01*
X53277Y704261D01*
X53425Y704216D01*
X53571Y704167D01*
X53717Y704114D01*
X53860Y704058D01*
X54003Y703998D01*
X54143Y703934D01*
X54283Y703867D01*
X54420Y703796D01*
X54555Y703722D01*
X54689Y703644D01*
X54820Y703563D01*
X54949Y703478D01*
X55077Y703390D01*
X55201Y703299D01*
X55324Y703205D01*
X55444Y703107D01*
X55561Y703007D01*
X55676Y702903D01*
X55788Y702797D01*
X55897Y702688D01*
X56003Y702576D01*
X56107Y702461D01*
X56207Y702344D01*
X56305Y702224D01*
X56399Y702101D01*
X56490Y701977D01*
X56578Y701849D01*
X56663Y701720D01*
X56744Y701589D01*
X56822Y701455D01*
X56896Y701320D01*
X56967Y701183D01*
X57034Y701043D01*
X57098Y700903D01*
X57158Y700760D01*
X57214Y700617D01*
X57267Y700471D01*
X57316Y700325D01*
X57361Y700177D01*
X57402Y700028D01*
X57440Y699878D01*
X57473Y699727D01*
X57503Y699576D01*
X57529Y699423D01*
X57550Y699270D01*
X57568Y699117D01*
X57582Y698963D01*
X57592Y698809D01*
X57598Y698654D01*
X57600Y698500D01*
X57598Y698346D01*
X57592Y698191D01*
X57582Y698037D01*
X57568Y697883D01*
X57550Y697730D01*
X57529Y697577D01*
X57503Y697424D01*
X57473Y697273D01*
X57440Y697122D01*
X57402Y696972D01*
X57361Y696823D01*
X57316Y696675D01*
X57267Y696529D01*
X57214Y696383D01*
X57158Y696240D01*
X57098Y696097D01*
X57034Y695957D01*
X56967Y695817D01*
X56896Y695680D01*
X56822Y695545D01*
X56744Y695411D01*
X56663Y695280D01*
X56578Y695151D01*
X56490Y695023D01*
X56399Y694899D01*
X56305Y694776D01*
X56207Y694656D01*
X56107Y694539D01*
X56003Y694424D01*
X55897Y694312D01*
X55788Y694203D01*
X55676Y694097D01*
X55561Y693993D01*
X55444Y693893D01*
X55324Y693795D01*
X55201Y693701D01*
X55077Y693610D01*
X54949Y693522D01*
X54820Y693437D01*
X54689Y693356D01*
X54555Y693278D01*
X54420Y693204D01*
X54283Y693133D01*
X54143Y693066D01*
X54003Y693002D01*
X53860Y692942D01*
X53717Y692886D01*
X53571Y692833D01*
X53425Y692784D01*
X53277Y692739D01*
X53128Y692698D01*
X52978Y692660D01*
X52827Y692627D01*
X52676Y692597D01*
X52523Y692571D01*
X52370Y692550D01*
X52217Y692532D01*
X52063Y692518D01*
X51909Y692508D01*
X51754Y692502D01*
X51600Y692500D01*
X51446Y692502D01*
X51291Y692508D01*
X51137Y692518D01*
X50983Y692532D01*
X50830Y692550D01*
X50677Y692571D01*
X50524Y692597D01*
X50373Y692627D01*
X50222Y692660D01*
X50072Y692698D01*
X49923Y692739D01*
X49775Y692784D01*
X49629Y692833D01*
X49483Y692886D01*
X49340Y692942D01*
X49197Y693002D01*
X49057Y693066D01*
X48917Y693133D01*
X48780Y693204D01*
X48645Y693278D01*
X48511Y693356D01*
X48380Y693437D01*
X48251Y693522D01*
X48123Y693610D01*
X47999Y693701D01*
X47876Y693795D01*
X47756Y693893D01*
X47639Y693993D01*
X47524Y694097D01*
X47412Y694203D01*
X47303Y694312D01*
X47197Y694424D01*
X47093Y694539D01*
X46993Y694656D01*
X46895Y694776D01*
X46801Y694899D01*
X46710Y695023D01*
X46622Y695151D01*
X46537Y695280D01*
X46456Y695411D01*
X46378Y695545D01*
X46304Y695680D01*
X46233Y695817D01*
X46166Y695957D01*
X46102Y696097D01*
X46042Y696240D01*
X45986Y696383D01*
X45933Y696529D01*
X45884Y696675D01*
X45839Y696823D01*
X45798Y696972D01*
X45760Y697122D01*
X45727Y697273D01*
X45697Y697424D01*
X45671Y697577D01*
X45650Y697730D01*
X45632Y697883D01*
X45618Y698037D01*
X45608Y698191D01*
X45602Y698346D01*
X45600Y698500D01*
D11*
X0Y12700D02*
X939800Y12700D01*
X939800Y736600D01*
X0Y736600D01*
X0Y12700D01*
X303663Y692500D02*
X302993Y692575D01*
X302336Y692725D01*
X301700Y692948D01*
X301093Y693240D01*
X300523Y693599D01*
X299996Y694019D01*
X299519Y694496D01*
X299099Y695023D01*
X298740Y695593D01*
X298448Y696200D01*
X298225Y696836D01*
X298075Y697493D01*
X298000Y698163D01*
X298000Y698837D01*
X298075Y699507D01*
X298225Y700164D01*
X298448Y700800D01*
X298740Y701407D01*
X299099Y701978D01*
X299519Y702504D01*
X299996Y702981D01*
X300523Y703401D01*
X301093Y703760D01*
X301700Y704052D01*
X302336Y704275D01*
X302993Y704425D01*
X303663Y704500D01*
X304337Y704500D01*
X305007Y704425D01*
X305664Y704275D01*
X306300Y704052D01*
X306907Y703760D01*
X307478Y703401D01*
X308004Y702981D01*
X308481Y702504D01*
X308901Y701978D01*
X309260Y701407D01*
X309552Y700800D01*
X309775Y700164D01*
X309925Y699507D01*
X310000Y698837D01*
X310000Y698163D01*
X309925Y697493D01*
X309775Y696836D01*
X309552Y696200D01*
X309260Y695593D01*
X308901Y695023D01*
X308481Y694496D01*
X308004Y694019D01*
X307478Y693599D01*
X306907Y693240D01*
X306300Y692948D01*
X305664Y692725D01*
X305007Y692575D01*
X304337Y692500D01*
X303663Y692500D01*
X303663Y717500D02*
X302993Y717575D01*
X302336Y717725D01*
X301700Y717948D01*
X301093Y718240D01*
X300523Y718599D01*
X299996Y719019D01*
X299519Y719496D01*
X299099Y720023D01*
X298740Y720593D01*
X298448Y721200D01*
X298225Y721836D01*
X298075Y722493D01*
X298000Y723163D01*
X298000Y723837D01*
X298075Y724507D01*
X298225Y725164D01*
X298448Y725800D01*
X298740Y726407D01*
X299099Y726978D01*
X299519Y727504D01*
X299996Y727981D01*
X300523Y728401D01*
X301093Y728760D01*
X301700Y729052D01*
X302336Y729275D01*
X302993Y729425D01*
X303663Y729500D01*
X304337Y729500D01*
X305007Y729425D01*
X305664Y729275D01*
X306300Y729052D01*
X306907Y728760D01*
X307478Y728401D01*
X308004Y727981D01*
X308481Y727504D01*
X308901Y726978D01*
X309260Y726407D01*
X309552Y725800D01*
X309775Y725164D01*
X309925Y724507D01*
X310000Y723837D01*
X310000Y723163D01*
X309925Y722493D01*
X309775Y721836D01*
X309552Y721200D01*
X309260Y720593D01*
X308901Y720023D01*
X308481Y719496D01*
X308004Y719019D01*
X307478Y718599D01*
X306907Y718240D01*
X306300Y717948D01*
X305664Y717725D01*
X305007Y717575D01*
X304337Y717500D01*
X303663Y717500D01*
X203663Y717500D02*
X202993Y717575D01*
X202336Y717725D01*
X201700Y717948D01*
X201093Y718240D01*
X200523Y718599D01*
X199996Y719019D01*
X199519Y719496D01*
X199099Y720023D01*
X198740Y720593D01*
X198448Y721200D01*
X198225Y721836D01*
X198075Y722493D01*
X198000Y723163D01*
X198000Y723837D01*
X198075Y724507D01*
X198225Y725164D01*
X198448Y725800D01*
X198740Y726407D01*
X199099Y726978D01*
X199519Y727504D01*
X199996Y727981D01*
X200523Y728401D01*
X201093Y728760D01*
X201700Y729052D01*
X202336Y729275D01*
X202993Y729425D01*
X203663Y729500D01*
X204337Y729500D01*
X205007Y729425D01*
X205664Y729275D01*
X206300Y729052D01*
X206907Y728760D01*
X207478Y728401D01*
X208004Y727981D01*
X208481Y727504D01*
X208901Y726978D01*
X209260Y726407D01*
X209552Y725800D01*
X209775Y725164D01*
X209925Y724507D01*
X210000Y723837D01*
X210000Y723163D01*
X209925Y722493D01*
X209775Y721836D01*
X209552Y721200D01*
X209260Y720593D01*
X208901Y720023D01*
X208481Y719496D01*
X208004Y719019D01*
X207478Y718599D01*
X206907Y718240D01*
X206300Y717948D01*
X205664Y717725D01*
X205007Y717575D01*
X204337Y717500D01*
X203663Y717500D01*
X203663Y692500D02*
X202993Y692575D01*
X202336Y692725D01*
X201700Y692948D01*
X201093Y693240D01*
X200523Y693599D01*
X199996Y694019D01*
X199519Y694496D01*
X199099Y695023D01*
X198740Y695593D01*
X198448Y696200D01*
X198225Y696836D01*
X198075Y697493D01*
X198000Y698163D01*
X198000Y698837D01*
X198075Y699507D01*
X198225Y700164D01*
X198448Y700800D01*
X198740Y701407D01*
X199099Y701978D01*
X199519Y702504D01*
X199996Y702981D01*
X200523Y703401D01*
X201093Y703760D01*
X201700Y704052D01*
X202336Y704275D01*
X202993Y704425D01*
X203663Y704500D01*
X204337Y704500D01*
X205007Y704425D01*
X205664Y704275D01*
X206300Y704052D01*
X206907Y703760D01*
X207478Y703401D01*
X208004Y702981D01*
X208481Y702504D01*
X208901Y701978D01*
X209260Y701407D01*
X209552Y700800D01*
X209775Y700164D01*
X209925Y699507D01*
X210000Y698837D01*
X210000Y698163D01*
X209925Y697493D01*
X209775Y696836D01*
X209552Y696200D01*
X209260Y695593D01*
X208901Y695023D01*
X208481Y694496D01*
X208004Y694019D01*
X207478Y693599D01*
X206907Y693240D01*
X206300Y692948D01*
X205664Y692725D01*
X205007Y692575D01*
X204337Y692500D01*
X203663Y692500D01*
X578612Y596301D02*
X578540Y595106D01*
X578395Y593918D01*
X578180Y592740D01*
X577893Y591577D01*
X577537Y590434D01*
X577112Y589315D01*
X576621Y588223D01*
X576064Y587163D01*
X575445Y586138D01*
X574765Y585153D01*
X574026Y584210D01*
X573233Y583314D01*
X572386Y582468D01*
X571490Y581674D01*
X570547Y580935D01*
X569562Y580255D01*
X568537Y579636D01*
X567477Y579079D01*
X566385Y578588D01*
X565266Y578163D01*
X564123Y577807D01*
X562960Y577520D01*
X561782Y577305D01*
X560594Y577160D01*
X559399Y577088D01*
X558201Y577088D01*
X557006Y577160D01*
X555818Y577305D01*
X554640Y577520D01*
X553477Y577807D01*
X552334Y578163D01*
X551215Y578588D01*
X550123Y579079D01*
X549063Y579636D01*
X548038Y580255D01*
X547053Y580935D01*
X546110Y581674D01*
X545214Y582468D01*
X544368Y583314D01*
X543574Y584210D01*
X542835Y585153D01*
X542155Y586138D01*
X541536Y587163D01*
X540979Y588223D01*
X540488Y589315D01*
X540063Y590434D01*
X539707Y591577D01*
X539420Y592740D01*
X539205Y593918D01*
X539060Y595106D01*
X538988Y596301D01*
X538988Y597499D01*
X539060Y598694D01*
X539205Y599882D01*
X539420Y601060D01*
X539707Y602223D01*
X540063Y603366D01*
X540488Y604485D01*
X540979Y605577D01*
X541536Y606637D01*
X542155Y607662D01*
X542835Y608647D01*
X543574Y609590D01*
X544368Y610486D01*
X545214Y611333D01*
X546110Y612126D01*
X547053Y612865D01*
X548038Y613545D01*
X549063Y614164D01*
X550123Y614721D01*
X551215Y615212D01*
X552334Y615637D01*
X553477Y615993D01*
X554640Y616280D01*
X555818Y616495D01*
X557006Y616640D01*
X558201Y616712D01*
X559399Y616712D01*
X560594Y616640D01*
X561782Y616495D01*
X562960Y616280D01*
X564123Y615993D01*
X565266Y615637D01*
X566385Y615212D01*
X567477Y614721D01*
X568537Y614164D01*
X569562Y613545D01*
X570547Y612865D01*
X571490Y612126D01*
X572386Y611333D01*
X573233Y610486D01*
X574026Y609590D01*
X574765Y608647D01*
X575445Y607662D01*
X576064Y606637D01*
X576621Y605577D01*
X577112Y604485D01*
X577537Y603366D01*
X577893Y602223D01*
X578180Y601060D01*
X578395Y599882D01*
X578540Y598694D01*
X578612Y597499D01*
X578612Y596301D01*
X151263Y692500D02*
X150593Y692575D01*
X149936Y692725D01*
X149300Y692948D01*
X148693Y693240D01*
X148123Y693599D01*
X147596Y694019D01*
X147119Y694496D01*
X146699Y695023D01*
X146340Y695593D01*
X146048Y696200D01*
X145825Y696836D01*
X145675Y697493D01*
X145600Y698163D01*
X145600Y698837D01*
X145675Y699507D01*
X145825Y700164D01*
X146048Y700800D01*
X146340Y701407D01*
X146699Y701978D01*
X147119Y702504D01*
X147596Y702981D01*
X148123Y703401D01*
X148693Y703760D01*
X149300Y704052D01*
X149936Y704275D01*
X150593Y704425D01*
X151263Y704500D01*
X151937Y704500D01*
X152607Y704425D01*
X153264Y704275D01*
X153900Y704052D01*
X154507Y703760D01*
X155078Y703401D01*
X155604Y702981D01*
X156081Y702504D01*
X156501Y701978D01*
X156860Y701407D01*
X157152Y700800D01*
X157375Y700164D01*
X157525Y699507D01*
X157600Y698837D01*
X157600Y698163D01*
X157525Y697493D01*
X157375Y696836D01*
X157152Y696200D01*
X156860Y695593D01*
X156501Y695023D01*
X156081Y694496D01*
X155604Y694019D01*
X155078Y693599D01*
X154507Y693240D01*
X153900Y692948D01*
X153264Y692725D01*
X152607Y692575D01*
X151937Y692500D01*
X151263Y692500D01*
X151263Y717500D02*
X150593Y717575D01*
X149936Y717725D01*
X149300Y717948D01*
X148693Y718240D01*
X148123Y718599D01*
X147596Y719019D01*
X147119Y719496D01*
X146699Y720023D01*
X146340Y720593D01*
X146048Y721200D01*
X145825Y721836D01*
X145675Y722493D01*
X145600Y723163D01*
X145600Y723837D01*
X145675Y724507D01*
X145825Y725164D01*
X146048Y725800D01*
X146340Y726407D01*
X146699Y726978D01*
X147119Y727504D01*
X147596Y727981D01*
X148123Y728401D01*
X148693Y728760D01*
X149300Y729052D01*
X149936Y729275D01*
X150593Y729425D01*
X151263Y729500D01*
X151937Y729500D01*
X152607Y729425D01*
X153264Y729275D01*
X153900Y729052D01*
X154507Y728760D01*
X155078Y728401D01*
X155604Y727981D01*
X156081Y727504D01*
X156501Y726978D01*
X156860Y726407D01*
X157152Y725800D01*
X157375Y725164D01*
X157525Y724507D01*
X157600Y723837D01*
X157600Y723163D01*
X157525Y722493D01*
X157375Y721836D01*
X157152Y721200D01*
X156860Y720593D01*
X156501Y720023D01*
X156081Y719496D01*
X155604Y719019D01*
X155078Y718599D01*
X154507Y718240D01*
X153900Y717948D01*
X153264Y717725D01*
X152607Y717575D01*
X151937Y717500D01*
X151263Y717500D01*
X51263Y717500D02*
X50593Y717575D01*
X49936Y717725D01*
X49300Y717948D01*
X48693Y718240D01*
X48123Y718599D01*
X47596Y719019D01*
X47119Y719496D01*
X46699Y720023D01*
X46340Y720593D01*
X46048Y721200D01*
X45825Y721836D01*
X45675Y722493D01*
X45600Y723163D01*
X45600Y723837D01*
X45675Y724507D01*
X45825Y725164D01*
X46048Y725800D01*
X46340Y726407D01*
X46699Y726978D01*
X47119Y727504D01*
X47596Y727981D01*
X48123Y728401D01*
X48693Y728760D01*
X49300Y729052D01*
X49936Y729275D01*
X50593Y729425D01*
X51263Y729500D01*
X51937Y729500D01*
X52607Y729425D01*
X53264Y729275D01*
X53900Y729052D01*
X54507Y728760D01*
X55078Y728401D01*
X55604Y727981D01*
X56081Y727504D01*
X56501Y726978D01*
X56860Y726407D01*
X57152Y725800D01*
X57375Y725164D01*
X57525Y724507D01*
X57600Y723837D01*
X57600Y723163D01*
X57525Y722493D01*
X57375Y721836D01*
X57152Y721200D01*
X56860Y720593D01*
X56501Y720023D01*
X56081Y719496D01*
X55604Y719019D01*
X55078Y718599D01*
X54507Y718240D01*
X53900Y717948D01*
X53264Y717725D01*
X52607Y717575D01*
X51937Y717500D01*
X51263Y717500D01*
X51263Y692500D02*
X50593Y692575D01*
X49936Y692725D01*
X49300Y692948D01*
X48693Y693240D01*
X48123Y693599D01*
X47596Y694019D01*
X47119Y694496D01*
X46699Y695023D01*
X46340Y695593D01*
X46048Y696200D01*
X45825Y696836D01*
X45675Y697493D01*
X45600Y698163D01*
X45600Y698837D01*
X45675Y699507D01*
X45825Y700164D01*
X46048Y700800D01*
X46340Y701407D01*
X46699Y701978D01*
X47119Y702504D01*
X47596Y702981D01*
X48123Y703401D01*
X48693Y703760D01*
X49300Y704052D01*
X49936Y704275D01*
X50593Y704425D01*
X51263Y704500D01*
X51937Y704500D01*
X52607Y704425D01*
X53264Y704275D01*
X53900Y704052D01*
X54507Y703760D01*
X55078Y703401D01*
X55604Y702981D01*
X56081Y702504D01*
X56501Y701978D01*
X56860Y701407D01*
X57152Y700800D01*
X57375Y700164D01*
X57525Y699507D01*
X57600Y698837D01*
X57600Y698163D01*
X57525Y697493D01*
X57375Y696836D01*
X57152Y696200D01*
X56860Y695593D01*
X56501Y695023D01*
X56081Y694496D01*
X55604Y694019D01*
X55078Y693599D01*
X54507Y693240D01*
X53900Y692948D01*
X53264Y692725D01*
X52607Y692575D01*
X51937Y692500D01*
X51263Y692500D01*
M02*
