G04 EAGLE Gerber RS-274X export*
G75*
%MOMM*%
%FSLAX34Y34*%
%LPD*%
%INSoldermask Bottom*%
%IPPOS*%
%AMOC8*
5,1,8,0,0,1.08239X$1,22.5*%
G01*
%ADD10P,1.649562X8X292.500000*%
%ADD11P,1.951982X8X292.500000*%
%ADD12C,1.803400*%
%ADD13P,1.649562X8X202.500000*%
%ADD14C,1.524000*%
%ADD15P,1.649562X8X22.500000*%
%ADD16P,1.649562X8X112.500000*%
%ADD17C,1.625600*%
%ADD18C,2.387600*%
%ADD19C,1.403200*%
%ADD20P,1.869504X8X22.500000*%
%ADD21P,1.951982X8X22.500000*%
%ADD22P,1.951982X8X112.500000*%
%ADD23C,4.165600*%
%ADD24P,1.869504X8X202.500000*%
%ADD25C,1.524000*%
%ADD26C,1.727200*%
%ADD27R,1.803400X1.371600*%
%ADD28R,1.828800X0.152400*%
%ADD29R,1.917700X1.917700*%
%ADD30C,1.879600*%
%ADD31P,1.759533X8X22.500000*%


D10*
X355600Y215900D03*
X355600Y190500D03*
D11*
X114300Y127000D03*
D12*
X114300Y152400D03*
D13*
X432054Y635000D03*
X482346Y635000D03*
X457200Y660400D03*
X685800Y609600D03*
X660400Y609600D03*
D14*
X774700Y596900D03*
X800100Y596900D03*
X800100Y673100D03*
X774700Y673100D03*
X825500Y596900D03*
X850900Y596900D03*
X825500Y673100D03*
X850900Y673100D03*
D13*
X800100Y698500D03*
X774700Y698500D03*
D10*
X736600Y635000D03*
X736600Y609600D03*
D15*
X838200Y698500D03*
X863600Y698500D03*
D16*
X889000Y596900D03*
X889000Y673100D03*
D10*
X889000Y571500D03*
X889000Y546100D03*
D17*
X381000Y691388D02*
X381000Y705612D01*
X355600Y705612D02*
X355600Y691388D01*
D18*
X254000Y698500D03*
X279000Y648500D03*
X304000Y648500D03*
X229000Y648500D03*
X204000Y648500D03*
D19*
X304000Y698500D03*
X304000Y723500D03*
X204000Y723500D03*
X204000Y698500D03*
D18*
X253600Y648500D03*
D20*
X736600Y660400D03*
D10*
X812800Y203200D03*
X812800Y127000D03*
D21*
X863600Y88900D03*
D12*
X838200Y88900D03*
D22*
X762000Y177800D03*
D12*
X762000Y152400D03*
D15*
X863600Y165100D03*
X889000Y165100D03*
D20*
X914400Y165100D03*
D15*
X825500Y558800D03*
X850900Y558800D03*
D10*
X190500Y152400D03*
X190500Y127000D03*
D23*
X558800Y596900D03*
D24*
X635000Y76200D03*
X609600Y76200D03*
X584200Y76200D03*
X558800Y76200D03*
X533400Y76200D03*
X508000Y76200D03*
X635000Y50800D03*
X609600Y50800D03*
X584200Y50800D03*
X558800Y50800D03*
X533400Y50800D03*
X508000Y50800D03*
X482600Y76200D03*
X482600Y50800D03*
X457200Y76200D03*
X431800Y76200D03*
X406400Y76200D03*
X381000Y76200D03*
X355600Y76200D03*
X330200Y76200D03*
X457200Y50800D03*
X431800Y50800D03*
X406400Y50800D03*
X381000Y50800D03*
X355600Y50800D03*
X330200Y50800D03*
X304800Y76200D03*
X304800Y50800D03*
X279400Y76200D03*
X254000Y76200D03*
X228600Y76200D03*
X203200Y76200D03*
X279400Y50800D03*
X254000Y50800D03*
X228600Y50800D03*
X203200Y50800D03*
D25*
X44704Y76200D02*
X31496Y76200D01*
X31496Y177800D02*
X44704Y177800D01*
D26*
X482600Y690880D02*
X482600Y706120D01*
X457200Y706120D02*
X457200Y690880D01*
X431800Y690880D02*
X431800Y706120D01*
D25*
X381000Y146304D02*
X381000Y133096D01*
X406400Y133096D02*
X406400Y146304D01*
X431800Y146304D02*
X431800Y133096D01*
X457200Y133096D02*
X457200Y146304D01*
X482600Y146304D02*
X482600Y133096D01*
X508000Y133096D02*
X508000Y146304D01*
X533400Y146304D02*
X533400Y133096D01*
X558800Y133096D02*
X558800Y146304D01*
X584200Y146304D02*
X584200Y133096D01*
X609600Y133096D02*
X609600Y146304D01*
X635000Y146304D02*
X635000Y133096D01*
X660400Y133096D02*
X660400Y146304D01*
X660400Y209296D02*
X660400Y222504D01*
X635000Y222504D02*
X635000Y209296D01*
X609600Y209296D02*
X609600Y222504D01*
X584200Y222504D02*
X584200Y209296D01*
X558800Y209296D02*
X558800Y222504D01*
X533400Y222504D02*
X533400Y209296D01*
X508000Y209296D02*
X508000Y222504D01*
X482600Y222504D02*
X482600Y209296D01*
X457200Y209296D02*
X457200Y222504D01*
X431800Y222504D02*
X431800Y209296D01*
X406400Y209296D02*
X406400Y222504D01*
X381000Y222504D02*
X381000Y209296D01*
D15*
X774446Y63500D03*
X724154Y63500D03*
X749300Y38100D03*
D27*
X482600Y563880D03*
X482600Y579120D03*
D28*
X482600Y571500D03*
D27*
X457200Y563880D03*
X457200Y579120D03*
D28*
X457200Y571500D03*
D29*
X711200Y381000D03*
X863600Y381000D03*
D30*
X737400Y381000D03*
X837400Y381000D03*
D20*
X812800Y381000D03*
X762000Y381000D03*
D14*
X63500Y571500D03*
X63500Y495300D03*
X139700Y495300D03*
X139700Y571500D03*
D10*
X190500Y546100D03*
X190500Y520700D03*
D25*
X25400Y273304D02*
X25400Y260096D01*
X50800Y260096D02*
X50800Y273304D01*
X177800Y273304D02*
X177800Y260096D01*
X203200Y260096D02*
X203200Y273304D01*
X76200Y273304D02*
X76200Y260096D01*
X101600Y260096D02*
X101600Y273304D01*
X152400Y273304D02*
X152400Y260096D01*
X127000Y260096D02*
X127000Y273304D01*
X228600Y273304D02*
X228600Y260096D01*
X254000Y260096D02*
X254000Y273304D01*
X279400Y273304D02*
X279400Y260096D01*
X304800Y260096D02*
X304800Y273304D01*
X330200Y273304D02*
X330200Y260096D01*
X355600Y260096D02*
X355600Y273304D01*
X381000Y273304D02*
X381000Y260096D01*
X406400Y260096D02*
X406400Y273304D01*
X431800Y273304D02*
X431800Y260096D01*
X457200Y260096D02*
X457200Y273304D01*
X482600Y273304D02*
X482600Y260096D01*
X508000Y260096D02*
X508000Y273304D01*
X508000Y412496D02*
X508000Y425704D01*
X482600Y425704D02*
X482600Y412496D01*
X457200Y412496D02*
X457200Y425704D01*
X431800Y425704D02*
X431800Y412496D01*
X406400Y412496D02*
X406400Y425704D01*
X381000Y425704D02*
X381000Y412496D01*
X355600Y412496D02*
X355600Y425704D01*
X330200Y425704D02*
X330200Y412496D01*
X304800Y412496D02*
X304800Y425704D01*
X279400Y425704D02*
X279400Y412496D01*
X254000Y412496D02*
X254000Y425704D01*
X228600Y425704D02*
X228600Y412496D01*
X203200Y412496D02*
X203200Y425704D01*
X177800Y425704D02*
X177800Y412496D01*
X152400Y412496D02*
X152400Y425704D01*
X127000Y425704D02*
X127000Y412496D01*
X101600Y412496D02*
X101600Y425704D01*
X76200Y425704D02*
X76200Y412496D01*
X50800Y412496D02*
X50800Y425704D01*
X25400Y425704D02*
X25400Y412496D01*
D16*
X546100Y368300D03*
X546100Y444500D03*
X571500Y368300D03*
X571500Y444500D03*
X596900Y368300D03*
X596900Y444500D03*
X546100Y266700D03*
X546100Y342900D03*
X584200Y266700D03*
X584200Y342900D03*
X622300Y266700D03*
X622300Y342900D03*
X622300Y368300D03*
X622300Y444500D03*
D15*
X482600Y469900D03*
X558800Y469900D03*
X482600Y508000D03*
X558800Y508000D03*
D13*
X469900Y495300D03*
X393700Y495300D03*
D15*
X317500Y457200D03*
X393700Y457200D03*
D21*
X266700Y571500D03*
D12*
X241300Y571500D03*
D21*
X266700Y495300D03*
D12*
X241300Y495300D03*
D18*
X101600Y698500D03*
X126600Y648500D03*
X151600Y648500D03*
X76600Y648500D03*
X51600Y648500D03*
D19*
X151600Y698500D03*
X151600Y723500D03*
X51600Y723500D03*
X51600Y698500D03*
D18*
X101200Y648500D03*
D15*
X38100Y444500D03*
X63500Y444500D03*
D11*
X685800Y673100D03*
D12*
X685800Y698500D03*
D10*
X698500Y215900D03*
X698500Y139700D03*
D16*
X673100Y558800D03*
X654050Y546100D03*
X673100Y533400D03*
D10*
X609600Y571500D03*
X609600Y495300D03*
D31*
X241300Y127000D03*
X241300Y152400D03*
X266700Y127000D03*
X266700Y152400D03*
D11*
X558800Y673100D03*
D12*
X558800Y698500D03*
M02*
