G04 EAGLE Gerber RS-274X export*
G75*
%MOMM*%
%FSLAX34Y34*%
%LPD*%
%INSoldermask Top*%
%IPPOS*%
%AMOC8*
5,1,8,0,0,1.08239X$1,22.5*%
G01*
%ADD10P,1.649562X8X292.500000*%
%ADD11P,1.951982X8X22.500000*%
%ADD12C,1.803400*%
%ADD13P,1.649562X8X202.500000*%
%ADD14C,1.524000*%
%ADD15P,1.649562X8X22.500000*%
%ADD16P,1.649562X8X112.500000*%
%ADD17C,1.625600*%
%ADD18C,2.387600*%
%ADD19C,1.403200*%
%ADD20P,1.869504X8X22.500000*%
%ADD21P,1.951982X8X292.500000*%
%ADD22P,1.951982X8X202.500000*%
%ADD23C,4.165600*%
%ADD24P,1.869504X8X202.500000*%
%ADD25C,1.727200*%
%ADD26R,1.917700X1.917700*%
%ADD27C,1.879600*%
%ADD28P,1.759533X8X22.500000*%
%ADD29C,1.524000*%


D10*
X355600Y203200D03*
X355600Y177800D03*
D11*
X469900Y266700D03*
D12*
X444500Y266700D03*
D13*
X444754Y635000D03*
X495046Y635000D03*
X469900Y660400D03*
X723900Y609600D03*
X698500Y609600D03*
D14*
X800100Y596900D03*
X825500Y596900D03*
X825500Y673100D03*
X800100Y673100D03*
X850900Y596900D03*
X876300Y596900D03*
X850900Y673100D03*
X876300Y673100D03*
D13*
X825500Y698500D03*
X800100Y698500D03*
D10*
X762000Y635000D03*
X762000Y609600D03*
D15*
X863600Y698500D03*
X889000Y698500D03*
D16*
X914400Y596900D03*
X914400Y673100D03*
D10*
X914400Y571500D03*
X914400Y546100D03*
D17*
X571500Y691388D02*
X571500Y705612D01*
X546100Y705612D02*
X546100Y691388D01*
D18*
X254000Y698500D03*
X279000Y648500D03*
X304000Y648500D03*
X229000Y648500D03*
X204000Y648500D03*
D19*
X304000Y698500D03*
X304000Y723500D03*
X204000Y723500D03*
X204000Y698500D03*
D18*
X253600Y648500D03*
D20*
X762000Y660400D03*
D21*
X736600Y50800D03*
D12*
X736600Y76200D03*
D10*
X800100Y88900D03*
X800100Y38100D03*
D18*
X101600Y698500D03*
X126600Y648500D03*
X151600Y648500D03*
X76600Y648500D03*
X51600Y648500D03*
D19*
X151600Y698500D03*
X151600Y723500D03*
X51600Y723500D03*
X51600Y698500D03*
D18*
X101200Y648500D03*
D10*
X635000Y330200D03*
X635000Y254000D03*
D13*
X584200Y266700D03*
X558800Y266700D03*
D14*
X533400Y381000D03*
X533400Y355600D03*
X609600Y355600D03*
X609600Y381000D03*
X533400Y330200D03*
X533400Y304800D03*
X609600Y330200D03*
X609600Y304800D03*
D10*
X571500Y482600D03*
X571500Y457200D03*
D16*
X546100Y419100D03*
X546100Y495300D03*
X609600Y457200D03*
X609600Y482600D03*
D13*
X609600Y419100D03*
X584200Y419100D03*
D10*
X457200Y469900D03*
X457200Y393700D03*
X508000Y330200D03*
X508000Y304800D03*
D22*
X368300Y685800D03*
D12*
X393700Y685800D03*
D15*
X533400Y533400D03*
X609600Y533400D03*
X850900Y571500D03*
X876300Y571500D03*
D23*
X558800Y596900D03*
D24*
X635000Y76200D03*
X609600Y76200D03*
X584200Y76200D03*
X558800Y76200D03*
X533400Y76200D03*
X508000Y76200D03*
X635000Y50800D03*
X609600Y50800D03*
X584200Y50800D03*
X558800Y50800D03*
X533400Y50800D03*
X508000Y50800D03*
X482600Y76200D03*
X482600Y50800D03*
X457200Y76200D03*
X431800Y76200D03*
X406400Y76200D03*
X381000Y76200D03*
X355600Y76200D03*
X330200Y76200D03*
X457200Y50800D03*
X431800Y50800D03*
X406400Y50800D03*
X381000Y50800D03*
X355600Y50800D03*
X330200Y50800D03*
X304800Y76200D03*
X304800Y50800D03*
X279400Y76200D03*
X254000Y76200D03*
X228600Y76200D03*
X203200Y76200D03*
X279400Y50800D03*
X254000Y50800D03*
X228600Y50800D03*
X203200Y50800D03*
D25*
X495300Y690880D02*
X495300Y706120D01*
X469900Y706120D02*
X469900Y690880D01*
X444500Y690880D02*
X444500Y706120D01*
D15*
X914146Y63500D03*
X863854Y63500D03*
X889000Y38100D03*
D26*
X711200Y381000D03*
X863600Y381000D03*
D27*
X737400Y381000D03*
X837400Y381000D03*
D20*
X812800Y381000D03*
X762000Y381000D03*
D11*
X908050Y203200D03*
D12*
X882650Y203200D03*
D13*
X914400Y139700D03*
X838200Y139700D03*
D16*
X685800Y558800D03*
X666750Y546100D03*
X685800Y533400D03*
D10*
X635000Y571500D03*
X635000Y495300D03*
D28*
X76200Y50800D03*
X76200Y76200D03*
X101600Y50800D03*
X101600Y76200D03*
D21*
X723900Y673100D03*
D12*
X723900Y698500D03*
D28*
X25400Y50800D03*
X25400Y76200D03*
X50800Y50800D03*
X50800Y76200D03*
D17*
X653288Y152400D02*
X667512Y152400D01*
X667512Y177800D02*
X653288Y177800D01*
D16*
X508000Y393700D03*
X508000Y469900D03*
D10*
X482600Y469900D03*
X482600Y393700D03*
D29*
X50800Y260604D02*
X50800Y247396D01*
X76200Y247396D02*
X76200Y260604D01*
X101600Y260604D02*
X101600Y247396D01*
X127000Y247396D02*
X127000Y260604D01*
X152400Y260604D02*
X152400Y247396D01*
X177800Y247396D02*
X177800Y260604D01*
X203200Y260604D02*
X203200Y247396D01*
X228600Y247396D02*
X228600Y260604D01*
X254000Y260604D02*
X254000Y247396D01*
X279400Y247396D02*
X279400Y260604D01*
X304800Y260604D02*
X304800Y247396D01*
X330200Y247396D02*
X330200Y260604D01*
X355600Y260604D02*
X355600Y247396D01*
X381000Y247396D02*
X381000Y260604D01*
X381000Y399796D02*
X381000Y413004D01*
X355600Y413004D02*
X355600Y399796D01*
X330200Y399796D02*
X330200Y413004D01*
X304800Y413004D02*
X304800Y399796D01*
X279400Y399796D02*
X279400Y413004D01*
X254000Y413004D02*
X254000Y399796D01*
X228600Y399796D02*
X228600Y413004D01*
X203200Y413004D02*
X203200Y399796D01*
X177800Y399796D02*
X177800Y413004D01*
X152400Y413004D02*
X152400Y399796D01*
X127000Y399796D02*
X127000Y413004D01*
X101600Y413004D02*
X101600Y399796D01*
X76200Y399796D02*
X76200Y413004D01*
X50800Y413004D02*
X50800Y399796D01*
X50800Y437896D02*
X50800Y451104D01*
X76200Y451104D02*
X76200Y437896D01*
X101600Y437896D02*
X101600Y451104D01*
X127000Y451104D02*
X127000Y437896D01*
X152400Y437896D02*
X152400Y451104D01*
X177800Y451104D02*
X177800Y437896D01*
X203200Y437896D02*
X203200Y451104D01*
X228600Y451104D02*
X228600Y437896D01*
X254000Y437896D02*
X254000Y451104D01*
X279400Y451104D02*
X279400Y437896D01*
X304800Y437896D02*
X304800Y451104D01*
X330200Y451104D02*
X330200Y437896D01*
X355600Y437896D02*
X355600Y451104D01*
X381000Y451104D02*
X381000Y437896D01*
X381000Y590296D02*
X381000Y603504D01*
X355600Y603504D02*
X355600Y590296D01*
X330200Y590296D02*
X330200Y603504D01*
X304800Y603504D02*
X304800Y590296D01*
X279400Y590296D02*
X279400Y603504D01*
X254000Y603504D02*
X254000Y590296D01*
X228600Y590296D02*
X228600Y603504D01*
X203200Y603504D02*
X203200Y590296D01*
X177800Y590296D02*
X177800Y603504D01*
X152400Y603504D02*
X152400Y590296D01*
X127000Y590296D02*
X127000Y603504D01*
X101600Y603504D02*
X101600Y590296D01*
X76200Y590296D02*
X76200Y603504D01*
X50800Y603504D02*
X50800Y590296D01*
X50800Y133604D02*
X50800Y120396D01*
X76200Y120396D02*
X76200Y133604D01*
X203200Y133604D02*
X203200Y120396D01*
X228600Y120396D02*
X228600Y133604D01*
X101600Y133604D02*
X101600Y120396D01*
X127000Y120396D02*
X127000Y133604D01*
X177800Y133604D02*
X177800Y120396D01*
X152400Y120396D02*
X152400Y133604D01*
X254000Y133604D02*
X254000Y120396D01*
X279400Y120396D02*
X279400Y133604D01*
X279400Y196596D02*
X279400Y209804D01*
X254000Y209804D02*
X254000Y196596D01*
X228600Y196596D02*
X228600Y209804D01*
X203200Y209804D02*
X203200Y196596D01*
X177800Y196596D02*
X177800Y209804D01*
X152400Y209804D02*
X152400Y196596D01*
X127000Y196596D02*
X127000Y209804D01*
X101600Y209804D02*
X101600Y196596D01*
X76200Y196596D02*
X76200Y209804D01*
X50800Y209804D02*
X50800Y196596D01*
X381000Y133604D02*
X381000Y120396D01*
X406400Y120396D02*
X406400Y133604D01*
X431800Y133604D02*
X431800Y120396D01*
X457200Y120396D02*
X457200Y133604D01*
X482600Y133604D02*
X482600Y120396D01*
X508000Y120396D02*
X508000Y133604D01*
X533400Y133604D02*
X533400Y120396D01*
X558800Y120396D02*
X558800Y133604D01*
X584200Y133604D02*
X584200Y120396D01*
X609600Y120396D02*
X609600Y133604D01*
X609600Y196596D02*
X609600Y209804D01*
X584200Y209804D02*
X584200Y196596D01*
X558800Y196596D02*
X558800Y209804D01*
X533400Y209804D02*
X533400Y196596D01*
X508000Y196596D02*
X508000Y209804D01*
X482600Y209804D02*
X482600Y196596D01*
X457200Y196596D02*
X457200Y209804D01*
X431800Y209804D02*
X431800Y196596D01*
X406400Y196596D02*
X406400Y209804D01*
X381000Y209804D02*
X381000Y196596D01*
D17*
X444500Y513588D02*
X444500Y527812D01*
X469900Y527812D02*
X469900Y513588D01*
X495300Y513588D02*
X495300Y527812D01*
D15*
X736600Y152400D03*
X749300Y171450D03*
X762000Y152400D03*
X736600Y203200D03*
X762000Y203200D03*
D10*
X12700Y304800D03*
X12700Y279400D03*
X12700Y495300D03*
X12700Y469900D03*
D13*
X609854Y635000D03*
X660146Y635000D03*
X635000Y660400D03*
D16*
X431800Y393700D03*
X431800Y469900D03*
D15*
X431800Y330200D03*
X457200Y330200D03*
D17*
X134112Y50800D02*
X119888Y50800D01*
X119888Y76200D02*
X134112Y76200D01*
D16*
X698500Y152400D03*
X698500Y177800D03*
D10*
X25400Y203200D03*
X25400Y177800D03*
D25*
X609600Y690880D02*
X609600Y706120D01*
X635000Y706120D02*
X635000Y690880D01*
X660400Y690880D02*
X660400Y706120D01*
D16*
X12700Y368300D03*
X12700Y393700D03*
D17*
X800100Y558038D02*
X800100Y572262D01*
X774700Y572262D02*
X774700Y558038D01*
D13*
X838200Y203200D03*
X787400Y203200D03*
M02*
