G04 EAGLE Gerber RS-274X export*
G75*
%MOMM*%
%FSLAX34Y34*%
%LPD*%
%INSilkscreen Bottom*%
%IPPOS*%
%AMOC8*
5,1,8,0,0,1.08239X$1,22.5*%
G01*
%ADD10C,0.101600*%
%ADD11C,0.152400*%
%ADD12C,0.127000*%


D10*
X855296Y296003D02*
X857245Y297952D01*
X861143Y297952D01*
X863092Y296003D01*
X863092Y294054D01*
X861143Y292105D01*
X857245Y292105D01*
X855296Y290156D01*
X855296Y288207D01*
X857245Y286258D01*
X861143Y286258D01*
X863092Y288207D01*
X851398Y286258D02*
X851398Y297952D01*
X845551Y297952D01*
X843602Y296003D01*
X843602Y294054D01*
X845551Y292105D01*
X843602Y290156D01*
X843602Y288207D01*
X845551Y286258D01*
X851398Y286258D01*
X851398Y292105D02*
X845551Y292105D01*
X839704Y297952D02*
X831908Y286258D01*
X839704Y286258D02*
X831908Y297952D01*
X828010Y292105D02*
X820214Y292105D01*
X816316Y297952D02*
X808520Y297952D01*
X816316Y297952D02*
X816316Y292105D01*
X812418Y294054D01*
X810469Y294054D01*
X808520Y292105D01*
X808520Y288207D01*
X810469Y286258D01*
X814367Y286258D01*
X816316Y288207D01*
X804622Y286258D02*
X796826Y286258D01*
X804622Y286258D02*
X796826Y294054D01*
X796826Y296003D01*
X798775Y297952D01*
X802673Y297952D01*
X804622Y296003D01*
X792928Y286258D02*
X785132Y286258D01*
X792928Y286258D02*
X785132Y294054D01*
X785132Y296003D01*
X787081Y297952D01*
X790979Y297952D01*
X792928Y296003D01*
X781234Y296003D02*
X781234Y288207D01*
X781234Y296003D02*
X779285Y297952D01*
X775387Y297952D01*
X773438Y296003D01*
X773438Y288207D01*
X775387Y286258D01*
X779285Y286258D01*
X781234Y288207D01*
X773438Y296003D01*
X757846Y294054D02*
X753948Y286258D01*
X750050Y294054D01*
X746152Y296003D02*
X746152Y288207D01*
X746152Y296003D02*
X744203Y297952D01*
X740305Y297952D01*
X738356Y296003D01*
X738356Y288207D01*
X740305Y286258D01*
X744203Y286258D01*
X746152Y288207D01*
X738356Y296003D01*
X734458Y288207D02*
X734458Y286258D01*
X734458Y288207D02*
X732509Y288207D01*
X732509Y286258D01*
X734458Y286258D01*
X728611Y286258D02*
X720815Y286258D01*
X728611Y286258D02*
X720815Y294054D01*
X720815Y296003D01*
X722764Y297952D01*
X726662Y297952D01*
X728611Y296003D01*
X863092Y275004D02*
X863092Y269157D01*
X861143Y267208D01*
X859194Y269157D01*
X857245Y267208D01*
X855296Y269157D01*
X855296Y275004D01*
X851398Y275004D02*
X851398Y269157D01*
X849449Y267208D01*
X847500Y269157D01*
X845551Y267208D01*
X843602Y269157D01*
X843602Y275004D01*
X839704Y275004D02*
X839704Y269157D01*
X837755Y267208D01*
X835806Y269157D01*
X833857Y267208D01*
X831908Y269157D01*
X831908Y275004D01*
X828010Y269157D02*
X828010Y267208D01*
X828010Y269157D02*
X826061Y269157D01*
X826061Y267208D01*
X828010Y267208D01*
X822163Y267208D02*
X816316Y267208D01*
X814367Y269157D01*
X816316Y271106D01*
X820214Y271106D01*
X822163Y273055D01*
X820214Y275004D01*
X814367Y275004D01*
X810469Y275004D02*
X810469Y267208D01*
X810469Y275004D02*
X808520Y275004D01*
X806571Y273055D01*
X806571Y267208D01*
X806571Y273055D02*
X804622Y275004D01*
X802673Y273055D01*
X802673Y267208D01*
X798775Y267208D02*
X798775Y278902D01*
X798775Y267208D02*
X792928Y267208D01*
X790979Y269157D01*
X790979Y273055D01*
X792928Y275004D01*
X798775Y275004D01*
X785132Y275004D02*
X781234Y275004D01*
X779285Y273055D01*
X779285Y267208D01*
X785132Y267208D01*
X787081Y269157D01*
X785132Y271106D01*
X779285Y271106D01*
X775387Y267208D02*
X775387Y278902D01*
X775387Y271106D02*
X769540Y267208D01*
X775387Y271106D02*
X769540Y275004D01*
X763693Y267208D02*
X759795Y267208D01*
X763693Y267208D02*
X765642Y269157D01*
X765642Y273055D01*
X763693Y275004D01*
X759795Y275004D01*
X757846Y273055D01*
X757846Y271106D01*
X765642Y271106D01*
X753948Y267208D02*
X753948Y275004D01*
X753948Y271106D02*
X750050Y275004D01*
X748101Y275004D01*
X744203Y269157D02*
X744203Y267208D01*
X744203Y269157D02*
X742254Y269157D01*
X742254Y267208D01*
X744203Y267208D01*
X736407Y275004D02*
X730560Y275004D01*
X736407Y275004D02*
X738356Y273055D01*
X738356Y269157D01*
X736407Y267208D01*
X730560Y267208D01*
X724713Y267208D02*
X720815Y267208D01*
X718866Y269157D01*
X718866Y273055D01*
X720815Y275004D01*
X724713Y275004D01*
X726662Y273055D01*
X726662Y269157D01*
X724713Y267208D01*
X714968Y267208D02*
X714968Y275004D01*
X713019Y275004D01*
X711070Y273055D01*
X711070Y267208D01*
X711070Y273055D02*
X709121Y275004D01*
X707172Y273055D01*
X707172Y267208D01*
D11*
X485140Y557530D02*
X485140Y585470D01*
X502920Y588010D02*
X503020Y588008D01*
X503119Y588002D01*
X503219Y587992D01*
X503317Y587979D01*
X503416Y587961D01*
X503513Y587940D01*
X503609Y587915D01*
X503705Y587886D01*
X503799Y587853D01*
X503892Y587817D01*
X503983Y587777D01*
X504073Y587733D01*
X504161Y587686D01*
X504247Y587636D01*
X504331Y587582D01*
X504413Y587525D01*
X504492Y587465D01*
X504570Y587401D01*
X504644Y587335D01*
X504716Y587266D01*
X504785Y587194D01*
X504851Y587120D01*
X504915Y587042D01*
X504975Y586963D01*
X505032Y586881D01*
X505086Y586797D01*
X505136Y586711D01*
X505183Y586623D01*
X505227Y586533D01*
X505267Y586442D01*
X505303Y586349D01*
X505336Y586255D01*
X505365Y586159D01*
X505390Y586063D01*
X505411Y585966D01*
X505429Y585867D01*
X505442Y585769D01*
X505452Y585669D01*
X505458Y585570D01*
X505460Y585470D01*
X505460Y557530D02*
X505458Y557430D01*
X505452Y557331D01*
X505442Y557231D01*
X505429Y557133D01*
X505411Y557034D01*
X505390Y556937D01*
X505365Y556841D01*
X505336Y556745D01*
X505303Y556651D01*
X505267Y556558D01*
X505227Y556467D01*
X505183Y556377D01*
X505136Y556289D01*
X505086Y556203D01*
X505032Y556119D01*
X504975Y556037D01*
X504915Y555958D01*
X504851Y555880D01*
X504785Y555806D01*
X504716Y555734D01*
X504644Y555665D01*
X504570Y555599D01*
X504492Y555535D01*
X504413Y555475D01*
X504331Y555418D01*
X504247Y555364D01*
X504161Y555314D01*
X504073Y555267D01*
X503983Y555223D01*
X503892Y555183D01*
X503799Y555147D01*
X503705Y555114D01*
X503609Y555085D01*
X503513Y555060D01*
X503416Y555039D01*
X503317Y555021D01*
X503219Y555008D01*
X503119Y554998D01*
X503020Y554992D01*
X502920Y554990D01*
X487680Y554990D02*
X487580Y554992D01*
X487481Y554998D01*
X487381Y555008D01*
X487283Y555021D01*
X487184Y555039D01*
X487087Y555060D01*
X486991Y555085D01*
X486895Y555114D01*
X486801Y555147D01*
X486708Y555183D01*
X486617Y555223D01*
X486527Y555267D01*
X486439Y555314D01*
X486353Y555364D01*
X486269Y555418D01*
X486187Y555475D01*
X486108Y555535D01*
X486030Y555599D01*
X485956Y555665D01*
X485884Y555734D01*
X485815Y555806D01*
X485749Y555880D01*
X485685Y555958D01*
X485625Y556037D01*
X485568Y556119D01*
X485514Y556203D01*
X485464Y556289D01*
X485417Y556377D01*
X485373Y556467D01*
X485333Y556558D01*
X485297Y556651D01*
X485264Y556745D01*
X485235Y556841D01*
X485210Y556937D01*
X485189Y557034D01*
X485171Y557133D01*
X485158Y557231D01*
X485148Y557331D01*
X485142Y557430D01*
X485140Y557530D01*
X485140Y585470D02*
X485142Y585570D01*
X485148Y585669D01*
X485158Y585769D01*
X485171Y585867D01*
X485189Y585966D01*
X485210Y586063D01*
X485235Y586159D01*
X485264Y586255D01*
X485297Y586349D01*
X485333Y586442D01*
X485373Y586533D01*
X485417Y586623D01*
X485464Y586711D01*
X485514Y586797D01*
X485568Y586881D01*
X485625Y586963D01*
X485685Y587042D01*
X485749Y587120D01*
X485815Y587194D01*
X485884Y587266D01*
X485956Y587335D01*
X486030Y587401D01*
X486108Y587465D01*
X486187Y587525D01*
X486269Y587582D01*
X486353Y587636D01*
X486439Y587686D01*
X486527Y587733D01*
X486617Y587777D01*
X486708Y587817D01*
X486801Y587853D01*
X486895Y587886D01*
X486991Y587915D01*
X487087Y587940D01*
X487184Y587961D01*
X487283Y587979D01*
X487381Y587992D01*
X487481Y588002D01*
X487580Y588008D01*
X487680Y588010D01*
X502920Y588010D01*
X502920Y554990D02*
X487680Y554990D01*
X505460Y557530D02*
X505460Y585470D01*
D12*
X516898Y563252D02*
X518805Y561345D01*
X518805Y557532D01*
X516898Y555625D01*
X514992Y555625D01*
X513085Y557532D01*
X513085Y561345D01*
X511178Y563252D01*
X509272Y563252D01*
X507365Y561345D01*
X507365Y557532D01*
X509272Y555625D01*
X509272Y567319D02*
X507365Y569226D01*
X507365Y571132D01*
X509272Y573039D01*
X518805Y573039D01*
X518805Y574945D02*
X518805Y571132D01*
X514992Y579013D02*
X518805Y582826D01*
X507365Y582826D01*
X507365Y579013D02*
X507365Y586639D01*
D11*
X447040Y585470D02*
X447040Y557530D01*
X467360Y585470D02*
X467358Y585570D01*
X467352Y585669D01*
X467342Y585769D01*
X467329Y585867D01*
X467311Y585966D01*
X467290Y586063D01*
X467265Y586159D01*
X467236Y586255D01*
X467203Y586349D01*
X467167Y586442D01*
X467127Y586533D01*
X467083Y586623D01*
X467036Y586711D01*
X466986Y586797D01*
X466932Y586881D01*
X466875Y586963D01*
X466815Y587042D01*
X466751Y587120D01*
X466685Y587194D01*
X466616Y587266D01*
X466544Y587335D01*
X466470Y587401D01*
X466392Y587465D01*
X466313Y587525D01*
X466231Y587582D01*
X466147Y587636D01*
X466061Y587686D01*
X465973Y587733D01*
X465883Y587777D01*
X465792Y587817D01*
X465699Y587853D01*
X465605Y587886D01*
X465509Y587915D01*
X465413Y587940D01*
X465316Y587961D01*
X465217Y587979D01*
X465119Y587992D01*
X465019Y588002D01*
X464920Y588008D01*
X464820Y588010D01*
X467360Y557530D02*
X467358Y557430D01*
X467352Y557331D01*
X467342Y557231D01*
X467329Y557133D01*
X467311Y557034D01*
X467290Y556937D01*
X467265Y556841D01*
X467236Y556745D01*
X467203Y556651D01*
X467167Y556558D01*
X467127Y556467D01*
X467083Y556377D01*
X467036Y556289D01*
X466986Y556203D01*
X466932Y556119D01*
X466875Y556037D01*
X466815Y555958D01*
X466751Y555880D01*
X466685Y555806D01*
X466616Y555734D01*
X466544Y555665D01*
X466470Y555599D01*
X466392Y555535D01*
X466313Y555475D01*
X466231Y555418D01*
X466147Y555364D01*
X466061Y555314D01*
X465973Y555267D01*
X465883Y555223D01*
X465792Y555183D01*
X465699Y555147D01*
X465605Y555114D01*
X465509Y555085D01*
X465413Y555060D01*
X465316Y555039D01*
X465217Y555021D01*
X465119Y555008D01*
X465019Y554998D01*
X464920Y554992D01*
X464820Y554990D01*
X449580Y554990D02*
X449480Y554992D01*
X449381Y554998D01*
X449281Y555008D01*
X449183Y555021D01*
X449084Y555039D01*
X448987Y555060D01*
X448891Y555085D01*
X448795Y555114D01*
X448701Y555147D01*
X448608Y555183D01*
X448517Y555223D01*
X448427Y555267D01*
X448339Y555314D01*
X448253Y555364D01*
X448169Y555418D01*
X448087Y555475D01*
X448008Y555535D01*
X447930Y555599D01*
X447856Y555665D01*
X447784Y555734D01*
X447715Y555806D01*
X447649Y555880D01*
X447585Y555958D01*
X447525Y556037D01*
X447468Y556119D01*
X447414Y556203D01*
X447364Y556289D01*
X447317Y556377D01*
X447273Y556467D01*
X447233Y556558D01*
X447197Y556651D01*
X447164Y556745D01*
X447135Y556841D01*
X447110Y556937D01*
X447089Y557034D01*
X447071Y557133D01*
X447058Y557231D01*
X447048Y557331D01*
X447042Y557430D01*
X447040Y557530D01*
X447040Y585470D02*
X447042Y585570D01*
X447048Y585669D01*
X447058Y585769D01*
X447071Y585867D01*
X447089Y585966D01*
X447110Y586063D01*
X447135Y586159D01*
X447164Y586255D01*
X447197Y586349D01*
X447233Y586442D01*
X447273Y586533D01*
X447317Y586623D01*
X447364Y586711D01*
X447414Y586797D01*
X447468Y586881D01*
X447525Y586963D01*
X447585Y587042D01*
X447649Y587120D01*
X447715Y587194D01*
X447784Y587266D01*
X447856Y587335D01*
X447930Y587401D01*
X448008Y587465D01*
X448087Y587525D01*
X448169Y587582D01*
X448253Y587636D01*
X448339Y587686D01*
X448427Y587733D01*
X448517Y587777D01*
X448608Y587817D01*
X448701Y587853D01*
X448795Y587886D01*
X448891Y587915D01*
X448987Y587940D01*
X449084Y587961D01*
X449183Y587979D01*
X449281Y587992D01*
X449381Y588002D01*
X449480Y588008D01*
X449580Y588010D01*
X464820Y588010D01*
X464820Y554990D02*
X449580Y554990D01*
X467360Y557530D02*
X467360Y585470D01*
D12*
X442605Y561345D02*
X440698Y563252D01*
X442605Y561345D02*
X442605Y557532D01*
X440698Y555625D01*
X438792Y555625D01*
X436885Y557532D01*
X436885Y561345D01*
X434978Y563252D01*
X433072Y563252D01*
X431165Y561345D01*
X431165Y557532D01*
X433072Y555625D01*
X433072Y567319D02*
X431165Y569226D01*
X431165Y571132D01*
X433072Y573039D01*
X442605Y573039D01*
X442605Y574945D02*
X442605Y571132D01*
X431165Y579013D02*
X431165Y586639D01*
X431165Y579013D02*
X438792Y586639D01*
X440698Y586639D01*
X442605Y584733D01*
X442605Y580920D01*
X440698Y579013D01*
D11*
X15240Y153670D02*
X15240Y125730D01*
X35560Y153670D02*
X35558Y153770D01*
X35552Y153869D01*
X35542Y153969D01*
X35529Y154067D01*
X35511Y154166D01*
X35490Y154263D01*
X35465Y154359D01*
X35436Y154455D01*
X35403Y154549D01*
X35367Y154642D01*
X35327Y154733D01*
X35283Y154823D01*
X35236Y154911D01*
X35186Y154997D01*
X35132Y155081D01*
X35075Y155163D01*
X35015Y155242D01*
X34951Y155320D01*
X34885Y155394D01*
X34816Y155466D01*
X34744Y155535D01*
X34670Y155601D01*
X34592Y155665D01*
X34513Y155725D01*
X34431Y155782D01*
X34347Y155836D01*
X34261Y155886D01*
X34173Y155933D01*
X34083Y155977D01*
X33992Y156017D01*
X33899Y156053D01*
X33805Y156086D01*
X33709Y156115D01*
X33613Y156140D01*
X33516Y156161D01*
X33417Y156179D01*
X33319Y156192D01*
X33219Y156202D01*
X33120Y156208D01*
X33020Y156210D01*
X35560Y125730D02*
X35558Y125630D01*
X35552Y125531D01*
X35542Y125431D01*
X35529Y125333D01*
X35511Y125234D01*
X35490Y125137D01*
X35465Y125041D01*
X35436Y124945D01*
X35403Y124851D01*
X35367Y124758D01*
X35327Y124667D01*
X35283Y124577D01*
X35236Y124489D01*
X35186Y124403D01*
X35132Y124319D01*
X35075Y124237D01*
X35015Y124158D01*
X34951Y124080D01*
X34885Y124006D01*
X34816Y123934D01*
X34744Y123865D01*
X34670Y123799D01*
X34592Y123735D01*
X34513Y123675D01*
X34431Y123618D01*
X34347Y123564D01*
X34261Y123514D01*
X34173Y123467D01*
X34083Y123423D01*
X33992Y123383D01*
X33899Y123347D01*
X33805Y123314D01*
X33709Y123285D01*
X33613Y123260D01*
X33516Y123239D01*
X33417Y123221D01*
X33319Y123208D01*
X33219Y123198D01*
X33120Y123192D01*
X33020Y123190D01*
X17780Y123190D02*
X17680Y123192D01*
X17581Y123198D01*
X17481Y123208D01*
X17383Y123221D01*
X17284Y123239D01*
X17187Y123260D01*
X17091Y123285D01*
X16995Y123314D01*
X16901Y123347D01*
X16808Y123383D01*
X16717Y123423D01*
X16627Y123467D01*
X16539Y123514D01*
X16453Y123564D01*
X16369Y123618D01*
X16287Y123675D01*
X16208Y123735D01*
X16130Y123799D01*
X16056Y123865D01*
X15984Y123934D01*
X15915Y124006D01*
X15849Y124080D01*
X15785Y124158D01*
X15725Y124237D01*
X15668Y124319D01*
X15614Y124403D01*
X15564Y124489D01*
X15517Y124577D01*
X15473Y124667D01*
X15433Y124758D01*
X15397Y124851D01*
X15364Y124945D01*
X15335Y125041D01*
X15310Y125137D01*
X15289Y125234D01*
X15271Y125333D01*
X15258Y125431D01*
X15248Y125531D01*
X15242Y125630D01*
X15240Y125730D01*
X15240Y153670D02*
X15242Y153770D01*
X15248Y153869D01*
X15258Y153969D01*
X15271Y154067D01*
X15289Y154166D01*
X15310Y154263D01*
X15335Y154359D01*
X15364Y154455D01*
X15397Y154549D01*
X15433Y154642D01*
X15473Y154733D01*
X15517Y154823D01*
X15564Y154911D01*
X15614Y154997D01*
X15668Y155081D01*
X15725Y155163D01*
X15785Y155242D01*
X15849Y155320D01*
X15915Y155394D01*
X15984Y155466D01*
X16056Y155535D01*
X16130Y155601D01*
X16208Y155665D01*
X16287Y155725D01*
X16369Y155782D01*
X16453Y155836D01*
X16539Y155886D01*
X16627Y155933D01*
X16717Y155977D01*
X16808Y156017D01*
X16901Y156053D01*
X16995Y156086D01*
X17091Y156115D01*
X17187Y156140D01*
X17284Y156161D01*
X17383Y156179D01*
X17481Y156192D01*
X17581Y156202D01*
X17680Y156208D01*
X17780Y156210D01*
X33020Y156210D01*
X33020Y123190D02*
X17780Y123190D01*
X35560Y125730D02*
X35560Y153670D01*
D12*
X35555Y112405D02*
X33649Y110498D01*
X35555Y112405D02*
X39368Y112405D01*
X41275Y110498D01*
X41275Y108592D01*
X39368Y106685D01*
X35555Y106685D01*
X33649Y104778D01*
X33649Y102872D01*
X35555Y100965D01*
X39368Y100965D01*
X41275Y102872D01*
X29581Y102872D02*
X27674Y100965D01*
X25768Y100965D01*
X23861Y102872D01*
X23861Y112405D01*
X21955Y112405D02*
X25768Y112405D01*
X17887Y110498D02*
X15980Y112405D01*
X12167Y112405D01*
X10261Y110498D01*
X10261Y108592D01*
X12167Y106685D01*
X14074Y106685D01*
X12167Y106685D02*
X10261Y104778D01*
X10261Y102872D01*
X12167Y100965D01*
X15980Y100965D01*
X17887Y102872D01*
M02*
