M48
;GenerationSoftware,Autodesk,EAGLE,9.6.1*%
;CreationDate,2025-02-23T20:43:13Z*%
FMAT,2
ICI,OFF
METRIC,TZ,000.000
T9C0.610
T8C0.813
T7C0.914
T6C1.016
T5C1.100
T4C1.143
T3C1.200
T2C1.300
T1C3.962
%
G90
M71
T1
X55880Y59690
T2
X30400Y64850
X27900Y64850
X25400Y69850
X10120Y64850
X5160Y64850
X7660Y64850
X15160Y64850
X12660Y64850
X10160Y69850
X25360Y64850
X20400Y64850
X22900Y64850
T3
X5160Y69850
X5160Y72350
X30400Y69850
X30400Y72350
X20400Y72350
X20400Y69850
X15160Y69850
X15160Y72350
T4
X71120Y38100
X86360Y38100
T5
X83740Y38100
X73740Y38100
T6
X53340Y5080
X50800Y5080
X48260Y7620
X48260Y5080
X45720Y7620
X43180Y7620
X40640Y7620
X38100Y7620
X60960Y5080
X58420Y5080
X66040Y69850
X63500Y69850
X60960Y69850
X55880Y5080
X76200Y38100
X81280Y38100
X58420Y7620
X35560Y7620
X33020Y7620
X45720Y5080
X43180Y5080
X40640Y5080
X38100Y5080
X35560Y5080
X33020Y5080
X30480Y7620
X30480Y5080
X27940Y7620
X25400Y7620
X22860Y7620
X20320Y7620
X27940Y5080
X25400Y5080
X22860Y5080
X20320Y5080
X49530Y69850
X46990Y69850
X44450Y69850
X63500Y7620
X60960Y7620
X55880Y7620
X53340Y7620
X50800Y7620
X76200Y66040
X63500Y5080
T7
X77470Y56515
X80010Y56515
X12700Y7620
X10160Y7620
X2540Y5080
X2540Y7620
X5080Y5080
X7620Y5080
X57150Y69850
X54610Y69850
X5080Y7620
X7620Y7620
X66040Y15240
X66040Y17780
X44450Y52070
X46990Y52070
X49530Y52070
X12700Y5080
X10160Y5080
T8
X69850Y15240
X69850Y17780
X2540Y20320
X2540Y17780
X1270Y36830
X1270Y39370
X83820Y20320
X78740Y20320
X35560Y20320
X35560Y17780
X46990Y26670
X44450Y26670
X44475Y63500
X49505Y63500
X46990Y66040
X72390Y60960
X69850Y60960
X80010Y59690
X82550Y59690
X82550Y67310
X80010Y67310
X85090Y59690
X87630Y59690
X85090Y67310
X87630Y67310
X82550Y69850
X80010Y69850
X76200Y63500
X76200Y60960
X86360Y69850
X88900Y69850
X91440Y59690
X91440Y67310
X91440Y57150
X91440Y54610
X73660Y5080
X73660Y7620
X80010Y3810
X63500Y33020
X63500Y25400
X58420Y26670
X55880Y26670
X53340Y38100
X53340Y35560
X60960Y35560
X60960Y38100
X53340Y33020
X53340Y30480
X60960Y33020
X60960Y30480
X57150Y48260
X57150Y45720
X54610Y41910
X54610Y49530
X60960Y45720
X60960Y48260
X60960Y41910
X58420Y41910
X45720Y46990
X45720Y39370
X50800Y33020
X50800Y30480
X36830Y68580
X39370Y68580
X53340Y53340
X60960Y53340
X85090Y57150
X87630Y57150
X91415Y6350
X86385Y6350
X88900Y3810
X80010Y8890
X90805Y20320
X88265Y20320
X91440Y13970
X83820Y13970
X68580Y55880
X66675Y54610
X68580Y53340
X63500Y57150
X63500Y49530
X72390Y67310
X72390Y69850
X50800Y39370
X50800Y46990
X48260Y46990
X48260Y39370
X5080Y25400
X7620Y25400
X10160Y25400
X12700Y25400
X15240Y25400
X17780Y25400
X20320Y25400
X22860Y25400
X25400Y25400
X27940Y25400
X30480Y25400
X33020Y25400
X35560Y25400
X38100Y25400
X38100Y40640
X35560Y40640
X33020Y40640
X30480Y40640
X27940Y40640
X25400Y40640
X22860Y40640
X20320Y40640
X17780Y40640
X15240Y40640
X12700Y40640
X10160Y40640
X7620Y40640
X5080Y40640
X5080Y44450
X7620Y44450
X10160Y44450
X12700Y44450
X15240Y44450
X17780Y44450
X20320Y44450
X22860Y44450
X25400Y44450
X27940Y44450
X30480Y44450
X33020Y44450
X35560Y44450
X38100Y44450
X38100Y59690
X35560Y59690
X33020Y59690
X30480Y59690
X27940Y59690
X25400Y59690
X22860Y59690
X20320Y59690
X17780Y59690
X15240Y59690
X12700Y59690
X10160Y59690
X7620Y59690
X5080Y59690
X5080Y12700
X7620Y12700
X20320Y12700
X22860Y12700
X10160Y12700
X12700Y12700
X17780Y12700
X15240Y12700
X25400Y12700
X27940Y12700
X27940Y20320
X25400Y20320
X22860Y20320
X20320Y20320
X17780Y20320
X15240Y20320
X12700Y20320
X10160Y20320
X7620Y20320
X5080Y20320
X38100Y12700
X40640Y12700
X43180Y12700
X45720Y12700
X48260Y12700
X50800Y12700
X53340Y12700
X55880Y12700
X58420Y12700
X60960Y12700
X60960Y20320
X58420Y20320
X55880Y20320
X53340Y20320
X50800Y20320
X48260Y20320
X45720Y20320
X43180Y20320
X40640Y20320
X38100Y20320
X73660Y15240
X74930Y17145
X76200Y15240
X73660Y20320
X76200Y20320
X1270Y30480
X1270Y27940
X1270Y49530
X1270Y46990
X60985Y63500
X66015Y63500
X63500Y66040
X43180Y39370
X43180Y46990
X43180Y33020
X45720Y33020
T9
X20638Y10160
X35560Y13652
X16034Y9366
X14446Y30321
X39846Y26194
X39211Y30797
X37941Y48260
X32226Y16986
X12065Y51911
X61119Y56832
X29369Y18256
X54292Y36671
X40799Y33020
X4286Y29369
X9208Y37783
X25241Y32067
X40799Y27464
X58579Y38259
X69533Y13652
X69533Y9049
X47466Y54610
X46990Y62389
X48260Y40958
X53975Y16828
X58896Y58420
X29210Y8573
X46831Y14287
X38735Y16828
X29369Y19526
X21590Y14129
X25876Y9366
X58261Y22701
X41910Y32067
M30