G04 EAGLE Gerber RS-274X export*
G75*
%MOMM*%
%FSLAX34Y34*%
%LPD*%
%INSilkscreen Top*%
%IPPOS*%
%AMOC8*
5,1,8,0,0,1.08239X$1,22.5*%
G01*
%ADD10C,0.101600*%
%ADD11C,0.152400*%
%ADD12C,0.254000*%
%ADD13C,0.304800*%
%ADD14C,0.127000*%
%ADD15C,0.177800*%
%ADD16R,2.540000X2.540000*%


D10*
X21004Y608423D02*
X19055Y610372D01*
X15157Y610372D01*
X13208Y608423D01*
X13208Y606474D01*
X15157Y604525D01*
X19055Y604525D01*
X21004Y602576D01*
X21004Y600627D01*
X19055Y598678D01*
X15157Y598678D01*
X13208Y600627D01*
X24902Y598678D02*
X24902Y610372D01*
X30749Y610372D01*
X32698Y608423D01*
X32698Y606474D01*
X30749Y604525D01*
X32698Y602576D01*
X32698Y600627D01*
X30749Y598678D01*
X24902Y598678D01*
X24902Y604525D02*
X30749Y604525D01*
X36596Y610372D02*
X44392Y598678D01*
X36596Y598678D02*
X44392Y610372D01*
X48290Y604525D02*
X56086Y604525D01*
X59984Y608423D02*
X61933Y610372D01*
X65831Y610372D01*
X67780Y608423D01*
X67780Y606474D01*
X65831Y604525D01*
X63882Y604525D01*
X65831Y604525D02*
X67780Y602576D01*
X67780Y600627D01*
X65831Y598678D01*
X61933Y598678D01*
X59984Y600627D01*
X71678Y610372D02*
X79474Y610372D01*
X71678Y610372D02*
X71678Y604525D01*
X75576Y606474D01*
X77525Y606474D01*
X79474Y604525D01*
X79474Y600627D01*
X77525Y598678D01*
X73627Y598678D01*
X71678Y600627D01*
X83372Y606474D02*
X87270Y610372D01*
X87270Y598678D01*
X83372Y598678D02*
X91168Y598678D01*
X112607Y610372D02*
X114556Y608423D01*
X112607Y610372D02*
X108709Y610372D01*
X106760Y608423D01*
X106760Y600627D01*
X108709Y598678D01*
X112607Y598678D01*
X114556Y600627D01*
X118454Y610372D02*
X120403Y610372D01*
X120403Y598678D01*
X118454Y598678D02*
X122352Y598678D01*
X128199Y598678D02*
X132097Y598678D01*
X134046Y600627D01*
X134046Y604525D01*
X132097Y606474D01*
X128199Y606474D01*
X126250Y604525D01*
X126250Y600627D01*
X128199Y598678D01*
X137944Y598678D02*
X137944Y606474D01*
X143791Y606474D01*
X145740Y604525D01*
X145740Y598678D01*
X151587Y598678D02*
X155485Y598678D01*
X151587Y598678D02*
X149638Y600627D01*
X149638Y604525D01*
X151587Y606474D01*
X155485Y606474D01*
X157434Y604525D01*
X157434Y602576D01*
X149638Y602576D01*
X173026Y606474D02*
X176924Y598678D01*
X180822Y606474D01*
X184720Y608423D02*
X184720Y600627D01*
X184720Y608423D02*
X186669Y610372D01*
X190567Y610372D01*
X192516Y608423D01*
X192516Y600627D01*
X190567Y598678D01*
X186669Y598678D01*
X184720Y600627D01*
X192516Y608423D01*
X196414Y600627D02*
X196414Y598678D01*
X196414Y600627D02*
X198362Y600627D01*
X198362Y598678D01*
X196414Y598678D01*
X208107Y598678D02*
X208107Y610372D01*
X202260Y604525D01*
X210056Y604525D01*
X13208Y587424D02*
X13208Y581577D01*
X15157Y579628D01*
X17106Y581577D01*
X19055Y579628D01*
X21004Y581577D01*
X21004Y587424D01*
X24902Y587424D02*
X24902Y581577D01*
X26851Y579628D01*
X28800Y581577D01*
X30749Y579628D01*
X32698Y581577D01*
X32698Y587424D01*
X36596Y587424D02*
X36596Y581577D01*
X38545Y579628D01*
X40494Y581577D01*
X42443Y579628D01*
X44392Y581577D01*
X44392Y587424D01*
X48290Y581577D02*
X48290Y579628D01*
X48290Y581577D02*
X50239Y581577D01*
X50239Y579628D01*
X48290Y579628D01*
X54137Y579628D02*
X59984Y579628D01*
X61933Y581577D01*
X59984Y583526D01*
X56086Y583526D01*
X54137Y585475D01*
X56086Y587424D01*
X61933Y587424D01*
X65831Y587424D02*
X65831Y579628D01*
X65831Y587424D02*
X67780Y587424D01*
X69729Y585475D01*
X69729Y579628D01*
X69729Y585475D02*
X71678Y587424D01*
X73627Y585475D01*
X73627Y579628D01*
X77525Y579628D02*
X77525Y591322D01*
X77525Y579628D02*
X83372Y579628D01*
X85321Y581577D01*
X85321Y585475D01*
X83372Y587424D01*
X77525Y587424D01*
X91168Y587424D02*
X95066Y587424D01*
X97015Y585475D01*
X97015Y579628D01*
X91168Y579628D01*
X89219Y581577D01*
X91168Y583526D01*
X97015Y583526D01*
X100913Y579628D02*
X100913Y591322D01*
X100913Y583526D02*
X106760Y579628D01*
X100913Y583526D02*
X106760Y587424D01*
X112607Y579628D02*
X116505Y579628D01*
X112607Y579628D02*
X110658Y581577D01*
X110658Y585475D01*
X112607Y587424D01*
X116505Y587424D01*
X118454Y585475D01*
X118454Y583526D01*
X110658Y583526D01*
X122352Y579628D02*
X122352Y587424D01*
X122352Y583526D02*
X126250Y587424D01*
X128199Y587424D01*
X132097Y581577D02*
X132097Y579628D01*
X132097Y581577D02*
X134046Y581577D01*
X134046Y579628D01*
X132097Y579628D01*
X139893Y587424D02*
X145740Y587424D01*
X139893Y587424D02*
X137944Y585475D01*
X137944Y581577D01*
X139893Y579628D01*
X145740Y579628D01*
X151587Y579628D02*
X155485Y579628D01*
X157434Y581577D01*
X157434Y585475D01*
X155485Y587424D01*
X151587Y587424D01*
X149638Y585475D01*
X149638Y581577D01*
X151587Y579628D01*
X161332Y579628D02*
X161332Y587424D01*
X163281Y587424D01*
X165230Y585475D01*
X165230Y579628D01*
X165230Y585475D02*
X167179Y587424D01*
X169128Y585475D01*
X169128Y579628D01*
D11*
X63500Y504190D02*
X63500Y461010D01*
X38100Y461010D02*
X38100Y504190D01*
X40640Y458470D02*
X60960Y458470D01*
X60960Y506730D02*
X40640Y506730D01*
X63500Y461010D02*
X63498Y460910D01*
X63492Y460811D01*
X63482Y460711D01*
X63469Y460613D01*
X63451Y460514D01*
X63430Y460417D01*
X63405Y460321D01*
X63376Y460225D01*
X63343Y460131D01*
X63307Y460038D01*
X63267Y459947D01*
X63223Y459857D01*
X63176Y459769D01*
X63126Y459683D01*
X63072Y459599D01*
X63015Y459517D01*
X62955Y459438D01*
X62891Y459360D01*
X62825Y459286D01*
X62756Y459214D01*
X62684Y459145D01*
X62610Y459079D01*
X62532Y459015D01*
X62453Y458955D01*
X62371Y458898D01*
X62287Y458844D01*
X62201Y458794D01*
X62113Y458747D01*
X62023Y458703D01*
X61932Y458663D01*
X61839Y458627D01*
X61745Y458594D01*
X61649Y458565D01*
X61553Y458540D01*
X61456Y458519D01*
X61357Y458501D01*
X61259Y458488D01*
X61159Y458478D01*
X61060Y458472D01*
X60960Y458470D01*
X63500Y504190D02*
X63498Y504290D01*
X63492Y504389D01*
X63482Y504489D01*
X63469Y504587D01*
X63451Y504686D01*
X63430Y504783D01*
X63405Y504879D01*
X63376Y504975D01*
X63343Y505069D01*
X63307Y505162D01*
X63267Y505253D01*
X63223Y505343D01*
X63176Y505431D01*
X63126Y505517D01*
X63072Y505601D01*
X63015Y505683D01*
X62955Y505762D01*
X62891Y505840D01*
X62825Y505914D01*
X62756Y505986D01*
X62684Y506055D01*
X62610Y506121D01*
X62532Y506185D01*
X62453Y506245D01*
X62371Y506302D01*
X62287Y506356D01*
X62201Y506406D01*
X62113Y506453D01*
X62023Y506497D01*
X61932Y506537D01*
X61839Y506573D01*
X61745Y506606D01*
X61649Y506635D01*
X61553Y506660D01*
X61456Y506681D01*
X61357Y506699D01*
X61259Y506712D01*
X61159Y506722D01*
X61060Y506728D01*
X60960Y506730D01*
X38100Y461010D02*
X38102Y460910D01*
X38108Y460811D01*
X38118Y460711D01*
X38131Y460613D01*
X38149Y460514D01*
X38170Y460417D01*
X38195Y460321D01*
X38224Y460225D01*
X38257Y460131D01*
X38293Y460038D01*
X38333Y459947D01*
X38377Y459857D01*
X38424Y459769D01*
X38474Y459683D01*
X38528Y459599D01*
X38585Y459517D01*
X38645Y459438D01*
X38709Y459360D01*
X38775Y459286D01*
X38844Y459214D01*
X38916Y459145D01*
X38990Y459079D01*
X39068Y459015D01*
X39147Y458955D01*
X39229Y458898D01*
X39313Y458844D01*
X39399Y458794D01*
X39487Y458747D01*
X39577Y458703D01*
X39668Y458663D01*
X39761Y458627D01*
X39855Y458594D01*
X39951Y458565D01*
X40047Y458540D01*
X40144Y458519D01*
X40243Y458501D01*
X40341Y458488D01*
X40441Y458478D01*
X40540Y458472D01*
X40640Y458470D01*
X38100Y504190D02*
X38102Y504290D01*
X38108Y504389D01*
X38118Y504489D01*
X38131Y504587D01*
X38149Y504686D01*
X38170Y504783D01*
X38195Y504879D01*
X38224Y504975D01*
X38257Y505069D01*
X38293Y505162D01*
X38333Y505253D01*
X38377Y505343D01*
X38424Y505431D01*
X38474Y505517D01*
X38528Y505601D01*
X38585Y505683D01*
X38645Y505762D01*
X38709Y505840D01*
X38775Y505914D01*
X38844Y505986D01*
X38916Y506055D01*
X38990Y506121D01*
X39068Y506185D01*
X39147Y506245D01*
X39229Y506302D01*
X39313Y506356D01*
X39399Y506406D01*
X39487Y506453D01*
X39577Y506497D01*
X39668Y506537D01*
X39761Y506573D01*
X39855Y506606D01*
X39951Y506635D01*
X40047Y506660D01*
X40144Y506681D01*
X40243Y506699D01*
X40341Y506712D01*
X40441Y506722D01*
X40540Y506728D01*
X40640Y506730D01*
X50800Y480060D02*
X50800Y478790D01*
D12*
X50800Y480060D02*
X58420Y480060D01*
X50800Y480060D02*
X43180Y480060D01*
X50800Y485140D02*
X58420Y485140D01*
X50800Y485140D02*
X43180Y485140D01*
D11*
X50800Y485140D02*
X50800Y486410D01*
X54610Y317500D02*
X97790Y317500D01*
X97790Y342900D02*
X54610Y342900D01*
X52070Y340360D02*
X52070Y320040D01*
X100330Y320040D02*
X100330Y340360D01*
X54610Y317500D02*
X54510Y317502D01*
X54411Y317508D01*
X54311Y317518D01*
X54213Y317531D01*
X54114Y317549D01*
X54017Y317570D01*
X53921Y317595D01*
X53825Y317624D01*
X53731Y317657D01*
X53638Y317693D01*
X53547Y317733D01*
X53457Y317777D01*
X53369Y317824D01*
X53283Y317874D01*
X53199Y317928D01*
X53117Y317985D01*
X53038Y318045D01*
X52960Y318109D01*
X52886Y318175D01*
X52814Y318244D01*
X52745Y318316D01*
X52679Y318390D01*
X52615Y318468D01*
X52555Y318547D01*
X52498Y318629D01*
X52444Y318713D01*
X52394Y318799D01*
X52347Y318887D01*
X52303Y318977D01*
X52263Y319068D01*
X52227Y319161D01*
X52194Y319255D01*
X52165Y319351D01*
X52140Y319447D01*
X52119Y319544D01*
X52101Y319643D01*
X52088Y319741D01*
X52078Y319841D01*
X52072Y319940D01*
X52070Y320040D01*
X97790Y317500D02*
X97890Y317502D01*
X97989Y317508D01*
X98089Y317518D01*
X98187Y317531D01*
X98286Y317549D01*
X98383Y317570D01*
X98479Y317595D01*
X98575Y317624D01*
X98669Y317657D01*
X98762Y317693D01*
X98853Y317733D01*
X98943Y317777D01*
X99031Y317824D01*
X99117Y317874D01*
X99201Y317928D01*
X99283Y317985D01*
X99362Y318045D01*
X99440Y318109D01*
X99514Y318175D01*
X99586Y318244D01*
X99655Y318316D01*
X99721Y318390D01*
X99785Y318468D01*
X99845Y318547D01*
X99902Y318629D01*
X99956Y318713D01*
X100006Y318799D01*
X100053Y318887D01*
X100097Y318977D01*
X100137Y319068D01*
X100173Y319161D01*
X100206Y319255D01*
X100235Y319351D01*
X100260Y319447D01*
X100281Y319544D01*
X100299Y319643D01*
X100312Y319741D01*
X100322Y319841D01*
X100328Y319940D01*
X100330Y320040D01*
X54610Y342900D02*
X54510Y342898D01*
X54411Y342892D01*
X54311Y342882D01*
X54213Y342869D01*
X54114Y342851D01*
X54017Y342830D01*
X53921Y342805D01*
X53825Y342776D01*
X53731Y342743D01*
X53638Y342707D01*
X53547Y342667D01*
X53457Y342623D01*
X53369Y342576D01*
X53283Y342526D01*
X53199Y342472D01*
X53117Y342415D01*
X53038Y342355D01*
X52960Y342291D01*
X52886Y342225D01*
X52814Y342156D01*
X52745Y342084D01*
X52679Y342010D01*
X52615Y341932D01*
X52555Y341853D01*
X52498Y341771D01*
X52444Y341687D01*
X52394Y341601D01*
X52347Y341513D01*
X52303Y341423D01*
X52263Y341332D01*
X52227Y341239D01*
X52194Y341145D01*
X52165Y341049D01*
X52140Y340953D01*
X52119Y340856D01*
X52101Y340757D01*
X52088Y340659D01*
X52078Y340559D01*
X52072Y340460D01*
X52070Y340360D01*
X97790Y342900D02*
X97890Y342898D01*
X97989Y342892D01*
X98089Y342882D01*
X98187Y342869D01*
X98286Y342851D01*
X98383Y342830D01*
X98479Y342805D01*
X98575Y342776D01*
X98669Y342743D01*
X98762Y342707D01*
X98853Y342667D01*
X98943Y342623D01*
X99031Y342576D01*
X99117Y342526D01*
X99201Y342472D01*
X99283Y342415D01*
X99362Y342355D01*
X99440Y342291D01*
X99514Y342225D01*
X99586Y342156D01*
X99655Y342084D01*
X99721Y342010D01*
X99785Y341932D01*
X99845Y341853D01*
X99902Y341771D01*
X99956Y341687D01*
X100006Y341601D01*
X100053Y341513D01*
X100097Y341423D01*
X100137Y341332D01*
X100173Y341239D01*
X100206Y341145D01*
X100235Y341049D01*
X100260Y340953D01*
X100281Y340856D01*
X100299Y340757D01*
X100312Y340659D01*
X100322Y340559D01*
X100328Y340460D01*
X100330Y340360D01*
X73660Y330200D02*
X72390Y330200D01*
D12*
X73660Y330200D02*
X73660Y322580D01*
X73660Y330200D02*
X73660Y337820D01*
X78740Y330200D02*
X78740Y322580D01*
X78740Y330200D02*
X78740Y337820D01*
D11*
X78740Y330200D02*
X80010Y330200D01*
X444500Y300990D02*
X444500Y257810D01*
X419100Y257810D02*
X419100Y300990D01*
X421640Y255270D02*
X441960Y255270D01*
X441960Y303530D02*
X421640Y303530D01*
X444500Y257810D02*
X444498Y257710D01*
X444492Y257611D01*
X444482Y257511D01*
X444469Y257413D01*
X444451Y257314D01*
X444430Y257217D01*
X444405Y257121D01*
X444376Y257025D01*
X444343Y256931D01*
X444307Y256838D01*
X444267Y256747D01*
X444223Y256657D01*
X444176Y256569D01*
X444126Y256483D01*
X444072Y256399D01*
X444015Y256317D01*
X443955Y256238D01*
X443891Y256160D01*
X443825Y256086D01*
X443756Y256014D01*
X443684Y255945D01*
X443610Y255879D01*
X443532Y255815D01*
X443453Y255755D01*
X443371Y255698D01*
X443287Y255644D01*
X443201Y255594D01*
X443113Y255547D01*
X443023Y255503D01*
X442932Y255463D01*
X442839Y255427D01*
X442745Y255394D01*
X442649Y255365D01*
X442553Y255340D01*
X442456Y255319D01*
X442357Y255301D01*
X442259Y255288D01*
X442159Y255278D01*
X442060Y255272D01*
X441960Y255270D01*
X444500Y300990D02*
X444498Y301090D01*
X444492Y301189D01*
X444482Y301289D01*
X444469Y301387D01*
X444451Y301486D01*
X444430Y301583D01*
X444405Y301679D01*
X444376Y301775D01*
X444343Y301869D01*
X444307Y301962D01*
X444267Y302053D01*
X444223Y302143D01*
X444176Y302231D01*
X444126Y302317D01*
X444072Y302401D01*
X444015Y302483D01*
X443955Y302562D01*
X443891Y302640D01*
X443825Y302714D01*
X443756Y302786D01*
X443684Y302855D01*
X443610Y302921D01*
X443532Y302985D01*
X443453Y303045D01*
X443371Y303102D01*
X443287Y303156D01*
X443201Y303206D01*
X443113Y303253D01*
X443023Y303297D01*
X442932Y303337D01*
X442839Y303373D01*
X442745Y303406D01*
X442649Y303435D01*
X442553Y303460D01*
X442456Y303481D01*
X442357Y303499D01*
X442259Y303512D01*
X442159Y303522D01*
X442060Y303528D01*
X441960Y303530D01*
X419100Y257810D02*
X419102Y257710D01*
X419108Y257611D01*
X419118Y257511D01*
X419131Y257413D01*
X419149Y257314D01*
X419170Y257217D01*
X419195Y257121D01*
X419224Y257025D01*
X419257Y256931D01*
X419293Y256838D01*
X419333Y256747D01*
X419377Y256657D01*
X419424Y256569D01*
X419474Y256483D01*
X419528Y256399D01*
X419585Y256317D01*
X419645Y256238D01*
X419709Y256160D01*
X419775Y256086D01*
X419844Y256014D01*
X419916Y255945D01*
X419990Y255879D01*
X420068Y255815D01*
X420147Y255755D01*
X420229Y255698D01*
X420313Y255644D01*
X420399Y255594D01*
X420487Y255547D01*
X420577Y255503D01*
X420668Y255463D01*
X420761Y255427D01*
X420855Y255394D01*
X420951Y255365D01*
X421047Y255340D01*
X421144Y255319D01*
X421243Y255301D01*
X421341Y255288D01*
X421441Y255278D01*
X421540Y255272D01*
X421640Y255270D01*
X419100Y300990D02*
X419102Y301090D01*
X419108Y301189D01*
X419118Y301289D01*
X419131Y301387D01*
X419149Y301486D01*
X419170Y301583D01*
X419195Y301679D01*
X419224Y301775D01*
X419257Y301869D01*
X419293Y301962D01*
X419333Y302053D01*
X419377Y302143D01*
X419424Y302231D01*
X419474Y302317D01*
X419528Y302401D01*
X419585Y302483D01*
X419645Y302562D01*
X419709Y302640D01*
X419775Y302714D01*
X419844Y302786D01*
X419916Y302855D01*
X419990Y302921D01*
X420068Y302985D01*
X420147Y303045D01*
X420229Y303102D01*
X420313Y303156D01*
X420399Y303206D01*
X420487Y303253D01*
X420577Y303297D01*
X420668Y303337D01*
X420761Y303373D01*
X420855Y303406D01*
X420951Y303435D01*
X421047Y303460D01*
X421144Y303481D01*
X421243Y303499D01*
X421341Y303512D01*
X421441Y303522D01*
X421540Y303528D01*
X421640Y303530D01*
X431800Y276860D02*
X431800Y275590D01*
D12*
X431800Y276860D02*
X439420Y276860D01*
X431800Y276860D02*
X424180Y276860D01*
X431800Y281940D02*
X439420Y281940D01*
X431800Y281940D02*
X424180Y281940D01*
D11*
X431800Y281940D02*
X431800Y283210D01*
D12*
X797560Y281940D02*
X916940Y281940D01*
X784860Y269240D02*
X784860Y162560D01*
X797560Y149860D02*
X904240Y149860D01*
X916940Y162560D02*
X916940Y281940D01*
D11*
X904240Y275590D02*
X797560Y275590D01*
X791210Y269240D02*
X791210Y162560D01*
X797560Y156210D02*
X904240Y156210D01*
X910590Y162560D02*
X910590Y269240D01*
D12*
X797560Y281940D02*
X797253Y281936D01*
X796946Y281925D01*
X796640Y281907D01*
X796334Y281881D01*
X796029Y281847D01*
X795725Y281807D01*
X795422Y281759D01*
X795120Y281703D01*
X794820Y281641D01*
X794521Y281571D01*
X794224Y281494D01*
X793928Y281410D01*
X793635Y281318D01*
X793345Y281220D01*
X793057Y281115D01*
X792771Y281002D01*
X792488Y280883D01*
X792208Y280757D01*
X791931Y280625D01*
X791658Y280485D01*
X791388Y280339D01*
X791122Y280187D01*
X790859Y280028D01*
X790600Y279863D01*
X790346Y279692D01*
X790095Y279515D01*
X789849Y279331D01*
X789607Y279142D01*
X789371Y278947D01*
X789138Y278746D01*
X788911Y278540D01*
X788689Y278328D01*
X788472Y278111D01*
X788260Y277889D01*
X788054Y277662D01*
X787853Y277429D01*
X787658Y277193D01*
X787469Y276951D01*
X787285Y276705D01*
X787108Y276454D01*
X786937Y276200D01*
X786772Y275941D01*
X786613Y275678D01*
X786461Y275412D01*
X786315Y275142D01*
X786175Y274869D01*
X786043Y274592D01*
X785917Y274312D01*
X785798Y274029D01*
X785685Y273743D01*
X785580Y273455D01*
X785482Y273165D01*
X785390Y272872D01*
X785306Y272576D01*
X785229Y272279D01*
X785159Y271980D01*
X785097Y271680D01*
X785041Y271378D01*
X784993Y271075D01*
X784953Y270771D01*
X784919Y270466D01*
X784893Y270160D01*
X784875Y269854D01*
X784864Y269547D01*
X784860Y269240D01*
D11*
X791210Y269240D02*
X791212Y269398D01*
X791218Y269557D01*
X791228Y269715D01*
X791242Y269872D01*
X791259Y270030D01*
X791281Y270186D01*
X791306Y270343D01*
X791336Y270498D01*
X791369Y270653D01*
X791406Y270807D01*
X791447Y270960D01*
X791492Y271112D01*
X791541Y271262D01*
X791593Y271412D01*
X791649Y271560D01*
X791709Y271707D01*
X791772Y271852D01*
X791839Y271995D01*
X791909Y272137D01*
X791983Y272277D01*
X792061Y272415D01*
X792142Y272551D01*
X792226Y272685D01*
X792313Y272817D01*
X792404Y272947D01*
X792498Y273074D01*
X792595Y273199D01*
X792696Y273322D01*
X792799Y273442D01*
X792905Y273559D01*
X793014Y273674D01*
X793126Y273786D01*
X793241Y273895D01*
X793358Y274001D01*
X793478Y274104D01*
X793601Y274205D01*
X793726Y274302D01*
X793853Y274396D01*
X793983Y274487D01*
X794115Y274574D01*
X794249Y274658D01*
X794385Y274739D01*
X794523Y274817D01*
X794663Y274891D01*
X794805Y274961D01*
X794948Y275028D01*
X795093Y275091D01*
X795240Y275151D01*
X795388Y275207D01*
X795538Y275259D01*
X795688Y275308D01*
X795840Y275353D01*
X795993Y275394D01*
X796147Y275431D01*
X796302Y275464D01*
X796457Y275494D01*
X796614Y275519D01*
X796770Y275541D01*
X796928Y275558D01*
X797085Y275572D01*
X797243Y275582D01*
X797402Y275588D01*
X797560Y275590D01*
X791210Y162560D02*
X791212Y162402D01*
X791218Y162243D01*
X791228Y162085D01*
X791242Y161928D01*
X791259Y161770D01*
X791281Y161614D01*
X791306Y161457D01*
X791336Y161302D01*
X791369Y161147D01*
X791406Y160993D01*
X791447Y160840D01*
X791492Y160688D01*
X791541Y160538D01*
X791593Y160388D01*
X791649Y160240D01*
X791709Y160093D01*
X791772Y159948D01*
X791839Y159805D01*
X791909Y159663D01*
X791983Y159523D01*
X792061Y159385D01*
X792142Y159249D01*
X792226Y159115D01*
X792313Y158983D01*
X792404Y158853D01*
X792498Y158726D01*
X792595Y158601D01*
X792696Y158478D01*
X792799Y158358D01*
X792905Y158241D01*
X793014Y158126D01*
X793126Y158014D01*
X793241Y157905D01*
X793358Y157799D01*
X793478Y157696D01*
X793601Y157595D01*
X793726Y157498D01*
X793853Y157404D01*
X793983Y157313D01*
X794115Y157226D01*
X794249Y157142D01*
X794385Y157061D01*
X794523Y156983D01*
X794663Y156909D01*
X794805Y156839D01*
X794948Y156772D01*
X795093Y156709D01*
X795240Y156649D01*
X795388Y156593D01*
X795538Y156541D01*
X795688Y156492D01*
X795840Y156447D01*
X795993Y156406D01*
X796147Y156369D01*
X796302Y156336D01*
X796457Y156306D01*
X796614Y156281D01*
X796770Y156259D01*
X796928Y156242D01*
X797085Y156228D01*
X797243Y156218D01*
X797402Y156212D01*
X797560Y156210D01*
D12*
X797560Y149860D02*
X797253Y149864D01*
X796946Y149875D01*
X796640Y149893D01*
X796334Y149919D01*
X796029Y149953D01*
X795725Y149993D01*
X795422Y150041D01*
X795120Y150097D01*
X794820Y150159D01*
X794521Y150229D01*
X794224Y150306D01*
X793928Y150390D01*
X793635Y150482D01*
X793345Y150580D01*
X793057Y150685D01*
X792771Y150798D01*
X792488Y150917D01*
X792208Y151043D01*
X791931Y151175D01*
X791658Y151315D01*
X791388Y151461D01*
X791122Y151613D01*
X790859Y151772D01*
X790600Y151937D01*
X790346Y152108D01*
X790095Y152285D01*
X789849Y152469D01*
X789607Y152658D01*
X789371Y152853D01*
X789138Y153054D01*
X788911Y153260D01*
X788689Y153472D01*
X788472Y153689D01*
X788260Y153911D01*
X788054Y154138D01*
X787853Y154371D01*
X787658Y154607D01*
X787469Y154849D01*
X787285Y155095D01*
X787108Y155346D01*
X786937Y155600D01*
X786772Y155859D01*
X786613Y156122D01*
X786461Y156388D01*
X786315Y156658D01*
X786175Y156931D01*
X786043Y157208D01*
X785917Y157488D01*
X785798Y157771D01*
X785685Y158057D01*
X785580Y158345D01*
X785482Y158635D01*
X785390Y158928D01*
X785306Y159224D01*
X785229Y159521D01*
X785159Y159820D01*
X785097Y160120D01*
X785041Y160422D01*
X784993Y160725D01*
X784953Y161029D01*
X784919Y161334D01*
X784893Y161640D01*
X784875Y161946D01*
X784864Y162253D01*
X784860Y162560D01*
D11*
X904240Y156210D02*
X904398Y156212D01*
X904557Y156218D01*
X904715Y156228D01*
X904872Y156242D01*
X905030Y156259D01*
X905186Y156281D01*
X905343Y156306D01*
X905498Y156336D01*
X905653Y156369D01*
X905807Y156406D01*
X905960Y156447D01*
X906112Y156492D01*
X906262Y156541D01*
X906412Y156593D01*
X906560Y156649D01*
X906707Y156709D01*
X906852Y156772D01*
X906995Y156839D01*
X907137Y156909D01*
X907277Y156983D01*
X907415Y157061D01*
X907551Y157142D01*
X907685Y157226D01*
X907817Y157313D01*
X907947Y157404D01*
X908074Y157498D01*
X908199Y157595D01*
X908322Y157696D01*
X908442Y157799D01*
X908559Y157905D01*
X908674Y158014D01*
X908786Y158126D01*
X908895Y158241D01*
X909001Y158358D01*
X909104Y158478D01*
X909205Y158601D01*
X909302Y158726D01*
X909396Y158853D01*
X909487Y158983D01*
X909574Y159115D01*
X909658Y159249D01*
X909739Y159385D01*
X909817Y159523D01*
X909891Y159663D01*
X909961Y159805D01*
X910028Y159948D01*
X910091Y160093D01*
X910151Y160240D01*
X910207Y160388D01*
X910259Y160538D01*
X910308Y160688D01*
X910353Y160840D01*
X910394Y160993D01*
X910431Y161147D01*
X910464Y161302D01*
X910494Y161457D01*
X910519Y161614D01*
X910541Y161770D01*
X910558Y161928D01*
X910572Y162085D01*
X910582Y162243D01*
X910588Y162402D01*
X910590Y162560D01*
D12*
X916940Y162560D02*
X916936Y162253D01*
X916925Y161946D01*
X916907Y161640D01*
X916881Y161334D01*
X916847Y161029D01*
X916807Y160725D01*
X916759Y160422D01*
X916703Y160120D01*
X916641Y159820D01*
X916571Y159521D01*
X916494Y159224D01*
X916410Y158928D01*
X916318Y158635D01*
X916220Y158345D01*
X916115Y158057D01*
X916002Y157771D01*
X915883Y157488D01*
X915757Y157208D01*
X915625Y156931D01*
X915485Y156658D01*
X915339Y156388D01*
X915187Y156122D01*
X915028Y155859D01*
X914863Y155600D01*
X914692Y155346D01*
X914515Y155095D01*
X914331Y154849D01*
X914142Y154607D01*
X913947Y154371D01*
X913746Y154138D01*
X913540Y153911D01*
X913328Y153689D01*
X913111Y153472D01*
X912889Y153260D01*
X912662Y153054D01*
X912429Y152853D01*
X912193Y152658D01*
X911951Y152469D01*
X911705Y152285D01*
X911454Y152108D01*
X911200Y151937D01*
X910941Y151772D01*
X910678Y151613D01*
X910412Y151461D01*
X910142Y151315D01*
X909869Y151175D01*
X909592Y151043D01*
X909312Y150917D01*
X909029Y150798D01*
X908743Y150685D01*
X908455Y150580D01*
X908165Y150482D01*
X907872Y150390D01*
X907576Y150306D01*
X907279Y150229D01*
X906980Y150159D01*
X906680Y150097D01*
X906378Y150041D01*
X906075Y149993D01*
X905771Y149953D01*
X905466Y149919D01*
X905160Y149893D01*
X904854Y149875D01*
X904547Y149864D01*
X904240Y149860D01*
D11*
X910590Y269240D02*
X910588Y269398D01*
X910582Y269557D01*
X910572Y269715D01*
X910558Y269872D01*
X910541Y270030D01*
X910519Y270186D01*
X910494Y270343D01*
X910464Y270498D01*
X910431Y270653D01*
X910394Y270807D01*
X910353Y270960D01*
X910308Y271112D01*
X910259Y271262D01*
X910207Y271412D01*
X910151Y271560D01*
X910091Y271707D01*
X910028Y271852D01*
X909961Y271995D01*
X909891Y272137D01*
X909817Y272277D01*
X909739Y272415D01*
X909658Y272551D01*
X909574Y272685D01*
X909487Y272817D01*
X909396Y272947D01*
X909302Y273074D01*
X909205Y273199D01*
X909104Y273322D01*
X909001Y273442D01*
X908895Y273559D01*
X908786Y273674D01*
X908674Y273786D01*
X908559Y273895D01*
X908442Y274001D01*
X908322Y274104D01*
X908199Y274205D01*
X908074Y274302D01*
X907947Y274396D01*
X907817Y274487D01*
X907685Y274574D01*
X907551Y274658D01*
X907415Y274739D01*
X907277Y274817D01*
X907137Y274891D01*
X906995Y274961D01*
X906852Y275028D01*
X906707Y275091D01*
X906560Y275151D01*
X906412Y275207D01*
X906262Y275259D01*
X906112Y275308D01*
X905960Y275353D01*
X905807Y275394D01*
X905653Y275431D01*
X905498Y275464D01*
X905343Y275494D01*
X905186Y275519D01*
X905030Y275541D01*
X904872Y275558D01*
X904715Y275572D01*
X904557Y275582D01*
X904398Y275588D01*
X904240Y275590D01*
D13*
X854202Y190500D02*
X854202Y165100D01*
X854202Y190500D02*
X847852Y190500D01*
X847852Y165100D01*
X854202Y165100D01*
X841502Y165100D02*
X841502Y177800D01*
X860298Y177800D02*
X860298Y165100D01*
D11*
X841502Y177800D02*
X825500Y177800D01*
D13*
X841502Y177800D02*
X841502Y190500D01*
D11*
X860298Y177800D02*
X876300Y177800D01*
D13*
X860298Y177800D02*
X860298Y190500D01*
D14*
X867781Y268612D02*
X871594Y272425D01*
X871594Y260985D01*
X867781Y260985D02*
X875408Y260985D01*
X878947Y144409D02*
X878947Y134876D01*
X880854Y132969D01*
X884667Y132969D01*
X886574Y134876D01*
X886574Y144409D01*
X890641Y142502D02*
X892548Y144409D01*
X896361Y144409D01*
X898268Y142502D01*
X898268Y140596D01*
X896361Y138689D01*
X898268Y136782D01*
X898268Y134876D01*
X896361Y132969D01*
X892548Y132969D01*
X890641Y134876D01*
X890641Y136782D01*
X892548Y138689D01*
X890641Y140596D01*
X890641Y142502D01*
X892548Y138689D02*
X896361Y138689D01*
X810563Y209423D02*
X802936Y209423D01*
X810563Y217050D01*
X810563Y218956D01*
X808656Y220863D01*
X804843Y220863D01*
X802936Y218956D01*
X814630Y211330D02*
X814630Y209423D01*
X814630Y211330D02*
X816537Y211330D01*
X816537Y209423D01*
X814630Y209423D01*
X826197Y209423D02*
X826197Y220863D01*
X820477Y215143D01*
X828104Y215143D01*
X832171Y220863D02*
X839797Y220863D01*
X832171Y220863D02*
X832171Y215143D01*
X835984Y217050D01*
X837891Y217050D01*
X839797Y215143D01*
X839797Y211330D01*
X837891Y209423D01*
X834078Y209423D01*
X832171Y211330D01*
X843865Y220863D02*
X851491Y220863D01*
X851491Y218956D01*
X843865Y211330D01*
X843865Y209423D01*
X859372Y218956D02*
X863185Y220863D01*
X859372Y218956D02*
X855559Y215143D01*
X855559Y211330D01*
X857466Y209423D01*
X861279Y209423D01*
X863185Y211330D01*
X863185Y213236D01*
X861279Y215143D01*
X855559Y215143D01*
X867253Y209423D02*
X867253Y220863D01*
X871066Y217050D01*
X874879Y220863D01*
X874879Y209423D01*
X878947Y209423D02*
X878947Y220863D01*
X878947Y215143D02*
X886573Y215143D01*
X886573Y220863D02*
X886573Y209423D01*
X890641Y217050D02*
X898267Y217050D01*
X890641Y209423D01*
X898267Y209423D01*
D11*
X709930Y63500D02*
X707390Y63500D01*
X709930Y63500D02*
X709930Y60960D01*
X709930Y63500D02*
X712470Y63500D01*
X709930Y63500D02*
X709930Y66040D01*
X698500Y50800D02*
X698508Y51423D01*
X698531Y52046D01*
X698569Y52669D01*
X698622Y53290D01*
X698691Y53909D01*
X698775Y54527D01*
X698874Y55142D01*
X698988Y55755D01*
X699117Y56365D01*
X699261Y56972D01*
X699420Y57575D01*
X699594Y58173D01*
X699782Y58768D01*
X699985Y59357D01*
X700202Y59941D01*
X700433Y60520D01*
X700679Y61093D01*
X700939Y61660D01*
X701212Y62220D01*
X701499Y62773D01*
X701800Y63320D01*
X702114Y63858D01*
X702441Y64389D01*
X702781Y64911D01*
X703133Y65426D01*
X703499Y65931D01*
X703876Y66427D01*
X704266Y66914D01*
X704667Y67391D01*
X705080Y67858D01*
X705504Y68314D01*
X705939Y68761D01*
X706386Y69196D01*
X706842Y69620D01*
X707309Y70033D01*
X707786Y70434D01*
X708273Y70824D01*
X708769Y71201D01*
X709274Y71567D01*
X709789Y71919D01*
X710311Y72259D01*
X710842Y72586D01*
X711380Y72900D01*
X711927Y73201D01*
X712480Y73488D01*
X713040Y73761D01*
X713607Y74021D01*
X714180Y74267D01*
X714759Y74498D01*
X715343Y74715D01*
X715932Y74918D01*
X716527Y75106D01*
X717125Y75280D01*
X717728Y75439D01*
X718335Y75583D01*
X718945Y75712D01*
X719558Y75826D01*
X720173Y75925D01*
X720791Y76009D01*
X721410Y76078D01*
X722031Y76131D01*
X722654Y76169D01*
X723277Y76192D01*
X723900Y76200D01*
X724523Y76192D01*
X725146Y76169D01*
X725769Y76131D01*
X726390Y76078D01*
X727009Y76009D01*
X727627Y75925D01*
X728242Y75826D01*
X728855Y75712D01*
X729465Y75583D01*
X730072Y75439D01*
X730675Y75280D01*
X731273Y75106D01*
X731868Y74918D01*
X732457Y74715D01*
X733041Y74498D01*
X733620Y74267D01*
X734193Y74021D01*
X734760Y73761D01*
X735320Y73488D01*
X735873Y73201D01*
X736420Y72900D01*
X736958Y72586D01*
X737489Y72259D01*
X738011Y71919D01*
X738526Y71567D01*
X739031Y71201D01*
X739527Y70824D01*
X740014Y70434D01*
X740491Y70033D01*
X740958Y69620D01*
X741414Y69196D01*
X741861Y68761D01*
X742296Y68314D01*
X742720Y67858D01*
X743133Y67391D01*
X743534Y66914D01*
X743924Y66427D01*
X744301Y65931D01*
X744667Y65426D01*
X745019Y64911D01*
X745359Y64389D01*
X745686Y63858D01*
X746000Y63320D01*
X746301Y62773D01*
X746588Y62220D01*
X746861Y61660D01*
X747121Y61093D01*
X747367Y60520D01*
X747598Y59941D01*
X747815Y59357D01*
X748018Y58768D01*
X748206Y58173D01*
X748380Y57575D01*
X748539Y56972D01*
X748683Y56365D01*
X748812Y55755D01*
X748926Y55142D01*
X749025Y54527D01*
X749109Y53909D01*
X749178Y53290D01*
X749231Y52669D01*
X749269Y52046D01*
X749292Y51423D01*
X749300Y50800D01*
X749292Y50177D01*
X749269Y49554D01*
X749231Y48931D01*
X749178Y48310D01*
X749109Y47691D01*
X749025Y47073D01*
X748926Y46458D01*
X748812Y45845D01*
X748683Y45235D01*
X748539Y44628D01*
X748380Y44025D01*
X748206Y43427D01*
X748018Y42832D01*
X747815Y42243D01*
X747598Y41659D01*
X747367Y41080D01*
X747121Y40507D01*
X746861Y39940D01*
X746588Y39380D01*
X746301Y38827D01*
X746000Y38280D01*
X745686Y37742D01*
X745359Y37211D01*
X745019Y36689D01*
X744667Y36174D01*
X744301Y35669D01*
X743924Y35173D01*
X743534Y34686D01*
X743133Y34209D01*
X742720Y33742D01*
X742296Y33286D01*
X741861Y32839D01*
X741414Y32404D01*
X740958Y31980D01*
X740491Y31567D01*
X740014Y31166D01*
X739527Y30776D01*
X739031Y30399D01*
X738526Y30033D01*
X738011Y29681D01*
X737489Y29341D01*
X736958Y29014D01*
X736420Y28700D01*
X735873Y28399D01*
X735320Y28112D01*
X734760Y27839D01*
X734193Y27579D01*
X733620Y27333D01*
X733041Y27102D01*
X732457Y26885D01*
X731868Y26682D01*
X731273Y26494D01*
X730675Y26320D01*
X730072Y26161D01*
X729465Y26017D01*
X728855Y25888D01*
X728242Y25774D01*
X727627Y25675D01*
X727009Y25591D01*
X726390Y25522D01*
X725769Y25469D01*
X725146Y25431D01*
X724523Y25408D01*
X723900Y25400D01*
X723277Y25408D01*
X722654Y25431D01*
X722031Y25469D01*
X721410Y25522D01*
X720791Y25591D01*
X720173Y25675D01*
X719558Y25774D01*
X718945Y25888D01*
X718335Y26017D01*
X717728Y26161D01*
X717125Y26320D01*
X716527Y26494D01*
X715932Y26682D01*
X715343Y26885D01*
X714759Y27102D01*
X714180Y27333D01*
X713607Y27579D01*
X713040Y27839D01*
X712480Y28112D01*
X711927Y28399D01*
X711380Y28700D01*
X710842Y29014D01*
X710311Y29341D01*
X709789Y29681D01*
X709274Y30033D01*
X708769Y30399D01*
X708273Y30776D01*
X707786Y31166D01*
X707309Y31567D01*
X706842Y31980D01*
X706386Y32404D01*
X705939Y32839D01*
X705504Y33286D01*
X705080Y33742D01*
X704667Y34209D01*
X704266Y34686D01*
X703876Y35173D01*
X703499Y35669D01*
X703133Y36174D01*
X702781Y36689D01*
X702441Y37211D01*
X702114Y37742D01*
X701800Y38280D01*
X701499Y38827D01*
X701212Y39380D01*
X700939Y39940D01*
X700679Y40507D01*
X700433Y41080D01*
X700202Y41659D01*
X699985Y42243D01*
X699782Y42832D01*
X699594Y43427D01*
X699420Y44025D01*
X699261Y44628D01*
X699117Y45235D01*
X698988Y45845D01*
X698874Y46458D01*
X698775Y47073D01*
X698691Y47691D01*
X698622Y48310D01*
X698569Y48931D01*
X698531Y49554D01*
X698508Y50177D01*
X698500Y50800D01*
D14*
X754385Y75575D02*
X756292Y73668D01*
X754385Y75575D02*
X750572Y75575D01*
X748665Y73668D01*
X748665Y66042D01*
X750572Y64135D01*
X754385Y64135D01*
X756292Y66042D01*
X764172Y73668D02*
X767985Y75575D01*
X764172Y73668D02*
X760359Y69855D01*
X760359Y66042D01*
X762266Y64135D01*
X766079Y64135D01*
X767985Y66042D01*
X767985Y67948D01*
X766079Y69855D01*
X760359Y69855D01*
X752478Y38745D02*
X748665Y34932D01*
X752478Y38745D02*
X752478Y27305D01*
X748665Y27305D02*
X756292Y27305D01*
X760359Y29212D02*
X760359Y36838D01*
X762266Y38745D01*
X766079Y38745D01*
X767985Y36838D01*
X767985Y29212D01*
X766079Y27305D01*
X762266Y27305D01*
X760359Y29212D01*
X767985Y36838D01*
X772053Y36838D02*
X772053Y29212D01*
X772053Y36838D02*
X773960Y38745D01*
X777773Y38745D01*
X779679Y36838D01*
X779679Y29212D01*
X777773Y27305D01*
X773960Y27305D01*
X772053Y29212D01*
X779679Y36838D01*
X783747Y34932D02*
X783747Y29212D01*
X785654Y27305D01*
X791373Y27305D01*
X791373Y34932D01*
X795441Y38745D02*
X795441Y27305D01*
X795441Y38745D02*
X803067Y38745D01*
X799254Y33025D02*
X795441Y33025D01*
D11*
X39370Y149860D02*
X39370Y203200D01*
X39679Y203204D01*
X39988Y203215D01*
X40297Y203234D01*
X40605Y203260D01*
X40913Y203294D01*
X41219Y203335D01*
X41525Y203384D01*
X41829Y203440D01*
X42131Y203504D01*
X42432Y203575D01*
X42732Y203653D01*
X43029Y203738D01*
X43324Y203831D01*
X43617Y203931D01*
X43907Y204038D01*
X44194Y204152D01*
X44479Y204273D01*
X44761Y204401D01*
X45039Y204535D01*
X45314Y204677D01*
X45586Y204825D01*
X45853Y204980D01*
X46117Y205141D01*
X46377Y205308D01*
X46633Y205482D01*
X46885Y205662D01*
X47132Y205848D01*
X47374Y206040D01*
X47612Y206238D01*
X47845Y206441D01*
X48073Y206651D01*
X48295Y206865D01*
X48513Y207085D01*
X48725Y207311D01*
X48931Y207541D01*
X49132Y207776D01*
X49327Y208016D01*
X49516Y208261D01*
X49699Y208510D01*
X49876Y208764D01*
X50046Y209022D01*
X50211Y209284D01*
X50369Y209550D01*
X50520Y209820D01*
X50665Y210093D01*
X50803Y210370D01*
X50934Y210650D01*
X51058Y210933D01*
X51176Y211219D01*
X51286Y211508D01*
X51390Y211799D01*
X51486Y212093D01*
X51575Y212389D01*
X51657Y212688D01*
X51732Y212988D01*
X51799Y213290D01*
X51859Y213593D01*
X51911Y213898D01*
X51956Y214204D01*
X51994Y214511D01*
X52024Y214819D01*
X52046Y215127D01*
X52062Y215436D01*
X52069Y215745D01*
X52069Y216055D01*
X52062Y216364D01*
X52046Y216673D01*
X52024Y216981D01*
X51994Y217289D01*
X51956Y217596D01*
X51911Y217902D01*
X51859Y218207D01*
X51799Y218510D01*
X51732Y218812D01*
X51657Y219112D01*
X51575Y219411D01*
X51486Y219707D01*
X51390Y220001D01*
X51286Y220292D01*
X51176Y220581D01*
X51058Y220867D01*
X50934Y221150D01*
X50803Y221430D01*
X50665Y221707D01*
X50520Y221980D01*
X50369Y222250D01*
X50211Y222516D01*
X50046Y222778D01*
X49876Y223036D01*
X49699Y223290D01*
X49516Y223539D01*
X49327Y223784D01*
X49132Y224024D01*
X48931Y224259D01*
X48725Y224489D01*
X48513Y224715D01*
X48295Y224935D01*
X48073Y225149D01*
X47845Y225359D01*
X47612Y225562D01*
X47374Y225760D01*
X47132Y225952D01*
X46885Y226138D01*
X46633Y226318D01*
X46377Y226492D01*
X46117Y226659D01*
X45853Y226820D01*
X45586Y226975D01*
X45314Y227123D01*
X45039Y227265D01*
X44761Y227399D01*
X44479Y227527D01*
X44194Y227648D01*
X43907Y227762D01*
X43617Y227869D01*
X43324Y227969D01*
X43029Y228062D01*
X42732Y228147D01*
X42432Y228225D01*
X42131Y228296D01*
X41829Y228360D01*
X41525Y228416D01*
X41219Y228465D01*
X40913Y228506D01*
X40605Y228540D01*
X40297Y228566D01*
X39988Y228585D01*
X39679Y228596D01*
X39370Y228600D01*
X392430Y281940D02*
X392430Y149860D01*
X39370Y228600D02*
X39370Y281940D01*
X392430Y281940D01*
X392430Y149860D02*
X39370Y149860D01*
D15*
X37211Y153289D02*
X37211Y158628D01*
X37211Y155958D02*
X21195Y155958D01*
X21195Y153289D02*
X21195Y158628D01*
X21195Y172211D02*
X23865Y174881D01*
X21195Y172211D02*
X21195Y166873D01*
X23865Y164203D01*
X34542Y164203D01*
X37211Y166873D01*
X37211Y172211D01*
X34542Y174881D01*
X26534Y180575D02*
X21195Y185914D01*
X37211Y185914D01*
X37211Y191252D02*
X37211Y180575D01*
X70739Y220737D02*
X73408Y223407D01*
X78747Y223407D01*
X81416Y220737D01*
X81416Y218068D01*
X78747Y215399D01*
X81416Y212730D01*
X81416Y210060D01*
X78747Y207391D01*
X73408Y207391D01*
X70739Y210060D01*
X70739Y212730D01*
X73408Y215399D01*
X70739Y218068D01*
X70739Y220737D01*
X73408Y215399D02*
X78747Y215399D01*
X87111Y207391D02*
X97788Y207391D01*
X87111Y207391D02*
X97788Y218068D01*
X97788Y220737D01*
X95118Y223407D01*
X89780Y223407D01*
X87111Y220737D01*
X103482Y223407D02*
X114159Y223407D01*
X103482Y223407D02*
X103482Y215399D01*
X108821Y218068D01*
X111490Y218068D01*
X114159Y215399D01*
X114159Y210060D01*
X111490Y207391D01*
X106151Y207391D01*
X103482Y210060D01*
X119854Y218068D02*
X125192Y223407D01*
X125192Y207391D01*
X119854Y207391D02*
X130531Y207391D01*
X136225Y207391D02*
X136225Y218068D01*
X141564Y223407D01*
X146902Y218068D01*
X146902Y207391D01*
X146902Y215399D02*
X136225Y215399D01*
D11*
X114300Y334010D02*
X114300Y377190D01*
X135890Y381000D02*
X139700Y377190D01*
X143510Y381000D01*
X161290Y381000D01*
X165100Y377190D01*
X168910Y381000D01*
X186690Y381000D01*
X190500Y377190D01*
X190500Y334010D02*
X186690Y330200D01*
X168910Y330200D01*
X165100Y334010D01*
X161290Y330200D01*
X143510Y330200D01*
X139700Y334010D01*
X135890Y330200D01*
X190500Y377190D02*
X194310Y381000D01*
X212090Y381000D01*
X215900Y377190D01*
X219710Y381000D01*
X237490Y381000D01*
X241300Y377190D01*
X194310Y330200D02*
X190500Y334010D01*
X194310Y330200D02*
X212090Y330200D01*
X215900Y334010D02*
X219710Y330200D01*
X215900Y334010D02*
X212090Y330200D01*
X219710Y330200D02*
X237490Y330200D01*
X241300Y334010D01*
X118110Y330200D02*
X114300Y334010D01*
X118110Y330200D02*
X135890Y330200D01*
X114300Y377190D02*
X118110Y381000D01*
X135890Y381000D01*
X368300Y377190D02*
X368300Y334010D01*
X368300Y377190D02*
X364490Y381000D01*
X368300Y334010D02*
X364490Y330200D01*
X342900Y334010D02*
X339090Y330200D01*
X317500Y334010D02*
X313690Y330200D01*
X292100Y334010D02*
X288290Y330200D01*
X266700Y334010D02*
X262890Y330200D01*
X339090Y381000D02*
X342900Y377190D01*
X317500Y377190D02*
X313690Y381000D01*
X292100Y377190D02*
X288290Y381000D01*
X266700Y377190D02*
X262890Y381000D01*
X245110Y381000D02*
X241300Y377190D01*
X266700Y377190D02*
X270510Y381000D01*
X292100Y377190D02*
X295910Y381000D01*
X317500Y377190D02*
X321310Y381000D01*
X342900Y377190D02*
X346710Y381000D01*
X245110Y330200D02*
X241300Y334010D01*
X266700Y334010D02*
X270510Y330200D01*
X292100Y334010D02*
X295910Y330200D01*
X317500Y334010D02*
X321310Y330200D01*
X342900Y334010D02*
X346710Y330200D01*
X262890Y381000D02*
X245110Y381000D01*
X270510Y381000D02*
X288290Y381000D01*
X295910Y381000D02*
X313690Y381000D01*
X321310Y381000D02*
X339090Y381000D01*
X346710Y381000D02*
X364490Y381000D01*
X262890Y330200D02*
X245110Y330200D01*
X270510Y330200D02*
X288290Y330200D01*
X295910Y330200D02*
X313690Y330200D01*
X321310Y330200D02*
X339090Y330200D01*
X346710Y330200D02*
X364490Y330200D01*
D14*
X126368Y325765D02*
X122555Y321952D01*
X126368Y325765D02*
X126368Y314325D01*
X122555Y314325D02*
X130182Y314325D01*
X147955Y314325D02*
X155582Y314325D01*
X147955Y314325D02*
X155582Y321952D01*
X155582Y323858D01*
X153675Y325765D01*
X149862Y325765D01*
X147955Y323858D01*
X173355Y323858D02*
X175262Y325765D01*
X179075Y325765D01*
X180982Y323858D01*
X180982Y321952D01*
X179075Y320045D01*
X177168Y320045D01*
X179075Y320045D02*
X180982Y318138D01*
X180982Y316232D01*
X179075Y314325D01*
X175262Y314325D01*
X173355Y316232D01*
X204475Y314325D02*
X204475Y325765D01*
X198755Y320045D01*
X206382Y320045D01*
X224155Y325765D02*
X231782Y325765D01*
X224155Y325765D02*
X224155Y320045D01*
X227968Y321952D01*
X229875Y321952D01*
X231782Y320045D01*
X231782Y316232D01*
X229875Y314325D01*
X226062Y314325D01*
X224155Y316232D01*
X253368Y323858D02*
X257182Y325765D01*
X253368Y323858D02*
X249555Y320045D01*
X249555Y316232D01*
X251462Y314325D01*
X255275Y314325D01*
X257182Y316232D01*
X257182Y318138D01*
X255275Y320045D01*
X249555Y320045D01*
X274955Y325765D02*
X282582Y325765D01*
X282582Y323858D01*
X274955Y316232D01*
X274955Y314325D01*
X300355Y323858D02*
X302262Y325765D01*
X306075Y325765D01*
X307982Y323858D01*
X307982Y321952D01*
X306075Y320045D01*
X307982Y318138D01*
X307982Y316232D01*
X306075Y314325D01*
X302262Y314325D01*
X300355Y316232D01*
X300355Y318138D01*
X302262Y320045D01*
X300355Y321952D01*
X300355Y323858D01*
X302262Y320045D02*
X306075Y320045D01*
X325755Y316232D02*
X327662Y314325D01*
X331475Y314325D01*
X333382Y316232D01*
X333382Y323858D01*
X331475Y325765D01*
X327662Y325765D01*
X325755Y323858D01*
X325755Y321952D01*
X327662Y320045D01*
X333382Y320045D01*
X344805Y321952D02*
X348618Y325765D01*
X348618Y314325D01*
X344805Y314325D02*
X352432Y314325D01*
X356499Y316232D02*
X356499Y323858D01*
X358406Y325765D01*
X362219Y325765D01*
X364125Y323858D01*
X364125Y316232D01*
X362219Y314325D01*
X358406Y314325D01*
X356499Y316232D01*
X364125Y323858D01*
X116842Y384175D02*
X114935Y386082D01*
X116842Y384175D02*
X118748Y384175D01*
X120655Y386082D01*
X120655Y395615D01*
X118748Y395615D02*
X122562Y395615D01*
X126629Y395615D02*
X126629Y384175D01*
X126629Y395615D02*
X132349Y395615D01*
X134255Y393708D01*
X134255Y389895D01*
X132349Y387988D01*
X126629Y387988D01*
X138323Y391802D02*
X142136Y395615D01*
X142136Y384175D01*
X138323Y384175D02*
X145949Y384175D01*
D11*
X63500Y486410D02*
X266700Y486410D01*
X266700Y427990D02*
X63500Y427990D01*
X266700Y427990D02*
X266700Y486410D01*
X63500Y486410D02*
X63500Y467360D01*
X63500Y447040D02*
X63500Y427990D01*
X63500Y447040D02*
X63747Y447043D01*
X63995Y447052D01*
X64242Y447067D01*
X64488Y447088D01*
X64734Y447115D01*
X64979Y447148D01*
X65224Y447187D01*
X65467Y447232D01*
X65709Y447283D01*
X65950Y447340D01*
X66189Y447402D01*
X66427Y447471D01*
X66663Y447545D01*
X66897Y447625D01*
X67129Y447710D01*
X67359Y447802D01*
X67587Y447898D01*
X67812Y448001D01*
X68035Y448108D01*
X68255Y448222D01*
X68472Y448340D01*
X68687Y448464D01*
X68898Y448593D01*
X69106Y448727D01*
X69311Y448866D01*
X69512Y449010D01*
X69710Y449158D01*
X69904Y449312D01*
X70094Y449470D01*
X70280Y449633D01*
X70462Y449800D01*
X70640Y449972D01*
X70814Y450148D01*
X70984Y450328D01*
X71149Y450513D01*
X71309Y450701D01*
X71465Y450893D01*
X71617Y451089D01*
X71763Y451288D01*
X71905Y451491D01*
X72041Y451698D01*
X72173Y451907D01*
X72299Y452120D01*
X72420Y452336D01*
X72536Y452554D01*
X72646Y452776D01*
X72751Y453000D01*
X72851Y453226D01*
X72945Y453455D01*
X73033Y453686D01*
X73116Y453920D01*
X73193Y454155D01*
X73264Y454392D01*
X73330Y454630D01*
X73389Y454870D01*
X73443Y455112D01*
X73491Y455355D01*
X73533Y455598D01*
X73569Y455843D01*
X73599Y456089D01*
X73623Y456335D01*
X73641Y456582D01*
X73653Y456829D01*
X73659Y457076D01*
X73659Y457324D01*
X73653Y457571D01*
X73641Y457818D01*
X73623Y458065D01*
X73599Y458311D01*
X73569Y458557D01*
X73533Y458802D01*
X73491Y459045D01*
X73443Y459288D01*
X73389Y459530D01*
X73330Y459770D01*
X73264Y460008D01*
X73193Y460245D01*
X73116Y460480D01*
X73033Y460714D01*
X72945Y460945D01*
X72851Y461174D01*
X72751Y461400D01*
X72646Y461624D01*
X72536Y461846D01*
X72420Y462064D01*
X72299Y462280D01*
X72173Y462493D01*
X72041Y462702D01*
X71905Y462909D01*
X71763Y463112D01*
X71617Y463311D01*
X71465Y463507D01*
X71309Y463699D01*
X71149Y463887D01*
X70984Y464072D01*
X70814Y464252D01*
X70640Y464428D01*
X70462Y464600D01*
X70280Y464767D01*
X70094Y464930D01*
X69904Y465088D01*
X69710Y465242D01*
X69512Y465390D01*
X69311Y465534D01*
X69106Y465673D01*
X68898Y465807D01*
X68687Y465936D01*
X68472Y466060D01*
X68255Y466178D01*
X68035Y466292D01*
X67812Y466399D01*
X67587Y466502D01*
X67359Y466598D01*
X67129Y466690D01*
X66897Y466775D01*
X66663Y466855D01*
X66427Y466929D01*
X66189Y466998D01*
X65950Y467060D01*
X65709Y467117D01*
X65467Y467168D01*
X65224Y467213D01*
X64979Y467252D01*
X64734Y467285D01*
X64488Y467312D01*
X64242Y467333D01*
X63995Y467348D01*
X63747Y467357D01*
X63500Y467360D01*
D14*
X55242Y428625D02*
X47615Y428625D01*
X55242Y428625D02*
X59055Y432438D01*
X55242Y436252D01*
X47615Y436252D01*
X51429Y440319D02*
X47615Y444132D01*
X59055Y444132D01*
X59055Y440319D02*
X59055Y447945D01*
X90805Y462925D02*
X98432Y462925D01*
X98432Y461018D01*
X90805Y453392D01*
X90805Y451485D01*
X108219Y451485D02*
X108219Y462925D01*
X102499Y457205D01*
X110125Y457205D01*
X114193Y459112D02*
X118006Y462925D01*
X118006Y451485D01*
X114193Y451485D02*
X121819Y451485D01*
X129700Y461018D02*
X133513Y462925D01*
X129700Y461018D02*
X125887Y457205D01*
X125887Y453392D01*
X127794Y451485D01*
X131607Y451485D01*
X133513Y453392D01*
X133513Y455298D01*
X131607Y457205D01*
X125887Y457205D01*
X137581Y459112D02*
X141394Y462925D01*
X141394Y451485D01*
X137581Y451485D02*
X145207Y451485D01*
X149275Y451485D02*
X149275Y462925D01*
X156901Y451485D01*
X156901Y462925D01*
D11*
X101600Y528320D02*
X101600Y538480D01*
X123190Y542290D02*
X123190Y524510D01*
X105410Y524510D01*
X101600Y538480D02*
X101602Y538620D01*
X101608Y538760D01*
X101617Y538900D01*
X101631Y539039D01*
X101648Y539178D01*
X101669Y539316D01*
X101694Y539454D01*
X101723Y539591D01*
X101755Y539727D01*
X101792Y539862D01*
X101832Y539996D01*
X101875Y540129D01*
X101923Y540261D01*
X101973Y540392D01*
X102028Y540521D01*
X102086Y540648D01*
X102147Y540774D01*
X102212Y540898D01*
X102281Y541020D01*
X102352Y541140D01*
X102427Y541258D01*
X102505Y541375D01*
X102587Y541489D01*
X102671Y541600D01*
X102759Y541709D01*
X102849Y541816D01*
X102943Y541921D01*
X103039Y542022D01*
X103138Y542121D01*
X103239Y542217D01*
X103344Y542311D01*
X103451Y542401D01*
X103560Y542489D01*
X103671Y542573D01*
X103785Y542655D01*
X103902Y542733D01*
X104020Y542808D01*
X104140Y542879D01*
X104262Y542948D01*
X104386Y543013D01*
X104512Y543074D01*
X104639Y543132D01*
X104768Y543187D01*
X104899Y543237D01*
X105031Y543285D01*
X105164Y543328D01*
X105298Y543368D01*
X105433Y543405D01*
X105569Y543437D01*
X105706Y543466D01*
X105844Y543491D01*
X105982Y543512D01*
X106121Y543529D01*
X106260Y543543D01*
X106400Y543552D01*
X106540Y543558D01*
X106680Y543560D01*
X248920Y523240D02*
X249060Y523242D01*
X249200Y523248D01*
X249340Y523257D01*
X249479Y523271D01*
X249618Y523288D01*
X249756Y523309D01*
X249894Y523334D01*
X250031Y523363D01*
X250167Y523395D01*
X250302Y523432D01*
X250436Y523472D01*
X250569Y523515D01*
X250701Y523563D01*
X250832Y523613D01*
X250961Y523668D01*
X251088Y523726D01*
X251214Y523787D01*
X251338Y523852D01*
X251460Y523921D01*
X251580Y523992D01*
X251698Y524067D01*
X251815Y524145D01*
X251929Y524227D01*
X252040Y524311D01*
X252149Y524399D01*
X252256Y524489D01*
X252361Y524583D01*
X252462Y524679D01*
X252561Y524778D01*
X252657Y524879D01*
X252751Y524984D01*
X252841Y525091D01*
X252929Y525200D01*
X253013Y525311D01*
X253095Y525425D01*
X253173Y525542D01*
X253248Y525660D01*
X253319Y525780D01*
X253388Y525902D01*
X253453Y526026D01*
X253514Y526152D01*
X253572Y526279D01*
X253627Y526408D01*
X253677Y526539D01*
X253725Y526671D01*
X253768Y526804D01*
X253808Y526938D01*
X253845Y527073D01*
X253877Y527209D01*
X253906Y527346D01*
X253931Y527484D01*
X253952Y527622D01*
X253969Y527761D01*
X253983Y527900D01*
X253992Y528040D01*
X253998Y528180D01*
X254000Y528320D01*
X254000Y538480D02*
X253998Y538620D01*
X253992Y538760D01*
X253983Y538900D01*
X253969Y539039D01*
X253952Y539178D01*
X253931Y539316D01*
X253906Y539454D01*
X253877Y539591D01*
X253845Y539727D01*
X253808Y539862D01*
X253768Y539996D01*
X253725Y540129D01*
X253677Y540261D01*
X253627Y540392D01*
X253572Y540521D01*
X253514Y540648D01*
X253453Y540774D01*
X253388Y540898D01*
X253319Y541020D01*
X253248Y541140D01*
X253173Y541258D01*
X253095Y541375D01*
X253013Y541489D01*
X252929Y541600D01*
X252841Y541709D01*
X252751Y541816D01*
X252657Y541921D01*
X252561Y542022D01*
X252462Y542121D01*
X252361Y542217D01*
X252256Y542311D01*
X252149Y542401D01*
X252040Y542489D01*
X251929Y542573D01*
X251815Y542655D01*
X251698Y542733D01*
X251580Y542808D01*
X251460Y542879D01*
X251338Y542948D01*
X251214Y543013D01*
X251088Y543074D01*
X250961Y543132D01*
X250832Y543187D01*
X250701Y543237D01*
X250569Y543285D01*
X250436Y543328D01*
X250302Y543368D01*
X250167Y543405D01*
X250031Y543437D01*
X249894Y543466D01*
X249756Y543491D01*
X249618Y543512D01*
X249479Y543529D01*
X249340Y543543D01*
X249200Y543552D01*
X249060Y543558D01*
X248920Y543560D01*
X106680Y523240D02*
X106540Y523242D01*
X106400Y523248D01*
X106260Y523257D01*
X106121Y523271D01*
X105982Y523288D01*
X105844Y523309D01*
X105706Y523334D01*
X105569Y523363D01*
X105433Y523395D01*
X105298Y523432D01*
X105164Y523472D01*
X105031Y523515D01*
X104899Y523563D01*
X104768Y523613D01*
X104639Y523668D01*
X104512Y523726D01*
X104386Y523787D01*
X104262Y523852D01*
X104140Y523921D01*
X104020Y523992D01*
X103902Y524067D01*
X103785Y524145D01*
X103671Y524227D01*
X103560Y524311D01*
X103451Y524399D01*
X103344Y524489D01*
X103239Y524583D01*
X103138Y524679D01*
X103039Y524778D01*
X102943Y524879D01*
X102849Y524984D01*
X102759Y525091D01*
X102671Y525200D01*
X102587Y525311D01*
X102505Y525425D01*
X102427Y525542D01*
X102352Y525660D01*
X102281Y525780D01*
X102212Y525902D01*
X102147Y526026D01*
X102086Y526152D01*
X102028Y526279D01*
X101973Y526408D01*
X101923Y526539D01*
X101875Y526671D01*
X101832Y526804D01*
X101792Y526938D01*
X101755Y527073D01*
X101723Y527209D01*
X101694Y527346D01*
X101669Y527484D01*
X101648Y527622D01*
X101631Y527761D01*
X101617Y527900D01*
X101608Y528040D01*
X101602Y528180D01*
X101600Y528320D01*
X254000Y528320D02*
X254000Y538480D01*
X248920Y543560D02*
X106680Y543560D01*
X106680Y523240D02*
X248920Y523240D01*
X123190Y542290D02*
X105410Y542290D01*
X105410Y524510D01*
D14*
X94956Y537598D02*
X92075Y534717D01*
X94956Y537598D02*
X94956Y528955D01*
X92075Y528955D02*
X97837Y528955D01*
X102235Y546735D02*
X102235Y558175D01*
X107955Y558175D01*
X109862Y556268D01*
X109862Y552455D01*
X107955Y550548D01*
X102235Y550548D01*
X106048Y550548D02*
X109862Y546735D01*
X113929Y546735D02*
X113929Y558175D01*
X121555Y546735D01*
X121555Y558175D01*
X125623Y554362D02*
X129436Y558175D01*
X129436Y546735D01*
X125623Y546735D02*
X133249Y546735D01*
X175898Y556268D02*
X179712Y558175D01*
X175898Y556268D02*
X172085Y552455D01*
X172085Y548642D01*
X173992Y546735D01*
X177805Y546735D01*
X179712Y548642D01*
X179712Y550548D01*
X177805Y552455D01*
X172085Y552455D01*
X183779Y548642D02*
X183779Y546735D01*
X183779Y548642D02*
X185686Y548642D01*
X185686Y546735D01*
X183779Y546735D01*
X189626Y556268D02*
X191533Y558175D01*
X195346Y558175D01*
X197252Y556268D01*
X197252Y554362D01*
X195346Y552455D01*
X197252Y550548D01*
X197252Y548642D01*
X195346Y546735D01*
X191533Y546735D01*
X189626Y548642D01*
X189626Y550548D01*
X191533Y552455D01*
X189626Y554362D01*
X189626Y556268D01*
X191533Y552455D02*
X195346Y552455D01*
X201320Y558175D02*
X201320Y546735D01*
X201320Y550548D02*
X208946Y558175D01*
X203227Y552455D02*
X208946Y546735D01*
D11*
X800100Y111760D02*
X802640Y114300D01*
X800100Y111760D02*
X797560Y114300D01*
X800100Y91440D02*
X802640Y88900D01*
X800100Y91440D02*
X797560Y88900D01*
X777240Y88900D01*
X774700Y91440D01*
X822960Y88900D02*
X825500Y91440D01*
X822960Y88900D02*
X802640Y88900D01*
X825500Y91440D02*
X825500Y111760D01*
X822960Y114300D01*
X802640Y114300D01*
X797560Y114300D02*
X777240Y114300D01*
X774700Y111760D01*
X774700Y91440D01*
D14*
X777242Y118745D02*
X775335Y120652D01*
X777242Y118745D02*
X779148Y118745D01*
X781055Y120652D01*
X781055Y130185D01*
X779148Y130185D02*
X782962Y130185D01*
X787029Y130185D02*
X787029Y118745D01*
X787029Y130185D02*
X792749Y130185D01*
X794655Y128278D01*
X794655Y124465D01*
X792749Y122558D01*
X787029Y122558D01*
X798723Y118745D02*
X806349Y118745D01*
X798723Y118745D02*
X806349Y126372D01*
X806349Y128278D01*
X804443Y130185D01*
X800630Y130185D01*
X798723Y128278D01*
D11*
X445770Y149860D02*
X445770Y203200D01*
X446079Y203204D01*
X446388Y203215D01*
X446697Y203234D01*
X447005Y203260D01*
X447313Y203294D01*
X447619Y203335D01*
X447925Y203384D01*
X448229Y203440D01*
X448531Y203504D01*
X448832Y203575D01*
X449132Y203653D01*
X449429Y203738D01*
X449724Y203831D01*
X450017Y203931D01*
X450307Y204038D01*
X450594Y204152D01*
X450879Y204273D01*
X451161Y204401D01*
X451439Y204535D01*
X451714Y204677D01*
X451986Y204825D01*
X452253Y204980D01*
X452517Y205141D01*
X452777Y205308D01*
X453033Y205482D01*
X453285Y205662D01*
X453532Y205848D01*
X453774Y206040D01*
X454012Y206238D01*
X454245Y206441D01*
X454473Y206651D01*
X454695Y206865D01*
X454913Y207085D01*
X455125Y207311D01*
X455331Y207541D01*
X455532Y207776D01*
X455727Y208016D01*
X455916Y208261D01*
X456099Y208510D01*
X456276Y208764D01*
X456446Y209022D01*
X456611Y209284D01*
X456769Y209550D01*
X456920Y209820D01*
X457065Y210093D01*
X457203Y210370D01*
X457334Y210650D01*
X457458Y210933D01*
X457576Y211219D01*
X457686Y211508D01*
X457790Y211799D01*
X457886Y212093D01*
X457975Y212389D01*
X458057Y212688D01*
X458132Y212988D01*
X458199Y213290D01*
X458259Y213593D01*
X458311Y213898D01*
X458356Y214204D01*
X458394Y214511D01*
X458424Y214819D01*
X458446Y215127D01*
X458462Y215436D01*
X458469Y215745D01*
X458469Y216055D01*
X458462Y216364D01*
X458446Y216673D01*
X458424Y216981D01*
X458394Y217289D01*
X458356Y217596D01*
X458311Y217902D01*
X458259Y218207D01*
X458199Y218510D01*
X458132Y218812D01*
X458057Y219112D01*
X457975Y219411D01*
X457886Y219707D01*
X457790Y220001D01*
X457686Y220292D01*
X457576Y220581D01*
X457458Y220867D01*
X457334Y221150D01*
X457203Y221430D01*
X457065Y221707D01*
X456920Y221980D01*
X456769Y222250D01*
X456611Y222516D01*
X456446Y222778D01*
X456276Y223036D01*
X456099Y223290D01*
X455916Y223539D01*
X455727Y223784D01*
X455532Y224024D01*
X455331Y224259D01*
X455125Y224489D01*
X454913Y224715D01*
X454695Y224935D01*
X454473Y225149D01*
X454245Y225359D01*
X454012Y225562D01*
X453774Y225760D01*
X453532Y225952D01*
X453285Y226138D01*
X453033Y226318D01*
X452777Y226492D01*
X452517Y226659D01*
X452253Y226820D01*
X451986Y226975D01*
X451714Y227123D01*
X451439Y227265D01*
X451161Y227399D01*
X450879Y227527D01*
X450594Y227648D01*
X450307Y227762D01*
X450017Y227869D01*
X449724Y227969D01*
X449429Y228062D01*
X449132Y228147D01*
X448832Y228225D01*
X448531Y228296D01*
X448229Y228360D01*
X447925Y228416D01*
X447619Y228465D01*
X447313Y228506D01*
X447005Y228540D01*
X446697Y228566D01*
X446388Y228585D01*
X446079Y228596D01*
X445770Y228600D01*
X748030Y281940D02*
X748030Y149860D01*
X445770Y228600D02*
X445770Y281940D01*
X748030Y281940D01*
X748030Y149860D02*
X445770Y149860D01*
D15*
X439801Y153289D02*
X439801Y158628D01*
X439801Y155958D02*
X423785Y155958D01*
X423785Y153289D02*
X423785Y158628D01*
X423785Y172211D02*
X426455Y174881D01*
X423785Y172211D02*
X423785Y166873D01*
X426455Y164203D01*
X437132Y164203D01*
X439801Y166873D01*
X439801Y172211D01*
X437132Y174881D01*
X439801Y180575D02*
X439801Y191252D01*
X439801Y180575D02*
X429124Y191252D01*
X426455Y191252D01*
X423785Y188583D01*
X423785Y183244D01*
X426455Y180575D01*
X477139Y221245D02*
X479808Y223915D01*
X485147Y223915D01*
X487816Y221245D01*
X487816Y218576D01*
X485147Y215907D01*
X487816Y213238D01*
X487816Y210568D01*
X485147Y207899D01*
X479808Y207899D01*
X477139Y210568D01*
X477139Y213238D01*
X479808Y215907D01*
X477139Y218576D01*
X477139Y221245D01*
X479808Y215907D02*
X485147Y215907D01*
X493511Y207899D02*
X504188Y207899D01*
X493511Y207899D02*
X504188Y218576D01*
X504188Y221245D01*
X501518Y223915D01*
X496180Y223915D01*
X493511Y221245D01*
X509882Y223915D02*
X520559Y223915D01*
X509882Y223915D02*
X509882Y215907D01*
X515221Y218576D01*
X517890Y218576D01*
X520559Y215907D01*
X520559Y210568D01*
X517890Y207899D01*
X512551Y207899D01*
X509882Y210568D01*
X526254Y221245D02*
X528923Y223915D01*
X534262Y223915D01*
X536931Y221245D01*
X536931Y218576D01*
X534262Y215907D01*
X531592Y215907D01*
X534262Y215907D02*
X536931Y213238D01*
X536931Y210568D01*
X534262Y207899D01*
X528923Y207899D01*
X526254Y210568D01*
D11*
X711200Y461010D02*
X914400Y461010D01*
X914400Y402590D02*
X711200Y402590D01*
X914400Y402590D02*
X914400Y461010D01*
X711200Y461010D02*
X711200Y441960D01*
X711200Y421640D02*
X711200Y402590D01*
X711200Y421640D02*
X711447Y421643D01*
X711695Y421652D01*
X711942Y421667D01*
X712188Y421688D01*
X712434Y421715D01*
X712679Y421748D01*
X712924Y421787D01*
X713167Y421832D01*
X713409Y421883D01*
X713650Y421940D01*
X713889Y422002D01*
X714127Y422071D01*
X714363Y422145D01*
X714597Y422225D01*
X714829Y422310D01*
X715059Y422402D01*
X715287Y422498D01*
X715512Y422601D01*
X715735Y422708D01*
X715955Y422822D01*
X716172Y422940D01*
X716387Y423064D01*
X716598Y423193D01*
X716806Y423327D01*
X717011Y423466D01*
X717212Y423610D01*
X717410Y423758D01*
X717604Y423912D01*
X717794Y424070D01*
X717980Y424233D01*
X718162Y424400D01*
X718340Y424572D01*
X718514Y424748D01*
X718684Y424928D01*
X718849Y425113D01*
X719009Y425301D01*
X719165Y425493D01*
X719317Y425689D01*
X719463Y425888D01*
X719605Y426091D01*
X719741Y426298D01*
X719873Y426507D01*
X719999Y426720D01*
X720120Y426936D01*
X720236Y427154D01*
X720346Y427376D01*
X720451Y427600D01*
X720551Y427826D01*
X720645Y428055D01*
X720733Y428286D01*
X720816Y428520D01*
X720893Y428755D01*
X720964Y428992D01*
X721030Y429230D01*
X721089Y429470D01*
X721143Y429712D01*
X721191Y429955D01*
X721233Y430198D01*
X721269Y430443D01*
X721299Y430689D01*
X721323Y430935D01*
X721341Y431182D01*
X721353Y431429D01*
X721359Y431676D01*
X721359Y431924D01*
X721353Y432171D01*
X721341Y432418D01*
X721323Y432665D01*
X721299Y432911D01*
X721269Y433157D01*
X721233Y433402D01*
X721191Y433645D01*
X721143Y433888D01*
X721089Y434130D01*
X721030Y434370D01*
X720964Y434608D01*
X720893Y434845D01*
X720816Y435080D01*
X720733Y435314D01*
X720645Y435545D01*
X720551Y435774D01*
X720451Y436000D01*
X720346Y436224D01*
X720236Y436446D01*
X720120Y436664D01*
X719999Y436880D01*
X719873Y437093D01*
X719741Y437302D01*
X719605Y437509D01*
X719463Y437712D01*
X719317Y437911D01*
X719165Y438107D01*
X719009Y438299D01*
X718849Y438487D01*
X718684Y438672D01*
X718514Y438852D01*
X718340Y439028D01*
X718162Y439200D01*
X717980Y439367D01*
X717794Y439530D01*
X717604Y439688D01*
X717410Y439842D01*
X717212Y439990D01*
X717011Y440134D01*
X716806Y440273D01*
X716598Y440407D01*
X716387Y440536D01*
X716172Y440660D01*
X715955Y440778D01*
X715735Y440892D01*
X715512Y440999D01*
X715287Y441102D01*
X715059Y441198D01*
X714829Y441290D01*
X714597Y441375D01*
X714363Y441455D01*
X714127Y441529D01*
X713889Y441598D01*
X713650Y441660D01*
X713409Y441717D01*
X713167Y441768D01*
X712924Y441813D01*
X712679Y441852D01*
X712434Y441885D01*
X712188Y441912D01*
X711942Y441933D01*
X711695Y441948D01*
X711447Y441957D01*
X711200Y441960D01*
D14*
X744855Y419738D02*
X744855Y415925D01*
X744855Y417832D02*
X733415Y417832D01*
X733415Y419738D02*
X733415Y415925D01*
X733415Y429441D02*
X735322Y431347D01*
X733415Y429441D02*
X733415Y425628D01*
X735322Y423721D01*
X742948Y423721D01*
X744855Y425628D01*
X744855Y429441D01*
X742948Y431347D01*
X735322Y439228D02*
X733415Y443041D01*
X735322Y439228D02*
X739135Y435415D01*
X742948Y435415D01*
X744855Y437322D01*
X744855Y441135D01*
X742948Y443041D01*
X741042Y443041D01*
X739135Y441135D01*
X739135Y435415D01*
X789305Y437525D02*
X789305Y426085D01*
X793118Y433712D02*
X789305Y437525D01*
X793118Y433712D02*
X796932Y437525D01*
X796932Y426085D01*
X800999Y426085D02*
X800999Y433712D01*
X804812Y437525D01*
X808625Y433712D01*
X808625Y426085D01*
X808625Y431805D02*
X800999Y431805D01*
X812693Y437525D02*
X820319Y426085D01*
X812693Y426085D02*
X820319Y437525D01*
X824387Y426085D02*
X832013Y426085D01*
X824387Y426085D02*
X832013Y433712D01*
X832013Y435618D01*
X830107Y437525D01*
X826294Y437525D01*
X824387Y435618D01*
X836081Y435618D02*
X836081Y427992D01*
X836081Y435618D02*
X837988Y437525D01*
X841801Y437525D01*
X843707Y435618D01*
X843707Y427992D01*
X841801Y426085D01*
X837988Y426085D01*
X836081Y427992D01*
X843707Y435618D01*
X847775Y426085D02*
X855401Y426085D01*
X847775Y426085D02*
X855401Y433712D01*
X855401Y435618D01*
X853495Y437525D01*
X849681Y437525D01*
X847775Y435618D01*
D11*
X770890Y370840D02*
X727710Y370840D01*
X727710Y340360D02*
X770890Y340360D01*
X773430Y342900D02*
X773430Y368300D01*
X725170Y368300D02*
X725170Y342900D01*
X770890Y370840D02*
X770990Y370838D01*
X771089Y370832D01*
X771189Y370822D01*
X771287Y370809D01*
X771386Y370791D01*
X771483Y370770D01*
X771579Y370745D01*
X771675Y370716D01*
X771769Y370683D01*
X771862Y370647D01*
X771953Y370607D01*
X772043Y370563D01*
X772131Y370516D01*
X772217Y370466D01*
X772301Y370412D01*
X772383Y370355D01*
X772462Y370295D01*
X772540Y370231D01*
X772614Y370165D01*
X772686Y370096D01*
X772755Y370024D01*
X772821Y369950D01*
X772885Y369872D01*
X772945Y369793D01*
X773002Y369711D01*
X773056Y369627D01*
X773106Y369541D01*
X773153Y369453D01*
X773197Y369363D01*
X773237Y369272D01*
X773273Y369179D01*
X773306Y369085D01*
X773335Y368989D01*
X773360Y368893D01*
X773381Y368796D01*
X773399Y368697D01*
X773412Y368599D01*
X773422Y368499D01*
X773428Y368400D01*
X773430Y368300D01*
X727710Y370840D02*
X727610Y370838D01*
X727511Y370832D01*
X727411Y370822D01*
X727313Y370809D01*
X727214Y370791D01*
X727117Y370770D01*
X727021Y370745D01*
X726925Y370716D01*
X726831Y370683D01*
X726738Y370647D01*
X726647Y370607D01*
X726557Y370563D01*
X726469Y370516D01*
X726383Y370466D01*
X726299Y370412D01*
X726217Y370355D01*
X726138Y370295D01*
X726060Y370231D01*
X725986Y370165D01*
X725914Y370096D01*
X725845Y370024D01*
X725779Y369950D01*
X725715Y369872D01*
X725655Y369793D01*
X725598Y369711D01*
X725544Y369627D01*
X725494Y369541D01*
X725447Y369453D01*
X725403Y369363D01*
X725363Y369272D01*
X725327Y369179D01*
X725294Y369085D01*
X725265Y368989D01*
X725240Y368893D01*
X725219Y368796D01*
X725201Y368697D01*
X725188Y368599D01*
X725178Y368499D01*
X725172Y368400D01*
X725170Y368300D01*
X770890Y340360D02*
X770990Y340362D01*
X771089Y340368D01*
X771189Y340378D01*
X771287Y340391D01*
X771386Y340409D01*
X771483Y340430D01*
X771579Y340455D01*
X771675Y340484D01*
X771769Y340517D01*
X771862Y340553D01*
X771953Y340593D01*
X772043Y340637D01*
X772131Y340684D01*
X772217Y340734D01*
X772301Y340788D01*
X772383Y340845D01*
X772462Y340905D01*
X772540Y340969D01*
X772614Y341035D01*
X772686Y341104D01*
X772755Y341176D01*
X772821Y341250D01*
X772885Y341328D01*
X772945Y341407D01*
X773002Y341489D01*
X773056Y341573D01*
X773106Y341659D01*
X773153Y341747D01*
X773197Y341837D01*
X773237Y341928D01*
X773273Y342021D01*
X773306Y342115D01*
X773335Y342211D01*
X773360Y342307D01*
X773381Y342404D01*
X773399Y342503D01*
X773412Y342601D01*
X773422Y342701D01*
X773428Y342800D01*
X773430Y342900D01*
X727710Y340360D02*
X727610Y340362D01*
X727511Y340368D01*
X727411Y340378D01*
X727313Y340391D01*
X727214Y340409D01*
X727117Y340430D01*
X727021Y340455D01*
X726925Y340484D01*
X726831Y340517D01*
X726738Y340553D01*
X726647Y340593D01*
X726557Y340637D01*
X726469Y340684D01*
X726383Y340734D01*
X726299Y340788D01*
X726217Y340845D01*
X726138Y340905D01*
X726060Y340969D01*
X725986Y341035D01*
X725914Y341104D01*
X725845Y341176D01*
X725779Y341250D01*
X725715Y341328D01*
X725655Y341407D01*
X725598Y341489D01*
X725544Y341573D01*
X725494Y341659D01*
X725447Y341747D01*
X725403Y341837D01*
X725363Y341928D01*
X725327Y342021D01*
X725294Y342115D01*
X725265Y342211D01*
X725240Y342307D01*
X725219Y342404D01*
X725201Y342503D01*
X725188Y342601D01*
X725178Y342701D01*
X725172Y342800D01*
X725170Y342900D01*
X751840Y355600D02*
X753110Y355600D01*
D12*
X751840Y355600D02*
X751840Y363220D01*
X751840Y355600D02*
X751840Y347980D01*
X746760Y355600D02*
X746760Y363220D01*
X746760Y355600D02*
X746760Y347980D01*
D11*
X746760Y355600D02*
X745490Y355600D01*
D14*
X739138Y53975D02*
X731512Y53975D01*
X729605Y55882D01*
X729605Y59695D01*
X731512Y61602D01*
X739138Y61602D01*
X741045Y59695D01*
X741045Y55882D01*
X739138Y53975D01*
X731512Y61602D01*
X739138Y65669D02*
X741045Y65669D01*
X739138Y65669D02*
X739138Y67576D01*
X741045Y67576D01*
X741045Y65669D01*
X733419Y71516D02*
X729605Y75329D01*
X741045Y75329D01*
X741045Y71516D02*
X741045Y79142D01*
D11*
X791210Y370840D02*
X834390Y370840D01*
X834390Y340360D02*
X791210Y340360D01*
X836930Y342900D02*
X836930Y368300D01*
X788670Y368300D02*
X788670Y342900D01*
X834390Y370840D02*
X834490Y370838D01*
X834589Y370832D01*
X834689Y370822D01*
X834787Y370809D01*
X834886Y370791D01*
X834983Y370770D01*
X835079Y370745D01*
X835175Y370716D01*
X835269Y370683D01*
X835362Y370647D01*
X835453Y370607D01*
X835543Y370563D01*
X835631Y370516D01*
X835717Y370466D01*
X835801Y370412D01*
X835883Y370355D01*
X835962Y370295D01*
X836040Y370231D01*
X836114Y370165D01*
X836186Y370096D01*
X836255Y370024D01*
X836321Y369950D01*
X836385Y369872D01*
X836445Y369793D01*
X836502Y369711D01*
X836556Y369627D01*
X836606Y369541D01*
X836653Y369453D01*
X836697Y369363D01*
X836737Y369272D01*
X836773Y369179D01*
X836806Y369085D01*
X836835Y368989D01*
X836860Y368893D01*
X836881Y368796D01*
X836899Y368697D01*
X836912Y368599D01*
X836922Y368499D01*
X836928Y368400D01*
X836930Y368300D01*
X791210Y370840D02*
X791110Y370838D01*
X791011Y370832D01*
X790911Y370822D01*
X790813Y370809D01*
X790714Y370791D01*
X790617Y370770D01*
X790521Y370745D01*
X790425Y370716D01*
X790331Y370683D01*
X790238Y370647D01*
X790147Y370607D01*
X790057Y370563D01*
X789969Y370516D01*
X789883Y370466D01*
X789799Y370412D01*
X789717Y370355D01*
X789638Y370295D01*
X789560Y370231D01*
X789486Y370165D01*
X789414Y370096D01*
X789345Y370024D01*
X789279Y369950D01*
X789215Y369872D01*
X789155Y369793D01*
X789098Y369711D01*
X789044Y369627D01*
X788994Y369541D01*
X788947Y369453D01*
X788903Y369363D01*
X788863Y369272D01*
X788827Y369179D01*
X788794Y369085D01*
X788765Y368989D01*
X788740Y368893D01*
X788719Y368796D01*
X788701Y368697D01*
X788688Y368599D01*
X788678Y368499D01*
X788672Y368400D01*
X788670Y368300D01*
X834390Y340360D02*
X834490Y340362D01*
X834589Y340368D01*
X834689Y340378D01*
X834787Y340391D01*
X834886Y340409D01*
X834983Y340430D01*
X835079Y340455D01*
X835175Y340484D01*
X835269Y340517D01*
X835362Y340553D01*
X835453Y340593D01*
X835543Y340637D01*
X835631Y340684D01*
X835717Y340734D01*
X835801Y340788D01*
X835883Y340845D01*
X835962Y340905D01*
X836040Y340969D01*
X836114Y341035D01*
X836186Y341104D01*
X836255Y341176D01*
X836321Y341250D01*
X836385Y341328D01*
X836445Y341407D01*
X836502Y341489D01*
X836556Y341573D01*
X836606Y341659D01*
X836653Y341747D01*
X836697Y341837D01*
X836737Y341928D01*
X836773Y342021D01*
X836806Y342115D01*
X836835Y342211D01*
X836860Y342307D01*
X836881Y342404D01*
X836899Y342503D01*
X836912Y342601D01*
X836922Y342701D01*
X836928Y342800D01*
X836930Y342900D01*
X791210Y340360D02*
X791110Y340362D01*
X791011Y340368D01*
X790911Y340378D01*
X790813Y340391D01*
X790714Y340409D01*
X790617Y340430D01*
X790521Y340455D01*
X790425Y340484D01*
X790331Y340517D01*
X790238Y340553D01*
X790147Y340593D01*
X790057Y340637D01*
X789969Y340684D01*
X789883Y340734D01*
X789799Y340788D01*
X789717Y340845D01*
X789638Y340905D01*
X789560Y340969D01*
X789486Y341035D01*
X789414Y341104D01*
X789345Y341176D01*
X789279Y341250D01*
X789215Y341328D01*
X789155Y341407D01*
X789098Y341489D01*
X789044Y341573D01*
X788994Y341659D01*
X788947Y341747D01*
X788903Y341837D01*
X788863Y341928D01*
X788827Y342021D01*
X788794Y342115D01*
X788765Y342211D01*
X788740Y342307D01*
X788719Y342404D01*
X788701Y342503D01*
X788688Y342601D01*
X788678Y342701D01*
X788672Y342800D01*
X788670Y342900D01*
X815340Y355600D02*
X816610Y355600D01*
D12*
X815340Y355600D02*
X815340Y363220D01*
X815340Y355600D02*
X815340Y347980D01*
X810260Y355600D02*
X810260Y363220D01*
X810260Y355600D02*
X810260Y347980D01*
D11*
X810260Y355600D02*
X808990Y355600D01*
D14*
X739138Y117475D02*
X731512Y117475D01*
X729605Y119382D01*
X729605Y123195D01*
X731512Y125102D01*
X739138Y125102D01*
X741045Y123195D01*
X741045Y119382D01*
X739138Y117475D01*
X731512Y125102D01*
X739138Y129169D02*
X741045Y129169D01*
X739138Y129169D02*
X739138Y131076D01*
X741045Y131076D01*
X741045Y129169D01*
X733419Y135016D02*
X729605Y138829D01*
X741045Y138829D01*
X741045Y135016D02*
X741045Y142642D01*
D11*
X670560Y410210D02*
X670560Y453390D01*
X701040Y453390D02*
X701040Y410210D01*
X698500Y455930D02*
X673100Y455930D01*
X673100Y407670D02*
X698500Y407670D01*
X670560Y453390D02*
X670562Y453490D01*
X670568Y453589D01*
X670578Y453689D01*
X670591Y453787D01*
X670609Y453886D01*
X670630Y453983D01*
X670655Y454079D01*
X670684Y454175D01*
X670717Y454269D01*
X670753Y454362D01*
X670793Y454453D01*
X670837Y454543D01*
X670884Y454631D01*
X670934Y454717D01*
X670988Y454801D01*
X671045Y454883D01*
X671105Y454962D01*
X671169Y455040D01*
X671235Y455114D01*
X671304Y455186D01*
X671376Y455255D01*
X671450Y455321D01*
X671528Y455385D01*
X671607Y455445D01*
X671689Y455502D01*
X671773Y455556D01*
X671859Y455606D01*
X671947Y455653D01*
X672037Y455697D01*
X672128Y455737D01*
X672221Y455773D01*
X672315Y455806D01*
X672411Y455835D01*
X672507Y455860D01*
X672604Y455881D01*
X672703Y455899D01*
X672801Y455912D01*
X672901Y455922D01*
X673000Y455928D01*
X673100Y455930D01*
X670560Y410210D02*
X670562Y410110D01*
X670568Y410011D01*
X670578Y409911D01*
X670591Y409813D01*
X670609Y409714D01*
X670630Y409617D01*
X670655Y409521D01*
X670684Y409425D01*
X670717Y409331D01*
X670753Y409238D01*
X670793Y409147D01*
X670837Y409057D01*
X670884Y408969D01*
X670934Y408883D01*
X670988Y408799D01*
X671045Y408717D01*
X671105Y408638D01*
X671169Y408560D01*
X671235Y408486D01*
X671304Y408414D01*
X671376Y408345D01*
X671450Y408279D01*
X671528Y408215D01*
X671607Y408155D01*
X671689Y408098D01*
X671773Y408044D01*
X671859Y407994D01*
X671947Y407947D01*
X672037Y407903D01*
X672128Y407863D01*
X672221Y407827D01*
X672315Y407794D01*
X672411Y407765D01*
X672507Y407740D01*
X672604Y407719D01*
X672703Y407701D01*
X672801Y407688D01*
X672901Y407678D01*
X673000Y407672D01*
X673100Y407670D01*
X701040Y453390D02*
X701038Y453490D01*
X701032Y453589D01*
X701022Y453689D01*
X701009Y453787D01*
X700991Y453886D01*
X700970Y453983D01*
X700945Y454079D01*
X700916Y454175D01*
X700883Y454269D01*
X700847Y454362D01*
X700807Y454453D01*
X700763Y454543D01*
X700716Y454631D01*
X700666Y454717D01*
X700612Y454801D01*
X700555Y454883D01*
X700495Y454962D01*
X700431Y455040D01*
X700365Y455114D01*
X700296Y455186D01*
X700224Y455255D01*
X700150Y455321D01*
X700072Y455385D01*
X699993Y455445D01*
X699911Y455502D01*
X699827Y455556D01*
X699741Y455606D01*
X699653Y455653D01*
X699563Y455697D01*
X699472Y455737D01*
X699379Y455773D01*
X699285Y455806D01*
X699189Y455835D01*
X699093Y455860D01*
X698996Y455881D01*
X698897Y455899D01*
X698799Y455912D01*
X698699Y455922D01*
X698600Y455928D01*
X698500Y455930D01*
X701040Y410210D02*
X701038Y410110D01*
X701032Y410011D01*
X701022Y409911D01*
X701009Y409813D01*
X700991Y409714D01*
X700970Y409617D01*
X700945Y409521D01*
X700916Y409425D01*
X700883Y409331D01*
X700847Y409238D01*
X700807Y409147D01*
X700763Y409057D01*
X700716Y408969D01*
X700666Y408883D01*
X700612Y408799D01*
X700555Y408717D01*
X700495Y408638D01*
X700431Y408560D01*
X700365Y408486D01*
X700296Y408414D01*
X700224Y408345D01*
X700150Y408279D01*
X700072Y408215D01*
X699993Y408155D01*
X699911Y408098D01*
X699827Y408044D01*
X699741Y407994D01*
X699653Y407947D01*
X699563Y407903D01*
X699472Y407863D01*
X699379Y407827D01*
X699285Y407794D01*
X699189Y407765D01*
X699093Y407740D01*
X698996Y407719D01*
X698897Y407701D01*
X698799Y407688D01*
X698699Y407678D01*
X698600Y407672D01*
X698500Y407670D01*
X685800Y434340D02*
X685800Y435610D01*
D12*
X685800Y434340D02*
X678180Y434340D01*
X685800Y434340D02*
X693420Y434340D01*
X685800Y429260D02*
X678180Y429260D01*
X685800Y429260D02*
X693420Y429260D01*
D11*
X685800Y429260D02*
X685800Y427990D01*
X854710Y340360D02*
X897890Y340360D01*
X897890Y370840D02*
X854710Y370840D01*
X852170Y368300D02*
X852170Y342900D01*
X900430Y342900D02*
X900430Y368300D01*
X854710Y340360D02*
X854610Y340362D01*
X854511Y340368D01*
X854411Y340378D01*
X854313Y340391D01*
X854214Y340409D01*
X854117Y340430D01*
X854021Y340455D01*
X853925Y340484D01*
X853831Y340517D01*
X853738Y340553D01*
X853647Y340593D01*
X853557Y340637D01*
X853469Y340684D01*
X853383Y340734D01*
X853299Y340788D01*
X853217Y340845D01*
X853138Y340905D01*
X853060Y340969D01*
X852986Y341035D01*
X852914Y341104D01*
X852845Y341176D01*
X852779Y341250D01*
X852715Y341328D01*
X852655Y341407D01*
X852598Y341489D01*
X852544Y341573D01*
X852494Y341659D01*
X852447Y341747D01*
X852403Y341837D01*
X852363Y341928D01*
X852327Y342021D01*
X852294Y342115D01*
X852265Y342211D01*
X852240Y342307D01*
X852219Y342404D01*
X852201Y342503D01*
X852188Y342601D01*
X852178Y342701D01*
X852172Y342800D01*
X852170Y342900D01*
X897890Y340360D02*
X897990Y340362D01*
X898089Y340368D01*
X898189Y340378D01*
X898287Y340391D01*
X898386Y340409D01*
X898483Y340430D01*
X898579Y340455D01*
X898675Y340484D01*
X898769Y340517D01*
X898862Y340553D01*
X898953Y340593D01*
X899043Y340637D01*
X899131Y340684D01*
X899217Y340734D01*
X899301Y340788D01*
X899383Y340845D01*
X899462Y340905D01*
X899540Y340969D01*
X899614Y341035D01*
X899686Y341104D01*
X899755Y341176D01*
X899821Y341250D01*
X899885Y341328D01*
X899945Y341407D01*
X900002Y341489D01*
X900056Y341573D01*
X900106Y341659D01*
X900153Y341747D01*
X900197Y341837D01*
X900237Y341928D01*
X900273Y342021D01*
X900306Y342115D01*
X900335Y342211D01*
X900360Y342307D01*
X900381Y342404D01*
X900399Y342503D01*
X900412Y342601D01*
X900422Y342701D01*
X900428Y342800D01*
X900430Y342900D01*
X854710Y370840D02*
X854610Y370838D01*
X854511Y370832D01*
X854411Y370822D01*
X854313Y370809D01*
X854214Y370791D01*
X854117Y370770D01*
X854021Y370745D01*
X853925Y370716D01*
X853831Y370683D01*
X853738Y370647D01*
X853647Y370607D01*
X853557Y370563D01*
X853469Y370516D01*
X853383Y370466D01*
X853299Y370412D01*
X853217Y370355D01*
X853138Y370295D01*
X853060Y370231D01*
X852986Y370165D01*
X852914Y370096D01*
X852845Y370024D01*
X852779Y369950D01*
X852715Y369872D01*
X852655Y369793D01*
X852598Y369711D01*
X852544Y369627D01*
X852494Y369541D01*
X852447Y369453D01*
X852403Y369363D01*
X852363Y369272D01*
X852327Y369179D01*
X852294Y369085D01*
X852265Y368989D01*
X852240Y368893D01*
X852219Y368796D01*
X852201Y368697D01*
X852188Y368599D01*
X852178Y368499D01*
X852172Y368400D01*
X852170Y368300D01*
X897890Y370840D02*
X897990Y370838D01*
X898089Y370832D01*
X898189Y370822D01*
X898287Y370809D01*
X898386Y370791D01*
X898483Y370770D01*
X898579Y370745D01*
X898675Y370716D01*
X898769Y370683D01*
X898862Y370647D01*
X898953Y370607D01*
X899043Y370563D01*
X899131Y370516D01*
X899217Y370466D01*
X899301Y370412D01*
X899383Y370355D01*
X899462Y370295D01*
X899540Y370231D01*
X899614Y370165D01*
X899686Y370096D01*
X899755Y370024D01*
X899821Y369950D01*
X899885Y369872D01*
X899945Y369793D01*
X900002Y369711D01*
X900056Y369627D01*
X900106Y369541D01*
X900153Y369453D01*
X900197Y369363D01*
X900237Y369272D01*
X900273Y369179D01*
X900306Y369085D01*
X900335Y368989D01*
X900360Y368893D01*
X900381Y368796D01*
X900399Y368697D01*
X900412Y368599D01*
X900422Y368499D01*
X900428Y368400D01*
X900430Y368300D01*
X873760Y355600D02*
X872490Y355600D01*
D12*
X873760Y355600D02*
X873760Y347980D01*
X873760Y355600D02*
X873760Y363220D01*
X878840Y355600D02*
X878840Y347980D01*
X878840Y355600D02*
X878840Y363220D01*
D11*
X878840Y355600D02*
X880110Y355600D01*
X758190Y523240D02*
X715010Y523240D01*
X715010Y492760D02*
X758190Y492760D01*
X760730Y495300D02*
X760730Y520700D01*
X712470Y520700D02*
X712470Y495300D01*
X758190Y523240D02*
X758290Y523238D01*
X758389Y523232D01*
X758489Y523222D01*
X758587Y523209D01*
X758686Y523191D01*
X758783Y523170D01*
X758879Y523145D01*
X758975Y523116D01*
X759069Y523083D01*
X759162Y523047D01*
X759253Y523007D01*
X759343Y522963D01*
X759431Y522916D01*
X759517Y522866D01*
X759601Y522812D01*
X759683Y522755D01*
X759762Y522695D01*
X759840Y522631D01*
X759914Y522565D01*
X759986Y522496D01*
X760055Y522424D01*
X760121Y522350D01*
X760185Y522272D01*
X760245Y522193D01*
X760302Y522111D01*
X760356Y522027D01*
X760406Y521941D01*
X760453Y521853D01*
X760497Y521763D01*
X760537Y521672D01*
X760573Y521579D01*
X760606Y521485D01*
X760635Y521389D01*
X760660Y521293D01*
X760681Y521196D01*
X760699Y521097D01*
X760712Y520999D01*
X760722Y520899D01*
X760728Y520800D01*
X760730Y520700D01*
X715010Y523240D02*
X714910Y523238D01*
X714811Y523232D01*
X714711Y523222D01*
X714613Y523209D01*
X714514Y523191D01*
X714417Y523170D01*
X714321Y523145D01*
X714225Y523116D01*
X714131Y523083D01*
X714038Y523047D01*
X713947Y523007D01*
X713857Y522963D01*
X713769Y522916D01*
X713683Y522866D01*
X713599Y522812D01*
X713517Y522755D01*
X713438Y522695D01*
X713360Y522631D01*
X713286Y522565D01*
X713214Y522496D01*
X713145Y522424D01*
X713079Y522350D01*
X713015Y522272D01*
X712955Y522193D01*
X712898Y522111D01*
X712844Y522027D01*
X712794Y521941D01*
X712747Y521853D01*
X712703Y521763D01*
X712663Y521672D01*
X712627Y521579D01*
X712594Y521485D01*
X712565Y521389D01*
X712540Y521293D01*
X712519Y521196D01*
X712501Y521097D01*
X712488Y520999D01*
X712478Y520899D01*
X712472Y520800D01*
X712470Y520700D01*
X758190Y492760D02*
X758290Y492762D01*
X758389Y492768D01*
X758489Y492778D01*
X758587Y492791D01*
X758686Y492809D01*
X758783Y492830D01*
X758879Y492855D01*
X758975Y492884D01*
X759069Y492917D01*
X759162Y492953D01*
X759253Y492993D01*
X759343Y493037D01*
X759431Y493084D01*
X759517Y493134D01*
X759601Y493188D01*
X759683Y493245D01*
X759762Y493305D01*
X759840Y493369D01*
X759914Y493435D01*
X759986Y493504D01*
X760055Y493576D01*
X760121Y493650D01*
X760185Y493728D01*
X760245Y493807D01*
X760302Y493889D01*
X760356Y493973D01*
X760406Y494059D01*
X760453Y494147D01*
X760497Y494237D01*
X760537Y494328D01*
X760573Y494421D01*
X760606Y494515D01*
X760635Y494611D01*
X760660Y494707D01*
X760681Y494804D01*
X760699Y494903D01*
X760712Y495001D01*
X760722Y495101D01*
X760728Y495200D01*
X760730Y495300D01*
X715010Y492760D02*
X714910Y492762D01*
X714811Y492768D01*
X714711Y492778D01*
X714613Y492791D01*
X714514Y492809D01*
X714417Y492830D01*
X714321Y492855D01*
X714225Y492884D01*
X714131Y492917D01*
X714038Y492953D01*
X713947Y492993D01*
X713857Y493037D01*
X713769Y493084D01*
X713683Y493134D01*
X713599Y493188D01*
X713517Y493245D01*
X713438Y493305D01*
X713360Y493369D01*
X713286Y493435D01*
X713214Y493504D01*
X713145Y493576D01*
X713079Y493650D01*
X713015Y493728D01*
X712955Y493807D01*
X712898Y493889D01*
X712844Y493973D01*
X712794Y494059D01*
X712747Y494147D01*
X712703Y494237D01*
X712663Y494328D01*
X712627Y494421D01*
X712594Y494515D01*
X712565Y494611D01*
X712540Y494707D01*
X712519Y494804D01*
X712501Y494903D01*
X712488Y495001D01*
X712478Y495101D01*
X712472Y495200D01*
X712470Y495300D01*
X739140Y508000D02*
X740410Y508000D01*
D12*
X739140Y508000D02*
X739140Y515620D01*
X739140Y508000D02*
X739140Y500380D01*
X734060Y508000D02*
X734060Y515620D01*
X734060Y508000D02*
X734060Y500380D01*
D11*
X734060Y508000D02*
X732790Y508000D01*
X800100Y562610D02*
X800100Y605790D01*
X821690Y609600D02*
X825500Y605790D01*
X829310Y609600D01*
X847090Y609600D01*
X850900Y605790D01*
X850900Y562610D01*
X847090Y558800D01*
X829310Y558800D01*
X825500Y562610D01*
X821690Y558800D01*
X800100Y605790D02*
X803910Y609600D01*
X821690Y609600D01*
X800100Y562610D02*
X803910Y558800D01*
X821690Y558800D01*
D14*
X812168Y554365D02*
X808355Y550552D01*
X812168Y554365D02*
X812168Y542925D01*
X808355Y542925D02*
X815982Y542925D01*
X833755Y542925D02*
X841382Y542925D01*
X833755Y542925D02*
X841382Y550552D01*
X841382Y552458D01*
X839475Y554365D01*
X835662Y554365D01*
X833755Y552458D01*
X802642Y615315D02*
X800735Y617222D01*
X802642Y615315D02*
X804548Y615315D01*
X806455Y617222D01*
X806455Y626755D01*
X804548Y626755D02*
X808362Y626755D01*
X812429Y626755D02*
X812429Y615315D01*
X812429Y626755D02*
X818149Y626755D01*
X820055Y624848D01*
X820055Y621035D01*
X818149Y619128D01*
X812429Y619128D01*
X827936Y624848D02*
X831749Y626755D01*
X827936Y624848D02*
X824123Y621035D01*
X824123Y617222D01*
X826030Y615315D01*
X829843Y615315D01*
X831749Y617222D01*
X831749Y619128D01*
X829843Y621035D01*
X824123Y621035D01*
D11*
X736600Y605790D02*
X736600Y562610D01*
X762000Y605790D02*
X758190Y609600D01*
X762000Y605790D02*
X765810Y609600D01*
X783590Y609600D01*
X787400Y605790D01*
X787400Y562610D01*
X783590Y558800D01*
X765810Y558800D01*
X762000Y562610D01*
X758190Y558800D01*
X736600Y605790D02*
X740410Y609600D01*
X758190Y609600D01*
X736600Y562610D02*
X740410Y558800D01*
X758190Y558800D01*
D14*
X748668Y554365D02*
X744855Y550552D01*
X748668Y554365D02*
X748668Y542925D01*
X744855Y542925D02*
X752482Y542925D01*
X770255Y542925D02*
X777882Y542925D01*
X770255Y542925D02*
X777882Y550552D01*
X777882Y552458D01*
X775975Y554365D01*
X772162Y554365D01*
X770255Y552458D01*
X739142Y615315D02*
X737235Y617222D01*
X739142Y615315D02*
X741048Y615315D01*
X742955Y617222D01*
X742955Y626755D01*
X741048Y626755D02*
X744862Y626755D01*
X748929Y626755D02*
X748929Y615315D01*
X748929Y626755D02*
X754649Y626755D01*
X756555Y624848D01*
X756555Y621035D01*
X754649Y619128D01*
X748929Y619128D01*
X760623Y626755D02*
X768249Y626755D01*
X768249Y624848D01*
X760623Y617222D01*
X760623Y615315D01*
D11*
X647700Y461010D02*
X444500Y461010D01*
X444500Y402590D02*
X647700Y402590D01*
X647700Y461010D01*
X444500Y461010D02*
X444500Y441960D01*
X444500Y421640D02*
X444500Y402590D01*
X444500Y421640D02*
X444747Y421643D01*
X444995Y421652D01*
X445242Y421667D01*
X445488Y421688D01*
X445734Y421715D01*
X445979Y421748D01*
X446224Y421787D01*
X446467Y421832D01*
X446709Y421883D01*
X446950Y421940D01*
X447189Y422002D01*
X447427Y422071D01*
X447663Y422145D01*
X447897Y422225D01*
X448129Y422310D01*
X448359Y422402D01*
X448587Y422498D01*
X448812Y422601D01*
X449035Y422708D01*
X449255Y422822D01*
X449472Y422940D01*
X449687Y423064D01*
X449898Y423193D01*
X450106Y423327D01*
X450311Y423466D01*
X450512Y423610D01*
X450710Y423758D01*
X450904Y423912D01*
X451094Y424070D01*
X451280Y424233D01*
X451462Y424400D01*
X451640Y424572D01*
X451814Y424748D01*
X451984Y424928D01*
X452149Y425113D01*
X452309Y425301D01*
X452465Y425493D01*
X452617Y425689D01*
X452763Y425888D01*
X452905Y426091D01*
X453041Y426298D01*
X453173Y426507D01*
X453299Y426720D01*
X453420Y426936D01*
X453536Y427154D01*
X453646Y427376D01*
X453751Y427600D01*
X453851Y427826D01*
X453945Y428055D01*
X454033Y428286D01*
X454116Y428520D01*
X454193Y428755D01*
X454264Y428992D01*
X454330Y429230D01*
X454389Y429470D01*
X454443Y429712D01*
X454491Y429955D01*
X454533Y430198D01*
X454569Y430443D01*
X454599Y430689D01*
X454623Y430935D01*
X454641Y431182D01*
X454653Y431429D01*
X454659Y431676D01*
X454659Y431924D01*
X454653Y432171D01*
X454641Y432418D01*
X454623Y432665D01*
X454599Y432911D01*
X454569Y433157D01*
X454533Y433402D01*
X454491Y433645D01*
X454443Y433888D01*
X454389Y434130D01*
X454330Y434370D01*
X454264Y434608D01*
X454193Y434845D01*
X454116Y435080D01*
X454033Y435314D01*
X453945Y435545D01*
X453851Y435774D01*
X453751Y436000D01*
X453646Y436224D01*
X453536Y436446D01*
X453420Y436664D01*
X453299Y436880D01*
X453173Y437093D01*
X453041Y437302D01*
X452905Y437509D01*
X452763Y437712D01*
X452617Y437911D01*
X452465Y438107D01*
X452309Y438299D01*
X452149Y438487D01*
X451984Y438672D01*
X451814Y438852D01*
X451640Y439028D01*
X451462Y439200D01*
X451280Y439367D01*
X451094Y439530D01*
X450904Y439688D01*
X450710Y439842D01*
X450512Y439990D01*
X450311Y440134D01*
X450106Y440273D01*
X449898Y440407D01*
X449687Y440536D01*
X449472Y440660D01*
X449255Y440778D01*
X449035Y440892D01*
X448812Y440999D01*
X448587Y441102D01*
X448359Y441198D01*
X448129Y441290D01*
X447897Y441375D01*
X447663Y441455D01*
X447427Y441529D01*
X447189Y441598D01*
X446950Y441660D01*
X446709Y441717D01*
X446467Y441768D01*
X446224Y441813D01*
X445979Y441852D01*
X445734Y441885D01*
X445488Y441912D01*
X445242Y441933D01*
X444995Y441948D01*
X444747Y441957D01*
X444500Y441960D01*
D14*
X478155Y419738D02*
X478155Y415925D01*
X478155Y417832D02*
X466715Y417832D01*
X466715Y419738D02*
X466715Y415925D01*
X466715Y429441D02*
X468622Y431347D01*
X466715Y429441D02*
X466715Y425628D01*
X468622Y423721D01*
X476248Y423721D01*
X478155Y425628D01*
X478155Y429441D01*
X476248Y431347D01*
X468622Y435415D02*
X466715Y437322D01*
X466715Y441135D01*
X468622Y443041D01*
X470529Y443041D01*
X472435Y441135D01*
X472435Y439228D01*
X472435Y441135D02*
X474342Y443041D01*
X476248Y443041D01*
X478155Y441135D01*
X478155Y437322D01*
X476248Y435415D01*
X522605Y437525D02*
X522605Y426085D01*
X526418Y433712D02*
X522605Y437525D01*
X526418Y433712D02*
X530232Y437525D01*
X530232Y426085D01*
X534299Y426085D02*
X534299Y433712D01*
X538112Y437525D01*
X541925Y433712D01*
X541925Y426085D01*
X541925Y431805D02*
X534299Y431805D01*
X545993Y437525D02*
X553619Y426085D01*
X545993Y426085D02*
X553619Y437525D01*
X557687Y426085D02*
X565313Y426085D01*
X557687Y426085D02*
X565313Y433712D01*
X565313Y435618D01*
X563407Y437525D01*
X559594Y437525D01*
X557687Y435618D01*
X569381Y435618D02*
X569381Y427992D01*
X569381Y435618D02*
X571288Y437525D01*
X575101Y437525D01*
X577007Y435618D01*
X577007Y427992D01*
X575101Y426085D01*
X571288Y426085D01*
X569381Y427992D01*
X577007Y435618D01*
X581075Y426085D02*
X588701Y426085D01*
X581075Y426085D02*
X588701Y433712D01*
X588701Y435618D01*
X586795Y437525D01*
X582981Y437525D01*
X581075Y435618D01*
D11*
X504190Y370840D02*
X461010Y370840D01*
X461010Y340360D02*
X504190Y340360D01*
X506730Y342900D02*
X506730Y368300D01*
X458470Y368300D02*
X458470Y342900D01*
X504190Y370840D02*
X504290Y370838D01*
X504389Y370832D01*
X504489Y370822D01*
X504587Y370809D01*
X504686Y370791D01*
X504783Y370770D01*
X504879Y370745D01*
X504975Y370716D01*
X505069Y370683D01*
X505162Y370647D01*
X505253Y370607D01*
X505343Y370563D01*
X505431Y370516D01*
X505517Y370466D01*
X505601Y370412D01*
X505683Y370355D01*
X505762Y370295D01*
X505840Y370231D01*
X505914Y370165D01*
X505986Y370096D01*
X506055Y370024D01*
X506121Y369950D01*
X506185Y369872D01*
X506245Y369793D01*
X506302Y369711D01*
X506356Y369627D01*
X506406Y369541D01*
X506453Y369453D01*
X506497Y369363D01*
X506537Y369272D01*
X506573Y369179D01*
X506606Y369085D01*
X506635Y368989D01*
X506660Y368893D01*
X506681Y368796D01*
X506699Y368697D01*
X506712Y368599D01*
X506722Y368499D01*
X506728Y368400D01*
X506730Y368300D01*
X461010Y370840D02*
X460910Y370838D01*
X460811Y370832D01*
X460711Y370822D01*
X460613Y370809D01*
X460514Y370791D01*
X460417Y370770D01*
X460321Y370745D01*
X460225Y370716D01*
X460131Y370683D01*
X460038Y370647D01*
X459947Y370607D01*
X459857Y370563D01*
X459769Y370516D01*
X459683Y370466D01*
X459599Y370412D01*
X459517Y370355D01*
X459438Y370295D01*
X459360Y370231D01*
X459286Y370165D01*
X459214Y370096D01*
X459145Y370024D01*
X459079Y369950D01*
X459015Y369872D01*
X458955Y369793D01*
X458898Y369711D01*
X458844Y369627D01*
X458794Y369541D01*
X458747Y369453D01*
X458703Y369363D01*
X458663Y369272D01*
X458627Y369179D01*
X458594Y369085D01*
X458565Y368989D01*
X458540Y368893D01*
X458519Y368796D01*
X458501Y368697D01*
X458488Y368599D01*
X458478Y368499D01*
X458472Y368400D01*
X458470Y368300D01*
X504190Y340360D02*
X504290Y340362D01*
X504389Y340368D01*
X504489Y340378D01*
X504587Y340391D01*
X504686Y340409D01*
X504783Y340430D01*
X504879Y340455D01*
X504975Y340484D01*
X505069Y340517D01*
X505162Y340553D01*
X505253Y340593D01*
X505343Y340637D01*
X505431Y340684D01*
X505517Y340734D01*
X505601Y340788D01*
X505683Y340845D01*
X505762Y340905D01*
X505840Y340969D01*
X505914Y341035D01*
X505986Y341104D01*
X506055Y341176D01*
X506121Y341250D01*
X506185Y341328D01*
X506245Y341407D01*
X506302Y341489D01*
X506356Y341573D01*
X506406Y341659D01*
X506453Y341747D01*
X506497Y341837D01*
X506537Y341928D01*
X506573Y342021D01*
X506606Y342115D01*
X506635Y342211D01*
X506660Y342307D01*
X506681Y342404D01*
X506699Y342503D01*
X506712Y342601D01*
X506722Y342701D01*
X506728Y342800D01*
X506730Y342900D01*
X461010Y340360D02*
X460910Y340362D01*
X460811Y340368D01*
X460711Y340378D01*
X460613Y340391D01*
X460514Y340409D01*
X460417Y340430D01*
X460321Y340455D01*
X460225Y340484D01*
X460131Y340517D01*
X460038Y340553D01*
X459947Y340593D01*
X459857Y340637D01*
X459769Y340684D01*
X459683Y340734D01*
X459599Y340788D01*
X459517Y340845D01*
X459438Y340905D01*
X459360Y340969D01*
X459286Y341035D01*
X459214Y341104D01*
X459145Y341176D01*
X459079Y341250D01*
X459015Y341328D01*
X458955Y341407D01*
X458898Y341489D01*
X458844Y341573D01*
X458794Y341659D01*
X458747Y341747D01*
X458703Y341837D01*
X458663Y341928D01*
X458627Y342021D01*
X458594Y342115D01*
X458565Y342211D01*
X458540Y342307D01*
X458519Y342404D01*
X458501Y342503D01*
X458488Y342601D01*
X458478Y342701D01*
X458472Y342800D01*
X458470Y342900D01*
X485140Y355600D02*
X486410Y355600D01*
D12*
X485140Y355600D02*
X485140Y363220D01*
X485140Y355600D02*
X485140Y347980D01*
X480060Y355600D02*
X480060Y363220D01*
X480060Y355600D02*
X480060Y347980D01*
D11*
X480060Y355600D02*
X478790Y355600D01*
X524510Y370840D02*
X567690Y370840D01*
X567690Y340360D02*
X524510Y340360D01*
X570230Y342900D02*
X570230Y368300D01*
X521970Y368300D02*
X521970Y342900D01*
X567690Y370840D02*
X567790Y370838D01*
X567889Y370832D01*
X567989Y370822D01*
X568087Y370809D01*
X568186Y370791D01*
X568283Y370770D01*
X568379Y370745D01*
X568475Y370716D01*
X568569Y370683D01*
X568662Y370647D01*
X568753Y370607D01*
X568843Y370563D01*
X568931Y370516D01*
X569017Y370466D01*
X569101Y370412D01*
X569183Y370355D01*
X569262Y370295D01*
X569340Y370231D01*
X569414Y370165D01*
X569486Y370096D01*
X569555Y370024D01*
X569621Y369950D01*
X569685Y369872D01*
X569745Y369793D01*
X569802Y369711D01*
X569856Y369627D01*
X569906Y369541D01*
X569953Y369453D01*
X569997Y369363D01*
X570037Y369272D01*
X570073Y369179D01*
X570106Y369085D01*
X570135Y368989D01*
X570160Y368893D01*
X570181Y368796D01*
X570199Y368697D01*
X570212Y368599D01*
X570222Y368499D01*
X570228Y368400D01*
X570230Y368300D01*
X524510Y370840D02*
X524410Y370838D01*
X524311Y370832D01*
X524211Y370822D01*
X524113Y370809D01*
X524014Y370791D01*
X523917Y370770D01*
X523821Y370745D01*
X523725Y370716D01*
X523631Y370683D01*
X523538Y370647D01*
X523447Y370607D01*
X523357Y370563D01*
X523269Y370516D01*
X523183Y370466D01*
X523099Y370412D01*
X523017Y370355D01*
X522938Y370295D01*
X522860Y370231D01*
X522786Y370165D01*
X522714Y370096D01*
X522645Y370024D01*
X522579Y369950D01*
X522515Y369872D01*
X522455Y369793D01*
X522398Y369711D01*
X522344Y369627D01*
X522294Y369541D01*
X522247Y369453D01*
X522203Y369363D01*
X522163Y369272D01*
X522127Y369179D01*
X522094Y369085D01*
X522065Y368989D01*
X522040Y368893D01*
X522019Y368796D01*
X522001Y368697D01*
X521988Y368599D01*
X521978Y368499D01*
X521972Y368400D01*
X521970Y368300D01*
X567690Y340360D02*
X567790Y340362D01*
X567889Y340368D01*
X567989Y340378D01*
X568087Y340391D01*
X568186Y340409D01*
X568283Y340430D01*
X568379Y340455D01*
X568475Y340484D01*
X568569Y340517D01*
X568662Y340553D01*
X568753Y340593D01*
X568843Y340637D01*
X568931Y340684D01*
X569017Y340734D01*
X569101Y340788D01*
X569183Y340845D01*
X569262Y340905D01*
X569340Y340969D01*
X569414Y341035D01*
X569486Y341104D01*
X569555Y341176D01*
X569621Y341250D01*
X569685Y341328D01*
X569745Y341407D01*
X569802Y341489D01*
X569856Y341573D01*
X569906Y341659D01*
X569953Y341747D01*
X569997Y341837D01*
X570037Y341928D01*
X570073Y342021D01*
X570106Y342115D01*
X570135Y342211D01*
X570160Y342307D01*
X570181Y342404D01*
X570199Y342503D01*
X570212Y342601D01*
X570222Y342701D01*
X570228Y342800D01*
X570230Y342900D01*
X524510Y340360D02*
X524410Y340362D01*
X524311Y340368D01*
X524211Y340378D01*
X524113Y340391D01*
X524014Y340409D01*
X523917Y340430D01*
X523821Y340455D01*
X523725Y340484D01*
X523631Y340517D01*
X523538Y340553D01*
X523447Y340593D01*
X523357Y340637D01*
X523269Y340684D01*
X523183Y340734D01*
X523099Y340788D01*
X523017Y340845D01*
X522938Y340905D01*
X522860Y340969D01*
X522786Y341035D01*
X522714Y341104D01*
X522645Y341176D01*
X522579Y341250D01*
X522515Y341328D01*
X522455Y341407D01*
X522398Y341489D01*
X522344Y341573D01*
X522294Y341659D01*
X522247Y341747D01*
X522203Y341837D01*
X522163Y341928D01*
X522127Y342021D01*
X522094Y342115D01*
X522065Y342211D01*
X522040Y342307D01*
X522019Y342404D01*
X522001Y342503D01*
X521988Y342601D01*
X521978Y342701D01*
X521972Y342800D01*
X521970Y342900D01*
X548640Y355600D02*
X549910Y355600D01*
D12*
X548640Y355600D02*
X548640Y363220D01*
X548640Y355600D02*
X548640Y347980D01*
X543560Y355600D02*
X543560Y363220D01*
X543560Y355600D02*
X543560Y347980D01*
D11*
X543560Y355600D02*
X542290Y355600D01*
X403860Y410210D02*
X403860Y453390D01*
X434340Y453390D02*
X434340Y410210D01*
X431800Y455930D02*
X406400Y455930D01*
X406400Y407670D02*
X431800Y407670D01*
X403860Y453390D02*
X403862Y453490D01*
X403868Y453589D01*
X403878Y453689D01*
X403891Y453787D01*
X403909Y453886D01*
X403930Y453983D01*
X403955Y454079D01*
X403984Y454175D01*
X404017Y454269D01*
X404053Y454362D01*
X404093Y454453D01*
X404137Y454543D01*
X404184Y454631D01*
X404234Y454717D01*
X404288Y454801D01*
X404345Y454883D01*
X404405Y454962D01*
X404469Y455040D01*
X404535Y455114D01*
X404604Y455186D01*
X404676Y455255D01*
X404750Y455321D01*
X404828Y455385D01*
X404907Y455445D01*
X404989Y455502D01*
X405073Y455556D01*
X405159Y455606D01*
X405247Y455653D01*
X405337Y455697D01*
X405428Y455737D01*
X405521Y455773D01*
X405615Y455806D01*
X405711Y455835D01*
X405807Y455860D01*
X405904Y455881D01*
X406003Y455899D01*
X406101Y455912D01*
X406201Y455922D01*
X406300Y455928D01*
X406400Y455930D01*
X403860Y410210D02*
X403862Y410110D01*
X403868Y410011D01*
X403878Y409911D01*
X403891Y409813D01*
X403909Y409714D01*
X403930Y409617D01*
X403955Y409521D01*
X403984Y409425D01*
X404017Y409331D01*
X404053Y409238D01*
X404093Y409147D01*
X404137Y409057D01*
X404184Y408969D01*
X404234Y408883D01*
X404288Y408799D01*
X404345Y408717D01*
X404405Y408638D01*
X404469Y408560D01*
X404535Y408486D01*
X404604Y408414D01*
X404676Y408345D01*
X404750Y408279D01*
X404828Y408215D01*
X404907Y408155D01*
X404989Y408098D01*
X405073Y408044D01*
X405159Y407994D01*
X405247Y407947D01*
X405337Y407903D01*
X405428Y407863D01*
X405521Y407827D01*
X405615Y407794D01*
X405711Y407765D01*
X405807Y407740D01*
X405904Y407719D01*
X406003Y407701D01*
X406101Y407688D01*
X406201Y407678D01*
X406300Y407672D01*
X406400Y407670D01*
X434340Y453390D02*
X434338Y453490D01*
X434332Y453589D01*
X434322Y453689D01*
X434309Y453787D01*
X434291Y453886D01*
X434270Y453983D01*
X434245Y454079D01*
X434216Y454175D01*
X434183Y454269D01*
X434147Y454362D01*
X434107Y454453D01*
X434063Y454543D01*
X434016Y454631D01*
X433966Y454717D01*
X433912Y454801D01*
X433855Y454883D01*
X433795Y454962D01*
X433731Y455040D01*
X433665Y455114D01*
X433596Y455186D01*
X433524Y455255D01*
X433450Y455321D01*
X433372Y455385D01*
X433293Y455445D01*
X433211Y455502D01*
X433127Y455556D01*
X433041Y455606D01*
X432953Y455653D01*
X432863Y455697D01*
X432772Y455737D01*
X432679Y455773D01*
X432585Y455806D01*
X432489Y455835D01*
X432393Y455860D01*
X432296Y455881D01*
X432197Y455899D01*
X432099Y455912D01*
X431999Y455922D01*
X431900Y455928D01*
X431800Y455930D01*
X434340Y410210D02*
X434338Y410110D01*
X434332Y410011D01*
X434322Y409911D01*
X434309Y409813D01*
X434291Y409714D01*
X434270Y409617D01*
X434245Y409521D01*
X434216Y409425D01*
X434183Y409331D01*
X434147Y409238D01*
X434107Y409147D01*
X434063Y409057D01*
X434016Y408969D01*
X433966Y408883D01*
X433912Y408799D01*
X433855Y408717D01*
X433795Y408638D01*
X433731Y408560D01*
X433665Y408486D01*
X433596Y408414D01*
X433524Y408345D01*
X433450Y408279D01*
X433372Y408215D01*
X433293Y408155D01*
X433211Y408098D01*
X433127Y408044D01*
X433041Y407994D01*
X432953Y407947D01*
X432863Y407903D01*
X432772Y407863D01*
X432679Y407827D01*
X432585Y407794D01*
X432489Y407765D01*
X432393Y407740D01*
X432296Y407719D01*
X432197Y407701D01*
X432099Y407688D01*
X431999Y407678D01*
X431900Y407672D01*
X431800Y407670D01*
X419100Y434340D02*
X419100Y435610D01*
D12*
X419100Y434340D02*
X411480Y434340D01*
X419100Y434340D02*
X426720Y434340D01*
X419100Y429260D02*
X411480Y429260D01*
X419100Y429260D02*
X426720Y429260D01*
D11*
X419100Y429260D02*
X419100Y427990D01*
X588010Y340360D02*
X631190Y340360D01*
X631190Y370840D02*
X588010Y370840D01*
X585470Y368300D02*
X585470Y342900D01*
X633730Y342900D02*
X633730Y368300D01*
X588010Y340360D02*
X587910Y340362D01*
X587811Y340368D01*
X587711Y340378D01*
X587613Y340391D01*
X587514Y340409D01*
X587417Y340430D01*
X587321Y340455D01*
X587225Y340484D01*
X587131Y340517D01*
X587038Y340553D01*
X586947Y340593D01*
X586857Y340637D01*
X586769Y340684D01*
X586683Y340734D01*
X586599Y340788D01*
X586517Y340845D01*
X586438Y340905D01*
X586360Y340969D01*
X586286Y341035D01*
X586214Y341104D01*
X586145Y341176D01*
X586079Y341250D01*
X586015Y341328D01*
X585955Y341407D01*
X585898Y341489D01*
X585844Y341573D01*
X585794Y341659D01*
X585747Y341747D01*
X585703Y341837D01*
X585663Y341928D01*
X585627Y342021D01*
X585594Y342115D01*
X585565Y342211D01*
X585540Y342307D01*
X585519Y342404D01*
X585501Y342503D01*
X585488Y342601D01*
X585478Y342701D01*
X585472Y342800D01*
X585470Y342900D01*
X631190Y340360D02*
X631290Y340362D01*
X631389Y340368D01*
X631489Y340378D01*
X631587Y340391D01*
X631686Y340409D01*
X631783Y340430D01*
X631879Y340455D01*
X631975Y340484D01*
X632069Y340517D01*
X632162Y340553D01*
X632253Y340593D01*
X632343Y340637D01*
X632431Y340684D01*
X632517Y340734D01*
X632601Y340788D01*
X632683Y340845D01*
X632762Y340905D01*
X632840Y340969D01*
X632914Y341035D01*
X632986Y341104D01*
X633055Y341176D01*
X633121Y341250D01*
X633185Y341328D01*
X633245Y341407D01*
X633302Y341489D01*
X633356Y341573D01*
X633406Y341659D01*
X633453Y341747D01*
X633497Y341837D01*
X633537Y341928D01*
X633573Y342021D01*
X633606Y342115D01*
X633635Y342211D01*
X633660Y342307D01*
X633681Y342404D01*
X633699Y342503D01*
X633712Y342601D01*
X633722Y342701D01*
X633728Y342800D01*
X633730Y342900D01*
X588010Y370840D02*
X587910Y370838D01*
X587811Y370832D01*
X587711Y370822D01*
X587613Y370809D01*
X587514Y370791D01*
X587417Y370770D01*
X587321Y370745D01*
X587225Y370716D01*
X587131Y370683D01*
X587038Y370647D01*
X586947Y370607D01*
X586857Y370563D01*
X586769Y370516D01*
X586683Y370466D01*
X586599Y370412D01*
X586517Y370355D01*
X586438Y370295D01*
X586360Y370231D01*
X586286Y370165D01*
X586214Y370096D01*
X586145Y370024D01*
X586079Y369950D01*
X586015Y369872D01*
X585955Y369793D01*
X585898Y369711D01*
X585844Y369627D01*
X585794Y369541D01*
X585747Y369453D01*
X585703Y369363D01*
X585663Y369272D01*
X585627Y369179D01*
X585594Y369085D01*
X585565Y368989D01*
X585540Y368893D01*
X585519Y368796D01*
X585501Y368697D01*
X585488Y368599D01*
X585478Y368499D01*
X585472Y368400D01*
X585470Y368300D01*
X631190Y370840D02*
X631290Y370838D01*
X631389Y370832D01*
X631489Y370822D01*
X631587Y370809D01*
X631686Y370791D01*
X631783Y370770D01*
X631879Y370745D01*
X631975Y370716D01*
X632069Y370683D01*
X632162Y370647D01*
X632253Y370607D01*
X632343Y370563D01*
X632431Y370516D01*
X632517Y370466D01*
X632601Y370412D01*
X632683Y370355D01*
X632762Y370295D01*
X632840Y370231D01*
X632914Y370165D01*
X632986Y370096D01*
X633055Y370024D01*
X633121Y369950D01*
X633185Y369872D01*
X633245Y369793D01*
X633302Y369711D01*
X633356Y369627D01*
X633406Y369541D01*
X633453Y369453D01*
X633497Y369363D01*
X633537Y369272D01*
X633573Y369179D01*
X633606Y369085D01*
X633635Y368989D01*
X633660Y368893D01*
X633681Y368796D01*
X633699Y368697D01*
X633712Y368599D01*
X633722Y368499D01*
X633728Y368400D01*
X633730Y368300D01*
X607060Y355600D02*
X605790Y355600D01*
D12*
X607060Y355600D02*
X607060Y347980D01*
X607060Y355600D02*
X607060Y363220D01*
X612140Y355600D02*
X612140Y347980D01*
X612140Y355600D02*
X612140Y363220D01*
D11*
X612140Y355600D02*
X613410Y355600D01*
X491490Y523240D02*
X448310Y523240D01*
X448310Y492760D02*
X491490Y492760D01*
X494030Y495300D02*
X494030Y520700D01*
X445770Y520700D02*
X445770Y495300D01*
X491490Y523240D02*
X491590Y523238D01*
X491689Y523232D01*
X491789Y523222D01*
X491887Y523209D01*
X491986Y523191D01*
X492083Y523170D01*
X492179Y523145D01*
X492275Y523116D01*
X492369Y523083D01*
X492462Y523047D01*
X492553Y523007D01*
X492643Y522963D01*
X492731Y522916D01*
X492817Y522866D01*
X492901Y522812D01*
X492983Y522755D01*
X493062Y522695D01*
X493140Y522631D01*
X493214Y522565D01*
X493286Y522496D01*
X493355Y522424D01*
X493421Y522350D01*
X493485Y522272D01*
X493545Y522193D01*
X493602Y522111D01*
X493656Y522027D01*
X493706Y521941D01*
X493753Y521853D01*
X493797Y521763D01*
X493837Y521672D01*
X493873Y521579D01*
X493906Y521485D01*
X493935Y521389D01*
X493960Y521293D01*
X493981Y521196D01*
X493999Y521097D01*
X494012Y520999D01*
X494022Y520899D01*
X494028Y520800D01*
X494030Y520700D01*
X448310Y523240D02*
X448210Y523238D01*
X448111Y523232D01*
X448011Y523222D01*
X447913Y523209D01*
X447814Y523191D01*
X447717Y523170D01*
X447621Y523145D01*
X447525Y523116D01*
X447431Y523083D01*
X447338Y523047D01*
X447247Y523007D01*
X447157Y522963D01*
X447069Y522916D01*
X446983Y522866D01*
X446899Y522812D01*
X446817Y522755D01*
X446738Y522695D01*
X446660Y522631D01*
X446586Y522565D01*
X446514Y522496D01*
X446445Y522424D01*
X446379Y522350D01*
X446315Y522272D01*
X446255Y522193D01*
X446198Y522111D01*
X446144Y522027D01*
X446094Y521941D01*
X446047Y521853D01*
X446003Y521763D01*
X445963Y521672D01*
X445927Y521579D01*
X445894Y521485D01*
X445865Y521389D01*
X445840Y521293D01*
X445819Y521196D01*
X445801Y521097D01*
X445788Y520999D01*
X445778Y520899D01*
X445772Y520800D01*
X445770Y520700D01*
X491490Y492760D02*
X491590Y492762D01*
X491689Y492768D01*
X491789Y492778D01*
X491887Y492791D01*
X491986Y492809D01*
X492083Y492830D01*
X492179Y492855D01*
X492275Y492884D01*
X492369Y492917D01*
X492462Y492953D01*
X492553Y492993D01*
X492643Y493037D01*
X492731Y493084D01*
X492817Y493134D01*
X492901Y493188D01*
X492983Y493245D01*
X493062Y493305D01*
X493140Y493369D01*
X493214Y493435D01*
X493286Y493504D01*
X493355Y493576D01*
X493421Y493650D01*
X493485Y493728D01*
X493545Y493807D01*
X493602Y493889D01*
X493656Y493973D01*
X493706Y494059D01*
X493753Y494147D01*
X493797Y494237D01*
X493837Y494328D01*
X493873Y494421D01*
X493906Y494515D01*
X493935Y494611D01*
X493960Y494707D01*
X493981Y494804D01*
X493999Y494903D01*
X494012Y495001D01*
X494022Y495101D01*
X494028Y495200D01*
X494030Y495300D01*
X448310Y492760D02*
X448210Y492762D01*
X448111Y492768D01*
X448011Y492778D01*
X447913Y492791D01*
X447814Y492809D01*
X447717Y492830D01*
X447621Y492855D01*
X447525Y492884D01*
X447431Y492917D01*
X447338Y492953D01*
X447247Y492993D01*
X447157Y493037D01*
X447069Y493084D01*
X446983Y493134D01*
X446899Y493188D01*
X446817Y493245D01*
X446738Y493305D01*
X446660Y493369D01*
X446586Y493435D01*
X446514Y493504D01*
X446445Y493576D01*
X446379Y493650D01*
X446315Y493728D01*
X446255Y493807D01*
X446198Y493889D01*
X446144Y493973D01*
X446094Y494059D01*
X446047Y494147D01*
X446003Y494237D01*
X445963Y494328D01*
X445927Y494421D01*
X445894Y494515D01*
X445865Y494611D01*
X445840Y494707D01*
X445819Y494804D01*
X445801Y494903D01*
X445788Y495001D01*
X445778Y495101D01*
X445772Y495200D01*
X445770Y495300D01*
X472440Y508000D02*
X473710Y508000D01*
D12*
X472440Y508000D02*
X472440Y515620D01*
X472440Y508000D02*
X472440Y500380D01*
X467360Y508000D02*
X467360Y515620D01*
X467360Y508000D02*
X467360Y500380D01*
D11*
X467360Y508000D02*
X466090Y508000D01*
X673100Y562610D02*
X673100Y605790D01*
X694690Y609600D02*
X698500Y605790D01*
X702310Y609600D01*
X720090Y609600D01*
X723900Y605790D01*
X723900Y562610D01*
X720090Y558800D01*
X702310Y558800D01*
X698500Y562610D01*
X694690Y558800D01*
X673100Y605790D02*
X676910Y609600D01*
X694690Y609600D01*
X673100Y562610D02*
X676910Y558800D01*
X694690Y558800D01*
D14*
X685168Y554365D02*
X681355Y550552D01*
X685168Y554365D02*
X685168Y542925D01*
X681355Y542925D02*
X688982Y542925D01*
X706755Y542925D02*
X714382Y542925D01*
X706755Y542925D02*
X714382Y550552D01*
X714382Y552458D01*
X712475Y554365D01*
X708662Y554365D01*
X706755Y552458D01*
X675642Y615315D02*
X673735Y617222D01*
X675642Y615315D02*
X677548Y615315D01*
X679455Y617222D01*
X679455Y626755D01*
X677548Y626755D02*
X681362Y626755D01*
X685429Y626755D02*
X685429Y615315D01*
X685429Y626755D02*
X691149Y626755D01*
X693055Y624848D01*
X693055Y621035D01*
X691149Y619128D01*
X685429Y619128D01*
X697123Y624848D02*
X699030Y626755D01*
X702843Y626755D01*
X704749Y624848D01*
X704749Y622942D01*
X702843Y621035D01*
X700936Y621035D01*
X702843Y621035D02*
X704749Y619128D01*
X704749Y617222D01*
X702843Y615315D01*
X699030Y615315D01*
X697123Y617222D01*
D11*
X609600Y605790D02*
X609600Y562610D01*
X635000Y605790D02*
X631190Y609600D01*
X635000Y605790D02*
X638810Y609600D01*
X656590Y609600D01*
X660400Y605790D01*
X660400Y562610D01*
X656590Y558800D01*
X638810Y558800D01*
X635000Y562610D01*
X631190Y558800D01*
X609600Y605790D02*
X613410Y609600D01*
X631190Y609600D01*
X609600Y562610D02*
X613410Y558800D01*
X631190Y558800D01*
D14*
X621668Y554365D02*
X617855Y550552D01*
X621668Y554365D02*
X621668Y542925D01*
X617855Y542925D02*
X625482Y542925D01*
X643255Y542925D02*
X650882Y542925D01*
X643255Y542925D02*
X650882Y550552D01*
X650882Y552458D01*
X648975Y554365D01*
X645162Y554365D01*
X643255Y552458D01*
X612142Y615315D02*
X610235Y617222D01*
X612142Y615315D02*
X614048Y615315D01*
X615955Y617222D01*
X615955Y626755D01*
X614048Y626755D02*
X617862Y626755D01*
X621929Y626755D02*
X621929Y615315D01*
X621929Y626755D02*
X627649Y626755D01*
X629555Y624848D01*
X629555Y621035D01*
X627649Y619128D01*
X621929Y619128D01*
X639343Y615315D02*
X639343Y626755D01*
X633623Y621035D01*
X641249Y621035D01*
D11*
X425450Y558800D02*
X412750Y558800D01*
X406400Y565150D01*
X400050Y558800D01*
X387350Y558800D01*
X381000Y565150D01*
X425450Y558800D02*
X431800Y565150D01*
X381000Y565150D02*
X374650Y558800D01*
X361950Y558800D01*
X355600Y565150D01*
X349250Y558800D02*
X336550Y558800D01*
X330200Y565150D01*
X323850Y558800D01*
X311150Y558800D01*
X349250Y558800D02*
X355600Y565150D01*
X406400Y603250D02*
X412750Y609600D01*
X387350Y609600D02*
X381000Y603250D01*
X387350Y609600D02*
X400050Y609600D01*
X406400Y603250D01*
X431800Y603250D02*
X431800Y565150D01*
X431800Y603250D02*
X425450Y609600D01*
X412750Y609600D01*
X361950Y609600D02*
X355600Y603250D01*
X361950Y609600D02*
X374650Y609600D01*
X381000Y603250D01*
X336550Y609600D02*
X330200Y603250D01*
X323850Y609600D02*
X311150Y609600D01*
X323850Y609600D02*
X330200Y603250D01*
X349250Y609600D02*
X355600Y603250D01*
X349250Y609600D02*
X336550Y609600D01*
X304800Y603250D02*
X304800Y565150D01*
X311150Y558800D01*
X304800Y603250D02*
X311150Y609600D01*
D14*
X413121Y621672D02*
X416934Y625485D01*
X416934Y614045D01*
X413121Y614045D02*
X420748Y614045D01*
X303640Y554365D02*
X299827Y550552D01*
X303640Y554365D02*
X303640Y542925D01*
X299827Y542925D02*
X307454Y542925D01*
X311521Y544832D02*
X311521Y552458D01*
X313428Y554365D01*
X317241Y554365D01*
X319148Y552458D01*
X319148Y544832D01*
X317241Y542925D01*
X313428Y542925D01*
X311521Y544832D01*
X319148Y552458D01*
X403073Y554365D02*
X404980Y552458D01*
X403073Y554365D02*
X399260Y554365D01*
X397353Y552458D01*
X397353Y550552D01*
X399260Y548645D01*
X403073Y548645D01*
X404980Y546738D01*
X404980Y544832D01*
X403073Y542925D01*
X399260Y542925D01*
X397353Y544832D01*
X409047Y546738D02*
X409047Y554365D01*
X409047Y546738D02*
X412860Y542925D01*
X416674Y546738D01*
X416674Y554365D01*
X420741Y542925D02*
X428367Y542925D01*
X420741Y542925D02*
X428367Y550552D01*
X428367Y552458D01*
X426461Y554365D01*
X422648Y554365D01*
X420741Y552458D01*
X0Y0D02*
X939800Y0D01*
X939800Y635000D01*
X881380Y635000D01*
X881380Y723900D01*
X528320Y723900D01*
X528320Y635000D01*
X0Y635000D01*
X0Y0D01*
D11*
X628650Y25400D02*
X641350Y25400D01*
X628650Y25400D02*
X622300Y31750D01*
X615950Y25400D01*
X603250Y25400D01*
X596900Y31750D01*
X641350Y25400D02*
X647700Y31750D01*
X596900Y31750D02*
X590550Y25400D01*
X577850Y25400D01*
X571500Y31750D01*
X565150Y25400D02*
X552450Y25400D01*
X546100Y31750D01*
X539750Y25400D01*
X527050Y25400D01*
X520700Y31750D01*
X565150Y25400D02*
X571500Y31750D01*
X520700Y31750D02*
X514350Y25400D01*
X501650Y25400D01*
X495300Y31750D01*
X622300Y69850D02*
X628650Y76200D01*
X603250Y76200D02*
X596900Y69850D01*
X603250Y76200D02*
X615950Y76200D01*
X622300Y69850D01*
X647700Y69850D02*
X647700Y31750D01*
X647700Y69850D02*
X641350Y76200D01*
X628650Y76200D01*
X577850Y76200D02*
X571500Y69850D01*
X577850Y76200D02*
X590550Y76200D01*
X596900Y69850D01*
X552450Y76200D02*
X546100Y69850D01*
X527050Y76200D02*
X520700Y69850D01*
X527050Y76200D02*
X539750Y76200D01*
X546100Y69850D01*
X565150Y76200D02*
X571500Y69850D01*
X565150Y76200D02*
X552450Y76200D01*
X501650Y76200D02*
X495300Y69850D01*
X501650Y76200D02*
X514350Y76200D01*
X520700Y69850D01*
X476250Y25400D02*
X469900Y31750D01*
X476250Y25400D02*
X488950Y25400D01*
X495300Y31750D01*
X495300Y69850D02*
X488950Y76200D01*
X476250Y76200D01*
X469900Y69850D01*
X463550Y25400D02*
X450850Y25400D01*
X444500Y31750D01*
X438150Y25400D01*
X425450Y25400D01*
X419100Y31750D01*
X463550Y25400D02*
X469900Y31750D01*
X419100Y31750D02*
X412750Y25400D01*
X400050Y25400D01*
X393700Y31750D01*
X387350Y25400D02*
X374650Y25400D01*
X368300Y31750D01*
X361950Y25400D01*
X349250Y25400D01*
X342900Y31750D01*
X387350Y25400D02*
X393700Y31750D01*
X342900Y31750D02*
X336550Y25400D01*
X323850Y25400D01*
X317500Y31750D01*
X444500Y69850D02*
X450850Y76200D01*
X425450Y76200D02*
X419100Y69850D01*
X425450Y76200D02*
X438150Y76200D01*
X444500Y69850D01*
X463550Y76200D02*
X469900Y69850D01*
X463550Y76200D02*
X450850Y76200D01*
X400050Y76200D02*
X393700Y69850D01*
X400050Y76200D02*
X412750Y76200D01*
X419100Y69850D01*
X374650Y76200D02*
X368300Y69850D01*
X349250Y76200D02*
X342900Y69850D01*
X349250Y76200D02*
X361950Y76200D01*
X368300Y69850D01*
X387350Y76200D02*
X393700Y69850D01*
X387350Y76200D02*
X374650Y76200D01*
X323850Y76200D02*
X317500Y69850D01*
X323850Y76200D02*
X336550Y76200D01*
X342900Y69850D01*
X298450Y25400D02*
X292100Y31750D01*
X298450Y25400D02*
X311150Y25400D01*
X317500Y31750D01*
X317500Y69850D02*
X311150Y76200D01*
X298450Y76200D01*
X292100Y69850D01*
X285750Y25400D02*
X273050Y25400D01*
X266700Y31750D01*
X260350Y25400D01*
X247650Y25400D01*
X241300Y31750D01*
X285750Y25400D02*
X292100Y31750D01*
X241300Y31750D02*
X234950Y25400D01*
X222250Y25400D01*
X215900Y31750D01*
X209550Y25400D02*
X196850Y25400D01*
X190500Y31750D01*
X209550Y25400D02*
X215900Y31750D01*
X266700Y69850D02*
X273050Y76200D01*
X247650Y76200D02*
X241300Y69850D01*
X247650Y76200D02*
X260350Y76200D01*
X266700Y69850D01*
X285750Y76200D02*
X292100Y69850D01*
X285750Y76200D02*
X273050Y76200D01*
X222250Y76200D02*
X215900Y69850D01*
X222250Y76200D02*
X234950Y76200D01*
X241300Y69850D01*
X196850Y76200D02*
X190500Y69850D01*
X209550Y76200D02*
X215900Y69850D01*
X209550Y76200D02*
X196850Y76200D01*
D16*
X635000Y63500D03*
D11*
X190500Y69850D02*
X190500Y31750D01*
D10*
X864108Y630604D02*
X868006Y634502D01*
X868006Y622808D01*
X864108Y622808D02*
X871904Y622808D01*
D14*
X803753Y71765D02*
X803753Y62232D01*
X805660Y60325D01*
X809473Y60325D01*
X811380Y62232D01*
X811380Y71765D01*
X815447Y62232D02*
X817354Y60325D01*
X821167Y60325D01*
X823074Y62232D01*
X823074Y64138D01*
X821167Y66045D01*
X817354Y66045D01*
X815447Y67952D01*
X815447Y69858D01*
X817354Y71765D01*
X821167Y71765D01*
X823074Y69858D01*
X819260Y73671D02*
X819260Y58418D01*
X827141Y69858D02*
X829048Y71765D01*
X832861Y71765D01*
X834767Y69858D01*
X834767Y67952D01*
X832861Y66045D01*
X830954Y66045D01*
X832861Y66045D02*
X834767Y64138D01*
X834767Y62232D01*
X832861Y60325D01*
X829048Y60325D01*
X827141Y62232D01*
D11*
X101600Y66040D02*
X99060Y63500D01*
X101600Y66040D02*
X104140Y63500D01*
X101600Y86360D02*
X99060Y88900D01*
X101600Y86360D02*
X104140Y88900D01*
X124460Y88900D01*
X127000Y86360D01*
X78740Y88900D02*
X76200Y86360D01*
X78740Y88900D02*
X99060Y88900D01*
X76200Y86360D02*
X76200Y66040D01*
X78740Y63500D01*
X99060Y63500D01*
X104140Y63500D02*
X124460Y63500D01*
X127000Y66040D01*
X127000Y86360D01*
D14*
X92553Y49532D02*
X94460Y47625D01*
X96366Y47625D01*
X98273Y49532D01*
X98273Y59065D01*
X96366Y59065D02*
X100180Y59065D01*
X104247Y59065D02*
X104247Y47625D01*
X104247Y59065D02*
X109967Y59065D01*
X111874Y57158D01*
X111874Y53345D01*
X109967Y51438D01*
X104247Y51438D01*
X115941Y59065D02*
X123567Y59065D01*
X115941Y59065D02*
X115941Y53345D01*
X119754Y55252D01*
X121661Y55252D01*
X123567Y53345D01*
X123567Y49532D01*
X121661Y47625D01*
X117848Y47625D01*
X115941Y49532D01*
X80859Y93345D02*
X80859Y104785D01*
X84672Y100972D01*
X88486Y104785D01*
X88486Y93345D01*
X92553Y93345D02*
X92553Y104785D01*
X98273Y104785D01*
X100180Y102878D01*
X100180Y99065D01*
X98273Y97158D01*
X92553Y97158D01*
X109967Y104785D02*
X111873Y102878D01*
X109967Y104785D02*
X106154Y104785D01*
X104247Y102878D01*
X104247Y100972D01*
X106154Y99065D01*
X109967Y99065D01*
X111873Y97158D01*
X111873Y95252D01*
X109967Y93345D01*
X106154Y93345D01*
X104247Y95252D01*
X119754Y93345D02*
X119754Y104785D01*
X115941Y104785D02*
X123567Y104785D01*
D11*
X241300Y607060D02*
X243840Y609600D01*
X241300Y607060D02*
X238760Y609600D01*
X241300Y586740D02*
X243840Y584200D01*
X241300Y586740D02*
X238760Y584200D01*
X218440Y584200D01*
X215900Y586740D01*
X264160Y584200D02*
X266700Y586740D01*
X264160Y584200D02*
X243840Y584200D01*
X266700Y586740D02*
X266700Y607060D01*
X264160Y609600D01*
X243840Y609600D01*
X238760Y609600D02*
X218440Y609600D01*
X215900Y607060D01*
X215900Y586740D01*
D10*
X219459Y613918D02*
X219459Y623070D01*
X222509Y623070D02*
X216408Y623070D01*
X225763Y623070D02*
X225763Y613918D01*
X225763Y623070D02*
X230339Y623070D01*
X231864Y621545D01*
X231864Y618494D01*
X230339Y616969D01*
X225763Y616969D01*
X235118Y621545D02*
X236644Y623070D01*
X239694Y623070D01*
X241220Y621545D01*
X241220Y620019D01*
X239694Y618494D01*
X241220Y616969D01*
X241220Y615443D01*
X239694Y613918D01*
X236644Y613918D01*
X235118Y615443D01*
X235118Y616969D01*
X236644Y618494D01*
X235118Y620019D01*
X235118Y621545D01*
X236644Y618494D02*
X239694Y618494D01*
X208284Y577350D02*
X205233Y577350D01*
X203708Y575825D01*
X203708Y569723D01*
X205233Y568198D01*
X208284Y568198D01*
X209809Y569723D01*
X209809Y575825D01*
X208284Y577350D01*
X213063Y577350D02*
X213063Y569723D01*
X214588Y568198D01*
X217639Y568198D01*
X219164Y569723D01*
X219164Y577350D01*
X225469Y577350D02*
X225469Y568198D01*
X222418Y577350D02*
X228520Y577350D01*
X231774Y568198D02*
X237875Y568198D01*
X231774Y568198D02*
X237875Y574299D01*
X237875Y575825D01*
X236349Y577350D01*
X233299Y577350D01*
X231774Y575825D01*
X241129Y568198D02*
X247230Y577350D01*
X255060Y577350D02*
X256585Y575825D01*
X255060Y577350D02*
X252009Y577350D01*
X250484Y575825D01*
X250484Y569723D01*
X252009Y568198D01*
X255060Y568198D01*
X256585Y569723D01*
X256585Y572774D01*
X253535Y572774D01*
X259839Y568198D02*
X259839Y577350D01*
X265940Y568198D01*
X265940Y577350D01*
X269194Y577350D02*
X269194Y568198D01*
X273770Y568198D01*
X275296Y569723D01*
X275296Y575825D01*
X273770Y577350D01*
X269194Y577350D01*
M02*
