M48
;GenerationSoftware,Autodesk,EAGLE,9.6.1*%
;CreationDate,2025-01-05T08:00:41Z*%
FMAT,2
ICI,OFF
METRIC,TZ,000.000
T5C0.610
T4C0.813
T3C0.914
T2C1.016
T1C3.962
%
G90
M71
T1
X55880Y58420
T2
X25400Y3810
X81280Y54610
X83820Y54610
X68580Y54610
X71120Y54610
X74930Y54610
X77470Y54610
X39370Y59690
X41910Y59690
X20320Y3810
X22860Y3810
X40640Y3810
X27940Y3810
X20320Y6350
X22860Y6350
X25400Y6350
X27940Y6350
X30480Y3810
X30480Y6350
X33020Y3810
X35560Y3810
X38100Y3810
X60960Y3810
X43180Y3810
X45720Y3810
X33020Y6350
X35560Y6350
X38100Y6350
X40640Y6350
X43180Y6350
X45720Y6350
X48260Y3810
X48260Y6350
X50800Y3810
X53340Y3810
X55880Y3810
X58420Y3810
X63500Y3810
X50800Y6350
X53340Y6350
X55880Y6350
X58420Y6350
X60960Y6350
X63500Y6350
X31750Y57150
X34290Y57150
X36830Y57150
X39370Y57150
X41910Y57150
X31750Y59690
X34290Y59690
X36830Y59690
T3
X8890Y7620
X11430Y7620
X12700Y34290
X62230Y59690
X64770Y57150
X62230Y57150
X71120Y59690
X68580Y59690
X71120Y57150
X68580Y57150
X64770Y59690
X77470Y59690
X74930Y59690
X77470Y57150
X74930Y57150
X83820Y59690
X81280Y59690
X83820Y57150
X81280Y57150
X81280Y10160
X25400Y59690
X12700Y36830
X15240Y34290
X78740Y10160
X15240Y36830
X17780Y34290
X17780Y36830
X20320Y34290
X20320Y36830
X22860Y34290
X22860Y36830
X25400Y34290
X25400Y36830
X27940Y34290
X27940Y36830
X30480Y34290
X30480Y36830
X33020Y34290
X33020Y36830
X35560Y34290
X35560Y36830
X22860Y59690
T4
X5080Y49530
X5080Y46990
X6350Y33020
X43180Y29210
X43180Y26670
X88900Y25400
X81280Y25400
X81280Y17780
X88900Y17780
X73660Y5080
X71120Y5080
X5080Y13970
X7620Y13970
X10160Y13970
X12700Y13970
X15240Y13970
X17780Y13970
X20320Y13970
X22860Y13970
X25400Y13970
X27940Y13970
X30480Y13970
X33020Y13970
X35560Y13970
X38100Y13970
X38100Y29210
X35560Y29210
X33020Y29210
X30480Y29210
X27940Y29210
X25400Y29210
X22860Y29210
X20320Y29210
X17780Y29210
X15240Y29210
X12700Y29210
X10160Y29210
X7620Y29210
X5080Y29210
X7620Y41910
X10160Y41910
X22860Y41910
X25400Y41910
X12700Y41910
X15240Y41910
X20320Y41910
X17780Y41910
X25400Y49530
X22860Y49530
X20320Y49530
X17780Y49530
X15240Y49530
X12700Y49530
X10160Y49530
X7620Y49530
X11430Y53340
X13970Y53340
X16510Y53340
X19050Y53340
X21590Y53340
X24130Y53340
X45720Y13970
X48260Y13970
X50800Y13970
X53340Y13970
X55880Y13970
X58420Y13970
X60960Y13970
X63500Y13970
X66040Y13970
X68580Y13970
X71120Y13970
X73660Y13970
X73660Y29210
X71120Y29210
X68580Y29210
X66040Y29210
X63500Y29210
X60960Y29210
X58420Y29210
X55880Y29210
X53340Y29210
X50800Y29210
X48260Y29210
X45720Y29210
X72390Y39370
X74930Y39370
X87630Y39370
X90170Y39370
X77470Y39370
X80010Y39370
X85090Y39370
X82550Y39370
X90170Y46990
X87630Y46990
X85090Y46990
X82550Y46990
X80010Y46990
X77470Y46990
X74930Y46990
X72390Y46990
X73660Y35560
X76200Y35560
X80010Y35560
X82550Y35560
X68580Y41910
X68580Y44450
X88900Y35560
X86360Y35560
X72390Y50800
X74930Y50800
X45720Y39370
X48260Y39370
X60960Y39370
X63500Y39370
X50800Y39370
X53340Y39370
X58420Y39370
X55880Y39370
X63500Y46990
X60960Y46990
X58420Y46990
X55880Y46990
X53340Y46990
X48260Y46990
X45720Y46990
X46990Y35560
X49530Y35560
X53340Y35560
X55880Y35560
X41910Y41910
X41910Y44450
X62230Y35560
X59690Y35560
X45720Y50800
X48260Y50800
X8890Y33020
X50800Y46990
T5
X69850Y53657
X40640Y46672
X36830Y25717
X31750Y46672
X72390Y34608
X30797Y43180
X62865Y43180
X28257Y24765
X66358Y60960
X54292Y54927
X69533Y50800
X30162Y18733
X16510Y35243
X26352Y31115
X83503Y37465
X54610Y37148
X39053Y32702
X30797Y32702
X79693Y42545
X40958Y52705
X78740Y62547
X66675Y45720
X82550Y62547
X59372Y60960
X23177Y45720
X43180Y45720
X41910Y32702
X21907Y27305
X26670Y33338
X27940Y32067
X59690Y26987
X65723Y48895
X38735Y35243
X52070Y54292
X85725Y61912
X62230Y31750
X51435Y37148
X13017Y45085
X34290Y39688
X37148Y33655
X24130Y39688
X26987Y58420
X60325Y57785
X19050Y35243
X45085Y17463
X27940Y17463
X40640Y27940
X39053Y8573
X49212Y22225
X34290Y22225
X44450Y36195
X55562Y20320
X23495Y22225
X40640Y21273
X50482Y22225
X55562Y24765
X35878Y24130
X19050Y2540
X7620Y6032
X40958Y12382
X47942Y9525
X20955Y9525
X47942Y16828
X33973Y16828
X18098Y16828
X53340Y7937
X15557Y8573
X26670Y15557
X24130Y19685
X21590Y23177
X43180Y10478
X35560Y54292
X66675Y52705
M30