M48
;GenerationSoftware,Autodesk,EAGLE,9.6.1*%
;CreationDate,2024-12-27T00:53:47Z*%
FMAT,2
ICI,OFF
METRIC,TZ,000.000
T11C0.610
T10C0.813
T9C0.914
T8C1.000
T7C1.016
T6C1.270
T5C1.397
T4C2.667
T3C2.750
T2C3.175
T1C3.962
%
G90
M71
T1
X154940Y142240
X251460Y142240
X284480Y109220
X58420Y142240
T2
X292100Y151130
X187960Y109220
X0Y0
X292100Y0
X0Y151130
X275590Y142950
T3
X202140Y152470
X260140Y152470
X260140Y129470
X202140Y129470
T4
X275590Y149050
X270790Y146050
T5
X30175Y151155
X6655Y151155
X13665Y151155
X23165Y151155
T6
X144780Y71120
X172720Y71120
X147320Y71120
X149860Y71120
X152400Y71120
X154940Y71120
X172720Y55880
X160020Y71120
X162560Y71120
X165100Y71120
X167640Y71120
X142240Y55880
X157480Y71120
X154940Y55880
X149860Y55880
X147320Y55880
X180340Y71120
X157480Y55880
X152400Y55880
X180340Y55880
X170180Y71120
X177800Y55880
X175260Y55880
X144780Y55880
X177800Y71120
X175260Y71120
X170180Y55880
X167640Y55880
X165100Y55880
X162560Y55880
X160020Y55880
X142240Y71120
T7
X90170Y0
X53340Y81280
X50800Y81280
X33020Y81280
X30480Y81280
X129540Y81280
X127000Y81280
X149860Y81280
X147320Y81280
X22860Y87630
X25400Y87630
X27940Y87630
X30480Y87630
X22860Y90170
X25400Y90170
X27940Y90170
X124460Y90170
X33020Y87630
X33020Y90170
X35560Y87630
X38100Y87630
X40640Y87630
X43180Y87630
X45720Y87630
X48260Y87630
X35560Y90170
X38100Y90170
X40640Y90170
X43180Y90170
X45720Y90170
X48260Y90170
X50800Y87630
X50800Y90170
X53340Y87630
X55880Y87630
X58420Y87630
X60960Y87630
X63500Y87630
X66040Y87630
X53340Y90170
X55880Y90170
X58420Y90170
X60960Y90170
X63500Y90170
X66040Y90170
X119380Y87630
X121920Y87630
X124460Y87630
X127000Y87630
X119380Y90170
X121920Y90170
X127000Y90170
X129540Y87630
X129540Y90170
X134620Y87630
X137160Y87630
X139700Y87630
X142240Y87630
X144780Y87630
X132080Y90170
X134620Y90170
X137160Y90170
X139700Y90170
X142240Y90170
X144780Y90170
X147320Y87630
X147320Y90170
X149860Y87630
X152400Y87630
X154940Y87630
X157480Y87630
X160020Y87630
X162560Y87630
X149860Y90170
X152400Y90170
X154940Y90170
X157480Y90170
X160020Y90170
X162560Y90170
X93980Y153670
X31750Y16510
X35560Y36830
X30480Y36830
X27940Y36830
X24422Y153645
X28918Y153645
X7912Y153645
X12408Y153645
X33020Y36830
X132080Y87630
X130810Y153670
X133350Y153670
X135890Y153670
X138430Y153670
X140970Y153670
X30480Y90170
X34290Y16510
X39370Y16510
X36830Y16510
X134620Y17780
X54610Y0
X269240Y85090
X271780Y85090
X271780Y100330
X274320Y100330
X266700Y85090
X264160Y85090
X269240Y100330
X266700Y100330
X250190Y123190
X252730Y123190
X255270Y123190
X257810Y123190
X85090Y0
X69850Y0
X74930Y0
X72390Y0
X219710Y5080
X242570Y5080
X245110Y20320
X247650Y20320
X245110Y5080
X185420Y0
X170180Y15240
X77470Y0
X80010Y0
X82550Y0
X87630Y0
T8
X219710Y130740
X212090Y130740
X212090Y128200
X214630Y130740
X214630Y128200
X217170Y130740
X217170Y128200
X219710Y128200
X207010Y130740
X207010Y128200
X209550Y130740
X209550Y128200
X237490Y130740
X255270Y128200
X255270Y130740
X252730Y128200
X252730Y130740
X250190Y128200
X250190Y130740
X247650Y128200
X247650Y130740
X245110Y128200
X245110Y130740
X242570Y128200
X242570Y130740
X240030Y128200
X240030Y130740
X237490Y128200
X234950Y128200
X234950Y130740
X232410Y128200
X232410Y130740
X229870Y128200
X229870Y130740
X227330Y128200
X227330Y130740
X224790Y128200
X224790Y130740
X222250Y128200
X222250Y130740
T9
X115570Y26670
X109220Y153670
X275590Y134620
X273050Y134620
X86360Y20320
X83820Y20320
X279400Y74930
X279400Y72390
X74930Y20320
X72390Y20320
X27940Y19050
X62230Y16510
X64770Y19050
X62230Y19050
X64770Y21590
X62230Y21590
X59690Y16510
X57150Y16510
X59690Y19050
X57150Y19050
X59690Y21590
X57150Y21590
X118110Y26670
X120650Y26670
X132080Y15240
X134620Y15240
X137160Y15240
X195580Y53340
X195580Y55880
X195580Y58420
X10160Y16510
X10160Y19050
X12700Y16510
X12700Y19050
X15240Y16510
X15240Y19050
X17780Y16510
X17780Y19050
X20320Y16510
X20320Y19050
X22860Y16510
X22860Y19050
X25400Y16510
X25400Y19050
X27940Y16510
X83820Y45720
X86360Y45720
X88900Y45720
X64770Y16510
X41910Y151130
X39370Y151130
X27940Y43180
X25400Y43180
X22860Y43180
X27940Y52070
X25400Y52070
X22860Y52070
X49530Y151130
X46990Y151130
X104140Y153670
X106680Y153670
T10
X217170Y34290
X217170Y31750
X217170Y16510
X217170Y13970
X200660Y8890
X200660Y6350
X209550Y114300
X207010Y114300
X259080Y36830
X259080Y34290
X259080Y31750
X259080Y29210
X259080Y26670
X259080Y24130
X259080Y21590
X259080Y19050
X259080Y16510
X259080Y13970
X259080Y11430
X259080Y8890
X259080Y6350
X259080Y3810
X274320Y3810
X274320Y6350
X274320Y8890
X274320Y11430
X274320Y13970
X274320Y16510
X274320Y19050
X274320Y21590
X274320Y24130
X274320Y26670
X274320Y29210
X274320Y31750
X274320Y34290
X274320Y36830
X274320Y39370
X271780Y39370
X229870Y107950
X222250Y107950
X251460Y104140
X254000Y104140
X266700Y104140
X269240Y104140
X256540Y104140
X259080Y104140
X264160Y104140
X261620Y104140
X271780Y104140
X274320Y104140
X274320Y111760
X271780Y111760
X269240Y111760
X266700Y111760
X264160Y111760
X261620Y111760
X259080Y111760
X256540Y111760
X254000Y111760
X251460Y111760
X205740Y121920
X210820Y121920
X280670Y39370
X280670Y34290
X3810Y33020
X3810Y27940
X213360Y16510
X213360Y11430
X237490Y3810
X229870Y3810
X82550Y151130
X80010Y151130
X67310Y119380
X69850Y119380
X82550Y119380
X85090Y119380
X72390Y119380
X80010Y119380
X77470Y119380
X85090Y127000
X82550Y127000
X80010Y127000
X77470Y127000
X74930Y127000
X72390Y127000
X69850Y127000
X67310Y127000
X69850Y115570
X62230Y115570
X73660Y113030
X73660Y115570
X69850Y111760
X62230Y111760
X67310Y140970
X74930Y140970
X80010Y130810
X87630Y130810
X82550Y115570
X85090Y115570
X90170Y119380
X90170Y127000
X77470Y140970
X85090Y140970
X64770Y127000
X64770Y124460
X71120Y30480
X73660Y30480
X86360Y30480
X86360Y38100
X76200Y30480
X78740Y30480
X83820Y30480
X81280Y30480
X83820Y38100
X81280Y38100
X78740Y38100
X76200Y38100
X73660Y38100
X71120Y38100
X71120Y52070
X73660Y52070
X86360Y52070
X86360Y59690
X76200Y52070
X78740Y52070
X83820Y52070
X81280Y52070
X83820Y59690
X81280Y59690
X78740Y59690
X76200Y59690
X73660Y59690
X71120Y59690
X256540Y88900
X259080Y88900
X271780Y88900
X274320Y88900
X261620Y88900
X264160Y88900
X269240Y88900
X266700Y88900
X274320Y96520
X271780Y96520
X269240Y96520
X266700Y96520
X264160Y96520
X261620Y96520
X259080Y96520
X256540Y96520
X259080Y77470
X259080Y74930
X259080Y72390
X259080Y69850
X259080Y67310
X259080Y64770
X259080Y62230
X259080Y59690
X259080Y57150
X259080Y54610
X259080Y52070
X259080Y49530
X259080Y46990
X259080Y44450
X274320Y44450
X142240Y11430
X274320Y46990
X274320Y49530
X274320Y52070
X274320Y54610
X274320Y57150
X274320Y59690
X274320Y62230
X274320Y64770
X274320Y67310
X274320Y69850
X274320Y72390
X274320Y74930
X274320Y77470
X88900Y63500
X81280Y63500
X57150Y76200
X54610Y76200
X52070Y76200
X49530Y76200
X46990Y76200
X278130Y128270
X275590Y128270
X60960Y96520
X53340Y96520
X156210Y96520
X148590Y96520
X33020Y43180
X40640Y43180
X35560Y46990
X43180Y46990
X101600Y3810
X104140Y3810
X116840Y3810
X119380Y3810
X106680Y3810
X109220Y3810
X114300Y3810
X111760Y3810
X121920Y3810
X124460Y3810
X124460Y11430
X121920Y11430
X119380Y11430
X116840Y11430
X114300Y11430
X111760Y11430
X109220Y11430
X106680Y11430
X104140Y11430
X101600Y11430
X71120Y3810
X73660Y3810
X86360Y3810
X88900Y3810
X76200Y3810
X78740Y3810
X83820Y3810
X81280Y3810
X91440Y3810
X93980Y3810
X93980Y11430
X91440Y11430
X88900Y11430
X86360Y11430
X83820Y11430
X81280Y11430
X78740Y11430
X76200Y11430
X73660Y11430
X71120Y11430
X41910Y3810
X44450Y3810
X57150Y3810
X59690Y3810
X46990Y3810
X49530Y3810
X54610Y3810
X52070Y3810
X62230Y3810
X64770Y3810
X64770Y11430
X62230Y11430
X59690Y11430
X57150Y11430
X54610Y11430
X52070Y11430
X49530Y11430
X46990Y11430
X44450Y11430
X41910Y11430
X132080Y3810
X134620Y3810
X147320Y3810
X149860Y3810
X137160Y3810
X139700Y3810
X144780Y3810
X142240Y3810
X152400Y3810
X154940Y3810
X154940Y11430
X152400Y11430
X149860Y11430
X147320Y11430
X144780Y11430
X139700Y11430
X137160Y11430
X134620Y11430
X132080Y11430
X10160Y25400
X12700Y25400
X15240Y25400
X17780Y25400
X20320Y25400
X22860Y25400
X25400Y25400
X27940Y25400
X30480Y25400
X33020Y25400
X35560Y25400
X38100Y25400
X38100Y33020
X35560Y33020
X33020Y33020
X30480Y33020
X27940Y33020
X25400Y33020
X22860Y33020
X20320Y33020
X17780Y33020
X15240Y33020
X12700Y33020
X10160Y33020
X162560Y3810
X165100Y3810
X167640Y3810
X170180Y3810
X172720Y3810
X175260Y3810
X177800Y3810
X180340Y3810
X182880Y3810
X185420Y3810
X187960Y3810
X190500Y3810
X190500Y11430
X187960Y11430
X185420Y11430
X182880Y11430
X180340Y11430
X177800Y11430
X175260Y11430
X172720Y11430
X170180Y11430
X167640Y11430
X165100Y11430
X162560Y11430
X7620Y3810
X10160Y3810
X12700Y3810
X15240Y3810
X17780Y3810
X20320Y3810
X22860Y3810
X25400Y3810
X27940Y3810
X30480Y3810
X33020Y3810
X35560Y3810
X35560Y11430
X33020Y11430
X30480Y11430
X27940Y11430
X25400Y11430
X22860Y11430
X20320Y11430
X17780Y11430
X15240Y11430
X12700Y11430
X10160Y11430
X7620Y11430
X116840Y147320
X119380Y147320
X121920Y147320
X124460Y147320
X124460Y154940
X121920Y154940
X119380Y154940
X116840Y154940
X114300Y143510
X116840Y143510
X119380Y143510
X121920Y143510
X124460Y143510
X180340Y46990
X177800Y46990
X165100Y46990
X162560Y46990
X175260Y46990
X172720Y46990
X167640Y46990
X170180Y46990
X160020Y46990
X157480Y46990
X154940Y46990
X152400Y46990
X149860Y46990
X147320Y46990
X144780Y46990
X142240Y46990
X142240Y31750
X144780Y31750
X74930Y119380
X149860Y31750
X152400Y31750
X154940Y31750
X157480Y31750
X160020Y31750
X162560Y31750
X165100Y31750
X167640Y31750
X170180Y31750
X172720Y31750
X175260Y31750
X177800Y31750
X180340Y31750
X107950Y59690
X110490Y59690
X123190Y59690
X123190Y67310
X113030Y59690
X115570Y59690
X120650Y59690
X118110Y59690
X120650Y67310
X118110Y67310
X115570Y67310
X113030Y67310
X110490Y67310
X107950Y67310
X107950Y44450
X110490Y44450
X123190Y44450
X125730Y44450
X113030Y44450
X115570Y44450
X120650Y44450
X118110Y44450
X125730Y52070
X123190Y52070
X120650Y52070
X118110Y52070
X115570Y52070
X113030Y52070
X110490Y52070
X107950Y52070
X105410Y55880
X107950Y55880
X110490Y55880
X113030Y55880
X115570Y55880
X118110Y55880
X120650Y55880
X123190Y55880
X125730Y55880
X105410Y31750
X107950Y31750
X120650Y31750
X123190Y31750
X110490Y31750
X113030Y31750
X118110Y31750
X115570Y31750
X123190Y39370
X120650Y39370
X118110Y39370
X115570Y39370
X113030Y39370
X110490Y39370
X107950Y39370
X105410Y39370
X3810Y67310
X3810Y64770
X68580Y38100
X68580Y35560
X68580Y59690
X68580Y57150
X248920Y111760
X248920Y109220
X105410Y67310
X105410Y64770
X254000Y96520
X254000Y93980
X274320Y80010
X271780Y80010
X102870Y39370
X102870Y36830
X5080Y11430
X5080Y8890
X39370Y11430
X39370Y8890
X99060Y11430
X99060Y8890
X68580Y11430
X68580Y8890
X7620Y33020
X7620Y30480
X129540Y11430
X129540Y8890
X182880Y31750
X182880Y34290
X160020Y11430
X160020Y8890
X54610Y134620
X62230Y134620
X59690Y151130
X57150Y151130
X167640Y19050
X175260Y19050
X71120Y151130
X68580Y151130
X147320Y31750
X219710Y96520
X222250Y96520
X234950Y96520
X234950Y104140
X224790Y96520
X227330Y96520
X232410Y96520
X229870Y96520
X232410Y104140
X229870Y104140
X227330Y104140
X224790Y104140
X222250Y104140
X219710Y104140
X219710Y81280
X222250Y81280
X234950Y81280
X234950Y88900
X224790Y81280
X227330Y81280
X232410Y81280
X229870Y81280
X232410Y88900
X229870Y88900
X227330Y88900
X224790Y88900
X222250Y88900
X219710Y88900
X219710Y26670
X222250Y26670
X234950Y26670
X237490Y26670
X224790Y26670
X227330Y26670
X232410Y26670
X229870Y26670
X240030Y26670
X242570Y26670
X242570Y34290
X240030Y34290
X237490Y34290
X234950Y34290
X232410Y34290
X229870Y34290
X227330Y34290
X224790Y34290
X222250Y34290
X219710Y34290
X219710Y66040
X222250Y66040
X234950Y66040
X237490Y66040
X224790Y66040
X227330Y66040
X232410Y66040
X229870Y66040
X240030Y66040
X242570Y66040
X242570Y73660
X240030Y73660
X237490Y73660
X234950Y73660
X232410Y73660
X229870Y73660
X227330Y73660
X224790Y73660
X222250Y73660
X219710Y73660
X219710Y49530
X222250Y49530
X234950Y49530
X237490Y49530
X224790Y49530
X227330Y49530
X232410Y49530
X229870Y49530
X240030Y49530
X242570Y49530
X242570Y57150
X240030Y57150
X237490Y57150
X234950Y57150
X232410Y57150
X229870Y57150
X227330Y57150
X224790Y57150
X222250Y57150
X219710Y57150
X210820Y87630
X210820Y80010
X219710Y8890
X222250Y8890
X224790Y8890
X227330Y8890
X229870Y8890
X232410Y8890
X234950Y8890
X237490Y8890
X240030Y8890
X242570Y8890
X245110Y8890
X247650Y8890
X247650Y16510
X245110Y16510
X242570Y16510
X240030Y16510
X237490Y16510
X234950Y16510
X232410Y16510
X229870Y16510
X227330Y16510
X224790Y16510
X222250Y16510
X219710Y16510
X240030Y45720
X240030Y38100
X233680Y45720
X233680Y38100
X228600Y45720
X228600Y38100
X222250Y45720
X222250Y38100
X232410Y120650
X240030Y120650
X228600Y120650
X220980Y120650
X228600Y116840
X220980Y116840
X228600Y113030
X220980Y113030
X217170Y104140
X217170Y101600
X217170Y88900
X217170Y86360
X217170Y57150
X217170Y54610
X217170Y73660
X217170Y71120
T11
X121602Y-1587
X100330Y1587
X101600Y-4763
X96202Y635
X97472Y-4763
X82550Y9843
X98107Y10160
X81280Y9208
X92710Y9208
X93662Y-4763
X80010Y13017
X92710Y13017
X85090Y1587
X88900Y952
X89535Y-4763
X72390Y13017
X98107Y16828
X99060Y635
X91757Y-318
X70803Y-1587
X151130Y-1270
X225107Y39053
X225742Y64135
X236855Y78105
X233680Y70803
X222567Y69850
X153670Y26987
X200025Y29527
X205740Y35243
X234950Y42228
X229870Y42863
X244475Y81280
X242252Y42228
X151130Y17463
X154623Y18098
X154940Y28575
X199390Y32067
X205740Y42228
X226060Y51117
X143828Y26987
X224472Y30480
X142240Y-4763
X162878Y59055
X161290Y60642
X134620Y61595
X135890Y2223
X232092Y60007
X230505Y70803
X128270Y73978
X130175Y-1587
X141288Y-1587
X137160Y-4763
X225742Y68898
X135890Y68263
X142875Y16192
X140970Y14287
X223520Y60007
X138113Y1270
X205740Y59055
X198437Y27622
X159703Y24765
X157163Y3810
X157163Y94615
X123507Y94615
X260032Y40323
X46990Y94297
X26987Y-4763
X156528Y34608
X142240Y34608
X153670Y-4763
X173355Y-4763
X196532Y4763
X176847Y952
X123190Y64770
X126682Y7937
X138430Y8255
X99060Y4763
X156210Y8255
X240982Y13652
X64452Y9208
X146050Y-4763
X236537Y63182
X255587Y63817
X148590Y15557
X160338Y16510
X160338Y29210
X63182Y77153
X51117Y59690
X11430Y-4763
X165735Y-4763
X141605Y85408
X157798Y85408
X180022Y19050
X207645Y105410
X218122Y6032
X162560Y17145
X184467Y36513
X21590Y18098
X75883Y15557
X177165Y36513
X76518Y34290
X75565Y23177
X172085Y50165
X91757Y50165
X91757Y23495
X21273Y28892
X76835Y27622
X168593Y42228
X81598Y35243
X182562Y48895
X81598Y24130
X103187Y48577
X100012Y24765
X87313Y22225
X160973Y39688
X89852Y36195
X89217Y14922
X118745Y18733
X123507Y23495
X157480Y24765
X91757Y19685
X118745Y20003
X123507Y24765
X165100Y25717
X127000Y16192
X127000Y26352
X167323Y26987
X116840Y21907
X168910Y21907
X181610Y18733
X175577Y63500
X180340Y62865
X117792Y22860
X167640Y23177
X179070Y22542
X181610Y40323
X168910Y39688
X118110Y2223
X173673Y45085
X170815Y65405
X182562Y65087
X184467Y42863
X174942Y42228
X120650Y-635
X147320Y-635
X148908Y952
X163830Y18733
X166053Y18415
X166370Y952
X183515Y69215
X184785Y52070
X164148Y52070
X127000Y14922
X127317Y36513
X159703Y37465
X173990Y36513
X160020Y60642
X140970Y57150
X140018Y37465
X123190Y19050
X169863Y20955
X158750Y20955
X154305Y83503
X100330Y20955
X127000Y13652
X128587Y36513
X154623Y36513
X164783Y36513
X152083Y82550
X133350Y83185
X270510Y35243
X119380Y42863
X163830Y14922
X124460Y19050
X139383Y45085
X140970Y91122
X223520Y20003
X43815Y95567
X138113Y96520
X254952Y33338
X255587Y68263
X135890Y23495
X152083Y23812
X254952Y41275
X152083Y41275
X138430Y41275
X40958Y95567
X136843Y97472
X263208Y30797
X263525Y66993
X139700Y14287
X149860Y18098
X182562Y75883
X177482Y61277
X214947Y18415
X233362Y24765
X252095Y53975
X223520Y54292
X229870Y22542
X227330Y20003
X242887Y118745
X40958Y70168
X243840Y63817
X213677Y67945
X219075Y125095
X212725Y66993
X233362Y79375
X238760Y82868
X247332Y120967
X244157Y33338
X246062Y77153
X244792Y87947
X243840Y86995
X224472Y93662
X207645Y87313
X214630Y6985
X247650Y98107
X246062Y14605
X208597Y52387
X211137Y106045
X247332Y99695
X233045Y5715
X227965Y92710
X206692Y85090
X246380Y88265
X227965Y84455
X243840Y98742
X69850Y-2540
X69850Y13652
X88900Y19368
X89852Y34290
X186690Y74930
X187960Y9208
X80328Y86360
X74613Y80645
X58737Y80328
X96837Y93027
X96837Y6985
X158433Y6985
X70168Y92392
X161608Y-4445
X95567Y91440
X94932Y6985
X18098Y1270
X68263Y92392
X99377Y84455
X19050Y-4445
X68263Y105727
X154623Y105727
X65723Y34290
X73978Y34290
X66040Y-2540
X102552Y-1587
X92710Y-1270
X65723Y1587
X87947Y101600
X120015Y62865
X93980Y47625
X131763Y46037
X69850Y41593
X110807Y36513
X155258Y38418
X129540Y32702
X129540Y40323
X175895Y40323
X58420Y26670
X190182Y72073
X169863Y99377
X169863Y86995
X32067Y1905
X31432Y23495
X66993Y-4763
X66993Y27940
X11430Y26987
X127000Y58420
X107632Y72390
X20320Y61912
X133033Y30797
X131763Y51117
X130810Y53340
X158750Y48577
X161290Y13335
X127000Y60642
X116205Y81915
X146685Y59690
X149543Y53340
X56832Y25717
X51752Y952
X44767Y-635
X133033Y20003
X132715Y27305
X122237Y25082
X106045Y71438
X40958Y63817
X137478Y84138
X191135Y82550
X190182Y23177
X180657Y15557
X192087Y83503
X48895Y104775
X157798Y105092
X187642Y39053
X185737Y37148
X102552Y94297
X119697Y77153
X187007Y77153
X144145Y101917
X58737Y102870
X146050Y78423
X264478Y35878
X40958Y84138
X193992Y85408
X203835Y75565
X56197Y102235
X262573Y52070
X148908Y66358
X144463Y100330
X36513Y44767
X253047Y68263
X253047Y37783
X156528Y44132
X104775Y24765
X60960Y33338
X169228Y58420
X183197Y9208
X129540Y46672
X133985Y64770
X58420Y106680
X264160Y20320
X165100Y23812
X86043Y110807
X235267Y120967
X86043Y79375
X72073Y63817
X193992Y69533
X144145Y78423
X41275Y952
X79693Y63500
X160973Y66675
X87630Y39688
X111760Y42863
X71120Y13652
X39688Y18415
X159068Y14922
X100330Y17463
X98107Y27622
X172085Y-952
X134620Y49530
X170498Y63182
X148908Y63182
X143510Y63817
X25082Y61912
X150813Y69215
X236537Y124777
X169228Y1905
X45085Y32067
X30162Y16510
X23812Y61912
X169863Y51117
X44132Y23495
X160973Y65405
X166370Y60007
X138113Y50165
X118745Y95567
X148908Y44132
X33973Y31115
X74930Y56832
X90170Y5398
X113030Y108585
X100012Y54610
X260032Y126365
X266700Y34925
X150813Y44132
X261937Y53340
X144780Y63817
X136843Y81598
X138113Y48895
X244792Y93345
X183832Y-1905
X141923Y80328
X121285Y82868
X145098Y44132
X147003Y44132
X249237Y68898
X244792Y54927
X229235Y84455
X250190Y83820
X143193Y100330
X147320Y27622
X120967Y100330
X35560Y98425
X143510Y43180
X263843Y43180
X132398Y72390
X140653Y70168
X123507Y99060
X38100Y97472
X264160Y26670
X253682Y47625
X145733Y13652
X254000Y64770
X254000Y29210
X126365Y98425
X39688Y95567
X180657Y76200
X160338Y97790
X250190Y18098
X214630Y66993
X214630Y90805
X227012Y91757
M30