M48
;GenerationSoftware,Autodesk,EAGLE,9.6.1*%
;CreationDate,2025-01-31T04:07:16Z*%
FMAT,2
ICI,OFF
METRIC,TZ,000.000
T13C0.610
T12C0.700
T11C0.800
T10C0.813
T9C0.914
T8C1.016
T7C1.118
T6C1.397
T5C2.007
T4C3.175
T3C3.302
T2C3.962
T1C5.000
%
G90
M71
T1
X230505Y137795
X206375Y137795
X85725Y137795
X61595Y137795
X109855Y137795
X133985Y137795
X182245Y137795
X158115Y137795
T2
X58420Y74930
X251460Y74930
X284480Y41910
X154940Y74930
X154940Y104140
T3
X2794Y48260
X6604Y105410
T4
X284480Y113030
X44450Y113030
X248920Y152400
X44450Y152400
X290830Y93980
X-1270Y93980
X292100Y151130
X0Y151130
X292100Y0
X0Y0
T5
X109855Y146795
X182245Y128795
X187995Y133295
X186245Y129795
X186245Y145795
X178245Y145795
X176495Y137795
X176495Y142295
X176495Y133295
X65595Y129795
X115605Y137795
X115605Y142295
X109855Y128795
X115605Y133295
X113855Y129795
X113855Y145795
X105855Y145795
X104105Y142295
X104105Y137795
X104105Y133295
X105855Y129795
X133985Y146795
X139735Y137795
X139735Y142295
X212125Y142295
X133985Y128795
X139735Y133295
X137985Y129795
X137985Y145795
X129985Y145795
X128235Y142295
X128235Y137795
X128235Y133295
X129985Y129795
X61595Y146795
X67345Y137795
X67345Y142295
X61595Y128795
X67345Y133295
X65595Y145795
X57595Y145795
X55845Y142295
X55845Y137795
X55845Y133295
X57595Y129795
X85725Y146795
X91475Y137795
X91475Y142295
X85725Y128795
X91475Y133295
X89725Y129795
X89725Y145795
X81725Y145795
X79975Y142295
X79975Y137795
X79975Y133295
X81725Y129795
X206375Y146795
X212125Y137795
X206375Y128795
X212125Y133295
X210375Y129795
X210375Y145795
X202375Y145795
X200625Y142295
X200625Y137795
X200625Y133295
X202375Y129795
X230505Y146795
X236255Y137795
X236255Y142295
X230505Y128795
X236255Y133295
X234505Y129795
X226505Y145795
X224755Y142295
X224755Y137795
X224755Y133295
X234505Y145795
X226505Y129795
X158115Y146795
X163865Y137795
X163865Y142295
X158115Y128795
X163865Y133295
X162115Y129795
X162115Y145795
X154115Y145795
X152365Y142295
X152365Y137795
X152365Y133295
X154115Y129795
X182245Y146795
X187995Y137795
X187995Y142295
X178245Y129795
T6
X261315Y149885
X254305Y149885
T7
X0Y10160
X12700Y10160
X40640Y125730
X27940Y125730
X24130Y107950
X24130Y105410
X24130Y102870
X17780Y50800
X17780Y48260
X17780Y45720
X33020Y6350
X20320Y6350
T8
X130810Y29210
X30480Y29210
X33020Y29210
X50800Y29210
X260058Y152375
X255562Y152375
X22860Y22860
X119380Y22860
X5080Y116840
X7620Y116840
X10160Y116840
X30480Y20320
X27940Y20320
X25400Y20320
X22860Y20320
X48260Y29210
X146050Y29210
X139700Y52070
X148590Y29210
X162560Y52070
X160020Y52070
X157480Y52070
X154940Y52070
X152400Y52070
X149860Y52070
X162560Y49530
X160020Y49530
X157480Y49530
X154940Y49530
X152400Y49530
X149860Y49530
X147320Y52070
X147320Y49530
X142240Y52070
X151130Y29210
X137160Y52070
X134620Y52070
X144780Y52070
X132080Y52070
X144780Y49530
X142240Y49530
X139700Y49530
X137160Y49530
X134620Y49530
X132080Y49530
X129540Y52070
X129540Y49530
X127000Y52070
X124460Y52070
X121920Y52070
X119380Y52070
X127000Y49530
X124460Y49530
X121920Y49530
X119380Y49530
X147320Y43180
X149860Y43180
X127000Y43180
X129540Y43180
X144780Y43180
X40640Y20320
X43180Y20320
X45720Y20320
X48260Y20320
X35560Y22860
X38100Y22860
X40640Y22860
X43180Y22860
X45720Y22860
X48260Y22860
X50800Y20320
X50800Y22860
X53340Y20320
X55880Y20320
X58420Y20320
X60960Y20320
X63500Y20320
X66040Y20320
X53340Y22860
X55880Y22860
X58420Y22860
X60960Y22860
X63500Y22860
X66040Y22860
X119380Y20320
X121920Y20320
X124460Y20320
X127000Y20320
X121920Y22860
X124460Y22860
X127000Y22860
X129540Y20320
X129540Y22860
X132080Y20320
X134620Y20320
X137160Y20320
X139700Y20320
X142240Y20320
X144780Y20320
X132080Y22860
X134620Y22860
X137160Y22860
X142240Y22860
X144780Y22860
X147320Y20320
X147320Y22860
X149860Y20320
X139700Y22860
X152400Y20320
X154940Y20320
X157480Y20320
X160020Y20320
X162560Y20320
X149860Y22860
X152400Y22860
X154940Y22860
X157480Y22860
X160020Y22860
X162560Y22860
X128270Y29210
X53340Y29210
X38100Y20320
X35560Y20320
X33020Y22860
X33020Y20320
X30480Y22860
X27940Y22860
X25400Y22860
T9
X269240Y149860
X210820Y7620
X210820Y10160
X213360Y7620
X213360Y10160
X15240Y34290
X12700Y34290
X41910Y11430
X35560Y151130
X33020Y151130
X266700Y149860
X30480Y151130
X41910Y6350
X41910Y8890
T10
X109220Y11430
X284480Y139700
X279400Y135890
X287020Y135890
X251460Y125730
X252730Y127635
X254000Y125730
X248920Y121920
X256540Y121920
X261620Y125730
X262890Y127635
X264160Y125730
X259080Y121920
X266700Y121920
X271780Y125730
X273050Y127635
X274320Y125730
X269240Y121920
X276860Y121920
X281940Y125730
X283210Y127635
X284480Y125730
X279400Y121920
X287020Y121920
X222250Y3810
X224790Y3810
X237490Y3810
X240030Y3810
X227330Y3810
X229870Y3810
X234950Y3810
X232410Y3810
X242570Y3810
X245110Y3810
X245110Y11430
X242570Y11430
X240030Y11430
X237490Y11430
X234950Y11430
X232410Y11430
X229870Y11430
X227330Y11430
X224790Y11430
X222250Y11430
X255270Y3810
X257810Y3810
X260350Y3810
X262890Y3810
X265430Y3810
X267970Y3810
X270510Y3810
X273050Y3810
X275590Y3810
X278130Y3810
X280670Y3810
X283210Y3810
X283210Y11430
X280670Y11430
X278130Y11430
X275590Y11430
X273050Y11430
X270510Y11430
X267970Y11430
X265430Y11430
X262890Y11430
X260350Y11430
X257810Y11430
X255270Y11430
X219710Y11430
X219710Y8890
X252730Y11430
X252730Y8890
X217170Y1270
X209550Y1270
X22860Y41910
X22860Y46990
X22860Y53340
X22860Y50800
X101600Y3810
X104140Y3810
X116840Y3810
X119380Y3810
X106680Y3810
X109220Y3810
X114300Y3810
X111760Y3810
X121920Y3810
X124460Y3810
X124460Y11430
X121920Y11430
X119380Y11430
X116840Y11430
X114300Y11430
X111760Y11430
X106680Y11430
X104140Y11430
X101600Y11430
X132080Y3810
X134620Y3810
X147320Y3810
X149860Y3810
X137160Y3810
X139700Y3810
X144780Y3810
X142240Y3810
X152400Y3810
X154940Y3810
X154940Y11430
X152400Y11430
X149860Y11430
X147320Y11430
X144780Y11430
X142240Y11430
X139700Y11430
X137160Y11430
X134620Y11430
X132080Y11430
X162560Y3810
X165100Y3810
X167640Y3810
X170180Y3810
X172720Y3810
X175260Y3810
X177800Y3810
X180340Y3810
X182880Y3810
X185420Y3810
X187960Y3810
X190500Y3810
X190500Y11430
X187960Y11430
X185420Y11430
X182880Y11430
X180340Y11430
X177800Y11430
X175260Y11430
X172720Y11430
X170180Y11430
X167640Y11430
X165100Y11430
X162560Y11430
X74930Y3810
X77470Y3810
X90170Y3810
X92710Y3810
X80010Y3810
X82550Y3810
X87630Y3810
X85090Y3810
X92710Y11430
X90170Y11430
X87630Y11430
X85090Y11430
X82550Y11430
X80010Y11430
X77470Y11430
X74930Y11430
X74930Y99060
X74930Y96520
X49530Y11430
X49530Y8890
X161290Y107315
X163830Y107315
X166370Y99060
X166370Y96520
X184785Y107315
X187325Y107315
X196850Y99060
X196850Y96520
X227330Y99060
X227330Y96520
X72390Y11430
X72390Y8890
X136525Y107315
X139065Y107315
X88265Y107315
X90805Y107315
X99060Y11430
X99060Y8890
X64135Y107251
X66675Y107251
X112395Y107315
X114935Y107315
X129540Y11430
X129540Y8890
X208915Y107315
X211455Y107315
X160020Y11430
X160020Y8890
X264160Y144780
X271780Y144780
X278130Y149860
X275590Y149860
X105410Y99060
X105410Y96520
X135890Y99060
X135890Y96520
X233045Y107315
X230505Y107315
X10160Y20320
X10160Y22860
X198120Y8890
X198120Y6350
X257810Y99060
X257810Y96520
X248920Y111760
X254000Y111760
X204470Y5080
X204470Y10160
X44450Y99060
X44450Y96520
X52070Y3810
X54610Y3810
X67310Y3810
X67310Y11430
X57150Y3810
X59690Y3810
X64770Y3810
X62230Y3810
X64770Y11430
X62230Y11430
X59690Y11430
X57150Y11430
X54610Y11430
X52070Y11430
X121920Y130810
X121920Y123190
X100965Y109855
X103505Y109855
X116205Y109855
X118745Y109855
X106045Y109855
X108585Y109855
X113665Y109855
X111125Y109855
X118745Y117475
X116205Y117475
X113665Y117475
X111125Y117475
X108585Y117475
X106045Y117475
X103505Y117475
X100965Y117475
X146050Y130810
X146050Y123190
X73660Y130810
X73660Y123190
X97790Y130810
X97790Y123190
X125095Y109855
X127635Y109855
X140335Y109855
X142875Y109855
X130175Y109855
X132715Y109855
X137795Y109855
X135255Y109855
X142875Y117475
X140335Y117475
X137795Y117475
X135255Y117475
X132715Y117475
X130175Y117475
X127635Y117475
X125095Y117475
X52705Y109855
X55245Y109855
X67945Y109855
X70485Y109855
X57785Y109855
X60325Y109855
X65405Y109855
X62865Y109855
X70485Y117475
X67945Y117475
X65405Y117475
X62865Y117475
X60325Y117475
X57785Y117475
X55245Y117475
X283210Y141605
X76835Y109855
X79375Y109855
X92075Y109855
X94615Y109855
X81915Y109855
X84455Y109855
X89535Y109855
X86995Y109855
X94615Y117475
X92075Y117475
X89535Y117475
X86995Y117475
X84455Y117475
X81915Y117475
X79375Y117475
X76835Y117475
X218440Y130810
X218440Y123190
X197485Y109855
X200025Y109855
X212725Y109855
X215265Y109855
X202565Y109855
X205105Y109855
X210185Y109855
X207645Y109855
X215265Y117475
X212725Y117475
X210185Y117475
X207645Y117475
X205105Y117475
X202565Y117475
X200025Y117475
X197485Y117475
X242570Y130810
X242570Y123190
X170180Y130810
X170180Y123190
X194310Y130810
X194310Y123190
X221615Y109855
X224155Y109855
X236855Y109855
X239395Y109855
X226695Y109855
X229235Y109855
X234315Y109855
X231775Y109855
X239395Y117475
X236855Y117475
X234315Y117475
X231775Y117475
X229235Y117475
X226695Y117475
X224155Y117475
X221615Y117475
X149225Y109855
X151765Y109855
X164465Y109855
X167005Y109855
X154305Y109855
X156845Y109855
X161925Y109855
X159385Y109855
X167005Y117475
X164465Y117475
X161925Y117475
X159385Y117475
X156845Y117475
X154305Y117475
X151765Y117475
X149225Y117475
X173355Y109855
X175895Y109855
X188595Y109855
X191135Y109855
X178435Y109855
X180975Y109855
X186055Y109855
X183515Y109855
X191135Y117475
X188595Y117475
X186055Y117475
X183515Y117475
X180975Y117475
X178435Y117475
X175895Y117475
X173355Y117475
X52705Y117475
X5080Y124460
X7620Y124460
X20320Y124460
X22860Y124460
X10160Y124460
X12700Y124460
X17780Y124460
X15240Y124460
X22860Y132080
X20320Y132080
X17780Y132080
X15240Y132080
X12700Y132080
X10160Y132080
X7620Y132080
X5080Y132080
X7620Y113030
X0Y113030
X17805Y148590
X22835Y148590
X20320Y151130
X17780Y118110
X15240Y118110
X0Y132080
X0Y124460
X5080Y120650
X12700Y120650
X27940Y119380
X20320Y119380
X16510Y96520
X24130Y96520
X35560Y96520
X27940Y96520
X30480Y106680
X28575Y105410
X30480Y104140
X35560Y106680
X35560Y99060
X31242Y134620
X34798Y134620
X26670Y137160
X26670Y144780
X21590Y137160
X19050Y137160
X12700Y137160
X15240Y137160
X46990Y91440
X49530Y91440
X62230Y91440
X64770Y91440
X52070Y91440
X54610Y91440
X59690Y91440
X57150Y91440
X67310Y91440
X69850Y91440
X69850Y99060
X67310Y99060
X64770Y99060
X62230Y99060
X59690Y99060
X57150Y99060
X54610Y99060
X52070Y99060
X49530Y99060
X46990Y99060
X77470Y91440
X80010Y91440
X92710Y91440
X95250Y91440
X82550Y91440
X85090Y91440
X90170Y91440
X87630Y91440
X97790Y91440
X100330Y91440
X100330Y99060
X97790Y99060
X95250Y99060
X92710Y99060
X90170Y99060
X87630Y99060
X85090Y99060
X82550Y99060
X80010Y99060
X77470Y99060
X107950Y91440
X110490Y91440
X123190Y91440
X125730Y91440
X113030Y91440
X115570Y91440
X120650Y91440
X118110Y91440
X128270Y91440
X130810Y91440
X130810Y99060
X128270Y99060
X125730Y99060
X123190Y99060
X120650Y99060
X118110Y99060
X115570Y99060
X113030Y99060
X110490Y99060
X107950Y99060
X138430Y91440
X140970Y91440
X153670Y91440
X156210Y91440
X143510Y91440
X146050Y91440
X151130Y91440
X148590Y91440
X158750Y91440
X161290Y91440
X161290Y99060
X158750Y99060
X156210Y99060
X153670Y99060
X151130Y99060
X148590Y99060
X146050Y99060
X143510Y99060
X140970Y99060
X138430Y99060
X168910Y91440
X171450Y91440
X184150Y91440
X186690Y91440
X173990Y91440
X176530Y91440
X181610Y91440
X179070Y91440
X189230Y91440
X191770Y91440
X191770Y99060
X189230Y99060
X186690Y99060
X184150Y99060
X181610Y99060
X179070Y99060
X176530Y99060
X173990Y99060
X171450Y99060
X168910Y99060
X199390Y91440
X201930Y91440
X214630Y91440
X217170Y91440
X204470Y91440
X207010Y91440
X212090Y91440
X209550Y91440
X219710Y91440
X222250Y91440
X222250Y99060
X219710Y99060
X217170Y99060
X214630Y99060
X212090Y99060
X209550Y99060
X207010Y99060
X204470Y99060
X201930Y99060
X199390Y99060
X229870Y91440
X232410Y91440
X245110Y91440
X247650Y91440
X234950Y91440
X237490Y91440
X242570Y91440
X240030Y91440
X250190Y91440
X252730Y91440
X252730Y99060
X250190Y99060
X247650Y99060
X245110Y99060
X242570Y99060
X240030Y99060
X237490Y99060
X234950Y99060
X232410Y99060
X229870Y99060
X260350Y91440
X262890Y91440
X275590Y91440
X278130Y91440
X265430Y91440
X267970Y91440
X273050Y91440
X270510Y91440
X280670Y91440
X283210Y91440
X283210Y99060
X280670Y99060
X278130Y99060
X275590Y99060
X273050Y99060
X270510Y99060
X267970Y99060
X265430Y99060
X262890Y99060
X260350Y99060
X251460Y139700
X252730Y141605
X254000Y139700
X248920Y135890
X256540Y135890
X261620Y139700
X262890Y141605
X264160Y139700
X259080Y135890
X266700Y135890
X271780Y139700
X273050Y141605
X274320Y139700
X269240Y135890
X276860Y135890
X281940Y139700
T11
X255270Y83820
X166370Y31750
X85090Y27940
X40640Y134620
X175260Y15240
X172720Y15240
T12
X33060Y115570
X38060Y115570
T13
X156528Y8573
X153670Y-4763
X126047Y8573
X96837Y4763
X148273Y8573
X26987Y-4763
X162243Y6667
X131763Y94297
X141923Y31432
X119697Y31432
X159703Y29845
X146050Y-4763
X165735Y-4763
X159703Y14287
X63500Y13970
X11430Y-4763
X118110Y46355
X84773Y7620
X141923Y18098
X162560Y102235
X166053Y101917
X243522Y106362
X251142Y143828
X257492Y104775
X200977Y107315
X79058Y104775
X107950Y104775
X148908Y112077
X108585Y60642
X110172Y29527
X181610Y22542
X111442Y29527
X179070Y23812
X112395Y27305
X176530Y16192
X115252Y32067
X167323Y34290
X116522Y32067
X167323Y33020
X115252Y5715
X75565Y18733
X157163Y5715
X167323Y7937
X57150Y16510
X151130Y7937
X56197Y7620
X131128Y1905
X173990Y103187
X202565Y102870
X234950Y101917
X264795Y102552
X137160Y14287
X140653Y14605
X82233Y103822
X112395Y103822
X43180Y100965
X143510Y103822
X159703Y103187
X137160Y97472
X141923Y16510
X138748Y16828
X53340Y100647
X134620Y100965
X144463Y14287
X135255Y15557
X250190Y101917
X67310Y101917
X92392Y102870
X121920Y102870
X67628Y27305
X158433Y18098
X158433Y635
X161290Y635
X162878Y27305
X161608Y-4445
X270510Y108902
X266700Y107950
X264795Y104775
X257492Y109855
X246380Y113347
X210185Y112077
X207327Y105410
X206057Y111760
X199707Y104457
X177165Y105727
X175260Y104775
X167640Y105092
X174942Y120332
X177165Y121602
X192087Y132080
X161608Y114300
X147955Y136208
X153035Y121602
X168275Y124777
X235585Y119062
X219710Y135573
X227647Y127635
X121285Y-1587
X239395Y131445
X158750Y36830
X22542Y-4445
X20955Y1270
X165100Y1587
X136208Y-318
X211137Y120650
X254000Y132398
X120967Y66993
X242887Y78740
X118745Y66040
X165100Y65087
X92710Y46355
X220980Y87947
X120967Y69533
X153035Y83503
X21273Y25717
X65405Y25717
X19050Y-4445
X117157Y-1587
X110490Y-4763
X62547Y28257
X226377Y94297
X166053Y94297
X137478Y87947
X111442Y87947
X207962Y81915
X106680Y-4763
X151130Y-1270
X142240Y-4763
X91757Y49212
X127317Y82550
X83185Y46355
X246380Y120967
X171133Y112712
X242570Y145733
X117792Y101917
X80328Y101917
X73660Y87630
X73343Y90487
X138748Y94297
X242252Y151448
X196532Y136525
X216535Y119062
X48577Y139700
X204787Y127000
X215582Y132715
X201295Y120650
X211772Y113347
X132398Y149543
X247967Y142875
X106997Y148273
X245745Y150495
X150813Y104140
X147320Y103822
X144780Y103822
X123507Y107315
X85408Y120650
X81915Y126047
X79058Y121602
X82868Y127000
X60960Y121602
X50482Y135890
X71120Y120332
X70168Y124777
X69215Y134620
X123825Y136208
X128587Y121602
X137795Y124777
X108902Y121285
X107632Y114300
X106362Y125730
X114617Y124777
X165418Y44450
X108585Y44450
X73660Y31432
X182245Y38100
X72390Y31432
X137160Y-4763
X51117Y-4763
X109220Y39053
X177482Y39053
X177165Y41275
X208280Y80645
X154940Y635
X47942Y-1270
X52070Y6032
X42228Y35560
X159703Y45402
X62547Y31432
X180340Y42228
X161290Y30480
X42228Y30480
X156528Y10160
X26035Y43498
X173355Y-4763
X44767Y31432
X84138Y37148
X86043Y39053
X136208Y16510
X67628Y15875
X143193Y42545
X61912Y41910
X59690Y15875
X87947Y84138
X262890Y88582
X232092Y88582
X203835Y88582
X228917Y87947
X123507Y84138
X143193Y85090
X124460Y27940
X143510Y27940
X145098Y17463
X152083Y14287
X27305Y86360
X72390Y95250
X28257Y61277
X128587Y10160
X61277Y88582
X31750Y59055
X149543Y14287
X95885Y88582
X156528Y88582
X183832Y88582
X140970Y53022
X125730Y53022
X250507Y94297
X214312Y94297
X188277Y94297
X42228Y94297
X92392Y94297
X66040Y94297
X42228Y101917
X28892Y24130
X212407Y103822
X186055Y103822
X152083Y103187
X173355Y87947
M30