G04 EAGLE Gerber RS-274X export*
G75*
%MOMM*%
%FSLAX34Y34*%
%LPD*%
%INTop Copper*%
%IPPOS*%
%AMOC8*
5,1,8,0,0,1.08239X$1,22.5*%
G01*
%ADD10R,2.362200X7.620000*%
%ADD11C,1.320800*%
%ADD12P,1.429621X8X292.500000*%
%ADD13P,1.429621X8X22.500000*%
%ADD14R,1.524000X1.524000*%
%ADD15R,2.095500X2.095500*%
%ADD16C,1.422400*%
%ADD17P,1.429621X8X202.500000*%
%ADD18P,1.649562X8X202.500000*%
%ADD19P,1.649562X8X22.500000*%
%ADD20P,1.429621X8X112.500000*%
%ADD21P,1.732040X8X112.500000*%
%ADD22C,1.600200*%
%ADD23C,3.009900*%
%ADD24P,1.732040X8X22.500000*%
%ADD25C,1.879600*%
%ADD26C,1.676400*%
%ADD27C,1.208000*%
%ADD28P,1.732040X8X202.500000*%
%ADD29C,1.524000*%
%ADD30P,1.415766X8X22.500000*%
%ADD31P,1.539592X8X22.500000*%
%ADD32C,0.254000*%
%ADD33C,1.016000*%
%ADD34C,0.711200*%
%ADD35C,0.304800*%
%ADD36C,0.355600*%


D10*
X941324Y-95250D03*
X901700Y-95250D03*
X980948Y-95250D03*
X1020572Y-95250D03*
X1060196Y-95250D03*
X1099820Y-95250D03*
X1139444Y-95250D03*
X1179068Y-95250D03*
X1218692Y-95250D03*
X1258316Y-95250D03*
X1297940Y-95250D03*
X1337564Y-95250D03*
X1377188Y-95250D03*
X1416812Y-95250D03*
X1456436Y-95250D03*
X1496060Y-95250D03*
X1535684Y-95250D03*
X1575308Y-95250D03*
X1614932Y-95250D03*
X1654556Y-95250D03*
X1694180Y-95250D03*
X1733804Y-95250D03*
X69596Y-95250D03*
X109220Y-95250D03*
X148844Y-95250D03*
X188468Y-95250D03*
X228092Y-95250D03*
X267716Y-95250D03*
X307340Y-95250D03*
X346964Y-95250D03*
X386588Y-95250D03*
X426212Y-95250D03*
X465836Y-95250D03*
X505460Y-95250D03*
X545084Y-95250D03*
X584708Y-95250D03*
X624332Y-95250D03*
X663956Y-95250D03*
X703580Y-95250D03*
X743204Y-95250D03*
X782828Y-95250D03*
X822452Y-95250D03*
X862076Y-95250D03*
D11*
X1016000Y31496D02*
X1016000Y44704D01*
X1041400Y44704D02*
X1041400Y31496D01*
X1168400Y31496D02*
X1168400Y44704D01*
X1193800Y44704D02*
X1193800Y31496D01*
X1066800Y31496D02*
X1066800Y44704D01*
X1092200Y44704D02*
X1092200Y31496D01*
X1143000Y31496D02*
X1143000Y44704D01*
X1117600Y44704D02*
X1117600Y31496D01*
X1219200Y31496D02*
X1219200Y44704D01*
X1244600Y44704D02*
X1244600Y31496D01*
X1244600Y107696D02*
X1244600Y120904D01*
X1219200Y120904D02*
X1219200Y107696D01*
X1193800Y107696D02*
X1193800Y120904D01*
X1168400Y120904D02*
X1168400Y107696D01*
X1143000Y107696D02*
X1143000Y120904D01*
X1117600Y120904D02*
X1117600Y107696D01*
X1092200Y107696D02*
X1092200Y120904D01*
X1066800Y120904D02*
X1066800Y107696D01*
X1041400Y107696D02*
X1041400Y120904D01*
X1016000Y120904D02*
X1016000Y107696D01*
X1320800Y44704D02*
X1320800Y31496D01*
X1346200Y31496D02*
X1346200Y44704D01*
X1473200Y44704D02*
X1473200Y31496D01*
X1498600Y31496D02*
X1498600Y44704D01*
X1371600Y44704D02*
X1371600Y31496D01*
X1397000Y31496D02*
X1397000Y44704D01*
X1447800Y44704D02*
X1447800Y31496D01*
X1422400Y31496D02*
X1422400Y44704D01*
X1524000Y44704D02*
X1524000Y31496D01*
X1549400Y31496D02*
X1549400Y44704D01*
X1549400Y107696D02*
X1549400Y120904D01*
X1524000Y120904D02*
X1524000Y107696D01*
X1498600Y107696D02*
X1498600Y120904D01*
X1473200Y120904D02*
X1473200Y107696D01*
X1447800Y107696D02*
X1447800Y120904D01*
X1422400Y120904D02*
X1422400Y107696D01*
X1397000Y107696D02*
X1397000Y120904D01*
X1371600Y120904D02*
X1371600Y107696D01*
X1346200Y107696D02*
X1346200Y120904D01*
X1320800Y120904D02*
X1320800Y107696D01*
X1625600Y44704D02*
X1625600Y31496D01*
X1651000Y31496D02*
X1651000Y44704D01*
X1676400Y44704D02*
X1676400Y31496D01*
X1701800Y31496D02*
X1701800Y44704D01*
X1727200Y44704D02*
X1727200Y31496D01*
X1752600Y31496D02*
X1752600Y44704D01*
X1778000Y44704D02*
X1778000Y31496D01*
X1803400Y31496D02*
X1803400Y44704D01*
X1828800Y44704D02*
X1828800Y31496D01*
X1854200Y31496D02*
X1854200Y44704D01*
X1879600Y44704D02*
X1879600Y31496D01*
X1905000Y31496D02*
X1905000Y44704D01*
X1905000Y107696D02*
X1905000Y120904D01*
X1879600Y120904D02*
X1879600Y107696D01*
X1854200Y107696D02*
X1854200Y120904D01*
X1828800Y120904D02*
X1828800Y107696D01*
X1803400Y107696D02*
X1803400Y120904D01*
X1778000Y120904D02*
X1778000Y107696D01*
X1752600Y107696D02*
X1752600Y120904D01*
X1727200Y120904D02*
X1727200Y107696D01*
X1701800Y107696D02*
X1701800Y120904D01*
X1676400Y120904D02*
X1676400Y107696D01*
X1651000Y107696D02*
X1651000Y120904D01*
X1625600Y120904D02*
X1625600Y107696D01*
X749300Y44704D02*
X749300Y31496D01*
X774700Y31496D02*
X774700Y44704D01*
X901700Y44704D02*
X901700Y31496D01*
X927100Y31496D02*
X927100Y44704D01*
X800100Y44704D02*
X800100Y31496D01*
X825500Y31496D02*
X825500Y44704D01*
X876300Y44704D02*
X876300Y31496D01*
X850900Y31496D02*
X850900Y44704D01*
X927100Y107696D02*
X927100Y120904D01*
X901700Y120904D02*
X901700Y107696D01*
X876300Y107696D02*
X876300Y120904D01*
X850900Y120904D02*
X850900Y107696D01*
X825500Y107696D02*
X825500Y120904D01*
X800100Y120904D02*
X800100Y107696D01*
X774700Y107696D02*
X774700Y120904D01*
X749300Y120904D02*
X749300Y107696D01*
D12*
X749300Y990600D03*
X749300Y965200D03*
X495300Y114300D03*
X495300Y88900D03*
D13*
X1612900Y1073150D03*
X1638300Y1073150D03*
D12*
X1663700Y990600D03*
X1663700Y965200D03*
D13*
X1847850Y1073150D03*
X1873250Y1073150D03*
D12*
X1968500Y990600D03*
X1968500Y965200D03*
X2273300Y990600D03*
X2273300Y965200D03*
X723900Y114300D03*
X723900Y88900D03*
D13*
X1365250Y1073150D03*
X1390650Y1073150D03*
X882650Y1073150D03*
X908050Y1073150D03*
D12*
X990600Y114300D03*
X990600Y88900D03*
D13*
X641350Y1072515D03*
X666750Y1072515D03*
X1123950Y1073150D03*
X1149350Y1073150D03*
D12*
X1295400Y114300D03*
X1295400Y88900D03*
D13*
X2089150Y1073150D03*
X2114550Y1073150D03*
D12*
X1600200Y114300D03*
X1600200Y88900D03*
D14*
X2600579Y1523746D03*
X2555621Y1523746D03*
D15*
X2613152Y1498854D03*
X2543048Y1498854D03*
D16*
X2692400Y1505712D02*
X2692400Y1491488D01*
X2667000Y1491488D02*
X2667000Y1505712D01*
D13*
X2641600Y1447800D03*
X2717800Y1447800D03*
D17*
X2781300Y1498600D03*
X2755900Y1498600D03*
D16*
X304800Y1504188D02*
X304800Y1518412D01*
X330200Y1518412D02*
X330200Y1504188D01*
X355600Y1504188D02*
X355600Y1518412D01*
D18*
X1625600Y228600D03*
X1600200Y228600D03*
X1574800Y228600D03*
X1549400Y228600D03*
X1524000Y228600D03*
X1498600Y228600D03*
X1625600Y203200D03*
X1600200Y203200D03*
X1574800Y203200D03*
X1549400Y203200D03*
X1524000Y203200D03*
X1498600Y203200D03*
X1473200Y228600D03*
X1473200Y203200D03*
X1447800Y228600D03*
X1422400Y228600D03*
X1397000Y228600D03*
X1371600Y228600D03*
X1346200Y228600D03*
X1320800Y228600D03*
X1447800Y203200D03*
X1422400Y203200D03*
X1397000Y203200D03*
X1371600Y203200D03*
X1346200Y203200D03*
X1320800Y203200D03*
X1295400Y228600D03*
X1295400Y203200D03*
X1270000Y228600D03*
X1244600Y228600D03*
X1219200Y228600D03*
X1193800Y228600D03*
X1270000Y203200D03*
X1244600Y203200D03*
X1219200Y203200D03*
X1193800Y203200D03*
X660400Y228600D03*
X635000Y228600D03*
X609600Y228600D03*
X584200Y228600D03*
X558800Y228600D03*
X533400Y228600D03*
X660400Y203200D03*
X635000Y203200D03*
X609600Y203200D03*
X584200Y203200D03*
X558800Y203200D03*
X533400Y203200D03*
X508000Y228600D03*
X508000Y203200D03*
X482600Y228600D03*
X457200Y228600D03*
X431800Y228600D03*
X406400Y228600D03*
X381000Y228600D03*
X355600Y228600D03*
X482600Y203200D03*
X457200Y203200D03*
X431800Y203200D03*
X406400Y203200D03*
X381000Y203200D03*
X355600Y203200D03*
X330200Y228600D03*
X330200Y203200D03*
X304800Y228600D03*
X279400Y228600D03*
X254000Y228600D03*
X228600Y228600D03*
X304800Y203200D03*
X279400Y203200D03*
X254000Y203200D03*
X228600Y203200D03*
D19*
X1485900Y292100D03*
X1511300Y292100D03*
X1282700Y292100D03*
X1308100Y292100D03*
X304800Y292100D03*
X330200Y292100D03*
X508000Y292100D03*
X533400Y292100D03*
D12*
X1054100Y990600D03*
X1054100Y965200D03*
X1358900Y990600D03*
X1358900Y965200D03*
D17*
X2330450Y1073150D03*
X2305050Y1073150D03*
D20*
X101600Y203200D03*
X101600Y228600D03*
D21*
X1981200Y88900D03*
D22*
X1981200Y63500D03*
D12*
X2578100Y990600D03*
X2578100Y965200D03*
D13*
X2489200Y1117600D03*
X2540000Y1117600D03*
D20*
X2044700Y50800D03*
X2044700Y101600D03*
D12*
X444500Y990600D03*
X444500Y965200D03*
D11*
X520700Y44704D02*
X520700Y31496D01*
X546100Y31496D02*
X546100Y44704D01*
X673100Y44704D02*
X673100Y31496D01*
X673100Y107696D02*
X673100Y120904D01*
X571500Y44704D02*
X571500Y31496D01*
X596900Y31496D02*
X596900Y44704D01*
X647700Y44704D02*
X647700Y31496D01*
X622300Y31496D02*
X622300Y44704D01*
X647700Y107696D02*
X647700Y120904D01*
X622300Y120904D02*
X622300Y107696D01*
X596900Y107696D02*
X596900Y120904D01*
X571500Y120904D02*
X571500Y107696D01*
X546100Y107696D02*
X546100Y120904D01*
X520700Y120904D02*
X520700Y107696D01*
D16*
X426212Y63500D02*
X411988Y63500D01*
X411988Y88900D02*
X426212Y88900D01*
X426212Y114300D02*
X411988Y114300D01*
D12*
X1219200Y1308100D03*
X1219200Y1231900D03*
D11*
X1009650Y1105154D02*
X1009650Y1091946D01*
X1035050Y1091946D02*
X1035050Y1105154D01*
X1162050Y1105154D02*
X1162050Y1091946D01*
X1187450Y1091946D02*
X1187450Y1105154D01*
X1060450Y1105154D02*
X1060450Y1091946D01*
X1085850Y1091946D02*
X1085850Y1105154D01*
X1136650Y1105154D02*
X1136650Y1091946D01*
X1111250Y1091946D02*
X1111250Y1105154D01*
X1187450Y1168146D02*
X1187450Y1181354D01*
X1162050Y1181354D02*
X1162050Y1168146D01*
X1136650Y1168146D02*
X1136650Y1181354D01*
X1111250Y1181354D02*
X1111250Y1168146D01*
X1085850Y1168146D02*
X1085850Y1181354D01*
X1060450Y1181354D02*
X1060450Y1168146D01*
X1035050Y1168146D02*
X1035050Y1181354D01*
X1009650Y1181354D02*
X1009650Y1168146D01*
D12*
X1460500Y1308100D03*
X1460500Y1231900D03*
X736600Y1308100D03*
X736600Y1231900D03*
X977900Y1308100D03*
X977900Y1231900D03*
D11*
X1250950Y1105154D02*
X1250950Y1091946D01*
X1276350Y1091946D02*
X1276350Y1105154D01*
X1403350Y1105154D02*
X1403350Y1091946D01*
X1428750Y1091946D02*
X1428750Y1105154D01*
X1301750Y1105154D02*
X1301750Y1091946D01*
X1327150Y1091946D02*
X1327150Y1105154D01*
X1377950Y1105154D02*
X1377950Y1091946D01*
X1352550Y1091946D02*
X1352550Y1105154D01*
X1428750Y1168146D02*
X1428750Y1181354D01*
X1403350Y1181354D02*
X1403350Y1168146D01*
X1377950Y1168146D02*
X1377950Y1181354D01*
X1352550Y1181354D02*
X1352550Y1168146D01*
X1327150Y1168146D02*
X1327150Y1181354D01*
X1301750Y1181354D02*
X1301750Y1168146D01*
X1276350Y1168146D02*
X1276350Y1181354D01*
X1250950Y1181354D02*
X1250950Y1168146D01*
X527050Y1105154D02*
X527050Y1091946D01*
X552450Y1091946D02*
X552450Y1105154D01*
X679450Y1105154D02*
X679450Y1091946D01*
X704850Y1091946D02*
X704850Y1105154D01*
X577850Y1105154D02*
X577850Y1091946D01*
X603250Y1091946D02*
X603250Y1105154D01*
X654050Y1105154D02*
X654050Y1091946D01*
X628650Y1091946D02*
X628650Y1105154D01*
X704850Y1168146D02*
X704850Y1181354D01*
X679450Y1181354D02*
X679450Y1168146D01*
X654050Y1168146D02*
X654050Y1181354D01*
X628650Y1181354D02*
X628650Y1168146D01*
X603250Y1168146D02*
X603250Y1181354D01*
X577850Y1181354D02*
X577850Y1168146D01*
X552450Y1168146D02*
X552450Y1181354D01*
X527050Y1181354D02*
X527050Y1168146D01*
X768350Y1105154D02*
X768350Y1091946D01*
X793750Y1091946D02*
X793750Y1105154D01*
X920750Y1105154D02*
X920750Y1091946D01*
X946150Y1091946D02*
X946150Y1105154D01*
X819150Y1105154D02*
X819150Y1091946D01*
X844550Y1091946D02*
X844550Y1105154D01*
X895350Y1105154D02*
X895350Y1091946D01*
X869950Y1091946D02*
X869950Y1105154D01*
X946150Y1168146D02*
X946150Y1181354D01*
X920750Y1181354D02*
X920750Y1168146D01*
X895350Y1168146D02*
X895350Y1181354D01*
X869950Y1181354D02*
X869950Y1168146D01*
X844550Y1168146D02*
X844550Y1181354D01*
X819150Y1181354D02*
X819150Y1168146D01*
X793750Y1168146D02*
X793750Y1181354D01*
X768350Y1181354D02*
X768350Y1168146D01*
D23*
X1098550Y1467950D03*
X1156050Y1377950D03*
X1156050Y1422950D03*
X1098550Y1287950D03*
X1156050Y1332950D03*
X1138550Y1297950D03*
X1138550Y1457950D03*
X1058550Y1457950D03*
X1041050Y1422950D03*
X1041050Y1377950D03*
X1041050Y1332950D03*
X1058550Y1297950D03*
X1339850Y1467950D03*
X1397350Y1377950D03*
X1397350Y1422950D03*
X1339850Y1287950D03*
X1397350Y1332950D03*
X1379850Y1297950D03*
X1379850Y1457950D03*
X1299850Y1457950D03*
X1282350Y1422950D03*
X1282350Y1377950D03*
X1282350Y1332950D03*
X1299850Y1297950D03*
X615950Y1467950D03*
X673450Y1377950D03*
X673450Y1422950D03*
X615950Y1287950D03*
X673450Y1332950D03*
X655950Y1297950D03*
X655950Y1457950D03*
X575950Y1457950D03*
X558450Y1422950D03*
X558450Y1377950D03*
X558450Y1332950D03*
X575950Y1297950D03*
X857250Y1467950D03*
X914750Y1377950D03*
X914750Y1422950D03*
X857250Y1287950D03*
X914750Y1332950D03*
X897250Y1297950D03*
X897250Y1457950D03*
X817250Y1457950D03*
X799750Y1422950D03*
X799750Y1377950D03*
X799750Y1332950D03*
X817250Y1297950D03*
D12*
X2184400Y1308100D03*
X2184400Y1231900D03*
D11*
X1974850Y1105154D02*
X1974850Y1091946D01*
X2000250Y1091946D02*
X2000250Y1105154D01*
X2127250Y1105154D02*
X2127250Y1091946D01*
X2152650Y1091946D02*
X2152650Y1105154D01*
X2025650Y1105154D02*
X2025650Y1091946D01*
X2051050Y1091946D02*
X2051050Y1105154D01*
X2101850Y1105154D02*
X2101850Y1091946D01*
X2076450Y1091946D02*
X2076450Y1105154D01*
X2152650Y1168146D02*
X2152650Y1181354D01*
X2127250Y1181354D02*
X2127250Y1168146D01*
X2101850Y1168146D02*
X2101850Y1181354D01*
X2076450Y1181354D02*
X2076450Y1168146D01*
X2051050Y1168146D02*
X2051050Y1181354D01*
X2025650Y1181354D02*
X2025650Y1168146D01*
X2000250Y1168146D02*
X2000250Y1181354D01*
X1974850Y1181354D02*
X1974850Y1168146D01*
D12*
X2425700Y1308100D03*
X2425700Y1231900D03*
X1701800Y1308100D03*
X1701800Y1231900D03*
X1943100Y1308100D03*
X1943100Y1231900D03*
D11*
X2216150Y1105154D02*
X2216150Y1091946D01*
X2241550Y1091946D02*
X2241550Y1105154D01*
X2368550Y1105154D02*
X2368550Y1091946D01*
X2393950Y1091946D02*
X2393950Y1105154D01*
X2266950Y1105154D02*
X2266950Y1091946D01*
X2292350Y1091946D02*
X2292350Y1105154D01*
X2343150Y1105154D02*
X2343150Y1091946D01*
X2317750Y1091946D02*
X2317750Y1105154D01*
X2393950Y1168146D02*
X2393950Y1181354D01*
X2368550Y1181354D02*
X2368550Y1168146D01*
X2343150Y1168146D02*
X2343150Y1181354D01*
X2317750Y1181354D02*
X2317750Y1168146D01*
X2292350Y1168146D02*
X2292350Y1181354D01*
X2266950Y1181354D02*
X2266950Y1168146D01*
X2241550Y1168146D02*
X2241550Y1181354D01*
X2216150Y1181354D02*
X2216150Y1168146D01*
X1492250Y1105154D02*
X1492250Y1091946D01*
X1517650Y1091946D02*
X1517650Y1105154D01*
X1644650Y1105154D02*
X1644650Y1091946D01*
X1670050Y1091946D02*
X1670050Y1105154D01*
X1543050Y1105154D02*
X1543050Y1091946D01*
X1568450Y1091946D02*
X1568450Y1105154D01*
X1619250Y1105154D02*
X1619250Y1091946D01*
X1593850Y1091946D02*
X1593850Y1105154D01*
X1670050Y1168146D02*
X1670050Y1181354D01*
X1644650Y1181354D02*
X1644650Y1168146D01*
X1619250Y1168146D02*
X1619250Y1181354D01*
X1593850Y1181354D02*
X1593850Y1168146D01*
X1568450Y1168146D02*
X1568450Y1181354D01*
X1543050Y1181354D02*
X1543050Y1168146D01*
X1517650Y1168146D02*
X1517650Y1181354D01*
X1492250Y1181354D02*
X1492250Y1168146D01*
X1733550Y1105154D02*
X1733550Y1091946D01*
X1758950Y1091946D02*
X1758950Y1105154D01*
X1885950Y1105154D02*
X1885950Y1091946D01*
X1911350Y1091946D02*
X1911350Y1105154D01*
X1784350Y1105154D02*
X1784350Y1091946D01*
X1809750Y1091946D02*
X1809750Y1105154D01*
X1860550Y1105154D02*
X1860550Y1091946D01*
X1835150Y1091946D02*
X1835150Y1105154D01*
X1911350Y1168146D02*
X1911350Y1181354D01*
X1885950Y1181354D02*
X1885950Y1168146D01*
X1860550Y1168146D02*
X1860550Y1181354D01*
X1835150Y1181354D02*
X1835150Y1168146D01*
X1809750Y1168146D02*
X1809750Y1181354D01*
X1784350Y1181354D02*
X1784350Y1168146D01*
X1758950Y1168146D02*
X1758950Y1181354D01*
X1733550Y1181354D02*
X1733550Y1168146D01*
D23*
X2063750Y1467950D03*
X2121250Y1377950D03*
X2121250Y1422950D03*
X2063750Y1287950D03*
X2121250Y1332950D03*
X2103750Y1297950D03*
X2103750Y1457950D03*
X2023750Y1457950D03*
X2006250Y1422950D03*
X2006250Y1377950D03*
X2006250Y1332950D03*
X2023750Y1297950D03*
X2305050Y1467950D03*
X2362550Y1377950D03*
X2362550Y1422950D03*
X2305050Y1287950D03*
X2362550Y1332950D03*
X2345050Y1297950D03*
X2345050Y1457950D03*
X2265050Y1457950D03*
X2247550Y1422950D03*
X2247550Y1377950D03*
X2247550Y1332950D03*
X2265050Y1297950D03*
X1581150Y1467950D03*
X1638650Y1377950D03*
X1638650Y1422950D03*
X1581150Y1287950D03*
X1638650Y1332950D03*
X1621150Y1297950D03*
X1621150Y1457950D03*
X1541150Y1457950D03*
X1523650Y1422950D03*
X1523650Y1377950D03*
X1523650Y1332950D03*
X1541150Y1297950D03*
X1822450Y1467950D03*
X1879950Y1377950D03*
X1879950Y1422950D03*
X1822450Y1287950D03*
X1879950Y1332950D03*
X1862450Y1297950D03*
X1862450Y1457950D03*
X1782450Y1457950D03*
X1764950Y1422950D03*
X1764950Y1377950D03*
X1764950Y1332950D03*
X1782450Y1297950D03*
D11*
X50800Y1251204D02*
X50800Y1237996D01*
X76200Y1237996D02*
X76200Y1251204D01*
X203200Y1251204D02*
X203200Y1237996D01*
X228600Y1237996D02*
X228600Y1251204D01*
X101600Y1251204D02*
X101600Y1237996D01*
X127000Y1237996D02*
X127000Y1251204D01*
X177800Y1251204D02*
X177800Y1237996D01*
X152400Y1237996D02*
X152400Y1251204D01*
X228600Y1314196D02*
X228600Y1327404D01*
X203200Y1327404D02*
X203200Y1314196D01*
X177800Y1314196D02*
X177800Y1327404D01*
X152400Y1327404D02*
X152400Y1314196D01*
X127000Y1314196D02*
X127000Y1327404D01*
X101600Y1327404D02*
X101600Y1314196D01*
X76200Y1314196D02*
X76200Y1327404D01*
X50800Y1327404D02*
X50800Y1314196D01*
D17*
X76200Y1130300D03*
X0Y1130300D03*
X178054Y1485900D03*
X228346Y1485900D03*
X203200Y1511300D03*
D24*
X177800Y1181100D03*
D22*
X152400Y1181100D03*
D12*
X0Y1320800D03*
X0Y1244600D03*
D13*
X50800Y1206500D03*
X127000Y1206500D03*
D17*
X279400Y1193800D03*
X203200Y1193800D03*
D13*
X165100Y965200D03*
X241300Y965200D03*
D11*
X348996Y965200D02*
X362204Y965200D01*
X286004Y965200D02*
X272796Y965200D01*
D25*
X304800Y1066800D03*
X285750Y1054100D03*
X304800Y1041400D03*
D12*
X355600Y1066800D03*
X355600Y990600D03*
D26*
X249682Y1028700D02*
X232918Y1028700D01*
X232918Y1054100D02*
X249682Y1054100D01*
X249682Y1079500D02*
X232918Y1079500D01*
D27*
X330600Y1149660D02*
X330600Y1161740D01*
X380600Y1161740D02*
X380600Y1149660D01*
D26*
X287782Y1257300D02*
X271018Y1257300D01*
X398018Y1257300D02*
X414782Y1257300D01*
D28*
X312420Y1346200D03*
D22*
X347980Y1346200D03*
D20*
X266700Y1371600D03*
X266700Y1447800D03*
D24*
X215900Y1371600D03*
D22*
X190500Y1371600D03*
D28*
X127000Y1371600D03*
D22*
X152400Y1371600D03*
D29*
X50800Y1176020D02*
X50800Y1160780D01*
X76200Y1160780D02*
X76200Y1176020D01*
X101600Y1176020D02*
X101600Y1160780D01*
D11*
X469900Y921004D02*
X469900Y907796D01*
X495300Y907796D02*
X495300Y921004D01*
X622300Y921004D02*
X622300Y907796D01*
X647700Y907796D02*
X647700Y921004D01*
X520700Y921004D02*
X520700Y907796D01*
X546100Y907796D02*
X546100Y921004D01*
X596900Y921004D02*
X596900Y907796D01*
X571500Y907796D02*
X571500Y921004D01*
X673100Y921004D02*
X673100Y907796D01*
X698500Y907796D02*
X698500Y921004D01*
X698500Y983996D02*
X698500Y997204D01*
X673100Y997204D02*
X673100Y983996D01*
X647700Y983996D02*
X647700Y997204D01*
X622300Y997204D02*
X622300Y983996D01*
X596900Y983996D02*
X596900Y997204D01*
X571500Y997204D02*
X571500Y983996D01*
X546100Y983996D02*
X546100Y997204D01*
X520700Y997204D02*
X520700Y983996D01*
X495300Y983996D02*
X495300Y997204D01*
X469900Y997204D02*
X469900Y983996D01*
X774700Y921004D02*
X774700Y907796D01*
X800100Y907796D02*
X800100Y921004D01*
X927100Y921004D02*
X927100Y907796D01*
X952500Y907796D02*
X952500Y921004D01*
X825500Y921004D02*
X825500Y907796D01*
X850900Y907796D02*
X850900Y921004D01*
X901700Y921004D02*
X901700Y907796D01*
X876300Y907796D02*
X876300Y921004D01*
X977900Y921004D02*
X977900Y907796D01*
X1003300Y907796D02*
X1003300Y921004D01*
X1003300Y983996D02*
X1003300Y997204D01*
X977900Y997204D02*
X977900Y983996D01*
X952500Y983996D02*
X952500Y997204D01*
X927100Y997204D02*
X927100Y983996D01*
X901700Y983996D02*
X901700Y997204D01*
X876300Y997204D02*
X876300Y983996D01*
X850900Y983996D02*
X850900Y997204D01*
X825500Y997204D02*
X825500Y983996D01*
X800100Y983996D02*
X800100Y997204D01*
X774700Y997204D02*
X774700Y983996D01*
X1079500Y921004D02*
X1079500Y907796D01*
X1104900Y907796D02*
X1104900Y921004D01*
X1231900Y921004D02*
X1231900Y907796D01*
X1257300Y907796D02*
X1257300Y921004D01*
X1130300Y921004D02*
X1130300Y907796D01*
X1155700Y907796D02*
X1155700Y921004D01*
X1206500Y921004D02*
X1206500Y907796D01*
X1181100Y907796D02*
X1181100Y921004D01*
X1282700Y921004D02*
X1282700Y907796D01*
X1308100Y907796D02*
X1308100Y921004D01*
X1308100Y983996D02*
X1308100Y997204D01*
X1282700Y997204D02*
X1282700Y983996D01*
X1257300Y983996D02*
X1257300Y997204D01*
X1231900Y997204D02*
X1231900Y983996D01*
X1206500Y983996D02*
X1206500Y997204D01*
X1181100Y997204D02*
X1181100Y983996D01*
X1155700Y983996D02*
X1155700Y997204D01*
X1130300Y997204D02*
X1130300Y983996D01*
X1104900Y983996D02*
X1104900Y997204D01*
X1079500Y997204D02*
X1079500Y983996D01*
X1384300Y921004D02*
X1384300Y907796D01*
X1409700Y907796D02*
X1409700Y921004D01*
X1536700Y921004D02*
X1536700Y907796D01*
X1562100Y907796D02*
X1562100Y921004D01*
X1435100Y921004D02*
X1435100Y907796D01*
X1460500Y907796D02*
X1460500Y921004D01*
X1511300Y921004D02*
X1511300Y907796D01*
X1485900Y907796D02*
X1485900Y921004D01*
X1587500Y921004D02*
X1587500Y907796D01*
X1612900Y907796D02*
X1612900Y921004D01*
X1612900Y983996D02*
X1612900Y997204D01*
X1587500Y997204D02*
X1587500Y983996D01*
X1562100Y983996D02*
X1562100Y997204D01*
X1536700Y997204D02*
X1536700Y983996D01*
X1511300Y983996D02*
X1511300Y997204D01*
X1485900Y997204D02*
X1485900Y983996D01*
X1460500Y983996D02*
X1460500Y997204D01*
X1435100Y997204D02*
X1435100Y983996D01*
X1409700Y983996D02*
X1409700Y997204D01*
X1384300Y997204D02*
X1384300Y983996D01*
X1689100Y921004D02*
X1689100Y907796D01*
X1714500Y907796D02*
X1714500Y921004D01*
X1841500Y921004D02*
X1841500Y907796D01*
X1866900Y907796D02*
X1866900Y921004D01*
X1739900Y921004D02*
X1739900Y907796D01*
X1765300Y907796D02*
X1765300Y921004D01*
X1816100Y921004D02*
X1816100Y907796D01*
X1790700Y907796D02*
X1790700Y921004D01*
X1892300Y921004D02*
X1892300Y907796D01*
X1917700Y907796D02*
X1917700Y921004D01*
X1917700Y983996D02*
X1917700Y997204D01*
X1892300Y997204D02*
X1892300Y983996D01*
X1866900Y983996D02*
X1866900Y997204D01*
X1841500Y997204D02*
X1841500Y983996D01*
X1816100Y983996D02*
X1816100Y997204D01*
X1790700Y997204D02*
X1790700Y983996D01*
X1765300Y983996D02*
X1765300Y997204D01*
X1739900Y997204D02*
X1739900Y983996D01*
X1714500Y983996D02*
X1714500Y997204D01*
X1689100Y997204D02*
X1689100Y983996D01*
X1993900Y921004D02*
X1993900Y907796D01*
X2019300Y907796D02*
X2019300Y921004D01*
X2146300Y921004D02*
X2146300Y907796D01*
X2171700Y907796D02*
X2171700Y921004D01*
X2044700Y921004D02*
X2044700Y907796D01*
X2070100Y907796D02*
X2070100Y921004D01*
X2120900Y921004D02*
X2120900Y907796D01*
X2095500Y907796D02*
X2095500Y921004D01*
X2197100Y921004D02*
X2197100Y907796D01*
X2222500Y907796D02*
X2222500Y921004D01*
X2222500Y983996D02*
X2222500Y997204D01*
X2197100Y997204D02*
X2197100Y983996D01*
X2171700Y983996D02*
X2171700Y997204D01*
X2146300Y997204D02*
X2146300Y983996D01*
X2120900Y983996D02*
X2120900Y997204D01*
X2095500Y997204D02*
X2095500Y983996D01*
X2070100Y983996D02*
X2070100Y997204D01*
X2044700Y997204D02*
X2044700Y983996D01*
X2019300Y983996D02*
X2019300Y997204D01*
X1993900Y997204D02*
X1993900Y983996D01*
X2298700Y921004D02*
X2298700Y907796D01*
X2324100Y907796D02*
X2324100Y921004D01*
X2451100Y921004D02*
X2451100Y907796D01*
X2476500Y907796D02*
X2476500Y921004D01*
X2349500Y921004D02*
X2349500Y907796D01*
X2374900Y907796D02*
X2374900Y921004D01*
X2425700Y921004D02*
X2425700Y907796D01*
X2400300Y907796D02*
X2400300Y921004D01*
X2501900Y921004D02*
X2501900Y907796D01*
X2527300Y907796D02*
X2527300Y921004D01*
X2527300Y983996D02*
X2527300Y997204D01*
X2501900Y997204D02*
X2501900Y983996D01*
X2476500Y983996D02*
X2476500Y997204D01*
X2451100Y997204D02*
X2451100Y983996D01*
X2425700Y983996D02*
X2425700Y997204D01*
X2400300Y997204D02*
X2400300Y983996D01*
X2374900Y983996D02*
X2374900Y997204D01*
X2349500Y997204D02*
X2349500Y983996D01*
X2324100Y983996D02*
X2324100Y997204D01*
X2298700Y997204D02*
X2298700Y983996D01*
X2603500Y921004D02*
X2603500Y907796D01*
X2628900Y907796D02*
X2628900Y921004D01*
X2755900Y921004D02*
X2755900Y907796D01*
X2781300Y907796D02*
X2781300Y921004D01*
X2654300Y921004D02*
X2654300Y907796D01*
X2679700Y907796D02*
X2679700Y921004D01*
X2730500Y921004D02*
X2730500Y907796D01*
X2705100Y907796D02*
X2705100Y921004D01*
X2806700Y921004D02*
X2806700Y907796D01*
X2832100Y907796D02*
X2832100Y921004D01*
X2832100Y983996D02*
X2832100Y997204D01*
X2806700Y997204D02*
X2806700Y983996D01*
X2781300Y983996D02*
X2781300Y997204D01*
X2755900Y997204D02*
X2755900Y983996D01*
X2730500Y983996D02*
X2730500Y997204D01*
X2705100Y997204D02*
X2705100Y983996D01*
X2679700Y983996D02*
X2679700Y997204D01*
X2654300Y997204D02*
X2654300Y983996D01*
X2628900Y983996D02*
X2628900Y997204D01*
X2603500Y997204D02*
X2603500Y983996D01*
D25*
X2514600Y1397000D03*
X2527300Y1416050D03*
X2540000Y1397000D03*
D13*
X2489200Y1358900D03*
X2565400Y1358900D03*
D25*
X2616200Y1397000D03*
X2628900Y1416050D03*
X2641600Y1397000D03*
D13*
X2590800Y1358900D03*
X2667000Y1358900D03*
D25*
X2717800Y1397000D03*
X2730500Y1416050D03*
X2743200Y1397000D03*
D13*
X2692400Y1358900D03*
X2768600Y1358900D03*
D25*
X2819400Y1397000D03*
X2832100Y1416050D03*
X2844800Y1397000D03*
D13*
X2794000Y1358900D03*
X2870200Y1358900D03*
D25*
X2514600Y1257300D03*
X2527300Y1276350D03*
X2540000Y1257300D03*
D13*
X2489200Y1219200D03*
X2565400Y1219200D03*
D25*
X2616200Y1257300D03*
X2628900Y1276350D03*
X2641600Y1257300D03*
D13*
X2590800Y1219200D03*
X2667000Y1219200D03*
D25*
X2717800Y1257300D03*
X2730500Y1276350D03*
X2743200Y1257300D03*
D13*
X2692400Y1219200D03*
X2768600Y1219200D03*
D25*
X2819400Y1257300D03*
X2832100Y1276350D03*
X2844800Y1257300D03*
D13*
X2794000Y1219200D03*
X2870200Y1219200D03*
D26*
X135382Y101600D02*
X118618Y101600D01*
X8382Y101600D02*
X-8382Y101600D01*
X194818Y63500D02*
X211582Y63500D01*
X321818Y63500D02*
X338582Y63500D01*
D30*
X2552700Y838200D03*
X1663700Y317500D03*
X850900Y279400D03*
D11*
X2222500Y44704D02*
X2222500Y31496D01*
X2247900Y31496D02*
X2247900Y44704D01*
X2374900Y44704D02*
X2374900Y31496D01*
X2400300Y31496D02*
X2400300Y44704D01*
X2273300Y44704D02*
X2273300Y31496D01*
X2298700Y31496D02*
X2298700Y44704D01*
X2349500Y44704D02*
X2349500Y31496D01*
X2324100Y31496D02*
X2324100Y44704D01*
X2425700Y44704D02*
X2425700Y31496D01*
X2451100Y31496D02*
X2451100Y44704D01*
X2451100Y107696D02*
X2451100Y120904D01*
X2425700Y120904D02*
X2425700Y107696D01*
X2400300Y107696D02*
X2400300Y120904D01*
X2374900Y120904D02*
X2374900Y107696D01*
X2349500Y107696D02*
X2349500Y120904D01*
X2324100Y120904D02*
X2324100Y107696D01*
X2298700Y107696D02*
X2298700Y120904D01*
X2273300Y120904D02*
X2273300Y107696D01*
X2247900Y107696D02*
X2247900Y120904D01*
X2222500Y120904D02*
X2222500Y107696D01*
X2552700Y44704D02*
X2552700Y31496D01*
X2578100Y31496D02*
X2578100Y44704D01*
X2603500Y44704D02*
X2603500Y31496D01*
X2628900Y31496D02*
X2628900Y44704D01*
X2654300Y44704D02*
X2654300Y31496D01*
X2679700Y31496D02*
X2679700Y44704D01*
X2705100Y44704D02*
X2705100Y31496D01*
X2730500Y31496D02*
X2730500Y44704D01*
X2755900Y44704D02*
X2755900Y31496D01*
X2781300Y31496D02*
X2781300Y44704D01*
X2806700Y44704D02*
X2806700Y31496D01*
X2832100Y31496D02*
X2832100Y44704D01*
X2832100Y107696D02*
X2832100Y120904D01*
X2806700Y120904D02*
X2806700Y107696D01*
X2781300Y107696D02*
X2781300Y120904D01*
X2755900Y120904D02*
X2755900Y107696D01*
X2730500Y107696D02*
X2730500Y120904D01*
X2705100Y120904D02*
X2705100Y107696D01*
X2679700Y107696D02*
X2679700Y120904D01*
X2654300Y120904D02*
X2654300Y107696D01*
X2628900Y107696D02*
X2628900Y120904D01*
X2603500Y120904D02*
X2603500Y107696D01*
X2578100Y107696D02*
X2578100Y120904D01*
X2552700Y120904D02*
X2552700Y107696D01*
D12*
X2197100Y114300D03*
X2197100Y88900D03*
X2527300Y114300D03*
X2527300Y88900D03*
D31*
X2108200Y76200D03*
X2108200Y101600D03*
X2133600Y76200D03*
X2133600Y101600D03*
D17*
X2171700Y12700D03*
X2095500Y12700D03*
D19*
X482600Y292100D03*
X1460500Y292100D03*
D26*
X186182Y457200D02*
X169418Y457200D01*
X169418Y482600D02*
X186182Y482600D01*
X186182Y508000D02*
X169418Y508000D01*
D20*
X228600Y419100D03*
X228600Y469900D03*
D16*
X127000Y350012D02*
X127000Y335788D01*
X152400Y335788D02*
X152400Y350012D01*
D12*
X228600Y533400D03*
X228600Y508000D03*
D30*
X1752600Y152400D03*
X1727200Y152400D03*
D18*
X1625600Y520700D03*
X1600200Y520700D03*
X1574800Y520700D03*
X1549400Y520700D03*
X1524000Y520700D03*
X1498600Y520700D03*
X1625600Y495300D03*
X1600200Y495300D03*
X1574800Y495300D03*
X1549400Y495300D03*
X1524000Y495300D03*
X1498600Y495300D03*
X1473200Y520700D03*
X1473200Y495300D03*
X1447800Y520700D03*
X1422400Y520700D03*
X1397000Y520700D03*
X1371600Y520700D03*
X1346200Y520700D03*
X1320800Y520700D03*
X1447800Y495300D03*
X1422400Y495300D03*
X1397000Y495300D03*
X1371600Y495300D03*
X1346200Y495300D03*
X1320800Y495300D03*
X1295400Y520700D03*
X1295400Y495300D03*
X1270000Y520700D03*
X1244600Y520700D03*
X1219200Y520700D03*
X1193800Y520700D03*
X1270000Y495300D03*
X1244600Y495300D03*
X1219200Y495300D03*
X1193800Y495300D03*
D19*
X1473200Y431800D03*
X1498600Y431800D03*
X1270000Y431800D03*
X1295400Y431800D03*
X1447800Y431800D03*
D30*
X406400Y1346200D03*
D32*
X1190625Y-15875D02*
X1212850Y-15875D01*
X1190625Y-15875D02*
X1181100Y-25400D01*
X1181100Y-95250D01*
X1179068Y-95250D01*
D33*
X1212850Y-15875D03*
D32*
X1171575Y-15875D02*
X1152525Y-15875D01*
X1139825Y-28575D01*
X1139825Y-95250D01*
X1139444Y-95250D01*
D33*
X1171575Y-15875D03*
D32*
X1104900Y-47625D02*
X1104900Y-95250D01*
X1099820Y-95250D01*
D33*
X1104900Y-47625D03*
D32*
X1066800Y-47625D02*
X1066800Y-95250D01*
X1060196Y-95250D01*
D33*
X1066800Y-47625D03*
D32*
X1498600Y-25400D02*
X1511300Y-12700D01*
X1498600Y-25400D02*
X1498600Y-95250D01*
X1496060Y-95250D01*
D33*
X1511300Y-12700D03*
D32*
X1422400Y-47625D02*
X1422400Y-95250D01*
X1416812Y-95250D01*
D33*
X1422400Y-47625D03*
D32*
X1371600Y-47625D02*
X1371600Y-95250D01*
X1377188Y-95250D01*
D33*
X1371600Y-47625D03*
D34*
X2451100Y38100D02*
X2501900Y88900D01*
X2527300Y88900D01*
X2781300Y88900D02*
X2832100Y38100D01*
X2781300Y88900D02*
X2527300Y88900D01*
X1733550Y-47625D02*
X1733550Y-95250D01*
X1733804Y-95250D01*
X2057400Y88900D02*
X2197100Y88900D01*
X2057400Y88900D02*
X2044700Y101600D01*
X2403475Y88900D02*
X2451100Y41275D01*
X2403475Y88900D02*
X2197100Y88900D01*
X2451100Y41275D02*
X2451100Y38100D01*
X198438Y449263D02*
X190500Y457200D01*
X198438Y449263D02*
X228600Y419100D01*
X190500Y457200D02*
X177800Y457200D01*
X247650Y514350D02*
X228600Y533400D01*
X247650Y514350D02*
X247650Y450850D01*
X200025Y450850D01*
X198438Y449263D01*
X228600Y228600D02*
X101600Y228600D01*
X66675Y101600D02*
X66675Y-3175D01*
X66675Y-95250D01*
X66675Y101600D02*
X0Y101600D01*
X66675Y-95250D02*
X69596Y-95250D01*
X266700Y-47625D02*
X266700Y-3175D01*
X266700Y-47625D02*
X266700Y-95250D01*
X266700Y-3175D02*
X66675Y-3175D01*
X266700Y-95250D02*
X267716Y-95250D01*
X447675Y314325D02*
X311150Y450850D01*
X247650Y450850D01*
X495300Y88900D02*
X469900Y63500D01*
X419100Y63500D01*
X330200Y63500D01*
X495300Y88900D02*
X723900Y88900D01*
X1597025Y85725D02*
X1600200Y88900D01*
X1597025Y85725D02*
X1565275Y85725D01*
X1536700Y-47625D02*
X1536700Y-95250D01*
X1535684Y-95250D01*
X1263650Y88900D02*
X1260475Y85725D01*
X1263650Y88900D02*
X1295400Y88900D01*
X996950Y95250D02*
X990600Y88900D01*
X996950Y95250D02*
X1022350Y95250D01*
X1041400Y114300D01*
X968375Y47625D02*
X958850Y38100D01*
X927100Y38100D01*
X1216025Y9525D02*
X1244600Y38100D01*
X1216025Y9525D02*
X879475Y9525D01*
X868363Y20638D02*
X850900Y38100D01*
X868363Y20638D02*
X879475Y9525D01*
X1295400Y85725D02*
X1482725Y85725D01*
X1295400Y85725D02*
X1295400Y88900D01*
X762000Y53975D02*
X727075Y88900D01*
X762000Y53975D02*
X762000Y19050D01*
X866775Y19050D01*
X727075Y88900D02*
X723900Y88900D01*
X866775Y19050D02*
X868363Y20638D01*
X269875Y-47625D02*
X266700Y-47625D01*
X1876425Y66675D02*
X1905000Y38100D01*
X1876425Y66675D02*
X1622425Y66675D01*
X1317625Y942975D02*
X1339850Y965200D01*
X1358900Y965200D01*
X1660525Y962025D02*
X1663700Y965200D01*
X1660525Y962025D02*
X1358900Y962025D01*
X1358900Y965200D01*
X1076325Y942975D02*
X1054100Y965200D01*
X1076325Y942975D02*
X1317625Y942975D01*
X1965325Y962025D02*
X1968500Y965200D01*
X1965325Y962025D02*
X1663700Y962025D01*
X1663700Y965200D01*
X2514600Y1257300D02*
X2530475Y1241425D01*
X2600325Y1241425D01*
X2616200Y1257300D01*
X2701925Y1241425D02*
X2717800Y1257300D01*
X2701925Y1241425D02*
X2600325Y1241425D01*
X2755900Y1498600D02*
X2733675Y1520825D01*
X2689225Y1520825D01*
X2667000Y1498600D01*
X2571750Y1539875D02*
X2555621Y1523746D01*
X2571750Y1539875D02*
X2622550Y1539875D01*
X2663825Y1498600D01*
X2667000Y1498600D01*
X2530475Y1381125D02*
X2514600Y1397000D01*
X2530475Y1381125D02*
X2600325Y1381125D01*
X2616200Y1397000D01*
X2701925Y1381125D02*
X2703513Y1382713D01*
X2717800Y1397000D01*
X2701925Y1381125D02*
X2600325Y1381125D01*
X2803525Y1381125D02*
X2819400Y1397000D01*
X2803525Y1381125D02*
X2705100Y1381125D01*
X2703513Y1382713D01*
X2578100Y965200D02*
X2590800Y952500D01*
X2794000Y952500D01*
X2832100Y914400D01*
X2095500Y1155700D02*
X2076450Y1174750D01*
X2095500Y1155700D02*
X2298700Y1155700D01*
X2317750Y1174750D01*
X2305050Y1073150D02*
X2114550Y1073150D01*
X2571750Y962025D02*
X2574925Y965200D01*
X2571750Y962025D02*
X2276475Y962025D01*
X2273300Y965200D01*
X2574925Y965200D02*
X2578100Y965200D01*
X2540000Y1117600D02*
X2501900Y1155700D01*
X2298700Y1155700D01*
X1974850Y962025D02*
X1971675Y965200D01*
X1974850Y962025D02*
X2273300Y962025D01*
X1971675Y965200D02*
X1968500Y965200D01*
X2273300Y965200D02*
X2273300Y962025D01*
X69850Y1301750D02*
X50800Y1320800D01*
X69850Y1301750D02*
X107950Y1301750D01*
X127000Y1320800D01*
X127000Y1352550D01*
X127000Y1371600D01*
X196850Y1352550D02*
X198438Y1354138D01*
X215900Y1371600D01*
X196850Y1352550D02*
X127000Y1352550D01*
X304800Y1352550D02*
X311150Y1346200D01*
X304800Y1352550D02*
X200025Y1352550D01*
X311150Y1346200D02*
X312420Y1346200D01*
X200025Y1352550D02*
X198438Y1354138D01*
X419100Y990600D02*
X444500Y965200D01*
X419100Y990600D02*
X381000Y990600D01*
X328613Y1042988D02*
X304800Y1066800D01*
X328613Y1042988D02*
X381000Y990600D01*
X333375Y1044575D02*
X355600Y1066800D01*
X333375Y1044575D02*
X330200Y1044575D01*
X328613Y1042988D01*
X76200Y1130300D02*
X76200Y1168400D01*
X266700Y1181100D02*
X279400Y1193800D01*
X266700Y1181100D02*
X177800Y1181100D01*
X288925Y1079500D02*
X301625Y1066800D01*
X288925Y1079500D02*
X241300Y1079500D01*
X301625Y1066800D02*
X304800Y1066800D01*
X174625Y1263650D02*
X123825Y1314450D01*
X174625Y1263650D02*
X184150Y1263650D01*
X203200Y1244600D01*
X123825Y1314450D02*
X127000Y1320800D01*
X1196975Y314325D02*
X1419225Y314325D01*
X1581150Y314325D02*
X1597025Y298450D01*
X1581150Y314325D02*
X1419225Y314325D01*
X1422400Y520700D02*
X1422400Y542925D01*
X1216025Y542925D01*
X1193800Y520700D01*
X1816100Y1155700D02*
X1835150Y1174750D01*
X1816100Y1155700D02*
X1612900Y1155700D01*
X1593850Y1174750D01*
X692150Y1111250D02*
X687388Y1116013D01*
X646113Y1157288D01*
X628650Y1174750D01*
X692150Y1111250D02*
X692150Y1073150D01*
X666750Y1073150D01*
X666750Y1072515D01*
X812800Y1117600D02*
X852488Y1157288D01*
X869950Y1174750D01*
X812800Y1117600D02*
X688975Y1117600D01*
X687388Y1116013D01*
X1092200Y1155700D02*
X1093788Y1157288D01*
X1111250Y1174750D01*
X1092200Y1155700D02*
X854075Y1155700D01*
X852488Y1157288D01*
X1333500Y1155700D02*
X1335088Y1157288D01*
X1352550Y1174750D01*
X1333500Y1155700D02*
X1095375Y1155700D01*
X1093788Y1157288D01*
X1577975Y1155700D02*
X1593850Y1171575D01*
X1577975Y1155700D02*
X1336675Y1155700D01*
X1593850Y1171575D02*
X1593850Y1174750D01*
X1336675Y1155700D02*
X1335088Y1157288D01*
X396875Y1104900D02*
X358775Y1066800D01*
X396875Y1104900D02*
X508000Y1104900D01*
X558800Y1155700D01*
X644525Y1155700D01*
X358775Y1066800D02*
X355600Y1066800D01*
X644525Y1155700D02*
X646113Y1157288D01*
X1047750Y962025D02*
X1050925Y965200D01*
X1047750Y962025D02*
X752475Y962025D01*
X749300Y965200D01*
X1050925Y965200D02*
X1054100Y965200D01*
X228600Y965200D02*
X228600Y533400D01*
X228600Y965200D02*
X165100Y965200D01*
D33*
X1733550Y-47625D03*
X447675Y314325D03*
X1565275Y85725D03*
X1536700Y-47625D03*
X1260475Y85725D03*
X968375Y47625D03*
X1482725Y85725D03*
X269875Y-47625D03*
X1622425Y66675D03*
X1317625Y942975D03*
X1419225Y314325D03*
X1196975Y314325D03*
X1597025Y298450D03*
D32*
X1460500Y-47625D02*
X1460500Y-95250D01*
X1456436Y-95250D01*
D33*
X1460500Y-47625D03*
D34*
X1657350Y-47625D02*
X1657350Y-12700D01*
X1657350Y-47625D02*
X1657350Y-95250D01*
X1657350Y-12700D02*
X1682750Y-12700D01*
X1692275Y-22225D01*
X1692275Y-95250D01*
X1657350Y-95250D02*
X1654556Y-95250D01*
X1692275Y-95250D02*
X1694180Y-95250D01*
X1625600Y114300D02*
X1600200Y114300D01*
X1438275Y187325D02*
X1422400Y203200D01*
X1438275Y187325D02*
X1536700Y187325D01*
X1581150Y142875D01*
X1597025Y142875D01*
X2527300Y114300D02*
X2552700Y114300D01*
X2222500Y114300D02*
X2197100Y114300D01*
X2095500Y12700D02*
X2057400Y50800D01*
X2044700Y50800D01*
X1993900Y50800D02*
X1981200Y63500D01*
X1993900Y50800D02*
X2044700Y50800D01*
X2505075Y133350D02*
X2524125Y114300D01*
X2505075Y133350D02*
X2238375Y133350D01*
X2222500Y117475D01*
X2524125Y114300D02*
X2527300Y114300D01*
X2222500Y114300D02*
X2222500Y117475D01*
X1736725Y19050D02*
X1695450Y-22225D01*
X1736725Y19050D02*
X1933575Y19050D01*
X1978025Y63500D01*
X1695450Y-22225D02*
X1692275Y-22225D01*
X1978025Y63500D02*
X1981200Y63500D01*
X520700Y114300D02*
X495300Y114300D01*
X723900Y114300D02*
X749300Y114300D01*
X641350Y133350D02*
X635000Y139700D01*
X641350Y133350D02*
X701675Y133350D01*
X720725Y114300D01*
X723900Y114300D01*
X542925Y139700D02*
X520700Y117475D01*
X542925Y139700D02*
X635000Y139700D01*
X520700Y117475D02*
X520700Y114300D01*
X111125Y-12700D02*
X111125Y-47625D01*
X111125Y-95250D01*
X111125Y-12700D02*
X136525Y-12700D01*
X146050Y-22225D01*
X146050Y-95250D01*
X111125Y-95250D02*
X109220Y-95250D01*
X146050Y-95250D02*
X148844Y-95250D01*
X101600Y203200D02*
X228600Y203200D01*
X114300Y-47625D02*
X111125Y-47625D01*
X441325Y187325D02*
X457200Y203200D01*
X441325Y187325D02*
X247650Y187325D01*
X231775Y203200D01*
X228600Y203200D01*
X1204913Y484188D02*
X1209675Y479425D01*
X1204913Y484188D02*
X1193800Y495300D01*
X1209675Y479425D02*
X1406525Y479425D01*
X1422400Y495300D01*
X1584325Y479425D02*
X1600200Y495300D01*
X1584325Y479425D02*
X1406525Y479425D01*
X895350Y19050D02*
X876300Y38100D01*
X895350Y19050D02*
X996950Y19050D01*
X1016000Y38100D01*
X1295400Y114300D02*
X1320800Y114300D01*
X1016000Y114300D02*
X990600Y114300D01*
X1273175Y133350D02*
X1292225Y114300D01*
X1273175Y133350D02*
X1031875Y133350D01*
X1016000Y117475D01*
X1292225Y114300D02*
X1295400Y114300D01*
X1016000Y114300D02*
X1016000Y117475D01*
X1184275Y463550D02*
X1204913Y484188D01*
X1184275Y463550D02*
X1181100Y463550D01*
X784225Y76200D02*
X749300Y111125D01*
X784225Y76200D02*
X847725Y76200D01*
X749300Y111125D02*
X749300Y114300D01*
X1216025Y180975D02*
X1419225Y180975D01*
X1216025Y180975D02*
X1193800Y203200D01*
X1968500Y990600D02*
X1993900Y990600D01*
X1689100Y990600D02*
X1663700Y990600D01*
X1628775Y1019175D02*
X1625600Y1022350D01*
X1628775Y1019175D02*
X1660525Y1019175D01*
X2578100Y990600D02*
X2603500Y990600D01*
X2298700Y990600D02*
X2273300Y990600D01*
X2339975Y1063625D02*
X2435225Y1063625D01*
X2339975Y1063625D02*
X2330450Y1073150D01*
X2632075Y1438275D02*
X2641600Y1447800D01*
X2632075Y1438275D02*
X2511425Y1438275D01*
X2559050Y1063625D02*
X2574925Y1047750D01*
X2559050Y1063625D02*
X2435225Y1063625D01*
X2101850Y1060450D02*
X2089150Y1073150D01*
X2101850Y1060450D02*
X2339975Y1060450D01*
X2339975Y1063625D01*
X2089150Y1073150D02*
X2009775Y1073150D01*
X774700Y990600D02*
X749300Y990600D01*
X790575Y1047750D02*
X815975Y1073150D01*
X882650Y1073150D01*
X663575Y1047750D02*
X641350Y1069975D01*
X663575Y1047750D02*
X790575Y1047750D01*
X641350Y1069975D02*
X641350Y1072515D01*
X1358900Y990600D02*
X1384300Y990600D01*
X1079500Y990600D02*
X1054100Y990600D01*
X1093788Y1062038D02*
X1104900Y1073150D01*
X1093788Y1062038D02*
X1079500Y1047750D01*
X1104900Y1073150D02*
X1123950Y1073150D01*
X1314450Y1060450D02*
X1331913Y1077913D01*
X1352550Y1098550D01*
X1314450Y1060450D02*
X1095375Y1060450D01*
X1093788Y1062038D01*
X911225Y1047750D02*
X885825Y1073150D01*
X911225Y1047750D02*
X1079500Y1047750D01*
X885825Y1073150D02*
X882650Y1073150D01*
X469900Y990600D02*
X444500Y990600D01*
X615950Y1047750D02*
X638175Y1069975D01*
X615950Y1047750D02*
X409575Y1047750D01*
X403225Y1041400D01*
X403225Y1000125D01*
X425450Y1000125D01*
X434975Y990600D01*
X444500Y990600D01*
X638175Y1069975D02*
X641350Y1072515D01*
X1482725Y1127125D02*
X1489075Y1120775D01*
X1482725Y1127125D02*
X1330325Y1127125D01*
X1314450Y1111250D01*
X1314450Y1079500D01*
X1330325Y1079500D01*
X1331913Y1077913D01*
X1085850Y606425D02*
X1193800Y498475D01*
X1193800Y495300D01*
D33*
X1657350Y-47625D03*
X1597025Y142875D03*
X635000Y139700D03*
X114300Y-47625D03*
X1181100Y463550D03*
X847725Y76200D03*
X1419225Y180975D03*
X1625600Y1022350D03*
X1660525Y1019175D03*
X2435225Y1063625D03*
X2511425Y1438275D03*
X2574925Y1047750D03*
X2009775Y1073150D03*
X790575Y1047750D03*
X1079500Y1047750D03*
X1489075Y1120775D03*
X1085850Y606425D03*
D32*
X1165225Y358775D02*
X1101725Y295275D01*
X1165225Y358775D02*
X1682750Y358775D01*
X1816100Y225425D01*
D33*
X1101725Y295275D03*
X1816100Y225425D03*
D32*
X1171575Y352425D02*
X1114425Y295275D01*
X1171575Y352425D02*
X1676400Y352425D01*
X1790700Y238125D01*
D33*
X1114425Y295275D03*
X1790700Y238125D03*
D32*
X1127125Y276225D02*
X1123950Y273050D01*
X1127125Y276225D02*
X1228725Y276225D01*
X1257300Y304800D01*
X1577975Y304800D01*
X1597025Y285750D01*
X1641475Y285750D01*
X1765300Y161925D01*
D33*
X1123950Y273050D03*
X1765300Y161925D03*
D32*
X1174750Y342900D02*
X1152525Y320675D01*
X1174750Y342900D02*
X1673225Y342900D01*
D33*
X1152525Y320675D03*
X1673225Y342900D03*
D32*
X1174750Y330200D02*
X1165225Y320675D01*
X1174750Y330200D02*
X1673225Y330200D01*
D33*
X1165225Y320675D03*
X1673225Y330200D03*
D32*
X819150Y57150D02*
X800100Y38100D01*
X819150Y57150D02*
X1152525Y57150D01*
X1682750Y57150D02*
X1701800Y38100D01*
X1571625Y57150D02*
X1152525Y57150D01*
X1571625Y57150D02*
X1682750Y57150D01*
X596900Y215900D02*
X584200Y228600D01*
X596900Y215900D02*
X596900Y187325D01*
X755650Y187325D01*
D33*
X1152525Y57150D03*
X755650Y187325D03*
X1571625Y57150D03*
D32*
X803275Y66675D02*
X774700Y38100D01*
X863600Y66675D02*
X1171575Y66675D01*
X863600Y66675D02*
X803275Y66675D01*
X1181100Y76200D02*
X1219200Y114300D01*
X1181100Y76200D02*
X1171575Y66675D01*
X1670050Y76200D02*
X1673225Y79375D01*
X1511300Y76200D02*
X1181100Y76200D01*
X1511300Y76200D02*
X1670050Y76200D01*
X587375Y149225D02*
X571500Y165100D01*
X587375Y149225D02*
X838200Y149225D01*
X863600Y123825D01*
X863600Y66675D01*
X1511300Y76200D02*
X1511300Y79375D01*
D33*
X1673225Y79375D03*
X571500Y165100D03*
X1511300Y79375D03*
D32*
X749300Y38100D02*
X711200Y76200D01*
X561975Y76200D01*
X1631950Y19050D02*
X1651000Y38100D01*
X1631950Y19050D02*
X1311275Y19050D01*
X749300Y0D02*
X749300Y38100D01*
X749300Y0D02*
X1282700Y0D01*
X1301750Y19050D01*
X1311275Y19050D01*
D33*
X561975Y76200D03*
X1311275Y19050D03*
D32*
X1743075Y1028700D02*
X1739900Y1031875D01*
X1743075Y1028700D02*
X2025650Y1028700D01*
X2339975Y1028700D02*
X2349500Y1019175D01*
X2339975Y1028700D02*
X2025650Y1028700D01*
X2644775Y1028700D02*
X2647950Y1025525D01*
X2644775Y1028700D02*
X2339975Y1028700D01*
X1374775Y146050D02*
X1371600Y142875D01*
X1374775Y146050D02*
X1406525Y146050D01*
X520700Y990600D02*
X501650Y1009650D01*
X431800Y1009650D02*
X419100Y1009650D01*
X431800Y1009650D02*
X501650Y1009650D01*
X419100Y1009650D02*
X412750Y1016000D01*
X412750Y1038225D01*
X822325Y1038225D01*
X1123950Y1038225D01*
X1435100Y1038225D01*
X1597025Y1031875D02*
X1739900Y1031875D01*
D33*
X1739900Y1031875D03*
X2025650Y1028700D03*
X2349500Y1019175D03*
X2647950Y1025525D03*
X1371600Y142875D03*
X1406525Y146050D03*
X822325Y1038225D03*
X1123950Y1038225D03*
X431800Y1009650D03*
X1435100Y1038225D03*
X1597025Y1031875D03*
D32*
X422275Y244475D02*
X406400Y228600D01*
X422275Y244475D02*
X666750Y244475D01*
X676275Y234950D01*
X1184275Y234950D01*
X1190625Y241300D01*
X1358900Y241300D01*
X1371600Y228600D01*
X565150Y971550D02*
X546100Y990600D01*
X565150Y971550D02*
X739775Y971550D01*
X746125Y977900D01*
X765175Y977900D01*
X771525Y971550D01*
X831850Y971550D01*
X850900Y990600D01*
X1136650Y971550D02*
X1155700Y990600D01*
X1136650Y971550D02*
X1063625Y971550D01*
X1057275Y977900D01*
X1012825Y977900D01*
X1006475Y971550D01*
X831850Y971550D01*
X1441450Y971550D02*
X1460500Y990600D01*
X1371600Y971550D02*
X1368425Y971550D01*
X1371600Y971550D02*
X1441450Y971550D01*
X1368425Y971550D02*
X1362075Y977900D01*
X1317625Y977900D01*
X1311275Y971550D01*
X1136650Y971550D01*
X1746250Y971550D02*
X1765300Y990600D01*
X1746250Y971550D02*
X1673225Y971550D01*
X1666875Y977900D01*
X1622425Y977900D01*
X1616075Y971550D01*
X1441450Y971550D01*
X2051050Y971550D02*
X2070100Y990600D01*
X2051050Y971550D02*
X1978025Y971550D01*
X1971675Y977900D01*
X1927225Y977900D01*
X1920875Y971550D01*
X1746250Y971550D01*
X2355850Y971550D02*
X2374900Y990600D01*
X2355850Y971550D02*
X2282825Y971550D01*
X2276475Y977900D01*
X2232025Y977900D01*
X2225675Y971550D01*
X2051050Y971550D01*
X2660650Y971550D02*
X2679700Y990600D01*
X2660650Y971550D02*
X2587625Y971550D01*
X2581275Y977900D01*
X2536825Y977900D01*
X2530475Y971550D01*
X2355850Y971550D01*
X1371600Y971550D02*
X1371600Y974725D01*
D33*
X1371600Y974725D03*
D32*
X1416050Y168275D02*
X1419225Y165100D01*
X1416050Y168275D02*
X1387475Y168275D01*
X622300Y990600D02*
X641350Y1009650D01*
X908050Y1009650D01*
X927100Y990600D01*
X1212850Y1009650D02*
X1231900Y990600D01*
X1212850Y1009650D02*
X908050Y1009650D01*
X1517650Y1009650D02*
X1536700Y990600D01*
X1346200Y1009650D02*
X1212850Y1009650D01*
X1346200Y1009650D02*
X1517650Y1009650D01*
X1822450Y1009650D02*
X1841500Y990600D01*
X1822450Y1009650D02*
X1517650Y1009650D01*
X2127250Y1009650D02*
X2146300Y990600D01*
X2127250Y1009650D02*
X1822450Y1009650D01*
X2432050Y1009650D02*
X2451100Y990600D01*
X2432050Y1009650D02*
X2127250Y1009650D01*
X2736850Y1009650D02*
X2755900Y990600D01*
X2736850Y1009650D02*
X2432050Y1009650D01*
X536575Y1009650D02*
X533400Y1006475D01*
X536575Y1009650D02*
X641350Y1009650D01*
D33*
X1419225Y165100D03*
X1387475Y168275D03*
X533400Y1006475D03*
X1346200Y1009650D03*
D32*
X1431925Y155575D02*
X1444625Y142875D01*
X1431925Y155575D02*
X1352550Y155575D01*
X2501900Y1019175D02*
X2505075Y1016000D01*
X2657475Y1016000D02*
X2755900Y1016000D01*
X2657475Y1016000D02*
X2505075Y1016000D01*
X2755900Y1016000D02*
X2781300Y990600D01*
X682625Y1028700D02*
X673100Y1019175D01*
X682625Y1028700D02*
X923925Y1028700D01*
X1219200Y1028700D01*
X1517650Y1028700D02*
X1520825Y1031875D01*
X1517650Y1028700D02*
X1219200Y1028700D01*
X1746250Y1038225D02*
X1860550Y1038225D01*
X1746250Y1038225D02*
X1743075Y1041400D01*
X1587500Y1041400D01*
X1558925Y1069975D01*
X1539875Y1069975D01*
X1520825Y1050925D01*
X1520825Y1031875D01*
X2003425Y1038225D02*
X2124075Y1038225D01*
X2003425Y1038225D02*
X2000250Y1035050D01*
X1863725Y1035050D01*
X1860550Y1038225D01*
X355600Y228600D02*
X342900Y241300D01*
X288925Y241300D01*
X422275Y1019175D02*
X673100Y1019175D01*
X2657475Y1016000D02*
X2657475Y1038225D01*
X2124075Y1038225D01*
D33*
X1444625Y142875D03*
X1352550Y155575D03*
X2501900Y1019175D03*
X673100Y1019175D03*
X923925Y1028700D03*
X1219200Y1028700D03*
X1520825Y1031875D03*
X1860550Y1038225D03*
X2124075Y1038225D03*
X288925Y241300D03*
X422275Y1019175D03*
D32*
X746125Y942975D02*
X923925Y942975D01*
X746125Y942975D02*
X660400Y942975D01*
X431800Y952500D02*
X422275Y942975D01*
X431800Y952500D02*
X549275Y952500D01*
X558800Y962025D01*
X727075Y962025D01*
X746125Y942975D01*
X1882775Y942975D02*
X2143125Y942975D01*
X2752725Y942975D02*
X2781300Y914400D01*
X2752725Y942975D02*
X2505075Y942975D01*
X1260475Y533400D02*
X1257300Y530225D01*
X1260475Y533400D02*
X1282700Y533400D01*
X1295400Y520700D01*
X1406525Y533400D02*
X1409700Y530225D01*
X1406525Y533400D02*
X1282700Y533400D01*
X1835150Y889000D02*
X1838325Y885825D01*
X1835150Y889000D02*
X1568450Y889000D01*
X962025Y889000D02*
X958850Y885825D01*
X962025Y889000D02*
X1568450Y889000D01*
X1565275Y885825D01*
D33*
X660400Y942975D03*
X923925Y942975D03*
X422275Y942975D03*
X1882775Y942975D03*
X2143125Y942975D03*
X2505075Y942975D03*
X1257300Y530225D03*
X1409700Y530225D03*
X1838325Y885825D03*
X1565275Y885825D03*
X958850Y885825D03*
D32*
X1473200Y165100D02*
X1495425Y142875D01*
X1473200Y165100D02*
X1447800Y165100D01*
X1422400Y190500D01*
X1292225Y190500D01*
X1282700Y200025D01*
X1282700Y228600D01*
X1270000Y228600D01*
X622300Y914400D02*
X641350Y933450D01*
X908050Y933450D01*
X927100Y914400D01*
X1212850Y933450D02*
X1231900Y914400D01*
X1212850Y933450D02*
X908050Y933450D01*
X1517650Y933450D02*
X1536700Y914400D01*
X1517650Y933450D02*
X1212850Y933450D01*
X1822450Y933450D02*
X1841500Y914400D01*
X1822450Y933450D02*
X1517650Y933450D01*
X2127250Y933450D02*
X2146300Y914400D01*
X2127250Y933450D02*
X1822450Y933450D01*
X2432050Y933450D02*
X2451100Y914400D01*
X2432050Y933450D02*
X2127250Y933450D01*
X2736850Y933450D02*
X2755900Y914400D01*
X2736850Y933450D02*
X2432050Y933450D01*
X612775Y885825D02*
X317500Y590550D01*
D33*
X1495425Y142875D03*
X317500Y590550D03*
X612775Y885825D03*
D32*
X1504950Y95250D02*
X1524000Y114300D01*
X1504950Y95250D02*
X1304925Y95250D01*
X1298575Y101600D01*
X1285875Y101600D01*
X565150Y895350D02*
X546100Y914400D01*
X565150Y895350D02*
X831850Y895350D01*
X850900Y914400D01*
X1136650Y895350D02*
X1155700Y914400D01*
X1136650Y895350D02*
X831850Y895350D01*
X1441450Y895350D02*
X1460500Y914400D01*
X1441450Y895350D02*
X1136650Y895350D01*
X1746250Y895350D02*
X1765300Y914400D01*
X1746250Y895350D02*
X1441450Y895350D01*
X2051050Y895350D02*
X2070100Y914400D01*
X2051050Y895350D02*
X1746250Y895350D01*
X2355850Y895350D02*
X2374900Y914400D01*
X2355850Y895350D02*
X2051050Y895350D01*
X2660650Y895350D02*
X2679700Y914400D01*
X2660650Y895350D02*
X2355850Y895350D01*
X565150Y895350D02*
X282575Y612775D01*
D33*
X1285875Y101600D03*
X282575Y612775D03*
D32*
X539750Y933450D02*
X558800Y952500D01*
X539750Y933450D02*
X520700Y914400D01*
X558800Y952500D02*
X723900Y952500D01*
X342900Y933450D02*
X273050Y863600D01*
X342900Y933450D02*
X539750Y933450D01*
X1489075Y174625D02*
X1520825Y142875D01*
X1489075Y174625D02*
X1450975Y174625D01*
X1435100Y279400D02*
X1244600Y279400D01*
X1422400Y841375D02*
X1431925Y850900D01*
X1422400Y841375D02*
X1235075Y841375D01*
X1704975Y850900D02*
X1730375Y876300D01*
X1704975Y850900D02*
X1431925Y850900D01*
X2028825Y876300D02*
X2038350Y885825D01*
X2028825Y876300D02*
X1730375Y876300D01*
X1733550Y879475D01*
X2317750Y889000D02*
X2320925Y885825D01*
X2317750Y889000D02*
X2041525Y889000D01*
X2038350Y885825D01*
X2320925Y885825D02*
X2628900Y885825D01*
X1235075Y841375D02*
X879475Y841375D01*
D33*
X723900Y952500D03*
X273050Y863600D03*
X1520825Y142875D03*
X1450975Y174625D03*
X1435100Y279400D03*
X1244600Y279400D03*
X1431925Y850900D03*
X1235075Y841375D03*
X1733550Y879475D03*
X2038350Y885825D03*
X2320925Y885825D03*
X2628900Y885825D03*
X879475Y841375D03*
D32*
X581025Y174625D02*
X596900Y158750D01*
X581025Y174625D02*
X520700Y174625D01*
X495300Y200025D01*
X495300Y228600D01*
X482600Y228600D01*
X619125Y419100D02*
X1425575Y419100D01*
X1431925Y425450D01*
D33*
X596900Y158750D03*
X619125Y419100D03*
X1431925Y425450D03*
D32*
X676275Y158750D02*
X654050Y180975D01*
X539750Y180975D01*
X520700Y200025D01*
X520700Y228600D01*
X508000Y228600D01*
X676275Y158750D02*
X682625Y165100D01*
X1362075Y165100D01*
D33*
X676275Y158750D03*
X1362075Y165100D03*
D32*
X1879600Y114300D02*
X1879600Y400050D01*
X869950Y400050D01*
X860425Y390525D01*
X841375Y371475D02*
X774700Y304800D01*
X422275Y304800D01*
D33*
X860425Y390525D03*
X841375Y371475D03*
X422275Y304800D03*
D32*
X1663700Y304800D02*
X1854200Y114300D01*
X1663700Y304800D02*
X1612900Y304800D01*
X1597025Y454025D02*
X520700Y454025D01*
X422275Y355600D01*
D33*
X1612900Y304800D03*
X1597025Y454025D03*
X422275Y355600D03*
D32*
X1828800Y114300D02*
X1847850Y95250D01*
X1882775Y95250D01*
X1892300Y104775D01*
X1892300Y536575D01*
X1447800Y536575D01*
X1435100Y523875D01*
X1435100Y508000D01*
X1409700Y508000D01*
X1397000Y495300D01*
X1778000Y139700D02*
X1803400Y114300D01*
X1778000Y139700D02*
X1612900Y139700D01*
X1584325Y168275D01*
X1568450Y168275D01*
X1536700Y200025D01*
X1536700Y215900D01*
X1384300Y215900D01*
X1371600Y203200D01*
X520700Y60325D02*
X457200Y-3175D01*
X457200Y-95250D01*
X465836Y-95250D01*
D33*
X520700Y60325D03*
D32*
X571500Y-12700D02*
X622300Y38100D01*
X571500Y-12700D02*
X479425Y-12700D01*
D33*
X479425Y-12700D03*
D32*
X1298575Y6350D02*
X1549400Y6350D01*
X1298575Y6350D02*
X1285875Y-6350D01*
X685800Y-6350D01*
X666750Y-25400D01*
X666750Y-95250D01*
X663956Y-95250D01*
D33*
X1549400Y6350D03*
D32*
X1771650Y387350D02*
X1774825Y390525D01*
X1771650Y387350D02*
X1095375Y387350D01*
X1092200Y390525D01*
X511175Y-47625D02*
X511175Y-95250D01*
X505460Y-95250D01*
D33*
X1774825Y390525D03*
X1092200Y390525D03*
X511175Y-47625D03*
D32*
X2228850Y819150D02*
X2289175Y879475D01*
X2228850Y819150D02*
X2079625Y819150D01*
X1374775Y879475D02*
X1114425Y879475D01*
X1387475Y942975D02*
X1660525Y942975D01*
X774700Y914400D02*
X765175Y904875D01*
X733425Y904875D01*
X1111250Y876300D02*
X1114425Y879475D01*
X1111250Y876300D02*
X736600Y876300D01*
X2254250Y952500D02*
X2263775Y942975D01*
X2254250Y952500D02*
X1670050Y952500D01*
X1660525Y942975D01*
D33*
X2289175Y879475D03*
X2079625Y819150D03*
X1114425Y879475D03*
X1374775Y879475D03*
X1660525Y942975D03*
X1387475Y942975D03*
X733425Y904875D03*
X736600Y876300D03*
X2263775Y942975D03*
D32*
X2717800Y1447800D02*
X2755900Y1485900D01*
X2768600Y1485900D01*
X2781300Y1498600D01*
X571500Y38100D02*
X546100Y38100D01*
X625475Y282575D02*
X641350Y298450D01*
X1092200Y298450D01*
X1162050Y368300D01*
X1587500Y368300D01*
D33*
X625475Y282575D03*
X1587500Y368300D03*
D34*
X177800Y1320800D02*
X152400Y1320800D01*
X152400Y1371600D02*
X190500Y1371600D01*
X330200Y1238250D02*
X330200Y1155700D01*
X330200Y1238250D02*
X234950Y1238250D01*
X228600Y1244600D01*
X330200Y1155700D02*
X330600Y1155700D01*
X190500Y-44450D02*
X190500Y-95250D01*
X188468Y-95250D01*
X212725Y257175D02*
X654050Y257175D01*
X1600200Y254000D02*
X1625600Y228600D01*
X1600200Y254000D02*
X1139825Y254000D01*
X1133475Y247650D01*
X679450Y247650D01*
X669925Y257175D01*
X654050Y257175D01*
D33*
X190500Y-44450D03*
X654050Y257175D03*
X212725Y257175D03*
D35*
X1616075Y-44450D02*
X1616075Y-95250D01*
X1614932Y-95250D01*
X1625600Y203200D02*
X1641475Y219075D01*
X1641475Y273050D01*
X1628775Y273050D01*
X1612900Y6350D02*
X1584325Y6350D01*
X1584325Y180975D02*
X1590675Y187325D01*
X1609725Y187325D01*
X1625600Y203200D01*
X228600Y469900D02*
X215900Y482600D01*
X177800Y482600D01*
X673100Y269875D02*
X676275Y273050D01*
X673100Y269875D02*
X425450Y269875D01*
X260350Y434975D01*
X1622425Y266700D02*
X1628775Y273050D01*
X1622425Y266700D02*
X1136650Y266700D01*
X1130300Y260350D01*
X688975Y260350D01*
X676275Y273050D01*
D33*
X1616075Y-44450D03*
X1628775Y273050D03*
X1612900Y6350D03*
X1584325Y6350D03*
X1584325Y180975D03*
X676275Y273050D03*
X260350Y434975D03*
D32*
X1689100Y76200D02*
X2108200Y76200D01*
X1689100Y76200D02*
X1670050Y95250D01*
X1609725Y95250D01*
X1603375Y101600D01*
X1565275Y101600D01*
D33*
X1565275Y101600D03*
D32*
X1504950Y422275D02*
X1803400Y422275D01*
X1504950Y422275D02*
X1495425Y412750D01*
X723900Y412750D01*
X625475Y314325D01*
D33*
X1803400Y422275D03*
X625475Y314325D03*
D32*
X2600579Y1523746D02*
X2609850Y1514475D01*
X2628900Y1514475D01*
X2663825Y1479550D01*
X2673350Y1479550D01*
X2692400Y1498600D01*
X1657350Y323850D02*
X1663700Y317500D01*
X1657350Y323850D02*
X1181100Y323850D01*
X1139825Y282575D01*
X854075Y282575D01*
X850900Y279400D01*
X2520950Y806450D02*
X2552700Y838200D01*
X2520950Y806450D02*
X2082800Y806450D01*
D33*
X2082800Y806450D03*
D32*
X1771650Y412750D02*
X1765300Y406400D01*
X815975Y406400D01*
X723900Y314325D01*
D33*
X1771650Y412750D03*
X723900Y314325D03*
D32*
X596900Y114300D02*
X571500Y114300D01*
X803275Y381000D02*
X1822450Y381000D01*
X803275Y381000D02*
X736600Y314325D01*
D33*
X1822450Y381000D03*
X736600Y314325D03*
D32*
X419100Y114300D02*
X381000Y76200D01*
X317500Y76200D01*
X307975Y66675D01*
X307975Y-15875D01*
X336550Y-15875D01*
X346075Y-25400D01*
X346075Y-95250D01*
X346964Y-95250D01*
X1085850Y444500D02*
X1654175Y444500D01*
D33*
X1085850Y444500D03*
X1654175Y444500D03*
D36*
X1209675Y1298575D02*
X1219200Y1308100D01*
X1209675Y1298575D02*
X1139825Y1298575D01*
X1138550Y1297950D01*
X406400Y1346200D02*
X347980Y1346200D01*
X346075Y1346200D02*
X320675Y1371600D01*
X266700Y1371600D01*
X346075Y1346200D02*
X347980Y1346200D01*
X736600Y1231900D02*
X977900Y1231900D01*
X1219200Y1231900D01*
X1460500Y1231900D01*
X1701800Y1231900D01*
X1943100Y1231900D01*
X2184400Y1231900D01*
X2425700Y1231900D01*
X520700Y1231900D02*
X406400Y1346200D01*
X520700Y1231900D02*
X736600Y1231900D01*
X1450975Y1298575D02*
X1460500Y1308100D01*
X1450975Y1298575D02*
X1381125Y1298575D01*
X1379850Y1297950D01*
X736600Y1308100D02*
X727075Y1298575D01*
X657225Y1298575D01*
X655950Y1297950D01*
X968375Y1298575D02*
X977900Y1308100D01*
X968375Y1298575D02*
X898525Y1298575D01*
X897250Y1297950D01*
D32*
X1127125Y1266825D02*
X1146175Y1247775D01*
X1127125Y1266825D02*
X1063625Y1266825D01*
X1038225Y1292225D01*
X1038225Y1330325D01*
X1041050Y1332950D01*
D33*
X1146175Y1247775D03*
D32*
X1063625Y1257300D02*
X1022350Y1298575D01*
X1022350Y1422400D01*
X1038225Y1422400D01*
X1041050Y1422950D01*
D33*
X1063625Y1257300D03*
D32*
X1054100Y1143000D02*
X1009650Y1098550D01*
X1054100Y1143000D02*
X1076325Y1143000D01*
D33*
X1076325Y1143000D03*
D32*
X1009650Y1174750D02*
X1047750Y1212850D01*
X1089025Y1212850D01*
D33*
X1089025Y1212850D03*
D32*
X1358900Y1266825D02*
X1377950Y1247775D01*
X1358900Y1266825D02*
X1304925Y1266825D01*
X1279525Y1292225D01*
X1279525Y1330325D01*
X1282350Y1332950D01*
D33*
X1377950Y1247775D03*
D32*
X1327150Y1174750D02*
X1285875Y1216025D01*
D33*
X1285875Y1216025D03*
D32*
X1238250Y1362075D02*
X1279525Y1403350D01*
X1320800Y1403350D01*
X1339850Y1422400D01*
X1397000Y1422400D01*
X1397350Y1422950D01*
D33*
X1238250Y1362075D03*
D32*
X692150Y1346200D02*
X685800Y1352550D01*
X635000Y1352550D01*
X615950Y1333500D01*
X558800Y1333500D01*
X558450Y1332950D01*
D33*
X692150Y1346200D03*
D32*
X682625Y1266825D02*
X701675Y1247775D01*
X682625Y1266825D02*
X581025Y1266825D01*
X539750Y1308100D01*
X539750Y1377950D01*
X558450Y1377950D01*
D33*
X701675Y1247775D03*
D32*
X708025Y1203325D02*
X679450Y1174750D01*
X708025Y1203325D02*
X711200Y1203325D01*
D33*
X711200Y1203325D03*
D32*
X549275Y1403350D02*
X504825Y1358900D01*
X549275Y1403350D02*
X596900Y1403350D01*
X615950Y1422400D01*
X673100Y1422400D01*
X673450Y1422950D01*
D33*
X504825Y1358900D03*
D32*
X568325Y1216025D02*
X527050Y1174750D01*
X568325Y1216025D02*
X609600Y1216025D01*
D33*
X609600Y1216025D03*
D32*
X819150Y1279525D02*
X828675Y1270000D01*
X819150Y1279525D02*
X809625Y1279525D01*
X796925Y1292225D01*
X796925Y1330325D01*
X799750Y1332950D01*
D33*
X828675Y1270000D03*
D32*
X904875Y1216025D02*
X946150Y1174750D01*
X904875Y1216025D02*
X790575Y1216025D01*
D33*
X790575Y1216025D03*
D32*
X819150Y1260475D02*
X781050Y1298575D01*
X781050Y1438275D01*
X787400Y1438275D01*
X806450Y1457325D01*
X815975Y1457325D01*
X817250Y1457950D01*
D33*
X819150Y1260475D03*
D32*
X800100Y1206500D02*
X768350Y1174750D01*
X800100Y1206500D02*
X854075Y1206500D01*
D33*
X854075Y1206500D03*
D32*
X1085850Y1098550D02*
X1104900Y1117600D01*
X1190625Y1117600D01*
X1235075Y1073150D01*
D33*
X1235075Y1073150D03*
D32*
X1406525Y1079500D02*
X1447800Y1038225D01*
X1406525Y1079500D02*
X1400175Y1079500D01*
X1381125Y1098550D01*
X1377950Y1098550D01*
D33*
X1447800Y1038225D03*
D32*
X1473200Y1038225D02*
X1431925Y1079500D01*
X1422400Y1079500D01*
X1403350Y1098550D01*
D33*
X1473200Y1038225D03*
D32*
X1346200Y1117600D02*
X1327150Y1098550D01*
X1346200Y1117600D02*
X1431925Y1117600D01*
X1508125Y1041400D01*
D33*
X1508125Y1041400D03*
D32*
X838200Y1504950D02*
X2457450Y1504950D01*
X838200Y1504950D02*
X752475Y1419225D01*
X752475Y1273175D01*
X628650Y1273175D01*
X615950Y1285875D01*
X615950Y1287950D01*
D33*
X2457450Y1504950D03*
D32*
X1069975Y1482725D02*
X1063625Y1476375D01*
X1041400Y1476375D01*
X917575Y1352550D01*
X908050Y1352550D01*
X857250Y1301750D01*
X857250Y1287950D01*
D33*
X1069975Y1482725D03*
D32*
X2743200Y1428750D02*
X2743200Y1397000D01*
X2743200Y1428750D02*
X2479675Y1428750D01*
X1323975Y1495425D02*
X1304925Y1476375D01*
X1282700Y1476375D01*
X1158875Y1352550D01*
X1149350Y1352550D01*
X1098550Y1301750D01*
X1098550Y1287950D01*
D33*
X2479675Y1428750D03*
X1323975Y1495425D03*
D32*
X2844800Y1435100D02*
X2844800Y1397000D01*
X2844800Y1435100D02*
X2670175Y1435100D01*
X2622550Y1482725D01*
X2355850Y1482725D01*
X2343150Y1495425D01*
X1543050Y1495425D01*
X1400175Y1352550D01*
X1390650Y1352550D01*
X1339850Y1301750D01*
X1339850Y1287950D01*
D36*
X2174875Y1298575D02*
X2184400Y1308100D01*
X2174875Y1298575D02*
X2105025Y1298575D01*
X2103750Y1297950D01*
X2416175Y1298575D02*
X2425700Y1308100D01*
X2416175Y1298575D02*
X2346325Y1298575D01*
X2345050Y1297950D01*
X1701800Y1308100D02*
X1692275Y1298575D01*
X1622425Y1298575D01*
X1621150Y1297950D01*
X1933575Y1298575D02*
X1943100Y1308100D01*
X1933575Y1298575D02*
X1863725Y1298575D01*
X1862450Y1297950D01*
D32*
X2105025Y1146175D02*
X2117725Y1133475D01*
X2105025Y1146175D02*
X2032000Y1146175D01*
X2012950Y1165225D01*
X2012950Y1206500D01*
D33*
X2117725Y1133475D03*
X2012950Y1206500D03*
D32*
X2155825Y1327150D02*
X2130425Y1352550D01*
X2082800Y1352550D01*
X2076450Y1346200D01*
X2038350Y1346200D01*
X2006600Y1377950D01*
X2006250Y1377950D01*
D33*
X2155825Y1327150D03*
D32*
X2047875Y1270000D02*
X2038350Y1279525D01*
X2016125Y1279525D01*
X1955800Y1339850D01*
X1955800Y1422400D01*
X2003425Y1422400D01*
X2006250Y1422950D01*
D33*
X2047875Y1270000D03*
D32*
X2120900Y1193800D02*
X2101850Y1174750D01*
X2120900Y1193800D02*
X2162175Y1193800D01*
X2165350Y1190625D01*
D33*
X2165350Y1190625D03*
D32*
X1965325Y1365250D02*
X2003425Y1403350D01*
X2044700Y1403350D01*
X2063750Y1422400D01*
X2120900Y1422400D01*
X2121250Y1422950D01*
D33*
X1965325Y1365250D03*
D32*
X2393950Y1352550D02*
X2393950Y1314450D01*
X2393950Y1352550D02*
X2324100Y1352550D01*
X2317750Y1346200D01*
X2279650Y1346200D01*
X2247900Y1377950D01*
X2247550Y1377950D01*
D33*
X2393950Y1314450D03*
D32*
X2276475Y1276350D02*
X2273300Y1279525D01*
X2257425Y1279525D01*
X2187575Y1349375D01*
X2187575Y1422400D01*
X2244725Y1422400D01*
X2247550Y1422950D01*
D33*
X2276475Y1276350D03*
D32*
X2197100Y1355725D02*
X2244725Y1403350D01*
X2286000Y1403350D01*
X2292350Y1409700D01*
X2330450Y1409700D01*
X2362200Y1377950D01*
X2362550Y1377950D01*
D33*
X2197100Y1355725D03*
D32*
X2235200Y1193800D02*
X2216150Y1174750D01*
X2235200Y1193800D02*
X2352675Y1193800D01*
X2355850Y1190625D01*
D33*
X2355850Y1190625D03*
D32*
X1682750Y1247775D02*
X1663700Y1266825D01*
X1546225Y1266825D01*
X1520825Y1292225D01*
X1520825Y1330325D01*
X1523650Y1332950D01*
D33*
X1682750Y1247775D03*
D32*
X1628775Y1216025D02*
X1670050Y1174750D01*
X1628775Y1216025D02*
X1530350Y1216025D01*
D33*
X1530350Y1216025D03*
D32*
X1479550Y1362075D02*
X1520825Y1403350D01*
X1562100Y1403350D01*
X1581150Y1422400D01*
X1638300Y1422400D01*
X1638650Y1422950D01*
D33*
X1479550Y1362075D03*
D32*
X1562100Y1143000D02*
X1517650Y1098550D01*
X1562100Y1143000D02*
X1616075Y1143000D01*
D33*
X1616075Y1143000D03*
D32*
X1889125Y1352550D02*
X1920875Y1320800D01*
X1889125Y1352550D02*
X1841500Y1352550D01*
X1822450Y1333500D01*
X1765300Y1333500D01*
X1764950Y1332950D01*
D33*
X1920875Y1320800D03*
D32*
X1870075Y1216025D02*
X1911350Y1174750D01*
X1870075Y1216025D02*
X1771650Y1216025D01*
D33*
X1771650Y1216025D03*
D32*
X1781175Y1203325D02*
X1809750Y1174750D01*
X1781175Y1203325D02*
X1749425Y1203325D01*
D33*
X1749425Y1203325D03*
D32*
X1673225Y1054100D02*
X1676400Y1050925D01*
X1673225Y1054100D02*
X1587500Y1054100D01*
X1543050Y1098550D01*
D33*
X1676400Y1050925D03*
D32*
X1739900Y1060450D02*
X1752600Y1047750D01*
X1739900Y1060450D02*
X1635125Y1060450D01*
X1625600Y1069975D01*
X1625600Y1098550D01*
X1619250Y1098550D01*
D33*
X1752600Y1047750D03*
D32*
X1587500Y1117600D02*
X1568450Y1098550D01*
X1587500Y1117600D02*
X1692275Y1117600D01*
X1752600Y1057275D01*
X1771650Y1057275D01*
D33*
X1771650Y1057275D03*
D32*
X1784350Y1098550D02*
X1835150Y1047750D01*
X1993900Y1047750D01*
X1997075Y1044575D01*
D33*
X1997075Y1044575D03*
D32*
X1879600Y1117600D02*
X1860550Y1098550D01*
X1879600Y1117600D02*
X2060575Y1117600D01*
D33*
X2060575Y1117600D03*
D32*
X1930400Y1054100D02*
X1885950Y1098550D01*
X1930400Y1054100D02*
X2073275Y1054100D01*
D33*
X2073275Y1054100D03*
D32*
X1819275Y1108075D02*
X1809750Y1098550D01*
X1819275Y1108075D02*
X1822450Y1108075D01*
X1838325Y1123950D01*
X2054225Y1123950D01*
X2057400Y1127125D01*
X2095500Y1127125D01*
X2101850Y1120775D01*
D33*
X2101850Y1120775D03*
D32*
X2101850Y1098550D02*
X2136775Y1133475D01*
X2463800Y1133475D01*
D33*
X2463800Y1133475D03*
D32*
X2292350Y1123950D02*
X2266950Y1098550D01*
X2292350Y1123950D02*
X2479675Y1123950D01*
X2486025Y1130300D01*
X2511425Y1130300D01*
X2543175Y1098550D01*
X2574925Y1098550D01*
D33*
X2574925Y1098550D03*
D32*
X2368550Y1073150D02*
X2343150Y1098550D01*
X2368550Y1073150D02*
X2622550Y1073150D01*
X2647950Y1047750D01*
D33*
X2647950Y1047750D03*
D32*
X2387600Y1079500D02*
X2368550Y1098550D01*
X2387600Y1079500D02*
X2667000Y1079500D01*
D33*
X2667000Y1079500D03*
D32*
X2311400Y1117600D02*
X2292350Y1098550D01*
X2311400Y1117600D02*
X2473325Y1117600D01*
X2501900Y1089025D01*
X2705100Y1089025D01*
D33*
X2705100Y1089025D03*
D32*
X0Y1130300D02*
X0Y1231900D01*
X-3175Y1231900D01*
X-12700Y1241425D01*
X-12700Y1485900D01*
X178054Y1485900D01*
X19050Y1339850D02*
X0Y1320800D01*
X19050Y1339850D02*
X57150Y1339850D01*
X76200Y1320800D01*
X101600Y1320800D01*
X0Y1244600D02*
X38100Y1206500D01*
X50800Y1206500D01*
X101600Y1231900D02*
X127000Y1206500D01*
X101600Y1231900D02*
X101600Y1244600D01*
X152400Y1244600D02*
X152400Y1181100D01*
X203200Y1193800D02*
X203200Y1225550D01*
X196850Y1225550D01*
X177800Y1244600D01*
D36*
X234950Y1060450D02*
X241300Y1054100D01*
X234950Y1060450D02*
X225425Y1060450D01*
X212725Y1073150D01*
X212725Y1133475D01*
X355600Y1133475D01*
X377825Y1155700D01*
X380600Y1155700D01*
D32*
X266700Y1447800D02*
X228600Y1485900D01*
X228346Y1485900D01*
X241300Y965200D02*
X279400Y965200D01*
X228600Y1320800D02*
X203200Y1320800D01*
X355600Y990600D02*
X355600Y965200D01*
X247650Y1035050D02*
X241300Y1028700D01*
X247650Y1035050D02*
X298450Y1035050D01*
X304800Y1041400D01*
X355600Y990600D01*
X485775Y1397000D02*
X603250Y1514475D01*
X2422525Y1514475D01*
D33*
X485775Y1397000D03*
X2422525Y1514475D03*
D32*
X1177925Y1019175D02*
X803275Y1019175D01*
D33*
X803275Y1019175D03*
X1177925Y1019175D03*
D32*
X2425700Y1457325D02*
X2511425Y1371600D01*
X2781300Y1371600D01*
X2794000Y1358900D01*
D33*
X2425700Y1457325D03*
D32*
X1730375Y1146175D02*
X1711325Y1127125D01*
X1730375Y1146175D02*
X1924050Y1146175D01*
X1993900Y1216025D01*
X2457450Y1216025D01*
X2460625Y1219200D01*
X2489200Y1219200D01*
D33*
X1711325Y1127125D03*
D32*
X2463800Y1209675D02*
X2466975Y1206500D01*
X2679700Y1206500D01*
X2692400Y1219200D01*
D33*
X2463800Y1209675D03*
D32*
X850900Y482600D02*
X831850Y463550D01*
X850900Y482600D02*
X930275Y482600D01*
X1273175Y825500D01*
D33*
X831850Y463550D03*
X1273175Y825500D03*
D32*
X1260475Y835025D02*
X917575Y492125D01*
X1260475Y835025D02*
X1530350Y835025D01*
D33*
X917575Y492125D03*
X1530350Y835025D03*
D32*
X1339850Y825500D02*
X1209675Y695325D01*
X1339850Y825500D02*
X2003425Y825500D01*
X2057400Y879475D01*
X2209800Y879475D01*
D33*
X1209675Y695325D03*
X2209800Y879475D03*
D32*
X1114425Y650875D02*
X927100Y463550D01*
X1114425Y650875D02*
X1651000Y650875D01*
D33*
X927100Y463550D03*
X1651000Y650875D03*
D32*
X1187450Y660400D02*
X2301875Y660400D01*
X2428875Y787400D01*
D33*
X1187450Y660400D03*
X2428875Y787400D03*
D32*
X1336675Y796925D02*
X1209675Y669925D01*
X1336675Y796925D02*
X2736850Y796925D01*
X2844800Y904875D01*
X2844800Y990600D01*
X2832100Y990600D01*
D33*
X1209675Y669925D03*
D32*
X2403475Y1460500D02*
X2540000Y1323975D01*
X2403475Y1460500D02*
X2368550Y1460500D01*
X2339975Y1489075D01*
X1778000Y1489075D01*
X1641475Y1352550D01*
X1631950Y1352550D01*
X1581150Y1301750D01*
X1581150Y1287950D01*
D33*
X2540000Y1323975D03*
D32*
X2641600Y1289050D02*
X2641600Y1257300D01*
X2641600Y1289050D02*
X2438400Y1289050D01*
X2416175Y1266825D01*
X2057400Y1266825D01*
X2051050Y1260475D01*
X1917700Y1260475D01*
X1905000Y1273175D01*
X1835150Y1273175D01*
X1822450Y1285875D01*
X1822450Y1287950D01*
X2743200Y1257300D02*
X2743200Y1200150D01*
X2117725Y1200150D01*
X2111375Y1206500D01*
D33*
X2111375Y1206500D03*
D32*
X2844800Y1257300D02*
X2844800Y1295400D01*
X2435225Y1295400D01*
X2413000Y1273175D01*
X2317750Y1273175D01*
X2305050Y1285875D01*
X2305050Y1287950D01*
X2768600Y1276350D02*
X2768600Y1219200D01*
X2768600Y1276350D02*
X2730500Y1276350D01*
X1574800Y-3175D02*
X1362075Y-3175D01*
X1574800Y-3175D02*
X1577975Y-6350D01*
X1628775Y-6350D01*
X1651000Y15875D01*
D33*
X1362075Y-3175D03*
X1651000Y15875D03*
D32*
X1365250Y133350D02*
X1346200Y114300D01*
X1365250Y133350D02*
X1682750Y133350D01*
X1701800Y114300D01*
X1905000Y114300D02*
X2095500Y114300D01*
X2108200Y101600D01*
X2133600Y101600D01*
D35*
X152400Y244475D02*
X152400Y342900D01*
X152400Y244475D02*
X95250Y244475D01*
X85725Y234950D01*
X85725Y12700D01*
X209550Y12700D01*
X225425Y-44450D02*
X225425Y-95250D01*
X228092Y-95250D01*
D33*
X209550Y12700D03*
X225425Y-44450D03*
D35*
X228600Y508000D02*
X177800Y508000D01*
M02*
