M48
;GenerationSoftware,Autodesk,EAGLE,9.6.1*%
;CreationDate,2024-06-27T02:41:09Z*%
FMAT,2
ICI,OFF
METRIC,TZ,000.000
T9C0.610
T8C0.813
T7C0.914
T6C1.016
T5C1.100
T4C1.143
T3C1.200
T2C1.300
T1C3.962
%
G90
M71
T1
X55880Y59690
T2
X27900Y64850
X30400Y64850
X22900Y64850
X20400Y64850
X25360Y64850
X7660Y64850
X5160Y64850
X10120Y64850
X25400Y69850
X10160Y69850
X12660Y64850
X15160Y64850
T3
X15160Y72350
X5160Y72350
X5160Y69850
X15160Y69850
X30400Y69850
X30400Y72350
X20400Y72350
X20400Y69850
T4
X71120Y38100
X86360Y38100
T5
X73740Y38100
X83740Y38100
T6
X35560Y7620
X38100Y7620
X73660Y66040
X58420Y5080
X55880Y5080
X53340Y5080
X50800Y5080
X40640Y7620
X48260Y7620
X48260Y5080
X45720Y7620
X91440Y16510
X63500Y7620
X60960Y7620
X43180Y7620
X55880Y7620
X53340Y7620
X50800Y7620
X63500Y5080
X60960Y5080
X58420Y7620
X43180Y5080
X40640Y5080
X38100Y5080
X35560Y5080
X33020Y5080
X30480Y7620
X30480Y5080
X27940Y7620
X25400Y7620
X22860Y7620
X20320Y7620
X27940Y5080
X25400Y5080
X20320Y5080
X48260Y69850
X45720Y69850
X43180Y69850
X22860Y5080
X45720Y5080
X33020Y7620
X81280Y38100
X76200Y38100
X13970Y36830
X6350Y36830
T7
X38100Y69850
X35560Y69850
T8
X88900Y59690
X88900Y67310
X88900Y57150
X88900Y54610
X82550Y19050
X82550Y11430
X88900Y7620
X86360Y7620
X77470Y15240
X86360Y16510
X88900Y16510
X62230Y34290
X62230Y26670
X57150Y26670
X54610Y26670
X52070Y38100
X52070Y35560
X59690Y35560
X59690Y38100
X52070Y33020
X52070Y30480
X59690Y33020
X59690Y30480
X57150Y48260
X57150Y45720
X53340Y41910
X53340Y49530
X60960Y45720
X60960Y48260
X59690Y41910
X41910Y31750
X34290Y31750
X46990Y31750
X46990Y29210
X30480Y57150
X27940Y57150
X53340Y53340
X60960Y53340
X82550Y55880
X85090Y55880
X7620Y21590
X7620Y19050
X57150Y41910
X85090Y59690
X36830Y21590
X36830Y19050
X5080Y27940
X5080Y30480
X43205Y63500
X48235Y63500
X45720Y66040
X69850Y60960
X67310Y60960
X77470Y59690
X80010Y59690
X80010Y67310
X77470Y67310
X82550Y59690
X3810Y11430
X3810Y21590
X77470Y17780
X82550Y67310
X85090Y67310
X39370Y13970
X41910Y13970
X44450Y13970
X46990Y13970
X49530Y13970
X52070Y13970
X54610Y13970
X57150Y13970
X59690Y13970
X62230Y13970
X64770Y13970
X67310Y13970
X67310Y21590
X64770Y21590
X62230Y21590
X59690Y21590
X57150Y21590
X54610Y21590
X52070Y21590
X49530Y21590
X46990Y21590
X44450Y21590
X41910Y21590
X39370Y21590
X77445Y6350
X72415Y6350
X74930Y3810
X80010Y69850
X77470Y69850
X73660Y63500
X73660Y60960
X83820Y69850
X86360Y69850
X24130Y36830
X26670Y36830
X39370Y36830
X41910Y36830
X29210Y36830
X31750Y36830
X36830Y36830
X34290Y36830
X41910Y44450
X39370Y44450
X36830Y44450
X34290Y44450
X31750Y44450
X29210Y44450
X26670Y44450
X24130Y44450
X6350Y53340
X6350Y45720
X13970Y45720
X13970Y53340
X55880Y69850
X55880Y67310
X10160Y13970
X12700Y13970
X25400Y13970
X27940Y13970
X15240Y13970
X17780Y13970
X22860Y13970
X20320Y13970
X30480Y13970
X33020Y13970
X33020Y21590
X30480Y21590
X27940Y21590
X25400Y21590
X22860Y21590
X20320Y21590
X17780Y21590
X15240Y21590
X12700Y21590
X10160Y21590
X21590Y44450
X21590Y41910
X11430Y58420
X8890Y58420
X68580Y55880
X66675Y54610
X68580Y53340
X63500Y57150
X63500Y49530
X68580Y67310
X68580Y69850
X71120Y21590
X71120Y13970
T9
X33655Y24765
X22860Y9525
X10160Y10795
X60325Y55880
X32385Y19050
M30