G04 EAGLE Gerber RS-274X export*
G75*
%MOMM*%
%FSLAX34Y34*%
%LPD*%
%INTop Copper*%
%IPPOS*%
%AMOC8*
5,1,8,0,0,1.08239X$1,22.5*%
G01*
%ADD10P,1.429621X8X292.500000*%
%ADD11P,1.732040X8X292.500000*%
%ADD12C,1.600200*%
%ADD13P,1.429621X8X202.500000*%
%ADD14C,1.320800*%
%ADD15P,1.429621X8X22.500000*%
%ADD16P,1.732040X8X112.500000*%
%ADD17P,1.429621X8X112.500000*%
%ADD18C,1.422400*%
%ADD19C,2.184400*%
%ADD20P,1.649562X8X22.500000*%
%ADD21P,1.732040X8X22.500000*%
%ADD22P,1.649562X8X202.500000*%
%ADD23C,1.320800*%
%ADD24C,1.524000*%
%ADD25R,1.714500X1.714500*%
%ADD26C,1.676400*%
%ADD27C,0.812800*%
%ADD28C,1.016000*%
%ADD29C,0.254000*%


D10*
X368300Y215900D03*
X368300Y190500D03*
D11*
X50800Y279400D03*
D12*
X50800Y304800D03*
D13*
X432054Y635000D03*
X482346Y635000D03*
X457200Y660400D03*
X698500Y609600D03*
X673100Y609600D03*
D14*
X774700Y596900D03*
X800100Y596900D03*
X800100Y673100D03*
X774700Y673100D03*
X825500Y596900D03*
X850900Y596900D03*
X825500Y673100D03*
X850900Y673100D03*
D13*
X800100Y698500D03*
X774700Y698500D03*
D10*
X736600Y635000D03*
X736600Y609600D03*
D15*
X838200Y698500D03*
X863600Y698500D03*
D16*
X558800Y698500D03*
D12*
X558800Y673100D03*
D17*
X889000Y596900D03*
X889000Y673100D03*
D10*
X889000Y571500D03*
X889000Y546100D03*
D18*
X381000Y691388D02*
X381000Y705612D01*
X355600Y705612D02*
X355600Y691388D01*
D19*
X254000Y698500D03*
X279000Y648500D03*
X304000Y648500D03*
X229000Y648500D03*
X204000Y648500D03*
X253600Y648500D03*
D20*
X736600Y660400D03*
D10*
X825500Y190500D03*
X825500Y114300D03*
D21*
X889000Y76200D03*
D12*
X863600Y76200D03*
D16*
X774700Y177800D03*
D12*
X774700Y152400D03*
D15*
X863600Y165100D03*
X889000Y165100D03*
D19*
X101600Y698500D03*
X126600Y648500D03*
X151600Y648500D03*
X76600Y648500D03*
X51600Y648500D03*
X101200Y648500D03*
D20*
X914400Y165100D03*
D10*
X622300Y342900D03*
X622300Y266700D03*
D13*
X571500Y266700D03*
X546100Y266700D03*
D14*
X520700Y381000D03*
X520700Y355600D03*
X596900Y355600D03*
X596900Y381000D03*
X520700Y330200D03*
X520700Y304800D03*
X596900Y330200D03*
X596900Y304800D03*
D10*
X571500Y482600D03*
X571500Y457200D03*
D17*
X533400Y419100D03*
X533400Y495300D03*
X609600Y457200D03*
X609600Y482600D03*
D13*
X596900Y419100D03*
X571500Y419100D03*
X419100Y317500D03*
X342900Y317500D03*
D10*
X469900Y317500D03*
X469900Y292100D03*
D21*
X304800Y571500D03*
D12*
X279400Y571500D03*
D15*
X533400Y533400D03*
X609600Y533400D03*
X825500Y558800D03*
X850900Y558800D03*
D10*
X76200Y215900D03*
X76200Y190500D03*
D22*
X635000Y76200D03*
X609600Y76200D03*
X584200Y76200D03*
X558800Y76200D03*
X533400Y76200D03*
X508000Y76200D03*
X635000Y50800D03*
X609600Y50800D03*
X584200Y50800D03*
X558800Y50800D03*
X533400Y50800D03*
X508000Y50800D03*
X482600Y76200D03*
X482600Y50800D03*
X457200Y76200D03*
X431800Y76200D03*
X406400Y76200D03*
X381000Y76200D03*
X355600Y76200D03*
X330200Y76200D03*
X457200Y50800D03*
X431800Y50800D03*
X406400Y50800D03*
X381000Y50800D03*
X355600Y50800D03*
X330200Y50800D03*
X304800Y76200D03*
X304800Y50800D03*
X279400Y76200D03*
X254000Y76200D03*
X228600Y76200D03*
X203200Y76200D03*
X279400Y50800D03*
X254000Y50800D03*
X228600Y50800D03*
X203200Y50800D03*
D23*
X44704Y114300D02*
X31496Y114300D01*
X31496Y215900D02*
X44704Y215900D01*
D24*
X482600Y690880D02*
X482600Y706120D01*
X457200Y706120D02*
X457200Y690880D01*
X431800Y690880D02*
X431800Y706120D01*
D23*
X393700Y146304D02*
X393700Y133096D01*
X419100Y133096D02*
X419100Y146304D01*
X444500Y146304D02*
X444500Y133096D01*
X469900Y133096D02*
X469900Y146304D01*
X495300Y146304D02*
X495300Y133096D01*
X520700Y133096D02*
X520700Y146304D01*
X546100Y146304D02*
X546100Y133096D01*
X571500Y133096D02*
X571500Y146304D01*
X596900Y146304D02*
X596900Y133096D01*
X622300Y133096D02*
X622300Y146304D01*
X647700Y146304D02*
X647700Y133096D01*
X673100Y133096D02*
X673100Y146304D01*
X673100Y209296D02*
X673100Y222504D01*
X647700Y222504D02*
X647700Y209296D01*
X622300Y209296D02*
X622300Y222504D01*
X596900Y222504D02*
X596900Y209296D01*
X571500Y209296D02*
X571500Y222504D01*
X546100Y222504D02*
X546100Y209296D01*
X520700Y209296D02*
X520700Y222504D01*
X495300Y222504D02*
X495300Y209296D01*
X469900Y209296D02*
X469900Y222504D01*
X444500Y222504D02*
X444500Y209296D01*
X419100Y209296D02*
X419100Y222504D01*
X393700Y222504D02*
X393700Y209296D01*
D15*
X774446Y63500D03*
X724154Y63500D03*
X749300Y38100D03*
D25*
X711200Y381000D03*
X863600Y381000D03*
D26*
X737400Y381000D03*
X837400Y381000D03*
D20*
X812800Y381000D03*
X762000Y381000D03*
D23*
X241300Y374904D02*
X241300Y361696D01*
X266700Y361696D02*
X266700Y374904D01*
X393700Y374904D02*
X393700Y361696D01*
X419100Y361696D02*
X419100Y374904D01*
X292100Y374904D02*
X292100Y361696D01*
X317500Y361696D02*
X317500Y374904D01*
X368300Y374904D02*
X368300Y361696D01*
X342900Y361696D02*
X342900Y374904D01*
X419100Y437896D02*
X419100Y451104D01*
X393700Y451104D02*
X393700Y437896D01*
X368300Y437896D02*
X368300Y451104D01*
X342900Y451104D02*
X342900Y437896D01*
X317500Y437896D02*
X317500Y451104D01*
X292100Y451104D02*
X292100Y437896D01*
X266700Y437896D02*
X266700Y451104D01*
X241300Y451104D02*
X241300Y437896D01*
D14*
X63500Y533400D03*
X63500Y457200D03*
X139700Y457200D03*
X139700Y533400D03*
D20*
X139700Y368300D03*
X63500Y368300D03*
D23*
X101600Y146304D02*
X101600Y133096D01*
X127000Y133096D02*
X127000Y146304D01*
X254000Y146304D02*
X254000Y133096D01*
X279400Y133096D02*
X279400Y146304D01*
X152400Y146304D02*
X152400Y133096D01*
X177800Y133096D02*
X177800Y146304D01*
X228600Y146304D02*
X228600Y133096D01*
X203200Y133096D02*
X203200Y146304D01*
X304800Y146304D02*
X304800Y133096D01*
X330200Y133096D02*
X330200Y146304D01*
X330200Y209296D02*
X330200Y222504D01*
X304800Y222504D02*
X304800Y209296D01*
X279400Y209296D02*
X279400Y222504D01*
X254000Y222504D02*
X254000Y209296D01*
X228600Y209296D02*
X228600Y222504D01*
X203200Y222504D02*
X203200Y209296D01*
X177800Y209296D02*
X177800Y222504D01*
X152400Y222504D02*
X152400Y209296D01*
X127000Y209296D02*
X127000Y222504D01*
X101600Y222504D02*
X101600Y209296D01*
D10*
X215900Y444500D03*
X215900Y419100D03*
D13*
X114300Y584200D03*
X88900Y584200D03*
D17*
X685800Y558800D03*
X666750Y546100D03*
X685800Y533400D03*
D10*
X635000Y571500D03*
X635000Y495300D03*
D11*
X685800Y673100D03*
D12*
X685800Y698500D03*
D10*
X711200Y215900D03*
X711200Y139700D03*
D27*
X889000Y165100D02*
X914400Y165100D01*
X889000Y165100D02*
X889000Y76200D01*
X622300Y139700D02*
X615950Y133350D01*
X615950Y114300D02*
X615950Y82550D01*
X615950Y114300D02*
X615950Y133350D01*
X615950Y82550D02*
X609600Y76200D01*
X615950Y114300D02*
X673100Y114300D01*
X673100Y139700D01*
X755650Y76200D02*
X768350Y63500D01*
X755650Y76200D02*
X755650Y158750D01*
X774700Y177800D01*
X774446Y63500D02*
X768350Y63500D01*
X850900Y558800D02*
X850900Y596900D01*
X863600Y381000D02*
X837400Y381000D01*
X869950Y692150D02*
X863600Y698500D01*
X869950Y692150D02*
X869950Y615950D01*
X850900Y596900D01*
X812800Y215900D02*
X774700Y177800D01*
X812800Y215900D02*
X812800Y381000D01*
X546100Y266700D02*
X520700Y292100D01*
X520700Y304800D01*
X450850Y336550D02*
X419100Y368300D01*
X450850Y336550D02*
X450850Y311150D01*
X469900Y292100D01*
X520700Y292100D01*
X533400Y419100D02*
X571500Y419100D01*
X533400Y419100D02*
X450850Y336550D01*
X254000Y679450D02*
X254000Y698500D01*
X254000Y679450D02*
X254000Y654050D01*
X253600Y648500D01*
X431800Y635000D02*
X431800Y698500D01*
X431800Y635000D02*
X432054Y635000D01*
X355600Y679450D02*
X254000Y679450D01*
X355600Y679450D02*
X355600Y698500D01*
X368300Y177800D02*
X330200Y139700D01*
X368300Y177800D02*
X368300Y190500D01*
X393700Y114300D02*
X431800Y76200D01*
X393700Y114300D02*
X330200Y114300D01*
X330200Y139700D01*
X88900Y584200D02*
X95250Y590550D01*
X95250Y647700D01*
X101200Y648500D01*
X101600Y654050D02*
X101600Y679450D01*
X101600Y698500D01*
X101600Y654050D02*
X101200Y648500D01*
X63500Y457200D02*
X63500Y368300D01*
X76200Y190500D02*
X12700Y190500D01*
X12700Y241300D01*
X31750Y260350D02*
X50800Y279400D01*
X31750Y260350D02*
X12700Y241300D01*
X76200Y133350D02*
X101600Y107950D01*
X76200Y133350D02*
X76200Y190500D01*
X31750Y336550D02*
X63500Y368300D01*
X31750Y336550D02*
X31750Y260350D01*
X203200Y95250D02*
X228600Y95250D01*
X203200Y95250D02*
X203200Y76200D01*
X254000Y679450D02*
X101600Y679450D01*
X438150Y514350D02*
X533400Y419100D01*
X438150Y514350D02*
X438150Y635000D01*
X432054Y635000D01*
D28*
X101600Y107950D03*
X228600Y95250D03*
D27*
X139700Y533400D02*
X114300Y558800D01*
X114300Y584200D01*
X368300Y215900D02*
X393700Y215900D01*
X69850Y215900D02*
X38100Y215900D01*
X76200Y215900D02*
X101600Y215900D01*
X69850Y285750D02*
X50800Y304800D01*
X69850Y285750D02*
X69850Y215900D01*
X76200Y215900D01*
X336550Y247650D02*
X368300Y215900D01*
X101600Y495300D02*
X139700Y533400D01*
X101600Y495300D02*
X101600Y215900D01*
D28*
X336550Y247650D03*
D29*
X158750Y209550D02*
X152400Y215900D01*
X158750Y209550D02*
X158750Y158750D01*
X165100Y152400D01*
X165100Y69850D01*
X196850Y38100D01*
X393700Y38100D01*
X393700Y63500D01*
X406400Y76200D01*
X184150Y133350D02*
X177800Y139700D01*
X184150Y133350D02*
X184150Y114300D01*
X190500Y107950D01*
X254000Y107950D01*
X254000Y76200D01*
X279400Y114300D02*
X254000Y139700D01*
X279400Y114300D02*
X279400Y76200D01*
X285750Y133350D02*
X279400Y139700D01*
X285750Y133350D02*
X285750Y95250D01*
X304800Y76200D01*
X317500Y184150D02*
X323850Y190500D01*
X317500Y184150D02*
X317500Y95250D01*
X330200Y82550D01*
X330200Y76200D01*
D28*
X323850Y190500D03*
D29*
X292100Y177800D02*
X254000Y215900D01*
X292100Y177800D02*
X292100Y107950D01*
X317500Y82550D01*
X317500Y69850D01*
X323850Y63500D01*
X355600Y63500D01*
X355600Y76200D01*
D27*
X825500Y114300D02*
X863600Y76200D01*
X825500Y127000D02*
X863600Y165100D01*
X825500Y127000D02*
X825500Y114300D01*
X596900Y381000D02*
X596900Y419100D01*
D29*
X825500Y558800D02*
X825500Y596900D01*
X736600Y635000D02*
X736600Y660400D01*
X800100Y673100D02*
X800100Y698500D01*
X889000Y596900D02*
X889000Y571500D01*
X762000Y381000D02*
X737400Y381000D01*
X711200Y381000D01*
X704850Y387350D01*
X704850Y482600D01*
X584200Y603250D01*
X584200Y647700D01*
X558800Y673100D01*
X596900Y469900D02*
X609600Y457200D01*
X596900Y469900D02*
X596900Y520700D01*
X609600Y533400D01*
X596900Y292100D02*
X571500Y266700D01*
X596900Y292100D02*
X596900Y304800D01*
X596900Y292100D02*
X622300Y266700D01*
X520700Y355600D02*
X520700Y381000D01*
X596900Y355600D02*
X596900Y330200D01*
X584200Y444500D02*
X571500Y457200D01*
X584200Y444500D02*
X584200Y368300D01*
X596900Y355600D01*
X279400Y571500D02*
X152400Y571500D01*
X152400Y647700D01*
X151600Y648500D01*
X482600Y584200D02*
X533400Y533400D01*
X482600Y584200D02*
X482600Y635000D01*
X482600Y698500D01*
X482600Y635000D02*
X482346Y635000D01*
X419100Y139700D02*
X457200Y101600D01*
X457200Y76200D01*
X476250Y107950D02*
X444500Y139700D01*
X476250Y107950D02*
X476250Y82550D01*
X482600Y76200D01*
X508000Y127000D02*
X495300Y139700D01*
X508000Y127000D02*
X508000Y76200D01*
X558800Y127000D02*
X546100Y139700D01*
X558800Y127000D02*
X558800Y76200D01*
X482600Y177800D02*
X520700Y215900D01*
X482600Y177800D02*
X482600Y95250D01*
X495300Y82550D01*
X495300Y63500D01*
X482600Y50800D01*
X533400Y203200D02*
X546100Y215900D01*
X533400Y203200D02*
X533400Y95250D01*
X546100Y82550D01*
X546100Y69850D01*
X539750Y63500D01*
X508000Y63500D01*
X508000Y50800D01*
X457200Y660400D02*
X457200Y698500D01*
X603250Y558800D02*
X698500Y463550D01*
X698500Y88900D01*
X723900Y63500D01*
X724154Y63500D01*
D28*
X603250Y558800D03*
D29*
X368300Y368300D02*
X342900Y368300D01*
X368300Y292100D02*
X444500Y215900D01*
X368300Y292100D02*
X368300Y368300D01*
X139700Y368300D02*
X139700Y457200D01*
X317500Y368300D02*
X336550Y387350D01*
X406400Y387350D01*
X406400Y349250D01*
X438150Y317500D01*
X438150Y304800D01*
X508000Y234950D01*
X558800Y234950D01*
X558800Y152400D01*
X571500Y139700D01*
X139700Y152400D02*
X127000Y139700D01*
X139700Y152400D02*
X139700Y349250D01*
X203200Y412750D01*
X203200Y450850D01*
X228600Y476250D01*
X393700Y476250D01*
X393700Y444500D01*
X196850Y146050D02*
X203200Y139700D01*
X196850Y146050D02*
X196850Y196850D01*
X190500Y203200D01*
X190500Y361950D01*
X254000Y425450D01*
X254000Y457200D01*
X260350Y463550D01*
X330200Y463550D01*
X330200Y431800D01*
X336550Y425450D01*
X368300Y425450D01*
X368300Y444500D01*
X228600Y139700D02*
X209550Y120650D01*
X190500Y120650D01*
X190500Y177800D01*
X165100Y203200D01*
X165100Y349250D01*
X228600Y412750D01*
X228600Y457200D01*
X241300Y469900D01*
X342900Y469900D01*
X342900Y444500D01*
X311150Y146050D02*
X304800Y139700D01*
X311150Y146050D02*
X311150Y196850D01*
X317500Y203200D01*
X317500Y342900D01*
X304800Y355600D01*
X304800Y431800D01*
X317500Y444500D01*
X279400Y241300D02*
X304800Y215900D01*
X279400Y241300D02*
X279400Y431800D01*
X266700Y444500D01*
X234950Y222250D02*
X228600Y215900D01*
X234950Y222250D02*
X234950Y361950D01*
X241300Y368300D01*
X203200Y215900D02*
X222250Y196850D01*
X241300Y196850D01*
X241300Y342900D01*
X266700Y368300D01*
X596900Y215900D02*
X635000Y254000D01*
X635000Y495300D01*
D27*
X781050Y285750D02*
X711200Y215900D01*
X781050Y285750D02*
X781050Y565150D01*
X755650Y590550D01*
X755650Y603250D01*
X825500Y673100D01*
X825500Y685800D02*
X838200Y698500D01*
X825500Y685800D02*
X825500Y673100D01*
X755650Y698500D02*
X685800Y698500D01*
X755650Y698500D02*
X755650Y603250D01*
M02*
